<svg width="100" height="26" viewBox="0 0 100 26" fill="none" xmlns="http://www.w3.org/2000/svg">
<path d="M11.7095 0.982544L11.4065 1.01187L10.8005 1.04119L10.1945 1.11938L9.89151 1.17803L9.58851 1.23667L9.31483 1.29532L9.01183 1.37351L8.4547 1.53968L7.89757 1.70584L7.34044 1.93064L6.81263 2.175L6.30437 2.44868L6.05024 2.58551L5.80588 2.72235L5.55175 2.88852L5.3074 3.02535L4.83824 3.387L4.61343 3.55316L4.36907 3.71932L3.95856 4.11029L3.54804 4.52081L3.32323 4.7163L3.12775 4.9411L2.93226 5.13659L2.73678 5.36139L2.40446 5.83056L2.04281 6.29972L1.73981 6.7982L1.60297 7.05233L1.46613 7.27714L1.19245 7.80495L0.948099 8.33276L0.752615 8.88988L0.55713 9.44702L0.390969 9.9846L0.25413 10.5613L0.146613 11.1673L0.0586453 11.7733L0.0293226 12.3793L0 13.0048V13.3078L0.0293226 13.6108L0.0586453 14.2462L0.146613 14.8228L0.205259 15.1258L0.263904 15.4288L0.322549 15.7025L0.400743 16.0055L0.566905 16.5626L0.762389 17.1393L0.957873 17.6671L1.20223 18.2243L1.47591 18.7227L1.61275 18.9964L1.74958 19.2408L1.91575 19.4851L2.05259 19.7099L2.41423 20.1791L2.58039 20.4235L2.74655 20.6483L3.13752 21.0881L3.54804 21.4986L3.74352 21.6941L3.96833 21.8896L4.16382 22.0851L4.38862 22.2806L4.85779 22.6422L5.32695 22.9745L5.82543 23.2775L6.06979 23.4144L6.32392 23.5805L6.85173 23.8249L7.37953 24.0692L7.93666 24.2941L8.49379 24.4895L9.05092 24.6264L9.6276 24.7632L10.2336 24.8707L10.8396 24.9587L11.4456 25.0173H12.5501L13.0193 24.988L13.4884 24.9294L13.7328 24.9001L13.9576 24.8707L14.4267 24.7925L14.8666 24.685L15.3357 24.5775L15.7756 24.4407L16.1959 24.2745L16.6357 24.1083L17.0462 23.9422L17.4665 23.7467L17.877 23.5219L18.268 23.2971L18.659 23.0527L19.0206 22.7986L19.3823 22.5249L19.7439 22.2512L20.0762 21.9482L20.4086 21.6452L20.7409 21.3129L21.0439 21.0099L21.3469 20.6483L21.6206 20.2866L21.8747 19.925L22.1484 19.5633L22.3732 19.1724L22.6175 18.7618L22.813 18.3709L23.0085 17.9604L23.204 17.5498L23.3701 17.11H21.689L21.9431 17.6867L19.3432 21.4693H5.08259L2.29694 17.9897L8.43515 2.15545L11.905 10.4635L15.2185 2.08703L18.3951 9.51543H23.5363L23.3701 9.07559L23.204 8.60643L23.0378 8.16659L22.813 7.75607L22.6175 7.31624L22.3634 6.90572L22.119 6.51475L21.8747 6.12378L21.5717 5.73281L21.4349 5.53733L21.298 5.34185L20.995 4.9802L20.6627 4.64788L20.3304 4.31555L19.9687 3.98323L19.6071 3.68023L19.2454 3.40655L18.8545 3.13287L18.4635 2.85919L18.053 2.61484L17.6425 2.39003L17.2319 2.16522L16.7921 1.96974L16.3523 1.77426L16.1275 1.69606L15.9026 1.60809L15.4433 1.48103L14.9741 1.34419L14.5049 1.23667L14.0065 1.15848L13.5373 1.07051L13.0388 1.04119L12.511 0.982544H11.7095ZM11.0253 17.8626H17.6816L14.2801 9.63273L11.0253 17.8626ZM4.20291 17.8626H10.8592L7.45773 9.63273L4.20291 17.8626ZM18.6785 10.1801L18.9033 10.6786H23.8198L23.7122 10.1801H18.6785ZM19.177 11.3432L19.3725 11.8417H23.9859L23.9273 11.3432H19.177ZM19.6755 12.5063L19.871 13.0048H24.0446V12.5063H19.6755ZM20.1447 13.6597L20.3695 14.1582H23.9859L24.0446 13.6597H20.1447ZM20.6334 14.8228L20.8582 15.3213H23.81L23.898 14.8228H20.6334ZM21.1319 15.986L21.3567 16.4551H23.5363L23.6731 15.986H21.1319Z" fill="#E50113"/>
<path d="M90.9589 3.54371L90.8025 3.6219L90.6461 3.75874L90.5093 3.89558L90.4311 4.00309L90.3822 4.11061L90.3236 4.24745L90.2747 4.38429L90.2454 4.44293L90.1867 4.50158L90.001 4.63842L89.9228 4.69706L89.8935 4.8339L89.8642 4.97074V5.18577L89.8349 5.29329L89.8055 5.35194L89.7762 5.38126L89.7274 5.41058L89.6492 5.46922V5.5181L89.6198 5.57674L89.5612 5.79178L89.5319 5.85042L89.3755 5.98726L89.2973 6.1241L89.1409 6.30981L88.7695 6.73987L88.2612 7.27745L88.2123 7.3361L88.1048 7.44362L88.0266 7.50226L87.9484 7.53158L87.8703 7.56091H87.8116L87.7041 7.53158H87.6454L87.5966 7.56091L87.5184 7.59023L87.4402 7.64888L87.147 7.89323L86.8244 8.03007L86.5312 8.21578L86.5019 9.07591V8.99772L86.5312 9.07591L86.5605 9.10523V9.16388L86.6192 9.1932L86.6485 9.22252H86.6778L86.7071 9.25185L86.7364 9.31049V9.38869L86.7658 9.43756L86.7951 9.4962L86.8733 9.60372L86.9319 9.68191L86.9613 9.76011H87.147L87.2056 9.78943L87.2838 9.81875L87.3424 9.84808L87.4011 9.90672L87.4304 9.93604H87.5868L87.6943 9.90672L87.8507 9.84808L87.9094 9.81875L88.1733 9.60372L88.2808 9.52552L88.3883 9.41801L88.4958 9.28117L88.5251 9.2323L88.5838 9.17365L88.662 9.14433H88.8965L88.9259 9.22252L89.0041 9.33004L89.1116 9.43756L89.2191 9.5744L89.2777 9.65259V9.71123L89.2484 9.74056L89.2191 9.78943L89.1409 9.84808L89.1116 9.8774H89.0432L88.9845 9.95559L88.9552 10.0338L88.9259 10.112L88.8965 10.2781V10.327L88.7597 10.4834L88.7011 10.542L88.6229 10.6007L88.5154 10.7082L88.486 10.7669L88.4274 10.8157L88.3785 10.9526L88.3199 11.0601L88.2905 11.0894L88.2319 11.1187H88.2026L88.1244 11.1774L87.9875 11.2556L87.8312 11.412H87.7725L87.665 11.4413L87.6063 11.4706L87.5575 11.5292L87.4988 11.5879L87.4695 11.6368L87.4402 11.7149L87.3913 11.7638L87.3131 11.8225L87.2545 11.8518L87.0688 11.93L86.9124 11.9886L86.7755 12.0375L86.6973 12.0668L86.6387 12.1255L86.5019 12.2037L86.3455 12.2819L86.1891 12.3405L85.9447 12.4773L85.8372 12.536L85.7786 12.5946L85.7492 12.624V12.6826H85.7786L85.8079 12.7119L85.8372 12.7412V12.8976L85.8665 12.927L85.8959 12.9563L85.9741 13.0051L86.0034 13.0638L86.062 13.1224L86.0913 13.1811L86.15 13.2886V13.3472L86.844 13.7969V13.7675L86.9026 13.7089H87.0297L87.1079 13.7382L87.2447 13.7871L87.3229 13.8164H87.4011L87.4793 13.7871L87.5575 13.7578L87.6943 13.6796L87.8312 13.572L87.9387 13.4352L88.0462 13.2984L88.1244 13.1909L88.4176 12.927L88.4469 12.8976L88.5056 12.8488L88.5544 12.8194L88.6131 12.7901L88.6913 12.7608H88.7695L88.8184 12.7901L88.877 12.8194L88.9063 12.8488L88.9552 12.9563L88.9845 13.0638L89.0138 13.2006V13.4743L88.9845 13.6111L88.9552 13.7187L88.9259 13.8751V14.0608L88.9552 14.4908L89.0138 15.048L88.9845 15.3998L89.0138 15.4292L89.0627 15.5073V15.6637L89.0334 15.7419L88.9747 15.8494L88.9454 15.9081V15.9667L88.9161 16.1036V16.5336L88.8868 16.5825V16.6118L88.8574 16.6412L88.7499 16.6998L88.6424 16.778L88.5642 16.8562L88.5349 16.9344V16.993L88.5056 17.0223L88.4763 17.0517L88.4176 17.081L88.2808 17.1396L88.1244 17.1885L87.9875 17.2472L87.9289 17.2765L87.8996 17.3058V17.384L87.9289 17.4133L87.9582 17.4426L88.2221 17.5795L88.359 17.6283L88.3883 17.6577H88.5251L88.662 17.7163H88.6913L88.7499 17.7456L88.9063 17.8532L89.1507 17.9607L89.4732 18.1171L89.5807 18.1757L89.6883 18.205L89.874 18.2344H90.1672L90.304 18.205L90.4115 18.1757L90.4702 18.1464L90.4995 18.1171L90.5288 18.0682L90.5777 17.99L90.6364 17.8825L90.7732 17.8043L90.8807 17.6968L91.0176 17.5599L91.0664 17.4817L91.1251 17.3742L91.1544 17.2374L91.1837 17.1005L91.213 16.993L91.2424 16.8855V16.778L91.301 16.084L91.2424 15.4682L91.301 15.0186L91.3303 14.8622V14.4811L91.301 14.4224L91.2717 14.266L91.2424 14.0803V13.6502L91.2717 13.4352L91.301 13.2788L91.3303 13.142L91.301 13.0051L91.2717 12.8976V12.7901L91.301 12.4676V12.3307L91.2717 12.2721L91.2424 12.2232L91.1642 12.1646L91.1153 12.1059L91.086 12.0766V12.0179L91.0566 11.9593V11.8322L91.086 11.754L91.1153 11.6759L91.086 11.6172L91.0566 11.539L91.0273 11.4608L90.9687 11.3533V11.2947L90.998 11.2653H91.0273L91.0762 11.236L91.1348 11.1871L91.2912 11.0503L91.4476 10.8353H91.5551L91.604 10.8059L91.6333 10.7766L91.6626 10.7473V10.6398L91.692 10.6105L91.7408 10.5811L91.7702 10.5518H91.9266L92.1416 10.5225H92.2491L92.298 10.5518L92.3273 10.6105L92.3566 10.6398V10.6691L92.3273 10.7278V10.7864L92.2687 10.8939L92.2198 10.9721L92.1611 11.0796V11.1383L92.1905 11.1676L92.2198 11.1969L93.207 11.3044L93.422 11.2751L94.1942 11.1969L94.4385 11.1676L94.5949 11.1969L94.6731 11.2262L94.7024 11.2556L94.7611 11.3142L94.7904 11.3435L94.8197 11.4022V11.539L94.849 12.233L94.8784 12.5849L94.9077 12.8488V12.9856L94.8784 13.0638L94.849 13.2788L94.8197 13.5427V13.8653L94.849 13.9728L94.8784 14.1878L94.9077 14.3442V14.657L94.849 14.7938L94.8197 14.9502L94.7904 15.1066L94.7611 15.4292V15.781L94.6829 16.1329L94.6536 16.1818L94.546 16.2893L94.3897 16.4261L94.2039 16.6118L94.0671 16.6705L93.9596 16.7193L93.8814 16.7487L93.7739 16.7193L93.5882 16.6705L93.3731 16.5923L93.2656 16.5434H93.1777L93.1483 16.5923V16.6998L93.119 16.7487L93.0897 16.778L93.0604 16.8366L92.9822 16.8855L92.9528 16.9637V17.0712L92.9822 17.1494L93.0604 17.3058L93.1386 17.4426L93.1874 17.5013L93.2461 17.5306H93.3731L93.4025 17.5599L93.4318 17.5893L93.4611 17.6479L93.5197 17.7847L93.5686 17.8629L93.6273 17.9411L94.1844 17.9998L94.9566 18.1073H96.5889L96.7746 18.1366L96.931 18.1659L97.0091 18.1366L97.0873 18.078L97.146 17.9998L97.1753 17.9411V16.4457L97.0971 14.872L97.0189 13.7773L96.9896 13.4059L96.9603 13.2691V13.2202L96.9114 13.1127L96.8528 13.0345V12.9856L96.8234 12.927V12.8488L96.8528 12.7706L96.8821 12.5555L96.9114 12.3405L96.9603 12.0766L96.9114 11.8616L96.8332 11.4315V11.3729L96.8625 11.324L96.9212 11.2458L96.9994 11.1871L97.0776 11.1578L97.1851 11.1285H97.4001L97.6445 11.0503L97.8302 11.021H97.9866L98.446 11.1285L98.7392 11.1578H98.7978L98.8467 11.1089L98.9053 11.0796L98.964 11.0503H99.0129L99.2279 11.0796L99.3354 11.0503H99.4136L99.5211 10.9917H99.7459L99.7948 11.021L99.8534 11.0796L99.8828 11.1089L99.9414 11.1383H99.9707L100 11.1089V11.021L99.9707 10.9428L99.9121 10.8353L99.8046 10.6789L99.7752 10.6007V10.4345L99.8339 10.327L99.8632 10.2977V10.239L99.8925 10.1022V9.73078L99.8632 9.03681L99.8925 8.79246V8.5481L99.9512 8.2842V8.06917H99.9219L99.8925 8.12781L99.8339 8.18646L99.6482 8.3233L99.4038 8.47968L99.1106 8.61652L98.9249 8.67517L98.6805 8.72404L98.0941 8.80223L97.5565 8.83155L97.3415 8.86088L96.4813 8.93907L94.6927 8.9684L93.4122 8.99772L92.9626 9.02704L92.7183 9.05636H92.6889L92.6401 9.08568L92.5814 9.11501L92.5521 9.14433V9.17365H92.5228V9.28117L92.5521 9.4962L92.5814 9.5744V9.68191L92.5521 9.74056L92.4935 9.81875L92.4641 9.8774L92.4153 9.93604L92.3566 9.98491H92.298L92.2198 9.95559L92.1905 9.89695L92.1318 9.8383L92.1025 9.78943L92.0243 9.71123L91.9754 9.66236L91.9168 9.60372L91.8581 9.55485L91.8093 9.47665L91.7311 9.32027V9.2323L91.7017 9.17365L91.6431 9.12478L91.5845 9.06614L91.4769 9.00749H91.2424L91.1642 8.97817L91.0566 8.94885L91.0078 8.87065L90.9491 8.79246L90.9198 8.71427L90.8905 8.60675V8.34284L90.9198 8.29397L90.9491 8.23533L90.9785 8.17668L91.0078 8.12781L91.0566 8.07894L91.1348 8.0203L91.213 7.96165L91.2912 7.93233H91.3987L91.4769 7.903L91.6138 7.93233H91.6724L91.7017 7.96165H91.7799V7.93233L91.8093 7.903V7.82481L91.7799 7.66842V7.3361L91.8093 7.28723L91.8386 7.25791L91.8679 7.19926L91.8972 7.12107L91.9266 6.90604V6.72033L91.8972 6.64213V6.58348L91.8679 6.55416V6.47597L91.8386 6.33913L91.8093 6.1241L91.8386 6.06545V5.87974L91.8093 5.66471L91.7799 5.52787L91.7213 5.39103L91.692 5.28352V5.03916L91.7408 4.93164L91.819 4.77525L91.9266 4.66774L91.9559 4.58955L92.0047 4.51135V4.40384L91.9754 4.37451L91.9461 4.34519L91.9168 4.29632L91.7799 4.08129L91.7506 4.02264V3.77829L91.7213 3.74896H91.516L91.4085 3.70009L91.3499 3.64145L91.2912 3.56325L91.213 3.40686L91.1837 3.34822H91.1544L91.1251 3.40686L91.0957 3.43619L90.9882 3.49483L90.9589 3.54371ZM92.4837 5.19555L92.8062 5.30306L93.3145 5.27374L94.0378 5.32261H94.1746L94.2528 5.29329L94.4385 5.21509L94.4972 5.18577L94.5754 5.15645H94.6829L94.8197 5.18577L95.2205 5.24442L95.8362 5.32261L95.9926 5.35194H96.4716L96.7355 5.32261L96.9505 5.27374L97.1362 5.19555L97.2437 5.14668L97.3512 5.08803L97.967 4.76548V4.73616L97.9963 4.67751L98.0257 4.64819L98.1039 4.58955L98.2114 4.5309L98.3678 4.47226L98.5828 4.44293L98.6903 4.41361H98.7685L98.8467 4.44293L98.9053 4.47226L98.964 4.50158L98.9933 4.56022L99.0226 4.58955L99.052 4.64819V4.75571L99.0226 4.8339V5.60606L98.9151 6.43687L98.8858 6.994L98.8565 7.13084L98.749 7.56091L98.6903 7.66842L98.661 7.71729L98.6023 7.74662L98.5535 7.77594L98.5241 7.80526H98.3873L98.0941 7.74662L97.752 7.66842L97.537 7.6391H97.3512L97.1362 7.66842H96.9212L96.5498 7.71729L96.2859 7.74662H95.6896L94.5949 7.82481L92.9919 7.92255L92.8844 7.95187L92.8062 7.9812L92.7476 8.01052V7.60978L92.7183 7.28723L92.6889 7.15039L92.6596 7.04287L92.6303 6.93536L92.601 6.82784L92.5716 6.58348L92.5423 6.13387L92.513 5.94816L92.4641 5.73313L92.3859 5.4399L92.3273 5.36171L92.298 5.28352V5.22487L92.3566 5.19555H92.4837ZM71.43 3.17228V3.09409L71.4593 3.04522L71.4887 2.96702L71.518 2.91815L71.5473 2.88883H71.606L71.6548 2.91815L71.6842 2.94748L71.7428 2.99635L72.0067 3.26025L72.1142 3.41664L72.1924 3.55348L72.2413 3.66099L72.2706 3.76851L72.3488 3.87603L72.4563 3.95422L72.5638 4.03242L72.6127 4.06174L72.6713 4.12038L72.7495 4.2279L72.7789 4.33541L72.8082 4.36474V4.42339L72.8375 4.48203L72.945 4.56022L73.1796 4.71661L73.2089 4.74593L73.2676 4.80458L73.2969 4.88277V4.99029L73.3458 5.06848L73.4044 5.14668L73.4337 5.25419L73.4631 5.36171V5.48877L73.4337 5.54742L73.4044 5.60606L73.3458 5.65493L73.2969 5.71358L73.2383 5.76245V5.85042L73.2676 5.90906L73.2969 5.98726L73.4337 6.09477L73.5413 6.15342L73.7856 6.26094H73.8931L73.9713 6.29026L74.0495 6.26094L74.1277 6.23162L74.2352 6.1241L74.3427 6.01658L74.4209 5.87974L74.4503 5.83087V5.80155H74.4209L74.3916 5.66471L74.3623 5.50832L74.333 5.35194L74.3623 5.27374L74.3916 5.22487L74.4209 5.14668V4.9121L74.3916 4.77525L74.3623 4.72638V4.51135L74.3916 4.43316L74.4209 4.40384L74.4503 4.37451H74.5089L74.5871 4.42339L75.1735 4.82413L75.4961 5.08803L75.6036 5.19555L75.6525 5.27374L75.6818 5.30306L75.7405 5.33239H75.8773L76.3562 5.25419L76.6788 5.22487L77.0502 5.19555H77.2359L77.4216 5.22487L77.6366 5.25419L77.8517 5.31284L77.9006 5.28352H78.1351L78.2426 5.25419H78.3013L78.3599 5.22487L78.3893 5.19555L78.4381 5.16622L78.487 5.08803L78.5652 5.05871L78.6727 5.00984H78.7216L78.7509 5.03916L78.8291 5.06848H78.8584V5.01961L78.9366 4.94142L78.9659 4.88277L79.0246 4.82413L79.1028 4.7948H79.3178L79.4253 4.76548L79.611 4.65797L79.6892 4.62864L79.7381 4.65797L79.8163 4.73616L79.8456 4.81435V5.18577L79.8749 5.26397V5.37148L79.9043 5.44968L79.9336 5.52787V5.57674L79.9629 5.62561V5.99703L79.9336 6.21207L79.9043 6.61281V6.79852L79.8749 6.82784L79.8163 6.90604L79.7577 6.98423L79.7283 7.0331V7.09174L79.699 7.3361L79.6501 7.76617L79.6013 8.2451L79.5426 8.43081L79.5133 8.50901L79.484 8.55788L79.4547 8.63607L79.4253 8.71427V9.48643L79.4742 10.0436L79.5328 10.4443V10.5225L79.5035 10.6789L79.4742 10.9232L79.4449 11.0308L79.3862 11.1676L79.3276 11.2751L79.2787 11.4315L79.2494 11.5683V11.842L79.2787 11.8909V11.9495L79.3276 11.9984L79.3569 12.0277H79.4644L79.5719 11.9984L79.6795 11.9691L79.787 11.9104L79.8456 11.8518L79.9238 11.7736L79.9825 11.6661L80.1193 11.451L80.1975 11.2947L80.2268 11.2458L80.2757 11.2165H80.305L80.3343 11.2458L80.4125 11.3826H80.4712L80.5494 11.412L80.6276 11.4608L80.7058 11.5195L80.7644 11.5977L80.7937 11.6563V11.842L80.6569 12.1939L80.7644 12.3796L80.7937 12.4089V12.4676L80.7644 12.4969L80.7351 12.5555L80.7058 12.5849L80.6764 12.663V12.8683L80.7351 12.9758L80.7937 13.054L80.823 13.0833L80.8719 13.1127L80.9012 13.142L80.9599 13.2202L80.9892 13.2495L80.9599 13.2788L80.9012 13.3277L80.7937 13.357H80.7351L80.6764 13.3863L80.6178 13.4157L80.5396 13.4743L80.4907 13.5232L80.4321 13.6014L80.4027 13.6796L80.2952 13.7089L80.1877 13.7382L80.0509 13.7675H79.6013L79.4937 13.7382L79.2494 13.6893L79.0735 13.5916L78.9366 13.5623H78.7802L78.7509 13.5916L78.7216 13.6405L78.6727 13.748L78.5945 13.8555L78.5652 13.9337V14.0999L78.5945 14.1487L78.6238 14.2074L78.7314 14.3149L78.8682 14.4224L78.9757 14.4713L79.0539 14.5006L79.2103 14.5592L79.3667 14.6081H79.5231L79.7088 14.6374L79.8163 14.6668L79.8945 14.6961L80.1389 14.8036L80.4027 14.9404L80.4809 14.9893L80.5885 15.0186L80.6667 15.048H80.9599L81.1163 15.0186L81.2727 14.9893L81.3802 14.9404L81.4877 14.8818L81.4584 15.0675L81.4095 15.4976L81.3508 15.7419L81.2727 16.0058L81.1945 16.2697L81.0576 16.5141L80.8133 16.866L80.6569 17.081L80.5494 17.2178L80.4712 17.2667L80.2855 17.4231L80.0998 17.6088L80.0216 17.7163L79.9922 17.775L79.9629 17.8532H79.8945L79.787 17.7945V17.7652L79.7577 17.7359L79.699 17.6577L79.6501 17.5795L79.6013 17.5502L79.5426 17.4915H79.484L79.3765 17.4622H79.3178L79.2103 17.4035L79.1028 17.296L78.9464 17.1396L78.8682 17.1103L78.7118 16.9735L78.6043 16.8366L78.487 16.7193L78.3306 16.5336L78.1742 16.2991L78.1156 16.1622L78.0569 16.0547L78.0081 15.9179L77.9494 15.8397L77.9201 15.781L77.8615 15.7322L77.8126 15.7028L77.7344 15.6735H77.6073L77.5487 15.7322L77.4412 15.8103L77.3825 15.869L77.3532 15.9179V16.0058L77.2945 16.084L77.2164 16.1622L77.06 16.2991L76.9525 16.3773L76.8743 16.4261L76.7667 16.5336L76.7081 16.5923L76.6788 16.6509L76.6495 16.7291L76.6201 16.7878V16.9051L76.5419 17.0419L76.4637 17.1201L76.3562 17.2569L76.1998 17.3644L76.0923 17.4426L75.9848 17.5013L75.7405 17.6088L75.3984 17.7163L74.939 17.9607H74.4893L74.3818 18.0389L74.2743 18.0975L74.1375 18.1562L74.0006 18.2148H73.8931L73.8443 18.1855L73.7856 18.1562L73.7367 18.0975L73.7074 18.0389V17.8532L73.6781 17.8043L73.6488 17.7261L73.6194 17.6674L73.5706 17.6381L73.5413 17.6088L73.5119 17.5795V17.384L73.5413 17.1201L73.5119 17.0126L73.4631 16.9344L73.4044 16.8562L73.3262 16.7487L73.248 16.6998L73.1405 16.6412L73.0623 16.6118L73.0037 16.5825H72.9255L72.8668 16.6118H72.818L72.7593 16.6412L72.6811 16.6998L72.6029 16.778L72.4954 16.9148L72.4661 16.993L72.4368 17.0223L72.3293 17.1005L72.2706 17.1299L72.1924 17.1592L72.0849 17.1885L71.9774 17.1592H71.9383L71.8796 17.1885L71.8308 17.2472L71.7721 17.296L71.6939 17.4035L71.6646 17.4622L71.4496 17.5697L71.2932 17.6283H71.1563L71.127 17.6577L71.0488 17.7359L70.9706 17.8727L70.9413 17.902L70.912 17.9314L70.8631 17.9607H70.8045L70.7263 17.9314L70.697 17.902L70.6676 17.8434L70.5601 17.7359L70.1301 17.2569L69.9737 17.0126L69.9443 16.9344L69.8368 16.8269L69.788 16.7487L69.7098 16.6705L69.6316 16.6412L69.5729 16.6118L69.5436 16.5825H69.4654L69.4361 16.5336L69.4068 16.475V16.4261L69.4361 16.3479L69.4654 16.2893L69.094 15.4096V15.351L69.1233 15.3216H69.1526L69.1819 15.2923H69.2601L69.3383 15.3216L69.4752 15.351L69.612 15.3803H70.091L70.2473 15.351L70.3842 15.2923L70.4917 15.2141L70.5992 15.1359L70.7067 15.1066L70.8142 15.0773L70.8729 15.048H71.0097L71.0391 15.0773L71.1172 15.048L71.2736 14.9111L71.3518 14.8036L71.4105 14.6961L71.4398 14.6179L71.4691 14.5397L71.4984 14.4615V14.2758L71.4691 14.1976L71.4398 14.1194L71.4105 14.0608L71.3811 14.0314L71.3518 14.0021L71.2736 13.9728L71.1954 13.9435L71.1172 13.9728H71.0391L71.0097 14.0021L70.9315 14.0314L70.8827 14.0803L70.824 14.139L70.7654 14.1781L70.7067 14.2856L70.6774 14.3149L70.6481 14.3735L70.5699 14.4517L70.4624 14.5299L70.3549 14.6081L70.218 14.657L70.1105 14.7156H69.9834L69.9346 14.6374L69.8759 14.5886V14.1781L69.8466 14.0705L69.7977 13.8555L69.7391 13.6991L69.7098 13.6209L69.6804 13.5134L69.6022 13.2691L69.5729 13.1322V12.8683L69.6022 12.8097H69.6316L69.6609 12.7803L69.7684 12.751H69.8759L69.9834 12.7803L70.1985 12.8097L70.2767 12.839H70.4624L70.6188 12.8683H70.8045L71.0195 12.839L71.1759 12.7901L71.2345 12.7608L71.2834 12.7021L71.3421 12.6533V12.5751L71.4007 12.3307V12.2232L71.3714 12.145L71.3421 12.0668L71.2834 12.0082L71.1759 11.9789H71.0684L70.4037 12.1352L70.3451 12.1646L70.2962 12.1352H70.2473L70.1887 12.1059L70.1105 12.0766L70.0519 11.9984L70.0225 11.9495V11.9202L69.9834 11.8322L69.9346 11.754L69.8564 11.6759L69.8075 11.5977L69.7489 11.5683H69.6022L69.5534 11.6172L69.4947 11.6759V11.754L69.4654 11.8616L69.4361 11.9691V12.0766L69.3774 12.2134L69.2992 12.3503L69.2406 12.4285L69.1819 12.4871L69.1526 12.5458L69.1233 12.5946L69.094 12.7315L69.0647 12.7901L69.006 12.8683L68.9278 12.927L68.8692 12.9758H68.8399L68.8105 13.0051L68.7812 13.0833L68.7519 13.1615V13.2397L68.7812 13.4254V13.5623H68.8105L68.7617 13.5916H68.703L68.6248 13.5623L68.5662 13.533L68.4587 13.4548L68.3511 13.3961L68.2729 13.3668L68.1948 13.3179L68.1166 13.2397L68.0677 13.1615L68.0188 13.0833L67.9895 13.0051V12.9563L67.6669 12.8488H67.5594L67.4812 12.8194L67.3737 12.7901L67.2662 12.7315L67.2369 12.7021L67.188 12.6533L67.1587 12.5946V12.1157L67.1294 12.0864L67.1 12.057H67.0512L67.0219 12.0277L66.9632 11.9984V11.9691L66.9925 11.9104L67.0219 11.8811L67.1294 11.8029L67.188 11.7736L67.2662 11.7443L67.4812 11.6661L67.7451 11.5879H67.8038L67.9406 11.5586L68.1263 11.4999L68.2338 11.4413L68.3414 11.3924L68.4782 11.3142L68.615 11.2067L68.7519 11.0699L68.8887 10.933L69.0256 10.7473L69.1624 10.5616L69.2992 10.3172L69.4361 10.0533L70.4135 7.92255L70.7067 6.64213L70.9511 5.62561L71.0879 5.19555L71.1661 4.90232L71.1954 4.7948L71.2736 4.55045L71.3225 4.2279L71.3811 4.04219L71.4105 3.85648L71.4398 3.3189V3.17228H71.43ZM76.1314 13.2984V13.2397L76.1607 13.1909L76.1901 13.1615L76.2194 13.1127L76.2976 13.0833H76.4051L76.5419 13.1127L76.6201 13.1615L76.6495 13.1909L76.6788 13.2397V13.4352L76.757 13.5916L76.8645 13.7284L76.8938 13.7871L76.9231 13.8164L76.9818 13.8457L77.0404 13.8946L77.0991 13.9532L77.1284 14.0314L77.1577 14.1096L77.187 14.2172V14.2953L77.1577 14.4029L77.1284 14.4517L77.0991 14.5104L77.0209 14.6472L76.9427 14.7547L76.8938 14.8134V14.9209L76.757 14.9795H76.7276L76.669 15.0089L76.6104 15.0675L76.581 15.0968L76.5517 15.1262L76.5224 15.1848L76.4637 15.2141L76.3855 15.2434H76.2389L76.1803 15.1848L76.1314 15.1262L76.1021 15.0773V15.0186L76.0728 14.8818V14.2465L76.1021 14.1683L76.1314 13.7089V13.2984ZM77.0111 12.0961L76.9525 12.1255L76.8743 12.233L76.8449 12.2819L76.8156 12.36V12.4969L76.8449 12.5555L76.8938 12.6924L76.972 12.7999L77.0502 12.8781L77.0991 12.9074L77.1284 12.9563L77.2359 13.0931L77.3141 13.2495L77.3434 13.2788L77.3727 13.3081H77.4314L77.4803 13.3375L77.5585 13.3081L77.6366 13.2788L77.7442 13.2006L78.0081 13.0442L78.3013 12.8879L78.5945 12.751L79.0735 12.3796V12.3503L79.1028 12.321V12.2623L79.0735 12.2134L79.0441 12.1548L78.9659 12.1059L78.8877 12.0766L78.272 11.9398L78.1156 11.9691L77.793 12.0473L77.3336 12.1255L77.2261 12.1548H77.1186L77.0404 12.1255L77.0111 12.0961ZM76.454 9.7992L76.2683 10.0142L76.1901 10.1218L76.1412 10.1999V10.3172L76.1705 10.3466L76.1998 10.3759L76.2292 10.4834L76.2585 10.5909L76.3074 10.6496L76.3367 10.7278L76.366 10.7571L76.4246 10.7864L76.5322 10.8157H76.8058L77.0502 10.7864L77.1284 10.7571L77.1577 10.7278L77.2164 10.6789L77.2652 10.6496L77.3434 10.6202H77.4509L77.5878 10.5909L77.7442 10.5616L77.8517 10.5323L77.9006 10.5029L77.9592 10.4541L77.9885 10.3954L78.0178 10.3466V10.239L78.0472 10.1315L78.0178 9.97514L77.9885 9.91649L77.9592 9.8383L77.9006 9.77965L77.8517 9.73078L77.6953 9.62327L77.6171 9.59395L77.5389 9.56462H77.4118L77.3336 9.59395L77.2555 9.62327L77.1773 9.70146L77.1186 9.75033L77.0697 9.77965L76.9622 9.8383L76.8547 9.86762H76.7472L76.6104 9.8383H76.5322L76.454 9.7992ZM76.2389 7.55113L76.1803 7.62933L76.151 7.65865H76.1216L76.063 7.68797V7.73684L76.0923 7.92255L76.1216 8.03007L76.151 8.08872L76.1803 8.14736L76.2096 8.17668H76.2585L76.366 8.14736L76.6104 8.11804H76.8547L76.9622 8.14736L77.0404 8.17668L77.1479 8.23533L77.2848 8.26465H77.363L77.4705 8.23533L77.578 8.17668L77.6366 8.11804L77.8517 7.85413L77.9006 7.82481L77.9787 7.76617L78.0276 7.70752L78.0863 7.65865V7.52181L78.0276 7.41429L77.9787 7.30678L77.9006 7.24813L77.8517 7.18949L77.7735 7.16017H77.6562L77.6073 7.18949L77.5487 7.21881L77.4705 7.24813L77.2848 7.21881H77.1186L77.0404 7.24813L77.0111 7.27745L76.9525 7.35565L76.8938 7.41429L76.8156 7.47294H76.5517L76.3953 7.50226L76.2389 7.55113ZM72.8766 9.8774L72.818 9.84808L72.7593 9.78943L72.73 9.76011L72.7007 9.73078L72.6713 9.68191L72.642 9.65259V9.48643L72.6713 9.40824L72.7495 9.27139L72.8277 9.24207L73.0428 9.1932L73.1796 9.16388H73.3164L73.4533 9.1932L73.5608 9.24207L73.6683 9.27139H73.7465L73.7758 9.24207L73.8052 9.1932V9.05636L73.7758 8.94885L73.8052 8.87065V8.79246L73.8345 8.74359L73.8834 8.60675L73.9127 8.5481L73.9713 8.49923L74.0202 8.46991L74.0495 8.42104L74.0984 8.31352V8.21578L74.1277 8.15713L74.1864 8.09849L74.245 8.04962L74.2939 8.0203H74.3818L74.46 8.07894L74.5675 8.21578L74.6751 9.84808L74.8119 10.9428L74.8608 12.5164L74.8901 13.3668L74.9487 13.9826V14.1976L74.9781 14.3344L75.0074 14.3931V14.4713L74.9585 14.6081L74.8999 14.745L74.8705 14.8036L74.7728 15.2532L74.7142 15.3119L74.6555 15.4682L74.6066 15.5464L74.5773 15.654V16.0058L74.548 16.0352L74.4991 16.1133L74.4796 16.1329L74.4307 16.1622L74.3525 16.2209H74.2743L74.1668 16.2502L74.0886 16.2209L73.9811 16.1622L73.8736 16.1133L73.8149 16.0352L73.7856 15.9276L73.7367 15.8494L73.6781 15.8201H73.6194L73.5901 15.7908V15.7419L73.5608 15.6637L73.5901 15.6051V15.5464L73.6194 15.5171L73.6976 15.4096L73.7465 15.3803L73.8052 15.3314L73.9127 15.2532L73.9909 15.1164L74.0495 15.0675L74.0788 14.9893L74.1082 14.8525L74.1375 14.7156V14.5788L74.1082 14.3344L74.0788 14.0901L74.0495 13.7969V13.4743L74.1277 13.2593V13.1029L74.0984 13.0247L74.0495 12.9661L73.9909 12.8879L73.9615 12.8585L73.9322 12.7999L73.9029 12.6924L73.8736 12.5555V12.4187L73.9029 12.3112V12.1743L73.9322 12.0961L73.9615 12.0179L74.0104 11.8616L74.0397 11.754L74.0691 11.6465L74.0984 11.4315V11.1676L74.1277 10.8157V10.63L74.0984 10.4736L74.0691 10.3368L74.0397 10.2879L74.0104 10.2586L73.9615 10.1999L73.8834 10.1413L73.727 10.0631L73.5706 10.0338H73.3849L73.3067 10.0045L73.2285 9.97514L73.1503 9.91649L73.121 9.88717H73.0916L72.9841 9.85785H72.8766V9.8774ZM72.5247 14.0705L72.4954 14.1487V14.2074L72.5247 14.2562L72.6322 14.4224L72.6811 14.5299L72.7593 14.6081L72.818 14.657L72.8962 14.6863L73.033 14.745H73.1601L73.2969 14.7743H73.3751L73.4826 14.8036H73.5901L73.6976 14.7743L73.8052 14.745L73.8834 14.6863L73.9127 14.657V14.6081L73.942 14.5592V14.3638L73.5413 13.8848L73.033 13.836H72.8962L72.7886 13.8653L72.7104 13.9141L72.6616 13.9435L72.5541 14.051L72.5247 14.0705ZM72.6616 12.0961L72.6909 12.448V12.5067L72.7202 12.536L72.7495 12.5849L72.7789 12.6142L72.8571 12.6435L72.9646 12.6728H73.121L73.2773 12.6435L73.3555 12.6142L73.4142 12.5849L73.4435 12.5555L73.4728 12.5262L73.4435 12.4969L73.5022 12.3894L73.551 12.3112L73.6097 12.2525L73.639 12.2232L73.6976 12.1939V12.057L73.6683 11.9789L73.6194 11.9007L73.5608 11.8225L73.4826 11.7638L73.4044 11.7345L73.1894 11.7638H73.1112L73.0037 11.8225L72.8962 11.9007L72.818 11.9789L72.7398 12.0277L72.6811 12.057L72.6616 12.0961ZM71.0586 9.21275V9.26162L71.0293 9.39846L70.9706 9.55485L70.9413 9.61349L70.912 9.64282H70.8827L70.824 9.67214L70.7947 9.73078V9.76011L70.824 9.81875L70.8533 9.84808L70.9022 9.8774L70.9804 9.90672H71.2443L71.3225 9.8774L71.3811 9.84808L71.4105 9.78943L71.4593 9.71123L71.4887 9.63304V9.4962L71.4593 9.43756L71.43 9.38869L71.3811 9.33981L71.303 9.26162L71.2541 9.2323H71.0586V9.21275ZM72.2608 7.01355L72.1826 7.16994L72.1533 7.30678V7.41429L72.1826 7.52181L72.212 7.60001L72.2413 7.65865L72.2999 7.70752H72.5443L72.5932 7.76617L72.6518 7.79549L72.7007 7.85413L72.7593 7.88346L72.818 7.91278L72.8962 7.9421H73.033L73.0916 7.83459L73.3067 7.48271L73.3849 7.3752L73.4142 7.26768V7.20904L73.3849 7.13084L73.3555 7.10152L73.3262 7.0722L73.2969 7.04287L72.8375 6.67145L72.7593 6.64213H72.7007L72.6518 6.61281L72.5932 6.64213L72.5443 6.67145L72.515 6.70078L72.4368 6.77897L72.3879 6.85716L72.3293 6.93536L72.2608 7.01355ZM54.1199 5.48877H54.462L54.6477 5.45945L54.8041 5.41058L54.8823 5.35194L54.9311 5.32261L54.9898 5.27374L55.0191 5.21509L54.9898 5.16622L54.9605 5.08803L54.6672 4.84368L54.4522 4.62864L54.374 4.52113L54.3251 4.44293L54.2469 4.38429L54.1394 4.27677L54.0906 4.19858L54.0612 4.12038V4.01287L54.1394 3.90535V3.82716L54.1101 3.79783L54.0808 3.71964L54.0515 3.66099L53.9928 3.60235L53.9146 3.52416V3.46551L53.8853 3.38732L53.8267 3.30912L53.7973 3.23093V3.15274L53.8267 3.04522V3.03545L53.856 2.9768L53.9146 2.94748L53.944 2.89861L53.9928 2.86928H54.071L54.1492 2.83996H55.2732L55.3808 2.81064L55.459 2.78132L55.5176 2.75199L55.6544 2.72267L55.8108 2.69335H56.1822L56.368 2.75199L56.4755 2.78132L56.5537 2.81064L56.6319 2.86928L56.7101 2.92793L56.7589 2.95725L56.9153 3.03545L57.101 3.08432H57.3063L57.3551 3.11364L57.3845 3.14296V3.25048L57.3551 3.32867L57.3063 3.38732L57.2281 3.44596L57.1988 3.55348L57.0619 3.76851L56.9837 3.87603L56.9055 3.98355L56.8273 4.06174L56.7491 4.12038L56.7003 4.16926L56.5634 4.30609L56.5048 4.41361L56.4559 4.55045L56.3973 4.68729L56.368 4.82413L56.3386 4.90232V4.98051L56.368 5.05871L56.4168 5.1369L56.5243 5.19555L56.6025 5.22487H56.7101L56.9446 5.19555L57.0815 5.24442L57.4236 5.27374L57.6679 5.30306L57.9025 5.27374H58.01L58.1469 5.24442L58.2544 5.21509L58.3912 5.18577L59.1927 5.12713L60.131 5.06848H60.2874L60.4731 5.01961L60.5513 4.99029L60.6295 4.96097L60.7077 4.90232L60.7859 4.85345L60.8152 4.82413L60.8934 4.7948L61.0791 4.76548H61.2942L61.5385 4.81435L61.7829 4.89255L61.8904 4.95119L61.9979 5.00984L62.0761 5.08803L62.1054 5.14668L62.1347 5.19555L62.1641 5.30306L62.1934 5.41058V6.14365L62.1641 6.32936L62.1054 6.48574L62.0761 6.56394L62.0272 6.62258L61.9686 6.67145V6.74965L61.9393 6.82784L61.9099 6.90604L61.8806 6.95491V7.42407L61.8513 7.50226L61.8024 7.58046L61.7242 7.62933L61.646 7.68797H61.5092L61.4017 7.65865L61.2453 7.60001L61.1084 7.55113L60.9716 7.52181L60.8641 7.49249L60.7566 7.46316L60.6491 7.49249H60.5709L60.522 7.52181L60.4633 7.55113L60.434 7.58046L60.4047 7.60978L60.2972 7.6391L60.1603 7.66842H59.8476L59.6912 7.6391L59.5837 7.60978L59.5348 7.58046L59.5055 7.55113H59.4468L59.398 7.52181L59.2904 7.49249H58.9777L58.6844 7.55113H58.5476L58.4987 7.62933L58.4401 7.70752L58.3619 7.84436L58.313 7.9812L58.2544 8.13759V8.50901L58.2837 8.5872L58.3423 8.63607L58.3717 8.69472L58.4303 8.75336H58.489L58.5378 8.78268H58.6453L58.7529 8.75336L58.8311 8.72404L58.9093 8.69472L58.9874 8.66539L59.0656 8.61652L59.1732 8.5872L59.3295 8.55788L59.4859 8.52856L59.6423 8.55788H59.8574L60.0724 8.61652L60.1799 8.66539L60.2581 8.69472L60.3363 8.75336L60.3852 8.83155L60.4633 8.93907L60.522 9.07591L60.5513 9.18343L60.522 9.29094V9.44733L60.5513 9.66236L60.6002 9.95559L60.6295 10.0924L60.6784 10.2293L60.7077 10.2879V10.3368L60.737 10.4736L60.7077 10.63L60.6784 10.7669L60.6295 11.0308L60.5709 11.1871V11.2165L60.5415 11.2947L60.5122 11.451V12.1646L60.5611 12.8097L60.6686 13.6893L60.7273 14.2465L60.8054 14.8622L60.8348 15.0773V15.263L60.8641 15.6637V16.0645L60.8348 16.4163L60.7761 16.9735L60.7468 17.2178L60.7175 17.296L60.6882 17.4329L60.6295 17.6479V17.7554L60.6588 17.8923V18.078L60.6295 18.1366H60.6002L60.4633 18.1659H60.2776L59.0363 18.0877L58.9288 18.0584H58.4108L58.3032 18.0877L58.2251 18.1171H57.795L57.6093 18.0584L57.5018 18.0291L57.3942 17.9998L57.2085 17.8923L57.101 17.8434L57.0228 17.7652L56.7589 17.687L56.5439 17.6283L56.407 17.599L56.4364 17.5697L56.5928 17.4622L56.7003 17.384L56.7785 17.2765L56.8567 17.1983L56.886 17.0908L56.9153 17.0126V16.9051L56.886 16.7682L56.8567 16.7096L56.8273 16.6607L56.7687 16.6021L56.7198 16.5727L56.6612 16.5141H56.583L56.4755 16.4848H54.7943L54.6868 16.5141H54.4424L54.3056 16.4652L54.2469 16.4359L54.1981 16.4066L54.1394 16.3577L54.1101 16.2991L54.0808 16.2502V16.172L54.0319 15.5269V15.4682L54.0612 15.3607L54.0906 15.3119L54.0612 15.2532L54.0319 15.2239L53.9733 15.175V15.1164L53.944 14.9795V14.8231L53.9733 14.745L54.0319 14.6863V14.3638L53.9244 14.1781L53.9537 13.4841L53.983 13.2397L53.9537 13.2104L53.9244 13.1615L53.8462 13.1029L53.768 13.0442L53.6605 12.9954L53.5041 12.9661L53.3184 12.9367L53.2402 12.9661H53.1816L53.1522 13.0247V13.0833L53.1816 13.1909L53.2109 13.2495V13.2984L53.1816 13.357V13.6209L53.2109 13.8066L53.2402 13.963L53.3477 16.5239V17.0614L53.3184 17.1983L53.2695 17.3058L53.2109 17.3547H53.1816L53.1034 17.4133L53.0447 17.4426L53.0154 17.472V17.5013L53.0447 17.5306H53.074L53.1034 17.5599H52.7808L52.7026 17.5893L52.644 17.6381L52.5853 17.7456H52.556L52.5267 17.775L52.468 17.8043H52.3117L52.2041 17.775L52.0478 17.7261L51.432 17.5697H51.3733L51.3245 17.5404V17.5111L51.2951 17.4817L51.2658 17.4329L51.2365 17.3254V16.8953L51.2072 16.6021L51.1778 16.3577L51.1485 16.172V15.9863L51.1192 15.6149V12.9367L51.1485 12.751L51.0215 9.98491L50.9921 9.7992V9.33981L51.0215 9.26162L51.0801 9.18343L51.1094 9.13456V8.89998L51.1388 8.87065V8.84133L51.1681 8.81201L51.1974 8.78268L51.3049 8.75336L51.4613 8.72404H51.8914L52.2628 8.78268L52.4485 8.81201L52.6049 8.87065L52.7417 8.89998L52.8786 8.9293L53.0154 8.89998H53.1522L53.3379 8.84133L53.4161 8.81201L53.4455 8.78268H53.4943L53.5237 8.72404L53.553 8.69472V8.55788L53.5237 8.47968L53.4455 8.3233L53.3673 8.21578L53.3184 8.13759L53.2891 8.05939L53.2598 7.95187L53.2011 7.89323L53.1718 7.84436L53.1131 7.78572L53.0545 7.75639H52.947L52.8395 7.78572L52.8101 7.81504L52.6538 7.89323L52.5462 7.92255L52.3898 7.95187L52.2335 7.9812H52.0184L51.5395 8.03007L51.1876 8.08872H50.8357L50.6207 8.11804L50.2786 8.19623L50.1711 8.22555H50.1125L50.0636 8.25488H50.0049L49.9463 8.21578L49.8974 8.15713L49.8681 8.09849L49.7899 7.9421L49.7313 7.86391L49.6726 7.81504H49.6531L49.5944 7.73684L49.5651 7.62933V7.36542L49.5944 7.31655L49.5651 7.25791L49.5358 7.12107L49.5065 7.04287L49.4478 6.96468L49.3892 6.88649L49.311 6.80829L49.2523 6.7301L49.2035 6.65191L49.1448 6.54439V6.45642L49.1155 6.37823L49.0862 6.19252V5.97748L49.1155 5.71358L49.1448 5.46922V5.08803L49.1741 5.03916L49.2035 5.00984H49.2328L49.2816 4.98051L49.3403 5.00984L49.3892 5.03916L49.4674 5.08803L49.4967 5.14668L49.5749 5.19555L49.6824 5.25419L49.8192 5.33239L49.9756 5.39103L50.0831 5.42035H50.1906L50.3275 5.44968H50.4643L54.1199 5.48877ZM55.1071 8.3233L55.1853 8.43081L55.2928 8.56765L55.3417 8.67517L55.371 8.73381L55.4296 8.81201L55.5078 8.87065L55.6447 8.9293H55.9379L56.1236 8.89998L56.2311 8.87065L56.3386 8.81201L56.3973 8.73381L56.4266 8.67517L56.4559 8.6263V8.5481L56.4266 8.48946V8.30375L56.4559 8.22555L56.5341 8.01052L56.5928 7.87368L56.6221 7.76617V7.65865L56.5928 7.58046L56.5634 7.52181L56.5341 7.49249H56.495L56.4364 7.46316H56.3875L56.28 7.49249H56.2018L56.065 7.46316L55.8499 7.40452L55.7913 7.3752H55.7326L55.5958 7.43384L55.459 7.48271L55.3221 7.56091L55.1657 7.74662L55.0875 7.82481L55.0289 7.92255L54.9996 7.9812V8.16691L55.0289 8.2451L55.0875 8.27443L55.1071 8.3233ZM57.2672 10.9721L57.2379 11.1285L57.2672 11.2653L57.2965 11.3435L57.3258 11.4217L57.3551 11.4706L57.404 11.4999H57.4627L57.5409 11.4706L57.5897 11.4999L57.6484 11.5292L57.707 11.5879L57.7559 11.6661L57.8145 11.7443L57.8634 11.8029L57.9416 11.8322H58.1566L58.2153 11.8029L58.3521 11.6172L58.3814 11.5879H58.4401L58.4694 11.5586L58.5281 11.4999L58.5769 11.4217L58.6356 11.3435L58.6844 11.1871L58.7138 11.0503V10.9135L58.6844 10.8353L58.6551 10.7571L58.6258 10.6984L58.5672 10.6691L58.5378 10.6398H58.489L58.3326 10.6691H58.1957L58.0882 10.6398L57.9025 10.5811H57.7168L57.6582 10.6105H57.4431L57.4138 10.6398L57.3649 10.6691L57.3356 10.6984V10.7278L57.277 10.7864V10.9721H57.2672ZM55.5078 11.324L55.5371 11.539L55.586 11.6954L55.6447 11.8811L55.674 11.9593L55.7033 12.0375L55.674 12.0961V12.1743L55.5958 12.2819L55.4883 12.4187L55.459 12.4969L55.4296 12.5751L55.459 12.6044V12.6337L55.4883 12.663L55.5469 12.7119H55.7229L55.8597 12.6826H56.2311L56.3093 12.7119H56.368L56.4168 12.7412H56.4461L56.5537 12.7119L56.6905 12.6826L56.7491 12.6533L56.7785 12.5946L56.8078 12.5164V12.4578L56.7785 12.3796L56.7491 12.3014L56.6905 12.2232L56.6319 12.145L56.583 12.0375L56.5537 11.9007L56.5243 11.5292V11.021L56.495 10.9428L56.4657 10.8646L56.4168 10.8059L56.3386 10.7571L56.28 10.7278L56.2018 10.6984L56.065 10.6691H55.9086L55.8011 10.6984L55.6642 10.7278H55.6153L55.5567 10.7571L55.5274 10.7864L55.498 10.8353L55.4687 10.8646L55.4394 10.9232V11.1383L55.4687 11.2458L55.5078 11.324ZM53.2598 10.8646H53.1816L53.1034 10.9232L53.074 10.9526L53.0252 11.0112V11.2067L53.0545 11.3631V11.4608L53.0252 11.4901L52.9665 11.5195L52.9079 11.5488L52.859 11.6074L52.8297 11.6563L52.8004 11.7345L52.7808 11.8322V11.9398L52.8101 12.0473L52.8395 12.1255L52.8688 12.1743L52.8981 12.2037L52.9763 12.2525H53.0838L53.1913 12.2819L53.2695 12.2525H53.3477L53.4259 12.2232L54.071 11.8518L54.1785 11.2947V11.1578L54.1199 11.021L54.071 10.8841L53.9635 10.7766L53.856 10.6691L53.8071 10.6398L53.7778 10.6105H53.6605L53.6312 10.6398L53.6019 10.6887L53.5432 10.7669L53.4943 10.8157L53.4357 10.845L53.3575 10.8744L53.2793 10.845H53.2598V10.8646ZM57.8341 13.0051V13.0833L57.8048 13.3472L57.7754 13.6405L57.8048 13.7969L57.8341 13.9337L57.8634 14.0705V14.7352L57.8341 14.8427V16.2404L57.8634 16.2991L57.8927 16.3479L57.9221 16.3773L57.9514 16.4066L58.01 16.4359L58.0687 16.4652H58.1762L58.3326 16.4066L58.4108 16.3773L58.4694 16.3186L58.4987 16.2893L58.5476 16.2306L58.5769 16.1524L58.6062 16.0743V15.9374L58.5769 15.8592L58.5476 15.781L58.5183 15.6246V15.2728L58.5476 15.0284L58.5769 14.9209L58.6062 14.8427V14.7059L58.6356 14.354V13.2984L58.6649 13.0051L58.6356 12.927L58.6062 12.8488L58.5476 12.7412L58.4987 12.6826L58.4694 12.6533L58.4108 12.624L58.3619 12.5946H58.3032L58.2446 12.624L58.1957 12.5946H58.1175L58.0393 12.6533L58.01 12.6826L57.9514 12.7119L57.9221 12.7706L57.8634 12.8488V12.927L57.8341 13.0051ZM55.2439 14.3442L55.2146 14.9307V15.0675L55.2439 15.175L55.3026 15.2239L55.3319 15.2825L55.3905 15.3119H55.4687L55.5469 15.2825H55.6251L55.6838 15.3119L55.7326 15.3412L55.8108 15.3901L55.8401 15.4194L55.889 15.4682L55.9672 15.4976L56.0454 15.5269H56.1236L56.2604 15.4976H56.2898L56.3191 15.4682L56.3484 15.4194L56.3777 15.3607L56.4852 15.2532L56.6416 15.1164L56.7003 15.0871L56.7296 15.0577L56.7882 14.9502V14.8427L56.7589 14.0901V14.0314L56.7296 13.9826L56.7003 13.9239L56.6416 13.8946L56.6123 13.8653H56.5537L56.4461 13.836H56.1529L56.1236 13.8653L56.0943 13.8946L56.0161 13.9239L55.9379 13.9532H55.6447L55.5078 13.9239H55.4003L55.3221 13.9532L55.2928 13.9826L55.2635 14.0314L55.2341 14.0901V14.3442H55.2439ZM30.5249 6.45642H30.7693L31.3557 6.48574H31.7272L32.0693 6.45642L32.4407 6.4271L32.7339 6.39778L32.8414 6.3489L32.9489 6.27071L33.0564 6.19252L33.1346 6.05568L33.164 5.97748L33.1933 5.89929L33.2226 5.8211V5.71358L33.1933 5.60606L33.164 5.49855L33.0858 5.176L32.9001 4.45271L32.7437 3.65122L32.685 3.32867V3.11364L32.6557 3.00612V2.89861L32.685 2.79109L32.7437 2.68357L32.773 2.62493L32.8316 2.59561L32.9098 2.56628H32.988L33.0662 2.59561L33.2031 2.62493L33.3399 2.70312L33.4963 2.78132L33.7113 2.88883L33.9752 2.96702L34.2685 3.02567L34.4248 3.055H34.894V6.0459L34.9526 6.1241L34.982 6.20229L35.0602 6.30981L35.197 6.36845L35.2556 6.39778L35.3632 6.4271H35.5782L35.715 6.39778L35.8519 6.3489L35.9301 6.31958L36.0865 6.21207L36.1646 6.13387L36.2428 6.05568L36.2722 5.97748L36.3015 5.91884V5.88952L36.2722 5.70381L36.1646 5.33239L36.106 5.08803L36.0278 4.873L35.9496 4.71661L35.8714 4.60909L35.8421 4.47226L35.8128 4.20835V4.07151L35.8714 3.99332L35.9007 3.93467H36.0376L37.6699 4.12038L38.8428 4.25722L39.2728 4.33541L39.4879 4.38429H40.1525L40.4946 4.33541L40.6803 4.30609L40.866 4.27677L41.0518 4.2279L41.2668 4.16926L41.4818 4.09106L41.7262 4.01287L41.9901 3.98355L42.6059 3.95422H43.5637L43.6712 3.98355H43.7494L43.8276 4.01287L43.8765 4.04219L43.9547 4.12038L43.984 4.17903L44.0133 4.23767L44.0427 4.28654V4.44293L44.0133 4.55045L43.984 4.65797L43.9254 4.7948L43.8961 4.873L43.8374 5.02938L43.8081 5.1369V5.24442L43.7788 5.35194L43.8081 5.45945L43.7788 5.56697L43.7006 5.83087L43.5442 6.30981L43.4367 6.57371L43.2998 6.89626L43.163 7.3752L43.1043 7.74662V7.92255L43.075 8.05939L42.9382 8.56765L42.7818 8.99772L42.7036 9.18343L42.645 9.32027L42.5668 9.67214L42.4592 9.77965L42.166 10.0436L42.0292 10.1999L41.8923 10.3563L41.7848 10.5127L41.736 10.6202H41.6382L41.4525 10.6496L41.345 10.6789L41.2375 10.7375L41.2081 10.7669L41.1788 10.8157V10.933L41.1495 11.0112V11.0894L41.1788 11.1676L41.2277 11.2751L41.3352 11.3533L41.4916 11.4315L41.5991 11.4608L41.736 11.4901H41.8435L42.1367 11.4608H42.2931L42.4788 11.412L42.557 11.3826L42.6352 11.3533L42.7134 11.324L42.772 11.2751L42.8795 11.2458H43.1532L43.2119 11.2751L43.2412 11.324L43.2901 11.3533V11.4315L43.3194 11.5097L43.2901 11.5879L43.2607 11.7247L43.2314 11.7736L43.1728 11.9593L43.1141 12.0961L43.0848 12.233L43.0555 12.3894V12.5751L43.0261 13.0051V14.5788L43.0555 15.1164L43.0848 15.5464L43.1141 15.7028L43.1434 15.8397V15.9472L43.2021 16.1915L43.2607 16.4848L43.3096 16.6216L43.3389 16.7291L43.3682 16.8073V17.1592L43.3389 17.2667L43.2803 17.3742L43.3096 17.4817V17.6968L43.2803 17.8336L43.251 17.8923L43.2216 17.9216L43.163 17.9998H43.0555L42.8404 18.1366L42.6254 18.0584L42.469 17.9802L42.3908 17.9216L42.3615 17.8727L41.2081 17.8434L41.1006 17.8727L40.9638 17.9216L40.7781 17.9509L40.5924 17.9802H40.2112L40.1037 17.9509L39.9668 17.9216L39.8104 17.8727L37.2691 17.902L37.0052 17.9509L36.8195 18.0095L36.7413 18.0584L36.6925 18.0877L36.6631 18.1171L36.6338 18.0877H36.5752L36.5458 18.0584L36.497 18.0291L36.4481 17.9998L36.4579 17.8923L36.3992 17.7554L36.3699 17.6772L36.321 17.6479L36.2428 17.6186L36.2135 16.9735L36.1549 15.5073L36.1256 14.7059V13.3179L36.1549 13.0736V12.7119L36.0962 12.5751L36.0376 12.4969L35.9887 12.4187L35.8519 12.233L35.7737 12.1255L35.6368 12.0473L35.5 11.9398L35.3632 11.8616L35.285 11.8322L35.2361 11.8029H35.1579L35.0895 11.8322L34.982 11.8811L34.9526 11.9398L34.894 11.9984L34.8647 12.0766L34.8158 12.1548L34.7865 12.448L34.7572 13.1713V13.9435L34.7865 14.1292L34.8158 14.2856V14.4224L34.8647 14.5006L34.9429 14.8231L35.0015 15.1164L35.0308 15.2728V15.9863L35.0015 16.387V16.5434L34.9722 16.6509V16.7584L35.0015 16.8953L35.0308 16.9442L35.0602 17.0028L35.0308 17.3254L34.9722 17.5697L34.9429 17.6479L34.9136 17.6772L34.8842 17.7065V17.7359L34.8549 17.7847L34.806 17.8141L34.7474 17.8434L34.6887 17.8727H34.6399L34.5617 17.8434L34.4053 17.8141H34.0339L33.6038 17.8434L33.4181 17.8727H33.3399L33.2617 17.902L33.1249 17.9314H32.8316L32.6459 17.902L32.5677 17.8727H32.4895L32.4114 17.8141L32.3332 17.7847L32.2843 17.7359L32.2256 17.6772L31.6685 17.1983L31.6978 17.0908L31.7272 17.0419L31.7565 16.9833L31.7858 16.9344L31.8347 16.8757L31.9911 16.7389L32.1768 16.5239L32.4211 16.26L32.47 16.2306L32.5775 16.2013L32.7339 16.172L32.8121 16.1427L32.8903 16.172H32.9196L32.9685 16.1427L32.9978 16.1133L33.0271 16.0645L33.0564 15.9863L33.0858 15.8494L33.0564 15.048L32.9978 14.4029V14.1096L32.9685 13.9239L32.9392 13.7871L32.9098 13.6796L32.8805 13.5427L32.8512 13.4645L32.8219 13.4059L32.7632 13.3472L32.7339 13.2886L32.685 13.2593L32.6068 13.23H32.558L32.4504 13.2593L32.2061 13.5232L32.1572 13.5818L32.079 13.66L32.0008 13.7382L31.8933 13.8164L31.8151 13.8653L31.7076 13.8946L31.6783 13.8653H31.6294L31.5219 13.9435L31.2287 14.1585L31.0918 14.2953L30.9843 14.4713L30.9061 14.5299L30.8768 14.6081L30.8182 14.657V14.7156L30.7888 14.6081L30.7106 14.2856L30.6324 14.0999L30.5542 13.9141L30.4761 13.7284L30.3685 13.572L30.2903 13.4352L30.0753 13.0638L29.9678 12.8488L29.8896 12.6044L29.8114 12.36L29.7821 12.2525L29.7528 12.145L29.7234 12.0668V11.9593L29.6941 11.8225L29.6648 11.7149L29.6941 11.6074L29.7234 11.5586V11.539L29.7821 11.4804H30.134L30.3783 11.4315L30.4858 11.4022L30.564 11.324L30.6422 11.2947L30.8573 11.2653L31.2873 11.2165H31.5512L31.8738 11.2458L32.0302 11.1969L32.1865 11.1187L32.4016 11.0112L32.6459 10.8548L32.861 10.6691L32.9685 10.5616L33.0467 10.4248L33.1249 10.2879L33.1737 10.1511L33.2031 9.96536L33.1737 9.77965V9.67214L33.1444 9.5353L33.1151 9.42778L33.0858 9.32027L33.0271 9.21275L32.9685 9.13456L32.8903 9.05636L32.8121 8.97817L32.7046 8.94885L32.5677 8.91952L32.5091 8.8902H32.3723L32.2647 8.91952L32.1865 8.9684L32.1572 8.99772L32.1279 9.02704L32.0693 9.10523H31.5121L31.4339 9.07591L31.3264 9.04659L31.2189 8.98794L31.1114 8.90975L31.0821 8.8511L31.0527 8.79246L31.0234 8.74359L30.9941 8.66539V8.30375L30.9648 8.16691L30.9354 8.03007L30.8768 7.92255L30.8279 7.78572L30.6715 7.46316L30.5933 7.24813L30.5152 7.0331L30.4663 6.84739L30.4076 6.63236V6.4271L30.437 6.39778L30.4858 6.4271L30.5249 6.45642ZM34.9038 9.12478L35.0113 9.17365L35.1188 9.28117L35.3827 9.52552L35.5977 9.74056L35.7053 9.81875L35.7346 9.89695L35.7932 9.95559L35.8226 9.98491L35.8812 10.0142L35.9594 10.0436H36.0669L36.2331 10.0142L36.2819 9.98491L36.3113 9.8774L36.4188 9.72101L36.5263 9.50598V9.32027L36.5556 9.24207L36.5849 9.13456L36.6143 9.05636L36.7218 8.91952L36.7707 8.81201L36.8782 8.65562L37.1421 8.20601L37.4939 7.61955L37.5428 7.40452V7.21881L37.5135 7.08197L37.4842 7.00378L37.4353 6.94513L37.406 6.89626L37.3767 6.83762L37.2985 6.75942L37.2398 6.70078L37.1616 6.75942L37.0834 6.78874H36.9466L36.8391 6.73987H36.8097L36.7316 6.68123L36.6534 6.65191L36.5458 6.62258L36.4676 6.65191L36.409 6.70078L36.3601 6.75942V6.80829L36.3308 6.86694L36.3015 6.92558L36.2722 6.97445L36.2233 7.13084L36.1646 7.28723L36.1353 7.47294L36.0865 7.79549L36.0571 7.95187L36.0278 8.13759L35.9496 8.3233L35.9203 8.38194L35.8616 8.43081L35.7835 8.50901L35.6759 8.55788L35.5977 8.61652H35.4609L35.4023 8.5872H35.2459L35.1384 8.61652H35.0895L35.0113 8.66539L34.9526 8.72404L34.894 8.75336L34.8354 8.80223L34.806 8.88043V8.95862L34.8354 9.01727L34.8647 9.07591L34.9038 9.12478ZM39.4781 7.28723V7.95187L39.4488 8.08872L39.4195 8.16691L39.3901 8.2451L39.3119 8.41126L39.2338 8.5481L39.0774 8.76314L38.9992 8.84133L38.8917 8.91952L38.8428 9.02704L38.8135 9.10523V9.29094L38.8428 9.34959L38.8721 9.39846L38.921 9.47665L38.9503 9.52552L39.0089 9.55485L39.1165 9.63304L39.1947 9.66236L39.351 9.72101H39.4292L39.5368 9.69169L39.6443 9.66236L39.7518 9.60372L39.83 9.54507L40.0157 9.38869L40.1525 9.2323L40.26 9.07591L40.3676 8.93907L40.4262 8.80223V8.66539L40.4849 8.50901L40.5337 8.35262L40.5924 8.19623L40.7292 7.95187L40.7781 7.84436L40.9149 7.68797L40.9931 7.55113L41.1299 7.25791L41.2081 7.0722L41.2375 6.994L41.2081 6.91581L41.1788 6.83762L41.1202 6.75942L41.0713 6.70078L41.0224 6.65191L40.9638 6.62258H40.8563L40.827 6.65191L40.7683 6.68123L40.739 6.73987L40.6901 6.7692H40.6315L40.5533 6.79852L40.4164 6.82784H40.2796L40.0157 6.77897H39.9082L39.83 6.74965H39.7811L39.7029 6.77897L39.6736 6.80829L39.5954 6.88649L39.5465 6.994L39.5172 7.10152L39.4879 7.20904V7.28723H39.4781ZM38.2172 10.0338L38.1586 10.0924L38.0999 10.1413L37.9924 10.2977L37.8067 10.6691L37.6503 11.0405L37.5917 11.1969V11.2751L37.621 11.3338V11.3826L37.6503 11.4315L37.7285 11.4901L37.7578 11.5195L37.7872 11.5488H37.8654L37.924 11.5781H38.0022L39.4683 11.5195H39.6247L39.7029 11.4901L39.7616 11.4608L39.8398 11.412L39.8984 11.3338L39.9473 11.2751V11.1969L39.9766 11.1383L39.9473 11.0796L39.8984 11.0308L39.8398 10.9526L39.7616 10.8744L39.654 10.7962L39.5465 10.7473L39.4097 10.6887L39.2435 10.6593L39.1653 10.63L39.0871 10.6007L39.0285 10.5714L38.9796 10.5127L38.8721 10.4052L38.7939 10.2977L38.7353 10.1902L38.6864 10.112L38.6571 10.0338L38.5789 9.89695L38.5496 9.86762L38.5105 9.8774H38.4323L38.3736 9.90672L38.2954 9.93604L38.2368 9.99469L38.2172 10.0338ZM38.1684 14.0999V14.5299L38.1977 14.9013L38.2466 15.3021L38.2759 15.4096L38.3052 15.5171L38.3638 15.5758L38.4127 15.6051L38.4616 15.6344H38.5789L38.6864 15.6051L38.8232 15.5758L39.1165 15.5464H39.7322L40.2405 15.5953L40.4555 15.6246L40.5924 15.654L40.6999 15.6246H40.7781L40.8367 15.5953L40.9442 15.5171L40.9736 15.4878L41.0029 15.4389L41.0322 15.3607V15.2825L41.0029 15.2043L40.9736 15.0675V14.5104L41.0322 14.051V13.9728L41.0029 13.9141L40.9736 13.8066L40.8954 13.7284L40.8465 13.6991L40.7879 13.6698H39.742L38.5984 13.6991H38.4909L38.3834 13.748L38.3248 13.8262L38.2661 13.9044L38.2172 14.0412L38.1684 14.0999Z" fill="#231916"/>
<path d="M32.6069 21.8606C32.4506 21.2546 32.0596 20.9418 31.4536 20.9418C31.0528 20.9418 30.7303 21.0688 30.4859 21.323C30.2416 21.5771 30.1145 21.9485 30.1145 22.4372C30.1145 22.8771 30.2514 23.2289 30.525 23.4928C30.7987 23.7568 31.131 23.8838 31.522 23.8838C31.913 23.8838 32.3039 23.7177 32.6754 23.3756L32.7633 23.4635C32.4017 23.8643 31.9325 24.0695 31.3754 24.0695C30.8671 24.0695 30.4566 23.9229 30.1438 23.6395C29.8311 23.356 29.6747 22.9455 29.6747 22.4372C29.6747 21.9485 29.8408 21.5576 30.1732 21.2546C30.5055 20.9516 30.916 20.7952 31.4145 20.7952C31.5709 20.7952 31.7175 20.8147 31.8641 20.844L32.3137 20.9516C32.4408 20.9516 32.519 20.9027 32.5483 20.7952H32.6558L32.6949 21.8606H32.6069ZM33.125 23.9034C33.3596 23.9034 33.5062 23.8643 33.5844 23.7959C33.6528 23.7274 33.6919 23.6004 33.6919 23.4147V21.3914C33.6919 21.2252 33.6528 21.1177 33.5746 21.0591C33.4964 21.0004 33.3498 20.9711 33.125 20.9516V20.8831H34.7182V20.9516C34.4934 20.9711 34.337 21.0102 34.2588 21.0591C34.1708 21.1177 34.1317 21.2252 34.1317 21.3914V22.3297H36.0084V21.3914C36.0084 21.2252 35.9693 21.1177 35.8911 21.0591C35.8129 21.0004 35.6663 20.9711 35.4415 20.9516V20.8831H37.0347V20.9516C36.8099 20.9711 36.6535 21.0004 36.5753 21.0591C36.4971 21.1177 36.458 21.2252 36.458 21.3914V23.4635C36.458 23.7568 36.6535 23.8936 37.0347 23.8936V23.9718H35.4415V23.8936C35.6761 23.8936 35.8227 23.8545 35.9009 23.7861C35.9693 23.7177 36.0084 23.5906 36.0084 23.4049V22.4666H34.1317V23.4635C34.1317 23.6199 34.1708 23.7372 34.2588 23.7959C34.3468 23.8545 34.4934 23.8936 34.7182 23.8936V23.9718H33.125V23.9034ZM37.582 23.9034C37.8166 23.9034 37.9828 23.874 38.0707 23.8154C38.1587 23.7567 38.1978 23.6492 38.1978 23.4831V21.3621C38.1978 21.1861 38.1587 21.0786 38.0707 21.02C37.9828 20.9613 37.8264 20.9418 37.582 20.9418V20.8831H39.2241V20.9418C38.97 20.9418 38.8038 20.9711 38.7158 21.0395C38.6279 21.1079 38.5888 21.2155 38.5888 21.3621V23.4831C38.5888 23.6395 38.6279 23.747 38.7158 23.8056C38.8038 23.8643 38.97 23.9034 39.2143 23.9034V23.9816H37.5722V23.9034H37.582ZM43.4954 20.9613C43.2413 20.9809 43.0849 21.0395 43.0263 21.1373C42.9676 21.235 42.9383 21.3816 42.9383 21.5771V24.0695H42.8796L40.4263 21.4207L40.4165 23.3169C40.4165 23.5613 40.4556 23.7177 40.5338 23.8056C40.612 23.8936 40.7586 23.9327 40.9737 23.9327V24.0109H39.6835V23.9327C39.8985 23.9327 40.0451 23.8936 40.1233 23.8056C40.2015 23.7177 40.2504 23.5613 40.2504 23.3071V21.2155C40.0842 21.0395 39.8985 20.9516 39.6835 20.9516V20.8734H40.5045L42.7624 23.3267L42.7721 21.5771C42.7721 21.3523 42.733 21.1959 42.6646 21.0982C42.5864 21.0004 42.4398 20.9613 42.2052 20.9613V20.8831H43.4954V20.9613ZM47.4051 23.9816H45.9194V23.9034C46.1931 23.9034 46.4277 23.8349 46.4277 23.6883C46.4277 23.6395 46.3984 23.5319 46.3299 23.3951L46.1149 22.9259H44.6683L44.424 23.5124C44.3947 23.5808 44.3849 23.6395 44.3849 23.6981C44.3849 23.8349 44.6097 23.9131 44.8931 23.9131V23.9913H43.5932V23.9131C43.6811 23.9131 43.945 23.874 44.033 23.7959C44.121 23.7274 44.2383 23.5124 44.4044 23.1507L45.4894 20.7952H45.5578L46.8089 23.4733C46.9457 23.7567 47.2096 23.9034 47.4247 23.9034V23.9816H47.4051ZM46.0465 22.7989L45.3525 21.3425L44.6781 22.7989H46.0465ZM53.4163 20.9516C53.2012 20.9516 53.0546 20.9907 52.9764 21.0591C52.8982 21.1275 52.8591 21.2448 52.8591 21.4012V23.4733C52.8591 23.7665 53.0448 23.9034 53.4065 23.9034V23.9816H51.8817V23.9034C52.0967 23.9034 52.2433 23.874 52.3215 23.8056C52.3997 23.7372 52.4388 23.6101 52.4388 23.4244V21.1861L50.9922 23.9816H50.9043L49.5163 21.1861L49.5066 23.2974C49.5066 23.5319 49.5457 23.6981 49.6239 23.7861C49.7021 23.874 49.8487 23.9131 50.0539 23.9131V23.9913H48.7735V23.9131C48.9885 23.9131 49.1351 23.874 49.2133 23.7959C49.2915 23.7177 49.3306 23.5515 49.3306 23.3071V21.4109C49.3306 21.235 49.2915 21.1079 49.2133 21.0493C49.1351 20.9906 48.9885 20.9613 48.7735 20.9613V20.8929H49.8096L51.0704 23.4635L52.39 20.8929H53.3967V20.9516H53.4163ZM57.0034 23.9816H53.9538V23.9034C54.2862 23.9034 54.4523 23.7567 54.4523 23.4733V21.4012C54.4523 21.2546 54.423 21.147 54.3644 21.0884C54.3057 21.0297 54.1689 20.9809 53.9636 20.9711V20.8929H56.7884L56.8079 21.5673H56.7199C56.6808 21.3621 56.6124 21.2155 56.5049 21.1373C56.3974 21.0591 56.026 21.0297 55.7523 21.0297H55.0192C54.9117 21.0297 54.8531 21.0786 54.8531 21.1861V22.2906H55.5861C55.7621 22.2906 55.8989 22.2613 55.9771 22.2124C56.0553 22.1636 56.1139 22.0267 56.153 21.8215H56.2508V22.9064H56.153C56.1139 22.7011 56.0553 22.5643 55.9771 22.5154C55.8989 22.4666 55.7621 22.4372 55.5861 22.4275L54.8531 22.4177V23.6492C54.8531 23.7274 54.8824 23.7763 54.941 23.8056C54.9997 23.8349 55.2343 23.8447 55.6545 23.8447C55.9576 23.8447 56.4658 23.7959 56.632 23.6981C56.7981 23.6004 56.8372 23.4342 56.9545 23.1898H57.062L57.0034 23.9816ZM60.9619 23.9816H60.1702L58.8996 22.5447L58.4988 22.5545V23.4733C58.4988 23.6297 58.5379 23.747 58.6161 23.8056C58.6943 23.874 58.8312 23.9034 59.0462 23.9034V23.9816H57.5996V23.9034C57.8049 23.9034 57.9417 23.8643 58.0101 23.7959C58.0786 23.7274 58.1079 23.6004 58.1079 23.4147V21.3914C58.1079 21.2252 58.0688 21.1177 58.0004 21.0591C57.9319 21.0102 57.7951 20.9711 57.5996 20.9516V20.8734H59.0462C59.9357 20.8734 60.3755 21.147 60.3755 21.6944C60.3755 22.1049 60.0432 22.3688 59.3883 22.4763L60.4537 23.6786C60.571 23.8154 60.7469 23.8838 60.9619 23.8838V23.9816ZM58.4207 22.3395C59.4469 22.3395 59.965 22.1049 59.965 21.6357C59.965 21.1959 59.5642 20.9711 58.7725 20.9711C58.6161 20.9711 58.5184 20.9809 58.4793 21.0004C58.4402 21.02 58.4207 21.0688 58.4207 21.1373V22.3395ZM64.2656 21.8606C64.1092 21.2546 63.7183 20.9418 63.1123 20.9418C62.7115 20.9418 62.389 21.0688 62.1446 21.323C61.9003 21.5771 61.7732 21.9485 61.7732 22.4372C61.7732 22.8771 61.91 23.2289 62.1837 23.4928C62.4574 23.7568 62.7897 23.8838 63.1807 23.8838C63.5717 23.8838 63.9626 23.7177 64.3341 23.3756L64.422 23.4635C64.0604 23.8643 63.5912 24.0695 63.0341 24.0695C62.5258 24.0695 62.1153 23.9229 61.8025 23.6395C61.4898 23.356 61.3334 22.9455 61.3334 22.4372C61.3334 21.9485 61.4995 21.5576 61.8318 21.2546C62.1642 20.9516 62.5747 20.7952 63.0732 20.7952C63.2296 20.7952 63.3762 20.8147 63.5228 20.844L63.9724 20.9516C64.0995 20.9516 64.1777 20.9027 64.207 20.7952H64.3145L64.3536 21.8606H64.2656ZM64.8814 23.9034C65.116 23.9034 65.2626 23.8643 65.3408 23.7959C65.4092 23.7274 65.4483 23.6004 65.4483 23.4147V21.3914C65.4483 21.2252 65.4092 21.1177 65.331 21.0591C65.2528 21.0004 65.1062 20.9711 64.8814 20.9516V20.8831H66.4746V20.9516C66.2498 20.9711 66.0934 21.0102 66.0152 21.0591C65.9272 21.1177 65.8881 21.2252 65.8881 21.3914V22.3297H67.7648V21.3914C67.7648 21.2252 67.7257 21.1177 67.6475 21.0591C67.5693 21.0004 67.4227 20.9711 67.1979 20.9516V20.8831H68.7911V20.9516C68.5663 20.9711 68.4099 21.0004 68.3317 21.0591C68.2535 21.1177 68.2144 21.2252 68.2144 21.3914V23.4635C68.2144 23.7568 68.4099 23.8936 68.7911 23.8936V23.9718H67.1979V23.8936C67.4325 23.8936 67.5791 23.8545 67.6573 23.7861C67.7257 23.7177 67.7648 23.5906 67.7648 23.4049V22.4666H65.8881V23.4635C65.8881 23.6199 65.9272 23.7372 66.0152 23.7959C66.1032 23.8643 66.2498 23.8936 66.4746 23.8936V23.9718H64.8814V23.9034ZM72.7008 23.9816H71.3031V23.9034C71.5767 23.9034 71.8113 23.8349 71.8113 23.6883C71.8113 23.6395 71.782 23.5319 71.7136 23.3951L71.4986 22.9259H70.052L69.8076 23.5124C69.7783 23.5808 69.7685 23.6395 69.7685 23.6981C69.7685 23.8349 69.9933 23.9131 70.2768 23.9131V23.9913H68.9866V23.9131C69.0745 23.9131 69.3384 23.874 69.4264 23.7959C69.5144 23.7274 69.6317 23.5124 69.7978 23.1507L70.8828 20.7952H70.9512L72.2023 23.4733C72.3391 23.7567 72.5151 23.9034 72.7301 23.9034V23.9816H72.7008ZM71.4301 22.7989L70.7362 21.3425L70.0617 22.7989H71.4301ZM76.7082 20.9613C76.4541 20.9809 76.2977 21.0395 76.239 21.1373C76.1804 21.235 76.1511 21.3816 76.1511 21.5771V24.0695H76.0924L73.6391 21.4207L73.6293 23.3169C73.6293 23.5613 73.6684 23.7177 73.7466 23.8056C73.8248 23.8936 74.0594 23.9327 74.2744 23.9327V24.0109H72.8865V23.9327C73.1015 23.9327 73.2481 23.8936 73.3263 23.8056C73.4045 23.7274 73.4534 23.5613 73.4534 23.3071V21.2155C73.2872 21.0395 73.0136 20.9516 72.7985 20.9516V20.8734H73.7173L75.9751 23.3267L75.9849 21.5771C75.9849 21.3523 75.9458 21.1959 75.8774 21.0982C75.7992 21.0004 75.6526 20.9613 75.418 20.9613V20.8831H76.7082V20.9613ZM79.4548 23.9816H77.7931V23.9034C78.018 23.9034 78.2525 23.8643 78.321 23.7959C78.3894 23.7274 78.4187 23.6004 78.4187 23.4147V21.02H78.145C77.8616 21.02 77.4804 21.0688 77.3533 21.1568C77.2262 21.2448 77.1383 21.4207 77.0796 21.6748H76.9721V20.8831H80.2465V21.6748H80.1487C80.0999 21.4207 80.0119 21.2448 79.8848 21.1568C79.7578 21.0688 79.3668 21.02 79.0833 21.02H78.8097V23.4733C78.8097 23.6395 78.8488 23.747 78.927 23.8154C79.0051 23.874 79.2397 23.9131 79.4548 23.9131V23.9816ZM82.866 21.8019H82.7389C82.6803 21.5673 82.5532 21.3621 82.3675 21.1861C82.172 21.0102 81.957 20.9222 81.7028 20.9222C81.5367 20.9222 81.3901 20.9711 81.263 21.0688C81.1359 21.1666 81.0773 21.2839 81.0773 21.4305C81.0773 21.626 81.2434 21.8117 81.5758 21.9974L82.4848 22.5057C82.8171 22.7207 82.9833 22.9553 82.9833 23.1996C82.9833 23.444 82.8757 23.6492 82.6705 23.8154C82.4652 23.9816 82.1818 24.0598 81.8299 24.0598C81.6735 24.0598 81.4976 24.0304 81.3119 23.9816L81.2434 23.962C81.0968 23.9229 81.0186 23.9034 80.9795 23.9034C80.8623 23.9034 80.7156 23.9522 80.7156 24.0598H80.5983L80.5201 22.965H80.6277C80.872 23.5515 81.2532 23.9327 81.7713 23.9327C81.9765 23.9327 82.1524 23.874 82.2991 23.7568C82.4457 23.6395 82.5141 23.5026 82.5141 23.3462C82.5141 23.1898 82.4457 23.0628 82.3088 22.9455C82.172 22.8282 81.9276 22.6816 81.5855 22.5057L81.478 22.447C81.1457 22.2808 80.9404 22.1342 80.8427 22.0267C80.745 21.9094 80.6961 21.7726 80.6961 21.5967C80.6961 21.3523 80.7938 21.1568 80.9795 21.0102C81.1653 20.8636 81.3998 20.7952 81.6833 20.7952C81.7908 20.7952 82.0449 20.8538 82.4359 20.9613C82.5336 20.9613 82.69 20.9027 82.7193 20.7952H82.8366L82.866 21.8019ZM84.8892 20.9613V20.8831H86.3065C87.1959 20.8831 87.6358 21.147 87.6358 21.6748C87.6358 22.0169 87.411 22.2417 86.9614 22.3493C87.5185 22.4666 87.8019 22.7402 87.8019 23.1605C87.8019 23.4049 87.6944 23.6101 87.4696 23.7568C87.2448 23.9034 86.9516 23.9816 86.5802 23.9816H84.8892V23.9034C85.1043 23.9034 85.2509 23.874 85.3193 23.8154C85.3975 23.7567 85.4268 23.6395 85.4268 23.4635V21.3914C85.4268 21.2252 85.3877 21.1079 85.3095 21.0493C85.2509 20.9906 85.1043 20.9613 84.8892 20.9613ZM85.7982 23.6883C85.7982 23.8154 85.9546 23.8838 86.2674 23.8838C86.9907 23.8838 87.3523 23.6395 87.3523 23.1507C87.3523 22.9357 87.2448 22.7598 87.02 22.6229C86.805 22.4861 86.3945 22.4177 85.7982 22.4177V23.6883ZM85.7982 22.2515L86.326 22.2417C86.8832 22.2417 87.1568 22.0463 87.1568 21.6553C87.1568 21.4403 87.0591 21.2741 86.8636 21.147C86.6681 21.0297 86.4238 20.9711 86.1208 20.9711C85.9057 20.9711 85.7982 21.02 85.7982 21.1079V22.2515ZM91.8094 23.9816H90.4996V23.9034C90.7733 23.9034 90.9199 23.8349 90.9199 23.6883C90.9199 23.6395 90.8906 23.5319 90.8222 23.3951L90.6071 22.9259H89.1606L88.9162 23.5124C88.8869 23.5808 88.8771 23.6395 88.8771 23.6981C88.8771 23.8349 89.1019 23.9131 89.3854 23.9131V23.9913H88.1636V23.9131C88.2516 23.9131 88.4275 23.874 88.5057 23.7959C88.5937 23.7274 88.7109 23.5124 88.8771 23.1507L89.962 20.8929H90.0305L91.2816 23.4831C91.4184 23.7665 91.5943 23.9131 91.8094 23.9131V23.9816ZM90.6267 22.7989L89.9327 21.3425L89.2583 22.7989H90.6267ZM95.9048 20.9613C95.6702 20.9809 95.4356 21.0395 95.377 21.1373C95.3183 21.235 95.2988 21.3816 95.2988 21.5771V24.0695H95.2401L92.777 21.4207L92.7672 23.3169C92.7672 23.5613 92.8063 23.7177 92.8748 23.8056C92.953 23.8936 93.2657 23.9327 93.4612 23.9327V24.0109H92.083V23.9327C92.2785 23.9327 92.4154 23.8936 92.4936 23.8056C92.5718 23.7177 92.6109 23.5613 92.6109 23.3071V21.2155C92.4545 21.0395 92.1026 20.9516 91.8973 20.9516V20.8734H92.8454L95.1228 23.3267L95.1326 21.5771C95.1326 21.3523 95.0935 21.1959 95.0251 21.0982C94.9567 21.0004 94.7221 20.9613 94.5071 20.9613V20.8831H95.8852V20.9613H95.9048ZM98.3972 20.8831H99.746V20.9613C99.5115 20.9809 99.3551 21.02 99.2671 21.0688C99.1791 21.1275 99.0716 21.2057 98.9348 21.3132L97.8889 22.2124L99.14 23.4147C99.4724 23.7372 99.7558 23.8936 99.9806 23.8936V23.9718H98.4167V23.8936C98.6806 23.8936 98.8175 23.8447 98.8175 23.7372C98.8175 23.6297 98.5927 23.3756 98.1431 22.9455L97.6055 22.447L97.3611 22.6425V23.4538C97.3611 23.6199 97.4002 23.7274 97.4784 23.7959C97.5566 23.8545 97.6935 23.8936 97.8987 23.8936V23.9718H96.4423V23.8936C96.6476 23.8936 96.7845 23.8643 96.8529 23.7959C96.9213 23.7274 96.9702 23.6004 96.9702 23.4147V21.3914C96.9702 21.2155 96.9311 21.0982 96.8529 21.0395C96.7747 20.9809 96.6378 20.9516 96.4423 20.9516V20.8734H97.9085V20.9516C97.7032 20.9516 97.5566 20.9809 97.4784 21.0395C97.4002 21.0982 97.3611 21.2155 97.3611 21.3914V22.4666L97.498 22.3493C98.3288 21.6651 98.7491 21.2546 98.7491 21.1079C98.7491 21.0004 98.6318 20.9516 98.3972 20.9516V20.8831Z" fill="black"/>
</svg>
