<svg width="100" height="18" viewBox="0 0 100 18" fill="none" xmlns="http://www.w3.org/2000/svg">
<path d="M27.9619 12.4588C28.3229 12.4604 28.6828 12.5028 29.0345 12.5852V13.3783C28.6545 13.2792 28.3828 13.2259 27.9686 13.2198C27.1893 13.2198 26.5108 13.5519 26.5108 14.4112C26.5108 15.2723 27.2224 15.675 28.0968 15.675C28.4376 15.675 28.7564 15.6297 29.0345 15.5773V16.3382C28.7077 16.4011 28.3321 16.4425 27.9853 16.4425C26.4435 16.4425 25.5233 15.6773 25.5233 14.4697C25.5233 13.1696 26.5204 12.4487 27.9618 12.4589L27.9619 12.4588ZM35.584 12.5262V16.375L35.5838 16.3748H34.6387V12.5262H35.584ZM43.6582 12.5262L45.3747 16.375H44.3385L44.0204 15.6138H42.2942L42.004 16.375H40.9858L42.5425 12.5262H43.6582ZM61.0019 12.4587C61.3651 12.4587 61.9431 12.5281 62.3511 12.6746V13.4177C61.8231 13.196 61.414 13.158 61.0874 13.158C60.7409 13.158 60.5186 13.282 60.5186 13.4719C60.5186 14.0476 62.5254 13.886 62.5254 15.2167C62.5254 15.9491 61.8669 16.375 61.0019 16.375C60.4701 16.375 59.8898 16.2642 59.4868 16.1182V15.2831C59.9262 15.5343 60.4225 15.6693 60.9286 15.6752C61.2983 15.6752 61.5304 15.5457 61.5304 15.3223C61.5304 14.696 59.5235 14.8981 59.5235 13.5553C59.5235 12.8954 60.1032 12.4587 61.0019 12.4587ZM51.7894 12.5262V16.375H50.8345V13.9709L49.8028 15.1783H49.6561L48.6248 13.9709V16.375H47.6705V12.5264H48.5009L49.729 13.9543L50.9581 12.5264V12.5261H51.7894V12.5262ZM97.2352 12.5262V14.2698H97.2467L98.448 12.5262H99.4915L98.2521 14.3319L99.9325 16.375H98.7446L97.2352 14.5689V16.375H96.2863V12.5262H97.2352ZM89.2366 12.5262L90.952 16.375H89.9159L89.5979 15.6138H87.8699L87.5822 16.375H86.5631L88.1198 12.5262H89.2366ZM78.5512 12.4587C79.1266 12.4587 79.685 12.587 80.0699 12.7722V13.6055C79.5784 13.3711 79.1041 13.253 78.631 13.253C77.5865 13.253 77.2208 13.8911 77.2208 14.4564C77.2208 15.133 77.7557 15.5816 78.5515 15.5816C78.7876 15.5816 78.9064 15.5585 79.1877 15.4459V14.9986H78.631V14.3H80.1485V15.8605C79.8603 16.1568 79.1498 16.375 78.5296 16.375C77.1855 16.375 76.2323 15.5637 76.2323 14.4226C76.2323 13.2585 77.1806 12.4587 78.5512 12.4587ZM84.6688 12.5262C85.5706 12.5262 85.9348 13.0611 85.9348 13.4905C85.9348 13.8132 85.733 14.1016 85.4134 14.259C85.957 14.4005 86.2255 14.7947 86.2255 15.246C86.2255 15.6873 85.9908 16.375 84.8775 16.375H82.9845V12.5265H84.6688V12.5262ZM30.7396 12.5262V14.0735H32.6638V12.5262H33.626V16.3748H32.6641V14.8179H30.7396V16.3748H29.7771V12.5262H30.7396ZM72.6461 12.5262L74.6746 14.8797V12.5262H75.6246V16.3748H74.8251L72.7243 13.9084V16.3748H71.7758V12.5262H72.6461ZM70.8597 12.5262V13.2333H69.0199V14.0394H70.7744V14.7442H69.0199V15.6705H70.898V16.3748H68.0621V12.5262H70.8597ZM64.2974 12.5262V14.0735H66.2217V12.5262H67.1844V16.3748H66.2217V14.8179H64.2974V16.3748H63.3355V12.5262H64.2974ZM55.6974 12.5262L57.7278 14.8797V12.5262H58.6766V16.3748H57.8787L55.7762 13.9084V16.3748H54.8278V12.5262H55.6974ZM37.5335 12.5262L39.5655 14.8797V12.5262H40.5132V16.3748H39.7154L37.6126 13.9084V16.3748H36.6644V12.5262H37.5335ZM53.8149 12.5262V16.3748H52.8696V12.5262H53.8149ZM92.2951 12.5262L94.3256 14.8795V12.5262H95.2734V16.3745H94.4762L92.373 13.9083V16.3745H91.4246V12.5262H92.295H92.2951ZM84.6303 14.7544H83.9298V15.6323H84.5001C85.0277 15.6323 85.2127 15.4956 85.2127 15.1737C85.2127 14.9013 84.9669 14.7544 84.6303 14.7544ZM88.6628 13.4719L88.1161 14.9571H89.264L88.6628 13.4719ZM43.0854 13.4041L42.5389 14.8895H43.6867L43.0854 13.4041ZM84.4576 13.269H83.9298V14.0793H84.4579C84.8026 14.0793 84.9426 13.8671 84.9426 13.668C84.9426 13.4745 84.8023 13.269 84.4576 13.269ZM60.3349 1.72271V4.19546C60.3349 4.44907 60.1884 5.18814 59.3276 5.18814H56.6568C56.7781 5.402 56.991 5.77691 57.2389 6.20611H61.1869V6.91216C61.1869 7.14019 61.0502 7.42534 60.6674 7.42534H57.9541C58.0981 7.66789 58.2455 7.90841 58.3963 8.14683C59.154 9.37876 61.7826 9.36255 61.7826 9.36255C61.7826 9.36255 61.2684 10.0619 61.1086 10.2668C60.9611 10.4331 60.647 10.8072 59.8469 10.6518C59.1002 10.4723 57.9969 10.041 57.4195 9.0021C57.1394 8.4982 56.8365 7.94937 56.5469 7.42534H52.1344V9.34224L54.8974 8.56216V9.12007C54.9022 9.8731 54.4162 10.0707 54.4162 10.0707L51.8208 10.7845V10.7752C51.7366 10.8162 51.6442 10.8376 51.5506 10.8382C51.3831 10.8382 51.2223 10.7723 51.1029 10.6547C50.9835 10.5372 50.9151 10.3775 50.9124 10.21H50.9115V1.72271H60.3349ZM86.8195 1.64614V5.57847C86.8195 5.83237 86.672 6.57583 85.8092 6.57583H83.5686C83.6779 6.75415 83.9938 7.23853 84.4859 7.77222L86.9313 6.86187V7.62866C86.9313 8.11831 86.5733 8.27739 86.5733 8.27739L85.5071 8.69731C86.152 9.17231 86.9383 9.56333 87.846 9.6605L87.8445 9.66245C87.8191 9.69409 87.4828 10.1124 87.147 10.4875C86.646 10.9235 86.2316 10.7679 85.9098 10.6019C83.9518 9.59751 82.6818 7.04038 82.463 6.57583H81.5445V9.17759L83.0378 8.69263V9.25405C83.0378 10.0255 82.5582 10.1914 82.5582 10.1914L81.2297 10.5908V10.5824C81.1448 10.6226 81.0522 10.6438 80.9583 10.6445C80.8742 10.6446 80.7909 10.6282 80.7132 10.5961C80.6355 10.564 80.5648 10.5169 80.5053 10.4575C80.4458 10.3981 80.3986 10.3275 80.3664 10.2499C80.3342 10.1722 80.3177 10.0889 80.3177 10.0048C80.3177 9.98706 80.3223 9.97065 80.324 9.95288H80.3176V2.49243H80.3187C80.3211 2.1394 80.3725 1.64624 81.0932 1.64624H86.8195V1.64614ZM100 4.34146C100 4.34146 99.9184 4.76314 99.8691 5.08023C99.8207 5.35484 99.7114 5.68686 99.1093 5.68686H98.164L98.1605 9.70786C98.1605 9.9603 98.0179 10.7032 97.1546 10.7032H95.481C94.8796 10.7032 94.7686 10.3711 94.721 10.0974C94.6724 9.77945 94.5884 9.35776 94.5884 9.35776C94.7283 9.43726 95.111 9.48159 95.4818 9.48159L96.9403 9.48413V5.68686H93.259C92.8745 5.68686 92.7381 5.39937 92.7381 5.17056V4.46353L99.1084 4.46431C99.4785 4.46431 99.8627 4.41978 100 4.34146ZM92.5037 3.97134C92.2824 4.45804 91.9957 4.91231 91.6518 5.32163V10.1798C91.6518 10.5652 91.409 10.6726 91.2181 10.6726H90.4153V6.40259C90.3095 6.46942 90.2013 6.53239 90.0909 6.59136C89.5561 6.85366 89.1745 6.59976 89.0387 6.48394C88.9011 6.36851 88.3187 5.87612 88.3187 5.87612C90.2771 5.32105 91.253 3.97134 91.253 3.97134H92.5037ZM77.918 1.45268C77.8551 1.74278 77.7703 2.02771 77.6645 2.30503H79.7416V3.37769H77.102C76.9419 3.61233 76.7596 3.83093 76.5574 4.03042C76.5143 4.07252 76.4673 4.11045 76.4171 4.1437H79.7416V5.21694H78.0759V6.16734H79.7413V7.24155H78.0759V9.19214L79.6456 8.65171V9.16909C79.6471 9.92632 79.1609 10.1251 79.1609 10.1251L77.7631 10.6103V10.6094C77.678 10.6507 77.5848 10.6722 77.4902 10.6725C77.3209 10.6722 77.1586 10.6048 77.0389 10.4852C76.9191 10.3655 76.8515 10.2033 76.851 10.034H76.8504V7.24146H76.0083C75.6261 7.24146 75.5776 6.9602 75.5757 6.84058V6.16734H76.8507V5.21694H76.4317C76.1124 5.21694 76.0964 4.94038 76.0956 4.91274V4.28696C75.8219 4.34819 75.5499 4.27642 75.3815 4.14165L74.6793 3.50288C76.0682 2.81978 76.7521 1.45268 76.7521 1.45268H77.9181H77.918ZM30.8042 1.38511C30.9958 1.38511 31.2363 1.49195 31.2363 1.87691V2.59214H35.9217L35.9176 7.46001C35.9176 7.71255 35.7753 8.45161 34.9154 8.45161H31.2363V10.1433C31.2363 10.5283 30.9958 10.6357 30.8042 10.6357H29.9077V8.45161H26.3264C25.4662 8.45161 25.3242 7.71255 25.3242 7.46001L25.3207 2.59214H29.9076V1.38511H30.8041H30.8042ZM48.5483 1.72271L48.5448 9.63863C48.5448 9.89234 48.4018 10.6357 47.5364 10.6357H37.9474V1.72271H48.5482H48.5483ZM68.7497 1.38511C68.9418 1.38511 69.1844 1.49194 69.1844 1.87896V2.80894H73.291V3.51841C73.291 3.74751 73.1546 4.03472 72.7691 4.03472H69.1844V5.91939H73.1606V6.62925C73.1606 6.85864 73.0236 7.14585 72.6402 7.14585H69.1844V9.273H72.7335V9.27593H73.3816C73.7525 9.27593 74.1359 9.23042 74.2742 9.15132C74.2742 9.15132 74.1925 9.57446 74.1443 9.89263C74.0957 10.1687 73.9847 10.5006 73.3834 10.5006H63.3782C62.9939 10.5006 62.8575 10.2134 62.8575 9.98491V9.27329H67.9476V7.14614H64.5763C64.1917 7.14614 64.0541 6.85894 64.0541 6.62954V5.91958H67.9477V4.0354H64.8273C64.6921 4.21211 64.5436 4.37819 64.383 4.53218C63.9895 4.90933 63.2905 4.72222 62.94 4.41372L62.4578 3.99048C63.8468 3.30747 64.5906 1.87964 64.5906 1.87964H65.8006C65.7309 2.19662 65.6362 2.50759 65.5174 2.80962H67.9476V1.38501H68.7497V1.38511ZM47.3228 2.94702H39.1743V9.4105H47.3228V2.94702ZM46.4598 3.68863V4.30728C46.4598 4.39761 46.4464 4.63501 46.0777 4.63501H43.9934V5.65034H46.2004V6.27046C46.2004 6.3603 46.1854 6.59731 45.818 6.59731H43.9934V7.81196H44.9912L44.7796 7.12397H45.5752C45.5752 7.12397 45.8513 7.1397 45.9324 7.39868L46.0613 7.81226H46.1709C46.4517 7.81226 46.7414 7.77788 46.8465 7.71821C46.8465 7.71821 46.7843 8.03628 46.7484 8.27681C46.7104 8.4854 46.6268 8.7353 46.1717 8.7353H40.1189V8.73472C39.8009 8.73472 39.7145 8.54829 39.7145 8.35405V7.81138H42.7682V6.59673H40.6782C40.3193 6.59673 40.2968 6.37056 40.2959 6.27642V5.65044H42.7682V4.63501H40.4176C40.0592 4.63501 40.0375 4.40874 40.0367 4.31382V3.68863H46.4598ZM34.6029 3.81187H31.2365V7.23306H34.6032L34.6029 3.81187ZM29.9076 3.81187H26.6389V7.23306H29.9077V3.81177L29.9076 3.81187ZM55.3112 5.18814H52.1344V6.20611H55.8727C55.6257 5.75767 55.4264 5.39526 55.3112 5.18814ZM85.5938 4.71411H81.5445V5.5023H85.5938V4.71421V4.71411ZM92.504 1.45268C91.85 2.89038 90.8446 3.65825 90.1827 4.03276C89.5627 4.34058 89.2349 4.08198 89.129 4.00659C89.0413 3.92847 88.3872 3.35864 88.3872 3.35864C90.3136 2.80395 91.2746 1.45268 91.2746 1.45268H92.5041H92.504ZM59.113 2.94312H52.1344V3.96899H59.1129V2.94312H59.113ZM85.5938 2.7188H81.5445V3.64028H85.5938V2.7188ZM99.3424 1.96782V2.67515C99.3424 2.90405 99.2061 3.19058 98.8216 3.19058H93.9696C93.5849 3.19058 93.4479 2.90405 93.4479 2.67515V1.96782H99.3424ZM10.9459 3.41069L16.2706 5.80679L13.4373 7.10855C18.2838 7.72046 21.8915 9.71382 21.8915 12.2118C21.8915 15.199 16.9817 17.6274 10.9456 17.6274C4.90869 17.6274 0 15.199 0 12.2121V12.119H3.70244V12.2121C3.70244 14.4251 6.95176 16.225 10.9459 16.225C14.941 16.225 18.1888 14.4252 18.1888 12.2121C18.1888 9.99927 14.9409 8.19976 10.9459 8.19976L10.9075 8.19038L5.61982 5.80679L10.946 3.41069H10.9459ZM10.9462 4.83022L8.779 5.80679L10.946 6.78267L13.113 5.80679L10.9462 4.83022Z" fill="#006CA9"/>
<path d="M10.9463 11.2164L13.114 12.1924L10.946 13.1681L8.77871 12.1924L10.9459 11.2163H10.9462L10.9463 11.2164ZM10.9463 0.372681C4.91025 0.372681 0 2.8011 0 5.78831C0 8.2844 3.60811 10.2796 8.45488 10.8925L5.61953 12.1923L10.9459 14.5868L16.2706 12.1923L10.9843 9.80793L10.9459 9.79856C6.95176 9.79856 3.70332 7.99905 3.70332 5.78801C3.70332 3.57581 6.95176 1.77356 10.9459 1.77356C14.941 1.77356 18.1888 3.57581 18.1888 5.78801V5.87932H21.8924V5.78801C21.8924 2.8011 16.982 0.372681 10.9459 0.372681H10.9462H10.9463Z" fill="#00965A"/>
</svg>
