<svg width="100" height="24" viewBox="0 0 100 24" fill="none" xmlns="http://www.w3.org/2000/svg">
<path d="M81.2555 1.02329C81.8707 1.14565 82.3629 1.39048 82.732 1.88003C82.4859 2.85933 81.6246 3.22651 81.8707 3.96089C81.9938 4.32808 82.4859 4.5729 82.732 4.81773C82.9781 5.18491 83.1012 5.91929 83.4704 6.16421C83.9626 6.5314 84.3317 6.40903 85.0701 6.28657C86.6698 6.04175 88.6387 5.30737 90.6076 4.94019C90.7307 5.06255 90.8537 5.30737 90.9768 5.42974C90.6076 6.04175 90.3615 6.5314 89.8693 6.77622C89.254 7.02105 88.3926 6.89858 87.7773 7.5106C87.4082 8.00024 87.5312 8.61216 87.5312 9.46909C87.6543 11.1828 88.1465 13.386 87.4082 14.7324C87.0391 14.7324 86.793 14.8548 86.4237 14.8548C85.4394 14.3652 84.3318 13.8756 83.7165 13.0188L83.8396 12.8963C84.5778 12.774 85.1932 12.774 85.9315 12.6515C85.9315 10.9379 86.0546 9.1019 86.0546 7.38823C85.9315 7.38823 85.6854 7.5106 85.5624 7.5106C85.0702 7.63306 83.5935 8.48989 82.9782 7.63306C82.8552 7.14341 82.6091 6.65376 82.486 6.16421L81.2555 7.38823C81.2555 8.12261 81.1324 8.97944 81.2555 9.83628C81.5016 11.55 81.8707 13.5083 81.1324 14.7324C81.0094 14.8548 80.7633 14.8548 80.6402 14.9772C80.3941 14.61 80.2711 14.4876 80.2711 14.4876C80.0249 14.2428 79.7788 13.998 79.4097 13.7533C79.4097 11.9171 80.1479 10.6931 79.6558 8.97944H79.5327C78.3021 9.34663 78.1791 10.3259 76.9485 10.6931L76.5794 10.3259V9.59155C77.6868 8.12261 79.1635 7.26577 80.1479 5.5522C80.1479 5.42974 80.0249 5.30737 80.0249 5.18501C79.5327 5.06255 79.4097 5.30737 79.0405 4.81782V4.45054C79.5327 3.10415 80.7632 2.6145 81.2554 1.02329H81.2555ZM34.3717 1.75767C35.2331 1.88003 35.7253 2.12485 36.2176 2.49204V4.08335C36.5867 4.20571 36.8328 4.32817 37.202 4.45054C37.9402 4.08335 38.6786 3.83853 39.7861 3.71616C40.1553 4.32818 40.2783 4.45054 40.1553 5.30737C38.8018 5.42974 37.5711 5.18491 36.4637 5.79702V5.91938C36.5867 6.28657 36.5867 6.65376 36.7098 7.02095C37.6941 7.14341 39.54 7.38813 40.1553 8.24507C40.2783 8.73462 40.2783 8.61226 39.9092 8.97944C38.9248 9.34663 38.0634 8.97944 37.325 8.48989C36.7098 8.12271 36.0945 7.87778 35.7254 7.38823C35.4793 7.02105 35.3562 6.40903 35.2331 6.04175H34.864C34.7409 6.16421 34.4948 6.28657 34.3718 6.53139C34.2487 7.02104 34.2487 7.75542 34.1257 8.12261C33.8796 8.73462 33.3873 8.97944 33.2643 9.46909C33.6334 9.71391 33.8795 9.83628 34.1256 10.3259C34.3717 10.3259 34.6178 10.2035 34.8639 10.2035C34.9869 9.59146 35.11 9.22427 35.6022 8.85708C36.0944 8.97944 36.5866 9.22427 37.0789 9.34663V9.46909C36.8328 10.0811 36.2176 10.4483 36.3406 11.0603C36.9559 13.0188 38.8017 13.7532 40.4014 13.998C41.6319 14.2428 42.4934 13.8756 43.1086 14.7324L42.6164 15.222C41.7551 15.222 40.4014 16.5685 39.7861 16.0789C38.3095 14.9773 36.8328 13.5084 35.4792 12.4068C34.2487 13.386 33.2643 14.4876 31.9106 14.8548C30.9263 15.0997 29.9418 14.9772 28.4651 14.61V14.2428H29.2034C29.6956 14.1204 30.3108 14.1204 30.9262 13.998C32.4028 13.6308 33.7564 12.8964 34.0025 11.3051C33.3873 10.8155 32.8951 10.0811 32.1568 9.83628C31.5415 9.59145 30.8031 9.95864 30.557 9.46909C30.6801 9.34663 30.8031 9.1019 30.9262 8.97944C32.1567 8.85708 32.8951 7.87788 33.3873 6.89858C33.3873 6.65376 33.2643 6.40903 33.2643 6.16421C31.9106 6.28657 31.6646 6.40903 30.557 6.16421C30.434 6.04175 30.434 5.79702 30.3109 5.67456C30.6801 5.30737 30.434 5.18491 30.9262 5.30737C35.1101 5.18491 34.3717 4.81773 35.7253 4.32818V4.20571C35.3562 3.5937 34.7409 3.22651 34.2487 2.73696C34.0026 2.6145 34.1257 2.12485 34.3718 1.75767H34.3717ZM54.0604 1.75767C54.7987 2.00249 55.1679 2.24731 55.2909 3.22642C54.4296 3.83853 53.4452 4.45054 52.8299 5.42974C52.9529 5.91939 52.9529 6.04175 53.199 6.40903C53.6912 5.91938 53.9373 5.67466 54.7987 5.5522C55.414 6.28657 55.9062 6.65376 55.1679 7.63306C55.1679 8.00024 55.0448 8.12261 55.0448 8.73462C55.0448 9.34663 55.414 9.59145 55.414 10.4483C55.537 11.4275 55.414 13.0188 55.537 13.5083C56.5215 13.2635 57.506 13.0188 58.4904 12.6515C58.6135 12.774 58.6135 12.8963 58.7365 13.0187C56.8907 17.9149 51.3532 14.1204 47.2925 13.998C46.308 14.3652 45.3235 14.61 44.3392 14.9772C43.7239 14.1204 43.6009 14.1204 44.2161 13.386C44.7083 13.386 45.3235 13.2635 45.8157 13.2635C45.8157 13.0188 46.0618 12.8963 46.0618 12.6515V12.0395C45.6927 11.3051 45.2005 10.3259 45.0774 9.34663C44.9544 8.73462 45.3235 8.24507 45.3235 7.75542L45.0774 6.28667C45.2005 6.28667 45.3235 6.16421 45.4466 6.16421C45.8157 5.91939 45.9388 5.91939 46.4311 6.04175C46.6772 6.5314 46.9232 6.89858 47.2924 7.38823C47.1693 7.75542 46.9232 8.24507 46.8002 8.73462C46.6772 9.59145 46.9232 10.4483 47.1693 11.3051C47.2924 12.162 47.4154 13.0188 48.1538 13.386H49.0151C49.0151 13.2635 49.1382 13.2635 49.1382 13.1412C48.8921 12.4068 48.8921 11.0603 48.8921 9.83628C48.8921 8.97944 48.769 8.12261 49.0151 7.63306C49.5073 7.63306 50.1227 7.63306 50.3688 7.26587C50.6148 7.02105 50.6148 6.40903 50.7379 6.16421C50.984 5.79702 51.3532 6.04175 51.4763 5.79702C51.5993 5.5522 51.5993 4.94018 51.5993 4.69536C51.4763 4.69536 51.3532 4.5729 51.2302 4.5729C50.738 4.94009 50.2458 5.42974 49.7536 5.79702C49.6305 5.67456 49.3844 5.5522 49.2613 5.42983C49.3844 4.94018 49.3844 4.5729 49.5074 4.08335C50.2457 4.08335 50.984 4.20571 51.3532 4.08335C51.8454 3.96089 52.0915 3.34897 52.4606 2.98179C53.076 2.24731 53.5682 2.12485 54.0604 1.75767ZM65.1354 2.00249C66.6119 2.24732 66.735 4.08335 67.3503 5.18491L66.9812 5.91929H66.8581C66.3659 5.5521 65.9968 5.30737 65.5045 4.94019C64.8893 5.30737 64.0278 6.04175 65.0123 6.65376C65.6275 6.77622 65.6275 6.28657 66.2428 6.65376C66.3658 6.77622 66.4889 6.77622 66.6119 6.89858C66.4889 7.5106 66.2428 7.87778 66.2428 8.12261C66.2428 8.36743 66.735 8.73462 66.9811 9.22427C66.3658 9.71392 65.9967 9.83628 65.8736 10.9379C65.9967 10.9379 65.9967 11.0603 66.1197 11.0603C66.2428 11.0603 66.3658 10.9379 66.4889 10.9379C66.6119 10.5708 66.6119 10.2036 66.735 9.83628H67.2272C67.3503 10.6931 67.1042 11.4275 67.3503 12.0395C67.5964 12.0395 67.8425 11.9171 68.0886 11.9171C67.9655 10.6931 67.9655 8.73462 67.9655 7.02104C67.9655 5.79702 67.8425 4.69536 68.2116 3.96089C69.8114 4.32808 70.3036 3.10415 71.9033 2.85933C72.1494 2.98169 72.3955 3.22651 72.6416 3.34888C72.3955 4.94019 72.0264 5.67456 71.9033 8.00024C70.9189 8.48989 70.9189 8.97944 69.6884 9.22427C69.9345 9.95864 70.5497 10.2035 71.288 9.71392C72.2725 9.1019 72.2725 8.00024 73.1339 7.38823H74.6105C74.6105 7.5106 74.7335 7.51059 74.7335 7.63306V8.12261C73.9952 8.48979 72.5187 9.22427 72.5187 10.3259L74.7335 11.7947C75.1026 12.5292 74.6105 13.386 74.3644 13.8756C73.7491 13.386 72.5187 11.4275 71.7803 12.162C70.3036 12.774 70.9189 14.9772 68.95 15.222C68.7039 15.0997 68.4578 15.0997 68.2117 14.9772C68.0887 14.61 67.9656 14.7324 67.9656 14.3652C67.9656 13.998 67.8426 13.0188 67.7195 13.0188C66.2428 13.7532 63.6587 15.3444 62.059 14.2428V14.1204C62.5512 13.7532 63.2895 13.5083 63.7816 13.1412C63.6586 12.6515 63.4125 12.0396 63.2895 11.55C63.7816 11.4275 64.1509 11.3051 64.6431 11.1828V10.8156C64.52 10.6931 64.397 10.6931 64.2739 10.5707L63.5356 10.9378C63.0435 10.5707 62.7974 10.6931 62.6743 9.83628C63.2895 9.71392 63.9048 9.46909 64.52 9.34663C64.52 8.61226 64.397 8.48989 64.1509 8.00024H63.1665C62.5513 8.61226 61.9359 9.22427 61.4436 9.83628C60.7054 9.83628 60.2132 9.83628 59.844 9.59146H59.5979V9.1019C60.2132 8.73472 60.9515 8.36753 61.5667 7.87778C62.6742 6.89858 63.4126 5.5522 64.0278 4.45054C64.397 3.71616 64.1509 3.47134 64.52 2.73687C64.7661 2.12485 64.8892 2.36968 65.1353 2.00249H65.1354ZM88.0234 2.98169L88.7617 3.34888V3.71606C88.6387 3.83853 88.5156 3.83852 88.3926 3.96089C88.1465 4.32808 86.4237 4.81773 85.5623 4.69526C84.701 4.81773 84.4549 4.20571 84.0857 3.47134H84.3318C85.4393 3.34888 86.6698 3.10415 88.0234 2.98169ZM46.5541 3.5937C46.9232 3.71616 47.2924 3.96089 47.6615 4.08335C47.7846 4.94018 47.6615 5.79702 46.8002 5.18491C46.4311 5.06255 46.5541 5.06255 46.308 4.81773C45.8158 4.20571 46.0619 4.08335 46.5541 3.5937ZM70.1806 4.32808L69.1962 5.30737C69.3192 5.42974 69.4423 5.67456 69.5653 5.79702C70.3036 5.79702 70.3036 5.67456 70.7958 5.42983C70.7958 5.18491 70.9188 4.94018 70.9188 4.69536C70.6728 4.45054 70.7958 4.45054 70.1806 4.32818V4.32808ZM69.6884 6.65376C69.5653 7.26577 69.5653 7.63306 69.8114 8.12261H70.1806C70.3036 7.87778 70.5497 7.63306 70.6728 7.38823C70.6728 7.14341 70.5497 6.89859 70.5497 6.65386H69.6884V6.65376ZM53.5683 6.89858C53.3222 7.02104 53.0761 7.26577 52.7068 7.38823V7.87778L53.199 8.36743C53.5682 8.24507 53.6912 8.24507 53.9373 8.00024C54.1834 7.5106 54.0604 7.26587 53.5682 6.89868L53.5683 6.89858ZM50.6149 7.87778C50.4919 8.36743 50.3688 8.61216 50.4919 9.22427H50.6149C51.1071 8.97944 51.1071 9.1019 51.3532 8.73462V7.87778H50.6149ZM53.3221 9.22427C53.199 9.34663 53.076 9.59146 52.9529 9.71392L53.3221 10.4483C53.5682 10.3259 53.8143 10.5707 54.1834 10.2035V9.34663C53.8143 9.22427 53.5682 9.22427 53.3221 9.22427ZM50.6149 9.83628C50.4919 9.83628 50.4919 9.95864 50.3688 9.95864C50.4919 10.3258 50.3688 10.5707 50.6149 10.9379H50.9841C51.1071 10.8155 51.1071 10.6931 51.2302 10.5708C51.2302 10.4483 51.1071 10.2036 51.1071 10.0811C50.9841 9.95864 50.738 9.95864 50.6149 9.83628ZM69.4422 10.4483C69.0731 11.1827 68.95 12.0395 69.3191 12.5292C69.5652 12.774 69.3191 12.6515 69.8113 12.774C70.7958 12.162 71.4111 10.4483 69.4422 10.4483ZM53.199 11.0603C52.8299 11.9171 52.5838 12.8963 53.076 13.7532H53.4451C53.6912 13.386 53.8143 13.386 53.6912 12.8963C53.9373 12.2843 53.8143 11.6723 53.5682 11.1828C53.4451 11.1828 53.3221 11.1828 53.199 11.0603ZM50.738 11.4275C50.6149 11.55 50.4919 11.7947 50.3688 11.9171C50.4919 12.4068 50.4919 13.0187 50.6149 13.5083H51.1071C51.2302 13.386 51.3532 13.386 51.4763 13.2635C51.5993 12.2843 51.7224 11.55 50.738 11.4276V11.4275ZM25.2093 22.6047H26.6375C27.5193 22.6047 28.1901 22.301 28.1901 21.6455C28.1901 21.2055 27.8709 20.9591 27.4382 20.8755V20.8536C27.779 20.7568 27.9845 20.4488 27.9845 20.1496C27.9845 19.5585 27.3896 19.3593 26.5992 19.3493L25.2093 19.3489V22.6047ZM26.0223 20.7054V19.8915H26.4539C26.8904 19.8915 27.1062 20.0041 27.1062 20.2855C27.1062 20.5409 26.9051 20.7054 26.444 20.7054H26.0222H26.0223ZM26.0223 22.062V21.2481H26.561C27.0946 21.2481 27.3771 21.3617 27.3771 21.6342C27.3771 21.9257 27.0895 22.062 26.561 22.062H26.0223ZM29.7001 21.2481C29.9297 20.5705 30.0835 20.1182 30.1615 19.8915H30.1861C30.3216 20.2274 30.4448 20.5844 30.5865 20.9079L30.722 21.2481H29.7001ZM31.1425 22.6046H31.9838L30.692 19.3488H29.7475L28.461 22.6046H29.2753L29.5575 21.7687H30.8603L31.1425 22.6046ZM32.2548 22.6046H32.9921V21.298C32.9921 20.924 32.9342 20.5148 32.8974 20.1627H32.9236L33.3187 20.8624L34.4456 22.6046H35.2356V19.3488H34.4983V20.6467C34.4983 21.0164 34.5562 21.4475 34.5983 21.7864H34.572L34.1823 21.0823L33.05 19.3489H32.2548V22.6047V22.6046ZM36.3195 22.6046H37.123V21.6895L37.6495 21.1439L38.6864 22.6046H39.5712L38.1272 20.6291L39.3541 19.3489H38.4693L37.1393 20.7612H37.123V19.3489H36.3195V22.6047V22.6046ZM42.9585 22.6046C44.0015 22.6046 44.7199 21.9815 44.7199 20.964C44.7199 19.9465 44.0016 19.3488 42.9585 19.3488C41.9155 19.3488 41.1972 19.9423 41.1972 20.964C41.1972 21.9815 41.9155 22.6046 42.9585 22.6046ZM42.9585 22.062C42.3789 22.062 42.0102 21.6347 42.0102 20.9662C42.0102 20.2934 42.3789 19.8915 42.9585 19.8915C43.5382 19.8915 43.9069 20.2934 43.9069 20.9662C43.9069 21.6347 43.5382 22.062 42.9585 22.062ZM45.5329 22.6046H46.3244V21.2847H47.7311V20.7391H46.3244V19.89H47.9717V19.3489H45.5329V22.6047V22.6046ZM51.5147 22.6046C52.0576 22.6046 52.5044 22.4435 52.8493 22.1425L52.4082 21.7525C52.182 21.9348 51.8992 22.0621 51.543 22.0621C50.8813 22.0621 50.4516 21.6508 50.4516 20.9683C50.4516 20.2942 50.9266 19.8873 51.56 19.8873C51.8767 19.8873 52.1198 19.9974 52.3291 20.15L52.7702 19.7516C52.4987 19.5396 52.0746 19.3489 51.543 19.3489C50.4854 19.3489 49.5977 19.955 49.5977 20.9895C49.5977 22.0366 50.4571 22.6047 51.5146 22.6047L51.5147 22.6046ZM55.1526 22.6046C56.1956 22.6046 56.9141 21.9815 56.9141 20.964C56.9141 19.9465 56.1957 19.3488 55.1526 19.3488C54.1097 19.3488 53.3913 19.9423 53.3913 20.964C53.3913 21.9815 54.1097 22.6046 55.1526 22.6046ZM55.1526 22.062C54.573 22.062 54.2042 21.6347 54.2042 20.9662C54.2042 20.2934 54.573 19.8915 55.1526 19.8915C55.7323 19.8915 56.1011 20.2934 56.1011 20.9662C56.1011 21.6347 55.7323 22.062 55.1526 22.062ZM57.727 22.6046H58.4242V21.2452C58.4242 20.9372 58.3613 20.4839 58.3246 20.176H58.3456L58.6549 20.9416L59.2577 22.3098H59.7033L60.301 20.9416L60.6154 20.1759H60.6364L60.5998 20.4845C60.5703 20.7428 60.5421 21.0294 60.5421 21.2452V22.6046H61.2497V19.3488H60.39L59.7452 20.8711C59.6613 21.0735 59.5933 21.2891 59.5094 21.5003H59.4831L59.3672 21.1825C59.3294 21.0779 59.2894 20.9741 59.2473 20.8711L58.5867 19.3489H57.727V22.6047V22.6046ZM62.3337 22.6046H63.031V21.2452C63.031 20.9372 62.968 20.4839 62.9313 20.176H62.9522L63.2615 20.9416L63.8644 22.3098H64.31L64.9076 20.9416L65.2221 20.1759H65.2431L65.2065 20.4845C65.177 20.7428 65.1487 21.0294 65.1487 21.2452V22.6046H65.8564V19.3488H64.9967L64.352 20.8711C64.268 21.0735 64.1999 21.2891 64.116 21.5003H64.0898L63.9738 21.1825C63.936 21.0779 63.896 20.9741 63.8539 20.8711L63.1934 19.3489H62.3337V22.6047V22.6046ZM68.4359 22.6046C69.3759 22.6046 69.9211 22.1685 69.9211 21.1063V19.3489H69.1838V21.1624C69.1838 21.8274 68.8929 22.052 68.4359 22.052C67.9842 22.052 67.7089 21.8274 67.7089 21.1624V19.3489H66.9403V21.1063C66.9403 22.1685 67.5012 22.6046 68.4359 22.6046ZM71.0051 22.6046H71.7424V21.298C71.7424 20.924 71.6844 20.5148 71.6476 20.1627H71.6739L72.0688 20.8624L73.1958 22.6046H73.9858V19.3488H73.2485V20.6467C73.2485 21.0164 73.3064 21.4475 73.3486 21.7864H73.3223L72.9326 21.0823L71.8003 19.3489H71.0051V22.6047V22.6046ZM75.0697 22.6046H75.8827V19.3488H75.0697V22.6046ZM78.3418 22.6046C78.8848 22.6046 79.3315 22.4435 79.6765 22.1425L79.2354 21.7525C79.0091 21.9348 78.7264 22.0621 78.3701 22.0621C77.7084 22.0621 77.2786 21.6508 77.2786 20.9683C77.2786 20.2942 77.7536 19.8873 78.387 19.8873C78.7037 19.8873 78.9469 19.9974 79.1562 20.15L79.5973 19.7516C79.3258 19.5396 78.9017 19.3489 78.3701 19.3489C77.3125 19.3489 76.4247 19.955 76.4247 20.9895C76.4247 22.0366 77.2843 22.6047 78.3418 22.6047V22.6046ZM81.1244 21.2481L81.2599 20.9079C81.4 20.5733 81.5294 20.2343 81.6479 19.8915H81.6725C81.808 20.2274 81.9312 20.5844 82.0729 20.9079L82.2083 21.2481H81.1243H81.1244ZM82.6288 22.6046H83.4702L82.1783 19.3488H81.2339L79.9475 22.6046H80.7616L81.0438 21.7687H82.3466L82.6288 22.6046ZM84.5656 22.6046H85.3449V19.89H86.451V19.3489H83.4702V19.89H84.5656V22.6046ZM87.2639 22.6046H88.0769V19.3488H87.2639V22.6046ZM90.6512 22.6046C91.6941 22.6046 92.4125 21.9815 92.4125 20.964C92.4125 19.9465 91.6941 19.3488 90.6512 19.3488C89.6082 19.3488 88.8897 19.9423 88.8897 20.964C88.8897 21.9815 89.6082 22.6046 90.6512 22.6046ZM90.6512 22.062C90.0716 22.062 89.7027 21.6347 89.7027 20.9662C89.7027 20.2934 90.0716 19.8915 90.6512 19.8915C91.2308 19.8915 91.5996 20.2934 91.5996 20.9662C91.5996 21.6347 91.2308 22.062 90.6512 22.062ZM93.2254 22.6046H93.9627V21.298C93.9627 20.924 93.9049 20.5148 93.868 20.1627H93.8943L94.2893 20.8624L95.4163 22.6046H96.2064V19.3488H95.469V20.6467C95.469 21.0164 95.5269 21.4475 95.569 21.7864H95.5427L95.153 21.0823L94.0207 19.3489H93.2255V22.6047L93.2254 22.6046ZM98.5041 22.6046C97.9597 22.6046 97.4152 22.4393 97.0192 22.1468L97.4867 21.7144C97.7781 21.9221 98.1631 22.0621 98.5206 22.0621C98.944 22.0621 99.1695 21.9221 99.1695 21.7017C99.1695 21.4685 98.9221 21.3964 98.5592 21.2777L98.0146 21.0997C97.6021 20.9682 97.1898 20.7139 97.1898 20.256C97.1898 19.7431 97.7727 19.3488 98.5976 19.3488C99.0706 19.3488 99.5436 19.493 99.8735 19.7516L99.461 20.1458C99.2025 19.9805 98.9331 19.8873 98.5976 19.8873C98.2401 19.8873 98.0092 20.0102 98.0092 20.2179C98.0092 20.4425 98.3006 20.5231 98.6471 20.6291L99.1806 20.8029C99.6755 20.9598 100 21.2014 100 21.655C100 22.168 99.4445 22.6046 98.5041 22.6046ZM14.7335 5.08813C13.2833 5.08813 11.8912 5.49468 10.7312 6.24976L6.84473 8.74731V0.0930176L0 5.78511V16.5885C0 19.7831 2.14619 22.5129 5.04648 23.5004L6.38066 23.907C3.65439 22.571 1.85625 19.8992 1.85625 16.879C1.85625 12.4647 5.56855 8.92163 10.1511 8.92163C14.4435 8.92163 17.9818 12 18.446 16.0077H13.6314C13.2254 14.4395 11.7752 13.2778 10.0931 13.2778C8.06279 13.2778 6.38066 14.9623 6.38066 16.937C6.38066 18.9119 8.06279 20.5381 10.0931 20.5381C12.0072 20.5381 13.5154 19.2022 13.7474 17.3436H18.4459C18.3879 18.97 17.7498 20.422 16.7638 21.5836C16.7638 21.5836 19.6641 18.2149 20.6501 16.7047C21.5202 15.3688 22.0423 13.9167 22.0423 12.2904C22.0423 8.34077 18.7359 5.08813 14.7335 5.08813Z" fill="#00367A"/>
</svg>
