<svg width="100" height="30" viewBox="0 0 100 30" fill="none" xmlns="http://www.w3.org/2000/svg">
<path d="M36.2383 20.748H33.7209V26.0451H36.0778C36.5903 26.0451 37.4547 25.796 37.6832 25.211C37.9857 24.4391 37.6646 23.5491 36.7261 23.2813C38.0845 22.6527 37.8807 20.748 36.2383 20.748ZM36.0778 21.2397L36.3989 21.3207C37.2262 21.7377 36.9731 22.6589 36.2383 23.0324L35.9172 23.1133H34.3693V21.2396H36.0778V21.2397ZM36.0037 25.5533H34.3693V23.5864H35.9235C36.8063 23.5864 37.1151 24.0657 37.1151 24.6632C37.1212 25.1051 36.547 25.5533 36.0038 25.5533H36.0037ZM48.0709 25.2296L45.0023 20.748H44.1132V26.0451H44.7553V21.6443L47.8301 26.0451H48.7193V20.748H48.0709V25.2296H48.0709ZM82.1373 25.2296L79.0686 20.748H78.1795V26.0451H78.8278V21.6443L81.8964 26.0451H82.7855V20.748H82.1373V25.2296ZM88.0504 23.5988V25.3915C86.5253 25.7774 84.5743 25.6591 84.5743 23.437C84.6052 20.7667 87.0008 21.2148 88.5321 21.4825L88.4518 20.9098C86.0006 20.25 83.7963 21.0467 83.8458 23.437C83.9136 26.5057 86.6674 26.2318 88.7728 25.8833V23.1133H86.9206V23.5988H88.0504ZM76.1437 20.748H76.792V26.0451H76.1437V20.748ZM92.4404 23.3001C93.7988 22.6713 93.595 20.7667 91.9526 20.7667H89.7731V26.0637H91.792C92.3046 26.0637 93.169 25.8147 93.3974 25.2297C93.7 24.4516 93.3789 23.5676 92.4404 23.3001ZM91.792 21.2522L92.1131 21.3331C92.9405 21.7502 92.6874 22.6713 91.9526 23.0449L91.6315 23.1257H90.4213V21.2523H91.792V21.2522ZM91.7118 25.572H90.4213V23.605H91.6378C92.5206 23.605 92.8294 24.0843 92.8294 24.6819C92.8355 25.1176 92.2613 25.572 91.7118 25.572ZM97.0077 20.6794C95.4826 20.6794 94.2415 21.9057 94.2415 23.4121C94.2415 24.9184 95.4826 26.1447 97.0076 26.1447C98.5264 26.1447 99.7675 24.9184 99.7675 23.4121C99.7675 21.9057 98.5264 20.6795 97.0076 20.6795L97.0077 20.6794ZM97.0077 25.5969C95.7913 25.5969 94.7972 24.6134 94.7972 23.4121C94.7972 22.2108 95.7913 21.2273 97.0076 21.2273C98.2239 21.2273 99.218 22.2107 99.218 23.4121C99.2118 24.6134 98.2239 25.5969 97.0076 25.5969H97.0077ZM59.8921 20.6795C58.367 20.6795 57.126 21.9057 57.126 23.4121C57.126 24.9184 58.367 26.1447 59.8921 26.1447C61.411 26.1447 62.652 24.9184 62.652 23.4121C62.652 21.9057 61.411 20.6795 59.8921 20.6795ZM59.8921 25.5969C58.6757 25.5969 57.6817 24.6134 57.6817 23.4121C57.6817 22.2108 58.6758 21.2273 59.8921 21.2273C61.1084 21.2273 62.1025 22.2107 62.1025 23.4121C62.0963 24.6134 61.1084 25.5969 59.8921 25.5969ZM49.94 20.748V26.0451H50.6685V20.748H49.94ZM53.4963 20.748H52.6876L50.6686 23.2751L53.0148 26.0451H53.9039L51.4774 23.1942L53.4963 20.748ZM63.4176 26.0451H64.14V23.5988H66.406V23.1133H64.14V21.3207H66.6468V20.748H63.4176V26.0451ZM38.0333 26.0451H38.8421L39.5053 24.4682H42.0711L42.7196 26.0451H43.4481L41.3489 20.748H40.5401L38.0333 26.0451ZM39.6659 23.9764L40.8612 21.3207L41.9106 23.9764H39.6659ZM74.4459 25.2296L71.3772 20.748H70.488V26.0451H71.1365V21.6443L74.205 26.0451H75.0941V20.748H74.4459V25.2296Z" fill="black"/>
<path d="M48.7648 9.57398V10.96H42.2376V17.7721C42.2376 18.4143 41.7171 18.9349 41.0748 18.9349H36.8807V17.5967H40.0094C40.1944 17.5967 40.3719 17.5232 40.5027 17.3924C40.6335 17.2616 40.707 17.0841 40.707 16.8991V10.96H33.4883V9.57398H48.7648ZM89.8132 8.5606L99.5349 8.56138C99.7849 8.56138 99.9887 8.75855 99.9995 9.00572L100 9.02652V9.86324H96.9881V17.3041C96.9881 18.0644 96.38 18.6828 95.6235 18.6991L95.5928 18.6994H92.2461V17.3186H94.5457C94.7267 17.3186 94.9005 17.2483 95.0306 17.1225C95.1607 16.9967 95.2369 16.8253 95.243 16.6445L95.2434 16.621V9.86314H89.8132V8.5606ZM60.7143 3.70239V5.95982H64.2689C64.3583 5.95981 64.4442 5.99406 64.509 6.05551C64.5738 6.11695 64.6125 6.20091 64.6173 6.29009L64.6178 6.30864V8.72925H63.1344V7.32554C63.1344 7.29676 63.1237 7.26901 63.1044 7.24765C63.0851 7.22629 63.0586 7.21284 63.03 7.20991L63.0181 7.20933H60.7144V9.87095H63.0725C63.2075 9.87097 63.341 9.90039 63.4635 9.95718C63.5861 10.014 63.6948 10.0968 63.7821 10.1998C63.8694 10.3028 63.9332 10.4237 63.9691 10.5539C64.0051 10.6841 64.0122 10.8205 63.99 10.9538C63.9218 11.3664 63.8122 11.7711 63.6631 12.1618C63.3885 12.8802 62.5977 13.997 61.2907 15.5122C62.5198 16.4863 63.4863 17.0217 64.1902 17.1182C65.2462 17.263 65.3377 17.4063 65.1824 17.5692C65.0272 17.7322 64.507 18.6371 64.3455 18.6371C64.1881 18.6371 63.189 18.1072 62.2552 17.6095L62.1796 17.5692C61.2248 17.0602 60.39 16.291 60.1959 16.4029C60.0017 16.5147 56.7066 18.513 56.1176 18.513C55.7328 18.513 55.4239 18.2111 55.1906 17.6074L55.1762 17.5693L59.4218 15.323C59.0261 15.0216 58.5775 14.5171 58.0762 13.8095C57.5862 13.1179 57.2082 12.1951 56.9422 11.041L56.9238 10.9599H56.1176C56.0795 12.7981 56.0258 13.9611 55.9564 14.4491C55.8871 14.937 55.2 16.2556 53.8949 18.405C53.3348 18.5691 52.9426 18.3447 52.7183 17.7314C53.9221 16.4807 54.8947 14.1206 54.9141 13.4727L54.9144 13.4536V5.95991H58.9954V3.70249H60.7143V3.70239ZM70.4485 3.91518C70.4485 4.05483 70.1763 4.70562 69.6316 5.86714L69.6074 5.9187H72.3365V7.18628H68.8331C68.3919 7.87827 68.0436 8.40601 67.788 8.76958H72.3365V9.94712H69.9057V11.9394H72.3365V13.4726H69.9057V16.5121C70.2868 16.5633 70.5397 16.5633 70.6644 16.5121C70.789 16.4608 71.3464 16.1066 72.3365 15.4496V16.7058L69.5738 18.6371H68.6569V13.4726H66.5231V11.9394H68.6569V9.94703H67.5649V9.07623C67.4142 9.27418 67.3193 9.3731 67.2805 9.3731C67.1223 9.3731 66.4027 8.39341 66.5406 8.24986C66.6686 8.11665 68.0879 6.02495 68.3248 5.4063C68.4444 5.0938 68.6139 4.55317 68.8331 3.78433C69.9101 3.72964 70.4485 3.77319 70.4485 3.91509V3.91518ZM80.3991 4.36792C80.6412 4.36792 80.8738 4.46232 81.0475 4.63107C81.2211 4.79981 81.3221 5.02961 81.329 5.27163L81.3294 5.2981V11.968C79.7508 11.9506 78.4221 11.9506 77.3433 11.968C77.3433 12.6747 77.721 13.492 78.4765 14.42L78.5181 14.4708L80.9757 12.7012C81.1153 12.5075 81.3403 12.5478 81.6509 12.822C82.1167 13.2335 82.2179 13.7033 81.9688 13.7033C81.7195 13.7033 79.9342 14.657 79.2712 15.1263C80.1982 16.0305 81.3308 16.7282 82.6689 17.2193L82.7565 17.251L81.6509 18.6371C79.9056 17.4796 78.7874 16.6671 78.2965 16.1996C78.1678 16.0776 78.0439 15.9507 77.9249 15.8193C77.2313 15.0488 76.485 13.7932 75.686 12.0527L75.6474 11.968H74.3488C74.2941 15.192 74.3422 16.8562 74.4926 16.9602C74.7183 17.1165 76.5238 16.2437 76.8338 15.8193C77.0359 15.5426 77.2027 15.5365 77.3344 15.8008L77.3433 15.8194V16.8041C77.3433 16.9294 74.1771 18.5695 74.0504 18.6351L74.0465 18.6371H72.8044V4.36792H80.3991ZM88.2197 7.88374C88.6689 7.88374 89.2457 8.33882 89.365 8.76949C89.0637 9.12788 88.5693 9.81705 87.882 10.837V18.6371H86.5209V12.6045C85.5002 13.5531 84.9364 14.058 84.8295 14.1191C84.6692 14.2108 84.0316 13.1028 83.8842 13.1028C83.737 13.1028 84.8309 12.4807 85.5733 11.6588C86.3158 10.837 88.1288 8.26997 88.2197 7.88374ZM52.0029 12.3872L53.3774 13.2551L51.6855 18.637L50.036 18.1656L52.0028 12.3873L52.0029 12.3872ZM62.3362 10.96H58.3301C58.3115 10.96 58.2931 10.9645 58.2766 10.973C58.26 10.9816 58.2458 10.994 58.2351 11.0092C58.2243 11.0244 58.2174 11.042 58.2149 11.0604C58.2123 11.0789 58.2143 11.0977 58.2205 11.1152C58.4775 11.8397 58.7308 12.4086 58.9801 12.822C59.247 13.2644 59.717 13.8728 60.3902 14.6469C61.0407 13.9007 61.5035 13.2862 61.7782 12.8035C62.0347 12.3529 62.2581 11.7877 62.4483 11.1076C62.4532 11.0903 62.454 11.0721 62.4506 11.0545C62.4472 11.0369 62.4398 11.0203 62.429 11.006C62.4181 10.9917 62.4041 10.9801 62.3881 10.9721C62.372 10.9641 62.3543 10.96 62.3363 10.96H62.3362ZM50.7978 8.06411L53.3775 10.0327L52.5403 11.0839L49.861 9.1272L50.7978 8.06411ZM79.861 8.5606H74.3573C74.3285 8.56057 74.3008 8.57123 74.2794 8.59052C74.258 8.60981 74.2445 8.63635 74.2416 8.66499L74.241 8.67681V10.8132C74.241 10.842 74.2517 10.8698 74.271 10.8911C74.2903 10.9125 74.3168 10.9259 74.3454 10.9289L74.3573 10.9294H79.861C79.8898 10.9295 79.9176 10.9188 79.939 10.8995C79.9604 10.8802 79.9738 10.8537 79.9768 10.8251L79.9773 10.8132V8.67671C79.9773 8.64589 79.9651 8.61633 79.9433 8.59454C79.9215 8.57275 79.892 8.5605 79.8611 8.5605L79.861 8.5606ZM58.9802 7.28687H56.0936V9.82466H58.9801V7.28687H58.9802ZM41.5368 3.70239C41.9419 4.29946 42.1444 4.82505 42.1444 5.27896V6.13735H47.2694C47.7343 6.13735 48.1739 6.36783 48.1739 7.20933V9.1397H46.831V7.83697C46.8289 7.41851 46.5634 7.20933 46.0342 7.20933H35.9965C35.6459 7.19576 35.4705 7.34575 35.4705 7.65923V9.1397L33.9903 9.1272V6.13735H40.5089C40.6335 5.52866 40.6335 5.07915 40.5089 4.78872C40.3843 4.49839 40.2198 4.24419 40.0152 4.02603L41.5367 3.70239H41.5368ZM88.3093 3.78442C89.0858 4.22231 89.4741 4.53423 89.4741 4.72017C89.4741 4.99898 85.7009 8.56861 85.4873 8.76958C85.2736 8.97046 85.0745 9.2271 84.5972 8.76958C84.1199 8.31197 84.2952 8.09165 84.4832 7.88384C84.5691 7.78882 85.3911 7.13892 86.5569 5.89097C86.914 5.50874 87.4982 4.80659 88.3094 3.78452L88.3093 3.78442ZM79.861 5.51489H74.3573C74.3285 5.51487 74.3008 5.52553 74.2794 5.54482C74.258 5.5641 74.2445 5.59064 74.2416 5.61929L74.241 5.6311V7.42906C74.241 7.45785 74.2517 7.48563 74.2709 7.50701C74.2902 7.52839 74.3168 7.54185 74.3454 7.54478L74.3573 7.54536H79.861C79.8898 7.54539 79.9176 7.53471 79.939 7.51541C79.9604 7.4961 79.9739 7.46954 79.9768 7.44087L79.9773 7.42915V5.6311C79.9773 5.60028 79.9651 5.57072 79.9433 5.54893C79.9215 5.52714 79.892 5.51489 79.8611 5.51489H79.861ZM51.2612 4.02612L53.895 6.13735L52.979 7.20933L50.3642 5.01607L51.2612 4.02612ZM98.7307 4.72017C99.4238 4.72017 99.6109 5.16616 99.2921 6.05806L99.2796 6.09263H90.7659V4.72017H98.7308H98.7307Z" fill="#191113"/>
<path fill-rule="evenodd" clip-rule="evenodd" d="M0.241943 14.9788C0.241943 6.83922 6.84107 0.240479 14.9814 0.240479C23.1217 0.240479 29.7208 6.83922 29.7208 14.9788C29.7208 23.1187 23.1217 29.7178 14.9814 29.7178C6.84107 29.7178 0.241943 23.1187 0.241943 14.9788Z" fill="url(#paint0_radial_193_202)"/>
<path fill-rule="evenodd" clip-rule="evenodd" d="M15.828 16.0835C14.7051 17.13 13.3857 17.9689 11.9321 18.5399C11.4428 19.8673 11.1753 21.303 11.1753 22.8004C11.1753 25.3551 11.9524 27.7271 13.2833 29.6939C13.8605 29.7637 14.4453 29.8086 15.0417 29.8086C15.3851 29.8086 15.7213 29.781 16.059 29.7568C14.354 27.9347 13.3025 25.4936 13.3025 22.8004C13.3025 20.2277 14.2553 17.8776 15.828 16.0835ZM15.1027 13.78C14.8241 14.0394 14.5578 14.3115 14.3041 14.5955C14.585 14.3387 14.8521 14.0663 15.1027 13.78ZM23.4987 10.4778C21.9099 10.4778 20.3918 10.7783 18.9972 11.3259C18.4565 12.7934 17.6448 14.1289 16.6221 15.2732C18.4354 13.6162 20.8488 12.6053 23.4987 12.6053C25.8642 12.6053 28.0359 13.4178 29.7659 14.7697C29.7474 13.8292 29.6484 12.9081 29.4608 12.0186C27.6936 11.0385 25.6623 10.4778 23.4987 10.4778Z" fill="#FFFFFE" fill-opacity="0.54"/>
<path fill-rule="evenodd" clip-rule="evenodd" d="M16.6218 15.2733C16.3424 15.5281 16.0772 15.799 15.8278 16.0834C16.1044 15.8259 16.3696 15.555 16.6218 15.2733ZM14.3039 14.5956C12.491 16.2515 10.0787 17.2608 7.43038 17.2608C7.17058 17.2608 6.91269 17.2512 6.65788 17.232C6.41112 17.9063 6.20274 18.5997 6.03619 19.3089C6.49363 19.3611 6.95874 19.3876 7.43038 19.3876C9.01915 19.3876 10.5373 19.0871 11.9319 18.5399C12.4718 17.0735 13.2827 15.7392 14.3039 14.5956ZM0.0337708 14.0694C0.0237931 14.2916 0 14.5115 0 14.7371C0 15.5177 0.0782869 16.2779 0.195333 17.0251C1.2595 17.7999 2.4503 18.4108 3.73129 18.8172C3.89285 18.1222 4.08934 17.4411 4.31959 16.7753C2.66751 16.2437 1.2004 15.3009 0.0337708 14.0694ZM19.6872 5.78518C18.9753 5.94521 18.2811 6.14668 17.6037 6.38768C17.6183 6.61141 17.626 6.83706 17.626 7.06463C17.626 9.63659 16.6739 11.9863 15.1024 13.78C16.2253 12.7347 17.5442 11.8962 18.9968 11.3259C19.4857 9.99809 19.7532 8.56244 19.7532 7.06463C19.7532 6.63252 19.7309 6.20578 19.6872 5.78518ZM14.7717 0C15.8604 1.13094 16.692 2.51055 17.1694 4.04636C17.8383 3.82224 18.5221 3.6319 19.2198 3.47686C18.8729 2.34016 18.3659 1.27331 17.7258 0.302018C16.7718 0.10515 15.7836 0.00268631 14.7717 0Z" fill="#FFFFFE" fill-opacity="0.51"/>
<path fill-rule="evenodd" clip-rule="evenodd" d="M17.1692 4.04631C17.8381 3.82219 18.522 3.63185 19.2197 3.47681C19.4465 4.219 19.6046 4.99074 19.6871 5.78512C18.9752 5.94515 18.281 6.14662 17.6037 6.38762C17.5503 5.5775 17.4018 4.7931 17.1692 4.04631ZM15.1025 13.7799C16.2253 12.7345 17.5443 11.896 18.9969 11.3257C18.4561 12.7932 17.6445 14.1287 16.6218 15.2731C16.3424 15.5279 16.0772 15.7988 15.8278 16.0832C14.7049 17.1297 13.3855 17.9686 11.9318 18.5396C12.4718 17.0733 13.2827 15.739 14.3039 14.5954C14.5848 14.3386 14.8519 14.0662 15.1025 13.7799ZM4.3195 16.7752C4.08925 17.441 3.89276 18.1222 3.7312 18.8172C4.47186 19.0521 5.24206 19.2186 6.03606 19.3088C6.20261 18.5996 6.41099 17.9062 6.65775 17.2319C5.84802 17.1709 5.06476 17.0147 4.3195 16.7752ZM10.1082 8.13144C10.8818 7.44643 11.7088 6.81822 12.5804 6.25524C12.5949 6.41489 12.6022 6.57683 12.6022 6.73993C12.6022 8.08731 12.101 9.31726 11.2756 10.254C11.086 10.4317 10.9006 10.6132 10.7191 10.7993C9.79274 11.5834 8.59464 12.0561 7.28641 12.0561C7.08647 12.0561 6.88883 12.045 6.69465 12.0235C7.27528 11.1631 7.91999 10.3492 8.62112 9.58896C9.26699 9.28617 9.79274 8.77002 10.1082 8.13144Z" fill="#FFFFFE" fill-opacity="0.8"/>
<path fill-rule="evenodd" clip-rule="evenodd" d="M23.4076 25.9613C21.6704 25.9613 20.262 24.5544 20.262 22.8156C20.262 21.0768 21.6704 19.6703 23.4076 19.6703C25.1453 19.6703 26.5537 21.0768 26.5537 22.8156C26.5537 24.5544 25.1453 25.9613 23.4076 25.9613ZM23.4078 17.4998C20.4724 17.4998 18.0916 19.8783 18.0916 22.8156C18.0916 25.3023 19.802 27.3839 22.108 27.9649C24.8933 26.4137 27.118 23.9861 28.4197 21.0553C27.6932 18.9849 25.7261 17.4998 23.4078 17.4998Z" fill="#FFFFFE" fill-opacity="0.44"/>
<path fill-rule="evenodd" clip-rule="evenodd" d="M11.2754 10.2541C11.0858 10.4318 10.9004 10.6133 10.7189 10.7994C10.9173 10.6313 11.1034 10.449 11.2754 10.2541ZM8.70893 1.62109C5.90326 2.93931 3.5773 5.10486 2.07642 7.80077C2.53002 10.04 4.39048 11.7685 6.69457 12.0237C7.2752 11.1633 7.91992 10.3493 8.62105 9.58909C8.2158 9.77905 7.76334 9.88535 7.28633 9.88535C5.54829 9.88535 4.14027 8.47849 4.14027 6.74006C4.14027 5.00124 5.54829 3.59285 7.28633 3.59285C9.02361 3.59285 10.432 5.00124 10.432 6.74006C10.432 7.2401 10.3153 7.71212 10.1081 8.13157C10.8818 7.44656 11.7088 6.81834 12.5803 6.25537C12.3788 4.02918 10.8027 2.20287 8.70893 1.62109Z" fill="#FFFFFE" fill-opacity="0.62"/>
<path fill-rule="evenodd" clip-rule="evenodd" d="M12.5806 6.25525C13.9993 5.33845 15.5386 4.59281 17.1696 4.04633C17.4021 4.79313 17.5506 5.57753 17.604 6.38765C15.227 7.23307 13.0775 8.56164 11.2758 10.254C12.1013 9.31727 12.6025 8.08732 12.6025 6.73994C12.6025 6.57684 12.5952 6.4149 12.5806 6.25525ZM19.2197 3.47684C20.6285 3.16408 22.0922 2.99637 23.5938 2.99023C24.6012 3.72552 25.5207 4.57401 26.3116 5.53648C25.4523 5.41099 24.5739 5.34421 23.679 5.34421C22.3078 5.34421 20.9712 5.49657 19.6871 5.78515C19.6046 4.99077 19.4465 4.21903 19.2197 3.47684ZM3.20142 23.4661C3.20142 21.8673 3.38485 20.3104 3.73139 18.8172C4.47204 19.0521 5.24225 19.2186 6.03625 19.3088C5.7231 20.6439 5.55731 22.0354 5.55731 23.4661C5.55731 24.4861 5.64558 25.4839 5.80753 26.4575C4.83316 25.69 3.96356 24.8 3.21024 23.813C3.20934 23.7677 3.20779 23.7226 3.20624 23.6774C3.20383 23.6073 3.20142 23.537 3.20142 23.4661ZM10.7191 10.7992C9.79275 11.5832 8.59465 12.056 7.28642 12.056C7.08648 12.056 6.88884 12.0449 6.69466 12.0234C5.70801 13.4844 4.90557 15.0789 4.31957 16.7751C5.06483 17.0146 5.84809 17.1708 6.65782 17.2318C7.54852 14.8011 8.94464 12.6144 10.7191 10.7992ZM10.1085 8.13122C9.58848 8.59173 9.09228 9.07834 8.62141 9.58874C9.26727 9.28595 9.79302 8.76979 10.1085 8.13122Z" fill="#FFFFFE" fill-opacity="0.58"/>
<defs>
<radialGradient id="paint0_radial_193_202" cx="0" cy="0" r="1" gradientUnits="userSpaceOnUse" gradientTransform="translate(14.9814 14.9791) rotate(90) scale(23.6576 23.6588)">
<stop stop-color="#F3C700"/>
<stop offset="1" stop-color="#D6342E"/>
</radialGradient>
</defs>
</svg>
