<svg width="100" height="22" viewBox="0 0 100 22" fill="none" xmlns="http://www.w3.org/2000/svg">
<path d="M35.829 0.685791L36.1049 0.705495L36.3807 0.754751L36.627 0.823708L36.8733 0.912369L37.0999 1.03059L37.3264 1.1685L37.5333 1.32612L37.7106 1.50344L37.888 1.68077L38.0456 1.88765L38.1835 2.11422L38.3017 2.3408L38.3904 2.58708L38.4593 2.83336L38.479 3.1289L38.4987 3.40474V18.6151L38.479 18.8909L38.4298 19.1668L38.3608 19.413L38.2722 19.6593L38.1539 19.8859L38.016 20.1125L37.8584 20.3194L37.6811 20.4967L37.5038 20.674L37.2969 20.8316L37.0703 20.9695L36.8437 21.0878L36.5974 21.1764L36.3512 21.2454L36.0753 21.2946L35.7995 21.3143H2.69925L2.42341 21.2946L2.14758 21.2454L1.90129 21.1764L1.65501 21.0878L1.42843 20.9695L1.20185 20.8316L0.994977 20.674L0.817655 20.4967L0.640332 20.3194L0.482712 20.1125L0.344794 19.8859L0.226579 19.6593L0.137918 19.413L0.0689588 19.1668L0.0197025 18.8712L0 18.5954V3.38504L0.0197025 3.1092L0.0689588 2.83336L0.137918 2.58708L0.226579 2.3408L0.344794 2.11422L0.482712 1.88765L0.640332 1.68077L0.817655 1.50344L0.994977 1.32612L1.20185 1.1685L1.42843 1.03059L1.65501 0.912369L1.90129 0.823708L2.14758 0.754751L2.42341 0.705495L2.69925 0.685791H35.829ZM35.829 1.11925H2.7485C1.48754 1.11925 0.472861 2.11423 0.453158 3.36534V18.5954C0.453158 19.8563 1.45799 20.8612 2.7091 20.8809H35.829C37.09 20.8809 38.1047 19.8859 38.1244 18.6249V3.40474C38.1047 2.13393 37.0802 1.11925 35.829 1.11925ZM35.7798 1.89749C36.6171 1.89749 37.2969 2.57723 37.2969 3.41459V13.7584C37.2969 14.5958 36.6171 15.2755 35.7798 15.2755H2.7288C1.89144 15.2755 1.21171 14.5958 1.21171 13.7584V3.41459C1.21171 2.57723 1.89144 1.89749 2.7288 1.89749H35.7798ZM26.2733 5.94636H20.3232C20.2542 5.94636 20.2049 5.99562 20.2049 6.05473V6.57684C20.2049 6.6458 20.2542 6.68521 20.3232 6.68521H22.7761V9.3352H20.1163C20.0473 9.3352 19.9981 9.38445 19.9981 9.44356V9.98538C19.9981 10.0543 20.0473 10.0937 20.1163 10.0937H22.7761V11.1281C22.7761 11.1971 22.8254 11.2365 22.8943 11.2365H23.712C23.7809 11.2365 23.8302 11.1872 23.8302 11.1281V10.1134H26.49C26.559 10.1134 26.6083 10.0642 26.6083 10.0051V9.45341C26.6083 9.38445 26.559 9.34505 26.49 9.34505H23.8302V6.69506H26.2832C26.3521 6.69506 26.4014 6.6458 26.4014 6.5867V6.06458C26.3817 5.98577 26.3423 5.94636 26.2733 5.94636ZM8.61 5.65083H7.74309C7.67413 5.65083 7.62488 5.70008 7.62488 5.75919V6.39952H5.497C5.1128 6.39952 4.79756 6.71476 4.79756 7.09896V9.40416C4.79756 9.78836 5.1128 10.1036 5.497 10.1036H7.63473V11.0986C7.63473 11.1675 7.68398 11.2069 7.75294 11.2069H8.61985C8.68881 11.2069 8.73807 11.1577 8.73807 11.0986V10.1134H10.8758C11.26 10.1134 11.5752 9.79821 11.5752 9.41401V7.09896C11.5752 6.71476 11.26 6.39952 10.8758 6.39952H8.71837V5.76904C8.71837 5.70008 8.67896 5.65083 8.61 5.65083ZM18.5105 5.82815H13.2401C12.8559 5.82815 12.5407 6.14339 12.5407 6.52759V10.3794C12.5407 10.7636 12.8559 11.0789 13.2401 11.0789H18.5105C18.8947 11.0789 19.21 10.7636 19.21 10.3794V6.53744C19.21 6.15324 18.8947 5.82815 18.5105 5.82815ZM29.2484 7.16792H28.549C28.48 7.16792 28.4307 7.21718 28.4307 7.27628V7.72944H27.3175C27.2486 7.72944 27.1993 7.7787 27.1993 7.83781V8.36977C27.1993 8.43873 27.2486 8.47814 27.3175 8.47814H28.3618V8.79338C28.3618 9.17758 28.5391 9.54208 29.0021 9.76865C29.1794 9.85732 29.406 9.94598 29.6424 10.0642C29.2385 10.2218 28.8445 10.3105 28.4603 10.3105H27.4653C27.3964 10.3105 27.3274 10.3597 27.3274 10.4188V10.941C27.3274 11.0099 27.3767 11.0493 27.4653 11.0493H28.4406C28.8248 11.0493 29.3075 10.9607 29.7114 10.8227C29.869 10.7538 30.1843 10.6159 30.5291 10.4582C30.8936 10.6159 31.1891 10.7538 31.3664 10.8227C31.7703 10.9804 32.253 11.0493 32.6372 11.0493H33.6125C33.6815 11.0493 33.7307 11.0001 33.7307 10.941V10.4188C33.7307 10.3499 33.6815 10.3105 33.6125 10.3105H32.6077C32.2235 10.3105 31.859 10.2415 31.4255 10.0642C31.6521 9.95583 31.8787 9.83761 32.0659 9.76865C32.5387 9.54208 32.7062 9.17758 32.7062 8.79338V8.49784H33.7504C33.8194 8.49784 33.8686 8.44859 33.8686 8.38948V7.86736C33.9179 7.7984 33.8686 7.72944 33.7997 7.72944H32.7554V7.27628C32.7554 7.20733 32.7062 7.16792 32.6372 7.16792H31.9378C31.8688 7.16792 31.7999 7.21718 31.7999 7.27628V7.72944H29.3568V7.27628C29.3568 7.21718 29.3174 7.16792 29.2484 7.16792ZM18.2544 6.53744V10.3597H13.4667V6.53744H18.2544ZM17.7815 6.96105H13.9691V7.59153H15.3975V8.02498H14.176V8.61606H15.3975V9.24654H13.9691V9.87702H17.7815V8.9707H17.0525V9.24654H16.3531V8.61606H17.5746V8.05453H16.3531V7.60138H17.7815V6.96105ZM31.7408 8.49784L31.7605 8.72442C31.7605 8.9313 31.7112 9.10862 31.4452 9.24654C31.2187 9.3549 30.8542 9.52237 30.5389 9.67999C30.2237 9.52237 29.8592 9.36475 29.6326 9.24654C29.3568 9.10862 29.3174 8.951 29.3174 8.72442V8.49784H31.7408ZM7.61503 7.21718V9.39431H5.77284V7.21718H7.61503ZM10.5606 7.21718V9.39431H8.71837V7.21718H10.5606ZM25.9778 7.11866H25.1601C25.0715 7.11866 24.9828 7.16792 24.9532 7.22703L24.1356 8.82293C24.1159 8.89189 24.1356 8.9313 24.2045 8.9313H25.0222C25.1109 8.9313 25.1995 8.88204 25.2291 8.82293L26.0467 7.23688C26.0664 7.16792 26.0467 7.11866 25.9778 7.11866ZM21.3871 7.11866H20.5694C20.5005 7.11866 20.4512 7.16792 20.5005 7.22703L21.3181 8.81308C21.3378 8.86234 21.4068 8.92145 21.525 8.92145H22.3427C22.4116 8.92145 22.4609 8.87219 22.4116 8.81308L21.594 7.22703C21.5743 7.16792 21.4856 7.11866 21.3871 7.11866ZM30.9231 5.63113H30.1055C30.0365 5.63113 29.9872 5.68038 29.9872 5.73949V6.03502H27.8298C27.485 6.03502 27.1895 6.31086 27.1895 6.66551V7.06941C27.2387 7.13837 27.2781 7.17777 27.3471 7.17777H27.9185C27.9874 7.17777 28.0367 7.12851 28.0367 7.06941V6.70491H33.0313V7.06941C33.0313 7.13837 33.0805 7.17777 33.1495 7.17777H33.7209C33.7898 7.17777 33.8391 7.12851 33.8391 7.06941V6.66551C33.8391 6.33056 33.5632 6.03502 33.1988 6.03502H31.0413V5.73949C31.0413 5.67053 30.9921 5.63113 30.9231 5.63113Z" fill="#EC681B"/>
<path d="M11.4769 17.6491C11.5064 17.7181 11.5655 17.7378 11.6542 17.7082C12.2157 17.4521 12.5704 17.2452 12.728 17.0876C12.8265 17.0186 12.8856 16.9792 12.9053 16.9792C12.9349 16.9891 12.994 17.0285 13.0826 17.0974C13.4373 17.3437 13.8215 17.5407 14.2155 17.6786C14.3042 17.7082 14.3633 17.6885 14.3929 17.6195C14.4126 17.5407 14.3732 17.4816 14.2845 17.4422C13.8806 17.2944 13.5062 17.1073 13.1614 16.861C13.0235 16.7526 12.9349 16.7034 12.8955 16.7034C12.8462 16.7034 12.7575 16.7526 12.6295 16.861C12.2945 17.127 11.93 17.324 11.5261 17.4619C11.4769 17.5013 11.4473 17.5604 11.4769 17.6491ZM14.314 19.4322C14.3732 19.4223 14.4027 19.3829 14.4126 19.3139C14.4027 19.2548 14.3732 19.2154 14.314 19.2154H13.6343C13.654 19.2154 13.6639 19.2056 13.6836 19.1957C13.7821 19.0775 13.8904 18.8805 14.0284 18.5948C14.0481 18.5259 14.0284 18.4667 13.9692 18.4273C13.9101 18.4076 13.8609 18.4273 13.8215 18.4963C13.7427 18.6835 13.6343 18.8608 13.4865 19.048C13.4373 19.1268 13.4471 19.1859 13.5062 19.2154H13.0629V18.3387H14.1466C14.2057 18.3387 14.2451 18.2993 14.2549 18.2303C14.2451 18.1712 14.2155 18.1318 14.1466 18.122H13.0629V17.7476H13.7427C13.8018 17.7476 13.8412 17.7082 13.851 17.6392C13.8412 17.5801 13.8116 17.5407 13.7427 17.5309H12.1369C12.068 17.5407 12.0285 17.5703 12.0285 17.6392C12.0285 17.7082 12.068 17.7476 12.1369 17.7476H12.8068V18.122H11.7429C11.6739 18.1318 11.6345 18.1614 11.6345 18.2303C11.6345 18.2993 11.6739 18.3387 11.7429 18.3387H12.8068V19.2154H11.6246C11.5557 19.2154 11.5163 19.245 11.5163 19.3139C11.5163 19.3829 11.5557 19.4223 11.6246 19.4322H14.314ZM12.1763 19.0874C12.2157 19.1662 12.2748 19.1957 12.3438 19.1563C12.4029 19.1268 12.4127 19.0677 12.3832 18.979C12.3044 18.8115 12.2157 18.6539 12.1172 18.516C12.0581 18.4569 11.999 18.447 11.9399 18.4766C11.8808 18.5258 11.8808 18.585 11.9202 18.6441C12.0088 18.782 12.0975 18.9298 12.1763 19.0874ZM17.3187 19.5307C17.3384 19.5898 17.3778 19.6095 17.4467 19.5898C17.5059 19.5701 17.5354 19.5307 17.5256 19.4716C17.496 19.3041 17.4172 19.0775 17.3088 18.8017C17.2793 18.7426 17.23 18.7229 17.1611 18.7426C17.1019 18.7721 17.0822 18.8214 17.102 18.8903C17.102 18.91 17.1315 18.9987 17.2005 19.176L16.9443 19.2056V18.5456H17.2399C17.3482 18.5554 17.3975 18.4963 17.3975 18.3682V17.255C17.3975 17.1467 17.3384 17.0974 17.2202 17.0974H16.9443V16.8413C16.9345 16.7822 16.8951 16.7428 16.8261 16.7329C16.7572 16.7428 16.7178 16.7723 16.7178 16.8413V17.1073H16.4518C16.3138 17.1073 16.2547 17.1664 16.2646 17.2846V18.3978C16.2449 18.516 16.3237 18.5653 16.4813 18.5554H16.7178V19.2253C16.4518 19.245 16.3237 19.2548 16.3138 19.2647C16.235 19.2745 16.1956 19.314 16.1956 19.3829C16.2153 19.4519 16.2547 19.4913 16.3434 19.4913C16.3631 19.4814 16.6685 19.442 17.2793 19.3731C17.299 19.4519 17.3088 19.511 17.3187 19.5307ZM16.0282 16.9694C16.0971 16.9694 16.1365 16.9398 16.1365 16.8708C16.1365 16.8019 16.0971 16.7723 16.0282 16.7625H14.8362C14.7573 16.7723 14.7081 16.8019 14.7081 16.8708C14.7179 16.9299 14.7573 16.9694 14.8362 16.9694H16.0282ZM15.7917 17.7181C15.9296 17.7378 15.9888 17.6688 15.9789 17.5112V17.3043C15.9888 17.1664 15.9296 17.1073 15.8016 17.1171H15.0233C14.8854 17.1171 14.8263 17.1762 14.8362 17.3043V17.5112C14.8263 17.6491 14.8953 17.7181 15.0233 17.7181H15.7917ZM16.5503 18.3288C16.4912 18.3387 16.4715 18.319 16.4813 18.2697V17.393C16.4715 17.3437 16.501 17.3141 16.5601 17.3141H16.7178V18.3288H16.5503ZM17.1906 18.2697C17.1906 18.319 17.1709 18.3387 17.1217 18.3288H16.9443V17.3141H17.102C17.1611 17.3141 17.1808 17.3437 17.1808 17.4127V18.2697H17.1906ZM15.7129 17.521H15.1021C15.0529 17.521 15.0332 17.5013 15.0332 17.4521V17.3831C15.0233 17.3536 15.043 17.3339 15.0923 17.3339H15.7129C15.7523 17.3339 15.772 17.3536 15.772 17.3831V17.4619C15.772 17.5013 15.7523 17.521 15.7129 17.521ZM14.7968 19.5208C14.8559 19.511 14.8953 19.4814 14.9051 19.4223V18.1811C14.8953 18.1219 14.9248 18.1022 14.9839 18.1022H15.8804C15.9099 18.1022 15.9296 18.1318 15.9395 18.1811V19.2253C15.9395 19.2943 15.8705 19.3041 15.7228 19.2647C15.6637 19.245 15.6144 19.2548 15.5947 19.3139C15.575 19.3731 15.6046 19.4223 15.6637 19.442C15.9691 19.5405 16.1267 19.4716 16.1464 19.2548V18.1318C16.1464 17.984 16.0676 17.9151 15.9001 17.9151H14.915C14.7672 17.9249 14.6982 17.984 14.6982 18.1022V19.4322C14.6982 19.4716 14.7278 19.511 14.7968 19.5208ZM15.4075 19.3829C15.4666 19.3731 15.506 19.3435 15.5159 19.2844V18.8214H15.7917C15.9001 18.7623 15.9001 18.6933 15.7917 18.6145H15.6637C15.7031 18.5554 15.7425 18.4667 15.7917 18.3485C15.8016 18.3288 15.8114 18.2993 15.8311 18.2796C15.8508 18.2106 15.8311 18.1515 15.772 18.122C15.7031 18.1022 15.6538 18.1318 15.644 18.1909C15.6046 18.2894 15.5553 18.3978 15.4863 18.516C15.4666 18.5554 15.4568 18.585 15.4765 18.6145H15.0726C15.0036 18.6244 14.9642 18.6539 14.9642 18.7229C14.9642 18.782 15.0036 18.8214 15.0726 18.8214H15.3189V19.3041C15.309 19.3534 15.3386 19.3829 15.4075 19.3829ZM15.1415 18.5258C15.1711 18.5948 15.2204 18.6244 15.2893 18.6047C15.3484 18.5751 15.3681 18.5259 15.3484 18.447C15.3287 18.3978 15.2893 18.3387 15.2499 18.2697C15.2302 18.2402 15.2302 18.2106 15.2302 18.2008C15.2007 18.1417 15.1514 18.122 15.0824 18.1417C15.0233 18.1712 15.0036 18.2205 15.0332 18.2894C15.0529 18.3485 15.0824 18.4076 15.1021 18.4667C15.1218 18.4963 15.1317 18.516 15.1415 18.5258ZM19.2298 18.3682C19.3874 18.3682 19.4761 18.2894 19.4958 18.122C19.4761 17.9643 19.3874 17.8757 19.2298 17.856C19.0722 17.8757 18.9835 17.9643 18.9835 18.122C18.9934 18.2796 19.0722 18.3584 19.2298 18.3682ZM21.6631 19.5405C21.732 19.5307 21.7714 19.5011 21.7813 19.4322V18.1614C21.8995 18.2796 21.998 18.4076 22.067 18.5554C22.0965 18.6244 22.1458 18.6342 22.2246 18.5948C22.2837 18.5456 22.2936 18.4864 22.264 18.4175C22.1162 18.2205 21.9586 18.0333 21.7813 17.856V17.7969H22.1754C22.3034 17.7181 22.3034 17.6294 22.1754 17.5506H21.7813V17.058C21.801 17.058 21.8404 17.058 21.8897 17.0482C22.0079 17.0285 22.0965 17.0088 22.1556 16.9891C22.2148 16.9694 22.2443 16.9201 22.2246 16.8413C22.2049 16.7822 22.1556 16.7526 22.0965 16.7625C21.8503 16.8216 21.535 16.8708 21.141 16.8905C21.0819 16.9004 21.0523 16.9398 21.0622 17.0088C21.072 17.0777 21.1016 17.1171 21.1705 17.1171C21.3183 17.1171 21.4562 17.1073 21.5646 17.0974V17.5506H21.1114C20.9833 17.6294 20.9833 17.7181 21.1016 17.7969H21.535C21.3971 18.1515 21.2198 18.4175 20.9932 18.5948C20.9439 18.6539 20.9439 18.7229 20.9833 18.782C21.0326 18.8214 21.0917 18.8115 21.1607 18.7426C21.3281 18.585 21.4661 18.3978 21.5646 18.1811V19.4223C21.5547 19.4913 21.5941 19.5307 21.6631 19.5405ZM23.3772 19.5799C23.4462 19.5701 23.4856 19.5405 23.4954 19.4716V18.7623C23.5348 18.7524 23.6432 18.7426 23.8107 18.713C23.8698 18.7032 23.8895 18.6638 23.8895 18.5948C23.8698 18.516 23.8402 18.4766 23.7811 18.4766C23.7614 18.4864 23.7023 18.4963 23.6235 18.4963C23.5742 18.5061 23.5348 18.5062 23.4954 18.5062V16.9201C23.4856 16.861 23.4462 16.8216 23.3772 16.8117C23.2984 16.8216 23.259 16.8511 23.259 16.9201V18.5456C23.1211 18.5653 22.9437 18.6047 22.7073 18.6441C22.5103 18.6736 22.3231 18.7032 22.1458 18.7229C22.0768 18.7426 22.0374 18.782 22.0473 18.8706C22.067 18.9396 22.1162 18.979 22.1951 18.9692C22.2739 18.9593 22.3921 18.9495 22.5497 18.9199C22.8255 18.8706 23.0521 18.8312 23.259 18.8017V19.4814C23.259 19.5405 23.2984 19.5701 23.3772 19.5799ZM22.9536 17.6294C22.993 17.6885 23.0423 17.6983 23.1112 17.6491C23.1605 17.5998 23.1703 17.5407 23.1309 17.4718C22.993 17.2747 22.8354 17.0974 22.6482 16.93C22.5891 16.8905 22.5201 16.8905 22.4709 16.9398C22.4216 16.9989 22.4315 17.058 22.4906 17.1073C22.6482 17.2452 22.8058 17.4225 22.9536 17.6294ZM22.7763 18.2796C22.8255 18.3387 22.8846 18.3485 22.9437 18.2894C22.993 18.2402 22.993 18.1811 22.9536 18.1121C22.8255 17.9249 22.6778 17.7575 22.5103 17.6294C22.4512 17.59 22.3921 17.5998 22.3428 17.6491C22.2936 17.7082 22.3034 17.7673 22.3527 17.8067C22.5103 17.9446 22.6482 18.1022 22.7763 18.2796ZM26.904 19.5405C26.9926 19.5602 27.0517 19.5405 27.0813 19.4617C27.101 19.3928 27.0813 19.3337 27.0025 19.3041C26.7759 19.2351 26.5198 19.0972 26.2341 18.9002C26.4902 18.6835 26.6872 18.3978 26.835 18.0431C26.8941 17.8461 26.835 17.7378 26.6774 17.7181H26.106V17.2846H26.8843C26.9434 17.2846 26.9828 17.2452 26.9926 17.1664C26.9828 17.0974 26.9532 17.058 26.8843 17.0482H26.106V16.8708C26.0962 16.8117 26.0567 16.7723 25.9878 16.7625C25.909 16.7625 25.8696 16.792 25.8696 16.861V17.0482H25.18C25.1209 17.058 25.0815 17.0974 25.0716 17.1664C25.0815 17.2452 25.111 17.2846 25.18 17.2846H25.8696V17.7181H25.3179C25.2489 17.7279 25.2095 17.7673 25.1997 17.8363C25.2095 17.9151 25.2391 17.9545 25.308 17.9545H26.5198C26.569 17.9742 26.5789 18.0037 26.569 18.0628C26.4409 18.3288 26.2636 18.5456 26.0469 18.7229C25.9287 18.6539 25.7514 18.447 25.5051 18.1121C25.446 18.053 25.3869 18.0333 25.3278 18.0727C25.2686 18.122 25.2686 18.1811 25.3179 18.25C25.5248 18.5653 25.6923 18.782 25.8302 18.8805C25.6627 19.0086 25.3967 19.1268 25.0322 19.2548C24.9436 19.2745 24.9041 19.3337 24.9239 19.4125C24.9534 19.4814 25.0125 19.511 25.1012 19.4814C25.4164 19.3731 25.7317 19.2351 26.037 19.0677C26.303 19.2647 26.5986 19.4223 26.904 19.5405ZM24.3229 19.4913C24.6185 19.5504 24.7761 19.4913 24.8056 19.3041V18.4076C24.9534 18.3485 25.0519 18.2894 25.1307 18.2303C25.1701 18.2008 25.18 18.1515 25.1504 18.1022C25.111 18.0431 25.0716 18.0333 25.0224 18.053C24.9239 18.1121 24.8549 18.1614 24.8056 18.1712V17.5604H25.0421C25.1012 17.5604 25.1406 17.521 25.1504 17.4521C25.1406 17.393 25.111 17.3536 25.0421 17.3437H24.8056V16.8905C24.7958 16.8314 24.7564 16.8019 24.6874 16.792C24.6185 16.8019 24.5791 16.8314 24.5791 16.8905V17.3437H24.2934C24.2343 17.3536 24.1949 17.3831 24.185 17.4521C24.1949 17.521 24.2244 17.5604 24.2934 17.5604H24.5791V18.25C24.4214 18.319 24.2934 18.3682 24.2047 18.3781C24.1357 18.4076 24.1062 18.4569 24.1259 18.5357C24.1456 18.5948 24.2047 18.6145 24.2835 18.5948C24.382 18.5751 24.4805 18.5456 24.5791 18.4864V19.2253C24.5889 19.2943 24.5199 19.314 24.3722 19.2745C24.2934 19.2548 24.2441 19.2745 24.2146 19.3435C24.2047 19.4125 24.2441 19.4617 24.3229 19.4913Z" fill="#EC681B"/>
<path d="M92.0402 3.18787C91.8826 3.18787 91.7644 3.07951 91.7644 2.92189V1.83825C91.7644 1.68063 91.8728 1.57227 92.0402 1.57227H99.2317C99.3893 1.57227 99.5075 1.71018 99.5075 1.83825V2.91204C99.5075 3.06966 99.3696 3.17802 99.2317 3.17802H92.0402V3.18787ZM91.3703 6.38953V5.30589C91.3703 5.16798 91.4886 5.03006 91.6462 5.03006H99.7242C99.8818 5.03006 100 5.16798 100 5.30589V6.38953C100 6.54715 99.8818 6.66537 99.7242 6.66537H98.2958V11.2758C98.2958 11.8373 97.8426 12.2904 97.2713 12.2904H93.3702C93.2125 12.2904 93.0943 12.1821 93.0943 12.0146V11.0689C93.0943 10.9113 93.2125 10.793 93.3702 10.793H96.3452V6.65552H91.6462C91.4787 6.66537 91.3703 6.54715 91.3703 6.38953ZM86.297 7.93618C86.297 7.91648 86.297 7.88693 86.3462 7.84752L88.5135 5.12857C88.6711 4.92169 88.7204 4.88229 88.878 4.88229H90.5724C90.6611 4.88229 90.73 4.93155 90.73 5.02021C90.73 5.06946 90.7103 5.08917 90.6808 5.13842L88.9174 7.37466H89.735V12.0146C89.735 12.1525 89.5971 12.2904 89.4592 12.2904H88.0603C87.9027 12.2904 87.7648 12.1722 87.7648 12.0146V8.04455H86.494C86.3856 8.04455 86.297 7.99529 86.297 7.93618ZM86.494 4.52764C86.3561 4.52764 86.2871 4.50794 86.2871 4.43898L86.3068 4.37002L88.5036 1.66093C88.6613 1.45405 88.7105 1.41464 88.8681 1.41464H90.5625C90.6512 1.41464 90.7202 1.4639 90.7202 1.52301C90.7202 1.58212 90.7005 1.63137 90.6709 1.66093L88.4544 4.41928C88.3854 4.50794 88.3165 4.52764 88.1588 4.52764H86.494V4.54735V4.52764ZM83.4007 7.93618H84.6912C84.8488 7.93618 84.9375 7.95588 84.9375 8.05439C84.9375 8.10365 84.8882 8.17261 84.7996 8.26127L83.1248 10.2217L83.2332 10.4285C83.4401 10.7733 83.4598 10.793 83.5287 10.8817C83.6371 10.9999 83.6864 10.9999 84.0213 10.9999H84.7207C84.8587 10.9999 84.9966 11.1378 84.9966 11.2758V12.0245C84.9966 12.1624 84.8587 12.3003 84.7207 12.3003H83.6765C82.7702 12.3003 82.2973 12.0737 81.9328 11.4826L80.0611 8.25142C80.0118 8.18246 79.9921 8.13321 79.9921 8.0938C79.9921 8.02484 80.0414 7.97559 80.1498 7.97559H81.5289C81.7358 7.97559 81.7752 8.02484 81.9131 8.25142L82.3663 9.00012L83.0263 8.18246C83.1938 7.98544 83.2628 7.93618 83.4007 7.93618ZM79.1252 5.19753V6.16295H83.0756V5.19753H79.1252ZM83.1544 2.86278H79.204V3.8282H83.1544V2.86278ZM80.5143 10.9901C80.6719 10.9901 80.8098 11.1083 80.8098 11.2659V12.0146C80.8098 12.1525 80.6719 12.2904 80.5143 12.2904H78.5342C77.9628 12.2904 77.5096 11.8373 77.5096 11.2659V2.51799C77.5096 1.97617 77.9628 1.49346 78.5342 1.49346H83.8144C84.3858 1.49346 84.839 1.94661 84.839 2.51799V6.36983C84.839 6.9412 84.3858 7.39436 83.8144 7.39436H79.1646V10.9901H80.5143ZM74.8695 7.50273H76.4851C76.6427 7.50273 76.7806 7.62094 76.7806 7.77856V8.68488C76.7806 8.8425 76.6427 8.96071 76.4851 8.96071H74.8695V10.9999H76.1502C76.2881 10.9999 76.426 11.1181 76.426 11.2758V12.0245C76.426 12.1624 76.2881 12.3003 76.1502 12.3003H74.1503C73.6085 12.3003 73.1258 11.8471 73.1258 11.2758V8.96071H71.8254C71.6678 8.96071 71.5496 8.8425 71.5496 8.68488V7.77856C71.5496 7.62094 71.6678 7.50273 71.8254 7.50273H73.1258V6.32057H71.8254C71.6678 6.32057 71.5496 6.20236 71.5496 6.04474V5.13842C71.5496 4.9808 71.6678 4.86259 71.8254 4.86259H76.4752C76.6329 4.86259 76.7708 4.9808 76.7708 5.13842V6.04474C76.7708 6.20236 76.6329 6.32057 76.4752 6.32057H74.8596V7.50273H74.8695ZM76.7905 2.60665V3.51297C76.7905 3.65088 76.6526 3.7888 76.4949 3.7888H73.51L73.3031 4.1533C73.1948 4.37988 73.1455 4.39958 72.9189 4.39958H71.5398C71.3624 4.39958 71.3132 4.37988 71.3132 4.29121C71.3132 4.27151 71.3329 4.22225 71.3821 4.13359L72.7416 1.67078C72.85 1.4639 72.8992 1.4245 73.0569 1.4245H74.5542C74.7119 1.4245 74.7611 1.4442 74.7611 1.51316C74.7611 1.56241 74.7414 1.60182 74.7119 1.67078L74.3277 2.32096H76.5048C76.6526 2.31111 76.7905 2.44903 76.7905 2.60665ZM60.8314 7.24659C60.8314 7.96573 60.8807 8.03469 61.7082 8.42874L63.2844 9.14789L64.8606 8.42874C65.7177 8.02484 65.7374 7.98544 65.7374 7.24659V6.73433H60.8216V7.24659H60.8314ZM62.4864 1.01074H64.0331C64.1907 1.01074 64.3089 1.11911 64.3089 1.30628V1.8481H68.6139C69.2937 1.8481 69.865 2.40962 69.865 3.11891V3.88731C69.865 4.04493 69.7468 4.16315 69.5892 4.16315H68.5647C68.4071 4.16315 68.2888 4.05478 68.2888 3.88731V3.20758H58.211V3.88731C58.211 4.04493 58.0928 4.16315 57.9352 4.16315H56.9402C56.7826 4.16315 56.6447 4.05478 56.6447 3.88731V3.11891C56.6447 2.41948 57.2357 1.8481 57.9352 1.8481H62.2205V1.30628C62.2205 1.13881 62.3288 1.01074 62.4864 1.01074ZM56.4772 6.47819V5.52262C56.4772 5.365 56.5954 5.24678 56.7727 5.24678H58.871V4.34047C58.871 4.18285 58.9893 4.06463 59.1469 4.06463H60.4866C60.6443 4.06463 60.7822 4.18285 60.7822 4.34047V5.24678H65.7472V4.36017C65.7472 4.20255 65.8654 4.06463 66.0428 4.06463H67.3825C67.5401 4.06463 67.6584 4.18285 67.6584 4.36017V5.24678H69.6582C69.8158 5.24678 69.934 5.365 69.934 5.52262V6.47819C69.934 6.63581 69.8158 6.75403 69.6582 6.75403H67.6584V7.29585C67.6584 8.54696 67.2939 8.98041 65.698 9.67985L65.0379 9.97539L65.1561 10.0246C65.9738 10.3891 66.5944 10.5271 67.2939 10.5271H69.4119C69.5695 10.5271 69.6877 10.665 69.6877 10.8226V11.7782C69.6877 11.9358 69.5695 12.054 69.4119 12.054H67.2939C66.2004 12.0343 65.629 11.8964 64.3779 11.325L63.2647 10.8226L62.1515 11.325C60.8314 11.9161 60.398 12.0048 59.2355 12.054H57.1175C56.9599 12.054 56.8417 11.9358 56.8417 11.7782V10.8226C56.8417 10.665 56.9599 10.5271 57.1175 10.5271H59.2355C59.9153 10.5271 60.6738 10.3497 61.3733 10.0246L61.4915 9.97539L60.8314 9.67985C59.2158 8.93116 58.9203 8.56666 58.871 7.29585V6.75403H56.7727C56.6151 6.75403 56.4772 6.63581 56.4772 6.47819ZM52.5367 3.98582H54.0439C54.1818 3.98582 54.2212 4.03508 54.2212 4.12374C54.2212 4.14344 54.2015 4.2124 54.1523 4.33062L52.6155 7.36481C52.5071 7.57168 52.4382 7.61109 52.1229 7.61109H50.6157C50.5073 7.61109 50.4384 7.56183 50.4384 7.47317C50.4384 7.45347 50.4384 7.40421 50.5073 7.26629L52.0638 4.23211C52.1328 4.05478 52.2411 3.98582 52.5367 3.98582ZM46.9018 7.27615C46.9707 7.39436 46.9707 7.43377 46.9707 7.48302C46.9707 7.57168 46.9018 7.62094 46.7835 7.62094H45.2467C44.9216 7.62094 44.8625 7.57168 44.7443 7.37466L43.1681 4.34047C43.1484 4.27151 43.0992 4.18285 43.0992 4.13359C43.0992 4.04493 43.1681 3.99568 43.2863 3.99568H44.8231C45.1187 3.99568 45.2073 4.04493 45.3256 4.24196L46.9018 7.27615ZM42.3505 10.0345C42.1928 10.0345 42.0549 9.92614 42.0549 9.73896V8.76369C42.0549 8.60607 42.1633 8.46815 42.3505 8.46815H47.6307V3.09921H42.7642C42.6066 3.09921 42.4884 2.96129 42.4884 2.80367V1.91706C42.4884 1.75944 42.5968 1.64123 42.7642 1.64123H54.5857C54.7434 1.64123 54.8616 1.74959 54.8616 1.91706V2.85293C54.8616 3.01055 54.7532 3.14847 54.5857 3.14847H49.7389V8.4977H55.0586C55.2162 8.4977 55.3541 8.63562 55.3541 8.79324V9.76852C55.3541 9.92614 55.2458 10.0641 55.0586 10.0641H49.7389V12.1033C49.7389 12.2609 49.601 12.3791 49.4434 12.3791H47.9263C47.7687 12.3791 47.6505 12.2707 47.6505 12.1033V10.0542H42.3702V10.0345H42.3505ZM84.967 15.8369C85.2133 15.8369 85.4005 15.9748 85.4891 16.2014L87.3707 20.3882C87.4101 20.467 87.42 20.5261 87.42 20.5655C87.42 20.7921 87.2427 20.999 86.9865 20.999C86.7797 20.999 86.622 20.8906 86.5531 20.6837L86.1492 19.738H83.6765L83.2431 20.7133C83.1741 20.8906 83.0165 20.9891 82.8392 20.9891C82.6126 20.9891 82.4353 20.8118 82.4353 20.5852C82.4451 20.5261 82.4747 20.4571 82.5042 20.4079L84.3858 16.2211C84.4745 15.9945 84.6616 15.8566 84.9276 15.8566H84.967V15.8369ZM88.9371 15.8369C89.1637 15.8369 89.2819 15.9551 89.3902 16.1127L91.9319 19.403V16.2901C91.9319 16.0438 92.1387 15.8566 92.3653 15.8566C92.6116 15.8566 92.8185 16.0635 92.8185 16.2901V20.5359C92.8185 20.7822 92.6412 20.9891 92.385 20.9891H92.3358C92.1289 20.9891 91.991 20.8709 91.8826 20.7133L89.272 17.3343V20.5359C89.272 20.7822 89.0652 20.9694 88.8386 20.9694C88.5923 20.9694 88.3854 20.7625 88.3854 20.5359V16.2901C88.3854 16.0438 88.5923 15.8369 88.8386 15.8369H88.9371ZM94.5031 15.8369C94.7493 15.8369 94.9562 16.0339 94.9562 16.2802V18.4278L97.3698 16.0044C97.4584 15.896 97.5766 15.8467 97.7343 15.8467C97.9805 15.8467 98.148 16.0536 98.148 16.2506C98.148 16.3886 98.0791 16.4969 97.9904 16.5856L96.3945 18.1224L98.0988 20.2503C98.1677 20.3389 98.217 20.4276 98.217 20.5655C98.217 20.8118 98.0101 20.999 97.7638 20.999C97.5865 20.999 97.4683 20.9103 97.3796 20.7921L95.7443 18.7135L94.9267 19.5016V20.5458C94.9267 20.7921 94.7198 20.999 94.4932 20.999C94.2469 20.999 94.04 20.7921 94.04 20.5458V16.2901C94.0302 16.0339 94.2568 15.8369 94.5031 15.8369ZM60.4669 15.7482C61.4225 15.7482 62.2205 16.428 62.2008 17.3146V17.4328C62.2008 17.5018 62.1515 17.551 62.0825 17.551H61.2156C61.1467 17.551 61.0974 17.5018 61.0974 17.4328V16.8417C61.0974 16.7728 61.0482 16.7235 60.9792 16.7235H58.1519C58.0829 16.7235 58.0337 16.7728 58.0337 16.8417V19.8956C58.0337 19.9646 58.0829 20.0138 58.1519 20.0138H60.9792C61.0482 20.0138 61.0974 19.9646 61.0974 19.8956V18.9203H59.6197C59.5508 18.9203 59.5015 18.8711 59.5015 18.8021V18.0731H62.1909V19.4425C62.1909 20.3094 61.4127 20.9891 60.4571 20.9891H58.6839C57.7283 20.9891 56.95 20.3094 56.95 19.4425V17.3047C56.95 16.4378 57.7283 15.7581 58.6839 15.7581H60.4669V15.7482ZM79.8148 15.8369C80.4059 15.8369 80.8689 15.9945 81.1644 16.2901C81.391 16.5166 81.5092 16.7925 81.5092 17.1274V17.1471C81.5092 17.7579 81.1644 18.0731 80.7802 18.28C81.3713 18.4869 81.7851 18.8218 81.7851 19.5016V19.5213C81.7851 20.4276 81.0364 20.9004 79.8936 20.9004H77.9726C77.7264 20.9004 77.5195 20.6936 77.5195 20.4473V16.2802C77.5195 16.0339 77.7264 15.827 77.9726 15.827H79.8148V15.8369ZM66.9097 15.8369C66.9983 15.8369 67.0968 15.8862 67.1362 15.9748L69.5104 20.664C69.5794 20.8216 69.5104 20.9103 69.3725 20.9103H68.6238C68.5056 20.9103 68.4662 20.8906 68.4169 20.7724L66.5255 16.9895L64.6242 20.7724C64.5749 20.8906 64.5355 20.9103 64.4173 20.9103H63.6686C63.511 20.9103 63.442 20.8216 63.5307 20.664L65.9245 15.9748C65.9738 15.8862 66.0625 15.8369 66.1511 15.8369H66.9097ZM51.8668 15.7482C51.9357 15.7482 52.0244 15.7679 52.0934 15.8369C52.1426 15.9059 54.8025 18.9203 55.2162 19.3735V15.8861C55.2162 15.8172 55.2655 15.7679 55.3344 15.7679H56.1127C56.1619 15.7679 56.2309 15.8172 56.2506 15.8861V20.7133C56.2506 20.7822 56.2013 20.8315 56.1324 20.8315H55.4034C55.3344 20.8315 55.2458 20.8118 55.1768 20.7428C55.1079 20.6739 52.3101 17.5018 52.0146 17.1865V20.7231C52.0146 20.7921 51.9653 20.8413 51.8963 20.8413H51.1181C51.0491 20.8413 50.9999 20.7921 50.9999 20.7231V15.8763C50.9999 15.8073 51.0491 15.7581 51.1181 15.7581H51.8668V15.7482ZM70.9585 15.7482C71.0275 15.7482 71.1162 15.7679 71.1851 15.8369C71.2344 15.9059 73.8942 18.9203 74.308 19.3735V15.8861C74.308 15.8172 74.3572 15.7679 74.4262 15.7679H75.2044C75.2931 15.7679 75.3226 15.8172 75.3423 15.8861V20.7133C75.3423 20.7822 75.2931 20.8315 75.2241 20.8315H74.4951C74.4262 20.8315 74.3375 20.8118 74.2686 20.7428C74.1996 20.6739 71.4018 17.5018 71.1063 17.1865V20.7231C71.1063 20.7921 71.057 20.8413 70.9881 20.8413H70.2098C70.1409 20.8413 70.0916 20.7921 70.0916 20.7231V15.8763C70.0916 15.8073 70.1409 15.7581 70.2098 15.7581H70.9585V15.7482ZM46.4486 15.7482C47.3746 15.7482 48.143 16.4181 48.1824 17.2653V17.8367C48.1824 18.6938 47.4042 19.2553 46.4584 19.275H44.2813V20.7133C44.2813 20.7724 44.2419 20.8216 44.1828 20.8216H43.306C43.2469 20.8216 43.1977 20.7822 43.1878 20.7231V15.8664C43.1878 15.8073 43.2272 15.7581 43.2863 15.7581H46.4486V15.7482ZM49.8276 15.7482C49.9162 15.7482 49.9655 15.7975 49.9458 15.8664V20.7133C49.9458 20.7822 49.8965 20.8315 49.8276 20.8315H48.941C48.872 20.8315 48.8227 20.7822 48.8227 20.7133V15.8664C48.8227 15.7975 48.872 15.7482 48.941 15.7482H49.8276ZM79.8444 18.7332H78.3962V20.1419H79.9133C80.534 20.1419 80.8985 19.935 80.8985 19.472V19.4228C80.8985 18.9893 80.5537 18.7332 79.8444 18.7332ZM84.9276 16.8811L84.041 18.8908H85.8142L84.9276 16.8811ZM46.8623 16.6348H44.2321V18.4081H46.8525C46.9215 18.4081 46.9609 18.3687 46.9707 18.3096V16.7531C46.9707 16.6841 46.9313 16.6348 46.8623 16.6348ZM79.6868 16.6348H78.3962V18.0042H79.6178C80.1892 18.0042 80.5734 17.7677 80.5734 17.3047V17.285C80.5734 16.8713 80.2581 16.6348 79.6868 16.6348Z" fill="#EC681B"/>
<path d="M67.1856 19.3834H65.9345C65.8656 19.3834 65.8262 19.4228 65.8262 19.4918V20.7232C65.8262 20.7922 65.8656 20.8316 65.9345 20.8316H67.1659C67.2349 20.8316 67.2743 20.7922 67.2743 20.7232V19.4918C67.294 19.4228 67.2349 19.3834 67.1856 19.3834Z" fill="#005C3B"/>
</svg>
