<svg width="100" height="28" viewBox="0 0 100 28" fill="none" xmlns="http://www.w3.org/2000/svg">
<path d="M42.5302 2.64948L41.5163 3.70218C42.56 4.56352 43.3799 5.361 43.9613 6.11064L44.9751 5.0101C44.3043 4.22853 43.4843 3.44697 42.5302 2.64948ZM42.2759 5.48139L41.202 6.5293C42.2127 7.40255 43.0024 8.21224 43.571 8.94255L44.6606 7.8629C43.9974 7.06913 43.2078 6.27535 42.2759 5.48139ZM43.6073 9.5718C42.9253 11.401 42.1218 13.1826 41.202 14.9045L42.6955 15.55C43.5287 13.8595 44.2833 12.0461 44.9751 10.1096L43.6073 9.57171V9.5718ZM44.9752 3.8625V5.20235H48.7449V6.37465H45.5216V15.5501H46.9033V12.1424H48.7448V15.5044H50.4864V12.1424H52.3171V13.647C52.3171 14.0429 52.226 14.2408 51.8617 14.2408L51.0178 14.1951V15.4892H52.612C53.5836 15.4892 53.7702 14.9716 53.7702 13.9667V6.37465H50.4864V5.20215H54.7224V3.86231H52.7271L53.2129 3.52742C52.8789 3.10105 52.4387 2.59871 51.8617 2.02013L50.9204 2.61394C51.3455 3.04022 51.5579 3.46649 51.8617 3.86231H50.4864V2.2028H48.7449V3.86231H44.9752V3.8625ZM48.7483 7.66226V8.7255H46.8617V7.66226H48.7483ZM46.8617 9.96234H48.7483V10.9281H46.8617V9.96244V9.96234ZM52.2069 10.9281H50.4788V9.96244H52.2069V10.9281ZM52.2069 8.7255H50.4788V7.66226H52.2069V8.7255ZM57.6026 7.26713H61.3326C60.2931 10.454 58.4651 12.3662 56.3554 14.2177L57.1045 15.5531C58.7708 14.2177 60.4155 13.0339 61.5161 10.7879C62.0052 11.6833 62.4333 12.2691 63.0935 13.0077C62.0081 13.6602 60.6934 14.2672 59.1647 14.8135L59.929 16.1794C61.6871 15.4965 63.1699 14.7377 64.3776 13.903C65.6311 14.6922 67.1904 15.4359 69.0401 16.1035L69.7892 14.7377C68.1535 14.1914 66.7471 13.5995 65.5852 12.9621C66.7165 11.9605 67.6448 10.6589 68.0423 9.41451V8.20042H62.5821L62.7197 7.75833C62.774 7.59522 62.8263 7.43147 62.8766 7.26713H70.2451V5.88608H63.2435C63.519 4.77393 63.7434 3.64975 63.9162 2.51709L62.4333 2.335C62.2498 3.57936 62.0206 4.76318 61.7301 5.88608H59.4676L60.2626 3.07859L58.8102 2.83577L57.6026 7.26713ZM62.5044 9.5679H65.8593C65.8593 10.1075 65.0327 11.3404 64.1819 11.7389C63.5057 11.3552 63.0001 10.4735 62.5044 9.5679ZM65.4842 2.335L64.4697 3.29983C65.6427 4.17269 66.5306 4.99966 67.1648 5.79606L68.2428 4.75469C67.4976 3.94305 66.5781 3.13131 65.4843 2.335H65.4842ZM73.6527 2.04873C73.2534 3.7964 72.8695 5.48139 71.3004 7.52664L72.2862 9.0972C72.4091 8.89637 72.6919 8.45008 73.1347 7.75833H73.7449L73.766 8.94255H71.6312V10.2533H73.766L73.7489 13.6381C73.7489 13.8942 73.7449 14.1342 73.5169 14.375L74.0698 15.5501C75.2983 15.2488 75.9911 14.8269 76.9125 14.375V13.0694C76.3904 13.3255 75.6379 13.5025 75.1157 13.6833L75.1328 10.2534H77.2997V8.94255H75.1328L75.1117 7.75833H76.6014V6.48615H73.766L74.2172 5.48148H77.2252V4.20149H74.6781C74.7855 3.77912 74.8647 3.44189 74.9154 3.1898C74.9662 2.9377 75.0316 2.55741 75.1118 2.04873H73.6528H73.6527ZM78.6395 6.93537H82.6849V8.31329H78.6395V6.93517V6.93537ZM82.6849 5.60079H78.6395V4.22287H82.6849V5.60079ZM83.2893 9.78289C82.7087 10.52 82.3152 10.8304 81.6637 11.1006C81.5184 10.8304 81.2285 10.5814 81.0797 9.78289H84.1797V2.96426H77.2997V14.2264C77.2997 14.4106 77.1656 14.5488 76.9125 14.641L77.2252 15.8542C78.8182 15.4396 80.5918 15.0096 81.6637 14.5642L81.3362 13.2895C80.5918 13.6274 79.3988 13.9192 78.6395 14.1342V9.78289H79.6737C80.1203 12.6086 81.7972 13.9603 84.0453 15.6188L84.7896 14.375C83.8815 13.7606 82.8777 13.0136 82.3204 12.3377C83.0945 11.9076 83.5722 11.5029 84.1975 10.7043L83.2894 9.78289H83.2893ZM91.8248 3.27894V4.85213H99.371V3.27894H91.8248ZM92.3853 6.7401L92.4482 8.17211H96.2946L96.2807 14.0218C96.2807 14.4375 94.6633 14.4375 93.987 14.3759V15.8542H96.1189C97.1628 15.8542 97.6922 15.3615 97.6922 14.376L97.7063 8.17211H100V6.7399H92.3854L92.3853 6.7401ZM90.937 2.02023C90.2643 3.48475 88.4523 5.38766 87.0338 6.48605L87.4579 7.99842C89.3298 6.59755 91.0352 4.71534 91.8248 2.96416L90.937 2.02023ZM91.4357 5.48139L92.599 6.37455C92.1733 7.19068 91.4172 8.30216 90.7708 9.02759V15.8541H89.3043V10.4332C88.7366 10.9018 88.1375 11.3552 87.4753 11.7935L87.0338 10.3728C88.8312 9.16369 90.5843 7.11365 91.4357 5.48129V5.48139ZM45.7421 18.13C44.9806 18.13 44.3494 18.338 43.8486 18.7541C43.3175 19.1945 43.057 19.7941 43.057 20.5649C43.057 21.3235 43.3275 21.9109 43.8785 22.3147L43.9352 22.3501C44.1842 22.498 44.7078 22.7204 45.5217 23.0366L45.9582 23.2011C46.4891 23.4047 46.8161 23.5457 46.9443 23.6239C47.3952 23.9054 47.6257 24.2847 47.6257 24.7741C47.6257 25.1657 47.4653 25.4716 47.1447 25.6918C46.8241 25.9121 46.3933 26.0345 45.8523 26.0345C45.4515 26.0345 44.8302 25.8917 43.9883 25.6062L43.2769 26.5484C44.4128 26.9888 45.2712 27.2091 45.8523 27.2091C46.754 27.2091 47.4553 26.9888 47.9563 26.5484C48.4571 26.0956 48.7077 25.4839 48.7077 24.7007C48.7077 23.8932 48.3972 23.2691 47.786 22.8164C47.5054 22.6084 46.8743 22.3269 45.9124 21.9598L45.7357 21.8946C45.1969 21.693 44.8516 21.5378 44.6935 21.437L44.6701 21.4215C44.3094 21.189 44.139 20.8831 44.139 20.4915C44.139 20.0511 44.2894 19.7329 44.5999 19.5371C44.8504 19.3659 45.2111 19.2801 45.6819 19.2801C46.0426 19.2801 46.5302 19.4571 47.1447 19.811L47.9362 18.93C47.0278 18.3965 46.2965 18.13 45.742 18.13H45.7421ZM49.7276 18.4431V27.2091H50.5937V23.4829H52.5963C54.4474 23.4829 55.3783 22.8998 55.3783 21.1073C55.3783 19.327 54.4582 18.4431 52.6179 18.4431H49.7276ZM50.6694 19.3824L52.7566 19.3949C53.3062 19.3949 53.7106 19.52 53.9698 19.7705C54.2291 19.996 54.3638 20.3967 54.3638 20.9476C54.3638 21.4987 54.2291 21.8994 53.9801 22.1498C53.7209 22.4003 53.3165 22.5255 52.7566 22.5255L50.6694 22.513V19.3823V19.3824ZM56.634 18.4431V27.2091H59.708C61.0782 27.2091 62.1147 26.8162 62.8296 26.0305C63.5087 25.2693 63.8543 24.2011 63.8543 22.8261C63.8543 21.4388 63.5206 20.3706 62.8535 19.634C62.1386 18.8359 61.1019 18.4431 59.7318 18.4431H56.6341H56.634ZM57.5628 19.4642H59.6826C60.7693 19.4642 61.5662 19.7131 62.0733 20.2231C62.5562 20.7211 62.8339 21.7351 62.8339 22.826C62.8339 23.8934 62.5804 24.8983 62.0853 25.4083C61.5782 25.9182 60.7692 26.1791 59.6826 26.1791H57.5871L57.5629 19.4642H57.5628ZM67.3074 18.4431V27.2091H70.8548C71.6818 27.2091 72.3237 27.0372 72.7807 26.6935C73.3139 26.276 73.5859 25.6376 73.5859 24.7537C73.5859 24.1643 73.4554 23.6855 73.1942 23.3295C72.933 22.9734 72.5413 22.7401 72.0299 22.6296C72.4216 22.4701 72.7154 22.2244 72.933 21.9053C73.1508 21.5616 73.2595 21.1441 73.2595 20.653C73.2595 19.9777 73.0527 19.4498 72.6393 19.0569C72.204 18.6396 71.6164 18.4431 70.8548 18.4431H67.3074ZM68.349 19.3824H70.5574C71.0612 19.3824 71.439 19.4764 71.6699 19.6762C71.9008 19.8644 72.0163 20.1701 72.0163 20.5934C72.0163 21.0402 71.9008 21.3695 71.6699 21.5811C71.439 21.7811 71.0612 21.8869 70.5364 21.8869H68.349V19.3823V19.3824ZM68.349 23.1392H70.7143C71.26 23.1392 71.6692 23.2606 71.9315 23.517C72.1938 23.7734 72.3302 24.1917 72.3302 24.7585C72.3302 25.3117 72.1519 25.7166 71.8161 25.973C71.5432 26.1619 71.1655 26.2698 70.6827 26.2698H68.349V23.1392ZM77.1598 18.4431L73.5822 27.2091H74.8249L75.7798 24.9501H79.5606L80.4717 27.2091H81.7251L78.4881 18.4431H77.1598ZM76.1057 23.7653L77.6513 20.0084H77.8506L79.2061 23.7654H76.1057V23.7653ZM82.3758 18.4431V27.2091H83.5396V20.6162H83.5824L88.9704 27.2091H90.1023V18.4431H88.9384V24.9623H88.8957L83.5504 18.4431H82.3758ZM96.0802 18.4431H97.5741L94.1534 22.2122L98.0721 27.2092H96.4916L93.3524 23.0839L92.3456 24.1766V27.2092H91.1657V18.4431H92.3456V22.6787L96.0802 18.4431ZM19.5991 18.8771C22.6353 24.9409 30.181 23.9453 31.8664 18.781C31.8664 18.781 32.3805 17.5987 32.4254 15.4347V4.85623L27.4916 0.165161C27.5039 8.69826 27.5039 13.0033 27.4916 13.0804C27.473 13.1962 26.9533 19.2543 19.6008 18.877L19.5991 18.8771ZM13.97 11.7165C13.8424 3.83799 23.8273 3.31408 26.5444 8.97799C26.5444 8.97799 19.4645 9.07572 18.7193 15.0138C18.7193 15.0138 18.8107 22.3387 13.2248 23.0931C13.2248 23.0931 7.17305 24.1585 5.58775 18.9714C5.58775 18.9714 13.694 20.103 13.97 11.7165ZM0.420904 9.14563C0.420904 9.14563 0 10.9413 0 12.5653V23.142L4.9373 27.8348C4.9373 19.2671 4.93789 14.9619 4.93906 14.9195C4.94072 14.8558 5.47039 8.74396 12.8315 9.12112C9.79181 3.05565 2.10638 3.98298 0.420904 9.14553V9.14563Z" fill="#012882"/>
</svg>
