<svg width="100" height="19" viewBox="0 0 100 19" fill="none" xmlns="http://www.w3.org/2000/svg">
<path d="M24.0781 6.50301C23.9317 6.37607 23.7754 6.18078 23.6094 5.92691C23.463 5.69256 23.5411 5.58515 23.8243 5.6535C24.127 5.72185 24.2929 5.8195 24.3808 5.97573C24.4492 6.1222 24.4687 6.29796 24.4004 6.44442C24.3515 6.58112 24.2441 6.61042 24.0781 6.50301V6.50301ZM24.9667 7.63568C24.9472 7.65521 24.9472 7.67474 24.9667 7.72356V7.63568ZM24.9667 6.79594V6.92288C24.9667 6.96193 24.9472 7.01076 24.9276 7.06934C24.8202 7.47945 24.7128 7.87979 24.5859 8.27036C24.4589 8.68047 24.3711 9.02222 24.3515 9.29563C24.332 9.56903 24.2051 9.5495 23.9707 9.25657C23.7364 8.93434 23.668 8.76835 23.7559 8.71952C23.8633 8.68047 23.9707 8.57306 24.0781 8.41683C24.2051 8.27036 24.4004 7.90908 24.6933 7.30369C24.8398 6.99123 24.9472 6.84476 24.9667 6.79594V6.79594ZM24.9667 4.04238V4.76494C24.9472 4.76494 24.9276 4.74542 24.8983 4.72589C24.7323 4.55013 24.5761 4.38413 24.4492 4.16932C24.3222 3.9545 24.4101 3.89591 24.7519 3.97403C24.8398 4.00332 24.9081 4.02285 24.9667 4.04238ZM24.9667 4.76494V4.04238C25.162 4.13026 25.2889 4.23767 25.3084 4.38413C25.328 4.55989 25.3084 4.70636 25.2401 4.79424C25.2108 4.87235 25.1034 4.87235 24.9667 4.76494ZM24.9667 6.92288V6.79594C24.996 6.77641 24.996 6.81547 24.9667 6.92288ZM27.1539 5.38987V5.75115C27.027 5.79021 26.8512 5.85856 26.6169 5.94644V6.59089C26.8317 6.44442 26.9977 6.31748 27.1539 6.24913V6.44442C27.027 6.59089 26.8512 6.76665 26.6169 6.95217C26.6169 7.63568 26.6169 8.15319 26.6364 8.51447C26.6559 8.85623 26.6169 9.17845 26.4606 9.45185C26.3142 9.72526 26.2068 9.77408 26.1189 9.55927C26.031 9.34445 25.8845 9.14916 25.6502 8.96363C25.4354 8.76835 25.4159 8.70976 25.5819 8.74882C25.7771 8.78788 25.9236 8.81717 26.031 8.8367C26.1384 8.8367 26.2068 8.74882 26.2263 8.534C26.2458 8.31919 26.2654 7.87002 26.2947 7.23534C25.9138 7.53803 25.6795 7.77238 25.5916 7.89932C25.4842 8.04578 25.3573 8.04578 25.162 7.89932C25.0546 7.83097 25.0155 7.77238 24.9667 7.73332V7.64544C24.9862 7.64544 24.9862 7.64544 24.9862 7.62591C25.0741 7.58686 25.201 7.53803 25.328 7.49897C25.4744 7.45992 25.7967 7.2451 26.2947 6.835V6.04408C26.0798 6.11243 25.8845 6.15149 25.7186 6.15149C25.5526 6.15149 25.4451 6.11243 25.3377 6.04408C25.2499 5.97573 25.2499 5.93667 25.3573 5.91714C25.4647 5.89762 25.7869 5.79021 26.3142 5.59492C26.3142 5.05788 26.3142 4.60871 26.2947 4.24743C26.2947 3.88615 26.2556 3.63227 26.1677 3.49557C26.0798 3.36863 26.0994 3.30028 26.2361 3.31981C26.3825 3.31981 26.5388 3.35887 26.7048 3.44675C26.8805 3.5151 26.9196 3.62251 26.8317 3.76898C26.7438 3.91544 26.7048 4.11073 26.7048 4.36461C26.6852 4.61848 26.6657 5.00905 26.6364 5.49727C26.7829 5.45822 26.9391 5.4094 27.0465 5.38987H27.1539V5.38987ZM27.1539 8.9734C26.8805 9.13939 26.8805 9.08081 27.1344 8.75858L27.1539 8.73905V8.9734ZM32.0459 6.3956C31.7725 6.1222 31.5772 5.90738 31.4893 5.78044C31.4014 5.63398 31.5088 5.58516 31.792 5.63398C32.0654 5.67303 32.2802 5.76091 32.4365 5.86832C32.5829 5.99526 32.6317 6.17102 32.5634 6.42489C32.495 6.64947 32.3193 6.64947 32.0459 6.3956V6.3956ZM27.1539 5.75115V5.38987C27.2223 5.38987 27.2809 5.40939 27.3297 5.45822C27.398 5.52657 27.3687 5.60468 27.2906 5.67303C27.2418 5.69256 27.193 5.71209 27.1539 5.75115V5.75115ZM27.1539 6.43466V6.23937C27.1734 6.21984 27.1734 6.21984 27.193 6.21984C27.3394 6.13196 27.3687 6.18078 27.2125 6.34678C27.193 6.36631 27.1734 6.41513 27.1539 6.43466V6.43466ZM33.1981 8.33871C33.0711 8.37777 33.0711 8.44612 33.1981 8.55353V8.33871ZM33.1981 6.88382V7.13769C33.0711 7.45992 32.9247 7.8212 32.7294 8.2313C32.5146 8.68047 32.3681 9.08081 32.2998 9.43232C32.2314 9.77408 32.0849 9.70573 31.8506 9.25657C31.6162 8.78788 31.5772 8.534 31.7432 8.46565C31.9092 8.4266 32.1045 8.28989 32.2802 8.05555C32.4755 7.84073 32.7099 7.53803 33.0028 7.13769C33.0907 7.01076 33.159 6.92288 33.1981 6.88382V6.88382ZM33.1981 4.08144V4.85283C33.0907 4.85283 32.9833 4.78447 32.8173 4.61848C32.5634 4.34507 32.3876 4.13026 32.3291 3.97403C32.2412 3.82756 32.3486 3.77874 32.6025 3.82756C32.8368 3.87639 33.0321 3.9545 33.1981 4.08144V4.08144ZM28.0913 5.13599C28.1987 5.17505 28.2378 5.26293 28.2182 5.37034C28.1792 5.49727 28.1499 5.79997 28.1499 6.28819C28.6576 6.18078 29.0482 6.0929 29.3021 6.03432C29.5364 5.96596 29.7708 5.90738 30.0051 5.83903C30.2395 5.75115 30.4152 5.75115 30.5617 5.8195C30.6886 5.88785 30.757 5.94644 30.6886 6.03432C30.6496 6.10267 30.4738 6.18078 30.1809 6.24913C29.8587 6.33701 29.5853 6.3956 29.3216 6.44442C29.4486 6.55183 29.4876 6.65924 29.4486 6.76665C29.429 6.87405 29.4095 7.25486 29.4095 7.93837C29.4095 8.62188 29.39 9.19798 29.3216 9.71549C29.2826 10.2037 29.2142 10.4869 29.1263 10.5064C29.058 10.5259 29.0189 10.3599 28.9799 10.0377C28.9799 9.69596 28.9603 9.1394 28.9799 8.34848C28.9799 7.57709 28.9603 6.94241 28.892 6.46395C28.5307 6.50301 28.2964 6.5323 28.1889 6.50301C28.1889 7.25487 28.1011 7.78214 27.9351 8.14343C27.7593 8.48518 27.5054 8.73906 27.1832 8.95387L27.1442 8.9734V8.73905C27.398 8.41683 27.5933 8.07508 27.6812 7.73332C27.7691 7.37204 27.8081 7.03029 27.8081 6.70806C27.8081 6.38584 27.7886 6.0929 27.7886 5.79021C27.7691 5.5168 27.7007 5.30199 27.5543 5.17505C27.4273 5.04811 27.5543 4.99929 27.9351 5.06764C28.2573 4.72589 28.4721 4.49154 28.599 4.34508C28.7065 4.21814 28.7455 4.07167 28.726 3.93497C28.6869 3.80803 28.8529 3.82756 29.2435 3.97403C29.6048 4.1205 29.6731 4.24743 29.39 4.33531C29.1166 4.45248 28.6674 4.70636 28.0913 5.13599V5.13599ZM48.8211 5.55586C49.2507 5.46798 49.5046 5.44845 49.612 5.5168C49.6999 5.55586 49.7194 5.64374 49.6316 5.73162C49.5632 5.83903 49.2898 5.94644 48.8211 6.07338V6.71782C49.2312 6.78617 49.5046 6.86429 49.6316 6.9717C49.778 7.07911 49.8268 7.2451 49.8073 7.47945C49.7683 7.69426 49.6609 7.71379 49.446 7.5185C49.2507 7.32322 49.0359 7.13769 48.8309 6.96193V8.73905C48.8504 9.20775 48.8114 9.61785 48.743 9.97913C48.6551 10.3209 48.5672 10.3404 48.4403 10.0475C48.2938 9.72526 48.2645 9.45186 48.3524 9.14916C48.4403 8.84646 48.4989 8.10437 48.4989 6.88382C47.9228 7.80167 47.4053 8.41683 46.9171 8.73905C46.4484 9.06128 46.38 9.04175 46.7218 8.6707C47.0831 8.30942 47.4053 7.87979 47.708 7.39157C48.0107 6.90335 48.1962 6.47371 48.2841 6.13196C47.8544 6.21984 47.5615 6.2589 47.3857 6.27843C47.2198 6.27843 47.044 6.2589 46.8682 6.17102C46.7022 6.10267 46.7608 6.04408 47.0831 6.00502C47.3858 5.96597 47.8544 5.85856 48.4891 5.6828C48.4891 5.21411 48.4696 4.78447 48.4696 4.42319C48.4501 4.06191 48.4012 3.77874 48.3036 3.59322C48.2157 3.41746 48.2353 3.35887 48.411 3.39793C48.5575 3.43698 48.7332 3.48581 48.8797 3.52487C49.0457 3.59322 49.0945 3.69086 49.0066 3.82756C48.9285 3.97403 48.8699 4.5306 48.8211 5.55586V5.55586ZM42.3864 4.68683C43.2847 4.52083 43.7925 4.38413 43.9292 4.30602C44.0561 4.21814 44.2318 4.21814 44.4174 4.28649C44.6127 4.37437 44.7982 4.48178 44.9935 4.64777C45.1888 4.79424 45.1399 4.90165 44.847 4.95047C44.5443 4.98953 44.2904 5.12623 44.0366 5.31175C43.7827 5.52657 43.6948 5.50704 43.8217 5.27269C43.9292 5.03835 43.9975 4.89188 43.9975 4.82353C43.9975 4.75518 43.9584 4.71612 43.8901 4.71612C43.8022 4.69659 43.2945 4.78447 42.3473 4.95047C42.2594 5.20434 42.1325 5.5461 41.9665 5.97573C42.2887 6.33701 42.6695 6.74712 43.1187 7.16699C43.3921 6.86429 43.5874 6.61042 43.6753 6.41513C43.7632 6.20031 43.7827 6.03432 43.7632 5.90738C43.7241 5.76091 43.8706 5.78044 44.2123 5.94644C44.5541 6.1222 44.642 6.24913 44.4857 6.32725C44.3588 6.41513 44.144 6.56159 43.8901 6.77641C43.6167 6.99123 43.4019 7.18652 43.2456 7.33298C43.5874 7.65521 43.9292 7.92861 44.2709 8.16296C44.5931 8.3973 44.8861 8.57306 45.1497 8.6707C45.4036 8.77811 45.7258 8.88552 46.0871 8.9734C46.4484 9.06128 46.4093 9.11987 45.9406 9.18822C45.4915 9.22728 45.1106 9.25657 44.7884 9.22727C44.4662 9.20775 44.1928 9.05152 43.9584 8.75858C43.7046 8.45589 43.3433 8.00672 42.8648 7.4111C42.3961 6.81547 42.0739 6.38583 41.8982 6.15149C41.8103 6.32725 41.6833 6.56159 41.5173 6.81547C41.8396 7.04981 41.9665 7.2451 41.9275 7.39157C41.8884 7.53803 41.8591 7.77238 41.8591 8.0946C41.8396 8.41683 41.8396 8.69023 41.82 8.92458C41.82 9.15892 41.8884 9.22727 42.0544 9.11987C42.2009 9.01246 42.4645 8.86599 42.777 8.6707C43.1187 8.47541 43.1871 8.47541 42.9918 8.6707L42.2887 9.37374C42.0349 9.62762 41.8591 9.88149 41.7517 10.0963C41.6638 10.3111 41.5369 10.2916 41.3709 10.0768C41.2244 9.84243 41.1756 9.66667 41.283 9.52021C41.3709 9.39327 41.4295 9.05152 41.4783 8.534C41.4978 8.02625 41.4978 7.65521 41.4783 7.44039C41.4588 7.22557 41.4392 7.05958 41.3904 6.95217C41.1756 7.25487 40.8534 7.59662 40.453 7.93837C40.0429 8.29966 39.6426 8.55353 39.2325 8.74882C38.8224 8.94411 38.8712 8.8367 39.3789 8.44612C39.8672 8.03602 40.2968 7.65521 40.619 7.27439C40.9412 6.89358 41.1756 6.55183 41.3416 6.21008C41.5173 5.88785 41.6833 5.48751 41.8591 4.97C41.3709 5.00905 40.9998 5.05788 40.7655 5.09694C40.7264 5.50704 40.6386 5.8195 40.4921 6.08314C40.3456 6.31748 40.2187 6.33701 40.1308 6.10267C40.0429 5.88785 40.0625 5.67303 40.1699 5.50704C40.2968 5.33128 40.3847 5.12623 40.4237 4.84306C40.4921 4.58919 40.5507 4.48178 40.619 4.56966C40.6874 4.63801 40.746 4.73565 40.8143 4.87235C41.0877 4.85282 41.4588 4.804 41.9275 4.74542C42.1423 4.06191 42.1618 3.61274 42.0544 3.39793C41.9275 3.20264 42.0544 3.16358 42.3961 3.29052C42.7574 3.41746 42.8844 3.56392 42.777 3.72015C42.6891 3.86662 42.611 4.02285 42.5621 4.18884C42.4938 4.3646 42.4547 4.5306 42.3864 4.68683V4.68683ZM33.1981 4.85283V4.08144L33.2371 4.1205C33.4031 4.24743 33.452 4.44272 33.3445 4.67706C33.3055 4.76494 33.2664 4.8333 33.1981 4.85283ZM33.1981 7.13769V6.88382C33.3055 6.73735 33.325 6.79594 33.2371 7.03029C33.2176 7.07911 33.2176 7.09864 33.1981 7.13769ZM33.1981 8.55353V8.33871H33.4324C33.7937 8.33871 34.3893 8.25083 35.2291 8.10437C35.2681 7.69426 35.317 7.29392 35.317 6.86429C35.3365 6.43466 35.2974 6.03432 35.2291 5.62421H34.5651C34.4382 5.62421 34.3112 5.58515 34.2038 5.49727C34.0964 5.40939 34.1843 5.35081 34.4382 5.30199C34.7116 5.26293 35.0143 5.17505 35.356 5.08717C35.6782 4.97976 36.0005 4.89188 36.2934 4.81377C36.5961 4.72589 36.8695 4.72589 37.0843 4.8333C37.3187 4.92117 37.2991 5.02858 37.0648 5.13599C36.8109 5.2434 36.3422 5.38987 35.6294 5.56563C35.9516 5.76091 36.0591 5.94644 35.9516 6.1222C35.8638 6.31749 35.7759 6.95217 35.6978 8.04578C36.3617 7.97743 36.8988 7.91885 37.3187 7.87002C37.7288 7.80167 38.0217 7.88955 38.217 8.08484C38.4123 8.29966 38.3634 8.38754 38.09 8.38754C37.8166 8.36801 37.4944 8.36801 37.0843 8.38754C36.7035 8.38754 36.1469 8.4266 35.4341 8.51447C34.7506 8.58283 34.2624 8.66094 33.9792 8.72929C33.7254 8.79764 33.4617 8.72929 33.2274 8.58282C33.2176 8.55353 33.2176 8.55353 33.1981 8.55353V8.55353ZM50.6178 6.95217V7.67474C50.5104 7.5478 50.4225 7.42086 50.3639 7.29392C50.2955 7.16699 50.237 7.04005 50.1881 6.93264C50.1198 6.8057 50.2272 6.8057 50.5104 6.89358C50.5494 6.90335 50.5982 6.92288 50.6178 6.95217V6.95217ZM50.6178 5.79021V6.17102C50.403 6.21008 50.1881 6.17102 50.0026 6.06361C49.7878 5.93667 49.8561 5.84879 50.1979 5.82927C50.2955 5.83903 50.442 5.8195 50.6178 5.79021ZM50.6178 6.18078V5.79997C50.94 5.76091 51.3403 5.69256 51.8383 5.58516C51.8383 5.20434 51.8383 4.81377 51.7993 4.41343C51.7797 4.03262 51.6918 3.71039 51.5844 3.49557C51.4575 3.28075 51.4966 3.22217 51.7114 3.28076C51.9067 3.34911 52.1215 3.42722 52.307 3.53463C52.5023 3.64204 52.5218 3.76898 52.4144 3.91544C52.2875 4.06191 52.2679 4.57942 52.307 5.45822C52.6488 5.37034 52.9222 5.31175 53.1663 5.26293C53.4006 5.22387 53.6154 5.26293 53.7814 5.40939C53.9474 5.55586 53.8888 5.64374 53.5471 5.6828C53.2249 5.72186 52.8245 5.79021 52.307 5.87809C52.307 6.669 52.307 7.49898 52.3461 8.35824C52.3656 9.20775 52.3461 9.72526 52.2387 9.92054C52.1312 10.0865 52.0043 10.2232 51.8578 10.3502C51.7309 10.4576 51.6235 10.4381 51.5844 10.2428C51.5161 10.067 51.3696 9.83267 51.1157 9.57879C50.8619 9.32492 50.8423 9.23704 51.0962 9.32492C51.3501 9.39327 51.5259 9.43232 51.6528 9.43232C51.7993 9.43232 51.8871 9.15892 51.8676 8.60235C51.8676 8.06531 51.8481 7.16699 51.8481 5.9562C51.3599 6.04408 50.9888 6.10267 50.7349 6.17102C50.6763 6.18078 50.6568 6.18078 50.6178 6.18078V6.18078ZM50.6178 7.67474V6.95217C50.8326 7.04005 50.9595 7.14746 51.0279 7.29392C51.1157 7.44039 51.0962 7.59662 50.9888 7.72356C50.9009 7.8505 50.7935 7.85049 50.6666 7.70403L50.6178 7.67474V7.67474ZM56.6912 5.32152C56.6033 5.32152 56.6033 5.36057 56.6912 5.46798V5.32152ZM56.6912 3.7885V4.06191C56.6229 4.14979 56.4959 4.36461 56.3299 4.70636L55.7929 5.75115C56.1151 5.96596 56.2616 6.16125 56.2225 6.30772C56.1835 6.48348 56.1347 6.92288 56.1151 7.65521C56.0956 8.37777 56.0956 8.91481 56.0761 9.25657C56.0761 9.57879 56.0077 9.8522 55.9296 10.0475C55.8417 10.2623 55.7636 10.2135 55.6562 9.94007C55.5488 9.66667 55.5293 9.45186 55.5878 9.29563C55.6562 9.14916 55.6953 8.80741 55.7343 8.30942C55.7734 7.79191 55.8027 7.30369 55.8027 6.835C55.8027 6.34678 55.7636 6.04408 55.6562 5.93667C55.4414 6.23937 55.2266 6.51277 55.0117 6.74712C54.7774 7.00099 54.5626 7.19628 54.3282 7.34275C54.0939 7.48921 54.1134 7.4111 54.4161 7.06934C54.6895 6.74712 55.0117 6.27843 55.3535 5.66327C55.6953 5.04811 55.9101 4.61848 55.9979 4.31578C56.0858 4.04238 56.1249 3.82756 56.1054 3.6518C56.0858 3.48581 56.1737 3.43699 56.3397 3.52487C56.4959 3.63227 56.6229 3.70062 56.6912 3.7885V3.7885ZM56.6912 4.06191V3.7885C56.7107 3.7885 56.7107 3.7885 56.7107 3.80803C56.7986 3.87638 56.7986 3.9545 56.7107 4.04238L56.6912 4.06191V4.06191ZM58.8199 8.10437V8.35824C58.605 8.3973 58.3316 8.44612 57.9899 8.48518C58.0094 8.86599 58.0289 9.20775 58.0778 9.49091C58.3805 9.47139 58.6148 9.45186 58.8296 9.42256V9.69596C58.5953 9.69596 58.3414 9.7155 58.0778 9.73502C58.0387 9.88149 57.9899 9.96937 57.9313 9.96937C57.8922 9.96937 57.8239 9.8229 57.7555 9.50068C57.6872 9.19798 57.6481 8.96364 57.6091 8.77811C57.57 8.58282 57.5017 8.43636 57.4138 8.32895C57.3259 8.22154 57.3259 8.16296 57.4333 8.16296C57.5603 8.16296 57.6872 8.18248 57.8141 8.2313C57.9215 8.27036 58.1754 8.25083 58.605 8.14343C58.6734 8.1239 58.7613 8.1239 58.8199 8.10437V8.10437ZM58.8199 7.07911V7.50874C58.7808 7.52827 58.7515 7.52827 58.732 7.52827C58.3023 7.56733 58.0094 7.5478 57.8141 7.44039C57.5993 7.35251 57.6188 7.29392 57.8825 7.26463C58.0973 7.2451 58.4195 7.18652 58.8199 7.07911V7.07911ZM58.8199 6.07338V6.50301C58.4976 6.54207 58.2047 6.52254 57.9411 6.43466C57.6677 6.32725 57.6677 6.23937 57.9215 6.21984C58.1364 6.18078 58.4391 6.13196 58.8199 6.07338ZM58.8199 5.1067V5.46798C58.6734 5.48751 58.5172 5.50704 58.3707 5.53633C58.0973 5.60468 57.902 5.62421 57.7946 5.64374C57.6872 5.64374 57.5407 5.66327 57.3454 5.71209C57.1501 5.73162 56.9646 5.67303 56.7693 5.5168C56.7303 5.49727 56.701 5.47775 56.6815 5.47775V5.33128H56.7693C56.9842 5.35081 57.5407 5.31175 58.4781 5.18481L58.8199 5.1067ZM58.8199 3.63228V4.27672C58.6929 4.18884 58.566 4.11073 58.439 4.00332C58.2047 3.7885 58.1364 3.66157 58.2633 3.64204C58.3707 3.60298 58.5367 3.60298 58.732 3.62251C58.7613 3.61275 58.7808 3.63228 58.8199 3.63228V3.63228ZM65.5573 4.23767C65.86 4.38413 65.9674 4.54036 65.8991 4.6673C65.8112 4.81377 65.7721 5.11646 65.7721 5.56563C66.0065 5.52657 66.1822 5.49727 66.2603 5.49727C66.3677 5.49727 66.4751 5.53633 66.563 5.62421C66.6704 5.71209 66.5826 5.77068 66.3482 5.83903C66.0943 5.90738 65.899 5.96597 65.7721 6.01479L65.7526 6.95217C66.0943 6.86429 66.3287 6.80571 66.4751 6.80571C66.6021 6.78618 66.7095 6.82523 66.7974 6.93264C66.8657 7.02052 66.8169 7.09864 66.6216 7.16699C66.4068 7.23534 66.1334 7.31345 65.7428 7.42086C65.7428 7.9579 65.7038 8.48518 65.6354 8.98316C65.5671 9.47138 65.5085 9.73502 65.4401 9.73502C65.3718 9.75455 65.3327 9.60809 65.3132 9.32492C65.2937 9.05152 65.2937 8.44612 65.3132 7.48921C65.0593 7.52827 64.8445 7.55756 64.698 7.55756C64.5711 7.55756 64.4442 7.53803 64.2684 7.46968C64.1219 7.40133 64.1219 7.36227 64.2684 7.32322C64.4442 7.30369 64.8054 7.19628 65.362 7.04981V6.0929C65.0593 6.16125 64.8054 6.16125 64.6101 6.07338C64.4149 6.00502 64.3953 5.94644 64.5418 5.92691C64.6883 5.88785 64.9714 5.8195 65.3522 5.73162C65.3522 5.22387 65.3132 4.74541 65.2448 4.32555C64.8152 4.3646 64.4344 4.41343 64.0926 4.45248C64.0731 5.96597 64.0243 6.9717 63.9852 7.42086C63.9169 7.87002 63.8095 8.33872 63.6825 8.80741C63.5361 9.2761 63.2724 9.63738 62.8916 9.92054C62.5108 10.1744 62.462 10.1354 62.7451 9.79361C63.0478 9.43233 63.2627 8.89529 63.4091 8.21178C63.5556 7.50874 63.6435 6.93264 63.6435 6.46395V5.1067C63.6435 4.69659 63.5751 4.40366 63.4482 4.2572C63.3408 4.11073 63.4091 4.06191 63.663 4.13026C63.9169 4.19861 64.2586 4.19861 64.6883 4.13026C65.1374 4.06191 65.5866 4.00332 66.0943 3.91544C66.6119 3.82756 66.9048 3.76898 67.0317 3.70062C67.1391 3.63227 67.3051 3.66157 67.5199 3.76898C67.7348 3.87638 67.93 3.98379 68.0765 4.0912C68.223 4.21814 68.2523 4.32555 68.1644 4.45248C68.0765 4.57942 68.0374 4.75518 68.0179 4.9407C67.9984 5.13599 67.9789 5.53633 67.9789 6.16125C67.9789 6.8057 67.9984 7.40133 68.0472 7.97743C68.0667 8.55353 68.1156 8.96364 68.1351 9.19798C68.1742 9.43233 68.096 9.73503 67.9008 10.0475C67.7055 10.3892 67.559 10.4088 67.4711 10.1158C67.3637 9.84243 67.1489 9.60809 66.8267 9.4128C66.5044 9.23704 66.524 9.17845 66.9145 9.26633C67.2758 9.35421 67.4906 9.28586 67.5297 9.03199C67.5492 8.77811 67.5688 8.49494 67.5688 8.15319C67.5688 7.77238 67.5492 7.08887 67.5297 6.06361C67.4906 5.03835 67.4028 4.46225 67.2758 4.31578C67.1489 4.16932 66.9731 4.10097 66.7388 4.10097C66.4947 4.11073 66.1139 4.14979 65.5573 4.23767V4.23767ZM58.8199 4.27672V3.63228C58.9663 3.6518 59.1226 3.72015 59.269 3.80803C59.4155 3.91544 59.5034 4.08144 59.5034 4.29625C59.5034 4.51107 59.3764 4.55013 59.1421 4.44272C59.0347 4.40366 58.9273 4.34507 58.8199 4.27672ZM58.8199 5.47775V5.11646C59.5424 4.98952 60.0209 4.90164 60.2552 4.86259C60.5286 4.82353 60.7727 4.82353 60.9583 4.88212C61.1535 4.95047 61.261 5.02858 61.3 5.13599C61.3195 5.2434 61.2121 5.30199 60.9583 5.30199C60.7044 5.30199 60.4212 5.30199 60.1478 5.32152C59.8744 5.34104 59.5717 5.36057 59.269 5.40939C59.103 5.42892 58.9761 5.44845 58.8199 5.47775V5.47775ZM58.8199 6.50301V6.07338L58.9859 6.03432C59.435 5.92691 59.7084 5.92691 59.8158 6.01479C59.9232 6.10267 59.8842 6.18078 59.7084 6.24913C59.5424 6.33701 59.2788 6.3956 58.9175 6.48348C58.8882 6.47371 58.8492 6.47371 58.8199 6.50301ZM58.8199 7.49897V7.06934L58.9468 7.03029C59.435 6.90335 59.7572 6.90335 59.9037 7.01076C60.0502 7.11816 60.0111 7.20604 59.7377 7.31345C59.4838 7.39157 59.1909 7.45992 58.8199 7.49897V7.49897ZM58.8199 9.70573V9.43232C59.1616 9.39327 59.396 9.36398 59.5717 9.32492C59.6401 8.91481 59.6596 8.64141 59.6596 8.49494C59.6401 8.34848 59.5522 8.28013 59.3569 8.29966C59.2495 8.31919 59.0835 8.33872 58.8199 8.36801V8.10437C59.0933 8.01649 59.2885 7.9579 59.396 7.90908C59.5229 7.84073 59.7182 7.84073 59.9525 7.92861C60.1869 7.99696 60.3626 8.07507 60.4407 8.18248C60.5286 8.27036 60.5091 8.35824 60.4017 8.43636C60.2943 8.50471 60.1478 8.77811 59.9525 9.2468C60.2748 9.48115 60.2748 9.60808 59.933 9.62761C59.6108 9.62761 59.2886 9.64714 58.9956 9.66667L58.8199 9.70573V9.70573ZM72.3924 8.84646V9.11987C72.3728 9.10034 72.324 9.08081 72.3045 9.05152C72.1385 8.90505 72.1092 8.8367 72.2654 8.8367H72.3924V8.84646ZM72.3924 5.47775V5.78044H72.3728C72.2069 5.86832 71.9627 6.21008 71.6893 6.78618C72.0311 6.87405 72.2654 6.93264 72.3924 7.00099V7.50874V7.48921C72.2166 7.40133 72.0116 7.25487 71.7284 7.04005V8.66094C71.7284 9.38351 71.6893 9.88149 71.621 10.1158C71.5526 10.3502 71.4745 10.3307 71.3476 10.0475C71.2011 9.79361 71.1718 9.55926 71.2402 9.36398C71.3085 9.16869 71.3476 8.80741 71.3671 8.31919C71.3866 7.80167 71.4062 7.44039 71.4062 7.22557C71.0449 7.65521 70.7422 7.99696 70.4883 8.27036C70.2344 8.52424 70.0001 8.7 69.7853 8.82693C69.5705 8.95387 69.5314 8.93434 69.6583 8.80741C69.7853 8.68047 70.0196 8.42659 70.3419 8.01649C70.6641 7.63568 70.957 7.18652 71.2206 6.68853C71.4941 6.18078 71.6015 5.91714 71.5429 5.89761C71.5038 5.87809 71.3085 5.91714 70.9668 6.02455C70.6445 6.13196 70.3907 6.21984 70.2149 6.27843C70.0684 6.3663 69.9122 6.31749 69.7657 6.17102C69.6193 6.04408 69.5705 5.9562 69.6583 5.9562C69.7658 5.9562 69.9122 5.9562 70.127 5.93667C70.3223 5.91714 70.5957 5.84879 70.9375 5.77068C71.2792 5.6828 71.5331 5.57539 71.66 5.44845C71.787 5.32151 71.9139 5.27269 72.0409 5.30199C72.158 5.34104 72.285 5.38987 72.3924 5.47775V5.47775ZM72.3924 3.80803V4.45248C72.324 4.43296 72.2459 4.41343 72.158 4.34508C71.9042 4.21814 71.7089 4.02285 71.5624 3.80803C71.4159 3.59322 71.494 3.50534 71.7967 3.55416C72.0701 3.59322 72.285 3.6811 72.3924 3.80803ZM72.3924 4.45248V3.80803C72.4119 3.80803 72.4119 3.82756 72.4314 3.84709C72.5388 3.99356 72.5779 4.14979 72.5584 4.31578C72.5486 4.40366 72.4998 4.45248 72.3924 4.45248V4.45248ZM72.3924 5.77068V5.46798L72.4314 5.50704C72.5486 5.60468 72.5486 5.69256 72.3924 5.77068V5.77068ZM72.3924 7.49897V6.99123C72.4119 7.01076 72.4314 7.01076 72.4607 7.01076C72.5681 7.09863 72.6267 7.22557 72.6267 7.39157C72.6267 7.5478 72.5486 7.56733 72.3924 7.49897V7.49897ZM72.3924 9.12963V8.85623C72.5388 8.8367 72.7537 8.81717 73.0368 8.78788C73.3786 8.74882 73.8277 8.68047 74.3648 8.59259V6.84476C74.1109 6.88382 73.9156 6.91311 73.7692 6.88382C73.6227 6.86429 73.4665 6.81547 73.359 6.75688C73.2321 6.68853 73.2907 6.62994 73.5055 6.58112C73.7203 6.54206 73.9937 6.47371 74.3648 6.38583C74.3843 5.70233 74.3843 5.14575 74.3648 4.71612C74.3453 4.26696 74.2769 3.99356 74.1695 3.8178C74.0621 3.64204 74.1011 3.60298 74.2964 3.64204C74.4624 3.68109 74.6382 3.74945 74.8335 3.83733C75.0092 3.9252 75.0483 4.03262 75.0092 4.15955C74.9409 4.28649 74.9214 4.46225 74.9018 4.69659C74.8823 4.91141 74.8628 5.44845 74.8335 6.27843C75.0092 6.27843 75.1948 6.23937 75.4096 6.17102C75.6439 6.13196 75.8197 6.15149 75.9466 6.2589C76.0736 6.36631 76.054 6.45419 75.8392 6.51277C75.6439 6.58112 75.3022 6.65924 74.8335 6.74712C74.7944 7.51851 74.7944 8.0946 74.7944 8.52424C75.0288 8.50471 75.2826 8.45589 75.5853 8.41683C75.888 8.37777 76.1028 8.34848 76.2688 8.32895C76.4348 8.32895 76.6106 8.36801 76.7766 8.50471C76.9231 8.61212 77.0109 8.71953 76.9914 8.77811C76.9719 8.86599 76.7766 8.88552 76.4348 8.84646C76.0931 8.80741 75.6049 8.8074 74.9604 8.86599C74.2964 8.93434 73.8277 8.99293 73.5055 9.06128C73.2028 9.12963 72.9685 9.18822 72.8025 9.20774C72.6755 9.23704 72.5486 9.20775 72.3924 9.12963V9.12963ZM78.915 4.34508V4.72589C78.7197 4.76494 78.5342 4.79424 78.3194 4.81377C78.5342 4.92117 78.6416 5.02858 78.5928 5.11646C78.5537 5.20434 78.5537 5.41916 78.5537 5.76091C78.6806 5.72186 78.8076 5.67303 78.915 5.6535V5.92691C78.8076 5.94644 78.6806 5.94644 78.5537 5.94644V6.75688C78.7002 6.71783 78.8369 6.68853 78.915 6.64947V6.95217C78.8076 6.9717 78.6806 6.9717 78.5537 6.9717V7.92861C78.6806 7.90908 78.8076 7.86026 78.915 7.84073V8.16296C78.212 8.43636 77.8214 8.61212 77.7433 8.6707C77.6359 8.75858 77.5284 8.77811 77.4406 8.70976C77.3527 8.64141 77.2746 8.5633 77.1867 8.45589C77.0793 8.34848 77.1476 8.28013 77.3527 8.2606C77.5675 8.24107 77.8702 8.15319 78.2315 8.02625C78.2315 6.06361 78.1924 5.01882 78.1046 4.84306C77.8897 4.82353 77.7237 4.75518 77.6359 4.6673C77.5284 4.57942 77.6163 4.52084 77.8507 4.50131C78.1045 4.49154 78.4463 4.45248 78.915 4.34508V4.34508ZM78.915 5.92691V5.6535L78.9833 5.63398C79.1298 5.59492 79.2372 5.61445 79.3056 5.70233C79.3934 5.79021 79.3446 5.84879 79.1786 5.89761C79.1005 5.89761 79.0224 5.92691 78.915 5.92691ZM78.915 6.95217V6.64947C78.9541 6.64947 79.0029 6.62994 79.0224 6.62994C79.1298 6.59089 79.2372 6.61042 79.2958 6.6983C79.3837 6.78618 79.3153 6.84476 79.1493 6.89358C79.081 6.90335 79.0029 6.92288 78.915 6.95217ZM80.3894 9.29563V9.47138H80.3504C79.9891 9.57879 79.9207 9.55926 80.1551 9.45185C80.2137 9.40303 80.3015 9.36398 80.3894 9.29563V9.29563ZM80.3894 4.08144V4.44272C80.243 4.48178 80.0281 4.51107 79.7743 4.55013C79.95 4.72589 80.0281 4.82353 80.0086 4.89188C80.0086 4.93094 79.9891 5.03835 79.9403 5.16528C79.9207 5.31175 79.9012 6.10267 79.8719 7.53803C80.1062 7.45016 80.2527 7.43063 80.3211 7.43063C80.3601 7.43063 80.3601 7.43062 80.3894 7.45015V7.53803C80.3504 7.60639 80.1746 7.71379 79.8817 7.84073C79.9207 9.08081 79.9012 9.8229 79.8133 10.1061C79.7254 10.3599 79.618 10.3599 79.5106 10.1451C79.4032 9.91079 79.3642 9.71549 79.4032 9.56903C79.4227 9.42256 79.4423 9.2468 79.4716 9.06128C79.4911 8.84646 79.5106 8.48518 79.5106 7.92861C79.2958 8.01649 79.1005 8.09461 78.915 8.16296V7.84073C79.1298 7.77238 79.3251 7.71379 79.5106 7.64544C79.5301 5.86832 79.4911 4.89188 79.4032 4.65754C79.2567 4.67707 79.081 4.69659 78.915 4.72589V4.34508H78.9345C79.4032 4.2572 79.7645 4.17908 79.9988 4.13026C80.1551 4.08144 80.282 4.08144 80.3894 4.08144V4.08144ZM81.3463 4.72589C81.0241 4.23767 80.985 4.04238 81.2194 4.13026C81.4537 4.19861 81.649 4.29625 81.776 4.45248C81.9029 4.57942 81.9029 4.72589 81.815 4.90165C81.7174 5.04811 81.5611 4.99929 81.3463 4.72589V4.72589ZM83.6117 3.72015C83.7581 3.82756 83.7581 3.91544 83.6507 3.97403C83.5238 4.04238 83.3969 4.16932 83.2211 4.35484C83.0746 4.55013 82.8598 4.76494 82.6255 4.97C82.3716 5.20434 82.3228 5.18481 82.479 4.90165C82.6255 4.64777 82.7329 4.3646 82.8208 4.11073C82.9086 3.85686 82.9282 3.6811 82.8891 3.55416C82.8208 3.42722 82.8891 3.40769 83.1039 3.44675C83.2894 3.50534 83.4652 3.59322 83.6117 3.72015V3.72015ZM80.3894 4.45248V4.0912C80.4773 4.0912 80.5359 4.11073 80.6042 4.13026C80.7312 4.16931 80.7702 4.23767 80.7312 4.32555C80.7116 4.3646 80.6042 4.40366 80.3894 4.45248ZM80.3894 7.5478C80.4089 7.50874 80.4089 7.47945 80.3894 7.45992V7.5478ZM80.3894 9.47138V9.29563C80.5847 9.16869 80.7995 8.99293 81.0534 8.75858C81.3951 8.41683 81.6295 7.94814 81.7174 7.35251C81.3073 7.42086 81.0534 7.45992 80.946 7.47945C80.8581 7.49898 80.7116 7.45992 80.5359 7.35251C80.3699 7.22557 80.3699 7.15722 80.5164 7.15722C80.6921 7.15722 81.0925 7.11816 81.7369 7.03029C81.7564 6.45419 81.7369 6.11243 81.649 6.02455C81.2682 6.06361 81.0046 6.04408 80.8581 5.9562C80.7116 5.86832 80.7507 5.82927 80.946 5.78044C81.1608 5.76091 81.4635 5.69256 81.8638 5.58516C82.2739 5.49728 82.5864 5.38987 82.8208 5.33128C83.0356 5.2434 83.2504 5.26293 83.4164 5.39963C83.5921 5.52657 83.4847 5.63398 83.1137 5.72186C82.7524 5.82926 82.3618 5.89761 81.9615 5.9562C82.1958 6.08314 82.2837 6.21007 82.2349 6.33701C82.1665 6.44442 82.1275 6.65924 82.108 6.95217C82.7719 6.86429 83.2601 6.8057 83.5433 6.73735C83.8167 6.6983 84.0608 6.73735 84.2659 6.90335C84.4807 7.04981 84.4123 7.13769 84.0706 7.13769C83.7484 7.13769 83.1137 7.17675 82.108 7.26463C82.4692 7.84073 82.8793 8.30942 83.2797 8.63165C83.7093 8.9734 84.0901 9.18822 84.4514 9.29563C84.8322 9.40304 84.881 9.47139 84.6272 9.49091C84.3733 9.49091 84.0706 9.51044 83.7288 9.51044C83.3871 9.52997 83.1332 9.42256 83.0063 9.23704C82.8598 9.02222 82.7329 8.80741 82.5962 8.59259L82.0201 7.63568C81.9127 8.17272 81.6978 8.57306 81.3756 8.87576C81.0729 9.16869 80.7312 9.36398 80.3894 9.47138V9.47138ZM88.2888 6.47371V6.92288C88.1619 6.92288 88.0154 6.9424 87.8592 6.96193C87.5174 7.00099 87.244 6.96194 87.0487 6.85453C86.8339 6.72759 87.0097 6.65924 87.5662 6.62018C87.8592 6.55183 88.0935 6.51277 88.2888 6.47371ZM88.2888 3.38817V4.41343C88.0545 4.84306 87.8006 5.22387 87.5662 5.61445C87.2928 6.02455 86.9413 6.42489 86.5215 6.81547C86.0918 7.22557 85.6427 7.49898 85.213 7.67474C84.7834 7.8212 84.7639 7.78214 85.174 7.49897C85.5841 7.2451 86.0039 6.835 86.4531 6.29796C86.9218 5.78044 87.2831 5.22387 87.5662 4.6673C87.8201 4.11073 87.9471 3.72015 87.908 3.50534C87.8689 3.31005 87.9275 3.25146 88.1033 3.31005C88.1619 3.33934 88.2205 3.35887 88.2888 3.38817V3.38817ZM88.2888 9.9889C87.9861 10.0084 87.6639 10.028 87.2831 10.0572C87.1561 10.3599 87.0487 10.4185 86.9804 10.2916C86.912 10.1451 86.8534 9.93031 86.8046 9.62761C86.7363 9.32492 86.6972 9.07104 86.6386 8.8367C86.5996 8.60235 86.5117 8.40706 86.3848 8.24107C86.2774 8.06531 86.2969 7.9872 86.4922 8.00672C86.6582 8.02625 86.8144 8.07508 86.9218 8.0946C87.0292 8.13366 87.244 8.13366 87.537 8.0946C87.7908 8.07508 88.0545 8.02625 88.2888 7.98719V8.27036C88.0154 8.30942 87.6248 8.35824 87.1171 8.41683C87.1561 8.99293 87.205 9.44209 87.2245 9.76432C87.5858 9.72526 87.9471 9.65691 88.2888 9.61785V9.9889V9.9889ZM88.2888 4.41343V3.38817C88.3962 3.45652 88.4841 3.49557 88.5622 3.58345C88.6696 3.69086 88.6892 3.77874 88.6306 3.86662C88.5622 3.93497 88.5036 4.01309 88.4353 4.1205C88.6696 4.35484 88.9528 4.60871 89.2457 4.89188C89.5484 5.14576 89.8414 5.42892 90.1245 5.70233C90.4272 5.9562 90.7494 6.19055 91.0619 6.38583C91.4037 6.58112 91.7454 6.72759 92.1262 6.85453C92.507 6.96194 92.468 7.04981 92.0188 7.06934C91.5892 7.1084 91.2084 7.1084 90.9057 7.08887C90.5834 7.06934 90.3686 6.9424 90.2222 6.72759C90.0757 6.49324 89.8414 6.17102 89.4703 5.74138C89.1286 5.31175 88.7477 4.84306 88.3376 4.30602L88.2888 4.41343V4.41343ZM88.2888 6.92288V6.47371C88.4841 6.40536 88.6501 6.3663 88.7575 6.32725C88.9528 6.23937 89.1383 6.2589 89.3141 6.41513C89.4898 6.54207 89.4898 6.64947 89.3336 6.71782C89.1676 6.78617 88.9723 6.82523 88.738 6.86429C88.611 6.87405 88.4646 6.90335 88.2888 6.92288ZM95.4266 8.84646V9.12963C95.3875 9.1101 95.3582 9.09057 95.3192 9.06128C95.1532 8.91481 95.1532 8.84646 95.2997 8.84646H95.4266V8.84646ZM95.4266 5.45822V5.76091H95.3875C95.2118 5.84879 95.0067 6.19055 94.7236 6.76665C95.0458 6.85452 95.2801 6.91311 95.4266 6.98146V7.49897L95.4071 7.47945C95.2606 7.39157 95.0262 7.2451 94.7431 7.03029V8.66094C94.7431 9.39327 94.7236 9.88149 94.6552 10.1158C94.5869 10.3502 94.4794 10.3307 94.3525 10.0475C94.2256 9.79361 94.1767 9.5495 94.2646 9.36398C94.333 9.16869 94.372 8.80741 94.3916 8.30942C94.4111 7.79191 94.4111 7.43062 94.4111 7.21581C94.0693 7.64544 93.7666 7.9872 93.5128 8.27036C93.2589 8.52424 93.0245 8.7 92.8097 8.82693C92.5949 8.95387 92.5559 8.93434 92.6828 8.80741C92.8097 8.68047 93.0245 8.41683 93.3468 8.01649C93.669 7.62591 93.9619 7.17675 94.2451 6.68853C94.499 6.17102 94.6064 5.91714 94.5673 5.89761C94.499 5.87809 94.3134 5.91714 93.9912 6.02455C93.6495 6.13196 93.4151 6.21984 93.2394 6.27843C93.0636 6.3663 92.9171 6.31749 92.7707 6.17102C92.6242 6.04408 92.6047 5.9562 92.6828 5.9562C92.7902 5.9562 92.9367 5.9562 93.132 5.93667C93.3468 5.91714 93.6202 5.84879 93.9619 5.76091C94.3037 5.67303 94.538 5.56563 94.665 5.43869C94.7919 5.31175 94.9188 5.26293 95.0458 5.29222C95.1922 5.33128 95.2997 5.3801 95.4266 5.45822V5.45822ZM95.4266 3.7885V4.43295C95.3582 4.41343 95.2801 4.3939 95.1922 4.32555C94.9384 4.19861 94.7431 4.00332 94.5966 3.7885C94.4501 3.57369 94.5087 3.48581 94.831 3.53463C95.1141 3.57369 95.2997 3.66157 95.4266 3.7885ZM89.5094 9.43232C89.8316 9.75455 89.8121 9.92054 89.4703 9.92054C89.236 9.94007 88.8454 9.94007 88.2986 9.9889V9.59832C88.5525 9.55926 88.8161 9.52997 89.07 9.49091C89.1383 9.14916 89.1774 8.84646 89.1774 8.59259C89.1969 8.35824 89.1383 8.23131 88.9821 8.21178C88.8551 8.21178 88.6403 8.21178 88.3669 8.25083H88.2986V7.96767C88.3376 7.96767 88.3669 7.96767 88.406 7.94814C88.6794 7.90908 88.8747 7.8212 89.0016 7.73332C89.1286 7.64544 89.3238 7.66497 89.5582 7.77238C89.8121 7.87979 90.0073 8.00673 90.1538 8.16296C90.3003 8.30942 90.2808 8.43636 90.0659 8.57306C89.8707 8.68047 89.6754 8.9734 89.5094 9.43232V9.43232ZM95.4266 4.43295V3.7885C95.4266 3.7885 95.4461 3.80803 95.4461 3.82756C95.5535 3.97403 95.5926 4.13026 95.5731 4.29625C95.5828 4.3939 95.5145 4.43295 95.4266 4.43295V4.43295ZM95.4266 5.76091V5.45822C95.4266 5.47774 95.4461 5.47774 95.4461 5.49727C95.5828 5.59492 95.5535 5.67303 95.4266 5.76091V5.76091ZM95.4266 7.49897V6.98146C95.4461 7.00099 95.4461 7.00099 95.4656 7.00099C95.5926 7.08887 95.6414 7.21581 95.6414 7.39157C95.6414 7.53803 95.5828 7.56733 95.4266 7.49897V7.49897ZM95.4266 9.12963V8.84646C95.5731 8.82694 95.7879 8.80741 96.0515 8.77811C96.4128 8.73905 96.862 8.6707 97.399 8.58282V6.835C97.1451 6.87405 96.9303 6.90335 96.7741 6.87405C96.6276 6.85453 96.5007 6.8057 96.364 6.74712C96.2566 6.67877 96.2956 6.62018 96.5104 6.57136C96.7253 6.52254 97.028 6.46395 97.3892 6.37607C97.4088 5.69256 97.4088 5.13599 97.3892 4.70636C97.3697 4.2572 97.3014 3.97403 97.1939 3.80803C97.0865 3.63227 97.1256 3.59322 97.3014 3.63228C97.4966 3.67133 97.6626 3.73968 97.8384 3.82756C98.0142 3.91544 98.0727 4.02285 98.0142 4.14979C97.9751 4.27672 97.9263 4.45248 97.9067 4.68683C97.8872 4.90165 97.8677 5.43869 97.8384 6.26866C98.0142 6.26866 98.1997 6.2296 98.434 6.16125C98.6684 6.1222 98.8441 6.14172 98.9711 6.24913C99.098 6.35654 99.0589 6.44442 98.8637 6.50301C98.6488 6.57136 98.3071 6.64947 97.8384 6.73735C97.8189 7.50874 97.8189 8.08484 97.8189 8.51447C98.0532 8.49495 98.3071 8.44612 98.6098 8.40707C98.8832 8.36801 99.1273 8.33872 99.2933 8.31919C99.4691 8.31919 99.635 8.35824 99.7815 8.49494C99.9475 8.60235 100.016 8.70976 99.9963 8.77811C99.9768 8.86599 99.801 8.88552 99.4593 8.84646C99.098 8.80741 98.6 8.8074 97.9653 8.86599C97.3209 8.93434 96.8522 8.99293 96.53 9.06128C96.2077 9.12963 95.9734 9.18822 95.8269 9.20774C95.7098 9.23704 95.5535 9.21751 95.4266 9.12963V9.12963ZM37.9338 15.4863V12.4788H38.3732V15.4863H37.9338ZM35.7173 14.9394C35.7564 15.1054 35.8638 15.2129 36.059 15.2129C36.225 15.2129 36.3617 15.1738 36.4399 15.0859C36.5277 14.998 36.5473 14.793 36.5473 14.4415V12.5472H36.9769V14.4122C36.9769 14.8027 36.9086 15.0957 36.7621 15.2812C36.6351 15.4667 36.4008 15.5546 36.059 15.5546C35.8442 15.5546 35.6978 15.496 35.5708 15.3886C35.4439 15.2617 35.3755 15.1152 35.356 14.9297H35.7173V14.9394ZM33.5496 12.8596V13.6994H34.5456V14.0411H33.5496V15.1347H34.8971V15.496H33.159V12.4886H34.9264V12.8694H33.5496V12.8596ZM31.8604 15.4863V14.0314H30.5617V15.4863H30.1418V12.4788H30.5617V13.6994H31.8604V12.4788H32.2802V15.4863H31.8604V15.4863ZM40.2089 12.4788V13.3088L39.7598 14.5782H40.2089V14.8711H39.6621L39.4278 15.496H38.9591L40.1894 12.4886H40.2089V12.4788ZM27.4957 15.4863V15.3788L28.7943 12.8499H27.4957V12.4691H29.3607V12.5765L28.0522 15.1347H29.4095V15.496H27.4957V15.4863ZM46.7999 13.0647C46.5948 12.9182 46.38 12.8401 46.1945 12.8401C45.882 12.8401 45.6282 12.967 45.4622 13.1721C45.2766 13.3967 45.1888 13.6896 45.1888 14.0509C45.1888 14.4122 45.2766 14.6758 45.4426 14.8809C45.6282 15.0859 45.8625 15.1933 46.175 15.1933C46.38 15.1933 46.5655 15.1347 46.6925 15.0078V14.295H46.2824V13.963H47.1123V15.2519C46.9854 15.3398 46.8389 15.4179 46.6534 15.4765C46.4679 15.5155 46.2824 15.5644 46.0871 15.5644C45.6672 15.5644 45.3548 15.4179 45.1106 15.1445C44.8861 14.8516 44.7591 14.4805 44.7591 14.0216C44.7591 13.5627 44.8861 13.1916 45.1497 12.9182C45.4036 12.6253 45.7551 12.4788 46.1945 12.4788C46.507 12.4788 46.7608 12.5667 46.9659 12.7327L46.7999 13.0647V13.0647ZM43.8999 15.5644L42.3668 13.4064V15.5253H41.9763V12.5569H42.1423L43.6362 14.6172V12.5569H44.0268V15.5644H43.8999V15.5644ZM40.2089 14.8613V14.5684H40.6386L40.2284 13.26L40.2089 13.299V12.4691H40.3066L41.3806 15.4765H40.951L40.746 14.8516H40.2089V14.8613ZM50.7154 12.4788V12.8792C50.6373 12.8596 50.5494 12.8596 50.4713 12.8596C50.4322 12.8596 50.3444 12.8596 50.2272 12.8792V13.8458C50.3346 13.8654 50.4127 13.8654 50.5104 13.8654H50.7154V14.3243L50.6568 14.2169C50.5787 14.2169 50.4322 14.2169 50.2272 14.1974V15.496H49.8366V12.4983H50.1491C50.3346 12.4788 50.4811 12.4788 50.5592 12.4788H50.7154V12.4788ZM52.473 12.5472H52.8636V14.5684C52.8636 14.7539 52.9222 14.9004 53.0491 15.0176C53.1467 15.125 53.3127 15.1836 53.4983 15.1836C53.6838 15.1836 53.8498 15.125 53.9474 15.0176C54.0744 14.8906 54.133 14.7539 54.133 14.5684V12.5472H54.5235V14.6075C54.5235 14.9004 54.4454 15.125 54.2599 15.291C54.0744 15.4765 53.8107 15.5546 53.4983 15.5546C53.1663 15.5546 52.9222 15.4765 52.7366 15.3105C52.5511 15.1445 52.473 14.9004 52.473 14.6075V12.5472ZM50.7154 14.3145V13.8556C50.8619 13.8361 50.9595 13.797 51.0279 13.7482C51.1548 13.6603 51.1939 13.5138 51.1939 13.3088C51.1939 13.1428 51.1548 13.0354 51.0279 12.9573C50.9498 12.9182 50.8423 12.8694 50.7154 12.8694V12.4691C51.311 12.5081 51.6235 12.801 51.6235 13.3283C51.6235 13.5138 51.5649 13.6798 51.4575 13.8263C51.3306 13.9728 51.2134 14.0802 51.0474 14.0997L51.8969 15.4765H51.4477L50.7154 14.3145V14.3145ZM56.3006 12.4788V12.8792C56.2225 12.8596 56.1444 12.8596 56.037 12.8596C56.0175 12.8596 55.9394 12.8596 55.8124 12.8792V13.8458C55.9101 13.8654 55.9882 13.8654 56.0956 13.8654H56.3006V14.3243L56.2421 14.2169C56.1444 14.2169 55.9979 14.2169 55.8222 14.1974V15.496H55.4218V12.4983H55.7441C55.9198 12.4788 56.0663 12.4788 56.1444 12.4788H56.3006V12.4788ZM56.3006 14.3145V13.8556C56.4276 13.8361 56.5252 13.797 56.6131 13.7482C56.7205 13.6603 56.7791 13.5138 56.7791 13.3088C56.7791 13.1428 56.7205 13.0354 56.6131 12.9573C56.535 12.9182 56.4276 12.8694 56.3006 12.8694V12.4691C56.8963 12.5081 57.2087 12.801 57.2087 13.3283C57.2087 13.5138 57.1501 13.6798 57.0232 13.8263C56.9158 13.9728 56.7791 14.0802 56.6326 14.0997L57.4821 15.4765H57.0232L56.3006 14.3145V14.3145ZM59.0151 12.4788V13.3088L58.566 14.5782H59.0151V14.8711H58.4683L58.234 15.496H57.7653L58.9956 12.4886H59.0151V12.4788ZM66.6997 12.9768C66.5728 12.8987 66.3677 12.8303 66.1041 12.8303C65.8307 12.8303 65.6256 12.9573 65.4597 13.1819C65.3132 13.3869 65.2351 13.6798 65.2351 14.0411C65.2351 14.4024 65.3132 14.666 65.4792 14.8711C65.6256 15.0761 65.8307 15.1836 66.1041 15.1836C66.3775 15.1836 66.5826 15.0762 66.7485 14.8906L66.9536 15.2031C66.729 15.4277 66.4361 15.5546 66.065 15.5546C65.6745 15.5546 65.362 15.4081 65.157 15.1152C64.9324 14.8418 64.825 14.4708 64.825 14.0118C64.825 13.5724 64.9324 13.2014 65.1765 12.9085C65.4011 12.6155 65.7135 12.4691 66.0846 12.4691C66.4166 12.4691 66.6607 12.5081 66.8462 12.6351L66.6997 12.9768V12.9768ZM60.7825 15.4863V12.4788H61.2024V15.1347H62.5499V15.496H60.7825V15.4863ZM59.0151 14.8613V14.5684H59.4448L59.0444 13.26L59.0249 13.299V12.4691H59.1226L60.1966 15.4765H59.767L59.562 14.8516H59.0151V14.8613ZM68.6428 12.4788V12.8792C68.5647 12.8596 68.4768 12.8596 68.3987 12.8596C68.3597 12.8596 68.2718 12.8596 68.1546 12.8792V13.8458C68.262 13.8654 68.3597 13.8654 68.4378 13.8654H68.6428V14.3243L68.5843 14.2169C68.5061 14.2169 68.3597 14.2169 68.1546 14.1974V15.496H67.764V12.4983H68.0765C68.262 12.4788 68.4085 12.4788 68.5061 12.4788H68.6428V12.4788ZM70.8203 12.8596V13.6994H71.7967V14.0411H70.8203V15.1347H72.1483V15.496H70.4004V12.4886H72.1678V12.8694H70.8203V12.8596ZM68.6428 14.3145V13.8556C68.7893 13.8361 68.887 13.797 68.9553 13.7482C69.0822 13.6603 69.1408 13.5138 69.1408 13.3088C69.1408 13.1428 69.0822 13.0354 68.9553 12.9573C68.8772 12.9182 68.7698 12.8694 68.6428 12.8694V12.4691C69.2385 12.5081 69.5509 12.801 69.5509 13.3283C69.5509 13.5138 69.4923 13.6798 69.3849 13.8263C69.258 13.9728 69.1408 14.0802 68.9748 14.0997L69.8243 15.4765H69.3752L68.6428 14.3145V14.3145ZM73.9254 12.8987C73.818 12.8792 73.7203 12.8596 73.5934 12.8596C73.5543 12.8596 73.4469 12.8596 73.3005 12.8792V15.1152C73.3786 15.1152 73.486 15.1347 73.6325 15.1347C73.7399 15.1347 73.818 15.1152 73.9254 15.0957V15.4472C73.7789 15.4863 73.6325 15.4863 73.4958 15.4863H72.9001V12.4983C73.2712 12.4983 73.5153 12.4788 73.6227 12.4788C73.7301 12.4788 73.8277 12.4983 73.9352 12.5179V12.8987H73.9254ZM87.4491 15.4863V12.4788H87.8885V15.4863H87.4491ZM86.4433 15.5644L84.9006 13.4064V15.5253H84.51V12.5569H84.676L86.1699 14.6172V12.5569H86.5605V15.5644H86.4433ZM81.5709 12.5472H81.9615V14.5684C81.9615 14.7539 82.0201 14.9004 82.147 15.0176C82.2544 15.125 82.3911 15.1836 82.5962 15.1836C82.7817 15.1836 82.9477 15.125 83.0453 15.0176C83.1723 14.8906 83.2309 14.7539 83.2309 14.5684V12.5472H83.6214V14.6075C83.6214 14.9004 83.5433 15.125 83.3578 15.291C83.1723 15.4765 82.9086 15.5546 82.5962 15.5546C82.2642 15.5546 82.0005 15.4765 81.8345 15.3105C81.649 15.1445 81.5709 14.9004 81.5709 14.6075V12.5472ZM78.1436 12.8596V15.496H77.753V12.8596H76.7961V12.4788H79.1493V12.8596H78.1436V12.8596ZM75.7611 15.4863V12.4788H76.1321V15.4863H75.7611ZM73.9254 15.0859C74.0718 15.0273 74.189 14.9785 74.2964 14.832C74.4624 14.6172 74.5405 14.3243 74.5405 13.9532C74.5405 13.3674 74.3355 12.9963 73.9254 12.8889V12.5081C74.189 12.5472 74.4234 12.7132 74.5991 12.8987C74.8237 13.1526 74.9506 13.4846 74.9506 13.9044C74.9506 14.8027 74.5991 15.291 73.9254 15.4374V15.0859ZM89.9488 12.4788V12.8303H89.9097C89.6558 12.8303 89.4605 12.9377 89.3141 13.1428C89.1871 13.3478 89.1188 13.6408 89.1188 14.0021C89.1188 14.3341 89.1774 14.627 89.3336 14.8613C89.4605 15.0859 89.6558 15.1933 89.8999 15.1933H89.939V15.5644H89.8999C89.5191 15.5644 89.2262 15.4179 89.0114 15.125C88.7966 14.832 88.6892 14.461 88.6892 14.0021C88.6892 13.5627 88.7966 13.2111 89.0114 12.9182C89.2262 12.6253 89.5191 12.4788 89.8999 12.4788H89.9488V12.4788ZM93.7862 15.5644L92.2336 13.4064V15.5253H91.8528V12.5569H92.0188L93.5323 14.6172V12.5569H93.9131V15.5644H93.7862V15.5644ZM89.9488 15.1836C90.2026 15.1836 90.4077 15.0761 90.5542 14.8711C90.7006 14.666 90.7592 14.3731 90.7592 13.9923C90.7592 13.2404 90.4858 12.8499 89.9488 12.8206V12.4691C90.3491 12.4691 90.6323 12.6155 90.8666 12.8694C91.0717 13.1428 91.1986 13.5138 91.1986 13.9923C91.1986 14.4708 91.0717 14.8516 90.8666 15.1347C90.642 15.4081 90.3491 15.5351 89.9488 15.5546V15.1836V15.1836Z" fill="black"/>
<path d="M9.37412 0C14.5883 0 18.8065 4.20846 18.8065 9.39335C18.8065 10.0866 18.7186 10.7604 18.5917 11.3853C15.6136 11.2974 8.29027 10.9068 8.87613 10.1745C9.35459 9.56911 11.3563 9.65699 12.9674 8.54385C13.4654 8.22162 12.1863 7.47953 10.3994 7.24519C7.58723 6.89367 1.61142 5.94652 6.50339 5.27278C13.026 4.36469 6.09328 3.25154 2.35352 3.12461C4.07205 1.21079 6.57174 0 9.37412 0" fill="#0A6BAF"/>
<path d="M17.488 14.1872C15.8379 16.9408 12.8499 18.8058 9.40312 18.8058C4.19869 18.8058 0 14.6071 0 9.42221C0 7.12758 0.82021 5.00871 2.20675 3.37805C7.60647 3.94439 7.55764 4.30567 4.35492 4.89153C0.0683505 5.74103 2.48992 6.50266 5.26301 7.12758C6.66908 7.43027 8.12398 7.62556 8.99301 8.25048C9.79369 8.81682 5.11654 8.94376 4.59903 10.2034C4.17916 11.1407 9.491 13.1522 17.488 14.1872" fill="#17A252"/>
</svg>
