<svg width="100" height="20" viewBox="0 0 100 20" fill="none" xmlns="http://www.w3.org/2000/svg">
<path d="M28.2294 1.42103C28.318 1.3718 28.4164 1.35211 28.5149 1.3718L28.5641 1.38165C28.6823 1.40134 28.9579 1.46041 29.401 1.55887L29.5585 1.59825C30.0311 1.70656 30.2871 1.79517 30.3363 1.87393C30.3856 1.94285 30.3954 2.02161 30.3757 2.10038C30.3462 2.17914 30.297 2.23822 30.228 2.28745L30.2083 2.30714L29.9622 2.48436L29.972 4.11873H31.9313L32.1282 3.87259C32.2168 3.76429 32.2858 3.66583 32.3547 3.56738C32.4827 3.40985 32.5713 3.32124 32.6599 3.31139C32.7485 3.30155 32.8667 3.35077 33.0537 3.46892L33.546 3.77413C34.0087 4.04981 34.2352 4.25657 34.2352 4.39441V4.40425C34.2352 4.47317 34.1761 4.56178 34.058 4.67993L34.0383 4.69962L33.7626 4.96545V6.93458L33.8315 8.02744C33.7921 8.1259 33.7331 8.20466 33.6445 8.27358C33.5755 8.33265 33.3983 8.40157 33.1522 8.46065L33.1128 8.47049C32.9159 8.51972 32.7091 8.53941 32.5122 8.52957C32.3153 8.50988 32.207 8.46065 32.1578 8.38188C32.1085 8.30312 32.0987 8.17512 32.0987 7.96837V7.40717H29.9524V9.52397L30.0311 11.0697C29.9917 11.1682 29.9327 11.2666 29.8539 11.3454C29.7358 11.4537 29.5979 11.5226 29.4502 11.562L29.4108 11.5719C29.1844 11.6408 28.9383 11.6703 28.702 11.6408C28.4657 11.6211 28.318 11.5817 28.2589 11.5029C28.2097 11.434 28.1703 11.3553 28.1605 11.2765L28.1506 11.247L28.2589 9.44521L28.2491 7.39732H26.2307V7.96837C26.2307 8.08651 26.1519 8.21451 26.0141 8.35234C25.8763 8.49018 25.6006 8.5591 25.2166 8.57879H25.1477C24.8129 8.58864 24.6259 8.5591 24.5767 8.50003C24.5373 8.43111 24.5176 8.35234 24.5176 8.27358V8.24404L24.5865 7.06257V4.22703L24.5274 3.32124C24.557 3.28185 24.6062 3.25232 24.6554 3.23262C24.7046 3.21293 24.8129 3.25232 24.9902 3.33108L26.4867 4.10889H28.2491V2.97664L28.1605 1.70655C28.1605 1.55887 28.1801 1.46041 28.2294 1.42103ZM55.0981 1.42103C55.3048 1.47026 55.5214 1.51949 55.7282 1.54903C56.0235 1.58841 56.3091 1.67702 56.5847 1.79517C56.7718 1.88378 56.8604 1.98223 56.8506 2.061C56.8407 2.12992 56.7127 2.25791 56.4764 2.43513L56.3681 2.69112C56.2401 2.97664 56.1318 3.22278 56.0334 3.42954H57.9041L57.973 3.34093C58.0911 3.1834 58.229 3.03571 58.3668 2.89787C58.4259 2.8388 58.5046 2.78957 58.5932 2.76988C58.6622 2.76004 58.7705 2.80926 58.9378 2.91757L59.1348 3.0554C59.4203 3.25232 59.6861 3.45907 59.9421 3.68552C60.0504 3.77413 60.1095 3.90213 60.1193 4.03997C60.1095 4.24672 59.9618 4.37472 59.6861 4.39441L59.1938 4.37472C58.8 4.37472 58.416 4.51255 58.1207 4.76854L57.7958 5.03437C57.6382 5.17221 57.5398 5.21159 57.4807 5.16237C57.4216 5.11314 57.4216 5.02453 57.4709 4.91622L57.6087 4.60117L57.7071 4.34518C57.7662 4.18765 57.845 3.99074 57.9434 3.73475H56.0925L56.1023 3.78398C56.122 3.92182 56.1712 4.11873 56.2303 4.37472C56.2992 4.66024 56.3977 4.96545 56.4961 5.31005C56.5946 5.65465 56.821 6.11739 57.1361 6.69828L57.2149 6.60967C57.6382 6.08785 57.9237 5.71372 58.0616 5.44789L58.1896 5.21159C58.2979 5.01468 58.3865 4.90638 58.4357 4.89654C58.5145 4.88669 58.5834 4.89653 58.6523 4.93592C58.7508 5.00484 58.8492 5.07375 58.9378 5.15252C59.0757 5.28051 59.2234 5.38882 59.3809 5.48727L59.4301 5.51681C59.5975 5.61526 59.755 5.74326 59.883 5.89094C59.9913 6.01893 60.0209 6.0977 59.9913 6.15677C59.9421 6.23554 59.7452 6.27492 59.3809 6.26508L59.0462 6.40291C58.416 6.64905 57.8745 6.85581 57.4118 7.01334L57.4709 7.10195C57.589 7.26933 57.717 7.46624 57.8844 7.68284C58.0813 7.92898 58.3963 8.21451 58.8394 8.5591C59.2135 8.83478 59.6172 9.07107 60.0504 9.2483L60.4048 9.38613L60.7494 9.45505C60.7987 9.48459 60.8381 9.53382 60.8479 9.60274C60.8676 9.65197 60.838 9.71104 60.7888 9.73073L60.7691 9.74058C60.6805 9.77996 60.5919 9.80949 60.5033 9.83903L60.267 9.9178L60.2079 9.93749C60.1095 9.97687 60.0504 10.0064 60.0012 10.0261C59.9224 10.0753 59.8436 10.1344 59.7747 10.1935L59.6763 10.2821C59.6172 10.3313 59.5581 10.4002 59.5089 10.4593C59.4498 10.5381 59.4006 10.6267 59.3711 10.7251L59.3415 10.7941C59.2824 10.9417 59.2332 11.0205 59.1938 11.0304C59.1544 11.0402 59.0658 11.0008 58.9477 10.9122L58.6622 10.7251C58.5342 10.6365 58.3766 10.5085 58.16 10.3215C57.973 10.1541 57.7859 9.97687 57.6185 9.7898L57.5792 9.74058C57.3724 9.48459 57.1853 9.20891 57.0081 8.92339C56.7423 8.47049 56.5257 7.9979 56.3583 7.49578C56.1811 6.99365 56.0531 6.47183 55.9645 5.94017L55.9349 5.76295C55.8759 5.35928 55.8365 5.03437 55.8168 4.78823L55.8069 4.58147C55.7872 4.38456 55.7774 4.20734 55.7676 4.04981C55.7282 4.17781 55.6691 4.31564 55.61 4.47317L55.5903 4.5224C55.3737 4.9753 55.1276 5.40851 54.8618 5.83187C55.0784 5.94017 55.1965 6.03863 55.2064 6.12724V6.13708C55.2162 6.23554 55.0784 6.33399 54.8224 6.48168V9.39598L54.9011 9.3566C55.1768 9.21876 55.6297 9.00216 56.2598 8.6871L56.4371 8.58864C56.5749 8.51972 56.6635 8.50987 56.7324 8.5591C56.7915 8.58864 56.821 8.66741 56.8013 8.73633C56.7817 8.7954 56.7521 8.85447 56.7029 8.9037L56.5946 9.00215L54.5762 10.9614L54.0347 11.4832C53.9658 11.5522 53.8772 11.5817 53.7886 11.5817H53.7787C53.7295 11.5719 53.6704 11.5029 53.6015 11.3749L53.316 10.8925C53.2372 10.7547 53.1683 10.607 53.1092 10.4495L53.0896 10.4002C53.0502 10.3215 53.0305 10.2427 53.0206 10.1541V10.1442C53.0403 10.0655 53.0896 9.99656 53.1683 9.95718L53.1979 9.93749C53.2668 9.88826 53.2963 9.85872 53.2963 9.83903V7.71238L53.1486 7.83053C52.7154 8.17512 52.2625 8.49018 51.7899 8.78555L51.3961 9.03169C51.1204 9.19907 50.9334 9.31722 50.8349 9.36644L50.6183 9.48459C50.5592 9.52397 50.4805 9.54366 50.4115 9.53382C50.3328 9.53382 50.254 9.50428 50.2048 9.44521C50.1359 9.38613 50.2245 9.26799 50.4411 9.09076L50.6183 8.95293C50.766 8.83478 50.9137 8.72648 51.0417 8.61818L51.0614 8.59848C51.3567 8.31296 51.6324 8.0176 51.8982 7.70254L51.9868 7.60408C52.3807 7.15118 52.676 6.78689 52.8729 6.51122C53.1092 6.16662 53.3357 5.80233 53.5326 5.4282L53.6212 5.27067C53.7886 4.9753 53.9363 4.66024 54.0544 4.33533L54.271 3.73475L52.676 3.72491C52.7056 3.91197 52.7253 4.08919 52.745 4.26641C52.7548 4.49286 52.6957 4.70947 52.5776 4.89654C52.4496 5.12298 52.233 5.29036 51.8982 5.38882C51.5635 5.48727 51.3173 5.4282 51.1303 5.23129C50.9629 5.07376 50.8743 4.867 50.8644 4.64055C50.8743 4.42395 50.9727 4.21719 51.1303 4.0695L51.593 3.67568C51.6915 3.54768 51.7702 3.40985 51.8096 3.25232L51.8589 3.10463L51.8785 2.77973C51.8982 2.72065 51.9278 2.68127 51.9868 2.65173C52.0459 2.6222 52.1148 2.64189 52.1838 2.71081C52.2231 2.75019 52.2527 2.78957 52.2822 2.8388L52.4397 3.08494L52.5579 3.34093L52.6071 3.43938H54.3793C54.4089 3.34093 54.4384 3.24247 54.4679 3.13417L54.4975 3.02587C54.5664 2.74035 54.6156 2.45482 54.6452 2.15945L54.6944 1.72625C54.7141 1.53918 54.7436 1.42103 54.7731 1.40134C54.8027 1.38165 54.8913 1.3718 55.0981 1.42103ZM92.4523 3.89228L92.5311 3.93166C92.6394 4.00058 92.856 4.12858 93.171 4.32549C93.5944 4.58147 93.7716 4.78823 93.7421 4.90638C93.7126 5.00483 93.5846 5.05406 93.3876 5.06391V5.10329L94.0178 5.16237H97.8576C97.9855 4.98514 98.1431 4.76854 98.3498 4.51255C98.5566 4.25657 98.7141 4.12858 98.8421 4.13842C98.9701 4.14827 99.1867 4.32549 99.5313 4.66024C99.8759 4.99499 100.033 5.22144 99.9941 5.31005C99.9645 5.39866 99.8858 5.44789 99.7971 5.44789L98.3006 5.43804L98.212 5.5365C98.1431 5.61527 98.0938 5.66449 98.0742 5.68419V10.3609C98.0742 10.5578 98.0348 10.7547 97.9363 10.9221C97.8477 11.0796 97.572 11.2076 97.0896 11.2962L97.001 11.3159C96.5776 11.3946 96.2921 11.434 96.1444 11.4045C96.0755 11.4045 96.0164 11.3749 95.9672 11.3356C95.9278 11.2765 95.9081 11.2076 95.9081 11.1387L95.8884 10.8137C95.8687 10.6956 95.8195 10.5971 95.7407 10.5085C95.6817 10.4298 95.5931 10.3707 95.4946 10.3412L95.1894 10.2722C95.0713 10.2525 94.9629 10.223 94.8546 10.1738C94.7956 10.1442 94.766 10.0852 94.7759 10.0163C94.7759 9.94734 94.8251 9.87842 94.894 9.86857C95.0122 9.84888 95.1205 9.83903 95.2386 9.84888L95.4355 9.86857H95.4454C95.5045 9.87842 95.6718 9.88826 95.9574 9.92764C96.2626 9.95718 96.4398 9.9178 96.4792 9.81934C96.5284 9.71104 96.5481 9.58305 96.5579 9.4649L96.5678 5.4282H94.1655L93.5255 5.45773L93.2301 5.09345L93.1415 5.17221L93.1218 5.18206L92.5901 5.70387L92.5409 5.7531C92.6295 5.80233 92.7181 5.8614 92.8166 5.91063C92.8954 5.94017 92.9544 6.00909 92.984 6.08785C92.9938 6.15677 92.9052 6.26507 92.7378 6.43245V9.94733L92.7969 10.9713C92.7674 11.0894 92.6985 11.1977 92.6 11.2765C92.5015 11.3651 92.3046 11.4242 92.0093 11.4439H91.9699C91.6647 11.4636 91.4776 11.4537 91.3988 11.4143H91.389C91.3201 11.375 91.2708 11.3159 91.2413 11.247L91.3004 10.0261V6.8755L91.2512 6.90504C91.0345 7.06257 90.6998 7.29886 90.2469 7.58439L89.922 7.79115C89.7546 7.8896 89.6562 7.92898 89.6069 7.8896V7.92898C89.5676 7.8896 89.538 7.84037 89.538 7.7813C89.5479 7.72223 89.5774 7.66315 89.6266 7.62377L89.8334 7.39732C90.178 7.02319 90.493 6.62936 90.7687 6.206L90.8869 6.02878C91.1428 5.6448 91.3299 5.35928 91.4284 5.16237C91.5465 4.95561 91.6548 4.739 91.7631 4.53225L91.96 4.13842L92.0486 3.95136C92.0683 3.90213 92.0979 3.86274 92.1373 3.83321L92.157 3.82336C92.2259 3.80367 92.3243 3.82336 92.4523 3.89228ZM77.7331 1.52933C77.7824 1.44072 77.9103 1.42103 78.1269 1.4998L78.1466 1.50964L78.5995 1.65733L78.6783 1.68686C79.2493 1.87393 79.5447 2.03146 79.5447 2.1693C79.5447 2.25791 79.397 2.35637 79.1312 2.43513L79.0032 2.67143C78.7964 3.03571 78.6389 3.31139 78.5306 3.47876L78.5208 3.49846H79.338L79.4167 3.4C79.5743 3.20309 79.7022 3.06525 79.781 2.96679L79.8204 2.92741C79.8795 2.85849 79.9484 2.80927 80.0271 2.77973C80.0961 2.76988 80.1945 2.82896 80.3225 2.95695L80.4111 3.03571C80.5687 3.1834 80.7163 3.34093 80.8443 3.51815C80.8837 3.61661 80.8936 3.67568 80.864 3.71506C80.8345 3.75444 80.7656 3.78398 80.6671 3.78398H78.3042C78.0088 4.1975 77.7331 4.58147 77.4476 4.92607L77.3787 5.01468L77.871 5.03437H79.2395C79.3478 4.91623 79.4364 4.80792 79.5152 4.70947C79.5841 4.62086 79.6629 4.53225 79.7416 4.46333C79.8007 4.40425 79.8893 4.36487 79.9681 4.36487C80.037 4.37472 80.1551 4.46333 80.3422 4.6307L80.4013 4.67993C80.5096 4.77839 80.6179 4.89653 80.7065 5.01468C80.7656 5.07376 80.7754 5.16237 80.7557 5.23129C80.736 5.29036 80.677 5.31005 80.5785 5.3199H79.5053C79.4561 5.38882 79.3872 5.45773 79.3183 5.50696L79.2986 5.52665V6.6589H79.4758L79.5349 6.59983C79.6333 6.49152 79.7219 6.40291 79.7909 6.32415L79.8598 6.24538C79.9188 6.17646 79.9681 6.11739 80.0075 6.07801C80.0567 6.01894 80.1256 5.97955 80.2044 5.96971C80.2733 5.95986 80.4111 6.04847 80.6179 6.23554C80.7754 6.37338 80.9231 6.52106 81.0412 6.68844L81.0609 6.70813V2.84865L81.0117 1.69671C81.0412 1.66717 81.0708 1.63764 81.1102 1.61794C81.1496 1.59825 81.2972 1.65733 81.5631 1.77547L81.5926 1.78532L82.5575 2.26776H84.3395C84.438 2.13976 84.5364 2.01177 84.6349 1.87393C84.7334 1.73609 84.822 1.65733 84.9106 1.64748C84.9992 1.63764 85.1173 1.68687 85.3044 1.79517L85.4225 1.86408C85.6391 1.99208 85.8558 2.12992 86.0527 2.2776C86.161 2.36621 86.22 2.42529 86.2299 2.47451C86.2397 2.55328 86.1413 2.68127 85.9247 2.86834L85.905 2.88803V4.95561L85.9542 6.08785C85.905 6.19615 85.8262 6.29461 85.7278 6.35369C85.5899 6.4226 85.4422 6.46199 85.2946 6.46199C85.1469 6.48168 84.9893 6.48168 84.8417 6.46199C84.6251 6.43245 84.4971 6.35369 84.4872 6.22569V6.10754H83.8177V6.11739L83.8768 6.36353C83.9949 6.88535 84.0835 7.18072 84.1229 7.26933V7.27917L84.4085 7.86991C84.4872 7.79114 84.5561 7.71238 84.6152 7.64346C84.7137 7.52531 84.7924 7.39732 84.8613 7.25948L84.9204 7.14133C84.9795 7.03303 85.0189 6.95427 85.0386 6.90504L85.0484 6.89519L85.1173 6.70813L85.1666 6.56044C85.1863 6.53091 85.2256 6.52106 85.2847 6.51122C85.4127 6.51122 85.5308 6.54075 85.6392 6.60967L85.9739 6.75736C86.033 6.78689 86.1019 6.80658 86.161 6.84597C86.3185 6.91489 86.4563 6.99365 86.5942 7.09211C86.6828 7.18072 86.732 7.23979 86.7222 7.29887C86.7123 7.40717 86.5253 7.48593 86.1511 7.53516C86.0231 7.64346 85.8754 7.74192 85.7081 7.86991C85.3832 8.06682 85.0484 8.2342 84.694 8.36219L84.7629 8.4508C84.9204 8.63787 85.0976 8.84463 85.3142 9.07108C85.5604 9.31722 85.9542 9.5732 86.5253 9.79965L86.8895 9.94733C86.9683 9.96703 87.0274 10.0359 87.0471 10.1147C87.0569 10.1738 87.0077 10.223 86.8994 10.2525H86.8797L86.5745 10.3313C86.4465 10.3805 86.3283 10.4396 86.22 10.5184C86.0527 10.6365 85.9247 10.7941 85.8361 10.9811L85.8164 11.0304C85.777 11.1387 85.7081 11.2371 85.6293 11.3159C85.5702 11.3356 85.5013 11.3257 85.4521 11.2863C85.4029 11.2666 85.3635 11.2371 85.3241 11.2076L85.3044 11.1879L85.1075 11.0402C84.8121 10.8137 84.5561 10.5282 84.3395 10.223L84.2017 10.0359C84.0737 9.85873 83.9654 9.67166 83.8669 9.47475L83.8472 9.43536C83.8079 9.3566 83.7882 9.28768 83.7783 9.26799L83.6503 9.41567L83.4731 9.61258L83.4436 9.64212L82.9808 10.1147L82.4886 10.6464L82.0947 11.0697L81.888 11.306L81.8584 11.3356C81.8289 11.3749 81.7994 11.4045 81.76 11.434C81.7403 11.4537 81.7009 11.4537 81.6812 11.4439H81.6714C81.6221 11.434 81.5532 11.3848 81.4843 11.2765L81.0708 10.6168L81.0216 10.5184C80.8542 10.223 80.7853 10.0359 80.805 9.94733C80.8246 9.89811 80.8542 9.84888 80.8936 9.8095C80.9428 9.76027 80.9822 9.71104 81.0117 9.65197C81.0412 9.5732 81.0609 9.49444 81.0609 9.40583V9.3566L81.0708 6.82627C80.9822 6.8755 80.8837 6.89519 80.7853 6.89519H79.3478V9.02185L79.6432 8.86432L79.8105 8.77571L80.4308 8.47049L80.805 8.28343C80.8443 8.26373 80.8936 8.26373 80.9428 8.27358C81.0019 8.27358 81.0412 8.31296 81.0412 8.37204V8.38188C81.0412 8.43111 81.0216 8.49018 80.992 8.52957L80.9822 8.53941L80.7459 8.78555L80.5588 8.98247C80.0764 9.49444 79.7712 9.83903 79.6333 10.0261L79.5152 10.1836C79.3773 10.3609 79.2198 10.5775 79.0426 10.8334L79.0131 10.8827L78.8358 11.1387L78.7571 11.2371C78.7374 11.2568 78.7177 11.2863 78.698 11.2962C78.6586 11.3159 78.6192 11.3159 78.5798 11.2962C78.5109 11.2863 78.442 11.2174 78.3632 11.0993C78.2352 10.9221 78.1269 10.735 78.0285 10.5479L77.9891 10.479C77.9005 10.3313 77.8316 10.1738 77.7725 10.0163C77.743 9.94734 77.743 9.85872 77.7725 9.7898L77.8119 9.75042L77.8907 9.66181C77.9694 9.5732 78.0088 9.45505 78.0088 9.33691V9.30737L78.0186 6.89519H77.3393L76.7092 6.92473L76.5123 6.57029L77.2015 6.60967H78.0285V5.27067L77.5362 5.3199L77.3393 5.07376C77.3196 5.10329 77.2999 5.12298 77.2704 5.14268L77.2605 5.15252L76.8864 5.5365L76.6895 5.73341C76.6501 5.7728 76.6009 5.79249 76.5517 5.81218C76.4926 5.83187 76.4532 5.80233 76.4237 5.74326C76.404 5.70387 76.404 5.65465 76.4138 5.60542V5.58573L76.5615 5.3002C76.7584 4.92607 76.9159 4.53225 77.0538 4.13842C77.2015 3.71506 77.3295 3.30154 77.4476 2.88803L77.5362 2.55328C77.5854 2.36621 77.6248 2.21853 77.6544 2.11022L77.674 2.03146L77.7331 1.72625V1.52933ZM37.7501 1.51949C37.7895 1.4998 37.8978 1.53918 38.0651 1.61794L38.0848 1.62779L39.3549 2.24806H45.0161L45.0752 2.1693C45.2032 2.01177 45.2918 1.87393 45.3804 1.77547C45.4395 1.68686 45.5183 1.61794 45.6167 1.57856C45.7152 1.56872 45.8136 1.58841 45.9023 1.63764C46.2173 1.77547 46.5127 1.94285 46.7785 2.14961L46.8277 2.18899C47.0247 2.34652 47.1231 2.46467 47.1231 2.52374C47.1231 2.60251 47.0247 2.72065 46.8277 2.90772L46.8081 2.92741L46.7982 9.40583L46.8573 10.7744C46.8376 10.8925 46.7982 11.0008 46.7293 11.0993C46.621 11.1977 46.493 11.2568 46.3552 11.2962L46.3256 11.306C46.1189 11.3749 45.8924 11.4045 45.6758 11.3848C45.4592 11.3553 45.3115 11.3159 45.2426 11.2371C45.1737 11.1387 45.1343 11.0205 45.1441 10.8925V10.863L45.154 10.2722H39.2368V10.8827C39.2368 10.9811 39.158 11.0894 39.03 11.2076C38.902 11.3257 38.5574 11.3749 38.0553 11.3257C37.9667 11.3257 37.8781 11.306 37.7993 11.2666L37.7895 11.2568C37.7402 11.2174 37.7107 11.1682 37.691 11.1091L37.6812 11.0796L37.7501 9.45505L37.7402 3.15386L37.6713 1.58841C37.6812 1.55887 37.7107 1.52933 37.7501 1.51949ZM69.0296 1.57856C69.3939 1.62779 69.768 1.70655 70.1225 1.80501C70.5458 1.92316 70.7624 2.04131 70.792 2.1693C70.8117 2.31698 70.664 2.46467 70.3489 2.64189L70.3588 8.73633C70.5064 8.38188 70.6443 7.97821 70.8018 7.51547L70.851 7.37763C70.979 6.9838 71.0873 6.6589 71.1661 6.38322C71.2547 6.07801 71.3433 5.74326 71.4221 5.37897L71.5501 4.82762C71.5796 4.70947 71.5993 4.61101 71.619 4.5224L71.6978 4.11873L71.747 3.81352C71.8159 3.72491 71.9636 3.7446 72.1802 3.87259L72.7414 4.12858L73.3715 4.48302C73.7457 4.68978 73.8933 4.87684 73.8441 5.02453C73.8146 5.0836 73.7653 5.12298 73.7161 5.15252C73.6275 5.21159 73.529 5.25098 73.4207 5.29036C73.2435 5.60542 73.0565 5.92048 72.8694 6.24538L72.8202 6.33399C72.6331 6.62936 72.4066 6.98381 72.1014 7.39732L71.9931 7.55485C71.6584 8.0176 71.1267 8.73633 70.3784 9.72089V10.8531H71.363L71.4812 10.7054C71.6879 10.4593 71.8553 10.2427 71.9931 10.0655L72.0424 9.99656C72.2097 9.77996 72.3377 9.65197 72.446 9.64212C72.5543 9.63227 72.6922 9.69135 72.8891 9.81934L73.0565 9.94733C73.1451 10.0163 73.2435 10.095 73.3321 10.1738L73.726 10.5381C73.854 10.6365 73.9327 10.7842 73.9524 10.9417C73.9622 11.0697 73.8244 11.1387 73.5487 11.1387H64.284L63.585 11.1682L63.2404 10.7645L64.028 10.8334H66.6174V3.17355L66.5288 1.65733L66.5485 1.62779C66.5583 1.6081 66.5682 1.59825 66.578 1.58841C66.6076 1.56872 66.6863 1.57856 66.8143 1.61794L67.3263 1.7164L67.858 1.85424C68.2715 1.95269 68.4782 2.061 68.5078 2.19883C68.5275 2.31698 68.3995 2.47451 68.1337 2.67143L68.1435 10.863H68.813V3.15386L68.7244 1.65733C68.7736 1.59825 68.8721 1.55887 69.0296 1.57856ZM45.1638 2.54343H39.2368L39.2269 9.98672L45.1638 9.99656V2.54343ZM83.1581 6.13708H82.3803L82.3901 9.39598L83.4337 9.08092L83.6306 9.02185C83.5617 8.75602 83.483 8.49018 83.4337 8.21451L83.4042 8.1062C83.355 7.91914 83.3156 7.72223 83.2959 7.53516L83.286 7.49578C83.2664 7.36778 83.2467 7.19056 83.227 6.94442L83.1974 6.54075L83.1581 6.13708ZM63.9985 3.95136C64.0576 3.93166 64.1166 3.93167 64.1757 3.9612C64.2348 4.00058 64.284 4.03997 64.3332 4.08919L64.3726 4.12858L64.5892 4.36487C64.924 4.739 65.18 5.05406 65.3867 5.3199C65.6526 5.69403 65.8987 6.07801 66.1054 6.48168C66.3811 6.95427 66.4993 7.50562 66.4697 8.04713C66.45 8.36219 66.3417 8.65756 66.1448 8.89385C65.9873 9.11046 65.751 9.24829 65.495 9.28768H65.4655C65.2292 9.31721 64.9831 9.24829 64.8058 9.09076C64.6483 8.95293 64.54 8.76586 64.5105 8.5591C64.4809 8.30312 64.4908 8.04713 64.54 7.79115L64.5498 7.74192C64.5991 7.45639 64.6286 7.16102 64.6385 6.8755C64.6385 6.59982 64.6188 6.33399 64.5695 6.06816L64.5498 5.93033C64.5203 5.74326 64.4908 5.60542 64.4612 5.51681V5.49712C64.4317 5.38881 64.3726 5.22144 64.284 4.99499L64.2545 4.90638C64.2052 4.74885 64.156 4.64055 64.1363 4.59132L64.1265 4.57163L63.9788 4.28611C63.9394 4.22703 63.9197 4.16796 63.9197 4.09904C63.9 4.03012 63.9394 3.97105 63.9985 3.95136ZM44.071 3.0554L44.1497 3.11448C44.3762 3.27201 44.5928 3.44923 44.7897 3.64614C44.9275 3.79383 44.9768 3.88244 44.9472 3.93166C44.9177 3.98089 44.8488 4.01043 44.7405 4.01043L42.7713 4.00058C42.7221 4.09904 42.6532 4.17781 42.5744 4.24672L42.5646 5.83187H43.1258L43.2046 5.73341C43.4802 5.39866 43.6476 5.22144 43.7362 5.20175C43.8248 5.18206 43.943 5.23129 44.0907 5.33959L44.2777 5.48727C44.4451 5.60542 44.6026 5.74326 44.7503 5.90079C44.7995 5.96971 44.8192 6.01893 44.7995 6.05832C44.7799 6.0977 44.7306 6.12724 44.6519 6.12724L42.5744 6.13708V8.6674H43.4408L43.5098 8.58864C43.5885 8.49018 43.6673 8.39173 43.7559 8.27358L43.9331 8.05698L44.0021 7.97821C44.0414 7.93883 44.0808 7.90929 44.1399 7.8896C44.1891 7.87976 44.258 7.91914 44.3565 7.98806C44.5337 8.13574 44.7109 8.28342 44.8685 8.4508C45.0358 8.60833 45.1048 8.72648 45.1048 8.77571C45.1048 8.82493 45.0851 8.88401 45.0358 8.91355C44.9472 8.94308 44.8586 8.96277 44.77 8.95293H40.2213L39.5814 8.98247L39.2762 8.59848L40.0638 8.6674L41.2453 8.6871L41.2354 6.12724H40.4478L39.798 6.15677L39.4928 5.77279L40.2804 5.84171L41.2256 5.85156V4.01043H40.3395L39.6897 4.0695L39.3845 3.67568L40.2312 3.73475H43.1947L43.2439 3.66583C43.3621 3.47877 43.4901 3.30154 43.6279 3.13417C43.6771 3.0554 43.7461 2.98649 43.8347 2.95695C43.9036 2.95695 44.002 2.99633 44.071 3.0554ZM42.6138 6.40291C42.6138 6.35369 42.6827 6.32415 42.8107 6.32415H42.8304L43.0372 6.34384C43.5885 6.38322 43.9627 6.49153 44.1596 6.66875L44.1793 6.67859C44.3762 6.85581 44.4746 7.02319 44.4943 7.18072C44.514 7.31856 44.4943 7.45639 44.4254 7.57454C44.3171 7.77145 44.1103 7.8896 43.8839 7.8896C43.6575 7.8896 43.4999 7.86007 43.4015 7.80099L43.3818 7.79115C43.303 7.74192 43.2439 7.673 43.2046 7.58439L43.1947 7.54501C43.175 7.46624 43.1455 7.34809 43.1159 7.18072C43.0864 7.01334 43.0175 6.85581 42.8993 6.73766L42.8797 6.71797L42.6827 6.56044C42.6335 6.52106 42.604 6.46199 42.6138 6.40291ZM28.2491 4.40425L26.2504 4.4141V7.12164H28.2491V4.40425ZM32.0889 4.40425H29.9524V7.1118H32.079L32.0889 4.40425ZM84.4675 4.3058H82.3901V5.85156H84.4675V4.3058ZM92.3539 1.48011C92.4031 1.46041 92.5114 1.51949 92.6591 1.64748L92.7083 1.68686L93.1218 2.04131L93.1809 2.09054C93.4566 2.33668 93.6239 2.52374 93.6633 2.6222L93.683 2.66158C93.7126 2.75019 93.7322 2.80926 93.7027 2.84865C93.6633 2.92741 93.5058 2.96679 93.2301 2.9471L93.0234 3.08494C92.8954 3.1637 92.7969 3.23262 92.7181 3.2917L92.6985 3.30154L91.7828 3.93166L91.0641 4.35503L90.9361 4.43379C90.7687 4.53225 90.6703 4.60117 90.6407 4.62086L90.3847 4.75869C90.2764 4.81777 90.1583 4.867 90.0401 4.90638C89.9811 4.92607 89.9318 4.90638 89.8826 4.867C89.8531 4.83746 89.8432 4.78823 89.8629 4.73901L89.8728 4.72916C89.922 4.66024 89.9811 4.59132 90.05 4.5224L90.0894 4.48302L90.3257 4.25657C90.5718 4.01043 90.7983 3.73475 91.005 3.45908L91.2905 3.0554C91.3792 2.93726 91.4579 2.81911 91.5268 2.72065L91.5761 2.64189L91.8911 2.12992L92.088 1.81486L92.1766 1.65733C92.216 1.56872 92.2751 1.50964 92.3539 1.48011ZM84.4675 2.56312H82.3901V4.02027H84.4675V2.56312ZM97.9363 1.68686C98.0249 1.68686 98.1332 1.74594 98.2612 1.86408L98.7141 2.2776C99.0686 2.58282 99.2163 2.77973 99.167 2.84865C99.1276 2.91757 99.0489 2.95695 98.9701 2.95695H94.7463L94.1064 2.98648L93.8012 2.60251L94.5888 2.67143L97.0305 2.68127L97.1191 2.56312C97.2767 2.34652 97.444 2.12992 97.6213 1.92316C97.7493 1.77547 97.8477 1.69671 97.9363 1.68686Z" fill="#231815"/>
<path d="M7.27815 0.545023V6.00934C7.27815 6.49177 7.31753 6.72807 7.89843 6.72807C8.24302 6.72807 8.57777 6.70838 8.91252 6.72807C9.49341 6.76745 9.39496 7.24989 9.39496 7.71263V9.94759C9.19805 9.53407 8.56793 9.66206 8.09534 9.73098H8.0658C7.64244 9.77036 7.21908 9.76052 6.80556 9.70145C6.54958 9.66206 6.43143 9.53407 6.40189 9.29777V2.98673C3.73373 4.22728 1.97137 7.00375 1.97137 9.96728C1.97137 13.6988 4.76752 16.9872 8.43009 17.5484L8.53839 17.5681V13.5412C8.53839 13.3542 8.61716 13.1573 8.4104 13.1573L8.14457 13.1671C7.81966 13.1769 7.56367 13.1868 7.36676 13.2065L7.27815 13.2163C6.90402 13.2459 6.43143 13.1769 6.41174 12.7733V9.85898C6.41174 10.0067 6.51019 10.1248 6.64803 10.174L6.66772 10.1839C7.13047 10.2922 7.7409 10.243 8.19379 10.2036L8.45963 10.174C8.87314 10.1347 9.30635 10.115 9.38511 10.5088L9.39496 13.1671H9.82817V10.5088C9.82817 10.174 10.35 10.0756 11.0687 10.1839L11.1967 10.2036C11.8957 10.302 12.772 10.302 12.8114 9.84913V12.7634C12.8114 13.5511 11.0293 13.1179 10.7635 13.1868H10.7537C10.6454 13.2262 10.6355 13.3936 10.6355 13.5117V17.5779C14.3571 17.0758 17.2025 13.748 17.2025 9.97712C17.2025 7.05297 15.4992 4.30605 12.8705 3.03596L12.7917 2.99658V9.27808C12.7917 9.48484 12.6932 9.67191 12.4766 9.72114C11.9942 9.81959 11.3641 9.78021 10.9013 9.74083L10.7044 9.72114C10.2909 9.68176 9.9857 9.64237 9.81832 9.94759L9.80848 9.96728V7.74217C9.80848 7.42711 9.71986 6.83637 10.0448 6.72807C10.3697 6.61977 11.9056 7.03328 11.9154 6.44255C11.9351 5.56629 11.9253 4.51281 11.9253 3.58732C11.9253 2.58306 11.9351 1.58866 11.9351 0.574559C15.9521 1.60835 18.9255 5.23154 19.1717 9.37654C19.4572 14.3387 15.7946 18.848 10.8915 19.5175C5.47641 20.2559 0.405913 16.1011 0.0219345 10.5876C-0.293125 5.96996 2.81809 1.67727 7.27815 0.545023ZM10.6454 0.397339L10.6552 6.3244H8.55808L8.58762 0.397339H10.6454Z" fill="#009882"/>
<path d="M27.4516 18.4246L27.2055 18.3458C27.1661 18.336 27.1366 18.3163 27.107 18.2966C27.0775 18.2671 27.0578 18.2375 27.048 18.1982L26.0535 15.6186H25.8369L24.7933 18.2277C24.7638 18.3163 24.685 18.3852 24.5865 18.3951L24.301 18.4148V18.5428C24.3306 18.5428 24.3896 18.5329 24.4782 18.5329H25.2265C25.325 18.5329 25.3742 18.5329 25.4037 18.5428V18.4148L25.1084 18.3951C25.0296 18.3852 24.9804 18.3754 24.9705 18.3557C24.9607 18.3163 24.9607 18.2868 24.9804 18.2474L25.325 17.3908H26.0634L26.3686 18.208C26.3883 18.2671 26.3981 18.3065 26.3883 18.3262C26.3785 18.3458 26.3292 18.3655 26.2406 18.3754L25.9551 18.4246V18.5428C26.1126 18.5329 26.3095 18.5329 26.5458 18.5329H27.2252C27.3236 18.5329 27.3925 18.5428 27.4418 18.5428L27.4516 18.4246ZM26.0339 17.1939H25.4333L25.768 16.4456L26.0339 17.1939ZM29.214 18.5526C29.2928 18.5526 29.3814 18.5526 29.47 18.5428C29.5586 18.5329 29.6472 18.5231 29.726 18.5132C29.8047 18.5034 29.8933 18.4837 29.9623 18.4738C30.0312 18.4541 30.0902 18.4345 30.1592 18.4148C30.2182 18.3951 30.2675 18.3754 30.3069 18.3557C30.3364 18.3458 30.3659 18.3163 30.3856 18.2868C30.4053 18.2474 30.4152 18.2178 30.4152 18.1785C30.4152 18.1292 30.425 18.0702 30.425 17.9816V17.4991C30.425 17.4696 30.4348 17.44 30.4545 17.4105C30.4841 17.3908 30.5136 17.381 30.553 17.3711L30.7499 17.3416V17.2038C30.5235 17.2136 30.297 17.2234 30.0804 17.2234C29.8638 17.2234 29.6472 17.2136 29.4109 17.2038V17.3416L29.726 17.3711C29.7653 17.3711 29.7949 17.381 29.8244 17.4007C29.8441 17.4204 29.854 17.4499 29.854 17.4893V17.952C29.854 18.0111 29.8441 18.0603 29.8343 18.1194C29.8146 18.1686 29.785 18.2179 29.7456 18.2572C29.6964 18.3065 29.6373 18.336 29.5783 18.3557C29.4897 18.3852 29.4011 18.3951 29.3124 18.3951C29.1549 18.3951 28.9875 18.3655 28.8399 18.2966C28.7119 18.2277 28.5937 18.1391 28.4953 18.0209C28.3968 17.9028 28.3279 17.765 28.2885 17.6173C28.2393 17.4597 28.2196 17.2924 28.2196 17.125C28.2196 16.9576 28.2393 16.7804 28.2885 16.6229C28.3279 16.4752 28.3968 16.3472 28.4854 16.229C28.574 16.1207 28.6922 16.0321 28.8202 15.9731C28.9678 15.9041 29.1352 15.8746 29.3026 15.8844C29.4109 15.8844 29.5192 15.9041 29.6177 15.9435C29.7063 15.9829 29.7949 16.042 29.8638 16.1109C29.9426 16.1897 30.0016 16.2684 30.0607 16.357C30.1198 16.4555 30.169 16.5539 30.2084 16.6622L30.3167 16.6524L30.2773 15.914C29.9721 15.7663 29.6472 15.6974 29.3026 15.7072C29.086 15.7072 28.8595 15.7368 28.6528 15.7958C28.4559 15.8451 28.2688 15.9337 28.1014 16.0617C27.9439 16.1798 27.8159 16.3373 27.7273 16.5244C27.6288 16.7312 27.5796 16.9576 27.5796 17.1841C27.5698 17.5779 27.747 17.9619 28.0621 18.208C28.2097 18.3262 28.387 18.4148 28.574 18.4738C28.7906 18.5231 28.9974 18.5526 29.214 18.5526ZM32.5713 18.3557L32.3547 18.3065C32.2957 18.2966 32.2464 18.2769 32.2071 18.2277C32.1775 18.1883 32.1578 18.1292 32.1677 18.08V17.1447H32.3154C32.3646 17.1447 32.404 17.1545 32.4433 17.1742C32.4827 17.2038 32.5123 17.2333 32.5418 17.2727L33.1916 18.4541H34.2352V18.3262L34.0383 18.2966C33.9793 18.2868 33.93 18.2671 33.8808 18.2375C33.8217 18.1982 33.7725 18.1489 33.7331 18.0997C33.6642 18.0111 33.6051 17.9225 33.5461 17.824L33.0636 17.0462C33.1522 17.0068 33.231 16.9576 33.3098 16.9182C33.3787 16.8788 33.4378 16.8395 33.487 16.7804C33.5362 16.7312 33.5756 16.6721 33.5953 16.613C33.6248 16.5441 33.6347 16.4653 33.6347 16.3866C33.6347 16.2684 33.6051 16.1503 33.5362 16.0518C33.4673 15.9632 33.3787 15.8844 33.2802 15.8352C33.1621 15.7761 33.0341 15.7368 32.9061 15.7269C32.7584 15.7072 32.6009 15.6974 32.4532 15.6974H32.2858L31.5966 15.7269H31.5277C31.508 15.7269 31.4883 15.7368 31.4686 15.7368H31.252V15.8746L31.3505 15.8844C31.3997 15.8844 31.4489 15.8943 31.4883 15.914C31.5179 15.9238 31.5474 15.9435 31.5671 15.9632C31.5868 15.9829 31.5966 16.0124 31.5966 16.042V18.0899C31.5966 18.1785 31.5868 18.2375 31.5572 18.2671C31.508 18.2966 31.4489 18.3163 31.38 18.3163L31.2323 18.3458V18.4738C31.3209 18.464 31.4293 18.464 31.5376 18.464H32.2464C32.3744 18.464 32.4827 18.4738 32.591 18.4738L32.5713 18.3557ZM32.5418 16.8789C32.4237 16.9084 32.3055 16.9182 32.1874 16.9084V15.8549C32.2071 15.8549 32.2464 15.8549 32.276 15.8451H32.3646C32.5812 15.8451 32.7289 15.8943 32.8076 15.9927C32.8962 16.1109 32.9455 16.2586 32.9356 16.4063C32.9356 16.4752 32.9258 16.5441 32.8962 16.613C32.8667 16.6819 32.8273 16.7312 32.7683 16.7705C32.6993 16.8198 32.6206 16.8493 32.5418 16.8789ZM35.8598 18.3262L35.5447 18.3065C35.5053 18.3065 35.4758 18.2966 35.4463 18.2769C35.4266 18.2474 35.4167 18.2178 35.4266 18.1785V15.9829C35.4266 15.9435 35.4364 15.9041 35.4561 15.8746C35.4856 15.8549 35.5152 15.8451 35.5546 15.8451L35.8696 15.8057V15.6875C35.7515 15.6974 35.6038 15.6974 35.4069 15.6974H35.2887C34.7078 15.6974 34.4026 15.6974 34.3731 15.6875V15.8057L34.6881 15.8451C34.7275 15.8451 34.7571 15.8549 34.7866 15.8844C34.8063 15.914 34.8161 15.9534 34.8161 15.9927V18.1785C34.826 18.2178 34.8161 18.2474 34.7965 18.2769C34.7669 18.2966 34.7374 18.3065 34.698 18.3065L34.3829 18.3262V18.4738C34.4519 18.464 34.5405 18.464 34.6685 18.464H35.5939C35.7121 18.464 35.8105 18.4738 35.8795 18.4738L35.8598 18.3262ZM38.0652 18.4837C38.2523 18.4837 38.4393 18.4738 38.6264 18.4541C38.7544 18.4443 38.8824 18.4148 39.0104 18.3754C39.0301 18.3262 39.0399 18.2671 39.0596 18.208C39.0793 18.1489 39.0891 18.08 39.099 18.0209C39.1088 17.9619 39.1187 17.8929 39.1285 17.8339C39.1384 17.7748 39.1482 17.7256 39.1581 17.6763H39.0498C39.0005 17.765 38.9513 17.8536 38.8922 17.9323C38.843 18.0111 38.7741 18.0702 38.7052 18.1292C38.6362 18.1785 38.5575 18.2277 38.4689 18.2474C38.3704 18.2769 38.272 18.2966 38.1735 18.2868C38.0258 18.2868 37.8683 18.2671 37.7304 18.2179C37.5926 18.1686 37.4745 18.0899 37.376 17.9914C37.2677 17.8733 37.1889 17.7453 37.1397 17.5877C37.0806 17.4007 37.0511 17.1939 37.0511 16.997C37.0511 16.8198 37.0708 16.6327 37.1299 16.4555C37.1692 16.3176 37.248 16.1897 37.3465 16.0814C37.4351 15.9829 37.5532 15.914 37.6812 15.8647C37.8191 15.8155 37.9667 15.7958 38.1144 15.7958C38.2424 15.7958 38.3606 15.8155 38.4787 15.8549C38.5673 15.8943 38.6559 15.9435 38.7249 16.0223C38.7839 16.0912 38.843 16.1601 38.8725 16.2487C38.9021 16.3275 38.9316 16.4161 38.9415 16.5047H39.0793V16.3472V16.1503C39.0793 16.0814 39.0793 16.0124 39.0694 15.9534C39.0596 15.8943 39.0596 15.8451 39.0596 15.8057C38.9808 15.7663 38.8922 15.7368 38.8036 15.7171C38.6953 15.6875 38.587 15.6678 38.4689 15.658C38.3113 15.6383 38.1538 15.6285 37.9864 15.6285C37.7698 15.6285 37.5532 15.658 37.3563 15.7368C37.1692 15.8057 36.992 15.9041 36.8443 16.0321C36.6967 16.1601 36.5785 16.3176 36.4997 16.4949C36.4111 16.6819 36.3717 16.8887 36.3717 17.0955C36.3717 17.3022 36.4111 17.509 36.5096 17.6862C36.5982 17.8536 36.7262 18.0012 36.8837 18.1194C37.0412 18.2375 37.2283 18.3262 37.4154 18.3852C37.632 18.4541 37.8486 18.4837 38.0652 18.4837ZM41.1764 18.4837C41.5702 18.4837 41.8558 18.3852 42.033 18.1982C42.2102 18.0111 42.2988 17.7354 42.2988 17.3613V16.1306C42.2988 16.0124 42.3382 15.9534 42.4071 15.9337L42.6828 15.8746V15.7564C42.6434 15.7663 42.5646 15.7663 42.4465 15.7663H42.0822C41.8361 15.7663 41.6687 15.7663 41.5899 15.7564V15.8746L41.8754 15.9238C42.0034 15.9435 42.0724 16.0124 42.0724 16.1207V17.2333C42.0724 17.4007 42.0625 17.568 42.0231 17.7256C42.0034 17.8437 41.9444 17.952 41.8754 18.0406C41.8065 18.1194 41.7179 18.1785 41.6096 18.208C41.4816 18.2474 41.3536 18.2572 41.2158 18.2572C41.009 18.2671 40.8121 18.208 40.6447 18.08C40.5069 17.9422 40.438 17.7551 40.4478 17.568V16.1207C40.4478 16.0715 40.4577 16.0124 40.4872 15.9731C40.5168 15.9337 40.566 15.914 40.6054 15.914L40.8909 15.8844V15.7663C40.8613 15.7663 40.822 15.7663 40.7727 15.7761H39.798C39.6602 15.7761 39.542 15.7761 39.4337 15.7663V15.8844L39.7094 15.914C39.7488 15.914 39.7783 15.9337 39.798 15.9632C39.8177 16.0124 39.8276 16.0617 39.8177 16.1109V17.5779C39.8079 17.8437 39.9359 18.0899 40.1623 18.2375C40.4183 18.3951 40.753 18.4738 41.1764 18.4837ZM45.6857 17.7256H45.6069C45.538 17.8437 45.4592 17.952 45.3509 18.0406C45.2722 18.1096 45.1836 18.1686 45.095 18.208C45.0162 18.2375 44.9374 18.2671 44.8587 18.2769C44.7897 18.2868 44.7307 18.2868 44.6618 18.2868H44.2089C44.1498 18.2868 44.1104 18.2769 44.1006 18.2572C44.0809 18.2277 44.0809 18.1982 44.0809 18.1785V16.0814C44.0809 16.0223 44.0907 15.9927 44.1104 15.9731C44.1399 15.9534 44.1695 15.9435 44.199 15.9435L44.4944 15.8844V15.7761C44.4156 15.786 44.2384 15.786 43.943 15.786H43.8249C43.5197 15.786 43.2834 15.786 43.1258 15.7761V15.8844L43.372 15.9435L43.4606 15.9731C43.4803 15.9829 43.4901 16.0223 43.4901 16.0715V18.2277C43.4901 18.2769 43.4507 18.3065 43.372 18.3163L43.0569 18.3754V18.4738C43.1554 18.464 43.3031 18.464 43.5098 18.464H45.0457C45.2623 18.464 45.4297 18.4738 45.5577 18.4738L45.6857 17.7256ZM47.4087 18.3655L47.0444 18.2966C46.9952 18.2868 46.9558 18.2671 46.9164 18.2375C46.8967 18.1883 46.8869 18.1391 46.8869 18.0899V16.0518H47.3496C47.4185 16.0518 47.4776 16.0518 47.5465 16.0715C47.6351 16.0912 47.7041 16.1503 47.7336 16.2389C47.7533 16.2783 47.7631 16.3275 47.7828 16.3767C47.7927 16.4161 47.8025 16.4555 47.8222 16.4949C47.832 16.5146 47.8517 16.5244 47.8714 16.5343C47.8813 16.5441 47.901 16.5343 47.901 16.5244C47.9108 16.5047 47.9108 16.4949 47.9108 16.4752L47.9207 15.7171C47.9207 15.658 47.901 15.6383 47.8616 15.6383C47.8222 15.6383 47.8124 15.6678 47.7828 15.7171C47.773 15.7368 47.7631 15.7565 47.7434 15.7761C47.7336 15.7958 47.7139 15.8057 47.6942 15.8155C47.6647 15.8254 47.645 15.8352 47.6154 15.8352H45.6069C45.5872 15.8352 45.5676 15.8352 45.5479 15.8254C45.5282 15.8155 45.5183 15.8057 45.4986 15.7958C45.4789 15.7761 45.4691 15.7565 45.4592 15.7269C45.4199 15.6678 45.4002 15.6383 45.3706 15.6383C45.3411 15.6383 45.3313 15.6777 45.3116 15.7466L45.1639 16.357C45.154 16.3964 45.1442 16.4358 45.1442 16.4653C45.1343 16.485 45.1442 16.5146 45.1442 16.5343C45.154 16.5441 45.1639 16.5441 45.1836 16.5343C45.223 16.5047 45.2525 16.4752 45.282 16.4358C45.3411 16.357 45.3903 16.2881 45.4297 16.2389L45.5479 16.1207C45.5774 16.0912 45.6168 16.0814 45.6562 16.0617C45.6955 16.0518 45.7448 16.0518 45.7842 16.0518H46.2666V18.0899C46.2666 18.1489 46.2567 18.1982 46.2272 18.2474C46.178 18.2868 46.1189 18.3163 46.05 18.3262L45.6955 18.3852V18.4935C45.7152 18.4935 45.7448 18.4935 45.794 18.4837H47.2019C47.261 18.4837 47.3201 18.4837 47.3595 18.4935L47.4087 18.3655ZM49.9882 18.4738C50.3722 18.4738 50.6577 18.3754 50.8251 18.1883C50.9925 18.0013 51.0811 17.7256 51.0811 17.3514V16.1306C51.0811 16.0124 51.1106 15.9534 51.1796 15.9337L51.4552 15.8746V15.7564C51.4158 15.7663 51.3371 15.7663 51.2189 15.7663H50.8645C50.6184 15.7663 50.4608 15.7663 50.3919 15.7564V15.8746L50.6676 15.9238C50.7956 15.9435 50.8645 16.0124 50.8645 16.1207V17.2333C50.8645 17.4007 50.8546 17.568 50.8153 17.7256C50.7956 17.8437 50.7463 17.952 50.6676 18.0406C50.5987 18.1194 50.5101 18.1785 50.4116 18.208C50.2836 18.2474 50.1556 18.2572 50.0276 18.2572C49.8307 18.2671 49.6338 18.208 49.4763 18.08C49.3384 17.9422 49.2695 17.7551 49.2892 17.568V16.1207C49.2892 16.0715 49.299 16.0124 49.3286 15.9731C49.3581 15.9337 49.3975 15.914 49.4467 15.914L49.7322 15.8844V15.7663C49.7027 15.7663 49.6633 15.7663 49.6141 15.7761H48.6689C48.5311 15.7761 48.4228 15.7761 48.3145 15.7663V15.8844L48.5902 15.914C48.6295 15.914 48.6591 15.9337 48.6788 15.9632C48.6985 16.0124 48.7083 16.0617 48.6985 16.1109V17.5779C48.6886 17.8437 48.8166 18.0899 49.0332 18.2375C49.2498 18.3951 49.5747 18.4738 49.9882 18.4738ZM53.2274 18.3557L53.001 18.3065C52.9419 18.2966 52.8927 18.2769 52.8435 18.2375C52.8139 18.1982 52.7942 18.1391 52.7942 18.0899V17.1841H52.9419C52.9911 17.1841 53.0305 17.1939 53.0699 17.2136C53.1093 17.2431 53.1388 17.2727 53.1684 17.3121L53.8379 18.464H54.9012V18.3458C54.8224 18.336 54.7535 18.3262 54.6944 18.3163C54.6354 18.3065 54.5861 18.2868 54.5271 18.2572C54.468 18.2179 54.4188 18.1785 54.3695 18.1194C54.3006 18.0406 54.2317 17.952 54.1825 17.8536L53.6902 17.0955C53.7788 17.0561 53.8674 17.0167 53.9363 16.9773C54.0052 16.9379 54.0643 16.8985 54.1234 16.8493C54.2218 16.7509 54.2809 16.613 54.2711 16.4653C54.2711 16.3472 54.2415 16.2389 54.1726 16.1404C54.1037 16.0518 54.0151 15.9731 53.9068 15.9337C53.7886 15.8746 53.6606 15.8451 53.5228 15.8254C53.3653 15.8057 53.2176 15.7958 53.0601 15.7958H52.8828L52.174 15.8254H52.105C52.0854 15.8254 52.0657 15.8254 52.046 15.8352H51.8195V15.9731L51.918 15.9829C51.9672 15.9829 52.0164 15.9927 52.0657 16.0124C52.0952 16.0223 52.1247 16.042 52.1444 16.0617C52.1641 16.0814 52.174 16.1109 52.174 16.1404V18.1292C52.174 18.2178 52.1543 18.2769 52.1247 18.2966C52.0657 18.3262 52.0066 18.3458 51.9475 18.3458L51.7998 18.3754V18.4935C51.8884 18.4837 51.9967 18.4837 52.1149 18.4837H52.8435C52.9715 18.4837 53.0896 18.4935 53.1979 18.4935L53.2274 18.3557ZM53.1684 16.9478C53.0502 16.9773 52.9321 16.9773 52.8139 16.9773V15.9337C52.8336 15.9337 52.873 15.9337 52.9025 15.9238H52.9911C53.2078 15.9238 53.3554 15.9731 53.4342 16.0715C53.5228 16.1897 53.572 16.3373 53.5622 16.485C53.5622 16.5539 53.5523 16.6229 53.5228 16.6918C53.4933 16.7607 53.4539 16.8099 53.3948 16.8493C53.3259 16.8887 53.2471 16.9281 53.1684 16.9478ZM57.9927 18.3557L57.7564 18.2769C57.717 18.2671 57.6875 18.2572 57.658 18.2277C57.6383 18.1982 57.6186 18.1686 57.5989 18.1292L56.6537 15.6186H56.447L55.4427 18.1588C55.4132 18.2474 55.3344 18.3065 55.2458 18.3163L54.98 18.336V18.464C55.0095 18.464 55.0686 18.4541 55.1572 18.4541H55.8661C55.9547 18.4541 56.0138 18.4541 56.0433 18.464V18.336L55.7578 18.3163C55.679 18.3065 55.6396 18.2966 55.6298 18.2769C55.6199 18.2474 55.6298 18.208 55.6396 18.1785L55.9645 17.3416H56.6734L56.9688 18.1391C56.9885 18.1982 56.9983 18.2375 56.9885 18.2572C56.9786 18.2769 56.9294 18.2966 56.8506 18.3065L56.5848 18.3458V18.464C56.7325 18.4541 56.9195 18.4541 57.146 18.4541H57.7958C57.8943 18.4541 57.9632 18.464 58.0026 18.464L57.9927 18.3557ZM56.6439 17.125H56.0433L56.3682 16.3767L56.6439 17.125ZM60.9956 17.7157H60.9169C60.8479 17.8339 60.7692 17.952 60.6609 18.0406C60.5821 18.1096 60.4935 18.1686 60.4049 18.208C60.3261 18.2474 60.2474 18.2671 60.1686 18.2769C60.0898 18.2868 60.0209 18.2868 59.9717 18.2868H59.5188C59.4597 18.2868 59.4203 18.2769 59.4105 18.2572C59.3908 18.2277 59.3908 18.1982 59.3908 18.1686V16.0026C59.3908 15.9435 59.4006 15.9041 59.4203 15.8943C59.4499 15.8746 59.4794 15.8647 59.5089 15.8647L59.8043 15.8057V15.6875C59.7255 15.6974 59.5483 15.6974 59.253 15.6974H59.1348C58.8197 15.6974 58.5933 15.6974 58.4259 15.6875V15.8057L58.6721 15.8647C58.7016 15.8746 58.7311 15.8844 58.7607 15.9041C58.7804 15.914 58.7902 15.9534 58.7902 16.0124V18.2179C58.7902 18.2671 58.7508 18.2966 58.6721 18.3065L58.357 18.3655V18.4738C58.4555 18.464 58.6031 18.464 58.8099 18.464H60.3458C60.5624 18.464 60.7298 18.4738 60.8578 18.4738L60.9956 17.7157ZM63.4669 18.4738C63.6343 18.4738 63.8016 18.4541 63.9592 18.4148C64.1068 18.3754 64.2447 18.3163 64.3727 18.2474C64.481 18.1785 64.5794 18.0899 64.6484 17.9816C64.7173 17.8831 64.7468 17.765 64.7468 17.6468C64.7468 17.5385 64.7271 17.4302 64.6779 17.3317C64.6385 17.2431 64.5696 17.1742 64.5007 17.1151C64.4219 17.0561 64.3234 17.0068 64.2348 16.9773C64.1265 16.9379 64.0084 16.9182 63.8902 16.8985C63.969 16.8788 64.0478 16.8592 64.1265 16.8198C64.1955 16.7902 64.2644 16.741 64.3136 16.6918C64.3628 16.6426 64.4121 16.5835 64.4416 16.5244C64.4711 16.4653 64.4908 16.3964 64.4908 16.3275C64.4908 16.2192 64.4613 16.1109 64.3924 16.0223C64.3234 15.9435 64.2348 15.8746 64.1462 15.8352C64.0379 15.786 63.9198 15.7564 63.8016 15.7368C63.6736 15.7171 63.5456 15.7072 63.4177 15.7072C63.3684 15.7072 63.2601 15.7072 63.0829 15.7171C62.9057 15.7269 62.6694 15.7368 62.3937 15.7466L62.1279 15.7564V15.8844L62.3149 15.914C62.3543 15.914 62.3937 15.9238 62.4331 15.9337C62.4528 15.9337 62.4725 15.9435 62.4922 15.9632C62.502 15.973 62.5119 15.9829 62.5119 16.0026V18.0505C62.5217 18.1095 62.502 18.1686 62.4725 18.2179C62.4429 18.2474 62.4036 18.2769 62.3543 18.2868L62.1279 18.336V18.4738H63.4669ZM63.3783 16.8296H63.142C63.1026 16.8296 63.0632 16.8296 63.0238 16.8198V15.8943C63.142 15.8648 63.27 15.8549 63.3881 15.8549C63.457 15.8549 63.526 15.8647 63.5949 15.8844C63.6539 15.9041 63.713 15.9337 63.7721 15.9731C63.8213 16.0124 63.8607 16.0518 63.8902 16.1109C63.9198 16.17 63.9296 16.2389 63.9296 16.298C63.9395 16.4456 63.8902 16.5835 63.7918 16.6918C63.6638 16.7902 63.5161 16.8395 63.3783 16.8296ZM63.4866 18.3262C63.3684 18.336 63.2404 18.3065 63.142 18.2375C63.0534 18.1785 63.014 18.08 63.014 17.9717V16.997C63.0731 16.9871 63.1321 16.9872 63.1912 16.9872H63.3586C63.7032 16.9379 64.0182 17.1841 64.0675 17.5287C64.0773 17.5877 64.0773 17.6468 64.0675 17.696C64.0773 17.8634 64.0182 18.0308 63.9099 18.1588C63.8016 18.2769 63.6441 18.336 63.4866 18.3262ZM68.0451 18.3557L67.8186 18.2769C67.7891 18.2671 67.7497 18.2572 67.73 18.2277C67.7103 18.1982 67.6906 18.1686 67.6808 18.1292L66.7652 15.6186H66.5584L65.5837 18.1588C65.564 18.2474 65.4852 18.3065 65.3966 18.3163L65.1308 18.336V18.464C65.1603 18.464 65.2194 18.4541 65.2982 18.4541H65.9874C66.076 18.4541 66.1252 18.4541 66.1547 18.464V18.336L65.8791 18.3163C65.8003 18.3065 65.7609 18.2966 65.7511 18.2769C65.7412 18.2474 65.7511 18.208 65.7609 18.1785L66.076 17.3416H66.7652L67.0507 18.1391C67.0704 18.1982 67.0802 18.2375 67.0704 18.2572C67.0605 18.2769 67.0113 18.2966 66.9325 18.3065L66.6667 18.3458V18.464C66.8045 18.4541 66.9916 18.4541 67.2082 18.4541H67.8383C67.9269 18.4541 67.9959 18.464 68.0352 18.464L68.0451 18.3557ZM66.6962 17.2038H66.1646L66.4501 16.3767L66.6962 17.2038ZM71.1465 18.4837V16.101C71.1465 16.042 71.1465 15.9829 71.1661 15.9238C71.176 15.8844 71.2055 15.8549 71.2548 15.8549L71.5009 15.8352V15.6974C71.432 15.7072 71.3631 15.7072 71.2941 15.7072H70.9692C70.7428 15.7072 70.5951 15.7072 70.5163 15.6974V15.8352L70.8314 15.8746C70.8806 15.8746 70.92 15.8943 70.9495 15.9337C70.9791 15.9829 70.9889 16.042 70.9889 16.101V17.5188L69.4333 15.8254C69.4136 15.7958 69.3841 15.7761 69.3546 15.7564C69.3349 15.7368 69.3053 15.7269 69.2758 15.7269C69.2463 15.7171 69.2069 15.7171 69.1675 15.7171H68.4192V15.8746L68.6654 15.914C68.7343 15.9238 68.7934 15.9632 68.8229 16.0321C68.8524 16.1306 68.8721 16.229 68.8623 16.3275V18.0702C68.8721 18.1194 68.8524 18.1686 68.8229 18.1982C68.7638 18.2277 68.7048 18.2572 68.6457 18.2572L68.4192 18.2966V18.4246C68.6358 18.4148 68.8327 18.4148 69.0001 18.4148C69.1675 18.4148 69.3349 18.4148 69.5022 18.4246V18.2966L69.1773 18.2572C69.138 18.2572 69.0986 18.2375 69.069 18.208C69.0493 18.1588 69.0395 18.1096 69.0395 18.0603V16.2487L71.048 18.464L71.1465 18.4837ZM75.2422 18.336L75.0946 18.3065C75.065 18.2966 75.0355 18.2868 75.0059 18.2671C74.9764 18.2474 74.9469 18.2277 74.9272 18.208C74.9075 18.1883 74.8681 18.1588 74.809 18.1194C74.75 18.08 74.6909 18.0209 74.6023 17.9619L73.4405 16.9379L74.1494 16.2684C74.2281 16.1897 74.3069 16.1306 74.4054 16.0715C74.4743 16.0321 74.5432 15.9927 74.622 15.9534C74.6909 15.9238 74.75 15.9041 74.7992 15.8746C74.8583 15.8549 74.9173 15.8352 74.9764 15.8352V15.6974C74.8878 15.7072 74.7106 15.7072 74.425 15.7072H74.3561C74.11 15.7072 73.9525 15.7072 73.8737 15.6974V15.8352L74.1395 15.8746C74.1789 15.8844 74.1986 15.8943 74.1986 15.9238C74.1986 15.9337 74.1986 15.9435 74.1888 15.9632L74.1592 15.9927C74.1494 16.0026 74.1297 16.0223 74.1001 16.042C74.0706 16.0617 74.0411 16.0912 74.0017 16.1306L73.283 16.7902C73.2436 16.8198 73.2042 16.8592 73.1648 16.8887C73.1156 16.9281 73.0762 16.9576 73.027 16.9872C72.9777 17.0167 72.9384 17.0462 72.8891 17.0758V15.9731C72.8891 15.9435 72.8891 15.914 72.9088 15.8844C72.9384 15.8647 72.9679 15.8549 72.9974 15.8549L73.1845 15.8155V15.6974C73.155 15.6974 73.1156 15.6974 73.0565 15.7072H72.1113C72.0818 15.7072 72.0523 15.7072 72.0227 15.6974V15.8155L72.2393 15.8549C72.2689 15.8549 72.2984 15.8647 72.3279 15.8844C72.3378 15.8943 72.3476 15.9337 72.3476 15.9829V18.1489C72.3476 18.1883 72.3476 18.2277 72.3279 18.2572C72.3082 18.2769 72.2689 18.2966 72.2393 18.2966L72.0227 18.336V18.4738C72.0818 18.464 72.1606 18.464 72.2689 18.464H72.9974C73.0959 18.464 73.1747 18.4738 73.2239 18.4738V18.336L73.0368 18.2868C73.0073 18.2868 72.9777 18.2671 72.9482 18.2474C72.9285 18.2179 72.9187 18.1883 72.9285 18.1489V17.2431L72.9482 17.253L72.9876 17.2825C73.0467 17.3317 73.1156 17.381 73.1845 17.4302L74.0017 18.1489C74.0411 18.1785 74.0608 18.208 74.0804 18.2474C74.0804 18.2671 74.0608 18.2769 74.0115 18.2868L73.6965 18.336V18.464L73.8638 18.4541L74.1001 18.4443H74.9764C75.0847 18.4443 75.1832 18.4541 75.2619 18.4541L75.2422 18.336ZM78.0581 18.4837C78.2747 18.4837 78.4814 18.4541 78.6882 18.3852C78.8654 18.3262 79.0328 18.2277 79.1706 18.0997C79.3085 17.9816 79.4069 17.8339 79.4857 17.6665C79.5645 17.4893 79.594 17.3022 79.594 17.1151C79.6038 16.7312 79.4463 16.3669 79.1608 16.101C79.023 15.9731 78.8556 15.8746 78.6784 15.8057C78.4814 15.7368 78.2845 15.6974 78.0778 15.6974C77.871 15.6974 77.6643 15.7269 77.4772 15.7958C77.2901 15.8549 77.1227 15.9534 76.9849 16.0814C76.8471 16.2093 76.7289 16.357 76.6502 16.5244C76.5615 16.7016 76.5222 16.9084 76.5222 17.1053C76.5222 17.3022 76.5615 17.4893 76.6403 17.6665C76.7191 17.8339 76.8274 17.9816 76.9652 18.0997C77.1129 18.2179 77.2803 18.3163 77.4575 18.3754C77.6446 18.4345 77.8513 18.4738 78.0581 18.4837ZM78.1172 18.336C77.9793 18.336 77.8513 18.3065 77.7332 18.2375C77.6249 18.1686 77.5264 18.08 77.4477 17.9717C77.3689 17.8634 77.3 17.7354 77.2704 17.5976C77.231 17.4597 77.2114 17.3121 77.2114 17.1742C77.2114 17.0167 77.2311 16.869 77.2606 16.7115C77.2901 16.5736 77.3492 16.4358 77.428 16.3177C77.4969 16.2093 77.5953 16.1109 77.7036 16.042C77.8218 15.9731 77.9596 15.9337 78.1073 15.9337C78.2451 15.9337 78.383 15.9632 78.5011 16.0321C78.6193 16.101 78.7079 16.1897 78.7867 16.298C78.8654 16.4161 78.9245 16.5539 78.954 16.6918C78.9934 16.8493 79.0131 17.0068 79.0131 17.1644C79.0131 17.5483 78.9343 17.8437 78.7867 18.0406C78.5996 18.2375 78.3633 18.336 78.1172 18.336ZM81.5336 18.3163L81.2973 18.2868L81.2185 18.2769C81.1988 18.2769 81.1791 18.2671 81.1693 18.2572C81.1594 18.2474 81.1496 18.2277 81.1398 18.208C81.1299 18.1785 81.1299 18.1489 81.1299 18.1194V17.1151H81.9569C81.9766 17.1151 82.0062 17.125 82.0259 17.125C82.0456 17.1348 82.0554 17.1447 82.0751 17.1644C82.0849 17.1841 82.0948 17.2136 82.1046 17.2333L82.2031 17.509H82.3114C82.3015 17.3416 82.3015 17.1644 82.3015 16.9773V16.7312C82.3015 16.6622 82.3015 16.5933 82.3114 16.5441H82.1932L82.1145 16.8099C82.1145 16.8493 82.0948 16.8887 82.0652 16.9182C82.0259 16.9379 81.9865 16.9478 81.9471 16.9379H81.1299V16.101C81.1299 16.0518 81.1398 16.0026 81.1595 15.9534C81.189 15.9238 81.2284 15.9041 81.2677 15.914H82.1046C82.144 15.914 82.1834 15.914 82.2228 15.9337C82.2622 15.9435 82.2917 15.9731 82.3114 16.0026C82.3409 16.0518 82.3705 16.101 82.3902 16.1503C82.4197 16.2192 82.4492 16.3078 82.4886 16.4161H82.5969V15.9829V15.8647V15.7564V15.6777C82.528 15.6777 82.4492 15.6777 82.3508 15.6875H80.7459C80.4309 15.6875 80.234 15.6875 80.165 15.6777V15.7958L80.421 15.8254C80.4604 15.8254 80.4998 15.8451 80.5195 15.8844C80.5392 15.9337 80.5392 15.9829 80.5392 16.0321V18.1096C80.5392 18.1489 80.5293 18.1883 80.5096 18.2277C80.4801 18.2572 80.4407 18.2671 80.4013 18.2671L80.1158 18.2966V18.4541C80.1847 18.4443 80.2832 18.4443 80.4112 18.4443H81.1791C81.3071 18.4443 81.4253 18.4541 81.5336 18.4541V18.3163ZM85.5506 18.4738C85.7377 18.4738 85.9247 18.464 86.1118 18.4443C86.2398 18.4345 86.3678 18.4049 86.4958 18.3655C86.5155 18.3163 86.5253 18.2572 86.545 18.1982C86.5647 18.1391 86.5745 18.0702 86.5844 18.0111C86.5942 17.952 86.6041 17.8831 86.6139 17.824C86.6238 17.765 86.6336 17.7157 86.6435 17.6665H86.5352C86.4859 17.7551 86.4367 17.8437 86.3776 17.9225C86.3284 18.0012 86.2595 18.0603 86.1906 18.1194C86.1216 18.1686 86.0429 18.2179 85.9543 18.2375C85.8558 18.2671 85.7574 18.2868 85.6589 18.2769C85.5112 18.2769 85.3537 18.2572 85.2158 18.208C85.078 18.1588 84.9599 18.08 84.8614 17.9816C84.7531 17.8634 84.6743 17.7354 84.6251 17.5779C84.566 17.3908 84.5365 17.1841 84.5365 16.9872C84.5365 16.8099 84.5562 16.6229 84.6153 16.4456C84.6546 16.3078 84.7334 16.1798 84.8319 16.0715C84.9205 15.9731 85.0386 15.9041 85.1568 15.8549C85.2946 15.8057 85.4423 15.786 85.59 15.786C85.718 15.786 85.8361 15.8057 85.9543 15.8451C86.0429 15.8844 86.1315 15.9337 86.2004 16.0124C86.2595 16.0814 86.3186 16.1503 86.3481 16.2389C86.3776 16.3177 86.3973 16.4063 86.417 16.4949H86.5548V16.3373V16.1404C86.5548 16.0715 86.5548 16.0026 86.545 15.9435C86.5352 15.8844 86.5352 15.8352 86.5352 15.7958C86.4564 15.7565 86.3678 15.7269 86.2792 15.7072C86.1709 15.6777 86.0626 15.6481 85.9543 15.6383C85.7967 15.6186 85.6392 15.6088 85.4817 15.6088C85.2651 15.6088 85.0485 15.6383 84.8516 15.7171C84.6645 15.786 84.4873 15.8844 84.3396 16.0124C84.1919 16.1404 84.0737 16.298 83.995 16.4752C83.9064 16.6622 83.867 16.869 83.867 17.0758C83.867 17.2825 83.9064 17.4893 84.0048 17.6665C84.0934 17.8339 84.2214 17.9816 84.379 18.0997C84.5365 18.2179 84.7236 18.3065 84.9106 18.3655C85.1174 18.4443 85.334 18.4738 85.5506 18.4738ZM90.3159 18.2868L90.0205 18.2277C89.9811 18.2277 89.9516 18.208 89.922 18.1785C89.9122 18.1391 89.9024 18.0899 89.9024 18.0505V16.0026C89.9024 15.9632 89.9024 15.9238 89.922 15.8943C89.9417 15.8746 89.9614 15.8549 89.991 15.8549L90.2666 15.8155V15.7072C90.2174 15.7171 90.1386 15.7171 90.0205 15.7171H89.1738C89.0655 15.7171 88.9769 15.7072 88.9276 15.7072V15.8155L89.1245 15.8451C89.1541 15.8451 89.1738 15.8647 89.1935 15.8844C89.2132 15.9238 89.2132 15.9632 89.2132 16.0026V16.9379H88.2483V16.0026C88.2483 15.9632 88.2483 15.9238 88.268 15.8943C88.2877 15.8746 88.3074 15.8549 88.3369 15.8549L88.6323 15.8155V15.7072C88.583 15.7171 88.5043 15.7171 88.3861 15.7171H87.5197C87.4114 15.7171 87.3228 15.7072 87.2736 15.7072V15.8155L87.4705 15.8451C87.5 15.8451 87.5296 15.8647 87.5394 15.8844C87.5591 15.9238 87.5591 15.9632 87.5591 16.0026V18.0505C87.5591 18.0899 87.5591 18.1391 87.5394 18.1785C87.5197 18.208 87.4902 18.2277 87.4508 18.2277L87.1554 18.2868V18.3951C87.2243 18.3852 87.3228 18.3852 87.4311 18.3852H88.2877C88.3467 18.3852 88.396 18.3852 88.4452 18.3951L88.5732 18.4049V18.2966L88.3369 18.2572C88.3074 18.2572 88.2778 18.2375 88.268 18.208C88.2581 18.1588 88.2483 18.1096 88.2483 18.0603V17.1447H89.2132V18.0603C89.2132 18.1096 89.2132 18.1588 89.1935 18.208C89.1836 18.2375 89.1541 18.2572 89.1245 18.2572L88.8883 18.2966V18.4049L89.0163 18.3951C89.0655 18.3951 89.1147 18.3951 89.1738 18.3852H90.0205C90.1386 18.3852 90.2273 18.3951 90.2962 18.3951L90.3159 18.2868ZM92.1176 18.2474L91.8715 18.2277C91.8419 18.2277 91.8124 18.2179 91.7927 18.1982C91.773 18.1686 91.773 18.1292 91.773 18.0997V15.9829C91.773 15.9435 91.773 15.914 91.7927 15.8844C91.8124 15.8647 91.8419 15.8549 91.8715 15.8549L92.1176 15.8155V15.6974C92.029 15.7072 91.901 15.7072 91.7435 15.7072H91.645C91.1823 15.7072 90.8574 15.7072 90.8377 15.6974V15.8057L91.0838 15.8451C91.1134 15.8451 91.1429 15.8549 91.1626 15.8746C91.1823 15.9041 91.1921 15.9435 91.1823 15.9731V18.0997C91.1921 18.1292 91.1823 18.1686 91.1626 18.1982C91.1429 18.2179 91.1134 18.2277 91.0838 18.2277L90.8377 18.2474V18.3951C90.8869 18.3852 90.9657 18.3852 91.0641 18.3852H91.8813C91.9798 18.3852 92.0585 18.3951 92.1078 18.3951L92.1176 18.2474ZM95.3667 18.4738V16.1503C95.3667 16.0912 95.3667 16.0321 95.3864 15.9829C95.3962 15.9435 95.4356 15.914 95.475 15.914L95.731 15.8943V15.7663C95.6916 15.7663 95.6227 15.7761 95.5144 15.7761H95.1895C94.963 15.7761 94.8055 15.7761 94.7267 15.7663V15.8943L95.0516 15.9337C95.1008 15.9337 95.1402 15.9534 95.1698 15.9927C95.1993 16.042 95.2091 16.0912 95.2091 16.1503V17.7256L93.7717 15.8057C93.7421 15.7761 93.7225 15.7564 93.6929 15.7368C93.6732 15.7171 93.6437 15.7072 93.6142 15.7072C93.5748 15.6974 93.5452 15.6974 93.5059 15.6974H92.728V15.8451L92.984 15.8844C93.0529 15.8943 93.112 15.9337 93.1514 15.9927C93.1809 16.1404 93.2006 16.2783 93.1908 16.4259V18.08C93.2006 18.1292 93.1809 18.1785 93.1416 18.208C93.0825 18.2375 93.0234 18.2572 92.9545 18.2671L92.7182 18.3065V18.4246C92.9446 18.4148 93.1416 18.4148 93.3188 18.4148C93.496 18.4148 93.6634 18.4148 93.8308 18.4246V18.3065L93.4862 18.2671C93.4468 18.2671 93.4074 18.2572 93.3779 18.2277C93.3582 18.1883 93.3483 18.1391 93.3483 18.0899V16.3669L94.9335 18.4738H95.3667ZM99.0982 18.2769L98.8816 18.208C98.852 18.1982 98.8225 18.1883 98.7929 18.1588C98.7732 18.1292 98.7536 18.0997 98.7437 18.0603L97.7198 15.6186H97.5229L96.5974 18.0899C96.5777 18.1785 96.4989 18.2375 96.4202 18.2474L96.174 18.2671V18.3852C96.2035 18.3852 96.2528 18.3852 96.3315 18.3754H96.9814C97.0601 18.3754 97.1192 18.3754 97.1389 18.3852V18.2671L96.873 18.2474C96.8041 18.2375 96.7647 18.2277 96.7549 18.208C96.7451 18.1785 96.7549 18.1391 96.7647 18.1096L97.0601 17.2924H97.7887L98.0644 18.0702C98.0841 18.1292 98.0939 18.1686 98.0841 18.1883C98.0742 18.208 98.0348 18.2277 97.9561 18.2375L97.7099 18.2769V18.3951C97.8478 18.3852 98.0151 18.3852 98.2219 18.3852H98.9012C98.9899 18.3852 99.0489 18.3951 99.0883 18.3951L99.0982 18.2769ZM97.7493 17.125H97.1487L97.4342 16.3767L97.7493 17.125Z" fill="black"/>
</svg>
