<svg width="100" height="24" viewBox="0 0 100 24" fill="none" xmlns="http://www.w3.org/2000/svg">
<path d="M39.5898 20.5254L37.793 16.7461H37.5195L35.8594 20.6621C35.5859 21.1992 35.5859 21.4727 35.166 21.4727V21.6094H36.6895V21.4727C36.416 21.4727 36.1328 21.4727 36.1328 21.1992C36.1328 21.0625 36.2695 20.7988 36.4062 20.252H38.0664C38.2031 20.3887 38.4766 20.9258 38.4766 21.1992C38.4766 21.4727 38.3398 21.4727 37.9199 21.4727V21.6094H40.4102V21.4727C40 21.4727 40 21.1992 39.5898 20.5254ZM37.2363 18.2305L37.9297 19.8516H36.543L37.2363 18.2305ZM44.5605 16.834V16.9707C45.1172 16.9707 45.2539 17.2441 45.2539 17.6445V19.8027L42.627 16.834H40.9668V16.9707C41.1035 16.9707 41.1035 16.9707 41.6602 17.5078V20.8867C41.6602 21.2871 41.5234 21.4238 40.9668 21.4238V21.5605H42.7637V21.4238C42.207 21.4238 42.0703 21.2871 42.0703 20.75V17.918L45.5273 21.6973H45.8008V17.5078C45.8008 17.2344 45.8008 16.9707 46.3574 16.9707L46.2207 16.834H44.5605ZM52.0312 21.3359C52.0312 21.3359 49.8145 18.9043 49.6777 18.6309C50.918 17.4199 51.3379 17.0098 52.168 17.0098V16.873H49.9512V17.0098C50.5078 17.0098 50.6445 17.1465 50.6445 17.2832C50.6445 17.4199 50.6445 17.4199 50.3711 17.6836C50.3711 17.6836 48.9844 18.8945 48.7109 19.168V17.6836C48.7109 17.1465 48.9844 17.1465 49.4043 17.0098V16.873H46.7773V17.0098C47.1875 17.0098 47.4707 17.0098 47.4707 17.5469V21.0625C47.4707 21.4629 47.1973 21.4629 46.7773 21.5996V21.7363H49.4043V21.5996C48.9941 21.5996 48.7109 21.4629 48.7109 21.0625V19.7148L48.8477 19.5781L50.2344 21.1992C50.3711 21.3359 50.3711 21.4727 50.3711 21.4727C50.3711 21.6094 50.2344 21.6094 49.8145 21.6094V21.7461H52.4414V21.4727C52.3047 21.4727 52.168 21.4727 52.0312 21.3359ZM54.9316 19.1777C54.9316 19.8516 55.2051 20.5254 55.7617 21.0723C56.3184 21.4727 57.002 21.7461 57.6953 21.7461C58.5254 21.7461 59.2187 21.4727 59.6289 21.0723C60.1855 20.6719 60.459 19.9883 60.459 19.1777C60.459 17.6934 59.3555 16.6094 57.6953 16.6094C56.0352 16.6094 54.9316 17.6934 54.9316 19.1777ZM57.6953 17.0098C58.9355 17.0098 59.082 17.957 59.082 19.3047C59.082 20.6523 58.6719 21.5996 57.6953 21.5996C56.8652 21.5996 56.3086 20.6523 56.3086 19.3047C56.3086 17.957 56.5918 17.0098 57.6953 17.0098ZM60.8789 16.7461V16.8828C61.2891 16.8828 61.5723 16.8828 61.5723 17.4199V20.9355C61.5723 21.3359 61.2988 21.3359 60.8789 21.4727V21.6094H63.6426V21.4727C63.0859 21.4727 62.8125 21.4727 62.8125 20.9355V19.3145C63.7793 19.3145 63.916 19.8516 63.916 20.3984H64.0527V17.9668H63.916C63.7793 18.5039 63.7793 19.0508 62.8125 19.0508V17.4297C62.8125 17.1563 62.9492 17.1562 63.3691 17.1562C64.7559 17.1562 64.8926 17.5566 65.0293 18.3672H65.166L65.3027 16.7461H60.8789ZM72.1191 19.4121C71.9238 19.2266 71.582 19.0996 71.1035 19.041C71.5137 18.9043 72.207 18.7676 72.207 17.957C72.207 17.1465 71.5137 16.7461 70.1367 16.7461H67.7832V16.8828C68.1934 16.8828 68.4766 16.8828 68.4766 17.4199V20.9355C68.4766 21.3359 68.2031 21.3359 67.7832 21.4727V21.6094H70.2734C71.9336 21.6094 72.4902 20.6523 72.4902 20.2617C72.4902 19.8613 72.3145 19.5977 72.1191 19.4121ZM69.8633 17.2832C69.8633 17.1465 69.8633 17.0098 70.2734 17.0098C70.8301 17.0098 71.1523 17.4199 71.1035 17.957C71.0547 18.4941 70.8301 18.9043 69.8633 18.9043V17.2832ZM70 19.1777C70.5566 19.1777 71.1035 19.3145 71.1035 20.2617C71.1035 20.9355 70.8301 21.3457 70.1367 21.3457C70 21.3457 69.8633 21.3457 69.8633 20.9453V19.1875H70V19.1777ZM34.6582 19.4121C34.4629 19.2266 34.1211 19.0996 33.6426 19.041C34.0527 18.9043 34.7461 18.7676 34.7461 17.957C34.7461 17.1465 34.0527 16.7461 32.6758 16.7461H30.3223V16.8828C30.7324 16.8828 31.0156 16.8828 31.0156 17.4199V20.9355C31.0156 21.3359 30.7422 21.3359 30.3223 21.4727V21.6094H32.8125C34.4727 21.6094 35.0293 20.6523 35.0293 20.2617C35.0195 19.8613 34.8535 19.5977 34.6582 19.4121ZM32.3926 17.2832C32.3926 17.1465 32.3926 17.0098 32.8027 17.0098C33.3594 17.0098 33.6816 17.4199 33.6328 17.957C33.584 18.4941 33.3594 18.9043 32.3926 18.9043V17.2832ZM32.5391 19.1777C33.0957 19.1777 33.6426 19.3145 33.6426 20.2617C33.6426 20.9355 33.3691 21.3457 32.6758 21.3457C32.5391 21.3457 32.4023 21.3457 32.4023 20.9453V19.1875H32.5391V19.1777ZM75.5273 21.3359C74.9707 21.3359 74.834 21.1992 74.834 20.9355V19.1777C75.5273 19.1777 75.9375 19.3145 76.0742 20.2617H76.2109V17.8301H76.0742C75.9375 18.6406 75.5176 18.9141 74.834 18.9141V17.293C74.834 17.0195 74.9707 17.0195 75.3906 17.0195C76.4941 17.0195 76.9141 17.1562 77.1875 18.2305H77.3242V16.7461H72.9004V16.8828C73.3105 16.8828 73.5938 16.8828 73.5938 17.4199V20.9355C73.5938 21.3359 73.3203 21.3359 72.9004 21.4727V21.6094H77.4609L77.7344 20.125H77.5977C77.0508 21.1992 76.2207 21.3359 75.5273 21.3359ZM78.291 16.7461V17.0195C78.7012 17.0195 78.9844 17.0195 78.9844 17.5566V21.0723C78.9844 21.4727 78.7109 21.4727 78.291 21.6094V21.7461H81.0547V21.6094C80.6445 21.6094 80.3613 21.6094 80.3613 21.0723V17.5566C80.3613 17.1563 80.6348 17.1563 81.0547 17.0195V16.8828H78.291V16.7461ZM82.3047 16.7461V17.0195C82.7148 17.0195 82.998 17.0195 82.998 17.5566V21.4727C82.998 21.7461 82.998 22.0098 82.5879 22.0098C82.4512 22.0098 82.3242 21.9512 82.3145 21.873C82.3047 21.7949 82.334 21.7363 82.4414 21.7363C82.5488 21.7363 82.5977 21.5996 82.5977 21.4629C82.5977 21.0625 82.1875 20.9258 82.041 20.9258C81.7676 20.9258 81.4844 21.0625 81.4844 21.4629C81.4844 21.4629 81.4844 22.4102 82.8711 22.4102C83.4277 22.4102 83.7012 22.2734 83.9746 22.1367C84.3848 21.8633 84.5312 21.4629 84.5312 20.7891V17.6836C84.5312 17.1465 84.8047 17.1465 85.2246 17.0098V16.873H82.3242V16.7461H82.3047ZM85.4883 16.7461V17.0195C85.8984 17.0195 86.1816 17.0195 86.1816 17.5566V21.0723C86.1816 21.4727 85.9082 21.4727 85.4883 21.6094V21.7461H88.252V21.6094C87.8418 21.6094 87.5586 21.6094 87.5586 21.0723V17.5566C87.5586 17.1563 87.832 17.1563 88.252 17.0195V16.8828H85.4883V16.7461ZM92.2559 16.7461V17.0195C92.8125 17.0195 92.9492 17.293 92.9492 17.6934V19.8516L90.3223 16.8828H88.6621V17.0195C88.7988 17.0195 88.7988 17.0195 89.3555 17.5566V21.0723C89.3555 21.4727 89.2188 21.6094 88.6621 21.6094V21.7461H90.459V21.6094C89.9023 21.6094 89.7656 21.4727 89.7656 20.9355V17.9668L93.2227 21.7461H93.3594V17.5566C93.3594 17.2832 93.3594 17.0195 93.916 17.0195V16.8828H92.2559V16.7461ZM97.373 19.5781V19.7148C97.9297 19.7148 98.0664 19.7148 98.0664 20.252V21.0625C98.0664 21.3359 97.9297 21.5996 97.2363 21.5996C95.9961 21.5996 95.7129 20.252 95.7129 19.3047C95.7129 17.8203 96.123 17.0098 97.0996 17.0098C98.0664 17.0098 98.623 17.957 98.8965 18.4941H99.0332V16.873H98.7598C98.623 17.0098 98.6035 17.1465 98.5059 17.1465C98.4082 17.1465 98.4473 17.127 98.2031 17.0098C97.959 16.8926 97.5098 16.7363 97.0996 16.7363C95.4395 16.7363 94.3359 17.8203 94.3359 19.3047C94.3359 20.5156 95.166 21.873 97.2363 21.873C97.9297 21.873 98.8965 21.7363 99.3066 21.4727V20.5254C99.3066 19.9883 99.4434 19.9883 100 19.8516V19.5781H97.373ZM89.4141 6.23828C89.834 6.52148 90.1074 6.79492 90.3906 6.6582C90.6445 6.6582 90.791 6.54102 90.918 6.4043L90.9473 6.375C90.9473 6.23828 91.2109 6.23828 91.3477 6.23828H91.9141L92.6074 6.10156H93.7207C94.1406 6.23828 94.9707 6.10156 95.1172 6.10156H95.1562C95.3516 6.10156 95.9766 6.11133 96.2305 6.23828C96.7578 6.375 97.0312 6.375 97.2949 6.375H97.3438L97.9004 6.51172H98.5938C98.877 6.51172 99.2871 6.375 99.707 6.51172H99.7363C99.8633 6.51172 99.9805 6.52148 99.9805 6.64844C99.9805 6.78516 99.8438 7.20508 99.8438 7.48828C99.707 7.625 99.5703 7.89844 98.9062 8.17188L98.8672 8.19141L98.7305 8.32813C98.5938 8.46484 98.4473 8.61133 98.1738 8.61133H98.1152C97.8223 8.61133 97.2266 8.60156 96.9531 8.48437L96.9238 8.47461L96.7871 8.33789C96.5039 8.05469 96.2305 7.91797 96.0938 7.91797C95.8203 7.91797 95.6836 8.04492 95.5469 8.30859L95.5371 8.33789V8.75781C95.5371 8.89453 95.6641 9.28516 95.6738 9.44141V12.2637C95.6738 12.4004 95.8105 12.5469 95.8105 12.6836C95.9473 12.957 95.9473 13.0938 95.9473 13.2305V14.2266C95.9375 14.1191 95.8105 14.6367 95.8105 14.6562C95.8105 14.7832 95.6934 14.9199 95.6738 15.0469V15.3594C95.5371 15.3594 95.5371 15.4961 95.3906 15.4961C95.2539 15.4961 95.1172 15.2324 95.1172 15.2129L94.9805 14.9297C94.8438 14.6562 94.8438 14.5195 94.8438 14.3828V14.3535C94.8438 14.207 94.834 13.9434 94.707 13.8066C94.5801 13.6797 94.5703 13.4258 94.5703 13.1621V13.1035C94.707 12.8203 94.707 12.4004 94.5703 12.1172C94.5703 11.9805 94.4434 11.5801 94.4336 11.3066V10.5742C94.4336 10.5449 94.4336 9.75391 94.1699 9.4707L94.1504 9.45117V9.31445C94.1504 9.03125 93.8672 8.75781 93.3105 8.75781C92.6172 8.75781 92.334 8.75781 92.0605 8.89453C91.7871 8.89453 91.25 9.03125 91.0938 8.9043L91.084 8.89453H90.2441C89.9707 9.03125 89.834 9.03125 89.6973 9.28516L89.6875 9.31445V10.1543C89.6875 10.4277 89.5605 10.6914 89.5508 10.8379V10.8574L89.4141 11.2773C89.4141 11.4141 89.4141 11.5605 89.2773 11.6973C89.2773 11.9805 89.1406 12.1172 89.1406 12.2539C89.1406 12.3906 89.0039 12.3906 89.0039 12.5371C89.0039 12.6738 88.8672 12.8203 88.8672 12.8203C88.7305 13.1035 88.584 13.2402 87.7539 13.6602C87.1973 13.9434 87.1973 13.9434 87.0605 14.0801C86.9336 14.0801 86.7969 14.207 86.6699 14.2168H86.4355C86.0254 14.2168 85.5176 14.207 85.3809 14.0801C85.1074 13.8066 84.834 13.6699 84.8242 13.2695V12.8203C84.8242 12.5371 84.9609 12.4004 84.9609 12.2637C85.0977 11.5605 85.3809 11.5605 85.6543 11.4238C85.918 11.2871 86.1816 11.1602 86.4551 11.1406H86.7773C87.0605 11.1406 87.334 11.0039 87.6172 10.8574C87.7539 10.5742 88.1738 10.3008 88.3105 10.0176C88.4473 9.73438 88.7305 9.46094 88.7305 9.17773C88.8672 8.89453 88.8672 8.62109 88.7305 8.47461C88.5938 8.47461 88.4473 8.33789 88.3105 8.33789C87.8906 8.33789 87.4707 8.47461 87.1973 8.62109C87.0703 8.74805 86.9434 8.75781 86.6992 8.75781H86.5039C86.3672 8.62109 86.2207 8.62109 86.084 8.75781C85.8008 8.89453 85.5273 8.89453 85.3906 8.89453C85.2539 8.89453 84.9707 8.75781 84.9707 8.47461C84.9707 8.05469 84.834 7.77148 84.6875 7.48828C84.5605 7.22461 84.5508 6.9707 84.5508 6.81445V6.78516C84.6875 6.64844 84.834 6.50195 85.1074 6.36523C85.6445 6.0918 85.791 6.08203 85.9277 6.08203H86.2207C86.4941 5.94531 86.7578 6.07227 87.0312 6.08203H88.7305C88.9941 5.95508 89.1406 5.95508 89.4141 6.23828ZM69.6582 2.0293C69.7852 2.0293 69.7852 2.03906 69.9219 2.16602C70.0586 2.16602 70.2051 2.44922 70.3418 2.58594L70.625 2.72266L70.9082 3.00586C71.0449 3.28906 71.3281 3.14258 71.4648 3.14258H71.748C71.8848 3.14258 72.168 3.2793 72.3047 3.2793C72.5684 3.2793 72.832 3.02539 72.8613 3.00586C72.8613 3.00586 72.8613 2.86914 72.998 2.86914C73.1348 2.73242 73.2812 2.73242 73.2812 2.58594L73.418 2.44922C73.5547 2.44922 73.7012 2.3125 73.8379 2.3125C73.9746 2.3125 74.5312 2.44922 74.8145 2.44922C74.9512 2.44922 75.3711 2.3125 76.2109 2.44922H79.2773C79.2773 2.58594 79.4141 2.58594 79.5605 2.58594H79.6094C79.834 2.58594 79.8438 2.5957 79.9805 2.72266C80.1074 2.84961 80.3613 2.85938 80.6152 2.85938H80.6738C80.8105 2.85938 80.957 2.99609 81.0938 3.14258C81.2305 3.28906 81.2305 3.2793 81.2305 3.42578C81.2305 3.5625 81.0938 3.5625 81.0938 3.70898C80.957 3.8457 80.8105 4.12891 80.5371 4.26563C80.2539 4.40234 80.1172 4.68555 80.1172 5.10547V6.0918C79.9805 6.22851 79.9805 6.51172 79.9805 6.64844V7.77148C79.9805 7.9082 79.8438 7.9082 79.8438 8.05469C79.707 8.19141 79.707 8.33789 79.5605 8.33789H79.0039C78.7207 8.47461 78.584 8.62109 78.584 8.89453V9.03125C78.584 9.1582 78.7012 9.28516 78.8281 9.41211L78.8672 9.45117L79.4238 10.0078L79.5605 10.1445C79.8438 10.4277 80.2539 10.9844 80.6738 11.1309L80.957 11.4141C81.0938 11.5508 81.2402 11.6973 81.5137 11.6973H82.0703C82.207 11.6973 82.3535 11.6973 82.3535 11.834C82.4902 12.1172 82.2168 12.5371 82.0703 12.6738L81.7871 12.957C81.5039 13.0937 81.2305 13.5137 80.9473 13.6602C80.6641 13.7969 80.5273 13.9434 80.1074 13.6602C79.6875 13.5234 79.5508 13.377 79.2676 12.957C78.9844 12.4004 78.5742 12.2539 78.1543 12.2539C78.0176 12.3906 77.8711 12.3906 77.7344 12.5371C77.5977 12.6738 77.4512 12.6738 77.5977 13.2402H76.6309C76.0156 13.2402 75.6445 13.25 75.5078 13.377C75.3711 13.377 75.2246 13.5137 75.0879 13.6602C74.8047 13.7969 74.668 13.9434 74.5312 14.0801C74.3945 14.0801 74.248 14.2168 74.1113 14.3633L73.9746 14.5C73.6914 14.6367 73.1348 14.6367 72.998 14.5L72.8613 14.3633C72.5781 14.0801 72.3047 13.9434 72.3047 13.377V12.5371C72.3047 12.4004 72.168 12.1172 71.8848 12.1172C71.4648 11.9805 70.9082 12.4004 70.6348 12.5371C70.6348 12.6738 70.498 12.6738 70.498 12.6738C70.0781 12.8105 69.3848 13.5137 68.9648 13.7969L68.8281 13.9336C68.5449 14.2168 68.4082 14.3535 68.2715 14.3535C67.9883 14.2168 67.7148 14.0703 67.7148 13.7969V12.4102L67.8516 12.2734C67.8516 12.1367 67.9883 12.1367 67.9883 12.1367L68.4082 11.7168C68.5352 11.5898 68.5449 11.3359 68.5449 11.0723V10.9551C68.5449 10.7109 68.5352 10.584 68.4082 10.4473C68.4082 10.3105 68.1641 10.3105 67.9004 10.3105H67.8516C67.7148 10.3105 67.2949 10.4473 67.1582 10.3105C66.875 10.1738 66.7383 9.89062 66.7383 9.32422V9.1875C66.7383 8.65039 66.8652 8.63086 67.002 8.63086H67.2949C67.8516 8.76758 68.1348 8.76758 68.2715 8.63086C68.4082 8.63086 68.5547 8.34766 68.5547 8.21094C68.5547 8.07422 68.5547 7.92774 68.2715 7.79102H67.2949L67.1582 7.6543C67.0215 7.51758 67.2949 7.23438 67.0215 7.09766C66.8848 6.96094 66.7383 6.96094 66.6016 6.96094L66.3184 7.09766H65.7617C65.4785 7.09766 65.2051 6.81445 65.2051 5.97461C65.2051 5.27148 66.0449 4.71484 66.4551 4.43164L66.7383 4.29492C67.0215 4.01172 67.7148 3.73828 67.8516 3.5918C68.1348 3.45508 67.9883 3.45508 68.2715 3.30859C68.6914 3.02539 68.9648 2.88867 69.1113 2.46875C69.248 2.18555 69.248 2.18555 69.3945 2.04883L69.6582 2.0293ZM55.6934 1.49219C56.084 1.49219 56.4648 1.51172 56.7285 1.76562C56.8652 1.90234 57.0019 2.3125 57.2852 2.44922C57.6953 2.58594 57.6953 2.72266 57.8418 2.85938C58.1152 3.13281 58.8086 2.99609 58.9453 2.99609C58.9453 2.99609 59.6094 2.86914 60.1562 2.85938H60.5957L61.2891 2.99609C61.4258 2.99609 61.5625 2.85938 61.6992 2.85938C61.8262 2.73242 61.9531 2.72266 62.0801 2.72266H62.1191C62.3828 2.72266 62.5195 2.72266 62.6562 2.83984L62.6758 2.84961L62.8125 2.98633L63.3691 3.25976C63.5059 3.25976 63.6426 3.39648 63.6426 3.66992C63.6426 3.79688 63.5156 3.80664 63.5059 3.91406V3.93359L63.3691 4.34375C63.3691 4.48047 63.3691 4.61719 63.2324 4.61719C63.0957 4.75391 62.959 4.75391 62.5391 5.16406C62.4023 5.30078 62.2656 5.4375 62.1289 5.4375C61.9922 5.4375 61.8555 5.4375 61.5723 5.30078C61.2988 5.30078 61.2988 5.16406 61.1621 5.30078L61.1328 5.33008C61.0059 5.45703 60.8887 5.59375 60.8887 5.84766C60.9082 5.89648 61.1621 6.4043 61.1621 6.6582C61.1621 6.93164 61.0254 7.06836 60.8887 7.20508C60.752 7.3418 60.1953 7.88867 60.1953 8.5625C60.1953 9.36328 60.459 9.63672 60.6055 9.91016L60.6152 9.92969L60.7519 10.0664C60.8887 10.3398 61.0254 10.3398 60.8887 10.4766C60.7617 10.6035 60.5176 10.6133 60.3711 10.6133H60.332L60.0586 10.4766C59.6484 10.4766 59.3652 10.4766 58.9551 10.3398C58.8184 10.3398 58.6816 10.2031 58.5449 10.2031C58.5449 10.2031 58.4082 10.0664 58.1348 10.0664C57.5781 9.92969 56.4746 9.92969 56.3379 10.6133V10.7207C56.3379 11.2578 56.3477 11.9805 56.4746 12.2344C56.6113 12.6445 56.6113 13.3184 56.4746 13.5918L56.416 13.6797C56.1621 14.0605 55.8984 14.4121 55.6445 14.4121C55.5078 14.4121 55.0879 13.8652 54.9512 13.1914C54.8145 12.791 54.9414 12.2734 55.0781 11.7461L55.0879 11.6973V11.4238C55.2148 11.043 55.2246 10.8965 55.2246 10.6621V10.6133C55.2246 10.2031 55.0879 9.92969 54.3945 9.92969H54.3066C53.8281 9.92969 53.6816 9.93945 53.291 10.0664C53.0371 10.1934 53.0176 10.2031 52.5684 10.2031H52.4023C52.0117 10.2031 51.6211 10.2129 51.4941 10.4766C51.3574 10.4766 51.3574 10.6133 51.3574 10.75C51.3574 11.0234 51.4941 11.1602 51.6309 11.1602C51.7676 11.2969 52.041 11.2969 52.1875 11.1602C52.3242 11.1602 52.5879 11.0332 52.8516 11.1504L52.8809 11.1602L53.1543 11.2969C53.291 11.2969 53.4277 11.4336 53.5645 11.4336C53.7012 11.4336 53.9648 11.4336 53.9746 11.5605V11.707C53.8379 11.707 53.8379 11.8438 53.8379 11.9805V12.0293C53.8379 12.2734 53.8184 12.4004 53.5645 12.5273C53.291 12.8008 52.041 13.2109 51.3477 13.2109H51.2793C50.4785 13.2109 49.8145 13.1816 49.4043 12.2637C49.2773 12.0098 49.2676 11.873 49.2676 11.7461V11.5801C49.2676 11.5801 49.3945 11.4531 49.5215 11.4434H49.8145C50.0879 11.3066 50.2246 11.3066 50.3613 10.7988L50.3711 10.7695V10.457C50.5078 10.1934 50.5078 9.93945 50.5078 9.67578V9.2168C50.5078 9.08984 50.5273 8.96289 50.918 9.09961C51.0547 8.97266 51.1816 8.70899 51.1914 8.32813V7.27344C51.1914 6.88281 51.1816 6.4043 50.9375 6.14062L50.918 6.12109L50.7812 5.98438C50.6445 5.71094 50.3711 5.4375 49.3945 5.4375C48.7012 5.4375 48.7012 5.30078 48.5645 5.16406C48.4277 5.02734 48.4277 4.75391 48.4277 4.75391L48.4082 4.68555C48.2812 4.30469 48.1738 3.91406 48.5742 3.5332C48.9746 3.14258 49.2383 3.12305 49.6289 3.12305H53.6914C53.9648 3.12305 53.9648 2.84961 54.1016 2.71289C54.1016 2.57617 54.2383 2.43945 54.375 2.30273C54.5117 2.16602 54.6484 2.16602 54.6484 2.0293C54.6484 1.89258 54.7852 1.75586 55.0586 1.61914C55.1855 1.49219 55.3125 1.48242 55.5566 1.48242L55.6934 1.49219ZM60.5859 11.0137C60.7227 11.1504 60.8691 11.1504 61.0059 11.1504C61.5625 11.1504 61.8457 11.2871 61.9824 11.5703C62.2656 11.9902 62.2656 12.2734 61.8457 12.4102V13.25C61.709 13.3867 61.5625 13.8066 61.1523 13.9531C60.7715 14.0801 60.7422 14.0898 60.5176 14.0898H60.3906C60.1465 14.0898 60.0195 14.0801 59.8926 13.9531L59.4727 13.8164C59.209 13.6895 59.0723 13.6797 58.7109 13.6797H58.6328C58.0762 13.543 57.793 13.3965 57.5195 12.9766L57.2363 12.5566C56.9531 12.2734 56.8164 12.1367 56.8164 11.8535C56.8164 11.2969 56.9531 11.0137 57.2363 11.0137C57.373 11.0137 57.6562 11.1504 57.793 11.1504H58.9062C59.043 11.1504 59.3262 11.2871 59.4629 11.1504L59.7461 11.0137H60.5859ZM39.1699 1.49219C39.3066 1.49219 39.4434 1.76562 39.4434 2.03906C39.4434 2.30273 39.4434 2.56641 39.6973 3.08398L39.7168 3.12305L39.9902 3.39649C40.2637 3.66016 40.5371 4.06055 41.3281 3.94336L41.3672 3.93359H42.4707C42.8809 3.93359 43.1641 4.07031 43.4375 4.07031H43.4961C43.7695 4.07031 44.1406 4.08008 44.2676 4.20703C44.541 4.34375 44.6777 4.72461 44.6777 5.125V5.29102C44.541 5.69141 44.2773 6.21875 43.877 6.36523L43.8477 6.375H42.0508C41.9141 6.375 41.7773 6.51172 41.4941 6.51172C41.084 6.51172 40.8008 6.375 40.6641 6.375C40.3906 6.375 40.3906 6.51172 40.2539 6.64844C40.2539 6.78516 40.2539 6.92188 40.1172 7.05859C39.9805 7.32227 39.9805 7.58594 39.9805 7.72266V8.55273C39.9805 8.82617 39.8438 9.23633 39.9805 9.5C40.1172 9.76367 40.2539 10.4277 40.9082 10.5742L40.9473 10.584L41.5039 10.7207H42.1973C42.4707 10.7207 42.6074 10.584 42.8906 10.584H42.959C43.3301 10.584 43.5938 10.5645 43.8574 10.3105C44.2676 10.0371 44.4141 9.90039 44.6875 9.76367C44.9609 9.62695 44.9609 9.62695 45.0977 9.35352C45.0977 9.35352 45.2246 9.22656 45.2344 9.09961V8.94336C45.2344 8.94336 45.3711 8.5332 45.5078 8.66992C45.6445 8.94336 45.6445 9.48047 45.7812 9.61719C45.918 9.88086 45.918 10.2617 45.918 10.6621V10.8477L45.7812 11.9316V12.2051C45.6445 12.6152 45.2246 13.2891 44.3945 13.4258C43.584 13.5625 43.0469 13.5625 42.5098 13.5625H42.4512C42.3633 13.5625 41.582 13.582 40.8008 13.8359C40.3906 13.8359 39.8535 13.9629 39.834 13.9727H39.5605C39.4238 13.9727 39.2871 13.8359 39.1504 13.8359C39.1309 13.8359 39.0039 13.8262 38.877 13.6992C38.7402 13.5625 38.6035 13.5625 38.4668 13.4258C38.3301 13.2891 37.9395 13.0352 37.9102 12.7715V12.459C37.9102 12.3027 37.8906 11.7949 37.5 11.7949C37.0898 11.7949 36.6699 11.9316 35.9766 12.3418C35.8398 12.3418 35.8398 12.3418 35.5664 12.4785C35.293 12.6152 34.873 12.752 34.5996 13.0254C34.3262 13.2988 33.7695 13.4355 32.8027 13.5723C31.2793 13.709 30.7324 13.5723 30.4492 13.2988C29.9023 12.8984 29.7656 12.6348 29.7559 11.9805V11.8047C29.8926 11.0039 30.166 10.8574 30.4297 10.7207L30.4395 10.7109H30.7324C30.8789 10.7109 31.1328 10.7012 31.2695 10.5742C31.4063 10.4375 31.4062 10.3105 31.7969 10.3008H33.0664C33.7598 10.1641 34.0332 9.89063 34.1699 9.49024C34.3066 9.08008 34.1699 8.54297 33.7598 8.26953C33.4961 8.14258 33.2227 8.25977 33.0859 8.26953H32.666C32.3926 8.13281 31.5625 7.72266 31.4258 7.58594C31.1523 7.44922 31.0156 7.3125 30.8691 7.03906C30.7324 6.77539 30.6055 6.76563 30.5957 6.52149V6.35547C30.7227 5.97461 30.7324 5.82813 30.7324 5.59375V4.8418C30.7324 4.58789 30.7422 4.45117 31.0059 4.32422C31.4062 4.19727 31.9336 4.1875 32.2266 4.1875H32.9492C33.2129 4.31445 33.6133 4.32422 33.8867 4.19727L33.916 4.1875H34.0527C34.3262 4.05078 34.5898 4.05078 34.6094 3.66992V3.36719C34.6094 3.09375 34.7461 2.82031 34.8828 2.68359C35.1562 2.41016 35.1562 2.41016 35.5762 2.68359C35.9961 2.95703 36.1328 3.23047 36.1328 3.63086C36.2695 4.03125 36.4062 5.61328 36.4062 6.05273V9.39258C36.4062 9.62695 36.416 9.75391 36.543 9.88086C36.6797 9.88086 36.6797 10.0176 36.9531 10.0176C37.3535 10.0176 37.3633 9.89063 37.5 9.88086H37.9395C38.0859 9.88086 38.3496 9.87109 38.4766 9.60742C38.6133 9.34375 38.75 8.16211 38.75 7.73242V7.42969C38.75 7.11719 38.6133 4.49023 38.6133 2.86914V2.13672C38.6133 1.86328 38.75 1.72656 38.8867 1.58984C39.0137 1.46289 39.0234 1.45312 39.1309 1.45312L39.1699 1.49219ZM77.7148 9.89063C77.4316 9.75391 77.2949 9.75391 77.1582 9.89063C76.875 10.0273 76.875 10.0273 76.875 10.3105V10.8672C76.875 11.0039 77.0117 11.1504 77.1582 11.1504C77.4414 11.2871 77.8516 11.2871 78.1348 11.0137C78.2617 11.0137 78.2715 11.0137 78.2715 10.8965V10.8672C78.2715 10.7305 78.1348 10.584 78.1348 10.584V10.4473C78.1348 10.3105 77.998 10.3105 77.998 10.1641L77.7148 9.89063ZM75.3711 8.9043H75.3516C75.2148 8.9043 74.9316 9.04101 74.7949 9.32422C74.6582 9.60742 74.7949 9.74414 74.7949 9.88086V10.3008C74.668 10.4277 74.6582 10.5547 74.6582 10.6816V10.7207C74.6582 11.0039 74.6582 11.1406 74.7949 11.1406H75.3516L75.6348 10.8574C75.7715 10.5742 75.7715 10.4375 75.7715 10.3008V9.88086C75.8984 9.61719 75.9082 9.35351 75.9082 9.32422C75.7715 8.92383 75.5078 8.9043 75.3711 8.9043ZM71.3086 4.55859C70.752 4.42188 70.4688 4.42188 70.0586 4.55859C69.6387 4.55859 69.502 4.8418 69.502 5.11523C69.502 5.25195 69.6387 5.39844 69.9219 5.39844H71.0547C71.1914 5.39844 71.3184 5.4082 71.4551 5.53516L71.875 5.67188C72.002 5.79883 72.0117 5.80859 72.1191 5.80859H72.1484C72.1484 5.80859 72.2852 5.80859 72.2852 5.94531V6.54102C72.2852 6.66797 72.2754 6.79492 72.1484 6.79492H71.8652L71.582 6.6582C71.582 6.52148 70.4688 6.375 70.1855 6.79492V6.94141L70.0488 7.22461V7.36133C70.0488 7.49805 70.1855 7.49805 70.1855 7.64453C70.3223 7.78125 70.4688 7.78125 70.7422 7.78125C71.0156 7.78125 71.4355 7.91797 71.9922 7.91797C72.2754 8.05469 72.4121 8.20117 72.4121 8.47461C72.4121 8.75781 72.1289 8.89453 71.9922 8.89453C71.709 9.03125 71.8555 9.03125 71.709 9.17773C71.582 9.30469 71.5723 9.31445 71.4648 9.31445H70.7031C70.4395 9.31445 70.3125 9.32422 70.1758 9.45117C70.0391 9.58789 70.0391 9.73437 70.0391 10.0078C70.0391 10.5645 70.3223 10.5645 70.459 10.5645H70.5957C70.8789 10.5645 71.1523 10.4277 71.1523 10.4277C71.2891 10.291 71.4355 10.291 71.4355 10.291H71.4844C71.7188 10.291 71.7188 10.3008 71.7188 10.4277C71.8555 10.4277 71.8555 10.5645 71.8555 10.7109C71.9922 10.8477 71.9922 10.8477 72.2754 10.9941C72.6953 11.1309 72.832 10.9941 72.9688 10.8574L73.1055 10.7207C73.3887 10.584 73.5254 10.0176 73.5254 9.73438V9.45117C73.5254 9.31445 73.6621 8.89453 73.8086 8.74805C73.8086 8.32812 73.6719 8.04492 73.6719 7.9082C73.5449 7.78125 73.5352 7.27344 73.5352 6.28711V6.0625C73.5352 5.87695 73.5156 4.94922 72.9785 4.8125L72.5586 4.69531C72.4219 4.55859 72.1387 4.55859 72.002 4.55859H71.3086ZM53.7012 7.05859H53.418C53.1445 7.05859 52.7246 7.19531 52.5879 7.60547C52.4512 7.74219 52.5879 7.87891 52.5879 8.01562C52.7246 8.14258 52.9785 8.2793 53.252 8.28906H58.3984C58.6719 8.28906 58.8086 8.15234 58.9551 8.01562C58.9551 7.88867 59.082 7.87891 58.9648 7.76172L58.9551 7.75195V7.47852C58.8184 7.3418 58.6816 6.95117 57.8906 7.06836L57.8516 7.07812H54.5313C54.2481 6.93164 53.8477 7.04883 53.7012 7.05859ZM76.6016 6.52149C76.4648 6.38477 76.1816 6.52149 76.0449 6.52149H75.7617C75.625 6.52149 75.3418 6.6582 75.2051 6.80469C75.0684 6.94141 75.0684 6.94141 75.0684 7.08789V7.22461C75.2051 7.64453 75.7617 7.50781 76.1816 7.50781C76.4648 7.50781 76.875 7.50781 76.7383 7.64453C77.0215 7.64453 77.2949 7.64453 77.4316 7.36133C77.5684 7.36133 77.5684 7.22461 77.7148 7.22461C77.998 7.08789 78.1348 7.08789 78.1348 6.94141V6.6582C78.1348 6.52148 77.8906 6.52149 77.627 6.52149H76.6016ZM55.1465 3.93359H55.0684C54.8047 3.93359 54.541 4.06055 54.3945 4.07031H54.1016C53.6914 4.20703 52.998 4.07031 52.7148 4.07031C52.5781 4.07031 52.3047 4.07031 52.1582 4.20703C52.0215 4.33398 52.0215 4.4707 52.0215 4.59766V4.65625C52.0215 4.88086 52.0312 4.89063 52.2754 5.00781L52.2949 5.01758H57.4609C57.8711 5.01758 58.3887 5.02735 58.7891 5.1543C59.1992 5.29102 59.4824 5.42773 59.6191 5.42773C59.7559 5.55469 60.0195 5.56445 60.1562 5.4375L60.1758 5.42773V5.28125C60.1758 5.14453 60.166 5.01758 59.9023 4.75391C59.7656 4.61719 59.7656 4.61719 58.9355 4.20703C58.6719 4.08008 58.4082 4.07031 58.1445 4.07031H56.3086C56.0547 3.94336 55.5566 3.93359 55.1465 3.93359ZM78.1348 3.85547H76.7188C76.5527 3.85547 76.0254 3.86523 75.625 3.99219C75.2051 4.12891 74.9316 4.27539 74.9316 4.54883C74.9316 4.54883 74.9316 4.68555 75.0684 4.83203C75.2051 5.11523 75.7617 4.96875 75.9082 4.96875H76.8848C77.168 4.83203 77.8613 4.96875 77.998 4.96875C78.2812 4.96875 78.5547 4.96875 78.6914 4.83203C78.8281 4.69531 78.8281 4.54883 78.8281 4.41211C78.8281 4.13867 78.4082 3.85547 78.1348 3.85547ZM84.4043 1.89258C84.8242 1.47266 85.6543 1.47266 86.2109 1.60937L86.7676 1.74609C87.0508 1.74609 87.3242 1.88281 87.6074 1.88281H87.8906C88.1738 1.88281 88.1738 2.01953 88.3105 2.01953C88.3105 2.15625 88.5938 2.15625 88.7305 2.30273C88.7305 2.43945 89.1504 2.58594 89.1504 2.58594C89.2871 2.58594 89.4336 2.72266 89.4336 2.86914V3.02539C89.4336 3.15234 89.4434 3.15234 89.5703 3.28906L89.707 3.42578C89.8438 3.70898 90.127 3.8457 90.2637 3.70898C90.3906 3.70898 90.4004 3.5918 90.4004 3.45508V3.42578C90.4004 3.28906 90.5371 3.28906 90.6836 3.00586C90.8301 2.72266 91.2402 2.44922 91.5234 2.44922L91.9434 2.3125C92.2266 2.17578 92.6367 2.0293 93.1934 2.0293C93.8867 2.0293 94.0332 2.16602 94.1699 2.16602H96.2793C96.4062 2.16602 96.4258 2.17578 96.9629 2.30273C97.5195 2.30273 97.6562 2.43945 97.8027 2.58594L98.2227 2.86914C98.5059 3.00586 98.6426 3.15234 98.6426 3.28906L98.7793 3.57227C98.916 3.85547 98.916 3.85547 98.7793 4.12891V4.26563C98.6426 4.54883 98.4961 4.54883 98.2227 4.12891H93.623C93.4863 4.26563 93.3398 4.26563 93.0664 4.12891C92.9297 4.12891 92.6465 4.26563 92.5098 4.26563L92.2266 4.40234C91.9434 4.40234 91.8066 4.40234 91.6699 4.53906C91.5332 4.53906 91.5332 4.67578 91.25 4.67578C90.9668 4.8125 90.9668 4.67578 90.8301 4.53906L90.6934 4.40234C90.5566 4.26562 90.4102 4.26563 90.2734 4.26563H90.1367C90.0098 4.13867 90 4.12891 89.8926 4.12891H89.8633C89.5801 3.99219 89.5801 4.12891 89.4434 4.12891C89.3066 4.26563 89.3066 4.26563 89.1602 4.12891H88.4668C88.1836 4.12891 87.9102 4.26563 87.627 4.41211H87.4902C87.3535 4.54883 86.6504 4.69531 86.377 4.54883H86.0742C85.9375 4.54883 85.791 4.5293 85.2637 4.26563C84.707 3.98242 84.4238 3.70898 84.2871 3.42578C84.1602 3.28906 84.1504 2.66406 84.1504 2.46875V2.42969C84.1211 2.30273 84.1309 2.15625 84.4043 1.89258ZM11.6602 0.203125C5.13672 0.203125 0 5.53516 0 12C0 18.6016 5.27344 23.7969 11.6602 23.7969C14.7168 23.7969 16.7969 22.6738 17.7637 22.1074C19.9805 20.7012 21.2305 18.7383 20.957 16.7754C20.6836 15.0859 19.1504 13.8262 17.207 13.2598C17.0703 13.2598 16.7871 13.123 16.6504 13.123C17.6172 12.5566 18.1738 11.8633 18.3203 10.877C18.5938 8.76758 16.2402 6.66797 13.0469 6.23828C10.1367 5.81836 7.77344 6.10156 6.94336 6.10156V9.89063C8.61328 9.60742 10.8301 9.60742 12.6367 9.89063C14.1602 10.1738 15.1367 10.7305 15.2734 11.4336C15.2734 11.5703 15.2734 11.8535 15.1367 12C14.7168 12.5664 14.0234 12.5664 13.4668 12.4199C11.5234 12.1367 9.30664 12.1367 7.08008 12.4199V16.209C9.16016 15.9258 12.627 15.9258 14.2969 16.209C15.8203 16.4922 16.7969 17.1953 16.9336 18.0352C16.9336 18.4551 16.7969 18.7383 16.5137 19.1582C15.957 19.8613 14.2969 20.5645 11.9336 20.5645C7.2168 20.5645 3.33008 16.6289 3.33008 11.8535C3.33008 7.07812 7.2168 3.14258 11.9336 3.14258C16.6504 3.14258 20.5371 7.07812 20.5371 11.8535V12.8398C21.0938 13.123 22.0605 13.8262 23.1738 15.0859C23.4473 14.0996 23.5938 12.9766 23.5938 11.8535C23.457 5.39844 18.1836 0.203125 11.6602 0.203125Z" fill="#E50012"/>
</svg>
