<svg width="100" height="29" viewBox="0 0 100 29" fill="none" xmlns="http://www.w3.org/2000/svg">
<path d="M14.1016 0C21.8848 0 28.2031 6.30859 28.2031 14.0918C28.2031 21.875 21.8945 28.1934 14.1016 28.1934C6.30859 28.1934 0 21.8848 0 14.1016C0 6.31836 6.30859 0 14.1016 0ZM3.08594 14.1016C3.08594 19.5898 7.12891 24.2383 12.5586 25.0098V19.834H10.1367C8.55469 19.834 7.27539 18.5547 7.27539 16.9727V11.2402C7.27539 9.65821 8.55469 8.37891 10.1367 8.37891H12.5586V3.20312C7.11914 3.96484 3.08594 8.61328 3.08594 14.1016V14.1016ZM15.6348 3.19336V8.36914H18.0664C19.6484 8.36914 20.9277 9.65821 20.9277 11.2305V16.9531C20.9277 18.5352 19.6484 19.8145 18.0664 19.8242H15.6348V25C21.6602 24.1504 25.8496 18.5742 25 12.5488C24.3164 7.69531 20.498 3.87695 15.6348 3.19336ZM17.4023 11.4551H10.791C10.5566 11.4551 10.3613 11.6406 10.3516 11.875V16.2988C10.3516 16.5332 10.5371 16.7285 10.7715 16.7383H17.4023C17.6367 16.7383 17.832 16.5527 17.8418 16.3184V11.8945C17.8418 11.6602 17.6465 11.4551 17.4023 11.4551V11.4551Z" fill="#B81C22"/>
<path d="M61.4649 15.2248H61.1426C60.8203 15.7326 59.8731 16.592 59.3067 16.8068C58.3203 16.0256 57.0899 15.6154 55.8203 15.088H53.6524C53.3301 14.9611 52.4707 14.8634 52.0703 14.7756V15.3517C52.3242 15.5275 52.4609 16.0646 52.4512 16.5041C49.6484 16.4064 50.4981 6.34782 51.6895 4.94157C51.8555 5.03922 51.7871 4.9611 51.8848 5.13688C52.0313 5.56657 51.709 6.36735 51.5625 6.71891C51.2598 7.47086 51.2598 12.3927 51.5625 12.8127H51.6309C51.6797 12.6857 51.7188 12.5588 51.7578 12.4318H51.8262C51.7969 13.0177 51.9238 14.1213 52.2754 14.3459C52.5293 14.1408 53.1836 14.3556 53.4766 14.1506C54.082 13.7404 56.4746 11.4845 56.582 10.7814C56.543 10.7619 56.4942 10.7423 56.4551 10.713C56.1328 10.967 53.7988 12.8713 53.2129 12.4318C53.3789 10.8498 54.4727 10.1466 54.9317 9.00406H54.8633C54.6192 9.20914 54.6192 9.3361 54.1602 9.38493C54.1602 8.10563 54.8438 8.14469 54.9219 7.16813C54.7754 6.88492 55 6.81656 54.7266 6.66031C54.6778 6.60172 54.6387 6.53336 54.5996 6.465C54.3555 6.64078 54.1504 6.78727 53.7695 6.84586V6.33805L54.3457 5.76188C54.336 5.20524 54.1016 4.19938 53.7695 3.92594C53.7305 3.94547 53.6817 3.965 53.6426 3.9943C53.6621 4.54117 53.6328 4.9611 53.4473 5.26383C53.3789 5.28336 53.3203 5.31266 53.252 5.33219C53.2129 5.31266 53.1641 5.29313 53.125 5.26383C52.9297 4.91227 52.7539 4.75602 52.7442 4.17984C53.4277 3.79899 53.6328 2.82242 54.2774 2.39274C54.9121 1.98258 55.7617 1.66031 56.4453 1.37711C62.7344 -1.2889 62.1192 10.7716 61.4649 15.2248V15.2248ZM92.1582 1.13297C92.2559 1.67008 92.6172 1.93375 92.793 2.33414C93.3789 3.72086 92.7832 5.03922 92.4121 6.02555C90.8203 6.22086 89.9707 7.1486 88.9258 7.86149C88.9453 7.90055 88.9649 7.94938 88.9942 7.98844C89.4629 8.18375 91.3477 8.59391 91.0938 9.14079C91.1133 9.3068 91.1426 9.47281 91.1621 9.6486C90.459 10.1076 89.1406 11.3381 88.8086 12.1193C90.0977 12.6173 91.3477 15.1662 90.0098 16.3088V16.4357C89.9707 16.4162 89.9219 16.3966 89.8828 16.3673C89.4336 15.7131 88.6231 15.7424 88.4961 14.7267C88.7403 14.5509 88.8477 13.0763 88.8184 12.8908C86.9531 12.9591 87.0117 15.0295 85.8985 14.1603C85.791 14.0627 85.4883 14.092 85.3516 13.9552C85.1856 13.7599 85.1758 13.3986 84.9512 13.0861C85.2051 12.6857 85.1563 12.4513 85.4297 12.0998C86.1621 11.1623 87.2754 10.215 88.0567 9.2775C88.0371 9.17985 88.0078 9.11149 87.9883 9.0236C87.2168 9.05289 86.1035 8.64274 85.8203 8.19352L85.8887 7.49039C87.1582 6.73844 89.0137 4.16031 89.8926 2.92008C90.3223 2.29508 90.4688 1.53336 91.0938 1.13297H92.1582V1.13297ZM44.3067 8.75016L44.8828 8.81852V8.89664C44.7461 9.37516 44.5313 9.47282 44.502 10.1076C44.1699 10.1271 43.8672 10.2931 43.6719 10.5568C43.1934 11.0841 42.8223 14.2384 42.4024 15.1271C41.9434 16.0744 42.5977 17.217 42.207 17.7931C41.7285 17.881 41.6211 18.1447 41.1231 18.2424C41.1035 18.1154 41.0742 17.9884 41.0547 17.8615C40.2637 16.9826 40.8789 15.2443 40.3516 14.5607C40.3125 14.5802 40.2637 14.5998 40.2246 14.6291C40.2149 15.7912 40.1172 16.9533 40.4785 17.6857C40.6543 18.0373 40.9668 18.1056 41.0547 18.633H40.7324C39.7461 16.6701 40.0293 14.1896 39.3945 11.7775H39.3262C39.2188 11.797 39.1113 11.8263 39.0039 11.8459C39.0332 12.422 38.9258 12.6076 38.3692 12.6076C37.9102 12.3048 37.2168 12.1779 36.7871 11.8459C35.7031 11.0158 34.8145 8.51578 35.0684 6.82633H35.3906L36.9238 8.35954L37.3047 8.29117L39.7754 6.45524C39.7559 4.43375 39.8438 2.77359 40.3516 1.4357H40.9277C41.9922 2.16813 42.8711 3.12516 43.2813 4.54117C44.4141 4.49235 45.3809 3.77946 46.7676 4.16032C46.7578 6.24039 44.5215 7.37321 44.3067 8.75016V8.75016ZM56.3867 14.717C57.4414 14.7267 59.541 15.215 60.0098 15.0295C62.627 13.5353 60.9668 3.16422 59.1211 2.07047C57.4121 1.05484 54.2774 2.85172 53.8477 3.72086C54.3262 3.95524 54.5801 4.55094 54.7363 5.10758C55.5371 5.08805 55.6738 4.70719 56.3867 4.65836C56.4844 4.76578 56.5527 4.86344 56.6406 4.98063C56.5918 5.85953 55.9863 6.34781 55.6934 7.00211C56.377 7.3732 57.3047 8.56461 57.2754 9.72672C56.9531 9.83414 56.8457 10.0392 57.0215 10.3029C57.7735 9.66813 58.3887 8.38883 58.9356 7.57828C58.9746 7.59782 59.0235 7.61735 59.0625 7.64664C59.1309 7.7443 59.1895 7.81266 59.2578 7.90055C59.1504 9.16032 57.9492 10.049 57.2852 10.8205V11.2697C57.6856 11.5138 57.9004 11.8263 58.4863 11.9045C58.916 11.2306 59.0137 10.6349 59.375 9.74625H59.4434C59.4629 11.0841 59.0332 11.7287 58.7402 12.6662L59.6875 12.7345V13.4377C59.1602 13.8381 59.4043 14.2677 58.3496 14.2677C58.1836 13.965 56.9141 14.2482 56.377 14.3361C56.3867 14.4631 56.3867 14.59 56.3867 14.717V14.717ZM66.7481 12.7541C66.3477 12.7541 66.2695 12.7052 66.0449 12.5588V11.2306C67.1973 11.133 67.334 9.39469 67.7637 8.50602C68.75 6.40641 69.6778 3.69157 71.1328 1.96305H71.4551C71.8262 2.50016 72.4121 2.69547 72.5391 3.49625C71.8164 3.86734 70.5957 4.26774 70.1856 4.96109C69.2774 6.465 66.7481 10.7814 66.7481 12.7541V12.7541ZM74.6289 11.4748C74.5996 9.86344 75.3613 9.48258 75.7813 8.3693H75.4004C75.2344 8.60367 74.9903 8.62321 74.8242 8.87711C74.375 9.82438 74.2481 10.8205 74.2481 11.9338H74.4434C74.9219 11.2209 76.7871 12.0314 77.7442 11.6798C78.8281 11.2892 79.0723 10.2736 80.4688 10.2931V10.3615L80.2735 10.5568C80.1953 10.9377 79.9414 11.0548 79.5117 11.0646C79.4434 11.7189 78.7207 12.4806 78.3594 12.9689C79.082 13.7599 81.6504 14.0822 82.6856 14.6877L82.4903 14.883V15.0099C81.3574 15.0685 80.1172 15.6935 79.0039 15.2052C78.5156 14.9806 78.2324 14.4533 77.2852 14.4435C76.8067 15.3224 75.5176 16.6408 74.2285 16.6603C73.7012 16.3381 73.3203 16.1623 72.8906 15.7716C72.8711 15.2834 72.8418 14.8048 72.8223 14.3068H72.5C72.0703 15.9377 69.9317 16.2209 68.6231 16.9142C68.5254 16.5627 68.457 16.1916 68.3692 15.8302C68.7793 15.5568 69.0527 15.1564 69.3848 14.8146C69.3652 14.7267 69.336 14.6486 69.3164 14.5607C68.9551 14.5705 68.8672 14.6095 68.7403 14.3654C69.4434 14.3947 69.5508 14.1701 69.502 13.4767C69.4824 13.4377 69.4629 13.3888 69.4336 13.3498C69.3945 13.3693 69.3457 13.3888 69.3067 13.4181C68.9942 13.965 68.1543 15.2834 67.3926 15.3908C67.2266 15.0588 67.0215 15.0197 66.9434 14.5607C66.9629 14.5216 66.9824 14.4728 67.0117 14.4338C67.9395 14.3068 68.4473 13.3791 69.1113 12.9006C69.0918 12.8615 69.0723 12.8127 69.043 12.7736H68.7207C68.5449 11.3869 68.3008 10.9767 69.2969 10.1076C69.2969 9.47282 69.0723 9.29703 68.8477 8.90641C69.3555 8.57438 69.8633 8.22281 70.3809 7.89078C70.6543 8.19352 70.9278 8.47672 71.211 8.77946V9.03336C70.957 9.41422 70.4981 9.58024 70.1953 9.92204C70.2149 10.2248 70.2442 10.508 70.2637 10.8107H70.459C70.5664 10.508 70.6348 10.4591 71.0352 10.4298C71.0547 10.1759 71.0547 10.1857 71.1621 10.049H71.2305C71.2988 10.4005 71.3574 10.7716 71.4258 11.133C71.1817 11.2892 70.9863 11.5041 70.8496 11.7677H72.1875C72.3438 12.0412 72.4317 12.0705 72.4414 12.5295C71.9043 12.9103 70.2442 14.7267 69.9024 15.3224H70.0293L70.0977 15.3908C71.3086 15.0392 72.3633 13.7306 73.086 12.8517C73.0664 11.1916 73.1836 9.70719 73.6621 8.52555C73.9063 7.92008 73.6035 7.42203 73.7891 6.94352C74.043 6.25993 74.5996 5.4982 74.7363 4.52164C75.1367 4.58024 75.166 4.69742 75.4981 4.6486C75.5957 4.47282 75.5957 4.50211 75.752 4.39469V4.07242H76.0742C76.4258 3.46695 77.5098 3.27164 77.6563 2.53922L78.3594 2.47086C78.457 3.0275 76.9336 8.37907 76.5235 8.94547C76.211 9.07243 75.8887 9.19938 75.5762 9.32633C75.5078 9.58024 75.4492 9.83414 75.3809 10.088L75.4492 10.1564C75.8106 9.94157 76.2012 9.77555 76.6016 9.6486C76.582 9.23844 76.5235 9.06266 76.7285 8.94547C76.875 9.17985 77.0313 9.41422 77.1777 9.6486L77.1094 10.2834C76.0938 10.4396 75.586 11.3478 74.6289 11.4748V11.4748ZM76.0938 4.42399C75.9375 5.38102 74.9024 6.2111 75.1953 7.41227H75.5176C76.0645 6.92399 76.6211 6.44547 77.168 5.94742C77.334 5.11735 77.5 4.29703 77.6758 3.47672L77.6074 3.40836L77.3535 3.66227C76.9727 3.85758 76.6797 4.40445 76.084 4.42399H76.0938V4.42399ZM56.8945 4.29703C58.0567 4.28727 58.1348 4.75602 58.9942 4.8732C59.043 5.98649 58.6231 6.465 57.461 6.40641C57.0996 5.80094 56.875 5.37125 56.8945 4.29703V4.29703ZM72.5195 4.67789C72.6465 5.05875 72.7735 5.43961 72.9004 5.83024C72.168 5.85953 71.9238 6.28922 71.3184 6.465L71.25 6.39664C71.2988 6.08414 71.4063 4.82438 71.6309 4.60953C71.7578 4.48258 71.8555 4.48258 72.1387 4.48258C72.2656 4.72672 72.1875 4.6486 72.5195 4.67789V4.67789ZM98.457 4.9318C98.5645 4.95133 98.6719 4.98063 98.7793 5.00016C98.7598 5.03922 98.7402 5.08805 98.711 5.12711C98.3594 5.32242 98.2324 5.75211 98.0762 6.14274C96.0938 6.13297 94.707 6.93375 93.5645 7.92985H93.3692C93.3106 7.82242 93.2227 7.73453 93.1152 7.67594C93.0957 7.19743 92.9883 7.19742 92.9199 6.78727C93.125 6.66032 93.2227 6.39664 93.3692 6.2111C94.2969 6.92399 95.791 5.65446 96.4746 5.38102C97.1973 5.09782 97.8418 5.23453 98.457 4.9318V4.9318ZM44.502 4.99039C43.6426 5.8986 42.5098 5.91813 43.1641 8.16422H43.5449C43.7402 7.58805 45.0098 5.94742 45.459 5.31266C45.3613 5.215 45.2539 5.10758 45.1465 4.99039H44.502ZM55.3027 5.87906V6.25993H55.6836V5.87906H55.3027ZM96.2402 10.0783C96.2402 10.5275 95.957 12.09 96.1133 12.4318C96.5918 13.467 96.7481 15.4299 96.7481 16.8752C96.1426 17.2853 95.9375 17.7052 94.8438 17.7052C94.6387 17.217 94.4434 16.4552 94.0137 16.172C93.2324 15.6642 92.0313 15.3713 91.6602 14.4533H92.168C92.5293 15.1759 93.8867 15.4298 94.9707 15.4005C95.1758 14.0334 95.4785 11.2599 95.0391 9.80485C95 9.82438 94.9512 9.84391 94.9121 9.87321C94.6778 10.1759 92.2363 11.4455 91.7383 11.4552C91.6992 11.4357 91.6504 11.4162 91.6113 11.3869V10.6838C94.1113 9.58024 96.6797 7.81266 99.8047 7.63688C99.9024 7.91031 99.9512 7.84196 100 8.21305C99.0527 8.6818 96.2403 9.10172 95.6738 9.74625V9.81461C95.8496 9.91227 95.8203 9.91227 95.9277 10.0685C96.0254 10.0783 96.1328 10.0783 96.2402 10.0783V10.0783ZM39.6094 8.24235C38.9258 8.29117 37.9981 8.91617 38.0274 9.70719C38.3106 10.1369 38.5742 10.5568 38.8574 10.9767C39.2481 10.8498 39.4336 10.5275 39.6875 10.2736C39.6582 9.59977 39.6387 8.92594 39.6094 8.24235ZM56.6992 9.58024V9.19938C56.5039 9.07242 56.3184 8.94547 56.1231 8.81852V9.39469C56.3672 9.48258 56.3281 9.53141 56.6992 9.58024ZM54.3555 10.967C55.1563 10.9767 55.7715 10.5177 56.1426 10.0783V9.75602C55.9375 9.60953 55.8301 9.35563 55.6348 9.17985C55.1758 9.54118 54.4336 10.2931 54.3555 10.967V10.967ZM69.541 10.967L69.4727 11.0353C69.5508 11.0841 69.6387 11.1232 69.7266 11.1623V11.0939C69.6582 11.0548 69.5996 11.0158 69.541 10.967ZM69.3457 11.1525L69.2774 11.2209L69.4043 11.3478C69.4434 11.3283 69.4922 11.3088 69.5313 11.2795C69.4727 11.2502 69.4141 11.2013 69.3457 11.1525V11.1525ZM56.6992 11.3478C56.1426 12.4318 54.6387 12.7931 54.2285 13.9552H55.1172C55.8399 13.506 57.7051 13.1252 58.5547 12.8713V12.6173C58.5352 12.5783 58.5156 12.5295 58.4863 12.4904C57.4805 12.4416 57.5 11.5822 56.6992 11.3478V11.3478ZM77.9883 12.0509C77.8418 12.2756 77.5879 12.3537 77.4121 12.5588C77.5586 12.7638 77.5586 12.8029 77.8613 12.881H77.9297C78.1055 12.6173 78.252 12.3439 78.3789 12.0509H77.9883V12.0509ZM71.5039 12.3634H70.9961C70.459 12.6369 70.2442 12.7541 70.293 13.633L70.4199 13.7599C70.8106 13.4572 71.4356 12.9591 71.5039 12.3634V12.3634ZM76.8457 14.4728C76.8653 14.1213 76.8945 14.1603 77.041 13.965C76.3867 13.4084 75.0977 12.842 74.1211 12.6955L74.0527 12.7638C73.9844 14.3068 73.6817 14.6095 74.5606 15.6838C75.1465 15.2931 76.1524 14.5607 76.8457 14.4728ZM41.6504 14.5216L41.2012 14.59C41.1524 15.4201 41.1035 16.2404 41.0742 17.0607C41.2793 17.1388 41.2402 17.1486 41.3965 17.256C41.5039 17.2365 41.6113 17.2072 41.7188 17.1877C41.6504 16.592 41.6504 15.5568 41.6504 14.5216ZM69.7363 15.2931C69.6777 15.342 69.6094 15.381 69.541 15.4201C69.5606 15.4591 69.5801 15.508 69.6094 15.547C69.8633 15.5275 69.8535 15.5275 69.9903 15.4201C69.9024 15.3713 69.8145 15.3322 69.7363 15.2931Z" fill="#231815"/>
<path d="M38.6327 26.7686C38.8671 26.7686 39.1014 26.749 39.3358 26.7002C39.5409 26.6611 39.7264 26.5928 39.9022 26.4853C40.0585 26.3877 40.1952 26.251 40.2831 26.085C40.3807 25.8994 40.4296 25.6846 40.4198 25.4795C40.4198 25.3232 40.3905 25.167 40.3221 25.0303C40.2635 24.8936 40.1757 24.7666 40.0682 24.6592C39.9608 24.5518 39.8339 24.4541 39.6971 24.3857C39.5604 24.3076 39.4237 24.2588 39.2675 24.2295V24.21C39.4725 24.1416 39.6678 24.0146 39.8046 23.8486C39.951 23.6826 40.0389 23.4678 40.0389 23.2529C40.0389 23.0479 39.9901 22.8525 39.8925 22.6768C39.7948 22.5107 39.6678 22.374 39.5116 22.2666C39.3553 22.1494 39.1796 22.0713 38.9843 22.0127C38.7987 21.9541 38.5936 21.9248 38.3983 21.9248C37.9393 21.9248 37.4803 21.9346 37.0311 21.9443C36.5819 21.9639 36.1229 21.9639 35.6737 21.9639V22.1201C35.8007 22.1201 35.9374 22.1396 36.0546 22.1885C36.1425 22.2275 36.2303 22.2861 36.2889 22.3643C36.3475 22.4424 36.3866 22.54 36.4061 22.6377C36.4257 22.7549 36.4452 22.8721 36.4354 22.9795V25.6846C36.4354 25.8213 36.4257 25.958 36.4159 26.085C36.4061 26.1728 36.3768 26.2607 36.3182 26.3389C36.2596 26.4072 36.1718 26.4561 36.0839 26.4756C35.9471 26.5146 35.8104 26.5342 35.6639 26.5439V26.7197C35.7421 26.71 35.8104 26.71 35.8885 26.71L36.1327 26.7002L36.4354 26.6904H36.8358C37.3046 26.6904 37.6757 26.7002 37.9491 26.7295C38.2518 26.7588 38.4764 26.7686 38.6327 26.7686V26.7686ZM38.0272 24.2295C37.9198 24.2295 37.8124 24.2197 37.7147 24.2002C37.6268 24.1807 37.5389 24.1611 37.451 24.1318V22.2764L37.6854 22.2568C37.7538 22.2568 37.8319 22.2471 37.91 22.2471C38.2421 22.2471 38.5057 22.3252 38.701 22.4912C38.8964 22.6572 38.994 22.9111 38.994 23.2529C38.994 23.3799 38.9745 23.5166 38.9257 23.6338C38.8866 23.751 38.8182 23.8584 38.7401 23.9463C38.6522 24.0342 38.5546 24.1025 38.4374 24.1514C38.3007 24.21 38.1639 24.2393 38.0272 24.2295V24.2295ZM38.1737 26.4365C38.0468 26.4365 37.9296 26.4268 37.8026 26.3975C37.6757 26.3682 37.5585 26.3291 37.451 26.2803V24.3467C37.5585 24.3857 37.6659 24.415 37.7733 24.4346C37.9198 24.4541 38.0565 24.4639 38.203 24.4639C38.4081 24.4639 38.6229 24.4346 38.8182 24.3857C38.9647 24.5127 39.0917 24.6592 39.1796 24.835C39.2675 25.001 39.3163 25.1963 39.326 25.3916C39.326 25.7432 39.2186 26.0068 39.0038 26.1826C38.7596 26.3584 38.4667 26.4463 38.1737 26.4365V26.4365ZM46.1425 26.583C45.9862 26.583 45.8397 26.5439 45.6932 26.4756C45.5468 26.4072 45.4393 26.2803 45.3905 26.1338L43.8085 21.8076C43.6718 21.876 43.5253 21.9248 43.369 21.9639C43.2714 21.9932 43.1639 22.1494 43.037 22.4229L41.6112 25.7822C41.5624 25.8994 41.5135 26.0068 41.4647 26.0947C41.4257 26.1826 41.3671 26.2607 41.3085 26.3389C41.2401 26.4072 41.1718 26.4658 41.0839 26.5049C40.9764 26.5537 40.8593 26.583 40.7421 26.5928V26.7686C40.8885 26.7588 41.035 26.749 41.1815 26.749C41.328 26.7393 41.4745 26.7393 41.621 26.7393C41.7675 26.7393 41.9335 26.7393 42.0897 26.749C42.246 26.7588 42.4022 26.7588 42.5585 26.7686V26.5928C42.4901 26.583 42.4218 26.5635 42.3534 26.5439C42.285 26.5244 42.2069 26.4853 42.1385 26.4561C42.08 26.4268 42.0214 26.3779 41.9823 26.3291C41.9432 26.2803 41.9237 26.2314 41.9237 26.1631C41.9237 26.085 41.9335 25.9971 41.9628 25.9189C41.9921 25.8506 42.0116 25.792 42.0409 25.7236L42.412 24.6885H43.8671L44.1112 25.4111C44.1307 25.46 44.1503 25.5185 44.1796 25.5869L44.2577 25.8018C44.287 25.8701 44.3065 25.9385 44.326 26.0166C44.3456 26.0752 44.3456 26.124 44.3553 26.1826C44.3553 26.3096 44.287 26.417 44.1698 26.4658C43.994 26.5439 43.7987 26.583 43.6034 26.5928V26.7686C43.8085 26.7588 44.0135 26.749 44.2089 26.749C44.4139 26.749 44.6093 26.7393 44.8143 26.7393H45.4686C45.5858 26.7393 45.703 26.749 45.8202 26.749L46.1327 26.7686L46.1425 26.583V26.583ZM43.7206 24.3369H42.5096L43.1249 22.5791H43.1346L43.7206 24.3369V24.3369ZM51.1327 26.876V23.4873C51.1327 23.2139 51.1425 22.9893 51.162 22.8232C51.1718 22.6768 51.2108 22.54 51.2694 22.4033C51.328 22.3057 51.4159 22.2178 51.5233 22.1787C51.6698 22.1299 51.826 22.1006 51.9823 22.1006V21.9248C51.6405 21.9541 51.3085 21.9736 50.9569 21.9736C50.7811 21.9736 50.6151 21.9639 50.4393 21.9541L49.9218 21.9248V22.1006C50.0292 22.1201 50.1366 22.1396 50.244 22.1689C50.3319 22.1982 50.4198 22.2373 50.4979 22.2861C50.576 22.335 50.6346 22.4033 50.6737 22.4814C50.7225 22.5791 50.7616 22.6865 50.7714 22.7939C50.8007 22.999 50.83 23.2041 50.8397 23.4092C50.8592 23.6533 50.869 23.9072 50.869 24.1611C50.869 24.415 50.8788 24.6689 50.8788 24.9131V25.5088H50.8593C50.3905 24.8838 49.912 24.2783 49.4042 23.7021C48.9061 23.126 48.4081 22.5303 47.9198 21.915C47.5975 21.9443 47.2655 21.9639 46.9237 21.9639C46.7968 21.9639 46.6698 21.9639 46.5331 21.9443L46.1425 21.915V22.0908C46.2401 22.1104 46.328 22.1396 46.4257 22.1689C46.5135 22.1982 46.6112 22.2275 46.6991 22.2666C46.787 22.3057 46.8749 22.3447 46.953 22.4033C47.0311 22.4619 47.1093 22.5205 47.1678 22.5986L47.1385 25.4697C47.1385 25.6455 47.1288 25.8213 47.1093 26.0068C47.0995 26.124 47.0507 26.2314 46.9725 26.3291C46.8944 26.417 46.787 26.4756 46.6698 26.5049C46.494 26.5537 46.3085 26.5928 46.1229 26.6123V26.7881C46.328 26.7783 46.5331 26.7686 46.7284 26.7686C46.9237 26.7588 47.1288 26.7588 47.3339 26.7588C47.5194 26.7588 47.6952 26.7588 47.871 26.7686C48.0468 26.7783 48.2225 26.7783 48.4081 26.7881V26.6123C48.2323 26.583 48.0663 26.5537 47.8905 26.4951C47.7733 26.4658 47.6757 26.3975 47.5975 26.2998C47.5292 26.1924 47.4803 26.0654 47.4706 25.9385C47.451 25.7432 47.4413 25.5381 47.4413 25.333V22.833C47.5585 22.9502 47.6952 23.1064 47.8514 23.292C48.0077 23.4775 48.1932 23.6826 48.3788 23.8975C48.5643 24.1123 48.7694 24.3564 48.9745 24.6103L49.5897 25.3721C49.7948 25.626 49.9901 25.8896 50.1757 26.1436C50.3612 26.3975 50.5272 26.6416 50.6737 26.8662L51.1327 26.876ZM57.9296 26.5928C57.8026 26.583 57.6659 26.5537 57.5487 26.5049C57.4413 26.4658 57.3436 26.4072 57.2557 26.3389C57.1678 26.2705 57.08 26.1924 57.0116 26.1045C56.9335 26.0166 56.8553 25.9092 56.7772 25.8018L55.2636 23.6436C55.4491 23.4971 55.6346 23.3408 55.8104 23.1748C55.9862 23.0088 56.1815 22.8428 56.3671 22.6963C56.5624 22.5498 56.7675 22.4131 56.9823 22.3057C57.1971 22.1982 57.4413 22.1201 57.6854 22.1006V21.915C57.4803 21.9346 57.2753 21.9443 57.0897 21.9541C56.8944 21.9639 56.6991 21.9639 56.494 21.9639H55.9081C55.7128 21.9639 55.5272 21.9443 55.3319 21.9248V22.1006C55.3905 22.1104 55.4393 22.1201 55.4979 22.1396C55.5565 22.1592 55.6151 22.1885 55.6639 22.2178C55.7128 22.2471 55.7616 22.2861 55.7909 22.335C55.8202 22.3838 55.8397 22.4326 55.8397 22.4912C55.83 22.5889 55.7909 22.6768 55.7225 22.7451C55.6346 22.8623 55.537 22.9795 55.4296 23.0869C55.3124 23.2139 55.1854 23.3408 55.0487 23.4678C54.912 23.5947 54.7753 23.7217 54.6483 23.8389C54.5214 23.9561 54.4042 24.0537 54.3065 24.1416C54.2089 24.2295 54.1307 24.2881 54.0917 24.3174V22.833C54.0917 22.7354 54.1014 22.6475 54.1307 22.5498C54.1503 22.4619 54.1991 22.3838 54.2577 22.3154C54.326 22.2471 54.4042 22.1885 54.5018 22.1494C54.6288 22.1006 54.7557 22.0811 54.8925 22.0908V21.915L54.2186 21.9443C53.994 21.9541 53.7694 21.9639 53.5448 21.9639C53.1444 21.9639 52.744 21.9443 52.3339 21.915V22.0908C52.4608 22.0908 52.5878 22.1104 52.705 22.1494C52.7928 22.1885 52.8807 22.2373 52.9393 22.3154C52.9979 22.3838 53.037 22.4619 53.0663 22.5498C53.0956 22.6377 53.1053 22.7354 53.1053 22.833V25.8408C53.1053 25.9482 53.0956 26.0459 53.0858 26.1533C53.076 26.2412 53.037 26.3193 52.9882 26.3779C52.9296 26.4463 52.8514 26.4951 52.7635 26.5244C52.6268 26.5635 52.4901 26.583 52.3436 26.5928V26.7686C52.5487 26.7588 52.744 26.749 52.9393 26.749C53.1346 26.749 53.3397 26.7393 53.535 26.7393C53.7596 26.7393 53.9745 26.7393 54.1991 26.749C54.4237 26.7588 54.6483 26.7588 54.8729 26.7686V26.5928C54.7264 26.5928 54.5897 26.5635 54.453 26.5244C54.3651 26.5049 54.287 26.456 54.2186 26.3877C54.1698 26.3193 54.1307 26.2412 54.121 26.1631C54.1014 26.0557 54.1014 25.958 54.1014 25.8506V24.5908L54.5702 24.2197L54.7362 24.4541C54.8143 24.5615 54.9022 24.6885 55.0096 24.8252C55.1073 24.9619 55.2147 25.1084 55.3221 25.2646C55.4296 25.4209 55.5272 25.5674 55.6151 25.6943C55.703 25.8213 55.7811 25.9482 55.83 26.0459C55.869 26.1045 55.8983 26.1729 55.9178 26.251C55.9178 26.3096 55.8885 26.3682 55.8397 26.4072C55.7909 26.4463 55.7323 26.4853 55.6639 26.5146C55.5956 26.5439 55.5272 26.5635 55.4589 26.583C55.3905 26.6025 55.3319 26.6123 55.2928 26.6221V26.7686C55.5175 26.7588 55.7323 26.749 55.9569 26.749C56.1815 26.749 56.3964 26.7393 56.6112 26.7393C56.8358 26.7393 57.0604 26.7393 57.285 26.749C57.5096 26.7588 57.7343 26.7588 57.9589 26.7686L57.9296 26.5928ZM62.9393 26.876C63.33 26.876 63.7108 26.8174 64.0819 26.7002C64.4042 26.5928 64.7069 26.4268 64.9706 26.2021C65.2245 25.9873 65.4198 25.7139 65.5468 25.4014C65.8202 24.7178 65.8202 23.9463 65.5468 23.2627C65.4198 22.96 65.2245 22.6865 64.9706 22.4619C64.7069 22.2373 64.4042 22.0713 64.0819 21.9639C63.3397 21.7393 62.5487 21.7393 61.8065 21.9639C61.4843 22.0713 61.1815 22.2373 60.9178 22.4619C60.6639 22.6768 60.4686 22.9502 60.3417 23.2627C60.0682 23.9463 60.0682 24.7178 60.3417 25.4014C60.4686 25.7041 60.6737 25.9775 60.9178 26.2021C61.1815 26.4268 61.4843 26.5928 61.8065 26.7002C62.1678 26.8174 62.5585 26.8857 62.9393 26.876V26.876ZM62.8905 26.5439C62.6171 26.5537 62.3436 26.4853 62.0995 26.3584C61.8749 26.2412 61.6893 26.0654 61.5526 25.8604C61.4061 25.6357 61.2987 25.3916 61.2303 25.1377C61.0936 24.5713 61.0936 23.9853 61.2303 23.4287C61.2889 23.1748 61.3964 22.9307 61.5526 22.7061C61.6893 22.501 61.8846 22.3252 62.0995 22.208C62.5975 21.9639 63.1835 21.9639 63.6815 22.208C63.9061 22.3252 64.0917 22.501 64.2284 22.7061C64.3749 22.9209 64.4823 23.165 64.5507 23.4287C64.6874 23.9951 64.6874 24.5811 64.5507 25.1377C64.4921 25.3916 64.3846 25.6455 64.2284 25.8604C64.0917 26.0654 63.8964 26.2412 63.6815 26.3584C63.4374 26.4853 63.1639 26.5537 62.8905 26.5439ZM68.828 26.5635C68.6718 26.5635 68.5253 26.5537 68.369 26.5244C68.2714 26.5049 68.1835 26.4658 68.1053 26.4072C68.0468 26.3486 67.9979 26.2803 67.9882 26.2021C67.9686 26.1045 67.9589 26.0068 67.9589 25.8994V24.21H68.3495C68.5057 24.21 68.662 24.2197 68.8182 24.2588C68.9354 24.2881 69.0526 24.3369 69.1503 24.415C69.2479 24.4932 69.3261 24.5908 69.3749 24.708C69.4432 24.8545 69.4921 25.0107 69.5214 25.167H69.6678C69.6678 24.9912 69.6581 24.8154 69.6483 24.6396C69.6385 24.4639 69.6385 24.2881 69.6385 24.1123C69.6385 23.9365 69.6385 23.7705 69.6483 23.5947C69.6581 23.4189 69.6581 23.2432 69.6678 23.0771H69.5214C69.4921 23.2334 69.4335 23.3799 69.3456 23.5068C69.2772 23.6143 69.1796 23.7119 69.0721 23.79C68.9647 23.8584 68.8475 23.917 68.7303 23.9463C68.6034 23.9756 68.4764 23.9951 68.3495 23.9951H67.9589V22.208H68.7889C69.2675 22.208 69.6483 22.2959 69.9022 22.4717C70.1561 22.6475 70.3417 22.9404 70.4491 23.3603H70.5956C70.5761 23.2139 70.5565 23.0576 70.5565 22.9014V22.1885C70.5565 22.1006 70.5565 22.0127 70.5663 21.9248L69.1405 21.9541C68.6718 21.9639 68.1932 21.9736 67.7147 21.9736C67.4608 21.9736 67.2069 21.9639 66.953 21.9541L66.1913 21.9248V22.1299C66.328 22.1299 66.4647 22.1494 66.5917 22.1885C66.6796 22.2178 66.7675 22.2764 66.826 22.3447C66.8846 22.4229 66.9237 22.5107 66.9335 22.5986C66.953 22.7158 66.9628 22.8428 66.9628 22.96V25.8994C66.9628 25.9971 66.953 26.1045 66.9335 26.2021C66.9139 26.2803 66.8749 26.3486 66.826 26.4072C66.7577 26.4658 66.6796 26.5049 66.5917 26.5244C66.4647 26.5537 66.328 26.5635 66.1913 26.5635V26.7686C66.3964 26.7588 66.6014 26.749 66.8065 26.749C67.0116 26.749 67.2167 26.7393 67.4218 26.7393C67.6561 26.7393 67.8905 26.7393 68.1249 26.749C68.3592 26.7588 68.5936 26.7588 68.828 26.7686V26.5635ZM75.4686 26.876C75.9862 26.8857 76.494 26.7588 76.9335 26.4951C77.3632 26.2217 77.7245 25.8506 77.9784 25.4014L77.8026 25.2158C77.705 25.3525 77.6073 25.4893 77.4901 25.6162C77.3729 25.7529 77.2362 25.8799 77.0897 25.9775C76.9335 26.085 76.7577 26.1728 76.5819 26.2412C76.3768 26.3096 76.162 26.3389 75.9471 26.3389C75.6542 26.3486 75.3612 26.29 75.0878 26.1826C74.8534 26.085 74.6385 25.9385 74.4725 25.7432C74.3065 25.5478 74.1796 25.3232 74.1014 25.0791C74.0135 24.8057 73.9745 24.5225 73.9745 24.2393C73.9745 23.9951 74.0038 23.751 74.0526 23.5166C74.1014 23.2725 74.1893 23.0479 74.3163 22.833C74.4432 22.6279 74.6093 22.4619 74.8046 22.3252C75.0292 22.1885 75.2928 22.1201 75.5565 22.1299C75.7714 22.1299 75.996 22.1787 76.1913 22.2764C76.3866 22.374 76.5624 22.501 76.7186 22.6572C76.8749 22.8232 77.0116 23.0088 77.1092 23.2041C77.2069 23.4092 77.285 23.624 77.3143 23.8584H77.4999C77.4803 23.6533 77.451 23.4482 77.4413 23.2432C77.4218 23.0381 77.4218 22.833 77.4218 22.6279C77.4218 22.5303 77.4218 22.4326 77.4315 22.3447C77.4413 22.2568 77.4413 22.1592 77.4413 22.0615C77.412 22.0713 77.3827 22.0713 77.3632 22.0713C77.285 22.0615 77.2069 22.0518 77.1288 22.0322C76.9921 22.0029 76.8358 21.9736 76.66 21.9443C76.4843 21.915 76.3085 21.876 76.1229 21.8564C75.9569 21.8272 75.8007 21.8174 75.6346 21.8174C75.2635 21.8174 74.8925 21.876 74.5409 22.0029C74.2284 22.1201 73.9354 22.2959 73.6913 22.5205C73.4471 22.7451 73.2616 23.0186 73.1346 23.3213C72.9979 23.6533 72.9296 24.0049 72.9393 24.3564C72.9393 24.7178 72.9979 25.0693 73.1346 25.4014C73.2518 25.7041 73.4276 25.9775 73.6522 26.2021C73.8866 26.4268 74.16 26.6025 74.4628 26.71C74.7655 26.8174 75.1171 26.8857 75.4686 26.876V26.876ZM84.2577 26.5928C84.1112 26.583 83.9843 26.5732 83.8768 26.5537C83.7889 26.5439 83.7108 26.5049 83.6425 26.4463C83.5839 26.3877 83.535 26.3193 83.5155 26.2314C83.4862 26.1143 83.4764 25.9873 83.4764 25.8701V23.0088C83.4764 22.8623 83.4862 22.7256 83.496 22.5791C83.5057 22.4814 83.535 22.3936 83.5936 22.3252C83.6522 22.2568 83.7401 22.208 83.828 22.1787C83.9647 22.1396 84.1112 22.1104 84.2577 22.1006V21.9248C83.8378 21.9541 83.4178 21.9736 82.9979 21.9736C82.578 21.9736 82.1385 21.9541 81.7089 21.9248V22.1006C81.8553 22.1104 82.0018 22.1396 82.1483 22.1787C82.2362 22.208 82.3241 22.2568 82.3827 22.3252C82.4413 22.4033 82.4706 22.4912 82.4803 22.5791C82.4999 22.7158 82.4999 22.8623 82.4999 23.0088V23.9756H80.0585V23.0088C80.0585 22.8623 80.0682 22.7256 80.078 22.5791C80.0878 22.4814 80.1171 22.3936 80.1757 22.3252C80.244 22.2568 80.3221 22.208 80.4198 22.1787C80.5565 22.1396 80.703 22.1104 80.8495 22.1006V21.9248C80.4296 21.9541 80.0096 21.9736 79.5897 21.9736C79.1698 21.9736 78.7401 21.9541 78.3202 21.9248V22.1006C78.4569 22.1104 78.5936 22.1396 78.7303 22.1787C78.8182 22.208 78.8964 22.2568 78.955 22.3252C79.0135 22.4033 79.0428 22.4912 79.0526 22.5791C79.0624 22.7158 79.0721 22.8623 79.0721 23.0088V25.8701C79.0721 25.9971 79.0624 26.1143 79.0331 26.2314C79.0135 26.3096 78.9745 26.3877 78.9061 26.4463C78.8378 26.5049 78.7596 26.5342 78.6717 26.5537C78.5741 26.5732 78.4569 26.583 78.3007 26.5928V26.7686C78.5057 26.7588 78.7108 26.749 78.9257 26.749C79.1307 26.7393 79.3358 26.7393 79.5409 26.7393C79.746 26.7393 79.9706 26.7393 80.1854 26.749C80.4003 26.7588 80.6151 26.7588 80.83 26.7686V26.5928C80.6835 26.583 80.5565 26.5732 80.4589 26.5537C80.371 26.5439 80.2831 26.5049 80.2147 26.4463C80.1464 26.3877 80.1073 26.3193 80.0878 26.2314C80.0585 26.1143 80.0487 25.9873 80.0487 25.8701V24.2881H82.4901V25.8701C82.4901 25.9971 82.4803 26.1143 82.451 26.2314C82.4315 26.3096 82.3827 26.3877 82.3241 26.4463C82.2557 26.5049 82.1678 26.5342 82.08 26.5537C81.9823 26.5732 81.8651 26.583 81.7089 26.5928V26.7686C81.9237 26.7588 82.1288 26.749 82.3436 26.749C82.5585 26.7393 82.7635 26.7393 82.9784 26.7393C83.1932 26.7393 83.3983 26.7393 83.6132 26.749C83.828 26.7588 84.0331 26.7588 84.2479 26.7686L84.2577 26.5928V26.5928ZM87.5389 26.5928C87.2362 26.583 87.0311 26.5244 86.9042 26.4365C86.7772 26.3389 86.7089 26.1826 86.7186 26.0166V22.9111C86.7186 22.7842 86.7284 22.6572 86.7577 22.54C86.7772 22.4522 86.826 22.3643 86.8846 22.2959C86.953 22.2275 87.0409 22.1787 87.1385 22.1592C87.2753 22.1201 87.412 22.1104 87.5585 22.1006V21.9248L86.9237 21.9541C86.7186 21.9639 86.5038 21.9736 86.2889 21.9736C86.0741 21.9736 85.8397 21.9736 85.6151 21.9541L84.9413 21.9248V22.1006C85.244 22.1104 85.4491 22.1787 85.5663 22.2959C85.6737 22.4131 85.7323 22.6182 85.7323 22.9111V26.0166C85.7421 26.1826 85.6737 26.3389 85.5468 26.4365C85.4296 26.5244 85.2147 26.5732 84.912 26.5928V26.7588C85.1366 26.749 85.3514 26.7393 85.576 26.7393C85.8007 26.7295 86.0155 26.7295 86.2401 26.7295C86.4647 26.7295 86.6698 26.7295 86.8846 26.7393C87.0995 26.749 87.3046 26.749 87.5292 26.7588L87.5389 26.5928V26.5928ZM92.9882 26.876V23.4873C92.9882 23.2139 92.9979 22.9893 93.0175 22.8232C93.0272 22.6768 93.0663 22.54 93.1249 22.4033C93.1835 22.3057 93.2714 22.2178 93.3788 22.1787C93.5253 22.1299 93.6815 22.1006 93.8378 22.1006V21.9248C93.496 21.9541 93.1542 21.9736 92.8124 21.9736C92.6366 21.9736 92.4706 21.9736 92.2948 21.9541L91.7772 21.9248V22.1006C91.8846 22.1201 91.9823 22.1396 92.0897 22.1787C92.1776 22.1982 92.2655 22.2471 92.3436 22.2959C92.4217 22.3447 92.4803 22.4131 92.5194 22.4912C92.5682 22.5889 92.6073 22.6963 92.6171 22.8037C92.6464 23.0088 92.6757 23.2139 92.6854 23.4189C92.705 23.6631 92.7147 23.917 92.7147 24.1709C92.7147 24.4248 92.7245 24.6787 92.7245 24.9228V25.5186H92.705C92.2362 24.8936 91.7577 24.2881 91.2499 23.7119C90.7518 23.1357 90.2538 22.54 89.7655 21.9248C89.4335 21.9541 89.1014 21.9736 88.7694 21.9736C88.6425 21.9736 88.5155 21.9736 88.3788 21.9541L87.9882 21.9248V22.1006C88.0858 22.1201 88.1737 22.1494 88.2714 22.1787C88.3593 22.208 88.4569 22.2373 88.5448 22.2764C88.6327 22.3154 88.7206 22.3545 88.7987 22.4131C88.8768 22.4717 88.955 22.5303 89.0135 22.6084L88.9843 25.4795C88.9843 25.6553 88.9745 25.8311 88.955 26.0166C88.9452 26.1338 88.8964 26.2412 88.8182 26.3389C88.7401 26.4268 88.6327 26.4853 88.5155 26.5146C88.3397 26.5635 88.1542 26.6025 87.9686 26.6221V26.7978C88.1737 26.7881 88.3788 26.7783 88.5741 26.7783C88.7694 26.7685 88.9745 26.7686 89.1796 26.7686C89.3651 26.7686 89.5409 26.7685 89.7167 26.7783C89.8925 26.7881 90.0682 26.7881 90.2538 26.7978V26.6221C90.078 26.5928 89.912 26.5635 89.7362 26.5049C89.619 26.4756 89.5214 26.4072 89.4432 26.3096C89.3749 26.2021 89.326 26.0752 89.3163 25.9482C89.2967 25.7529 89.287 25.5478 89.287 25.3428V22.833C89.4042 22.9502 89.5409 23.1064 89.6971 23.292C89.8632 23.4775 90.0389 23.6826 90.2245 23.8975C90.41 24.1221 90.6151 24.3564 90.8202 24.6103L91.4354 25.3721C91.6405 25.6357 91.8358 25.8896 92.0214 26.1436C92.2069 26.3975 92.3729 26.6416 92.5194 26.8662L92.9882 26.876V26.876ZM99.121 26.5928C98.9647 26.5928 98.8182 26.5537 98.6718 26.4853C98.5253 26.417 98.4178 26.29 98.369 26.1436L96.787 21.8174C96.6503 21.8857 96.5038 21.9346 96.3475 21.9736C96.2499 22.0029 96.1425 22.1592 96.0155 22.4326L94.5897 25.792C94.5409 25.9092 94.4921 26.0166 94.4432 26.1045C94.4042 26.1924 94.3456 26.2705 94.287 26.3486C94.2186 26.417 94.1503 26.4756 94.0624 26.5146C93.955 26.5635 93.8378 26.5928 93.7206 26.6025V26.7783C93.8671 26.7685 94.0135 26.7588 94.16 26.7588C94.3065 26.749 94.453 26.749 94.5995 26.749C94.746 26.749 94.912 26.749 95.0682 26.7588C95.2245 26.7685 95.3807 26.7685 95.537 26.7783V26.6025C95.4686 26.5928 95.4003 26.5732 95.3319 26.5537C95.2635 26.5342 95.1854 26.4951 95.1171 26.4658C95.0585 26.4365 94.9999 26.3877 94.9608 26.3389C94.9218 26.29 94.9022 26.2412 94.9022 26.1728C94.9022 26.0947 94.912 26.0068 94.9413 25.9287C94.9706 25.8603 94.9901 25.8018 95.0194 25.7334L95.3905 24.6982H96.8456L97.0897 25.4209C97.1093 25.4697 97.1288 25.5283 97.1581 25.5967L97.2362 25.8115C97.2655 25.8799 97.285 25.9482 97.3046 26.0264C97.3241 26.085 97.3241 26.1338 97.3339 26.1924C97.3339 26.3193 97.2655 26.4268 97.1483 26.4756C96.9725 26.5537 96.7772 26.5928 96.5819 26.6025V26.7783C96.787 26.7685 96.9921 26.7588 97.1874 26.7588C97.3827 26.7588 97.5878 26.749 97.7928 26.749H98.4471C98.5643 26.749 98.6815 26.7588 98.7987 26.7588L99.1112 26.7783L99.121 26.5928V26.5928ZM96.6991 24.3467H95.4882L96.1034 22.5889H96.1229L96.6991 24.3467Z" fill="black"/>
</svg>
