<svg width="100" height="25" viewBox="0 0 100 25" fill="none" xmlns="http://www.w3.org/2000/svg">
<path d="M86.3927 18.3685C86.6625 18.3685 86.9228 18.3974 87.1637 18.4456H88.8407V19.1785H88.0793C88.2432 19.3618 88.3299 19.574 88.3299 19.8826V19.9501C88.3299 21.011 87.501 21.4739 86.383 21.4739C86.1035 21.4739 85.8337 21.4547 85.6024 21.3775C85.4867 21.4739 85.4193 21.5028 85.4193 21.6282C85.4193 21.8694 85.5542 21.9562 85.8626 21.9562H87.2312C88.1757 21.9562 88.8407 22.2938 88.8407 23.21C88.8407 24.1357 88.089 24.8206 86.3446 24.8206C84.7928 24.8206 84.0507 24.377 84.0507 23.6729C84.0507 23.5612 84.0937 23.4481 84.1682 23.3428C84.444 23.0749 85.0689 23.1439 85.1506 23.5452C85.1714 23.8882 85.4963 24.0684 86.3252 24.0684C87.3565 24.0684 87.7034 23.8079 87.7034 23.3932C87.7034 23.0074 87.53 22.8917 86.9324 22.8917H85.7119C85.6778 22.8872 85.6418 22.8812 85.6051 22.8731L85.3707 22.7938C85.3284 22.7724 85.2832 22.7571 85.2365 22.7483L84.9759 22.6603C84.6771 22.5541 84.4555 22.2841 84.4555 21.9369C84.4555 21.5993 84.6772 21.3969 85.0338 21.1653C84.6578 20.9241 84.4073 20.5577 84.4073 19.9983V19.9115C84.4073 18.8893 85.2169 18.3685 86.3927 18.3685ZM68.1971 16.6902C69.0645 16.6902 69.5367 16.8543 69.903 17.0471V17.973C69.4885 17.7994 68.9488 17.6451 68.2164 17.6451C67.5224 17.6451 67.1369 17.9344 67.1369 18.4648C67.1369 18.9856 67.3297 19.2075 67.9851 19.3907L68.6019 19.5836C69.6427 19.8826 70.2692 20.3166 70.2692 21.4933C70.2692 22.7471 69.5078 23.5282 67.9079 23.5282C67.0405 23.5282 66.3852 23.345 65.9321 23.1039V22.1684C66.4622 22.3998 67.0887 22.5734 67.8115 22.5734C68.6983 22.5734 69.0741 22.2069 69.0741 21.609C69.0741 21.0592 68.8331 20.8471 68.1103 20.6252L67.4839 20.4517C66.549 20.1912 65.9804 19.6897 65.9804 18.5709C65.9804 17.4521 66.7032 16.6902 68.1971 16.6902ZM96.3341 18.3685C97.481 18.3685 98.146 18.812 98.146 19.844V23.4124H97.2304V23.2435H97.1726C96.9317 23.5232 96.4497 23.4993 95.804 23.4993C94.9077 23.4993 94.2813 23.046 94.2813 22.0911C94.2813 21.175 94.8884 20.7506 95.8715 20.606L97.0376 20.4709V20.0948C97.0376 19.4196 96.7389 19.2653 95.9004 19.2653C95.4185 19.2653 94.5801 19.402 94.2813 19.4694V18.7075C94.7439 18.5243 95.6884 18.3685 96.3341 18.3685ZM57.8148 18.3587C59.2989 18.3587 60.1568 19.2653 60.1568 20.847V20.982C60.1568 22.5831 59.1929 23.4993 57.8051 23.4993C56.2919 23.4993 55.4535 22.5831 55.4535 21.0303V20.876C55.4535 19.2847 56.4172 18.3588 57.8148 18.3588V18.3587ZM40.7943 18.3685C41.9412 18.3685 42.6063 18.812 42.6063 19.844V23.4124H41.6906V23.3191C41.1701 23.4393 40.6947 23.4993 40.2643 23.4993C39.368 23.4993 38.7415 23.046 38.7415 22.0911C38.7415 21.175 39.3486 20.7506 40.3317 20.606L41.4979 20.4709V20.0948C41.4979 19.4196 41.1991 19.2653 40.3606 19.2653C39.8787 19.2653 39.0403 19.403 38.7415 19.4704V18.7086C39.2041 18.5253 40.1486 18.3685 40.7943 18.3685ZM77.4076 18.3685C78.5546 18.3685 79.2197 18.812 79.2197 19.844V23.4124H78.304V23.2032C78.0631 23.4829 77.5234 23.4993 76.8777 23.4993C75.9813 23.4993 75.3548 23.046 75.3548 22.0911C75.3548 21.175 75.962 20.7506 76.945 20.606L78.1113 20.4709V20.0948C78.1113 19.4196 77.8124 19.2653 76.974 19.2653C76.4921 19.2653 75.6536 19.403 75.3549 19.4704V18.7086C75.8175 18.5253 76.7619 18.3685 77.4076 18.3685ZM90.5056 16.3623V18.8699H90.5538C90.9586 18.5709 91.5368 18.3588 92.1344 18.3588C93.0885 18.3588 93.5801 18.7445 93.5801 19.7283V23.4125H92.4621V19.9887C92.4621 19.4872 92.2983 19.2846 91.6237 19.2846C91.2381 19.2846 90.8043 19.4101 90.5056 19.5547V23.4125H89.3973V16.3623H90.5057H90.5056ZM46.3337 18.3588C47.2878 18.3588 47.7793 18.7445 47.7793 19.7283V23.4125H46.6613V19.9887C46.6613 19.4872 46.4975 19.2846 45.8229 19.2846C45.4373 19.2846 45.0036 19.4101 44.7049 19.5547V23.4125H43.5965V18.4456H44.6663V18.8893H44.7049C45.1289 18.5807 45.7361 18.3588 46.3337 18.3588ZM49.8684 16.3623V23.4125H48.76V16.3623H49.8684ZM52.9621 18.4552C52.8936 18.5375 52.1037 19.6196 51.6254 20.2796L51.2658 20.7796C51.3472 20.8971 52.8008 22.9813 53.0536 23.3605L53.0874 23.4125H51.8634C51.7988 23.3119 50.6605 21.9405 50.1741 21.2294L49.8694 20.7795C49.9345 20.6655 51.2842 19.1954 51.6743 18.6442L51.8056 18.4552H52.9621ZM99.9901 18.4456V23.4124H98.8721V18.4456H99.9901ZM62.7855 16.2852C63.2288 16.2852 63.5372 16.3623 63.7203 16.4395V17.1821C63.5114 17.1366 63.2981 17.114 63.0842 17.1147C62.5637 17.1147 62.2746 17.3558 62.2746 17.944V18.4456H63.3637V19.3136H62.2746V23.4125H61.1856V19.3136H60.4724V18.4456H61.1856V17.8283C61.1856 16.7578 61.8506 16.2852 62.7855 16.2852ZM71.8626 16.3623V18.8699H71.9109C72.3156 18.5709 72.894 18.3588 73.4915 18.3588C74.4456 18.3588 74.9371 18.7445 74.9371 19.7283V23.4125H73.8192V19.9887C73.8192 19.4872 73.6553 19.2846 72.9807 19.2846C72.5951 19.2846 72.1614 19.4101 71.8627 19.5547V23.4125H70.7543V16.3623H71.8627H71.8626ZM82.3801 18.3588C83.3342 18.3588 83.8258 18.7445 83.8258 19.7283V23.4125H82.7077V19.9887C82.7077 19.4872 82.5439 19.2846 81.8692 19.2846C81.4837 19.2846 81.05 19.4101 80.7512 19.5547V23.4125H79.6428V18.4456H80.7126V18.8893H80.7512C81.1753 18.5807 81.7824 18.3588 82.38 18.3588H82.3801ZM35.7755 16.7963C37.2982 16.7963 37.9536 17.4136 37.9536 18.4648C37.9536 19.1592 37.6645 19.6607 36.8741 19.9115V19.9404C37.703 20.0947 38.2427 20.5577 38.2427 21.5222C38.2427 22.6217 37.5006 23.4125 35.9393 23.4125H33.4624V16.7963H35.7755ZM97.0376 21.1942L96.1221 21.2907C95.6305 21.3293 95.3703 21.5318 95.3703 22.0333C95.3703 22.506 95.6884 22.7181 96.1413 22.7181C96.498 22.7181 96.8545 22.5927 97.0376 22.4191V21.1942ZM41.4979 21.1942L40.5823 21.2907C40.0907 21.3293 39.8306 21.5318 39.8306 22.0333C39.8306 22.506 40.1486 22.7181 40.6016 22.7181C40.9582 22.7181 41.3148 22.5927 41.4979 22.4191V21.1942ZM78.1113 21.1942L77.1956 21.2907C76.7041 21.3293 76.444 21.5318 76.444 22.0333C76.444 22.506 76.7619 22.7181 77.215 22.7181C77.5715 22.7181 77.9281 22.5927 78.1113 22.4191V21.1942ZM57.7954 19.1979C57.0341 19.1979 56.5907 19.7283 56.5907 20.7988V21.0303C56.5907 22.313 57.1305 22.6602 57.8243 22.6602C58.5665 22.6602 59.0001 22.149 59.0001 21.0785V20.8374C59.0001 19.545 58.4701 19.1978 57.7954 19.1978V19.1979ZM35.708 20.4034H34.6382V22.5252H35.7755C36.5753 22.5252 36.9994 22.178 36.9994 21.4547C36.9994 20.6928 36.5465 20.4034 35.708 20.4034ZM86.383 19.0724C85.8144 19.0724 85.4963 19.3327 85.4963 19.8536V19.9693C85.4963 20.548 85.8337 20.7602 86.383 20.7602C86.9517 20.7602 87.2601 20.5479 87.2601 19.9982V19.8729C87.2601 19.2846 86.9228 19.0724 86.3831 19.0724H86.383ZM35.6115 17.6739H34.6382V19.6124H35.5634C36.2573 19.6124 36.7777 19.381 36.7777 18.6287C36.7777 17.915 36.373 17.6739 35.6116 17.6739H35.6115ZM99.9997 16.6131V17.6258H98.8721V16.6131H99.9997Z" fill="#0F469B"/>
<path d="M81.6207 1.30693V7.54053L81.1288 8.13965H78.4169C78.7024 9.2168 78.9636 9.93018 79.2 10.2795C79.5377 10.2795 80.0679 9.76329 80.7906 8.73096L80.8236 8.68369H82.3129V9.35166C81.4442 10.5161 80.792 11.2495 80.3561 11.5518C80.6995 11.9481 81.4153 12.4012 82.5035 12.911L82.5645 12.9394V14.1928C80.5811 13.5086 79.1984 12.7856 78.4168 12.0232C77.6473 11.2729 77.0059 10.0063 76.4927 8.22364L76.4686 8.13965H75.8656V12.2309L77.5446 11.5518V12.9395C77.5446 13.1158 76.6418 13.5768 74.836 14.3223L74.7804 14.3452H74.1866V1.30693H81.6207ZM73.1353 4.85332V5.92129H71.9814V8.16934H73.5965V9.32315H71.9814V12.4417L73.5965 11.5423V12.7476C73.5965 12.8732 72.8779 13.3841 71.4407 14.2798L71.392 14.3103H70.2247V9.32315H68.5972V8.16934H70.2247V5.92129H69.1031V4.85332H73.1353ZM91.3247 4.85332C90.5215 6.17774 89.9373 6.97891 89.5722 7.25703C89.5739 7.67813 89.5739 10.0292 89.5722 14.3103H87.8287V8.80147H86.1711V7.55567C86.8183 7.38946 87.3094 7.15079 87.6444 6.83985C87.9794 6.52891 88.4589 5.8668 89.0829 4.85332H91.3247ZM100 5.16719V6.48428H97.6286V13.6786L96.8725 14.3103H92.9003V12.7165L93.585 12.9395H95.6395V6.48428H91.5305V5.16719H100ZM40.6909 1.24658V5.75459H46.3183V7.07696H40.6909V12.9826H47.4438V14.2072H33.6566V12.9826H39.0026V1.24658H40.6909ZM54.0397 8.61201C53.8837 9.81045 53.7181 10.7431 53.5433 11.4097C53.3685 12.0763 53.045 13.0088 52.5726 14.2073H50.9896C51.4801 12.9197 51.8096 11.922 51.978 11.2142C52.1466 10.5065 52.3255 9.63897 52.5146 8.61201H54.0397ZM63.64 4.14111V7.40772H65.14V8.76358H63.64V11.1539H64.431V12.5637H63.64V13.9221L63.2293 14.2072H58.7746L58.487 13.2492H62.2884V12.5637C57.776 12.5407 55.3001 12.5407 54.8606 12.5637C55.0253 12.3763 55.2122 11.133 55.4214 8.8336L55.4277 8.76358H54.5108V7.40772H55.4278L55.6843 4.14111H63.64ZM62.2884 8.76358H56.7997C56.7059 10.1468 56.6591 10.9473 56.6591 11.1651C57.1312 11.1813 57.9469 11.1813 59.1058 11.1651C59.1711 10.9335 59.1711 10.7329 59.1058 10.5632C59.0406 10.3935 58.8692 10.1481 58.5917 9.82696H60.0018C60.4976 10.5125 60.7456 10.9586 60.7456 11.1651C61.0616 11.1922 61.5759 11.1922 62.2884 11.1651V8.76358ZM62.2884 5.39902H56.9544L56.7997 7.40772H59.1058C59.1711 7.18252 59.1711 6.98496 59.1058 6.81534C59.0406 6.64561 58.8692 6.4002 58.5917 6.0791H60.0018C60.4976 6.7584 60.7456 7.20117 60.7456 7.40772C61.0616 7.43486 61.5759 7.43486 62.2884 7.40772V5.39902ZM52.9661 4.74102C53.5257 6.01328 53.8055 6.90215 53.8055 7.40772C53.3941 7.43311 52.9008 7.42989 52.3253 7.39825C52.2841 6.8333 52.2052 6.39366 52.0885 6.0791C51.9718 5.76465 51.7222 5.31856 51.3397 4.74102H52.9661ZM79.8081 5.16719H75.7742V6.83985H79.8081V5.16719ZM91.3247 0.766212C90.5091 2.54131 89.7792 3.66631 89.1349 4.14111C88.1685 4.85332 87.4016 5.16719 87.0043 5.16719H86.1711V4.14111C87.0852 3.73486 87.7076 3.34346 88.0386 2.9667C88.3694 2.58994 88.7349 1.85635 89.1349 0.766212H91.3247ZM71.8574 0.766212V2.15684H73.5013V3.22549H70.8884C69.7958 4.1083 69.0994 4.54971 68.7994 4.54971H68.5814V3.37197C68.9679 3.07441 69.2611 2.76826 69.461 2.45361C69.6609 2.13897 69.9196 1.57647 70.2371 0.766113H71.8574V0.766212ZM58.1597 0.766212V1.80703H64.4311V3.16572C59.6521 3.15225 57.0976 3.15225 56.7677 3.16572C56.6151 3.39561 56.1204 3.7208 55.2835 4.14111H54.5178C54.5086 3.8417 54.5086 3.48408 54.5178 3.06807C54.9926 2.83525 55.7426 2.06797 56.7677 0.766212H58.1597ZM79.8081 2.45371H75.7742V4.14111H79.8081V2.45361V2.45371ZM53.0417 1.08369C53.5509 2.67705 53.8055 3.63877 53.8055 3.96885C53.3412 3.98994 52.7809 3.98994 52.1247 3.96885C52.0895 3.47568 52.0233 3.0499 51.9259 2.69199C51.8285 2.33398 51.6331 1.79785 51.3397 1.08369H53.0417ZM99.337 1.55859V2.9667H91.9419V1.55849H99.337V1.55859Z" fill="#0F469B"/>
<path d="M1.51725 24.5826C0.824575 24.5496 0.230825 23.9553 0.197914 23.2619C-0.0659715 16.0166 -0.0659715 8.76411 0.197914 1.51882C0.230825 0.825461 0.824575 0.231123 1.51725 0.198115C8.75518 -0.0660383 16.0003 -0.0660383 23.2383 0.198115C23.9309 0.231123 24.5247 0.825461 24.5576 1.51882C24.8215 8.76411 24.8215 16.0166 24.5576 23.2619C24.5247 23.9553 23.9309 24.5496 23.2383 24.5826C16.0003 24.8467 8.75518 24.8467 1.51725 24.5826Z" fill="#0F469B"/>
<path d="M12.2042 2.73975C15.3379 5.89307 18.4715 9.01328 21.6051 12.1666C15.2555 10.5816 8.98821 10.5816 2.80334 12.1666L12.2042 2.73975ZM16.8882 12.1501L15.9811 12.1831C11.4291 12.3482 8.49339 13.0086 10.5221 14.4284C12.9629 16.1289 8.82327 17.1194 8.03157 17.3506L12.2042 21.5606L21.6051 12.1336H16.8883V12.1502L16.8882 12.1501Z" fill="white"/>
</svg>
