<svg width="100" height="20" viewBox="0 0 100 20" fill="none" xmlns="http://www.w3.org/2000/svg">
<path d="M91.4518 3.68384L92.5157 4.71362L92.4747 4.79116C92.3365 5.04673 91.863 5.87603 91.2696 6.40581L91.243 6.42925L91.2811 11.0616H89.4762V7.80181L89.3842 7.85825C89.1837 7.97964 88.7161 8.2523 88.6101 8.22427L88.6027 8.22154L87.8806 7.00132L87.9081 6.9939C88.1454 6.92642 89.8759 6.35864 91.3837 3.80611L91.4329 3.72212L91.4518 3.68384ZM28.2213 2.71011V3.58531H32.0019C32.0205 3.58365 32.5908 3.53999 32.6271 4.14478L32.6285 4.17554L32.6315 4.33726C32.6371 4.7813 32.6375 5.80542 32.6362 6.85191L32.6287 9.84761H28.2408V10.8752H26.3407V9.82827H22.0097L22.0285 4.18882C22.0312 4.07222 22.0835 3.58306 22.7695 3.56636L22.901 3.56382C23.3188 3.55728 24.0709 3.55718 24.769 3.55894L26.3786 3.56636V2.71011H28.2213ZM55.987 2.46988V2.92642L58.2071 2.92661C58.2803 2.92915 58.8501 2.9686 58.903 3.57876L58.9053 3.61089V4.33325H59.5724V5.30308H58.9433V6.69146H55.9294V7.09087H58.905V8.04185H55.9294V8.4979H58.905V9.50572H55.9675V9.92417H59.4388V10.8752H51.9053C51.9053 10.8752 50.5889 10.6091 50.1505 10.2477L50.1228 10.2722C49.9799 10.3939 49.2956 10.9233 48.2867 10.8412L48.2432 10.8373V9.63921L48.3137 9.62691C48.4991 9.59263 48.9933 9.48843 49.101 9.33491L49.0454 9.23531C48.9037 8.97622 48.5316 8.25777 48.4021 7.63697L48.3955 7.60444V7.24322H49.4254L49.4495 7.34878C49.5153 7.62749 49.7048 8.36099 49.8728 8.34771L49.8835 8.34575C49.8835 8.34575 49.9539 8.452 50.0617 8.00025L50.0741 7.94663V6.50113H48.3955V5.53111L48.4276 5.53032C48.6353 5.52075 49.7928 5.40073 50.1206 3.90825L50.1312 3.85796H48.2813V2.85015H51.6956V3.64868C51.6956 3.64868 51.3606 4.94829 50.6163 5.49273L50.5892 5.51216H51.4285L51.3716 8.28853C51.3716 8.28853 51.2569 9.14458 50.913 9.44849L51.3865 9.71587C51.4258 9.73775 51.4602 9.75689 51.4857 9.77066L51.524 9.79097L52.0962 9.90484H54.1753V9.46773H51.6V8.47906H54.1752V8.07964H51.8865V7.07153H54.1943V6.65337H52.0581V5.72144H54.2136V5.24614H51.8291V4.31411H54.1944V3.89605H52.0387V2.96431H54.2319V2.46968H55.9869L55.987 2.46988ZM64.0737 4.59976V8.84038L65.4848 7.64214V9.25874L65.4464 9.29517C65.2148 9.5105 63.9616 10.6177 62.4135 10.8752L61.5366 9.86734L62.3569 9.56275V5.41753H61.0978V4.59976H64.0737ZM76.7577 2.00278L78.113 2.53364L77.7695 3.23521H79.8501V4.12622H77.1782L76.7194 4.80884H79.7167V5.79458H77.9791V6.53394H79.8501V7.50074H77.998V9.22583L78.0852 9.18599C78.3519 9.0606 79.177 8.64634 79.7926 8.05044V9.49126C79.7926 9.49126 79.2769 10.42 76.5475 10.8751L75.5745 9.73755L76.4142 9.60474V7.53843H75.2693V6.53403H76.4907V5.77583H75.6699L75.2884 6.07915L74.4302 5.02896C74.417 5.01269 74.404 4.99628 74.3912 4.97974C74.3338 4.90376 75.9375 4.3728 76.7577 2.00288V2.00278ZM80.2255 2.38814H85.5177L85.5416 2.39175C85.6481 2.4104 86.0763 2.51568 86.1099 3.00435L86.1132 3.05991C86.1301 3.40913 86.1288 4.33394 86.1235 5.14878L86.1099 6.58677L81.8682 6.64448V9.47525L81.9538 9.45708C82.1791 9.40718 82.7933 9.25747 83.1091 9.04644L83.1293 9.03257L83.1869 9.12896V10.3035L83.1603 10.3238C83.0008 10.4393 82.1027 11.0034 79.9543 10.8484L79.8814 10.8428L79.8435 9.55269H80.2064L80.2255 2.38814ZM100 5.10386V6.10503H98.7197V9.398C98.7197 10.537 97.627 10.8044 97.4608 10.8385L97.4396 10.8426H94.4401L94.4593 9.8605L96.4657 9.84136C96.7711 9.80259 96.7901 9.53316 96.7901 9.53316V6.12427L96.7711 6.10503H92.5299V5.10386H100ZM85.1556 6.96958H86.5106L86.5064 6.99869C86.4801 7.15376 86.3019 7.91841 85.2319 8.9981L85.2404 9.00777C85.2927 9.06392 85.6003 9.34898 86.5106 9.43414V10.7613L86.469 10.7616C86.1933 10.7594 84.6003 10.673 83.2278 9.01705L83.1895 8.94126L83.1666 8.91519C83.0504 8.77955 82.5208 8.11929 82.2163 7.02671H83.6284L83.7049 7.20943C83.8445 7.53736 84.1343 8.18775 84.22 8.14527L84.24 8.13657C84.3589 8.09097 84.5782 8.07964 85.1556 6.96958ZM36.1045 2.63364L36.1774 2.63208C36.5363 2.62651 37.7571 2.62495 39.1932 2.62534L45.2796 2.63364C45.2796 2.63364 45.8661 2.68892 45.887 3.23179L45.8875 3.26187V10.7609H35.3258V3.20474L35.3323 3.18638C35.3683 3.09058 35.563 2.65034 36.1045 2.63364ZM72.7309 6.11675V7.0645L70.8221 8.9607C70.8071 8.96665 70.4581 9.11968 73.1703 9.47261V10.6858L73.083 10.6839C72.6252 10.6712 70.4739 10.571 69.2004 9.79478L69.1832 9.80865C69.0488 9.91236 68.0957 10.5669 65.2688 10.7239V9.5482L65.4899 9.52359C66.0524 9.45796 67.4974 9.26909 67.5585 9.05542L67.3657 8.91402C66.8691 8.54683 65.5818 7.57466 65.5359 7.33023H67.4633L69.162 8.29693L70.7651 7.02691H65.3261V6.11675H72.7309ZM44.0261 3.50923H37.2064V9.9233H44.0261V3.50923ZM43.8718 4.02622V4.92466H41.6394V5.8229H43.7966V6.77876H41.6394V8.51831H43.853V9.47417H37.5149V8.51831H39.6335V6.77876H37.609V5.8229H39.6335V4.92456H37.5331V4.02622H43.8719H43.8718ZM30.7288 4.49898H28.2402V8.97154H30.7289V4.49898H30.7288ZM26.3784 4.48003H23.8896V8.95269H26.3784V4.48003ZM42.9983 6.93833L43.3224 7.52818H43.7037V8.3647H42.6928C42.6931 8.3647 42.3308 8.55513 41.7012 6.93833H42.9983ZM90.5997 2.00278L91.5357 2.84995L91.4948 2.92749C91.2786 3.32817 90.2204 5.17378 88.6844 5.94458L88.6319 5.97046L88.001 4.8146L88.0412 4.79566C88.2755 4.68032 89.489 4.01118 90.5635 2.0687L90.5997 2.00269V2.00278ZM71.989 3.09751L71.9938 3.18198C72.0241 3.80093 71.989 4.79009 71.989 4.79009H72.8663V5.7979L72.3406 5.80396C71.9786 5.80689 71.5195 5.80835 71.2696 5.79966L71.2265 5.798C70.8437 5.78062 70.2724 5.58862 70.2151 4.90425V3.42076H67.9841L67.9843 5.06265C67.9818 5.18335 67.9309 5.69273 67.2592 5.75972L67.1957 5.76558C66.4339 5.83159 65.3522 5.75972 65.3522 5.75972V4.86597H66.0763L66.0854 4.86304C66.1182 4.85132 66.229 4.79956 66.229 4.63775V2.48901L71.3863 2.48921C71.454 2.49185 71.9539 2.53022 71.989 3.09751ZM57.0359 5.28413H55.9486V5.74077H57.0359V5.28413ZM84.4094 5.00718H81.8873V5.71978H84.4094V5.00718ZM57.0549 3.89614H55.9675V4.35249H57.0548V3.89614H57.0549ZM84.4094 3.33169H81.8873V4.04439H84.4094V3.33169ZM65.0653 2.71714V3.70572H61.6518V2.71714H65.0653ZM99.7896 2.56148V3.56275H92.9308V2.56138H99.7896V2.56148ZM24.3134 13.5525C23.2457 13.6079 22.6939 14.28 22.6569 15.5694C22.6569 16.9509 23.2184 17.6413 24.341 17.6413C25.1143 17.6229 25.5923 17.1534 25.7769 16.2326H26.4394C26.2365 17.4669 25.4913 18.1017 24.2031 18.1387C23.485 18.1202 22.9144 17.8993 22.4912 17.4758C22.1233 16.9788 21.9391 16.3522 21.9391 15.5972C21.9391 14.7687 22.1694 14.1145 22.6295 13.6356C23.053 13.1937 23.6138 12.9725 24.3134 12.9725C25.5094 13.0094 26.2001 13.5435 26.384 14.5747H25.7215C25.5555 13.9116 25.0865 13.5709 24.3133 13.5525H24.3134ZM29.5667 18.0822V15.7338C29.5853 15.1628 29.3367 14.8864 28.8215 14.9054C28.1591 14.9234 27.8183 15.3195 27.8 16.0929V18.0822H27.1654V13.1091H27.8001V14.9323H27.8278C28.1222 14.5274 28.4809 14.3249 28.904 14.3249C29.2908 14.3249 29.5945 14.4355 29.8153 14.6564C30.036 14.8773 30.1743 15.1263 30.1743 15.6235V18.0821L29.5667 18.0822ZM31.7465 18.0822H31.1121V14.4354H31.7465V18.0821V18.0822ZM31.1121 13.8001V13.1092H31.7465V13.8001H31.1121V13.8001ZM35.0342 18.0825V15.8722C35.0711 15.1908 34.8038 14.8685 34.2332 14.9051C33.9574 14.9051 33.7274 15.0063 33.5432 15.2089C33.3775 15.375 33.2854 15.6695 33.2668 16.0932V18.0825H32.632V14.4358H33.2398V14.9606C33.5339 14.5369 33.9115 14.3252 34.3712 14.3252C35.1995 14.3434 35.6228 14.7766 35.6409 15.6235V18.0825H35.0342ZM38.0681 14.3252C38.9517 14.3621 39.4025 14.7122 39.4206 15.3753V17.4748C39.4206 17.6225 39.4943 17.6957 39.6417 17.6957H39.7244C39.7797 17.6777 39.8256 17.6684 39.8626 17.6684V18.0825H39.5036C39.0617 18.0825 38.8501 17.9258 38.8688 17.6128C38.5005 17.9444 38.0494 18.1099 37.516 18.1099C36.7797 18.0917 36.3935 17.7696 36.3564 17.1431C36.3747 16.4802 36.7523 16.1021 37.4883 16.0103L38.5095 15.9C38.7305 15.8628 38.8409 15.716 38.8409 15.458C38.8409 15.0528 38.5465 14.85 37.9571 14.85C37.4418 14.85 37.166 15.0894 37.1292 15.5681H36.5499C36.5681 14.7397 37.0744 14.3252 38.0681 14.3252ZM37.7919 16.4802C37.2767 16.517 37.0188 16.7102 37.0188 17.0604C37.0188 17.484 37.2305 17.6954 37.6539 17.6954C38.3717 17.6402 38.7579 17.3551 38.8137 16.8392V16.2312C38.6664 16.3231 38.3259 16.4065 37.7919 16.4802ZM44.6632 13.5525C43.5956 13.6079 43.044 14.28 43.0066 15.5694C43.0066 16.9509 43.5681 17.6413 44.6905 17.6413C45.4639 17.6229 45.9421 17.1534 46.1266 16.2326H46.7893C46.5864 17.4669 45.8409 18.1017 44.553 18.1387C43.8349 18.1202 43.2646 17.8993 42.8411 17.4758C42.4734 16.9788 42.2896 16.3521 42.2896 15.5971C42.2896 14.7687 42.5193 14.1145 42.9796 13.6356C43.4028 13.1936 43.9641 12.9724 44.6635 12.9724C45.8596 13.0093 46.5497 13.5434 46.7342 14.5747H46.0711C45.9055 13.9116 45.436 13.5709 44.6632 13.5525ZM49.0299 14.3252C49.5452 14.3252 49.9593 14.5091 50.2721 14.8777C50.585 15.2463 50.7415 15.6882 50.7415 16.2592C50.7415 16.8302 50.5941 17.2905 50.2997 17.6402C50.0052 17.99 49.5627 18.1387 49.029 18.1387C48.4954 18.1387 48.2089 18.0504 47.8949 17.7746C47.5808 17.4987 47.3371 16.9037 47.3181 16.2592C47.2991 15.6149 47.4374 15.2182 47.7688 14.8501C48.1 14.4817 48.5148 14.3252 49.0299 14.3252ZM49.0296 17.6684C49.6923 17.6875 50.0508 17.1803 50.1062 16.2592C50.1616 15.3381 49.6923 14.8593 49.0296 14.8777C48.3669 14.8962 47.898 15.3383 47.9531 16.2592C48.0081 17.1801 48.3669 17.6495 49.0296 17.6684ZM53.8371 18.0825V15.8722C53.8743 15.1908 53.6071 14.8685 53.0365 14.9051C52.7602 14.9051 52.5302 15.0063 52.346 15.2089C52.1804 15.375 52.0883 15.6695 52.0702 16.0932V18.0825H51.4351V14.4358H52.0427V14.9606C52.3368 14.5369 52.7141 14.3252 53.1744 14.3252C54.0025 14.3434 54.4259 14.7766 54.4442 15.6235V18.0825H53.8371ZM56.569 14.8777C56.1093 14.8962 55.8694 15.0712 55.8518 15.4029C55.8146 15.6422 56.0357 15.8081 56.5142 15.9002L57.1487 16.0382C57.8477 16.1857 58.1887 16.508 58.1707 17.0056C58.1707 17.3736 58.0418 17.6687 57.7839 17.8895C57.5074 18.0368 57.1583 18.1102 56.7345 18.1102C55.6853 18.1102 55.1516 17.7145 55.1334 16.9224H55.7132C55.7504 17.438 56.0902 17.6957 56.7345 17.6957C57.2687 17.6777 57.5443 17.475 57.5628 17.0879C57.5999 16.8669 57.3605 16.692 56.8453 16.5631L56.0998 16.3972C55.5291 16.25 55.2434 15.9643 55.2434 15.5409C55.2434 15.1542 55.3909 14.8413 55.685 14.6013C55.961 14.4172 56.2836 14.3252 56.6516 14.3252C57.5351 14.3434 58.0047 14.7397 58.0598 15.5134H57.4528C57.4528 15.0897 57.1586 14.8777 56.569 14.8777ZM59.6332 17.3387C59.6332 17.5416 59.753 17.6426 59.9925 17.6426H60.2411V18.0849H59.7714C59.4585 18.0849 59.2562 18.0389 59.1636 17.9467C59.0539 17.7995 58.9984 17.6152 58.9984 17.3942V14.9628H58.5289V14.4378H58.9984V13.4432H59.6332V14.438H60.241V14.9628H59.6332V17.3388V17.3387ZM60.9003 18.0825V14.4358H61.5077V15.0711C61.7836 14.5736 62.1332 14.325 62.5572 14.325C62.5814 14.325 62.6365 14.3341 62.7222 14.3526V15.0157H62.4742C62.1978 15.0157 61.9865 15.0894 61.839 15.2368C61.6367 15.4393 61.5357 15.6882 61.5357 15.9829V18.0825H60.9003ZM65.5704 18.0835V17.5858L65.5424 17.5586C65.2848 17.9455 64.889 18.1294 64.3553 18.111C64.0607 18.111 63.8127 18.0739 63.6101 18.0006C63.3341 17.8348 63.1867 17.522 63.1685 17.061V14.4364H63.8038V16.8676C63.8038 17.4204 64.0425 17.6968 64.5213 17.6968C65.1473 17.6785 65.4879 17.2638 65.5428 16.4537V14.4367H66.1503V18.0837H65.5704V18.0835ZM68.5248 14.9054C67.8624 14.9423 67.5126 15.3933 67.4762 16.2592C67.4762 17.2168 67.8169 17.6954 68.4982 17.6954C68.9943 17.6587 69.2885 17.3641 69.3812 16.8116H69.9885C69.841 17.6589 69.3448 18.0917 68.4983 18.1099C67.9825 18.1099 67.5773 17.9812 67.2831 17.7234C66.9884 17.4287 66.841 16.977 66.841 16.3693C66.841 15.7067 66.9982 15.2001 67.3105 14.8502C67.6046 14.5002 68.0379 14.3252 68.6077 14.3252C69.4176 14.3434 69.8782 14.8044 69.9885 15.7067H69.3809C69.3257 15.1723 69.0406 14.9054 68.5248 14.9054ZM71.341 17.3387C71.341 17.5416 71.4601 17.6426 71.6995 17.6426H71.948V18.0849H71.4784C71.1652 18.0849 70.9631 18.0389 70.8712 17.9467C70.7611 17.7995 70.7056 17.6152 70.7056 17.3942V14.9628H70.2361V14.4378H70.7057V13.4432H71.341V14.438H71.948V14.9628H71.341V17.3388V17.3387ZM72.5555 18.0822V14.4354H73.1916V18.0821H72.5555V18.0822ZM72.5555 13.8001V13.1092H73.1916V13.8001H72.5555V13.8001ZM74.3495 14.8777C74.6807 14.5095 75.0754 14.3252 75.5912 14.3252C76.1069 14.3252 76.5211 14.5091 76.8339 14.8777C77.1468 15.2463 77.3029 15.6882 77.3029 16.2592C77.3029 16.8302 77.1563 17.2905 76.8613 17.6402C76.5664 17.99 76.1251 18.1387 75.5912 18.1387C75.0572 18.1387 74.683 17.9732 74.3896 17.6685C74.0964 17.3637 73.8981 16.9037 73.8803 16.2593C73.8627 15.6148 74.0181 15.246 74.3495 14.8777ZM75.5912 17.6684C76.2538 17.6875 76.6131 17.1803 76.6685 16.2592C76.7239 15.3381 76.2539 14.8593 75.5912 14.8777C74.9285 14.8962 74.4598 15.3383 74.5148 16.2592C74.5697 17.1801 74.9285 17.6495 75.5912 17.6684ZM80.3994 18.0825V15.8722C80.4366 15.1908 80.1696 14.8685 79.5993 14.9051C79.3225 14.9051 79.0924 15.0063 78.9087 15.2089C78.7429 15.375 78.6511 15.6695 78.6327 16.0932V18.0825H77.998V14.4358H78.6045V14.9606C78.8994 14.5369 79.2763 14.3252 79.7367 14.3252C80.5651 14.3434 80.988 14.7766 81.0072 15.6235V18.0825H80.3994ZM86.192 13.1091C87.0933 13.146 87.5631 13.5603 87.6002 14.3521C87.6002 14.8497 87.3793 15.1995 86.9377 15.4022C87.5632 15.6233 87.8761 16.0285 87.8761 16.618C87.8761 16.9862 87.7563 17.2997 87.5176 17.5575C87.2047 17.9077 86.7441 18.0824 86.1368 18.0824H83.9561V13.1092H86.192V13.1091ZM85.8603 15.2087C86.5785 15.2273 86.928 14.9513 86.9094 14.3803C86.9094 13.9011 86.5599 13.6617 85.8603 13.6617H84.6458V15.2088H85.8603V15.2087ZM84.6458 17.5298H86.1094C86.8085 17.5117 87.1673 17.2079 87.1855 16.6183C87.1855 16.0658 86.7805 15.7896 85.9712 15.7896H84.6458V17.5298ZM90.088 14.3252C90.9709 14.3622 91.4218 14.7122 91.4399 15.3753V17.4748C91.4399 17.6226 91.5135 17.6957 91.6609 17.6957H91.7438C91.7986 17.6777 91.8448 17.6685 91.8823 17.6685V18.0825H91.5229C91.0814 18.0825 90.8695 17.9258 90.8883 17.6128C90.52 17.9444 90.0691 18.1099 89.5357 18.1099C88.7989 18.0918 88.4127 17.7696 88.3759 17.1431C88.3942 16.4802 88.7719 16.1021 89.5083 16.0103L90.5298 15.9C90.7506 15.8628 90.8605 15.716 90.8605 15.458C90.8605 15.0528 90.5662 14.8501 89.9774 14.8501C89.4616 14.8501 89.1856 15.0894 89.1489 15.5681H88.5688C88.5877 14.7397 89.0933 14.3252 90.088 14.3252ZM89.8112 16.4802C89.2962 16.517 89.0384 16.7102 89.0384 17.0605C89.0384 17.484 89.2494 17.6954 89.6729 17.6954C90.3905 17.6402 90.7769 17.3551 90.8332 16.8392V16.2312C90.6853 16.3231 90.3449 16.4065 89.8112 16.4802ZM94.8957 18.0825V15.8722C94.9322 15.1908 94.6653 14.8685 94.0949 14.9051C93.8182 14.9051 93.5887 15.0063 93.4043 15.2089C93.2386 15.375 93.1466 15.6695 93.1284 16.0932V18.0825H92.4936V14.4358H93.1007V14.9606C93.3956 14.5369 93.7726 14.3252 94.233 14.3252C95.0613 14.3434 95.4837 14.7766 95.5027 15.6235V18.0825H94.8957ZM98.7037 18.0822L97.5439 16.2312L97.0469 16.7287V18.0822H96.4394V13.1091H97.0469V16.0102L98.6483 14.4355H99.4218L98.0138 15.8168L99.5046 18.0821L98.7038 18.0822H98.7037Z" fill="#040000"/>
<path d="M7.21104 1.86962C9.1755 1.73817 10.252 3.20555 10.865 3.87958L11.5788 4.65145L14.7923 8.10468L12.5828 10.2708L8.46143 6.10819L4.25537 10.5254L8.33419 14.9002L12.6257 10.4831L13.1338 10.4687C13.9155 10.4492 15.3946 10.4227 16.0808 10.4807L16.1093 10.4831C16.7624 10.5425 16.9383 10.7881 16.9852 10.9309C16.7225 15.4646 13.0253 19.0588 8.50079 19.0588C3.80547 19.0588 0 15.1887 0 10.4147C0 6.08651 3.12822 2.50126 7.21104 1.86962ZM16.9852 5.69442L15.1925 7.45224L15.0909 7.31991C14.33 6.33671 9.49688 0.245395 7.57256 1.59305L7.60303 1.57215C7.9921 1.31512 12.0513 -1.11877 16.9852 5.69442Z" fill="#06569F"/>
</svg>
