<svg width="100" height="15" viewBox="0 0 100 15" fill="none" xmlns="http://www.w3.org/2000/svg">
<path d="M38.2222 1.56108V2.44616H45.8429V5.98996H39.3093V6.91337H45.5014C46.606 6.91337 47.1531 6.60672 47.1531 5.98996V2.19178C47.1531 1.84333 46.8709 1.56108 46.5224 1.56108H38.2222Z" fill="black"/>
<path d="M39.5358 1.56108H38.2222V6.91337H39.5358V1.56108Z" fill="black"/>
<path d="M43.348 0.355432H42.0343V8.84383H43.348V0.355432Z" fill="black"/>
<path d="M54.1118 5.6624C54.4881 6.6102 54.6345 7.27575 54.6345 7.27575L55.6241 7.03532C55.6241 7.03532 55.4638 6.16766 55.1397 5.34531L54.1118 5.6624Z" fill="black"/>
<path d="M48.4459 0.355432V1.24051H56.0666V7.92042H49.5331V8.84383H55.7251C56.8297 8.84383 57.3768 8.53719 57.3768 7.92042V0.989623C57.3768 0.641166 57.0946 0.358917 56.7461 0.358917H48.4459V0.355432Z" fill="black"/>
<path d="M49.7596 0.355432H48.4459V8.84383H49.7596V0.355432Z" fill="black"/>
<path d="M53.5717 2.24059H52.258V6.64508H53.5717V2.24059Z" fill="black"/>
<path d="M55.7635 6.55448H50.0662V7.36639H55.7635V6.55448Z" fill="black"/>
<path d="M55.652 1.83288H50.1742V2.64479H55.652V1.83288Z" fill="black"/>
<path d="M55.4812 3.9933H50.345V4.8052H55.4812V3.9933Z" fill="black"/>
<path d="M78.6989 2.3765H69.4752V3.47413H78.6989V2.3765Z" fill="black"/>
<path d="M73.3814 0.355432V2.61343C73.3814 3.34867 72.8587 4.55085 72.2594 5.38017C71.552 6.36282 70.5868 7.21654 69.3114 7.94829L70.1059 8.96927C71.6984 8.07374 72.4824 7.33153 73.1898 6.51962C73.8309 5.78787 74.7961 4.25814 74.7961 2.60994V0.355432H73.3814Z" fill="black"/>
<path d="M74.7997 0.355432V2.61343C74.7997 3.34867 75.3223 4.55085 75.9217 5.38017C76.6291 6.36282 77.5943 7.21654 78.8696 7.94829L78.0751 8.96927C76.4827 8.07374 75.6987 7.33153 74.9913 6.51962C74.3502 5.78787 73.3849 4.25814 73.3849 2.60994V0.355432H74.7997Z" fill="black"/>
<path d="M66.3496 0.501799C65.6631 1.95486 65.123 2.64829 65.123 2.64829L66.0569 3.35914C66.0569 3.35914 66.7398 2.6239 67.5517 1.12554L66.3496 0.501799Z" fill="black"/>
<path d="M60.4606 0.501799C61.1471 1.95486 61.6872 2.64829 61.6872 2.64829L60.7534 3.35914C60.7534 3.35914 60.0704 2.6239 59.2585 1.12554L60.4606 0.501799Z" fill="black"/>
<path d="M67.9559 3.44275H58.8577V4.45327H67.9559V3.44275Z" fill="black"/>
<path d="M61.3353 4.24072C61.3353 5.53349 60.492 7.19215 58.7114 8.07723L59.2236 8.97276C61.06 8.33857 62.865 6.64507 62.865 4.23375L61.3353 4.24072Z" fill="black"/>
<path d="M64.1334 0.355432H62.6768V3.98983H64.1334V0.355432Z" fill="black"/>
<path d="M65.5028 7.92041V3.95846H64.0463V7.78451C64.0463 8.36992 64.5202 8.84382 65.1056 8.84382H68.0187V7.92041H65.5028Z" fill="black"/>
<path d="M81.2739 0.223017C80.7478 1.42171 79.8035 2.42526 79.8035 2.42526L80.4551 3.02461C80.4551 3.02461 81.6085 2.26497 82.2949 0.703887L81.2739 0.223017Z" fill="black"/>
<path d="M88.8389 5.12927C87.6855 6.2722 86.5809 6.76004 86.5809 6.76004L86.9956 7.64861C86.9956 7.64861 88.1838 7.4465 89.6892 5.95511L88.8389 5.12927Z" fill="black"/>
<path d="M84.194 0.376317V1.2614H87.8667V3.64832H84.194V4.57173H87.5252C88.6299 4.57173 89.1769 4.26509 89.1769 3.64832V1.01051C89.1769 0.662052 88.8947 0.379802 88.5462 0.379802H84.194V0.376317Z" fill="black"/>
<path d="M88.3267 2.04892H84.194V2.89916H88.3267V2.04892Z" fill="black"/>
<path d="M83.4518 3.09429H80.4934V3.94453H83.4518V3.09429Z" fill="black"/>
<path d="M83.5633 1.24052H80.9638V2.09076H83.5633V1.24052Z" fill="black"/>
<path d="M83.6679 5.12927H80.4202V5.9795H83.6679V5.12927Z" fill="black"/>
<path d="M82.2392 7.92041V3.66228H81.0474V7.78452C81.0474 8.36992 81.5213 8.84382 82.1067 8.84382H83.4762V7.92041H82.2392Z" fill="black"/>
<path d="M85.1801 7.9204V0.376317H83.9884V7.7845C83.9884 8.3699 84.4623 8.84381 85.0477 8.84381H86.7656V7.9204H85.1801Z" fill="black"/>
<path d="M87.0932 4.78779C87.0932 5.92724 87.8389 7.39772 89.4069 8.17827L88.9574 8.96926C87.3371 8.40825 85.7412 6.91685 85.7412 4.78779H87.0932Z" fill="black"/>
<path d="M92.5535 2.47403C91.8078 3.91664 90.5603 5.08745 90.5603 5.08745L91.2293 5.80179C91.2293 5.80179 92.651 4.8749 93.6198 2.99672L92.5535 2.47403Z" fill="black"/>
<path d="M92.5535 0C91.8078 1.44261 90.5603 2.61342 90.5603 2.61342L91.2293 3.32776C91.2293 3.32776 92.651 2.40086 93.6198 0.522684L92.5535 0Z" fill="black"/>
<path d="M92.8915 8.84384H91.6614V4.27906L92.8915 3.32777V8.84384Z" fill="black"/>
<path d="M100 3.04202H94.3515V4.13965H100V3.04202Z" fill="black"/>
<path d="M99.8397 0.369384H94.6965V1.46702H99.8397V0.369384Z" fill="black"/>
<path d="M97.7071 3.29289V7.92039H95.7662V8.8438H97.3656C98.4703 8.8438 99.0173 8.53716 99.0173 7.92039V3.29289H97.7071Z" fill="black"/>
<path d="M39.8669 14.4156C39.5602 14.4156 39.278 14.3425 39.0306 14.1996C38.7797 14.0567 38.5811 13.8546 38.4417 13.6037C38.2988 13.3529 38.2257 13.0671 38.2257 12.757C38.2257 12.4504 38.2988 12.1716 38.4452 11.9242C38.5915 11.6768 38.7936 11.4782 39.048 11.3353C39.3024 11.1924 39.5881 11.1193 39.8982 11.1193C40.1247 11.1193 40.3512 11.168 40.5708 11.2621C40.7729 11.3492 40.9506 11.4712 41.1004 11.6175L40.7485 12.0601C40.6439 11.9451 40.522 11.8475 40.3826 11.7778C40.2258 11.6977 40.0655 11.6559 39.9052 11.6559C39.7136 11.6559 39.5359 11.7047 39.3756 11.8022C39.2188 11.8998 39.0898 12.0322 38.9992 12.196C38.9086 12.3632 38.8633 12.5479 38.8633 12.7465C38.8633 12.9452 38.9086 13.1333 38.9992 13.3006C39.0898 13.4678 39.2153 13.6003 39.3756 13.6978C39.5359 13.7954 39.7136 13.8442 39.9052 13.8442C40.0585 13.8442 40.2153 13.8059 40.3687 13.7327C40.508 13.6665 40.6335 13.5828 40.7415 13.4748L41.0969 13.8686C40.9366 14.0289 40.752 14.1578 40.5429 14.2519C40.3199 14.3634 40.0899 14.4156 39.8669 14.4156Z" fill="black"/>
<path d="M43.8602 14.3634V12.8755H42.2852V14.3634H41.6649V11.1715H42.2852V12.3667H43.8602V11.1715H44.4804V14.3634H43.8602Z" fill="black"/>
<path d="M45.9231 11.1715H45.3028V14.3599H45.9231V11.1715Z" fill="black"/>
<path d="M48.9895 14.3634L47.3413 12.1263V14.3634H46.7524V11.1715H47.3343L48.9895 13.4191V11.1715H49.5749V14.3634H48.9895Z" fill="black"/>
<path d="M96.0938 14.3634L94.4421 12.1263V14.3634H93.8567V11.1715H94.4386L96.0938 13.4191V11.1715H96.6757V14.3634H96.0938Z" fill="black"/>
<path d="M97.3169 11.1715H97.9023V14.3599H97.3169V11.1715Z" fill="black"/>
<path d="M99.2055 11.1715H100L97.8674 13.3215L97.6758 12.7152L99.2055 11.1715Z" fill="black"/>
<path d="M97.8117 12.6211H98.5121L99.9477 14.3634H99.2473L97.8117 12.6211Z" fill="black"/>
<path d="M52.7702 14.3634L52.5159 13.7222H50.9408L50.6865 14.3634H50.0558L51.4147 11.175H52.0942L53.4288 14.3634H52.7702ZM51.136 13.2344H52.3242L51.7318 11.743L51.136 13.2344Z" fill="black"/>
<path d="M92.7869 14.3634L92.5326 13.7222H90.9575L90.7032 14.3634H90.0725L91.4314 11.175H92.1109L93.4455 14.3634H92.7869ZM91.1562 13.2344H92.3444L91.752 11.743L91.1562 13.2344Z" fill="black"/>
<path d="M55.1955 14.3634V11.1715H57.5511V11.6768H55.8157V12.5096H57.3768V13.0114H55.8157V13.8581H57.6033V14.3634H55.1955Z" fill="black"/>
<path d="M59.1853 14.3634L57.9552 11.1715H58.6208L59.5442 13.7745L60.4711 11.1715H61.1053L59.8613 14.3634H59.1853Z" fill="black"/>
<path d="M61.5966 14.3634V11.1715H63.9522V11.6768H62.2169V12.5096H63.778V13.0114H62.2169V13.8581H64.0045V14.3634H61.5966Z" fill="black"/>
<path d="M66.5935 14.3634L66.0813 13.1821H65.3077V14.3634H64.6874V11.175H66.036C66.4471 11.175 66.7642 11.2691 66.9803 11.4608C67.3531 11.7883 67.3322 12.3702 67.1754 12.649C67.0848 12.8093 66.935 12.9452 66.7364 13.0393L66.6876 13.0637L67.2555 14.3634H66.5935ZM65.3077 12.6699H66.0394C66.259 12.6699 66.4262 12.6176 66.5447 12.5131C66.6353 12.4329 66.6876 12.3005 66.6876 12.1611C66.6876 12.0253 66.6388 11.9068 66.5552 11.8301C66.4332 11.7221 66.2799 11.6768 66.0394 11.6768H65.3077V12.6699Z" fill="black"/>
<path d="M73.2664 14.3634L72.7542 13.1821H71.9806V14.3634H71.3604V11.175H72.7124C73.1236 11.175 73.4407 11.2691 73.6567 11.4608C74.0296 11.7883 74.0086 12.3702 73.8518 12.649C73.7612 12.8093 73.6079 12.9452 73.4128 13.0393L73.364 13.0637L73.932 14.3634H73.2664ZM71.9806 12.6699H72.7124C72.9284 12.6699 73.0992 12.6176 73.2176 12.5131C73.3082 12.4329 73.3605 12.3005 73.3605 12.1611C73.3605 12.0253 73.3117 11.9068 73.2281 11.8301C73.1061 11.7221 72.9528 11.6768 72.7124 11.6768H71.9806V12.6699Z" fill="black"/>
<path d="M68.0361 14.3634V11.175H69.4682C69.8132 11.175 70.0885 11.2482 70.2836 11.3876C70.4753 11.527 70.5694 11.7082 70.5694 11.9451C70.5694 12.1089 70.5241 12.2517 70.43 12.3702C70.3394 12.4887 70.1442 12.6246 69.9108 12.6803C70.1791 12.7152 70.4056 12.8581 70.5171 12.994C70.6286 13.1333 70.6844 13.3041 70.6844 13.5062C70.6844 13.771 70.5833 13.9766 70.3777 14.1299C70.1686 14.2867 69.8794 14.3634 69.517 14.3634H68.0361ZM68.6563 13.8686H69.4334C69.6181 13.8686 69.7644 13.8303 69.8725 13.7536C69.9874 13.6734 70.0432 13.5585 70.0432 13.4121C70.0432 13.2727 69.984 13.1612 69.8725 13.0811C69.7679 13.0079 69.6285 12.9731 69.4543 12.9731H68.6563V13.8686ZM68.6563 12.5026H69.4334C69.5832 12.5026 69.7052 12.4678 69.7958 12.3946C69.8864 12.318 69.9352 12.2134 69.9352 12.0775C69.9352 11.9451 69.8899 11.8441 69.7958 11.7674C69.7122 11.6977 69.5972 11.6663 69.4543 11.6663H68.6598V12.5026H68.6563Z" fill="black"/>
<path d="M87.2953 14.3634V11.175H88.7274C89.0724 11.175 89.3477 11.2482 89.5428 11.3876C89.7345 11.527 89.8286 11.7082 89.8286 11.9451C89.8286 12.1089 89.7833 12.2517 89.6892 12.3702C89.5986 12.4887 89.4034 12.6246 89.17 12.6803C89.4383 12.7152 89.6648 12.8581 89.7763 12.994C89.8878 13.1333 89.9435 13.3041 89.9435 13.5062C89.9435 13.771 89.8425 13.9766 89.6369 14.1299C89.4278 14.2867 89.1386 14.3634 88.7762 14.3634H87.2953ZM87.9155 13.8686H88.6926C88.8773 13.8686 89.0236 13.8303 89.1316 13.7536C89.2466 13.6734 89.3024 13.5585 89.3024 13.4121C89.3024 13.2727 89.2431 13.1612 89.1316 13.0811C89.0271 13.0079 88.8877 12.9731 88.7135 12.9731H87.9155V13.8686ZM87.9155 12.5026H88.6926C88.8424 12.5026 88.9644 12.4678 89.055 12.3946C89.1456 12.318 89.1944 12.2134 89.1944 12.0775C89.1944 11.9451 89.1491 11.8441 89.055 11.7674C88.9713 11.6977 88.8564 11.6663 88.7135 11.6663H87.919V12.5026H87.9155Z" fill="black"/>
<path d="M75.2979 11.1715H74.6777V14.3599H75.2979V11.1715Z" fill="black"/>
<path d="M81.7687 14.3634V12.8755H80.1902V14.3634H79.57V11.1715H80.1902V12.3667H81.7687V11.1715H82.389V14.3634H81.7687Z" fill="black"/>
<path d="M83.8804 14.3634V11.6907H82.8908V11.1715H85.4868V11.6907H84.5006V14.3634H83.8804Z" fill="black"/>
<path d="M77.5629 14.4157C77.2493 14.4157 76.9636 14.3425 76.7127 14.1996C76.4618 14.0567 76.2597 13.8546 76.1133 13.6072C75.967 13.3563 75.8938 13.0741 75.8938 12.764C75.8938 12.4573 75.9705 12.1786 76.1168 11.9277C76.2666 11.6768 76.4722 11.4782 76.7301 11.3388C76.9914 11.1959 77.2841 11.1227 77.6047 11.1227C77.8382 11.1227 78.0682 11.1646 78.2912 11.2517C78.4968 11.3318 78.678 11.4363 78.8278 11.5653L78.4863 12.0078C78.3713 11.9068 78.2424 11.8231 78.096 11.7639C77.9323 11.6942 77.7685 11.6594 77.6047 11.6594C77.4061 11.6594 77.2249 11.7081 77.0611 11.8057C76.8973 11.9033 76.7684 12.0357 76.6743 12.203C76.5802 12.3702 76.5315 12.5584 76.5315 12.7605C76.5315 12.9661 76.5802 13.1542 76.6743 13.325C76.7684 13.4957 76.9008 13.6316 77.0646 13.7292C77.2284 13.8268 77.4096 13.8755 77.6082 13.8755C77.7093 13.8755 77.8173 13.8581 77.9323 13.8233C78.0472 13.7884 78.1588 13.7431 78.2668 13.6839L78.2947 13.6665V13.0567H77.4618V12.5479H78.8173V14.0045C78.6536 14.1229 78.4584 14.2205 78.2354 14.2937C78.0054 14.3773 77.7789 14.4157 77.5629 14.4157Z" fill="black"/>
<path d="M15.4192 5.43937C13.4818 5.48816 12.311 6.11538 12.311 6.11538V8.2096C12.311 8.2096 13.1333 7.51966 14.4156 7.31407C15.698 7.10848 16.4855 7.33846 16.4855 7.99007C16.4855 8.64517 16.4855 8.98317 16.4855 8.98317C16.4855 8.98317 14.6596 8.49882 13.2657 9.11559C12.0879 9.63827 11.175 11.0425 11.7918 12.6664C12.8302 15.3948 16.0952 14.2936 17.1719 14.21C18.1302 14.1334 18.4438 14.1752 18.4438 14.1752C18.4438 14.1752 18.4438 9.36996 18.4438 7.8716C18.4438 6.37323 17.7538 5.38013 15.4192 5.43937ZM16.4611 12.7221C16.4611 12.7221 15.7955 12.757 15.3251 12.8301C14.8547 12.9033 13.9452 13.0601 13.534 12.3597C13.1229 11.6593 13.3877 10.715 14.1891 10.4711C14.9871 10.2306 15.921 10.3735 16.4646 10.4711V12.7221H16.4611Z" fill="#6B1685"/>
<path d="M19.2801 5.80173V14.3807H21.2419V7.44645C21.2419 7.44645 22.113 7.26525 22.9946 7.2757C23.8762 7.28616 23.9494 7.83323 23.9494 8.36637C23.9494 8.89951 23.9494 14.3807 23.9494 14.3807H25.9321C25.9321 14.3807 25.9321 11.3039 25.9321 8.69044C25.9321 6.07702 25.0261 5.72159 23.7543 5.52297C22.5521 5.3348 21.3708 5.66932 20.5833 5.7425C19.7958 5.81567 19.2801 5.80173 19.2801 5.80173Z" fill="#6B1685"/>
<path d="M26.7614 2.81897V14.3807H28.8104V10.6279L31.6677 14.3807H34.0058L30.3854 9.41525L33.9257 5.5439L31.5388 5.56132L28.7929 8.41518L28.8104 2.81897H26.7614Z" fill="#6B1685"/>
<path d="M2.36253 10.5513H10.8927C10.8927 10.4816 10.8858 10.3074 10.8649 10.1575C10.8579 10.1122 10.8509 10.0669 10.844 10.0216H2.36253V9.58259H10.7499C10.7255 9.49548 10.6976 9.39791 10.6558 9.30034C10.6384 9.25504 10.6209 9.20974 10.6 9.16793C10.5931 9.14702 10.5826 9.12611 10.5756 9.10521C10.5687 9.08778 10.5582 9.07036 10.5513 9.05294H2.36253V8.61737H10.3248C10.2098 8.4292 10.0808 8.25149 9.93797 8.08423H6.57537V7.64866H9.49543C9.23758 7.43262 8.94836 7.2549 8.63823 7.11552H6.57885V6.67995H8.06328C8.43961 6.56844 8.78458 6.38376 9.08774 6.14681H6.58234V6.13984H2.36253V5.71124H9.54073C9.68012 5.54747 9.80556 5.36975 9.9101 5.1781H2.36253V4.74253H10.1192C10.1366 4.69723 10.2376 4.34529 10.2655 4.20939H2.36253V3.77382H10.3282C10.3282 3.76686 10.3457 3.42188 10.3178 3.24069H2.36253V2.81905H10.2376C10.1958 2.63437 10.1366 2.45666 10.0634 2.28592H7.20259V1.85383H9.83692C9.71845 1.66218 9.57906 1.48447 9.42574 1.32069H7.20259V0.888607H8.91003C8.45703 0.581965 7.9239 0.393799 7.34546 0.365922C7.33152 0.365922 7.31758 0.365922 7.30364 0.362438C7.2688 0.362438 7.23395 0.358953 7.20259 0.355469H7.18865H7.14335H0V14.4157H7.14335H7.20259V14.4122C7.57544 14.4052 7.9239 14.346 8.25493 14.238C8.31417 14.2205 8.37341 14.1962 8.43264 14.1752C8.43613 14.1718 8.4431 14.1718 8.44658 14.1683C8.65565 14.0916 8.85427 13.994 9.04244 13.8791H7.20259V13.4505H9.62785C9.65572 13.4226 9.68708 13.3982 9.71496 13.3703C9.72193 13.3633 9.72542 13.3599 9.73238 13.3564C9.80208 13.2902 9.86828 13.217 9.931 13.1438C9.93449 13.1403 9.93449 13.1403 9.93797 13.1368C10.0007 13.0672 10.0599 12.994 10.1157 12.9173H7.20259V12.4817H10.4049C10.4398 12.4155 10.4746 12.3493 10.5094 12.2831C10.5094 12.2831 10.5756 12.1577 10.6558 11.9486H2.36253V11.513H10.7882C10.7952 11.4852 10.8021 11.4573 10.8091 11.4294C10.8091 11.4294 10.8474 11.2552 10.8753 11.0008C10.8753 10.9938 10.8753 10.9869 10.8753 10.9764H2.36253V10.5513Z" fill="url(#paint0_linear_199_77)"/>
<defs>
<linearGradient id="paint0_linear_199_77" x1="8.54255" y1="0.666152" x2="0.558646" y2="14.4138" gradientUnits="userSpaceOnUse">
<stop stop-color="#FAC03D"/>
<stop offset="0.0716" stop-color="#F5A42F"/>
<stop offset="0.1593" stop-color="#F08523"/>
<stop offset="0.2541" stop-color="#EC681A"/>
<stop offset="0.3559" stop-color="#EA4F15"/>
<stop offset="0.4673" stop-color="#E83813"/>
<stop offset="0.5933" stop-color="#E72112"/>
<stop offset="0.7461" stop-color="#E60812"/>
<stop offset="1" stop-color="#E60012"/>
</linearGradient>
</defs>
</svg>
