<svg width="100" height="22" viewBox="0 0 100 22" fill="none" xmlns="http://www.w3.org/2000/svg">
<path d="M75.3098 2.3218C75.3293 2.30911 75.3767 2.31536 75.4492 2.33889L76.9782 2.99807H79.7482C79.8687 2.84739 79.9772 2.71379 80.0681 2.59915C80.1609 2.48586 80.2429 2.41868 80.3179 2.4054C80.3677 2.39466 80.6624 2.49973 81.1944 2.72004C81.7263 2.9386 81.9957 3.12278 82.0045 3.26907C82.0096 3.4053 81.874 3.53567 81.5912 3.65667V6.79563L81.6576 8.35589C81.6285 8.42932 81.5931 8.48763 81.5597 8.52874C81.5218 8.56868 81.4051 8.62884 81.2033 8.71233C81.0006 8.79153 80.7413 8.8264 80.4315 8.81682C80.104 8.81311 79.9451 8.7137 79.9451 8.52307V8.36155H78.502C78.5518 8.58196 78.6079 8.77825 78.6553 8.94925C78.7064 9.11956 78.7966 9.36526 78.9159 9.68821C79.0383 10.0092 79.126 10.2157 79.1765 10.3037L79.4421 10.7717C79.9267 10.2632 80.323 9.79016 80.624 9.3513L80.8657 8.99925C80.9262 8.90745 80.9716 8.85618 81.0038 8.84788C81.0329 8.83655 81.0865 8.84534 81.1679 8.86819C81.3679 8.94036 81.7755 9.12464 82.3919 9.42093C83.0097 9.71419 83.0677 9.90667 82.5674 9.99534L82.0834 10.0827C81.8877 10.1616 81.6925 10.2418 81.4979 10.3234L80.3179 10.8375L79.6295 11.1079C79.9538 11.5962 80.2801 12.0419 80.6126 12.4396C80.9534 12.8405 81.3603 13.1659 81.8443 13.4161C82.3308 13.6687 82.6109 13.8061 82.6772 13.8315L82.898 13.9182C82.9718 13.9524 83.0097 13.9923 83.0097 14.0379C83.0046 14.0848 82.9667 14.1183 82.898 14.1373L82.4803 14.262C82.3844 14.2911 82.2418 14.3685 82.0576 14.4912C81.874 14.6166 81.7187 14.7585 81.5932 14.9174C81.4739 15.0758 81.3787 15.2119 81.3168 15.331C81.2505 15.4475 81.1944 15.5058 81.147 15.5058C81.1123 15.5108 80.9129 15.3658 80.5514 15.0713C80.1892 14.7749 79.8769 14.3576 79.5967 13.8112C79.3229 13.2685 79.1525 12.893 79.0837 12.6871L78.8718 12.097C78.1713 12.867 77.7517 13.3343 77.6135 13.5022L76.999 14.2405C76.8709 14.3862 76.7113 14.5748 76.5169 14.8022L76.0816 15.3081C76.0014 15.3962 75.9491 15.4417 75.9294 15.4443C75.908 15.4475 75.8822 15.431 75.8499 15.3968C75.8184 15.3619 75.7761 15.2816 75.7276 15.1562L75.0821 13.6403C75.0562 13.587 75.0411 13.5529 75.0397 13.5421C75.0379 13.5294 75.0821 13.4908 75.1703 13.4269C75.2303 13.3793 75.2758 13.3179 75.3098 13.2413C75.342 13.1659 75.361 13.0615 75.361 12.9298V4.0594C75.361 3.47424 75.3446 3.04055 75.3149 2.76057C75.2884 2.47942 75.2884 2.33323 75.3098 2.3218ZM98.8572 6.072C99.3923 6.55012 99.7185 6.85403 99.8365 6.98763C99.9595 7.11751 100.009 7.21946 99.9986 7.2929C99.9854 7.36634 99.9242 7.40423 99.8201 7.40423H97.8255C97.7626 7.53063 97.677 7.64442 97.5731 7.73997V13.8082C97.5731 14.1292 97.5384 14.3598 97.4728 14.4959C97.4028 14.6339 97.2671 14.7593 97.0595 14.8803C96.85 14.9993 96.5737 15.0918 96.2191 15.1582C95.8669 15.2235 95.6121 15.2469 95.4593 15.226C95.3218 15.2178 95.2385 15.1899 95.2044 15.143C95.1698 15.0981 95.1507 14.9993 95.1483 14.8549C95.1452 14.7093 95.1268 14.5808 95.0896 14.4756C95.0524 14.3718 94.9646 14.2553 94.8158 14.1261C94.6719 13.9969 94.4826 13.8911 94.2554 13.8082L93.7544 13.6315C93.6062 13.5827 93.5532 13.5245 93.5923 13.4568C93.6308 13.3871 93.7071 13.358 93.8163 13.3675L94.1892 13.4112L95.1452 13.4784C95.3186 13.4922 95.4543 13.4821 95.5553 13.4453C95.6518 13.4074 95.7174 13.3472 95.7597 13.2611C95.7969 13.1782 95.8171 13.016 95.8171 12.7836L95.8026 7.40433H92.5562L91.7189 7.44671L91.3251 7.03011L92.3429 7.11751H97.2671C97.5757 6.6305 97.8079 6.29231 97.9619 6.10432C98.1107 5.91624 98.237 5.81038 98.3341 5.78577C98.4293 5.76106 98.6036 5.85608 98.8572 6.0719V6.072ZM90.0266 4.81751C90.1516 4.83342 90.503 5.03284 91.0803 5.41341C91.6565 5.79212 91.9284 6.04163 91.8994 6.15872C91.8615 6.28665 91.6722 6.35755 91.3397 6.37971C91.0721 6.647 90.7579 6.95413 90.4045 7.29983C90.7314 7.47141 90.9031 7.58538 90.9207 7.64495C90.9579 7.78167 90.8614 7.9052 90.6386 8.018V13.1496L90.7049 14.6866C90.6752 14.7822 90.6311 14.8651 90.5724 14.9323C90.5137 14.9967 90.3673 15.0602 90.1358 15.1215C89.8921 15.1825 89.6418 15.2129 89.3906 15.2121C89.2378 15.2178 89.1281 15.1988 89.0668 15.1582C89.0063 15.1164 88.9539 15.0455 88.9098 14.9506L88.9848 13.2739V8.58851C88.1065 9.23821 87.4288 9.71878 86.9474 10.0303L86.5777 10.2715C86.4716 10.335 86.4073 10.3298 86.3846 10.2539C86.3549 10.1791 86.3682 10.1108 86.4073 10.0544L86.7323 9.67952C86.9546 9.42152 87.1737 9.16083 87.3897 8.89749C87.5778 8.66761 87.9046 8.21165 88.3697 7.52395C88.8384 6.83821 89.205 6.23782 89.4795 5.71995L89.742 5.21526C89.8733 4.95686 89.9446 4.82639 89.9584 4.82385C89.9768 4.82005 89.9951 4.81751 90.0266 4.81751ZM70.9094 1.5929C70.9787 1.59739 71.0507 1.61253 71.1227 1.63723C71.2022 1.66067 71.4412 1.72717 71.8508 1.83421C72.2634 1.94124 72.5607 2.03743 72.7468 2.12034C72.9317 2.20208 73.0212 2.27678 73.0212 2.3427C73.0175 2.40852 72.9676 2.46672 72.8718 2.51497L72.4338 2.74983C72.1246 3.30873 71.8061 3.86248 71.4785 4.41087H73.0313C73.5659 3.79211 73.8592 3.47805 73.9034 3.47747C73.9482 3.4762 74.0176 3.51038 74.111 3.58391L74.5924 3.97893C74.9855 4.32981 75.1748 4.5387 75.1616 4.60393C75.1457 4.67112 75.1161 4.70276 75.0732 4.70276H71.3398C70.8034 5.49427 70.298 6.14973 69.8165 6.6721L70.6173 6.75384H72.5133C72.6617 6.57649 72.8427 6.38587 73.0529 6.17688C73.2629 5.97044 73.3828 5.86604 73.4144 5.86282C73.4459 5.86028 73.5027 5.89065 73.5872 5.94837C74.3135 6.52327 74.6562 6.84944 74.6132 6.92473C74.5709 7.00139 74.5255 7.03753 74.4839 7.03753H73.0743C73.0447 7.15589 73.0232 7.21604 73.0106 7.22053L72.7897 7.39778V9.05813H73.0655C73.5311 8.51673 73.7867 8.22034 73.827 8.1722C73.8643 8.12474 73.9008 8.09817 73.9362 8.09114C73.9697 8.08802 74.0289 8.11907 74.111 8.18811L74.5463 8.55413C74.988 8.94925 75.1938 9.17718 75.1596 9.24055C75.1211 9.30501 75.0821 9.33548 75.0379 9.33548H72.7897V12.3592C73.4863 12.0369 74.0176 11.776 74.3861 11.5752L75.0947 11.1959C75.1774 11.1516 75.2304 11.1516 75.2651 11.1934C75.291 11.2333 75.2783 11.2852 75.2253 11.3498L74.7742 11.8767C73.5614 13.2818 72.8774 14.081 72.7178 14.2753L72.0477 15.0891L71.9606 15.1986C71.9367 15.2043 71.917 15.2011 71.9101 15.191C71.8962 15.1803 71.8723 15.1334 71.83 15.0453L71.021 13.4205C70.9705 13.3281 70.9466 13.2736 70.9492 13.2559C70.9492 13.2394 70.9895 13.2027 71.0589 13.1494C71.1302 13.0957 71.1776 13.0368 71.2022 12.9735C71.2261 12.9101 71.245 12.8309 71.2627 12.7371C71.281 12.6416 71.2917 12.5662 71.2917 12.5143V9.33558H70.2209L69.5881 9.38802L69.1515 8.97073L70.1359 9.05813H71.2917V7.03753H70.7422L70.0703 7.08938L69.7295 6.75384L69.4582 7.02356L69.1812 7.25852C69.1086 7.32122 69.0588 7.33635 69.0323 7.30598C69.0052 7.27307 69.014 7.20589 69.0569 7.10393L69.2664 6.6512C69.3434 6.48782 69.4437 6.24661 69.5826 5.92298C69.7247 5.58375 69.8568 5.2404 69.9787 4.89339C70.1094 4.53245 70.2336 4.11067 70.3567 3.63196C70.4817 3.15003 70.5694 2.80813 70.6174 2.60295L70.7763 1.87854C70.8035 1.74622 70.8186 1.67151 70.8186 1.65559C70.8166 1.63723 70.8166 1.62395 70.8224 1.61262C70.8275 1.59797 70.8539 1.5929 70.9095 1.5929H70.9094ZM39.6057 10.0333C39.9995 10.2137 40.4437 10.4461 40.9422 10.7311C41.4356 11.0172 41.6805 11.2243 41.6729 11.3504C41.6621 11.4295 41.616 11.4891 41.5403 11.5321L41.3214 11.5784L41.0583 11.6207C40.3137 12.2996 39.5856 12.8922 38.8694 13.397C38.157 13.9017 37.2188 14.3824 36.0615 14.842L35.4955 15.0675C35.3971 15.108 35.3277 15.0985 35.2904 15.0396C35.2501 14.982 35.2836 14.9149 35.3832 14.842L35.9101 14.483C36.0351 14.4 36.2262 14.2436 36.4823 14.0144C36.7366 13.7845 37.0648 13.4679 37.4636 13.0608C37.863 12.653 38.2132 12.2008 38.5224 11.705C38.8252 11.2105 39.0272 10.8596 39.1249 10.6544L39.3382 10.208C39.3862 10.1061 39.4259 10.0447 39.4543 10.0219C39.4815 9.99973 39.5325 10.0029 39.6057 10.0332V10.0333ZM42.8591 10.479L43.2522 10.5462C43.6858 10.6323 44.1053 10.726 44.5154 10.8223C44.9217 10.9204 45.4404 11.1078 46.0701 11.3839C46.6999 11.6594 47.1851 12.0032 47.5233 12.4155C47.8602 12.8271 48.0433 13.2209 48.0679 13.5933C48.0937 13.9657 48.0198 14.2848 47.8445 14.5494C47.6665 14.8141 47.3839 14.9396 46.9933 14.93C46.6715 14.9243 46.4292 14.8269 46.2652 14.6407C46.0991 14.452 45.9143 14.1372 45.7068 13.6902C45.5017 13.2431 45.2524 12.841 44.959 12.4858C44.6694 12.1286 44.4063 11.8461 44.1753 11.6391C43.9456 11.4308 43.6756 11.2383 43.3664 11.061C43.0585 10.8837 42.8711 10.7798 42.8086 10.7494C42.7443 10.7209 42.7045 10.6918 42.685 10.6602C42.6641 10.6273 42.661 10.5848 42.673 10.5361C42.685 10.4841 42.7468 10.4652 42.8591 10.479ZM56.8142 1.82375C57.574 1.93713 58.0983 2.03596 58.3822 2.1177C58.6667 2.20061 58.7898 2.30188 58.7444 2.42161C58.7014 2.53997 58.526 2.69768 58.2181 2.89465V14.5081H59.6612L59.6536 4.18889L59.547 2.155C59.5999 2.05745 59.73 2.01946 59.9413 2.04485C60.715 2.15754 61.2039 2.24368 61.4116 2.3095C61.6241 2.37034 61.7516 2.43801 61.8022 2.50198C61.85 2.5679 61.8582 2.63186 61.8368 2.69514C61.8128 2.76038 61.6456 2.89905 61.3339 3.1137V11.2319C61.4463 10.9885 61.5571 10.7445 61.6664 10.4997C61.7403 10.3231 61.8721 9.98372 62.0571 9.48469C62.2242 9.04539 62.3822 8.60265 62.5309 8.15677C62.6559 7.77112 62.775 7.35579 62.8924 6.91126C63.0098 6.4679 63.0868 6.15071 63.1258 5.96077L63.23 5.41048L63.2945 4.99377C63.3575 4.91213 63.483 4.91213 63.6692 4.99377L64.5203 5.34524C64.762 5.45413 65.0094 5.57513 65.2504 5.71438C65.4978 5.85432 65.6208 5.95559 65.6258 6.02278C65.6258 6.0886 65.6126 6.14192 65.5867 6.17923C65.5242 6.26282 65.3545 6.32805 65.0731 6.37805C64.3519 7.6888 63.7563 8.74065 63.2761 9.53343C62.7996 10.3231 62.435 10.8873 62.1851 11.2318L61.3339 12.4388V14.5081H62.9511C63.2035 14.1944 63.4509 13.8767 63.6932 13.5551C63.8528 13.331 63.9771 13.2114 64.0591 13.1992C64.1443 13.184 64.2906 13.2696 64.5072 13.4564L64.9861 13.8724C65.0788 13.9591 65.2264 14.1034 65.4265 14.3061C65.6283 14.5043 65.7218 14.6361 65.7054 14.7C65.6902 14.762 65.6044 14.7956 65.4535 14.7956H53.5078L52.6036 14.8393L52.1594 14.4213L53.1784 14.5081H56.529V3.96917L56.4173 1.93459C56.4703 1.83206 56.6034 1.79397 56.8142 1.82385V1.82375ZM78.2003 8.36155H76.8898V12.7113C77.5341 12.4472 78.1734 12.1711 78.8074 11.883C78.6584 11.3998 78.5701 11.0896 78.5411 10.9465C78.5115 10.8052 78.4635 10.5246 78.4061 10.1018C78.3467 9.67932 78.3095 9.4178 78.2938 9.31839C78.2811 9.21898 78.2515 8.89983 78.2003 8.36155ZM53.2208 5.41038L53.4845 5.65296C54.0941 6.28303 54.5616 6.86184 54.8909 7.39563C55.2178 7.92688 55.4841 8.46077 55.6835 8.99768C55.8866 9.53665 55.9814 10.0217 55.9687 10.4617C55.9579 10.9006 55.8431 11.2463 55.6254 11.4971C55.4046 11.7485 55.1225 11.8657 54.7686 11.8486C54.4202 11.8315 54.1811 11.72 54.0461 11.5156C53.9161 11.3103 53.8625 11.0361 53.8808 10.6898L53.9552 9.88235C53.9818 9.46946 53.9736 8.99954 53.9262 8.47786C53.8808 8.08772 53.824 7.74144 53.7501 7.43811C53.6814 7.13538 53.5993 6.86184 53.5053 6.61106C53.4251 6.40054 53.3365 6.19331 53.2397 5.98987C53.1596 5.82395 53.1015 5.7093 53.0592 5.64475C53.0195 5.58206 52.9873 5.52376 52.9684 5.46995C52.9469 5.41555 52.9602 5.36868 52.998 5.32815C53.0353 5.28508 53.1097 5.3135 53.2207 5.41048L53.2208 5.41038ZM45.8209 1.98928C45.8285 1.99944 46.0065 2.0634 46.3478 2.18245C46.691 2.30276 47.0602 2.46858 47.4596 2.68518C47.8527 2.90051 48.066 3.04807 48.0937 3.13167C48.1234 3.21467 48.1183 3.28616 48.0805 3.35012C48.0463 3.40383 47.8565 3.47805 47.5094 3.57678C47.2718 4.01354 47.0299 4.44796 46.7838 4.88001C46.5339 5.3138 45.7408 6.59798 44.4063 8.73011H46.0683C46.3907 8.29182 46.6374 7.96067 46.8122 7.73782C46.9857 7.51614 47.1208 7.40022 47.2141 7.38626C47.3043 7.37434 47.4457 7.4427 47.6369 7.58841C48.0785 7.94417 48.3947 8.2469 48.5871 8.49134C48.7795 8.73889 48.8597 8.89026 48.8301 8.94095C48.8023 8.99534 48.743 9.02259 48.6584 9.02259H36.2533L35.3416 9.06634L35.0197 8.64397L36.0855 8.73011H43.8869C44.0751 8.20618 44.2579 7.68034 44.4353 7.15267C44.5955 6.67268 44.7413 6.16731 44.8719 5.64426C45.0101 5.08816 45.1322 4.52816 45.2379 3.96497C45.3533 3.37034 45.4246 2.9803 45.4474 2.79475L45.5332 2.09817V1.98928C45.5655 1.92473 45.6587 1.92473 45.8209 1.98928ZM79.945 5.79954H76.8898V8.07854H79.9451V5.79944L79.945 5.79954ZM36.8213 2.69915L37.222 2.92581C37.4132 3.0677 37.6737 3.26331 38.0108 3.51536C38.3457 3.76673 38.7344 4.15237 39.1768 4.67102C39.6197 5.19153 39.838 5.77093 39.838 6.41302C39.8356 7.05452 39.7074 7.49085 39.4544 7.72005C39.2032 7.95052 38.9155 8.04681 38.5988 8.01644C38.2802 7.98538 38.0373 7.86438 37.8751 7.65481C37.7129 7.44388 37.6334 7.24759 37.6391 7.06204C37.6447 6.87591 37.6681 6.60872 37.7104 6.25921C37.7558 5.91155 37.7558 5.53167 37.7104 5.12249C37.6681 4.76409 37.5937 4.45696 37.4933 4.20061C37.3898 3.94153 37.2422 3.67688 37.0561 3.4096C36.8649 3.14046 36.7482 2.9803 36.7033 2.92581C36.6623 2.87268 36.6364 2.82893 36.6282 2.79475C36.62 2.76057 36.6282 2.72444 36.6572 2.68831C36.6838 2.651 36.74 2.65413 36.8213 2.69905V2.69915ZM40.3858 2.09817L40.758 2.37044C41.6325 3.14046 42.2326 3.76673 42.5608 4.24485C42.885 4.72298 43.0869 5.23587 43.1671 5.78421C43.2441 6.33264 43.2151 6.74993 43.0794 7.03235C42.9766 7.24768 42.8157 7.42366 42.6011 7.56302C42.3847 7.70227 42.1134 7.75423 41.7915 7.71751C41.4679 7.67952 41.2495 7.52434 41.1442 7.25149C41.0319 6.97981 40.9896 6.73216 41.0129 6.51243C41.0129 6.47766 41.0344 6.33645 41.0774 6.08186C41.1177 5.83108 41.141 5.57844 41.1442 5.31878C41.1461 5.06106 41.1272 4.797 41.0963 4.52854C41.0161 3.96809 40.9095 3.55276 40.7706 3.28489C40.6306 3.01633 40.5163 2.79729 40.423 2.6301C40.3321 2.45979 40.2684 2.35208 40.2337 2.30022C40.1995 2.24768 40.1807 2.20774 40.1807 2.17229C40.1781 2.13811 40.1907 2.10452 40.2242 2.07034C40.2565 2.03743 40.3088 2.04495 40.3858 2.09817ZM89.9585 1.69504C90.0298 1.70334 90.139 1.77737 90.2905 1.91419L90.9442 2.39104C91.0319 2.45872 91.1965 2.59612 91.4395 2.80452C91.6836 3.00959 91.8004 3.15784 91.7928 3.24651C91.7713 3.39211 91.6925 3.4593 91.5511 3.44407L91.1757 3.46497C90.8571 3.66125 90.6173 3.80696 90.4659 3.9051L89.1956 4.71116C88.448 5.16458 87.7394 5.53049 87.0775 5.80794L86.5594 6.02708C86.4535 6.07513 86.3789 6.07513 86.3328 6.02454C86.2912 5.9719 86.3253 5.89339 86.4314 5.78577L86.7588 5.47864L87.2567 5.01829C87.562 4.72385 87.9186 4.34007 88.3262 3.86643C88.7351 3.38889 89.096 2.90393 89.4127 2.41135L89.6734 1.99905L89.8273 1.71594C89.8595 1.697 89.9055 1.6887 89.9585 1.69504ZM79.9451 3.28382H76.8897V5.51526H79.945V3.28382H79.9451ZM97.8501 2.17766C97.9889 2.2885 98.1827 2.4513 98.4187 2.66467C98.6553 2.87561 98.8364 3.04651 98.9531 3.17639C99.073 3.30481 99.1184 3.39856 99.0888 3.45237C99.0628 3.50432 98.9828 3.53089 98.8572 3.53089H93.4547L92.6143 3.56761L92.2211 3.15159L93.2389 3.24661H96.4147L96.4796 3.16301C96.7985 2.75335 97.0236 2.4635 97.1479 2.29544C97.2785 2.11311 97.387 2.01682 97.4748 2.0054C97.5605 1.99465 97.6855 2.05042 97.8501 2.17766ZM89.1887 19.8538C89.2918 19.8538 89.5492 19.9134 89.5492 20.2913C89.5492 20.6149 89.1849 20.9153 89.0509 20.9605L89.0117 20.8738C89.3044 20.6823 89.3759 20.4777 89.3759 20.3909C89.3762 20.3826 89.3748 20.3743 89.3717 20.3665C89.3687 20.3587 89.3641 20.3516 89.3583 20.3456C89.3524 20.3396 89.3454 20.3349 89.3377 20.3317C89.33 20.3284 89.3217 20.3268 89.3133 20.3269C89.3045 20.3269 89.2918 20.3321 89.2742 20.3367C89.2602 20.3411 89.238 20.3456 89.2065 20.3456C89.0908 20.3456 88.9321 20.3004 88.9321 20.1179C88.9321 19.9224 89.0781 19.8538 89.1887 19.8538ZM85.4866 17.3242C86.2188 17.3242 86.9485 17.8425 86.9485 18.8704C86.9485 19.8227 86.2951 20.4072 85.4866 20.4072C84.6768 20.4072 84.0241 19.8227 84.0241 18.8704C84.0241 17.8425 84.7538 17.3242 85.4866 17.3242ZM49.2115 17.3242L49.3079 18.2764H49.1978C49.1239 17.9099 48.8418 17.5078 48.38 17.5078C48.1604 17.5078 47.9352 17.6462 47.9352 17.9226C47.9352 18.5935 49.4049 18.6824 49.4049 19.5984C49.4049 19.979 49.1058 20.4072 48.4764 20.4072C48.1416 20.4072 47.9264 20.2553 47.7949 20.2553C47.7024 20.2553 47.6586 20.3309 47.6586 20.4028H47.561L47.4289 19.4562H47.5303C47.6142 19.6664 47.8381 20.2464 48.4326 20.2464C48.7849 20.2464 48.9607 19.9917 48.9607 19.7503C48.9607 19.4955 48.89 19.3437 48.2443 18.9607C47.8381 18.7237 47.5572 18.5261 47.5572 18.0839C47.5572 17.5751 47.9576 17.3242 48.3531 17.3242C48.6178 17.3242 48.8549 17.476 48.9656 17.476C49.0883 17.476 49.1109 17.3738 49.119 17.3242H49.2115ZM83.3735 17.3242L83.4126 18.3304H83.311C83.1992 17.8604 82.8796 17.5027 82.3333 17.5027C82.1117 17.5027 81.8539 17.5929 81.667 17.7758C81.494 17.9448 81.2982 18.2314 81.2982 18.8748C81.2982 19.8227 81.8268 20.2109 82.3864 20.2109C82.9332 20.2109 83.2529 19.8932 83.3906 19.7598L83.4707 19.8399C83.4663 19.8493 83.0849 20.4073 82.2669 20.4073C81.5521 20.4073 80.7834 19.979 80.7834 18.866C80.7834 17.8655 81.5299 17.3242 82.2935 17.3242C82.6895 17.3242 82.9775 17.4722 83.0754 17.4722C83.0975 17.4722 83.2447 17.4722 83.2794 17.3242H83.3735ZM99.6718 19.8444C99.8046 19.8444 99.921 19.9588 99.921 20.0973C99.921 20.2623 99.7648 20.3375 99.6718 20.3375C99.5783 20.3375 99.4265 20.2661 99.4265 20.0973C99.4265 19.955 99.5384 19.8444 99.6718 19.8444ZM87.8951 19.8444C88.0279 19.8444 88.1441 19.9588 88.1441 20.0973C88.1441 20.2623 87.9873 20.3375 87.8951 20.3375C87.8021 20.3375 87.6497 20.2661 87.6497 20.0973C87.6497 19.955 87.7617 19.8444 87.8951 19.8444ZM54.2633 17.4033C54.6573 17.4033 55.3889 17.4955 55.3889 18.1765C55.3889 18.7683 54.8128 18.8744 54.5866 18.9178L55.4997 20.036C55.5968 20.1554 55.704 20.2345 55.8862 20.2433V20.3282H55.1714L54.1177 18.9661L53.8688 18.9756V19.8457C53.8688 20.1421 53.9129 20.2263 54.2677 20.2433V20.3282H53.0407V20.2433C53.3908 20.2224 53.416 20.1329 53.4169 19.8186V17.8838C53.4169 17.5577 53.3501 17.5169 53.0407 17.4868V17.4033H54.2634H54.2633ZM45.1349 17.3242V17.4081C44.7814 17.4348 44.7288 17.4923 44.7288 17.8076V19.2686C44.7302 19.5666 44.762 20.1334 45.5055 20.1334C45.8531 20.1334 46.1076 19.99 46.237 19.7814C46.2948 19.6841 46.3392 19.5374 46.3392 19.1766V17.977C46.3392 17.5018 46.232 17.4266 45.9192 17.4082V17.3243H46.9547V17.4082C46.612 17.4436 46.536 17.5106 46.536 17.977V19.1606C46.5354 19.5285 46.5108 20.3282 45.3798 20.3282C44.3095 20.3282 44.2738 19.5184 44.2726 19.2236V17.8076C44.2726 17.4796 44.2116 17.4303 43.8722 17.4082V17.3243H45.1349V17.3242ZM73.1644 17.3242L74.863 19.4706H74.8718V17.9798C74.8718 17.4657 74.747 17.4308 74.4455 17.4085V17.3242H75.4878V17.4086C75.2085 17.439 75.0666 17.4575 75.0666 17.9798V20.3282H74.991L73.0402 17.8808H73.0314V19.623C73.0314 20.0819 73.1246 20.1802 73.4482 20.1936V20.2792H72.4052V20.1936C72.7426 20.172 72.8366 20.1047 72.8366 19.623V17.6535C72.6549 17.4308 72.5836 17.4086 72.4053 17.4086V17.3242H73.1644ZM70.4984 17.3242L71.6097 19.8548C71.7518 20.1805 71.8146 20.2292 72.0101 20.2425V20.3282H70.8728V20.2426C71.0384 20.2426 71.1857 20.2381 71.1857 20.0734C71.1857 20.0011 71.128 19.8548 71.1007 19.7921L70.9185 19.3644H69.7481L69.543 19.8865C69.5196 19.9441 69.5063 20.0063 69.5063 20.055C69.5063 20.2425 69.717 20.2425 69.811 20.2425V20.3282H68.9275V20.2426C68.9979 20.2381 69.0741 20.2292 69.154 20.145C69.2569 20.0335 69.3952 19.7078 69.4796 19.512L70.4087 17.3242H70.4983H70.4984ZM57.6249 17.4033V17.4868C57.2948 17.4999 57.1816 17.5314 57.1816 17.8838V19.8457C57.1816 20.1905 57.2904 20.2339 57.6249 20.2433V20.3282H56.2813V20.2433C56.6661 20.2339 56.7208 20.1591 56.7208 19.8456V17.8837C56.7208 17.5577 56.6565 17.505 56.2814 17.4868V17.4033H57.6249ZM52.6199 17.4033L52.6455 18.1545H52.5406C52.4511 17.6772 52.3303 17.5915 51.8684 17.5886H51.6051V19.8456C51.6051 20.1466 51.6575 20.2301 52.0273 20.2433V20.3282H50.7446V20.2433C51.1359 20.2267 51.1567 20.1282 51.1572 19.8174V17.5885H50.9206C50.4372 17.5885 50.3186 17.6715 50.2218 18.1545H50.1163L50.1425 17.4033H52.6199ZM91.3655 17.4033V17.4868C91.0621 17.505 90.9514 17.5351 90.9514 17.8838V19.9739C90.9514 20.1467 91.028 20.155 91.3744 20.1553H91.4009C92.0681 20.1553 92.3537 20.1371 92.607 19.5586H92.7183L92.505 20.3282H90.11V20.2433C90.395 20.2263 90.4968 20.1855 90.4968 19.8456V17.8837C90.4968 17.5351 90.3905 17.5087 90.1101 17.4868V17.4033H91.3655ZM96.934 17.4033C98.0116 17.4033 98.7253 17.8837 98.7253 18.8744C98.7253 19.4612 98.3704 20.3282 96.9966 20.3282H95.7217V20.2433C96.0625 20.2263 96.1168 20.1554 96.1168 19.8456V17.8624C96.1145 17.5558 96.0594 17.5132 95.7217 17.4868V17.4033H96.934ZM67.0909 17.4033C67.4789 17.4052 68.2244 17.4743 68.2244 18.1493C68.2244 18.6399 67.8386 18.7366 67.6407 18.785V18.7944C68.0235 18.8742 68.3742 19.0864 68.3742 19.5499C68.3742 19.7169 68.2868 20.3282 67.3111 20.3282H65.845V20.2433C66.2134 20.2339 66.2659 20.1585 66.2659 19.8451V17.8843C66.2659 17.5577 66.2046 17.5049 65.845 17.4873V17.4033H67.0909ZM59.5903 17.3242L60.7011 19.8554C60.8445 20.1805 60.9067 20.2292 61.1027 20.2426V20.3282H59.9653V20.2426C60.1308 20.2426 60.2774 20.2381 60.2774 20.0734C60.2774 20.0017 60.2197 19.8553 60.193 19.7926L60.0096 19.3642H58.8416L58.6356 19.8864C58.6133 19.944 58.6 20.0062 58.6 20.055C58.6 20.2425 58.8107 20.2425 58.9033 20.2425V20.3282H58.0201V20.2426C58.0918 20.2381 58.1673 20.2292 58.2479 20.145C58.35 20.0334 58.4883 19.7077 58.574 19.5119L59.5021 17.3242H59.5903ZM77.2326 17.4033V17.4868C76.8827 17.5087 76.8209 17.5577 76.8209 17.8844V18.7903C77.8313 17.8938 77.9617 17.7733 77.9617 17.6238C77.9617 17.505 77.8771 17.4955 77.657 17.4868V17.4033H78.8295V17.4868C78.561 17.5087 78.4668 17.5219 78.1488 17.831L77.2993 18.662L78.3415 19.7665C78.6323 20.0844 78.7888 20.2534 79.0446 20.2433V20.3282H77.6792V20.2433C77.9165 20.2345 77.9922 20.2301 77.9922 20.1327C77.9922 19.9958 77.5635 19.541 77.4108 19.3915L76.9368 18.9273L76.8209 19.0196V19.8457C76.8209 20.1553 76.8744 20.2263 77.2231 20.2433V20.3282H75.9619V20.2433C76.31 20.2263 76.364 20.1591 76.364 19.7973V17.8844C76.364 17.5402 76.2648 17.5087 75.9619 17.4868V17.4033H77.2325H77.2326ZM41.6061 17.4033C42.6842 17.4033 43.398 17.8837 43.398 18.8744C43.398 19.4612 43.0437 20.3282 41.6693 20.3282H40.3946V20.2433C40.7361 20.2263 40.7897 20.1554 40.7897 19.8456V17.8837C40.7897 17.5577 40.7405 17.5138 40.3946 17.4868V17.4033H41.6061ZM62.7527 17.4033V17.4868C62.4502 17.505 62.3395 17.5351 62.3395 17.8838V19.9739C62.3395 20.1467 62.4159 20.155 62.7617 20.1553H62.7881C63.4557 20.1553 63.741 20.1371 63.9942 19.5586H64.1062L63.8916 20.3282H61.4979V20.2433C61.7826 20.2263 61.8852 20.1855 61.8852 19.8456V17.8837C61.8852 17.5351 61.7782 17.5087 61.4979 17.4868V17.4033H62.7528H62.7527ZM95.2207 17.4033L95.2476 18.1545H95.1414C95.0526 17.6772 94.9318 17.5915 94.4701 17.5886H94.2068V19.8456C94.2068 20.1466 94.2598 20.2301 94.6282 20.2433V20.3282H93.3458V20.2433C93.7454 20.2263 93.7585 20.124 93.7585 19.7973V17.5885H93.5225C93.0386 17.5885 92.9206 17.6715 92.8239 18.1545H92.7184L92.7446 17.4033H95.2207ZM37.6748 17.3242L39.3736 19.4706H39.3824V17.9798C39.3824 17.4657 39.2583 17.4308 38.9574 17.4085V17.3242H39.9992V17.4086C39.7199 17.439 39.578 17.4575 39.578 17.9798V20.3282H39.5024L37.5512 17.8808H37.5417V19.623C37.5417 20.0819 37.6351 20.1802 37.9592 20.1936V20.2792H36.9167V20.1936C37.2541 20.172 37.3468 20.1047 37.3468 19.623V17.6535C37.1646 17.4308 37.0945 17.4086 36.9167 17.4086V17.3242H37.6747H37.6748ZM36.5215 17.4033V17.4868C36.1916 17.4999 36.0778 17.5314 36.0778 17.8838V19.8457C36.0778 20.1905 36.1864 20.2339 36.5215 20.2433V20.3282H35.1778V20.2433C35.5541 20.2341 35.6141 20.1623 35.6164 19.8658L35.6165 17.8838C35.6165 17.5577 35.5528 17.5049 35.1778 17.4868V17.4033H36.5216H36.5215ZM85.4866 17.4855C85.0308 17.4855 84.5344 17.8476 84.5344 18.866C84.5344 19.85 84.9902 20.2471 85.4866 20.2471C85.9824 20.2471 86.4387 19.85 86.4387 18.866C86.4387 17.8476 85.9423 17.4855 85.4866 17.4855ZM96.786 17.566C96.5747 17.566 96.5747 17.6501 96.5747 17.7387V19.9832C96.5747 20.1327 96.629 20.1635 96.8441 20.1635C97.132 20.1635 98.2357 20.1635 98.2357 18.8788C98.2357 18.507 98.1285 18.1495 97.8182 17.8756C97.6024 17.6859 97.3515 17.566 96.786 17.566ZM66.7147 18.8868V19.9827C66.7147 20.1466 66.7934 20.1636 67.0482 20.1636C67.3378 20.1636 67.8692 20.124 67.8692 19.5318C67.8692 19.17 67.6537 19.0237 67.4258 18.9539C67.276 18.9093 67.1356 18.8868 66.7148 18.8868H66.7147ZM41.4586 17.566C41.2473 17.566 41.2473 17.6501 41.2473 17.7387V19.9832C41.2473 20.1327 41.3016 20.1635 41.5167 20.1635C41.8046 20.1635 42.9083 20.1635 42.9083 18.8788C42.9083 18.507 42.8011 18.1495 42.4908 17.8756C42.275 17.6859 42.0242 17.566 41.4586 17.566ZM70.3371 17.9566L69.8237 19.1819H70.855L70.3371 17.9565V17.9566ZM59.4304 17.956L58.9172 19.1817H59.9481L59.4305 17.9561L59.4304 17.956ZM54.1443 17.566C53.9079 17.566 53.8689 17.5967 53.8689 17.7248V18.8117C54.2412 18.8078 54.9055 18.7991 54.9055 18.1664C54.9055 17.5797 54.3257 17.5659 54.1442 17.5659L54.1443 17.566ZM67.0088 17.566C66.9158 17.566 66.8552 17.5702 66.8103 17.5702C66.7235 17.5702 66.7148 17.633 66.7148 17.6984V18.7146L67.1318 18.7102C67.2542 18.7102 67.7768 18.7014 67.7768 18.1764C67.7768 17.65 67.321 17.5659 67.0088 17.5659V17.566ZM31.8544 10.8957C31.8544 6.81301 26.3202 3.50481 19.4941 3.50481C14.0304 3.50481 9.39415 5.62717 7.76455 8.56673V8.56341C7.61299 8.83782 7.52862 9.1347 7.52862 9.44495C7.52862 10.1783 7.99121 10.83 8.71426 11.2565L14.9795 14.8716C15.3045 15.0484 15.6906 15.1533 16.108 15.1533C16.526 15.1533 16.9128 15.0483 17.2364 14.8736L23.1793 11.4405C23.5815 11.21 23.8353 10.8459 23.8353 10.4414C23.8353 10.0489 23.5947 9.69866 23.2159 9.46487L21.0074 8.18811L16.108 11.0147L12.4022 8.87366C13.8337 7.58557 16.4994 6.71741 19.5566 6.71741C24.1244 6.71741 27.8263 8.65579 27.8263 11.0479C27.7292 14.752 22.2947 17.6178 15.6946 17.4463C9.08916 17.2731 3.81543 14.1256 3.91309 10.4235H3.91113C3.95703 5.53889 10.3637 1.63948 18.2166 1.71585C18.9172 1.72376 19.603 1.76174 20.273 1.82874C18.6619 1.23489 16.6489 0.88147 14.459 0.88147C12.7111 0.88147 11.0723 1.10862 9.66319 1.49993C3.98096 3.05969 0 6.67942 0 10.8957C0 16.5416 7.13116 21.1186 15.9285 21.1186C24.7259 21.1186 31.8577 16.5416 31.8577 10.8957H31.8544Z" fill="#004785"/>
</svg>
