<svg width="100" height="28" viewBox="0 0 100 28" fill="none" xmlns="http://www.w3.org/2000/svg">
<path d="M13.697 0.298096C21.2597 0.298096 27.3744 6.41282 27.394 13.9853C27.394 21.5578 21.2597 27.7019 13.697 27.7019C6.13429 27.7019 0 21.5578 0 13.9853C0 6.41282 6.13429 0.298096 13.697 0.298096ZM13.6774 1.42321C6.74087 1.42321 1.12511 7.03897 1.12511 13.9853C1.12511 20.9316 6.76044 26.5474 13.697 26.5474C20.614 26.5474 26.2493 20.9316 26.2199 13.9853C26.2297 7.03897 20.614 1.42321 13.6774 1.42321ZM13.6872 2.22546C15.3308 2.22546 16.8962 2.54831 18.3148 3.17446C18.5399 3.30165 18.8334 3.52667 18.8334 3.84953C18.8334 4.47568 17.9626 4.34849 16.8962 5.19966C15.9179 5.98235 15.3993 7.08789 15.3798 8.31083V25.5397C14.8319 25.618 14.2644 25.6669 13.6872 25.6669C13.1589 25.6669 12.6306 25.6277 12.1218 25.5593L11.9946 25.5397V8.36953C11.9946 7.11724 11.4957 5.99213 10.4978 5.19966C9.402 4.34849 8.56062 4.47568 8.56062 3.84953C8.56062 3.49732 8.86391 3.30165 9.07915 3.17446C10.5075 2.57767 12.0436 2.22546 13.6872 2.22546ZM18.8334 5.43447V24.4928C18.1387 24.8548 17.3756 25.119 16.6125 25.3147L16.5049 25.344V8.69239C16.5049 7.53793 16.906 6.71611 17.7082 6.08997C17.992 5.87473 18.3148 5.69862 18.5692 5.57143L18.8334 5.43447ZM8.56062 5.43447L8.7465 5.5323L8.83456 5.58122C9.08893 5.70841 9.402 5.88451 9.67594 6.08997C10.4586 6.70633 10.8598 7.51837 10.8793 8.63369V25.344C10.126 25.1581 9.38244 24.8744 8.66824 24.5515L8.55083 24.4928V5.43447H8.56062ZM7.46486 4.06477V13.232C6.14408 13.2026 5.64512 12.4101 5.49836 12.0873C5.37118 11.8329 5.30269 11.559 5.07767 11.559C4.70589 11.559 4.38304 12.6841 4.38304 14.0538V14.2397C4.41239 15.5311 4.72546 16.5584 5.07767 16.5584C5.29291 16.5584 5.37118 16.3138 5.4788 16.079L5.49836 16.0301C5.64512 15.7366 6.13429 14.9245 7.41594 14.8854H7.46486V23.8471C4.20693 21.773 2.03498 18.1335 2.03498 13.9559C2.03498 9.82729 4.13845 6.21715 7.36702 4.13325L7.46486 4.06477ZM19.9585 4.0452C23.0501 6.02148 25.134 9.36746 25.359 13.232C24.0871 13.183 23.6175 12.3808 23.4708 12.0873L23.4512 12.0384C23.3436 11.8036 23.2653 11.559 23.0501 11.559C22.6587 11.559 22.3554 12.6547 22.3554 14.0049V14.0538C22.3554 15.4235 22.6587 16.5486 23.0501 16.5486C23.2653 16.5486 23.3436 16.2942 23.461 16.0496L23.4903 16.0007L23.5099 15.9616C23.6958 15.6289 24.185 14.9441 25.3394 14.856C25.0655 18.5934 23.0109 21.8317 20.0465 23.7591L19.9585 23.8178V4.0452Z" fill="#D7000F"/>
<path d="M35.9742 2.15685H36.0329C36.6003 2.19598 37.3439 2.38187 37.9309 3.18412C37.9798 3.23304 38.0287 3.33088 38.0287 3.40914C38.0287 3.45806 37.9798 3.5559 37.9309 3.66352C37.882 3.74179 37.8526 3.79071 37.833 3.83962L37.8233 3.87876C37.7646 4.04508 37.6276 4.55382 37.5395 6.34421L38.0483 6.27573C40.0637 6.01157 40.7975 5.85504 40.954 5.79634L40.9833 5.78655C41.0225 5.76698 41.2866 5.64958 41.3943 5.6398H41.404L41.5312 5.66915C42.5585 6.08984 43.2825 6.5301 43.7032 7.03885L43.7325 7.07798C43.7521 7.10733 43.8793 7.28343 43.8499 7.37149C43.8304 7.46932 43.7814 7.56716 43.5271 7.80197L43.4977 7.82153L43.3021 7.99764L43.2923 8.0172C43.1064 8.28136 42.6563 9.35755 41.8052 10.7762C42.0008 11.0795 42.1085 11.2751 42.1769 11.4317L42.1965 11.4806C42.3139 11.7447 42.3922 11.9893 42.1965 12.1361C42.0204 12.2633 41.4236 12.1165 40.7388 12.1067H40.592C40.0148 12.1067 38.8212 12.1361 37.3634 12.2339C37.383 12.5568 37.383 12.8992 37.3928 13.271V13.6134L37.3634 14.7679L37.3536 14.9929C37.3047 15.9419 37.2558 16.0691 37.1873 16.7246L37.1775 16.8322C37.0308 17.9964 36.8645 18.2117 36.7177 18.4563C36.6199 18.603 36.4927 18.7596 36.3949 18.7596C36.3166 18.7889 36.2481 18.6813 36.1992 18.5052L36.1796 18.4269C36.0818 18.0356 35.7785 16.9789 35.847 12.3905L35.7394 12.4002C35.1426 12.4589 33.5478 12.5959 33.1956 12.6155C33.0489 13.1634 32.8434 13.3884 32.6967 13.4666C32.4912 13.5743 32.364 13.496 32.2466 13.3982L32.1684 13.3297C32.0607 13.2318 31.7672 12.8014 31.5813 11.6567C31.3074 9.47495 30.6519 7.44976 30.6519 7.44976C30.5345 7.1856 30.4367 7.03885 30.4758 6.87253L30.4856 6.85296C30.5639 6.5301 31.3661 6.45183 32.5597 6.90188H32.5793C32.863 6.86274 35.5339 6.62794 35.9644 6.57902V6.18768C35.9644 5.84525 35.9546 5.42456 35.9448 5.02343L35.935 4.9256C35.8176 3.58525 35.6513 3.31131 35.6024 3.11564L35.5926 3.09607C35.4948 2.7243 35.3676 2.54819 35.3676 2.42101V2.37209C35.3285 2.2449 35.3872 2.13728 35.9742 2.15685ZM35.9253 7.64543L35.8176 7.66499C35.1719 7.75305 33.2935 7.97807 32.8923 7.99764V8.03677C32.9413 8.5553 33.0391 10.9425 33.088 11.3827L33.225 11.373C33.8316 11.3143 35.5046 11.1871 35.8665 11.1382V10.9523C35.8861 10.2283 35.9253 8.09547 35.9253 7.64543ZM37.5004 7.44976V7.62586C37.4906 8.34984 37.4319 10.5316 37.4319 10.9816L37.7254 10.9425C39.4963 10.7175 40.0441 10.5805 40.142 10.5316C40.2691 10.3848 40.4942 9.24993 40.6898 8.39876L40.7094 8.31071C40.7681 7.93893 40.7975 7.71391 40.7975 7.54759C40.7975 7.44976 40.7681 7.37149 40.7681 7.35192H40.7485C40.5529 7.29322 39.7115 7.22474 37.5004 7.44976ZM77.2217 3.53633C78.1315 3.66352 78.699 3.99616 79.1686 4.45599L79.1979 4.48534L79.2762 4.63209C79.2762 4.80819 79.1001 5.00387 78.9534 5.30716C78.8164 5.57131 78.6305 5.78655 78.5424 6.04093L78.5229 6.11919C78.4935 6.21703 78.4446 6.43227 78.3859 6.76491L78.3174 7.10733C78.1707 7.83132 78.0435 8.44768 77.9065 8.91729C77.7793 9.31842 77.5347 9.69019 77.4076 9.84673C77.3097 9.99348 77.0749 10.2087 76.8988 10.1305L76.8792 10.1207C76.8303 10.0913 76.6542 10.0228 76.5759 9.94456H76.5564C76.3705 9.97392 75.2258 10.0424 74.7953 10.1402L74.5605 10.1989C74.5116 10.2087 74.4529 10.2283 74.3942 10.2381L74.3551 10.2479C74.4431 10.3359 74.541 10.424 74.6584 10.5218L74.8051 10.649C75.1769 10.9718 76.4879 12.1067 76.7618 12.3024L76.8303 12.2143C77.6619 11.1088 77.8869 10.5316 77.8869 10.4435L77.9163 10.013V9.99348C77.9065 9.93478 77.8772 9.925 78.0435 9.8076C78.2196 9.68041 78.699 9.75868 79.1686 10.062C79.423 10.2674 79.7947 10.6392 79.7654 10.9131C79.7654 11.1382 79.5404 11.0892 79.3349 11.2849C79.1099 11.4904 78.8555 11.686 78.6598 11.8621C78.3566 12.1361 77.9848 12.3611 77.4565 12.7622L77.9652 13.134C78.9729 13.8678 79.6186 14.2885 81.096 14.5918L81.184 14.6113C81.6634 14.7189 81.9863 14.7483 82.0547 14.895C82.133 15.0712 81.683 15.3451 81.3308 15.5995C79.1979 16.5289 78.6501 16.3234 77.7989 15.4234C76.9673 14.5722 75.9987 13.4373 75.3139 12.684L75.1769 12.5372C74.8149 12.1459 74.404 11.6958 73.9637 11.2262V11.6273C73.9637 12.7035 73.9442 14.5722 73.9442 15.2277V15.2864L74.1692 15.1886C75.9107 14.4548 76.2824 14.4352 76.3216 14.582C76.3705 14.7581 75.9498 15.1886 74.9714 16.2843L74.8932 16.3724C74.3159 17.0083 73.7876 17.5073 73.592 17.7714L73.5235 17.8399L73.4843 17.8888C73.2104 18.1725 72.9267 18.4367 72.6625 18.378C72.3494 18.2802 72.0364 17.2725 71.9483 16.8224L71.9092 16.5974C71.8798 16.4506 71.9385 16.5582 72.2223 16.255L72.2418 16.2256C72.6136 15.7951 72.6136 15.6484 72.6919 14.6211L72.6136 7.4204L72.6038 7.31279C72.506 6.2953 72.3592 5.90395 72.2418 5.62023C72.1636 5.39521 71.8701 4.89625 72.1146 4.72014C72.3397 4.59296 72.868 4.59296 73.4941 4.84733L73.6017 4.8082C75.3139 4.14291 76.6053 3.94724 76.6738 3.89832L76.752 3.82006C76.9184 3.70265 76.9771 3.58525 77.0847 3.54612H77.1043L77.2217 3.53633ZM68.4556 2.71451C68.71 2.74387 69.2578 2.91997 69.7372 3.24283C70.0894 3.4972 70.3145 3.7907 70.3145 3.96681C70.3145 4.14291 70.1873 4.22118 70.0405 4.41685L70.0307 4.42664C69.9329 4.51469 69.747 4.81798 69.297 5.8159C69.2481 5.96265 69.1698 6.08984 69.1209 6.21703C69.1502 6.18768 69.1698 6.18768 69.2187 6.16811L69.522 6.05071C70.021 5.86482 70.3732 5.7572 70.7939 5.70828C71.0971 5.67893 71.3711 5.85504 71.5961 6.08006C71.8407 6.2953 71.919 6.55945 71.8798 6.66707V6.67686C71.8114 6.87253 71.4787 6.92144 71.2243 6.99971L70.8721 7.10733C69.3068 7.56716 68.8469 7.60629 68.4752 7.50846C68.2012 8.05634 67.8784 8.58465 67.5946 8.98577L67.6631 8.96621C68.0251 8.84881 68.4458 8.69227 69.1013 8.47703L69.2383 8.4379C69.3165 8.41833 69.7666 8.28136 70.0992 8.16396C70.6471 7.98785 70.9504 8.21287 71.1559 8.41833L71.2048 8.46725C71.4004 8.6727 71.5081 8.80967 71.4591 8.97599C71.3907 9.17166 71.0776 9.24993 70.9015 9.33798L70.8819 9.34777C70.8819 9.34777 69.9525 9.71954 69.4242 9.84673L69.4437 9.85651C69.522 9.89565 69.747 10.0522 69.6492 10.3457C69.6003 10.4435 69.5709 10.8447 69.522 11.0012C69.4535 11.1186 69.4731 11.1675 69.4731 11.2164V11.2262L69.8449 11.099L70.1971 10.9621C70.2166 10.9523 70.2264 10.9523 70.246 10.9425L70.2753 10.9229C70.334 10.8936 70.4123 10.8642 70.471 10.8447L70.5493 10.8251C70.7743 10.7468 71.1265 10.7468 71.4298 11.0305C71.7233 11.2947 71.8994 11.5882 71.8798 11.7252V11.735C71.8603 11.9502 71.5961 11.9404 71.4396 11.9795L70.696 12.2241C70.4808 12.2926 70.2362 12.3709 69.9818 12.4492L69.7177 12.5274C69.7177 12.5274 69.5905 12.5568 69.4633 12.6057V12.8601C69.4535 13.3395 69.4339 14.22 69.4144 14.7092L69.8253 14.5233C71.5276 13.7699 71.8505 13.6917 71.8994 13.8286C71.9288 13.9558 71.8016 14.0537 71.4494 14.2591L71.4004 14.3178C71.2537 14.4841 70.9797 14.7679 70.471 15.2375L69.6981 15.981C69.4437 16.2256 69.2089 16.4408 69.0426 16.5974C68.8665 16.7735 68.6415 16.9692 68.4165 17.2235L68.3675 17.2725C68.0545 17.6149 67.7707 17.8399 67.5066 17.7225L67.487 17.7127C67.4577 17.6834 67.3794 17.6051 67.3011 17.4779C67.0761 17.1257 66.9294 16.3528 66.9 16.1767C66.9 16.0006 66.9489 15.9517 66.9489 15.9517C66.9978 15.8538 67.1446 15.7462 67.3794 15.5995C67.6338 15.4234 67.8099 15.1005 67.9273 14.445V14.4254C67.9273 14.3472 67.9566 14.1417 67.9566 14.1417L67.9664 14.0341C67.986 13.7406 68.0055 13.3492 68.0055 13.046C67.8197 13.1144 67.4772 13.1829 67.2913 13.2612L67.262 13.271C67.0957 13.3395 66.5478 13.4862 66.3326 13.5156H66.313C66.039 13.5645 65.7162 13.3395 65.5107 13.1438C65.2074 12.8405 65.1096 12.6155 65.139 12.5176C65.1879 12.3122 65.5694 12.3122 65.8434 12.2437L66.0586 12.2046C66.8217 12.048 67.4772 11.8817 68.0545 11.7252C68.0545 11.373 68.0349 10.9131 68.0055 10.7077L67.986 10.5218C67.9664 10.3653 67.9371 10.1989 67.9077 10.0913L67.8392 10.1011C67.6533 10.1305 67.4381 10.1598 67.3305 10.1402C67.1055 10.0913 66.9783 10.013 66.9 9.91521C66.1271 10.7468 65.5205 11.0697 65.0411 11.3436C64.7378 11.5197 64.1606 11.6958 63.9845 11.6958C63.6127 11.7252 64.1802 11.2947 64.4639 10.9425C65.9216 9.2108 67.0663 7.43019 67.7707 5.07235L67.8001 4.9843C67.9273 4.56361 67.9762 4.30923 68.0251 3.75157C68.0545 3.35044 67.9958 2.85148 68.1523 2.74386C68.2012 2.71451 68.3284 2.68516 68.4556 2.71451ZM76.752 7.43019L76.7325 7.44976C76.6933 7.49867 76.6836 7.50846 76.5759 7.54759C76.4488 7.62586 74.4725 7.8411 73.8659 8.04655L73.8463 8.05634V9.2108C74.2768 9.06404 75.4998 8.85859 75.7248 8.83902C76.077 8.80967 76.2727 8.86837 76.4977 8.88794C76.5955 8.35963 76.6738 7.88023 76.752 7.43019ZM76.9771 5.2191H76.9282C76.6053 5.22889 75.1769 5.31694 73.8659 5.80612L73.817 5.82569V6.88231C73.817 6.86274 73.8366 6.85296 73.8366 6.85296C74.4333 6.82361 76.0183 6.24638 76.0183 6.24638C76.3216 6.26594 76.5466 6.4714 76.7325 6.65729L76.8401 6.76491L76.9184 6.2366C76.9673 5.85504 76.9673 5.61045 76.9673 5.44413L76.9771 5.2191ZM99.2542 7.63564L99.3423 7.69435C99.8804 8.06612 100.154 8.54552 99.9097 8.90751C99.763 9.14231 99.1466 9.16188 98.8727 9.16188H98.8335C98.589 9.14231 98.09 9.18145 97.5519 9.19123H97.503C96.7007 9.19123 95.9963 9.24015 95.1745 9.33798C95.3995 9.51409 95.5267 9.70976 95.605 9.91521C95.6343 9.99348 95.6539 10.0913 95.6539 10.1696C95.6539 10.2968 95.6245 10.4435 95.5561 10.5707L95.5169 10.7468C95.468 10.9621 95.4387 11.1284 95.4289 11.3436V12.4981C95.4289 12.8699 95.4387 13.4471 95.4778 14.1613C95.5267 14.8657 95.7811 15.7462 95.7322 16.3234C95.6832 16.6952 95.5365 17.0474 95.3017 17.3507C94.9788 17.8301 94.4701 18.1823 94.0983 18.3291C93.6972 18.4758 93.5993 18.0551 93.345 17.6051C93.0906 17.1551 92.8949 16.93 92.5721 16.4995L92.5232 16.4311C92.1122 15.9125 91.6426 15.4625 91.5937 15.2962C91.4959 14.9244 92.3666 15.394 93.1982 15.5995L93.3352 15.6288C93.5993 15.6875 93.7363 15.7266 93.8244 15.7266L93.8341 15.6973C93.9026 15.5016 93.9907 15.0027 94.0005 13.6232V13.0655L93.9907 12.8209C93.9418 11.3436 93.8342 10.2479 93.6483 9.60214L93.2178 9.67062C92.1416 9.84673 91.8774 9.91521 91.7209 9.9837L91.672 10.0033L91.6231 10.0326L91.3491 10.1011C91.1535 10.15 90.9871 10.1794 90.8404 10.1892H90.7523C90.2338 10.1207 89.8229 9.89565 89.637 9.75868L89.6077 9.73911C89.4609 9.64127 89.2848 9.41625 89.3533 9.2108C89.4315 9.03469 89.7838 9.00534 90.1555 8.95642L90.449 8.90751C93.5504 8.36941 95.6148 7.85088 96.0746 7.70413L96.1235 7.68456C96.5148 7.55738 97.278 7.40084 97.4247 7.37149C98.1878 7.17582 98.8531 7.37149 99.2542 7.63564ZM88.2575 6.34421C88.4336 6.42248 89.0402 6.90188 89.3435 7.60629L89.3631 7.64543C89.3631 7.64543 89.4413 7.74326 89.3631 7.87045L89.3435 7.8998C89.3044 7.96829 89.2163 8.11504 89.0793 8.22266C88.8543 8.39876 88.5804 8.65314 88.3064 8.97599C87.9836 9.37712 87.7096 9.65106 87.5042 9.85651L87.5727 9.94456C87.9053 10.3946 88.0814 10.6881 88.0814 11.1382C88.0814 11.2849 88.0325 11.5393 88.0031 11.7937C87.9836 12.0187 87.9738 12.322 87.9738 12.5079V13.3492C87.9836 14.6113 87.9934 15.1983 87.9738 15.9615C87.9738 16.8615 87.7194 17.7714 87.5238 17.8203C87.3281 17.8692 87.152 17.6931 86.9759 17.517C86.8291 17.3409 86.5748 16.9398 86.428 16.6659C86.3008 16.4408 86.2323 16.1376 86.2323 15.9419C86.2323 15.8441 86.2812 15.7364 86.3106 15.6386C86.3399 15.6092 86.3889 15.4331 86.4573 15.2081C86.7802 14.2298 86.6824 12.9481 86.6824 11.8426C86.6824 11.5197 86.653 11.1871 86.6334 10.8349L86.4867 10.9914C85.616 11.8915 85.4496 11.8817 84.8528 12.1361C84.0799 12.4883 82.994 12.7133 82.8472 12.6155C82.6515 12.4883 83.2092 12.1752 83.8647 11.6567L83.8941 11.6371C85.1268 10.6881 85.4007 10.2283 86.428 9.02491L86.4965 8.93686C87.465 7.61608 87.5629 6.92145 87.5629 6.92145C87.6118 6.74534 87.739 6.44205 87.9151 6.34421C88.0814 6.22681 88.2575 6.2953 88.2575 6.34421ZM88.3064 2.28404L88.3456 2.29382C88.6978 2.38187 89.2554 2.61668 89.7838 3.41893L89.7935 3.44828C89.8033 3.4972 89.8229 3.59503 89.8131 3.65373V3.66352C89.7838 3.76135 89.8131 4.06464 89.3631 4.3875C88.9326 4.69079 88.5902 5.043 88.2575 5.33651L88.0521 5.53218C86.8878 6.61815 86.2225 7.14647 85.7725 7.36171L85.7529 7.37149C85.0779 7.69434 84.0212 7.97807 83.9234 7.82153C83.8256 7.67478 84.6767 7.01928 85.0485 6.69642L85.2344 6.51053C85.7138 6.02136 86.653 5.043 87.3281 4.09399L87.4553 3.88854C87.7488 3.40915 87.8075 3.26239 87.7781 3.08629C87.7292 2.783 87.8075 2.43079 87.9053 2.36231C87.9738 2.28404 88.1303 2.23512 88.3064 2.28404ZM96.8279 4.11356L96.9355 4.20161C97.1312 4.36793 97.4443 4.65166 97.4052 4.83755C97.3758 4.96473 97.229 5.043 97.229 5.043C96.9551 5.26802 93.3156 6.16811 92.5916 6.32465C91.5154 6.57902 90.9871 6.22681 90.7621 6.07027L90.723 6.04093C90.5371 5.89417 90.361 5.72785 90.3903 5.52239C90.3903 5.31694 90.8404 5.26802 91.3198 5.17019L91.4665 5.13105C92.5232 4.85711 93.9516 4.40707 94.3918 4.23097L94.431 4.2114H94.4603L94.5484 4.17226C94.9495 3.99616 95.1745 3.92768 95.3408 3.87876L95.3702 3.86897C95.5756 3.82984 96.28 3.732 96.8279 4.11356ZM58.7307 12.8992L58.809 12.9286C60.1885 13.4569 60.9125 14.1613 60.8635 14.4352C60.8146 14.7092 60.4918 14.9146 60.2667 15.1886L60.2178 15.2473C60.0417 15.4429 60.0319 15.5212 59.5721 16.1865L59.6308 16.2745C59.8069 16.568 59.9439 16.8518 59.9048 16.9887L59.895 17.0181C59.8363 17.2235 59.6308 17.3018 58.4177 17.3703L58.3003 17.3801C57.5958 17.429 55.8348 17.5073 54.5825 17.6247C54.4064 17.9279 54.3868 18.1041 54.2792 18.2019C54.1814 18.2997 54.0933 18.3682 53.9759 18.3584H53.9564L53.8096 18.2802C53.5846 18.0747 53.4085 17.7518 53.2813 17.1746L53.1345 16.5778C52.8215 15.3157 52.6943 14.8755 52.6258 14.67L52.5769 14.5428L52.4497 14.2689C52.4008 14.1515 52.254 13.9754 52.4301 13.7895L52.4497 13.7699H52.479C52.5769 13.6721 52.8508 13.6427 53.5357 13.7406L53.5944 13.7504C53.7998 13.7699 53.8879 13.7895 53.9368 13.7895L54.0346 13.7797C55.6 13.6917 58.0752 13.1536 58.0752 13.1536L58.2807 13.0753C58.5253 12.9873 58.6525 12.9285 58.7307 12.909V12.8992ZM50.0234 3.16456C51.0017 3.41893 51.7061 3.88854 51.9018 4.69079C51.9214 4.75928 51.9312 4.81798 51.9312 4.83755V4.8669C51.9116 4.99408 51.8725 5.03322 51.6376 5.36586C51.3637 5.73763 51.1093 6.11919 50.8354 6.49097L50.6691 6.74534C50.5125 6.98014 50.3267 7.27365 50.0723 7.61608L50.0331 7.66499C50.0331 7.66499 50.0038 7.69434 50.0038 7.71391C50.4147 8.15417 50.6202 8.54552 50.6299 8.90751V8.96621L50.6006 9.24015V9.30863C50.5712 9.51409 50.5321 10.6783 50.4636 15.5799L50.4538 16.0593V16.0886C50.4049 16.9692 50.2288 17.3312 50.0821 17.5757L50.0527 17.6247C50.0136 17.6834 49.7886 18.016 49.632 17.9671C49.407 17.9182 48.7711 17.1159 48.683 16.0886V16.0104L48.7319 15.7853C48.9863 14.807 49.1624 13.7308 49.2113 12.7818L49.2211 12.6448C49.2407 12.41 49.2602 12.1556 49.2602 11.8719V11.5099C49.2602 11.2066 49.2602 10.8838 49.2309 10.5805C49.2309 9.9837 49.182 9.45539 49.1331 9.00534L49.0254 9.13253C48.0764 10.2772 47.3524 10.9229 46.6774 11.3827C45.7479 11.9795 45.0729 12.0872 45.024 11.9795C44.9261 11.8817 45.1316 11.735 45.2881 11.5882L45.4936 11.3925C45.5914 11.2947 45.7088 11.1773 45.924 10.9327L46.0806 10.7468C47.0296 9.67062 47.9884 8.21287 48.5852 7.1856C49.2602 6.06049 49.7592 4.50491 49.7886 4.27988C49.8375 4.08421 49.8179 3.87876 49.8179 3.87876L49.8081 3.78092C49.7886 3.54612 49.769 3.44828 49.769 3.3798C49.7494 3.11564 50.0234 3.16456 50.0234 3.16456ZM55.0815 14.7679L54.8369 14.8168C54.739 14.8363 54.5629 14.8657 54.4162 14.8755L54.4944 15.4331C54.5532 15.8245 54.6119 16.2941 54.6412 16.5289L54.7488 16.5191C55.9033 16.3724 57.5665 16.255 58.0557 16.1767C58.2513 15.7462 58.2807 15.1494 58.4079 14.4939H58.3687C58.0557 14.4743 56.6958 14.4939 55.0815 14.7679ZM59.3862 11.0795L59.4254 11.1186L59.5036 11.2066C59.6406 11.3632 59.7776 11.5589 59.7776 11.7447C59.7776 11.96 59.6015 11.9698 59.3471 12.0089L59.2982 12.0187L59.0732 12.0676C58.359 12.2339 56.0011 12.4296 54.5629 12.5763L54.3575 12.5959H54.3281C53.8683 12.6155 53.6628 12.5763 53.3596 12.3905L53.3302 12.3709L53.2813 12.322C53.1932 12.2339 53.0758 12.1361 53.0171 12.0285L53.0073 11.9991C52.978 11.9502 52.9584 11.8524 52.9584 11.823C52.9878 11.5686 53.3106 11.6176 53.79 11.5491H53.8096C53.8879 11.5393 54.1422 11.5002 54.9934 11.2751L55.1402 11.236C56.7153 10.8642 58.2318 10.7468 58.3003 10.7468C58.9166 10.6392 59.1906 10.874 59.3862 11.0795ZM58.3785 8.47703C58.9068 8.47703 59.259 8.7314 59.5036 9.00534C59.6993 9.23036 59.8754 9.55322 59.758 9.68041C59.6112 9.82716 59.2786 9.80759 58.946 9.87608L58.8971 9.88586L58.3198 9.96413L58.1731 9.9837C56.549 10.2185 54.3086 10.3848 54.3086 10.3848C53.5063 10.4142 53.1052 10.013 53.1052 10.013C52.9095 9.80759 52.8312 9.563 52.8802 9.48474C52.978 9.33798 53.3596 9.27928 53.5357 9.25972H53.5944C54.0738 9.23036 55.0521 9.10318 55.8641 8.88794L55.9522 8.86837C56.7838 8.6727 58.0361 8.50638 58.3785 8.47703ZM61.7049 6.45183C61.9006 6.65729 62.1354 6.98014 62.0082 7.22473C61.8419 7.53781 61.4995 7.50846 61.2451 7.49867H61.1668C60.8929 7.48889 60.3059 7.4204 60.3059 7.4204H60.1298C57.6448 7.3617 56.6566 7.50846 55.1304 7.83132L54.4455 7.97807C54.4455 7.97807 53.7705 8.05634 53.4672 8.15417C53.1835 8.22266 52.9584 8.32049 52.5671 8.36941L52.5084 8.3792H52.4106C51.8333 8.23244 51.1093 7.57694 51.1093 7.57694C50.855 7.32257 51.0311 7.20517 51.1387 7.09755C51.217 7.01928 51.4909 6.99971 51.8431 6.97036L52.1268 6.94101C55.0423 6.6475 57.9089 6.12898 58.6133 5.98222L59.1416 5.86482C59.2982 5.83547 59.396 5.8159 59.6406 5.77677L59.7678 5.7572C60.5798 5.64958 61.431 6.16811 61.7049 6.45183ZM55.8348 3.16456C56.3827 3.21347 56.7838 3.34066 57.0088 3.53633C57.3708 3.82984 57.5763 4.19183 57.6056 4.59296V4.66144C57.6056 5.37564 57.2436 5.60066 57.0186 5.65936H56.8327C55.8446 5.15062 55.2282 4.60274 54.5042 3.72222L54.3966 3.59503C54.3673 3.5559 54.289 3.41893 54.5531 3.33088L54.6412 3.31131C54.9934 3.23304 55.3261 3.18412 55.8348 3.16456ZM33.6457 20.9413C33.8903 20.9413 34.1642 20.9902 34.4186 21.0685C34.5458 21.0978 34.7904 21.1957 34.8197 21.1957C34.8686 21.1957 34.898 21.1663 34.9469 21.1467C34.9958 21.1174 35.0447 21.0685 35.0741 21V20.9706H35.348V21.0196L35.3969 22.399V22.448H35.1034V22.4186C35.0056 22.0664 34.8295 21.7925 34.6045 21.6164C34.4088 21.4403 34.1349 21.3424 33.812 21.3424C33.362 21.3424 32.9902 21.5185 32.7162 21.8707C32.4423 22.2229 32.2955 22.6925 32.2955 23.2991C32.2955 23.8764 32.4227 24.3264 32.7162 24.6786C33.0097 25.0308 33.3913 25.2069 33.8609 25.2069C34.1349 25.2069 34.3794 25.1286 34.6045 25.0112C34.8295 24.8645 35.0545 24.659 35.2502 24.3558L35.2795 24.3264L35.3089 24.3558L35.5828 24.5025L35.6122 24.5319L35.5828 24.5612C35.3872 24.9134 35.1132 25.2167 34.8099 25.383C34.4871 25.5591 34.1349 25.657 33.7142 25.657C33.4207 25.657 33.1467 25.6276 32.8923 25.5298C32.6478 25.4515 32.4227 25.3048 32.2173 25.1286C31.9433 24.9036 31.7477 24.6297 31.6205 24.3558C31.4933 24.0525 31.4248 23.7296 31.4248 23.3774C31.4248 23.1035 31.4542 22.8295 31.552 22.5556C31.6498 22.3012 31.777 22.0566 31.9531 21.8316C32.1781 21.5576 32.4227 21.3326 32.726 21.1761C33 21.0196 33.3228 20.9413 33.6457 20.9413ZM45.4055 21.0489L45.4349 21.0783L47.959 24.2579V21.8805C47.959 21.7044 47.9101 21.5772 47.8318 21.5087C47.7536 21.4305 47.6362 21.3815 47.4405 21.3815H47.3916V21.0587H48.9765V21.362H48.9276C48.7319 21.362 48.6047 21.4109 48.5363 21.4892C48.458 21.587 48.4091 21.6848 48.4091 21.8609V25.6667H48.0862L48.0569 25.6374L45.1707 22.0077V24.7862C45.1707 24.933 45.2196 25.0602 45.2979 25.1384C45.3762 25.2167 45.4936 25.2363 45.6697 25.2363H45.7675V25.5591H44.163V25.2363H44.2413C44.4174 25.2363 44.5348 25.2069 44.6131 25.1384C44.6913 25.0895 44.7402 24.9623 44.7402 24.7862V21.6066C44.6913 21.5283 44.6131 21.4794 44.5446 21.4598C44.4663 21.4109 44.3685 21.3815 44.2511 21.3815H44.2021V21.0587H45.4055V21.0489ZM38.0581 21.0489V21.3718H38.0091C37.8037 21.3718 37.6569 21.4011 37.5787 21.4696C37.5004 21.5185 37.4515 21.6457 37.4515 21.7925V22.9665H39.6234V21.7925C39.6234 21.6457 39.5745 21.5381 39.4963 21.4696C39.418 21.4207 39.2712 21.3718 39.0658 21.3718H39.0169V21.0489H40.9344V21.3718H40.8855C40.6801 21.3718 40.5529 21.4011 40.4844 21.4696C40.4355 21.5185 40.3866 21.6457 40.3866 21.7925V24.7862C40.3866 24.933 40.4159 25.0406 40.4844 25.1091C40.5627 25.158 40.6898 25.2069 40.8855 25.2069H40.9344V25.5298H39.0169V25.2069H39.0658C39.2712 25.2069 39.418 25.1776 39.4963 25.1091C39.5941 25.0308 39.6234 24.9134 39.6234 24.7569V23.3872H37.4515V24.7569C37.4515 24.933 37.5004 25.0308 37.5787 25.1091C37.6569 25.158 37.8037 25.2069 38.0091 25.2069H38.0581V25.5298H36.1209V25.2069H36.1698C36.3753 25.2069 36.5025 25.1776 36.571 25.1091C36.6492 25.0602 36.6688 24.933 36.6688 24.7862V21.7925C36.6688 21.6457 36.6394 21.5381 36.571 21.4696C36.4927 21.4207 36.3459 21.3718 36.1698 21.3718H36.1209V21.0489H38.0581ZM43.4977 21.0489V21.3522H43.4488C43.2531 21.3522 43.1064 21.3815 43.0281 21.45C42.9498 21.4989 42.9009 21.6261 42.9009 21.7729V24.7667C42.9009 24.9428 42.9498 25.07 43.0281 25.1189C43.1064 25.1678 43.2531 25.2167 43.4488 25.2167H43.4977V25.5396H41.5704V25.2167H41.6193C41.815 25.2167 41.9617 25.1874 42.04 25.1189C42.1182 25.07 42.1672 24.9721 42.1672 24.796V21.8022C42.1672 21.6555 42.1182 21.5479 42.04 21.4794C41.9617 21.4305 41.815 21.3815 41.6193 21.3815H41.5704V21.0587H43.4977V21.0489ZM51.9214 21.0489V21.0783L53.565 24.708C53.6433 24.9036 53.7411 25.0308 53.8389 25.1091C53.9368 25.1776 54.0444 25.2069 54.2303 25.2265H54.3183V25.5493H52.2736V25.2265H52.3225C52.4986 25.2265 52.6258 25.1971 52.6943 25.1482C52.7725 25.0993 52.7921 25.021 52.7921 24.9525C52.7921 24.9036 52.7628 24.7569 52.7138 24.659C52.6845 24.5906 52.6062 24.4242 52.479 24.1503L52.4595 24.1209H50.6886L50.4636 24.6688C50.4343 24.7177 50.3854 24.8645 50.3854 24.9428C50.3854 25.021 50.4147 25.07 50.4636 25.1189C50.5125 25.1678 50.6202 25.2167 50.806 25.2363H50.8843V25.5298H49.27V25.2069H49.3189C49.4461 25.2069 49.5635 25.158 49.6418 25.0797C49.7103 25.0112 49.7983 24.8938 49.8766 24.7373L49.8962 24.708L51.5887 21.0783V21.0489H51.9214ZM51.5105 22.1153L50.7767 23.6122H52.166L51.5105 22.1153ZM59.6504 20.9413C59.895 20.9413 60.1689 20.9902 60.4233 21.0685C60.5505 21.1174 60.7951 21.1957 60.8244 21.1957C60.8733 21.1957 60.9027 21.1663 60.9516 21.1467C61.0005 21.0978 61.0494 21.0685 61.0788 21V20.9706H61.3527V21.0196L61.4016 22.399V22.448H61.1081V22.4186C61.0103 22.0664 60.8342 21.7925 60.6092 21.6164C60.4135 21.4403 60.1396 21.3424 59.8167 21.3424C59.3667 21.3424 58.9949 21.5185 58.7209 21.8707C58.447 22.2229 58.3003 22.6925 58.3003 23.2991C58.3003 23.8764 58.447 24.3264 58.7503 24.6786C59.0536 25.0308 59.4254 25.2069 59.895 25.2069C60.1689 25.2069 60.4135 25.1286 60.6385 25.0112C60.8635 24.8645 61.0886 24.659 61.2842 24.3558L61.3136 24.3264H61.3625L61.5875 24.5025L61.6169 24.5319L61.5875 24.5612C61.3919 24.933 61.1179 25.2167 60.8146 25.383C60.5211 25.5591 60.1396 25.657 59.7189 25.657C59.4254 25.657 59.1514 25.6276 58.8971 25.5298C58.6525 25.4515 58.4274 25.3048 58.222 25.1286C57.948 24.9036 57.7524 24.6493 57.6252 24.3558C57.498 24.0525 57.4295 23.7296 57.4295 23.3774C57.4295 23.1035 57.4589 22.8295 57.5567 22.5556C57.6545 22.3012 57.7817 22.0566 57.9578 21.8316C58.1829 21.5576 58.4274 21.3326 58.7307 21.1761C59.0047 21.0196 59.3275 20.9413 59.6504 20.9413ZM74.1007 20.9413C74.3453 20.9413 74.6192 20.9902 74.8736 21.0685C74.9714 21.0978 75.2454 21.1957 75.2747 21.1957C75.3237 21.1957 75.353 21.1663 75.4019 21.1467C75.4508 21.1174 75.4802 21.0685 75.5291 21V20.9706H75.7737V21.0196L75.8226 22.399V22.448H75.5291V22.4186C75.4313 22.0664 75.2552 21.7925 75.0301 21.6164C74.8345 21.4403 74.5605 21.3424 74.2377 21.3424C73.7876 21.3424 73.4159 21.5185 73.1419 21.8707C72.868 22.2229 72.7212 22.6925 72.7212 23.2991C72.7212 23.8764 72.868 24.3264 73.1713 24.6786C73.4746 25.0308 73.8463 25.2069 74.3159 25.2069C74.5899 25.2069 74.8345 25.1286 75.0595 25.0112C75.2845 24.8645 75.5095 24.659 75.7052 24.3558L75.7346 24.3264L76.0574 24.5221L76.0281 24.5514C75.8324 24.9036 75.5585 25.2069 75.2552 25.3732C74.9617 25.5493 74.5801 25.6472 74.1594 25.6472C73.8659 25.6472 73.592 25.6178 73.3376 25.52C73.093 25.4417 72.8386 25.295 72.643 25.1189C72.3984 24.8938 72.1929 24.6395 72.0755 24.346C71.9581 24.0525 71.8798 23.7198 71.8798 23.3676C71.8798 23.0937 71.9092 22.8197 72.007 22.5458C72.1049 22.2914 72.232 22.0468 72.4081 21.8218C72.6332 21.5479 72.8778 21.3228 73.181 21.1663C73.455 21.0196 73.7779 20.9413 74.1007 20.9413ZM64.1606 21.0489V21.3522H64.1117C63.916 21.3522 63.7693 21.3815 63.691 21.45C63.6127 21.4989 63.5638 21.6261 63.5638 21.7729V24.7667C63.5638 24.9428 63.6127 25.0406 63.691 25.1189C63.7693 25.1678 63.916 25.2167 64.1117 25.2167H64.1606V25.5396H62.2332V25.2167H62.2822C62.4778 25.2167 62.6246 25.1874 62.7029 25.1189C62.7811 25.07 62.83 24.9428 62.83 24.796V21.8022C62.83 21.6555 62.7811 21.5479 62.7029 21.4794C62.6246 21.4305 62.4778 21.3815 62.2822 21.3815H62.2332V21.0587H64.1606V21.0489ZM68.6317 21.0489V21.0978L68.661 22.1642V22.2131H68.3578V22.1838C68.3088 21.9099 68.211 21.7142 68.0838 21.6164C67.9566 21.5185 67.7316 21.4696 67.4283 21.4696H67.0174V24.8058C67.0174 24.9525 67.0663 25.0504 67.1446 25.1286C67.2229 25.1776 67.3696 25.2265 67.5751 25.2265H67.624V25.5493H65.6673V25.2265H65.7162C65.9216 25.2265 66.0684 25.1971 66.1467 25.1286C66.2249 25.0504 66.2739 24.933 66.2739 24.7862V21.4794H65.8434C65.5401 21.4794 65.3151 21.5283 65.1879 21.6261C65.0607 21.724 64.9629 21.9196 64.9139 22.1936V22.2229H64.5911V22.174L64.64 21.1076V21.0587H68.6317V21.0489ZM71.1167 21.0489V21.3522H71.0678C70.8721 21.3522 70.7254 21.3815 70.6569 21.45C70.5591 21.4989 70.5395 21.6261 70.5395 21.7729V24.7667C70.5395 24.9428 70.5591 25.0406 70.6373 25.1189C70.7058 25.1678 70.8526 25.2167 71.0482 25.2167H71.0972V25.5396H69.1991V25.2167H69.2481C69.4437 25.2167 69.5905 25.1874 69.659 25.1189C69.7275 25.07 69.7764 24.9428 69.7764 24.796V21.8022C69.7764 21.6555 69.7275 21.5479 69.659 21.4794C69.5905 21.4305 69.4437 21.3815 69.2481 21.3815H69.1991V21.0587H71.1167V21.0489ZM90.1555 21.0489V21.0783L92.6993 24.2579V21.8805C92.6993 21.7044 92.6503 21.5772 92.5721 21.5087C92.4938 21.4305 92.3764 21.3815 92.1709 21.3815H92.122V21.0587H93.6972V21.362H93.6483C93.4722 21.362 93.345 21.4109 93.2765 21.4892C93.1982 21.5674 93.1493 21.6848 93.1493 21.8609V25.6667H92.8264V25.6374L89.9109 22.0077V24.7862C89.9109 24.933 89.9599 25.0602 90.0381 25.1384C90.1164 25.2167 90.2338 25.2363 90.4099 25.2363H90.5077V25.5591H88.8837V25.2363H88.9619C89.138 25.2363 89.2652 25.2069 89.3337 25.1384C89.412 25.0895 89.4609 24.9623 89.4609 24.7862V21.6066C89.412 21.5283 89.3337 21.4794 89.2652 21.4598C89.187 21.4109 89.0891 21.3815 88.9619 21.3815H88.913V21.0587H90.1555V21.0489ZM81.409 21.0489C81.9373 21.0489 82.3091 21.1272 82.5831 21.3228C82.857 21.499 83.0135 21.7729 83.0135 22.1251C83.0135 22.399 82.9157 22.6241 82.7396 22.8002C82.6124 22.9469 82.4167 23.0741 82.1428 23.1524C82.4657 23.2306 82.72 23.3285 82.8961 23.5046C83.1212 23.71 83.219 23.9546 83.219 24.2873C83.219 24.6395 83.0722 24.9623 82.7396 25.1874C82.4461 25.4026 82.0645 25.5298 81.6145 25.5396H79.2469V25.2167H79.2958C79.4914 25.2167 79.6186 25.1874 79.6969 25.1189C79.7458 25.07 79.7947 24.9623 79.7947 24.8156V21.7729C79.7947 21.6261 79.7654 21.5185 79.6969 21.45C79.6284 21.4011 79.4914 21.3522 79.3251 21.3522H79.2469V21.0489H81.409ZM86.1834 21.0489L86.2128 21.0783L87.8662 24.708C87.9444 24.9036 88.0423 25.0308 88.1401 25.1091C88.2282 25.1776 88.3456 25.2069 88.4825 25.2265L88.5119 25.2363H88.5608V25.5591H86.5063V25.2363H86.5552C86.7313 25.2363 86.8585 25.2069 86.927 25.158C87.0052 25.1286 87.0248 25.0602 87.0248 24.9819C87.0248 24.933 86.9954 24.8841 86.9954 24.8351C86.9954 24.7667 86.9759 24.7177 86.9563 24.6786L86.9465 24.659L86.6922 24.1112H84.9115L84.6865 24.659C84.6572 24.708 84.6376 24.7569 84.6376 24.8058C84.6082 24.8351 84.6083 24.8841 84.6083 24.933C84.6083 25.0112 84.6376 25.0602 84.6865 25.1091C84.755 25.158 84.8724 25.2069 85.0485 25.2265H85.1366V25.52H83.5125V25.1971H83.5614C83.6886 25.1971 83.8158 25.1482 83.8843 25.07C83.9528 25.0015 84.0506 24.8841 84.1191 24.7275L84.1386 24.6982L85.841 21.0685V21.0391H86.1834V21.0489ZM96.2116 21.0489V21.3718H96.1626C95.967 21.3718 95.8398 21.4011 95.7615 21.4696C95.6832 21.5185 95.6637 21.6457 95.6637 21.7925V23.3285L97.2095 21.9392C97.3073 21.8414 97.3562 21.7631 97.4052 21.7142C97.4345 21.6653 97.4541 21.6163 97.4541 21.587C97.4541 21.5087 97.4247 21.4598 97.3758 21.4402C97.3269 21.4109 97.229 21.3913 96.9747 21.362H96.9258V21.0391H98.8923V21.362H98.8629C98.7161 21.3913 98.589 21.4109 98.4618 21.4892C98.315 21.5674 98.1878 21.6359 98.0606 21.7631L96.8866 22.8099L98.0606 24.6003C98.2368 24.8449 98.3639 25.021 98.4813 25.0993C98.5792 25.1776 98.7259 25.2265 98.8825 25.2265H98.9314V25.5493H96.8866V25.2265H96.9355C97.0627 25.2265 97.1801 25.1971 97.2584 25.1776C97.3465 25.1384 97.3562 25.1091 97.3562 25.0895V25.0797C97.3562 25.0504 97.3562 25.0015 97.3269 24.9525C97.2975 24.9036 97.278 24.8254 97.1801 24.708L96.28 23.3383L95.6343 23.9351V24.7764C95.6343 24.9232 95.6637 25.021 95.7322 25.0993C95.8104 25.1482 95.9278 25.1971 96.1333 25.1971H96.1822V25.52H94.3135V25.1971H94.3625C94.5581 25.1971 94.6853 25.1678 94.7636 25.0993C94.8419 25.0504 94.8614 24.9232 94.8614 24.7764V21.7925C94.8614 21.6457 94.8321 21.5479 94.7636 21.4696C94.6853 21.4207 94.5386 21.3718 94.3625 21.3718H94.3135V21.0489H96.2116ZM81.3992 23.4067H80.6459V24.6884C80.6459 24.9134 80.6948 25.0112 80.7437 25.0406C80.822 25.0895 80.9688 25.1189 81.2231 25.1189C81.6243 25.1189 81.9569 25.0406 82.1624 24.8938C82.3678 24.7471 82.4657 24.5416 82.4657 24.2677C82.4657 24.0133 82.3678 23.7883 82.1917 23.6415C82.0156 23.4948 81.7319 23.4067 81.3992 23.4067ZM85.8703 22.1153L85.1366 23.6122H86.5258L85.8703 22.1153ZM81.2623 21.4794H80.6459V22.9763H81.1938C81.5362 22.9763 81.8102 22.9078 81.9863 22.7806C82.1624 22.6338 82.2602 22.4382 82.2602 22.2034C82.2602 21.9686 82.1819 21.7925 82.0156 21.6751C81.8297 21.5479 81.5753 21.4794 81.2623 21.4794Z" fill="#140700"/>
</svg>
