<svg width="100" height="14" viewBox="0 0 100 14" fill="none" xmlns="http://www.w3.org/2000/svg">
<path d="M9.53712 9.44106H13.9598C14.0179 9.44106 14.065 9.4882 14.065 9.54631V10.367C14.065 10.4251 14.0179 10.4723 13.9598 10.4723H7.82146C7.79357 10.4722 7.76682 10.4611 7.7471 10.4414C7.72738 10.4217 7.71631 10.3949 7.71631 10.367V10.1413C7.71631 10.1171 7.72458 10.0938 7.73973 10.0751L12.1592 4.61143H8.03994C8.01205 4.61143 7.98529 4.60036 7.96555 4.58064C7.94582 4.56092 7.93472 4.53418 7.93469 4.50628V3.68548C7.93469 3.62737 7.98184 3.58032 8.03994 3.58032H13.8747C13.9328 3.58032 13.9798 3.62737 13.9798 3.68548V3.91134C13.9798 3.93546 13.9715 3.95878 13.9564 3.97752L9.53692 9.44106H9.53712ZM15.0853 10.3144V3.68558C15.0853 3.62747 15.1324 3.58042 15.1905 3.58042H18.5977C20.1345 3.58042 20.9394 4.26428 20.9394 5.32818V5.48018C20.9394 6.24018 20.5004 6.84808 19.6955 7.00008C20.6467 7.15208 21.0857 7.83603 21.0857 8.44394V8.59594C21.0126 9.65984 20.1345 10.4197 18.5977 10.4197H15.1905C15.1767 10.4197 15.163 10.417 15.1503 10.4117C15.1375 10.4064 15.1259 10.3987 15.1161 10.3889C15.1063 10.3791 15.0986 10.3675 15.0933 10.3548C15.088 10.342 15.0853 10.3283 15.0853 10.3145V10.3144ZM18.6678 4.57984H16.3484C16.2904 4.57984 16.2433 4.62698 16.2433 4.68509V6.42128C16.2433 6.47939 16.2904 6.52644 16.3485 6.52644H18.5209C19.329 6.52644 19.7699 6.15217 19.7699 5.62809V5.47828C19.7699 5.02906 19.476 4.57984 18.6678 4.57984ZM18.5943 7.4209H16.3485C16.2904 7.4209 16.2433 7.46794 16.2433 7.52605V9.26225C16.2433 9.32036 16.2904 9.3674 16.3485 9.3674H18.6679C19.476 9.3674 19.7699 8.99313 19.7699 8.46905V8.31925C19.7699 7.79517 19.4025 7.4209 18.5943 7.4209ZM27.5048 10.3564L26.8315 8.81103C26.8233 8.79225 26.8098 8.77627 26.7926 8.76504C26.7755 8.75382 26.7555 8.74784 26.735 8.74784H23.5951C23.5532 8.74784 23.5154 8.77265 23.4986 8.81103L22.8253 10.3564C22.8171 10.3752 22.8036 10.3912 22.7865 10.4024C22.7694 10.4137 22.7493 10.4196 22.7288 10.4196H21.7219C21.7043 10.4196 21.687 10.4153 21.6716 10.4069C21.6562 10.3985 21.6431 10.3864 21.6335 10.3716C21.624 10.3569 21.6183 10.34 21.6169 10.3225C21.6156 10.305 21.6186 10.2875 21.6258 10.2714L24.5909 3.64252C24.6079 3.60464 24.6454 3.58032 24.687 3.58032H25.571C25.6122 3.58032 25.6495 3.60424 25.6667 3.64172L28.7024 10.2706C28.7097 10.2867 28.7129 10.3043 28.7117 10.3219C28.7104 10.3394 28.7048 10.3564 28.6952 10.3713C28.6857 10.3861 28.6726 10.3983 28.6572 10.4067C28.6417 10.4152 28.6243 10.4196 28.6067 10.4196H27.6012C27.5594 10.4196 27.5215 10.3948 27.5048 10.3564ZM25.1124 4.94823L23.9411 7.58855C23.9339 7.60458 23.9309 7.62213 23.9323 7.63961C23.9337 7.65709 23.9394 7.67395 23.949 7.68866C23.9585 7.70337 23.9716 7.71545 23.987 7.72382C24.0024 7.73218 24.0197 7.73656 24.0372 7.73656H26.1876C26.2051 7.73656 26.2223 7.73217 26.2377 7.72381C26.2531 7.71545 26.2662 7.70338 26.2758 7.68868C26.2853 7.67399 26.2911 7.65715 26.2925 7.63968C26.2938 7.62221 26.2909 7.60467 26.2838 7.58865L25.1124 4.94813V4.94823ZM34.9047 10.3824L31.2759 6.08808L30.8367 5.48008V10.3144C30.8367 10.3726 30.7896 10.4196 30.7315 10.4196H29.7707C29.7569 10.4196 29.7432 10.4169 29.7304 10.4116C29.7176 10.4063 29.706 10.3986 29.6963 10.3888C29.6865 10.379 29.6787 10.3674 29.6734 10.3547C29.6682 10.3419 29.6654 10.3282 29.6654 10.3144V3.68558C29.6654 3.62747 29.7125 3.58042 29.7707 3.58042H30.714C30.7454 3.58042 30.7751 3.59438 30.795 3.6185L34.3506 7.91199L34.863 8.51999V3.68558C34.863 3.62747 34.9102 3.58042 34.9683 3.58042H35.9291C35.9873 3.58042 36.0344 3.62747 36.0344 3.68558V10.3145C36.0344 10.3727 35.9873 10.4197 35.9291 10.4197H34.9851C34.9541 10.4197 34.9247 10.4061 34.9047 10.3825V10.3824ZM42.2856 10.3946L39.5785 7.43256L38.6268 8.34446V10.367C38.6268 10.4251 38.5797 10.4723 38.5216 10.4723H37.5608C37.5329 10.4723 37.5061 10.4612 37.4864 10.4414C37.4666 10.4217 37.4555 10.3949 37.4555 10.367V3.7381C37.4555 3.68 37.5027 3.63285 37.5608 3.63285H38.5216C38.5797 3.63285 38.6268 3.68 38.6268 3.7381V7.05261L42.1835 3.66195C42.203 3.64332 42.229 3.63285 42.256 3.63285H43.4826C43.5038 3.63286 43.5244 3.63924 43.5419 3.65117C43.5594 3.6631 43.5729 3.68002 43.5806 3.69973C43.5883 3.71943 43.5899 3.741 43.5852 3.76163C43.5804 3.78226 43.5696 3.80098 43.5541 3.81535L40.3838 6.74861C41.0426 7.43256 43.8245 10.4723 43.8245 10.4723H42.3999C42.3688 10.4723 42.3393 10.4585 42.3192 10.4346L42.2886 10.398C42.2877 10.3969 42.2867 10.3957 42.2856 10.3946Z" fill="black"/>
<path d="M3.90297 10.7354C2.76162 10.7354 1.8245 10.3735 1.0948 9.64998C0.365199 8.92666 0 8.01167 0 6.90849C0 6.22474 0.169443 5.59302 0.50793 5.01423C0.846616 4.43533 1.31537 3.98112 1.91351 3.6523C2.51124 3.32378 3.15682 3.15942 3.84944 3.15942C4.54107 3.15942 5.16143 3.29239 5.71012 3.55861C6.25932 3.82514 6.71821 4.21515 7.0862 4.72807L7.1158 4.76923L6.39358 5.32759L6.36118 5.28832C5.69687 4.48297 4.87866 4.08179 3.90297 4.08179C3.10639 4.08179 2.42114 4.36167 1.84434 4.92282C1.26793 5.48358 0.980277 6.16873 0.980277 6.98146C0.980277 7.79409 1.26145 8.47106 1.8247 9.01556C2.38825 9.56017 3.11884 9.83248 4.01958 9.83248C4.91763 9.83248 5.69737 9.44715 6.36188 8.67379L6.39417 8.63612L7.12726 9.19448L7.09477 9.23634C6.31972 10.2353 5.25422 10.7354 3.90297 10.7354Z" fill="black"/>
<path d="M57.2254 5.97818L52.7924 1.58413C52.4794 1.27395 52.4794 0.808684 52.7924 0.498504C53.1053 0.188324 53.5747 0.188324 53.8876 0.498504L58.3206 4.89266C58.6336 5.20284 58.6336 5.6681 58.3206 5.97818C58.0599 6.28836 57.5383 6.28836 57.2254 5.97818ZM52.3908 4.18837L49.8978 1.69547C49.5862 1.38379 49.5862 0.916428 49.8978 0.604753C50.2095 0.293177 50.6768 0.293177 50.9885 0.604753L53.4813 3.09775C53.793 3.40933 53.793 3.87679 53.4813 4.18837C53.1698 4.50005 52.7024 4.50005 52.3908 4.18837ZM50.865 5.7011L48.3721 3.21667C48.0605 2.90609 48.0605 2.44022 48.3721 2.12974C48.6837 1.81916 49.1512 1.81916 49.4627 2.12974L51.9557 4.61417C52.2673 4.92475 52.2673 5.39062 51.9557 5.7011C51.6441 5.95985 51.1767 5.95985 50.865 5.7011ZM49.3919 7.13458L46.8991 4.64168C46.5874 4.33 46.5874 3.86264 46.8991 3.55097C47.2106 3.23939 47.6781 3.23939 47.9897 3.55097L50.4826 6.04387C50.7943 6.35554 50.7943 6.82301 50.4826 7.13458C50.2229 7.44616 49.7035 7.44616 49.392 7.13458H49.3919ZM45.3733 6.16736C45.0617 5.85569 45.0617 5.38832 45.3733 5.07665C45.6849 4.76507 46.1523 4.76507 46.464 5.07665L48.9569 7.56965C49.2686 7.88123 49.2686 8.34869 48.9569 8.66026C48.6972 8.97194 48.1779 8.97194 47.8663 8.66026L45.3733 6.16736ZM57.2309 8.9233L54.7381 6.4305C54.4264 6.11882 54.4264 5.65136 54.7381 5.33978C55.0496 5.02811 55.517 5.02811 55.8287 5.33978L58.3215 7.83259C58.6332 8.14426 58.6332 8.61173 58.3215 8.9233C58.0099 9.23498 57.4906 9.23498 57.2309 8.9233ZM55.7052 10.4491L53.2123 7.95608C52.9006 7.64451 52.9006 7.17704 53.2123 6.86547C53.5239 6.55379 53.9913 6.55379 54.3029 6.86547L56.7959 9.35837C57.1075 9.67004 57.1075 10.1374 56.7959 10.4491C56.4842 10.7607 56.0169 10.7607 55.7052 10.4491ZM54.232 11.9748L51.7392 9.48176C51.4276 9.17019 51.4276 8.70273 51.7392 8.39115C52.0508 8.07958 52.5183 8.07958 52.8299 8.39115L55.3228 10.8841C55.6344 11.1957 55.6344 11.6631 55.3228 11.9748C55.0112 12.2863 54.5437 12.2863 54.2321 11.9748H54.232ZM52.7065 13.4479L50.2135 10.9549C49.9019 10.6432 49.9019 10.1759 50.2135 9.86421C50.5251 9.55263 50.9925 9.55263 51.3042 9.86421L53.7971 12.3572C54.1087 12.6688 54.1087 13.1362 53.7971 13.4478C53.4855 13.7595 53.018 13.7595 52.7065 13.4478V13.4479ZM49.7547 13.5015L45.3216 9.10739C45.0087 8.79721 45.0087 8.33195 45.3216 8.02177C45.6346 7.71159 46.1041 7.71159 46.4169 8.02177L50.8499 12.4159C51.1628 12.7261 51.1628 13.1914 50.8499 13.5015C50.5369 13.8117 50.0676 13.8117 49.7547 13.5015Z" fill="#E60012"/>
<path d="M68.4462 3.24813C68.5004 3.24813 68.545 3.2892 68.5507 3.34193L68.5513 3.35339V4.07502C68.5513 4.12914 68.5104 4.17379 68.4576 4.17957L68.4462 4.18017H66.074C65.9933 4.18014 65.9158 4.21097 65.8571 4.26633C65.7985 4.32169 65.7633 4.39739 65.7587 4.47789L65.7582 4.49583V5.24128C65.7582 5.2955 65.7993 5.34015 65.8519 5.34594L65.8635 5.34653H68.4462C68.5004 5.34653 68.545 5.3875 68.5507 5.44023L68.5513 5.45169V6.10953C68.5513 6.16385 68.5104 6.2085 68.4576 6.21418L68.4462 6.21478H68.1422C68.0878 6.21478 68.0432 6.25585 68.0375 6.30857L68.0369 6.32003V10.9458C68.0369 11 67.9959 11.0447 67.9432 11.0504L67.9317 11.051H67.2217C67.1675 11.051 67.1228 11.0099 67.117 10.9573L67.1165 10.9458V6.32003C67.1165 6.26581 67.0755 6.22116 67.0228 6.21538L67.0113 6.21478H65.8635C65.8092 6.21478 65.7646 6.25585 65.7588 6.30857L65.7582 6.32003V10.9458C65.7582 11 65.7172 11.0447 65.6645 11.0504L65.6531 11.051H64.8945C64.8404 11.051 64.7958 11.0099 64.79 10.9573L64.7894 10.9458V3.77431C64.7894 3.63852 64.8419 3.50799 64.9359 3.41002C65.0299 3.31204 65.1582 3.25422 65.2938 3.24863L65.3156 3.24813H68.4462ZM75.1927 2.79114C75.2368 2.79114 75.2758 2.81865 75.2911 2.85911L75.2946 2.87048L75.4741 3.57795C75.485 3.62081 75.5212 3.65171 75.5643 3.65669L75.5761 3.65729H78.8105C78.8646 3.65729 78.9093 3.69836 78.915 3.75108L78.9156 3.76254V4.4155C78.9156 4.46982 78.8746 4.51447 78.8219 4.52015L78.8104 4.52075H77.4663C77.4354 4.52075 77.4064 4.53431 77.3866 4.55733L77.3786 4.5678L76.8055 5.43255C76.7955 5.44759 76.7896 5.46493 76.7883 5.48291C76.787 5.50089 76.7903 5.51891 76.798 5.53524C76.8056 5.55156 76.8173 5.56565 76.832 5.57616C76.8466 5.58666 76.8637 5.59322 76.8816 5.59522L76.8931 5.59592H78.2549C78.3629 5.59593 78.4667 5.63745 78.545 5.71188C78.6232 5.78631 78.6698 5.88796 78.6752 5.9958L78.6757 6.01673V10.5249C78.6757 10.6607 78.6233 10.7912 78.5293 10.8892C78.4353 10.9871 78.307 11.045 78.1714 11.0506L78.1497 11.051H77.3336C77.2794 11.051 77.2348 11.0099 77.229 10.9573L77.2285 10.9458V10.3453C77.2285 10.2911 77.2695 10.2464 77.3222 10.2406L77.3336 10.2401H77.5605C77.6411 10.2401 77.7187 10.2093 77.7773 10.1539C77.8359 10.0985 77.8711 10.0228 77.8757 9.94232L77.8762 9.92438V6.65444C77.8762 6.60123 77.856 6.54999 77.8198 6.51105C77.7835 6.4721 77.7339 6.44833 77.6808 6.44452L77.6657 6.44402H76.7294C76.7109 6.44405 76.6928 6.44894 76.6768 6.45821C76.6608 6.46747 76.6475 6.48079 76.6383 6.49681C76.6291 6.51284 76.6243 6.531 76.6243 6.54949C76.6244 6.56797 76.6293 6.58612 76.6385 6.60211L76.6453 6.61237L77.3519 7.55417C77.3821 7.59454 77.3792 7.65006 77.3466 7.68694L77.3377 7.69581L76.9007 8.08632C76.8816 8.10335 76.8694 8.12673 76.8663 8.15211L76.8655 8.16477V10.0824C76.8655 10.1366 76.8245 10.1812 76.7718 10.187L76.7603 10.1876H73.1257C73.0715 10.1876 73.0268 10.1466 73.021 10.0938L73.0204 10.0824V8.17214C73.0204 8.14224 73.0078 8.11404 72.9858 8.0942L72.9759 8.08623L72.514 7.7599C72.4716 7.73 72.4579 7.67418 72.4798 7.62853L72.486 7.61737L73.1314 6.60579C73.141 6.59071 73.1466 6.57342 73.1477 6.55557C73.1487 6.53772 73.1452 6.51988 73.1375 6.50375C73.1298 6.48762 73.1181 6.47373 73.1035 6.46339C73.0889 6.45304 73.0719 6.44658 73.0541 6.44462L73.0427 6.44402H72.1701C72.1169 6.44401 72.0657 6.46416 72.0267 6.50041C71.9878 6.53666 71.964 6.58632 71.9602 6.63938L71.9597 6.65433V10.9458C71.9597 11 71.9187 11.0447 71.866 11.0504L71.8545 11.051H71.2207C71.1664 11.051 71.1218 11.0099 71.1161 10.9573L71.1155 10.9458V6.01673C71.1155 5.90875 71.157 5.80491 71.2315 5.72668C71.3059 5.64844 71.4075 5.60181 71.5154 5.59641L71.5363 5.59592H72.9856C73.0035 5.59592 73.0211 5.59138 73.0367 5.58272C73.0523 5.57406 73.0655 5.56156 73.075 5.5464C73.0844 5.53125 73.0899 5.51393 73.0908 5.49609C73.0917 5.47825 73.0881 5.46046 73.0802 5.44441L73.0743 5.43375L72.5187 4.56909C72.5104 4.55617 72.4993 4.54523 72.4863 4.53703C72.4733 4.52883 72.4587 4.52358 72.4434 4.52165L72.4302 4.52075H70.9188C70.8646 4.52075 70.82 4.47968 70.8142 4.42706L70.8136 4.4155V3.76264C70.8136 3.70832 70.8546 3.66367 70.9073 3.65799L70.9188 3.65729H74.3647C74.419 3.65729 74.4637 3.61632 74.4694 3.5636L74.47 3.55214V2.89629C74.47 2.84217 74.511 2.79752 74.5637 2.79174L74.5752 2.79114H75.1927ZM82.5213 2.94902C82.5737 2.94902 82.6182 2.98759 82.6254 3.03952L82.7125 3.65918C82.7197 3.71111 82.7643 3.74979 82.8167 3.74979H84.1109C84.169 3.74979 84.216 3.79693 84.216 3.85504V4.39785C84.216 4.45596 84.169 4.50311 84.1109 4.50311H82.6784C82.6382 4.50311 82.6016 4.52603 82.5839 4.56211L82.3352 5.07044C82.3274 5.08649 82.3237 5.10426 82.3246 5.1221C82.3255 5.13993 82.331 5.15724 82.3404 5.17239C82.3499 5.18754 82.363 5.20004 82.3787 5.20871C82.3943 5.21738 82.4118 5.22193 82.4297 5.22194H84.1109C84.169 5.22194 84.216 5.26899 84.216 5.3271V5.9647C84.216 6.02281 84.169 6.06986 84.1109 6.06986H83.1281C83.0699 6.06986 83.0228 6.117 83.0228 6.17511V6.8154C83.0228 6.87351 83.0699 6.92056 83.128 6.92056H84.1108C84.169 6.92056 84.216 6.9677 84.216 7.02581V7.60092C84.216 7.65903 84.169 7.70607 84.1109 7.70607H83.1281C83.0699 7.70607 83.0228 7.75322 83.0228 7.81133V9.80557C83.0228 9.84703 83.031 9.88807 83.0469 9.92637C83.0627 9.96467 83.086 9.99946 83.1153 10.0288C83.1446 10.0581 83.1794 10.0813 83.2177 10.0972C83.256 10.1131 83.297 10.1212 83.3385 10.1212H84.1109C84.169 10.1212 84.216 10.1683 84.216 10.2264V10.9458C84.216 11.0039 84.169 11.051 84.1109 11.051H82.7346C82.6655 11.051 82.5971 11.0374 82.5332 11.011C82.4694 10.9845 82.4114 10.9458 82.3625 10.8969C82.3137 10.8481 82.2749 10.7901 82.2485 10.7263C82.222 10.6624 82.2084 10.594 82.2084 10.5249V7.81133C82.2084 7.75322 82.1614 7.70607 82.1033 7.70607H81.4626C81.4347 7.70607 81.4079 7.695 81.3882 7.67528C81.3684 7.65557 81.3573 7.62882 81.3573 7.60092V7.02581C81.3573 6.9677 81.4045 6.92056 81.4626 6.92056H82.1033C82.1614 6.92056 82.2084 6.87351 82.2084 6.8154V6.17511C82.2084 6.117 82.1614 6.06986 82.1033 6.06986H81.4626C81.4347 6.06986 81.4079 6.05878 81.3882 6.03906C81.3684 6.01935 81.3573 5.9926 81.3573 5.9647V5.88138C81.3573 5.86041 81.349 5.84031 81.3342 5.82549C81.3193 5.81066 81.2992 5.80234 81.2783 5.80234H81.2616C81.2232 5.80234 81.1879 5.7814 81.1693 5.74761L81.0515 5.53233C81.0421 5.51514 81.0377 5.49567 81.0387 5.4761C81.0398 5.45654 81.0463 5.43766 81.0575 5.42159C81.3609 4.98622 81.5619 4.61474 81.6605 4.30715C81.7571 4.00594 81.8126 3.58732 81.8273 3.05128C81.828 3.02391 81.8395 2.99791 81.8591 2.97882C81.8787 2.95972 81.905 2.94903 81.9324 2.94902H82.5213ZM88.7293 3.3492C88.813 3.3492 88.8933 3.38246 88.9525 3.44166C89.0117 3.50085 89.0449 3.58114 89.0449 3.66486V7.03847C89.0449 7.10756 89.0313 7.17598 89.0049 7.23982C88.9785 7.30366 88.9397 7.36166 88.8909 7.41052C88.842 7.45938 88.784 7.49814 88.7202 7.52458C88.6564 7.55103 88.588 7.56464 88.5189 7.56464H87.1561C87.1392 7.56465 87.1226 7.56872 87.1076 7.57651C87.0926 7.58431 87.0797 7.5956 87.07 7.60944C87.0603 7.62327 87.0541 7.63924 87.0518 7.65599C87.0496 7.67274 87.0514 7.68978 87.0572 7.70568C87.1457 7.95017 87.2215 8.13427 87.2848 8.25816C87.3508 8.38733 87.4574 8.55618 87.6048 8.76479C87.6128 8.77619 87.623 8.78587 87.6349 8.79328C87.6467 8.80069 87.6599 8.80568 87.6736 8.80795C87.6874 8.81022 87.7015 8.80974 87.715 8.80652C87.7286 8.8033 87.7414 8.79742 87.7527 8.78921L88.6328 8.14832C88.6443 8.13999 88.6573 8.13406 88.6711 8.13089C88.6849 8.12772 88.6992 8.12737 88.7132 8.12986C88.7271 8.13236 88.7404 8.13764 88.7523 8.14541C88.7642 8.15317 88.7743 8.16324 88.7822 8.17503L89.1334 8.7016C89.1486 8.72435 89.1543 8.7521 89.1493 8.77898C89.1444 8.80586 89.1292 8.82976 89.1069 8.84563L88.297 9.42313C88.2835 9.43277 88.2724 9.44547 88.2648 9.46019C88.2571 9.47492 88.253 9.49124 88.2528 9.50785C88.2527 9.52445 88.2565 9.54085 88.2639 9.55571C88.2713 9.57057 88.2821 9.58348 88.2954 9.59337C88.4381 9.69898 88.58 9.80554 88.7213 9.91302C88.8676 10.0245 89.0901 10.1602 89.3886 10.3203C89.4015 10.3272 89.4128 10.3367 89.4217 10.3482C89.4307 10.3597 89.4372 10.373 89.4408 10.3871C89.4444 10.4013 89.445 10.416 89.4426 10.4304C89.4402 10.4448 89.4348 10.4586 89.4268 10.4708L89.0981 10.9703C89.068 11.0162 89.0078 11.0311 88.9596 11.0048C88.159 10.5671 87.5479 10.1016 87.1263 9.60852C86.7027 9.11315 86.3692 8.45691 86.1256 7.63979C86.1192 7.61808 86.1058 7.59903 86.0877 7.58549C86.0695 7.57195 86.0474 7.56464 86.0248 7.56464H85.6384C85.5803 7.56464 85.5332 7.61169 85.5332 7.6698V9.8574C85.5332 9.94112 85.5664 10.0214 85.6256 10.0806C85.6848 10.1398 85.7651 10.1731 85.8488 10.1731H86.8074C86.8655 10.1731 86.9126 10.2202 86.9126 10.2783V10.9458C86.9126 11.0039 86.8655 11.051 86.8074 11.051H85.2884C85.1489 11.051 85.0151 10.9956 84.9164 10.8969C84.8177 10.7982 84.7623 10.6644 84.7623 10.5249V3.45436C84.7623 3.39625 84.8095 3.3491 84.8676 3.3491H88.7293V3.3492ZM93.703 5.80244L94.2418 6.13155C94.2913 6.16185 94.307 6.22634 94.2769 6.27598C94.1693 6.4536 94.0803 6.59413 94.01 6.69739C93.9283 6.8175 93.7972 6.98505 93.6169 7.20014V10.9458C93.6169 11.0039 93.5697 11.051 93.5116 11.051H92.8751C92.8472 11.051 92.8205 11.0399 92.8007 11.0202C92.781 11.0005 92.7699 10.9737 92.7699 10.9458V10.9456L92.7733 8.17912C92.6172 8.3381 92.4841 8.46677 92.3739 8.56515C92.2782 8.65047 92.1411 8.76519 91.9627 8.90952C91.941 8.92706 91.9132 8.93525 91.8855 8.9323C91.8577 8.92934 91.8323 8.91549 91.8147 8.89377L91.8129 8.89148L91.4171 8.37288C91.4009 8.35166 91.3934 8.32509 91.3961 8.29853C91.3988 8.27198 91.4114 8.24743 91.4315 8.22985C91.9033 7.81721 92.269 7.47394 92.5287 7.20014C92.7904 6.92405 93.1345 6.46854 93.5608 5.83363C93.5923 5.78679 93.655 5.77303 93.703 5.80244ZM99.8948 5.69718C99.9491 5.69718 99.9937 5.73825 99.9994 5.79087L100 5.80234V6.55915C100 6.61337 99.9589 6.65802 99.9063 6.6638L99.8948 6.6644H98.7384V10.2092C98.7383 10.4281 98.6531 10.6384 98.5007 10.7954C98.3482 10.9525 98.1406 11.044 97.9218 11.0506L97.8966 11.051H96.0687C96.0145 11.051 95.9699 11.0099 95.9641 10.9573L95.9635 10.9458V10.262C95.9635 10.2076 96.0045 10.163 96.0573 10.1573L96.0687 10.1567H97.417C97.525 10.1567 97.6288 10.1152 97.7071 10.0408C97.7853 9.96633 97.8319 9.86468 97.8373 9.75683L97.8378 9.7359V6.6644H94.9092C94.8549 6.6644 94.8103 6.62334 94.8046 6.57061L94.804 6.55915V5.80234C94.804 5.74811 94.8451 5.70346 94.8977 5.69778L94.9092 5.69718H99.8948ZM61.1346 8.39352L61.1401 8.39551L61.7158 8.62107C61.7668 8.641 61.7939 8.69682 61.7782 8.74924L61.1169 10.9525C61.1004 11.0073 61.0432 11.0389 60.9881 11.0237L60.3332 10.8435C60.3195 10.8397 60.3067 10.8331 60.2955 10.8243C60.2844 10.8154 60.2752 10.8043 60.2684 10.7917C60.2617 10.7792 60.2576 10.7654 60.2563 10.7512C60.2551 10.737 60.2567 10.7226 60.2612 10.7091L61.0018 8.4605C61.02 8.40538 61.0795 8.37538 61.1346 8.39352ZM63.6784 3.05417C63.7327 3.05417 63.7773 3.09524 63.7831 3.14787L63.7837 3.15943V4.36257C63.7837 4.41679 63.8247 4.46145 63.8774 4.46723L63.8889 4.46782H64.2993C64.3535 4.46782 64.3982 4.50889 64.404 4.56152L64.4046 4.57308V5.19603C64.4046 5.25035 64.3635 5.29501 64.3109 5.30069L64.2993 5.30128H63.8889C63.8346 5.30128 63.79 5.34235 63.7842 5.39497L63.7837 5.40654V6.56044C63.7837 6.57875 63.7885 6.59672 63.7976 6.61261C63.8067 6.62849 63.8198 6.64173 63.8355 6.65102C63.8513 6.66031 63.8692 6.66533 63.8875 6.66557C63.9058 6.66582 63.9239 6.6613 63.9399 6.65244L63.9503 6.64586L64.2379 6.43904C64.2528 6.42831 64.2703 6.42168 64.2886 6.41981C64.3069 6.41794 64.3254 6.4209 64.3422 6.42839C64.359 6.43588 64.3735 6.44764 64.3844 6.46251C64.3952 6.47737 64.402 6.49481 64.404 6.5131L64.4046 6.52456V7.21599C64.4046 7.24529 64.3924 7.273 64.3713 7.29274L64.3617 7.30071L63.8265 7.69422C63.8149 7.70276 63.8052 7.71359 63.7979 7.72603C63.7907 7.73848 63.7861 7.75228 63.7844 7.76658L63.7837 7.77904V10.4724C63.7837 10.6082 63.7312 10.7387 63.6372 10.8367C63.5432 10.9346 63.4149 10.9925 63.2793 10.998L63.2575 10.9985H62.2514C62.1972 10.9985 62.1526 10.9575 62.1468 10.9048L62.1463 10.8933V10.2843C62.1463 10.2301 62.1873 10.1854 62.24 10.1797L62.2514 10.1791H62.6421C62.7227 10.1791 62.8002 10.1483 62.8588 10.093C62.9174 10.0376 62.9526 9.96191 62.9572 9.88142L62.9577 9.86348V8.38644C62.9577 8.36736 62.9525 8.34864 62.9427 8.33229C62.9329 8.31593 62.9188 8.30255 62.9019 8.29358C62.8851 8.28461 62.8661 8.2804 62.8471 8.28137C62.828 8.28235 62.8096 8.28848 62.7938 8.29912L62.784 8.3066L62.4706 8.57532C62.4598 8.5846 62.4472 8.59158 62.4336 8.59584C62.42 8.6001 62.4056 8.60156 62.3915 8.60012C62.3773 8.59867 62.3635 8.59436 62.3511 8.58744C62.3386 8.58052 62.3277 8.57114 62.3189 8.55987L62.3119 8.5497L61.997 8.02612C61.985 8.00625 61.98 7.983 61.9826 7.95996C61.9853 7.93693 61.9954 7.91541 62.0115 7.89874L62.0211 7.88997L62.9186 7.16535C62.9398 7.14821 62.9534 7.12359 62.9568 7.09688L62.9577 7.08343V5.40654C62.9577 5.35231 62.9167 5.30766 62.8639 5.30188L62.8525 5.30128H62.2514C62.1972 5.30128 62.1526 5.26022 62.1468 5.20759L62.1463 5.19613V4.57308C62.1463 4.51886 62.1873 4.4742 62.24 4.46842L62.2514 4.46782H62.8525C62.9067 4.46782 62.9513 4.42676 62.9571 4.37413L62.9577 4.36257V3.15943C62.9577 3.10521 62.9987 3.06055 63.0514 3.05477L63.0629 3.05417H63.6784ZM75.977 8.31108H73.8723C73.8142 8.31108 73.7671 8.35823 73.7671 8.41634V9.39821C73.7671 9.45632 73.8142 9.50347 73.8723 9.50347H75.9769C76.035 9.50347 76.0822 9.45632 76.0822 9.39821V8.41634C76.0822 8.35823 76.035 8.31108 75.9769 8.31108H75.977ZM75.4965 6.47064H74.1812C74.1487 6.47064 74.1182 6.48559 74.0985 6.51091L74.0915 6.52087L73.5496 7.40487C73.5404 7.41998 73.5351 7.43719 73.5343 7.45488C73.5335 7.47257 73.5371 7.49019 73.5449 7.50609C73.5527 7.52199 73.5644 7.53567 73.5789 7.54585C73.5934 7.55604 73.6102 7.56239 73.6278 7.56434L73.6393 7.56504H76.1387C76.157 7.56502 76.175 7.5602 76.191 7.55106C76.2069 7.54192 76.2201 7.52879 76.2294 7.51295C76.2386 7.49712 76.2436 7.47913 76.2438 7.46079C76.244 7.44244 76.2393 7.42436 76.2304 7.40835L76.2238 7.39799L75.5816 6.5139C75.5718 6.50049 75.559 6.48958 75.5442 6.48206C75.5294 6.47454 75.5131 6.47063 75.4965 6.47064ZM60.8976 5.66579L60.9054 5.67535L61.745 6.83953C61.76 6.86032 61.7669 6.88587 61.7644 6.91138C61.7618 6.93689 61.7501 6.9606 61.7314 6.97807L61.7219 6.98594L61.1753 7.38693C61.1546 7.40212 61.129 7.40921 61.1035 7.40688C61.0779 7.40455 61.0541 7.39295 61.0364 7.37427L61.0286 7.3649L60.1936 6.24179C60.1788 6.22183 60.1715 6.19728 60.1731 6.17247C60.1746 6.14766 60.1849 6.12419 60.2021 6.10624L60.2115 6.09747L60.7535 5.65532C60.7743 5.63834 60.8008 5.62997 60.8276 5.63191C60.8544 5.63386 60.8794 5.64598 60.8976 5.66579ZM88.0762 5.79227H85.6261C85.568 5.79227 85.5208 5.83932 85.5208 5.89742V6.70337C85.5208 6.76148 85.568 6.80853 85.6261 6.80853H88.0762C88.1039 6.80854 88.1312 6.80311 88.1568 6.79254C88.1823 6.78197 88.2055 6.76647 88.2251 6.74693C88.2446 6.7274 88.2601 6.7042 88.2707 6.67866C88.2813 6.65313 88.2867 6.62576 88.2867 6.59812V6.00268C88.2867 5.97504 88.2813 5.94767 88.2707 5.92214C88.2601 5.8966 88.2446 5.8734 88.2251 5.85386C88.2055 5.83432 88.1823 5.81883 88.1568 5.80826C88.1312 5.79769 88.1039 5.79226 88.0762 5.79227ZM93.4582 3.14557C93.4598 3.14637 93.4615 3.14727 93.4631 3.14826L94.0925 3.50798C94.1424 3.53649 94.1602 3.59958 94.1326 3.64991C93.7549 4.33905 93.4486 4.84299 93.2132 5.16144C92.978 5.4799 92.6114 5.88726 92.1133 6.38372C92.0951 6.40189 92.0709 6.41276 92.0452 6.41428C92.0196 6.41581 91.9942 6.40788 91.974 6.392L91.45 5.98005C91.4384 5.9709 91.4288 5.95939 91.4219 5.94629C91.415 5.93318 91.411 5.91877 91.41 5.90399C91.4091 5.88921 91.4113 5.8744 91.4164 5.86052C91.4216 5.84665 91.4297 5.83402 91.4401 5.82347C91.8986 5.3584 92.2431 4.96828 92.4734 4.65332C92.7057 4.33536 92.9869 3.84836 93.3169 3.19232C93.343 3.14039 93.4063 3.11946 93.4582 3.14557ZM76.1965 4.5039H73.6916C73.6739 4.50391 73.6565 4.50837 73.641 4.51688C73.6255 4.5254 73.6124 4.53768 73.6029 4.5526C73.5934 4.56753 73.5878 4.5846 73.5866 4.60226C73.5855 4.61991 73.5888 4.63758 73.5962 4.65361L73.6021 4.66448L74.1413 5.53661C74.1583 5.56412 74.187 5.58216 74.2187 5.58575L74.2307 5.58645H75.6632C75.6958 5.58645 75.7263 5.5715 75.7462 5.54608L75.7531 5.53611L76.2862 4.66398C76.2959 4.64803 76.3012 4.62978 76.3016 4.61111C76.3019 4.59243 76.2973 4.574 76.2882 4.5577C76.279 4.54141 76.2657 4.52784 76.2496 4.51838C76.2335 4.50893 76.2152 4.50393 76.1965 4.5039ZM88.0762 4.14509H85.6261C85.568 4.14509 85.5208 4.19223 85.5208 4.25034V5.05619C85.5208 5.1143 85.568 5.16144 85.6261 5.16144H88.0762C88.1039 5.16146 88.1312 5.15602 88.1568 5.14546C88.1823 5.13489 88.2055 5.11939 88.2251 5.09985C88.2446 5.08031 88.2601 5.05711 88.2707 5.03158C88.2813 5.00604 88.2867 4.97868 88.2867 4.95104V4.35559C88.2867 4.32795 88.2813 4.30056 88.2707 4.27502C88.2602 4.24947 88.2446 4.22626 88.2251 4.20671C88.2055 4.18716 88.1823 4.17166 88.1568 4.16108C88.1312 4.15051 88.1039 4.14507 88.0762 4.14509ZM60.8977 3.32917L60.9055 3.33874L61.7451 4.50291C61.7601 4.52371 61.767 4.54928 61.7645 4.57481C61.762 4.60034 61.7502 4.62408 61.7315 4.64155L61.722 4.64933L61.1754 5.05031C61.1547 5.0655 61.1291 5.0726 61.1036 5.07026C61.078 5.06793 61.0542 5.05633 61.0365 5.03765L61.0287 5.02828L60.1937 3.90527C60.1789 3.88531 60.1716 3.86073 60.1731 3.8359C60.1747 3.81106 60.185 3.78758 60.2022 3.76962L60.2117 3.76095L60.7536 3.3188C60.7744 3.30181 60.8009 3.29342 60.8277 3.29535C60.8545 3.29727 60.8795 3.30937 60.8977 3.32917ZM99.6442 3.58034C99.7023 3.58034 99.7493 3.62739 99.7493 3.6855V4.42208C99.7493 4.48018 99.7023 4.52733 99.6442 4.52733H94.9092C94.8813 4.52733 94.8546 4.51624 94.8348 4.4965C94.8151 4.47676 94.804 4.44999 94.804 4.42208V3.6855C94.804 3.62739 94.8511 3.58034 94.9092 3.58034H99.6442Z" fill="black"/>
</svg>
