<svg width="100" height="18" viewBox="0 0 100 18" fill="none" xmlns="http://www.w3.org/2000/svg">
<path d="M56.9547 9.97249C56.9547 9.97249 56.2959 10.4673 55.4723 10.9623C55.1429 10.4673 55.0605 9.97249 54.9781 9.72502H57.3665V4.11637H51.6838V13.4367C51.6838 13.4367 52.0132 13.6843 52.3426 14.0967C53.0015 13.9317 53.9898 13.8492 54.2368 13.8492V12.5295C53.8251 12.5295 53.1662 12.612 53.0014 12.612V9.64272H53.3309C53.4957 10.8799 55.1428 13.3544 56.7076 14.1792L57.7783 13.107C56.8723 12.5295 56.2958 12.0346 56.2135 11.8696C56.6816 11.5417 57.1483 11.2118 57.6135 10.8799L56.9548 9.97259L56.9547 9.97249ZM53.0838 7.58053H55.9664V8.48784H53.0838V7.58053ZM55.9664 6.42575H53.0838V5.51844H55.9664V6.42575ZM48.06 3.95129C48.06 3.95129 47.9777 5.76591 46.907 7.66302L47.7306 8.81771H48.3894V9.72502H47.0717V11.1273H48.3894V13.5192L49.0483 14.1791C49.3777 14.0966 50.366 13.9316 51.1896 13.9316V12.6944C50.5308 12.6944 49.8719 12.7769 49.7895 12.7769V11.0448H51.2719V9.64252H49.7895V8.73522H51.025V7.33306H48.6365C48.7189 7.08558 48.8836 6.75571 48.9659 6.50814H51.2719V5.10598H49.2954C49.4601 4.44624 49.4601 3.95129 49.4601 3.95129H48.06ZM30.0235 3.95129C30.0235 3.95129 30.2706 4.61113 30.3529 5.18847H25.9879V9.89C25.9879 10.8798 25.8232 12.3644 24.5879 13.6842L25.7409 14.5915C27.5528 12.5294 27.4704 10.1375 27.4704 9.14767V6.59073H35.2944V5.18847H31.9178C31.8355 4.44615 31.6708 3.95129 31.6708 3.95129H30.0236H30.0235ZM44.8481 8.98269L44.0244 8.07538H39.8242C39.9065 7.82791 40.0713 7.41555 40.1536 7.25056H46.0011V5.8484H44.9304C44.6833 4.8586 44.7657 5.02349 44.3539 3.95129H42.7891C42.7891 3.95129 43.2009 5.10598 43.3656 5.8484H40.4007C40.6477 4.8586 40.6477 3.95129 40.6477 3.95129H39.2476C39.2476 3.95129 39.2476 4.8586 39.0005 5.8484H37.6004C37.9299 4.69362 37.9299 3.95129 37.9299 3.95129H36.5298C36.5298 3.95129 36.5298 4.85861 36.0356 6.34326L36.7769 7.25056H38.6711C38.2594 8.40535 37.3535 10.3849 35.3768 12.282L36.3651 13.2718C37.6828 12.0345 38.4241 10.8798 39.0005 9.89C39.2476 10.3025 40.3184 11.4571 40.483 11.6221C39.4124 12.282 38.3417 12.6119 37.1064 12.7769L37.6828 14.1791C39.33 13.8491 40.6477 13.2718 41.6361 12.6119C42.7067 13.4367 44.1068 13.8491 45.6716 14.1791L46.1658 12.7769C44.8481 12.6119 43.6949 12.282 42.7891 11.7046C43.695 10.8797 44.5186 9.97249 44.8481 8.98269ZM43.17 9.27141C42.9229 9.76626 41.9655 10.7973 41.6361 11.0448C41.2243 10.7148 40.4007 9.76636 40.1536 9.27141H43.17ZM62.0609 3.95129H60.6608C60.5784 5.18847 59.2607 6.50814 58.6842 6.83811L59.343 8.07538C60.5784 7.49804 61.9785 5.27096 62.0609 3.95129ZM61.3197 6.67322C61.0726 8.15787 59.3431 9.72502 58.4372 10.1375L59.0136 11.4571C59.5078 11.2097 59.9197 10.7973 60.2491 10.5498V14.2616H61.6492V9.23007C62.1433 8.57014 62.5551 7.66293 62.7198 6.67312H61.3197V6.67322ZM63.3786 4.28116H68.8143V5.76581H63.3786V4.28116ZM62.9669 7.49804V8.9002H66.5906V12.7769C66.5906 12.7769 65.2729 12.6119 64.2846 12.6944V14.0141C65.6023 14.0141 68.0731 14.2616 68.0731 14.2616V8.98269H69.1438V7.49804H62.9669Z" fill="black"/>
<path d="M71.072 4.15076H72.0695V14.3919H71.072V4.15076Z" fill="#C62D36"/>
<path d="M78.4416 14.3255C79.765 14.3255 80.9984 13.9036 81.8063 13.0182L81.0958 12.252C80.4412 12.9258 79.4725 13.2553 78.4974 13.2553C76.5472 13.2553 75.3213 11.7226 75.3213 9.27827C75.3213 6.86021 76.603 5.35406 78.5392 5.35406C79.4168 5.35406 80.3501 5.8191 80.8794 6.36076L81.5759 5.5681C80.9909 4.94697 79.765 4.28381 78.5253 4.28381C75.9343 4.28381 73.998 6.1864 73.998 9.31785C73.998 12.4625 75.9064 14.3255 78.4416 14.3255ZM87.5971 14.3255C89.0319 14.3255 90.2058 13.8498 90.8868 13.2025V9.13284H87.4087V10.1503H89.655V12.6871C89.2347 13.0439 88.4956 13.2553 87.7276 13.2553C85.4522 13.2553 84.1914 11.7226 84.1914 9.27827C84.1914 6.86021 85.5827 5.35406 87.713 5.35406C88.7999 5.35406 89.4811 5.76358 90.0173 6.27896L90.7419 5.4862L90.6671 5.41485C90.0548 4.84395 89.1032 4.28381 87.6841 4.28381C84.8727 4.28381 82.8148 6.1864 82.8148 9.31785C82.8148 12.4625 84.8001 14.3255 87.5971 14.3255ZM93.1074 14.1538H96.1914C98.3527 14.1538 100 13.2553 100 11.3526C100 10.0313 99.183 9.26498 98.0232 9.04037V8.9743C98.9326 8.68362 99.4466 7.83799 99.4466 6.8735C99.4466 5.1878 97.9739 4.4834 96.045 4.46903L93.1074 4.46874V14.1537V14.1538ZM94.3331 8.59117V5.92876H95.8223C97.3248 5.92876 98.2472 6.22608 98.2472 7.36239C98.2472 8.34007 97.4301 8.59117 95.7696 8.59117H94.3331ZM94.3331 13.0182V9.85962H96.0201C97.7069 9.85962 98.5478 10.5367 98.5478 11.4313C98.5478 12.6872 97.6805 13.0182 96.0201 13.0182H94.3331Z" fill="black"/>
<path d="M7.19602 11.8443C4.68413 11.9949 2.23138 12.3687 0 12.9747C3.18726 9.51005 5.82533 4.97048 7.21703 0.492188H7.22201C7.82721 2.71183 8.72895 5.04075 9.85021 7.28337C9.06039 8.85698 8.17396 10.3802 7.19602 11.8443Z" fill="#BD0016"/>
<path d="M12.5025 11.8553C13.9031 13.9565 15.4722 15.8902 17.1304 17.5079C12.5125 16.4732 7.23925 16.4484 2.61924 17.4859L2.61523 17.4789L2.69245 17.4032L2.76849 17.3265L2.84472 17.2496L2.92086 17.1729L2.997 17.0941L3.07314 17.0134L3.1483 16.9357L3.22444 16.8559L3.30058 16.7762L3.37574 16.6964L3.44983 16.6168L3.52508 16.533L3.60015 16.4533L3.67531 16.3706L3.75047 16.2868L3.82563 16.2051L3.90069 16.1224L3.9739 16.0377L4.04701 15.9549L4.12012 15.8712L4.19332 15.7865L4.26741 15.7008L4.34267 15.616L4.4147 15.5313C5.41207 14.3565 6.34045 13.1248 7.19517 11.8424C8.96284 11.7381 10.7353 11.7425 12.5024 11.8554L12.5025 11.8553Z" fill="#730000"/>
<path d="M9.8501 7.28444C10.9723 5.04173 11.8691 2.71692 12.4542 0.492188C13.888 4.98944 16.5211 9.55892 19.7484 12.9977L19.7444 13.0045C17.5 12.4025 15.0312 12.0169 12.5023 11.8544C11.5243 10.3876 10.6385 8.8613 9.8501 7.28444Z" fill="#E5001F"/>
<path d="M19.7455 13.0047L17.1313 17.5068C15.4732 15.8892 13.9041 13.9555 12.5034 11.8544C15.0313 12.0169 17.5011 12.4027 19.7455 13.0047Z" fill="#BD0016"/>
<path d="M2.6151 17.4788L0 12.9756C2.23138 12.3686 4.68413 11.9938 7.19602 11.8423C5.80422 13.9255 4.24919 15.8521 2.615 17.4788H2.6151Z" fill="#E5001F"/>
<path d="M12.4542 0.493164C11.8692 2.71789 10.9724 5.04173 9.84919 7.28337C8.72803 5.04075 7.82629 2.71291 7.22314 0.493164H12.4542Z" fill="#730000"/>
</svg>
