<svg width="100" height="25" viewBox="0 0 100 25" fill="none" xmlns="http://www.w3.org/2000/svg">
<path d="M11.4472 23.8639C9.01597 25.2022 6.82883 23.6206 4.76228 21.6739C3.30348 20.3356 1.23702 18.5107 0.50762 16.6857C-1.43746 12.9141 3.91131 8.17016 7.67981 7.68359V16.6867H16.6744V16.8083C16.6744 17.1724 15.945 21.3089 11.4472 23.8639Z" fill="#1984BF"/>
<path d="M7.67432 16.713C7.67432 17.0779 8.40372 21.2144 12.9014 23.7695C15.3327 25.1077 17.5198 23.5262 19.5864 21.5795C21.0452 20.2412 23.1117 18.4162 23.841 16.5914C25.7861 12.8197 20.2478 8.07577 16.4794 7.58911V16.5922H7.67432V16.7139V16.7129V16.713Z" fill="#1984BF"/>
<path d="M16.6738 7.57398C16.6738 7.2083 15.9453 3.06505 11.4529 0.505984C9.02472 -0.834479 6.8412 0.749704 4.77709 2.69947C3.32023 3.91807 1.13475 5.86784 0.406226 7.57388C-1.53641 11.3516 3.91752 16.1032 7.68143 16.5907V7.57398L16.6747 7.573L16.6737 7.57398H16.6738Z" fill="#AA2F82"/>
<path d="M7.48462 7.75115C7.48462 7.38616 8.40306 3.06939 12.901 0.514422C15.3321 -0.823894 17.3301 0.653761 19.3968 2.6004C20.8556 3.93872 22.922 5.7636 23.6514 7.58857C25.5964 11.3602 20.2476 16.1042 16.4792 16.5907V7.75027H7.48462V7.75125V7.75115Z" fill="#AA2F82"/>
<path d="M1.00601 12.1844C2.453 14.4714 5.39132 16.3498 7.68147 16.5905V7.77832C5.39044 8.01911 2.45202 9.8975 1.00513 12.1844H1.0061H1.00601Z" fill="#1B2C79"/>
<path d="M16.4853 7.7775C16.4853 7.41046 16.005 3.65593 12.1945 0.96582C8.3839 3.53455 7.67432 7.41144 7.67432 7.77848H16.4853V7.7775Z" fill="#86167B"/>
<path d="M16.4851 7.77832V16.5905C18.6966 16.3266 21.7808 14.43 23.2509 11.9444C21.8038 9.65759 18.7761 8.01911 16.4851 7.77832Z" fill="#1B2C79"/>
<path d="M16.4853 16.5906C16.4853 16.9576 16.0579 20.6704 12.2473 23.3614C8.43672 20.6704 7.67432 16.9589 7.67432 16.5919L16.4853 16.5906Z" fill="#0D579F"/>
<path d="M38.0445 22.9373C37.2116 23.1327 36.4925 23.2304 35.8872 23.2304C34.7397 23.2304 33.8582 22.957 33.2423 22.41C32.6267 21.8631 32.3188 21.0793 32.3188 20.0588C32.3188 19.0462 32.6267 18.2673 33.2423 17.7216C33.8581 17.1761 34.7352 16.9034 35.8738 16.9034C36.6019 16.9034 37.3239 16.9806 38.04 17.1354V18.1167C37.21 17.8587 36.5284 17.7298 35.9951 17.7298C35.2911 17.7298 34.7472 17.9334 34.3637 18.3405C33.9801 18.7477 33.7884 19.3245 33.7884 20.071C33.7884 20.7929 33.9937 21.3596 34.4041 21.7708C34.8146 22.182 35.3809 22.3877 36.103 22.3877C36.2618 22.3877 36.4475 22.3673 36.6603 22.3265V20.3439H38.0445V22.9373ZM40.3935 17.0504H41.7166V20.4511C41.7166 21.035 41.8183 21.4566 42.0216 21.7161C42.2249 21.9754 42.5528 22.1051 43.0054 22.1051C43.4378 22.1051 43.7507 21.9815 43.944 21.7343C44.1373 21.4873 44.234 21.0894 44.234 20.5407V17.0504H45.3852V20.7536C45.3852 21.3103 45.3293 21.7346 45.2176 22.0266C45.106 22.3185 44.9026 22.5718 44.6076 22.7864C44.2039 23.0824 43.6612 23.2304 42.9796 23.2304C42.2492 23.2304 41.6622 23.0729 41.2183 22.7578C40.9119 22.5406 40.6979 22.2833 40.5761 21.9859C40.4544 21.6885 40.3935 21.2736 40.3935 20.7413V17.0504ZM47.7342 23.0833V17.0504H49.0555V23.0833H47.7342ZM51.111 23.0833V17.0504H52.4559V22.2272H55.3686V23.0833H51.111ZM56.9835 23.0833V17.0504H58.3048V23.0833H56.9836H56.9835ZM72.5458 23.0833V17.0504H75.0098C75.7381 17.0504 75.9911 17.0789 76.3716 17.3072C76.752 17.5355 76.9422 17.8684 76.9422 18.3058C76.9422 19.0314 76.664 19.6307 75.5045 19.9323C76.8598 20.2068 77.5375 20.7598 77.5375 21.5914C77.5375 22.0724 77.3391 22.4413 76.9422 22.6981C76.5455 22.9549 75.9765 23.0833 75.2351 23.0833H72.5458ZM73.7203 19.2576H74.1418C74.6421 19.2576 75.0395 19.1816 75.334 19.0296C75.6284 18.8776 75.7757 18.6709 75.7757 18.4096C75.7757 18.1674 75.6573 18.0028 75.4206 17.9162C75.1839 17.8295 74.7365 17.7862 74.0782 17.7862H73.7203V19.2576ZM73.7203 22.2004H74.0774C74.7773 22.2004 75.2597 22.1469 75.5248 22.0398C75.7899 21.9327 75.9225 21.7371 75.9225 21.4531C75.9225 21.1614 75.7448 20.9187 75.3895 20.7252C75.0343 20.5316 74.5861 20.4347 74.0449 20.4347H73.7203V22.2004ZM78.5652 23.0833L81.2295 17.0504H82.6542L85.3186 23.0833H83.8568L83.1919 21.6314H80.5017L79.8553 23.0833H78.5652ZM80.894 20.7291H82.8228L81.8583 18.293L80.894 20.729V20.7291ZM86.3463 23.0833V17.0504H87.7965L91.1647 21.1715V17.0504H92.5124V23.0833H91.0409L87.6941 19.1094V23.0833H86.3463ZM59.9198 23.0833V17.0504H61.37L64.7382 21.1715V17.0504H66.086V23.0833H64.6144L61.2676 19.1094V23.0833H59.9198ZM94.2742 23.0833V17.0504H95.6388V19.6354L97.9111 17.0504H99.4283L97.0634 19.7571L100 23.0833H98.2251L95.6388 20.1158V23.0833H94.2742ZM88.7382 6.84989V14.3149H86.7201V9.1089C86.2489 9.55562 85.6838 10.0662 85.0246 10.6406V8.17405C85.7637 7.61601 86.3047 7.15103 86.6474 6.7791C86.9902 6.40708 87.3166 5.93096 87.6265 5.35046H89.7626C89.4018 5.91114 89.0602 6.41088 88.7382 6.84989ZM34.441 1.29001H36.2505V3.23275H38.1377V4.77827H36.2505V5.4651L37.8325 7.80251V10.4873L36.2506 8.4745V14.3149H34.4409V9.02375L32.2229 12.1121V9.33114L34.4409 6.01982V4.77827H32.6246V3.23265H34.4409V1.28992L34.441 1.29001ZM52.5615 1.29001H54.3711V3.23275H56.2583V4.77827H54.3711V5.4651L55.953 7.80251V10.4873L54.3711 8.4745V14.3149H52.5615V9.02375L50.3435 12.1121V9.33114L52.5615 6.01982V4.77827H50.7451V3.23265H52.5615V1.28992V1.29001ZM60.0499 1.29001H61.8597V3.23275H64.7226V4.77827H62.3375V5.4651L65.0895 10.4873V13.399L61.8597 8.4745V14.3149H60.0499V8.4745L56.8148 12.9189V10.1975L59.4902 6.01982V4.77827H57.2656V3.23265H60.0499V1.28992V1.29001ZM41.5492 1.29001H43.5209V2.64054H46.4174V4.20129H43.5209V5.89639H46.6775V7.48898H38.461V5.89639H41.5492V4.20129H38.8171V2.64054H41.5492V1.29011V1.29001ZM41.5492 8.10814H43.5209V9.65083H46.4174V11.2116H43.5209V12.7223H47.4919V14.3149H37.443V12.7223H41.5491V11.2116H38.817V9.65083H41.5491V8.10804L41.5492 8.10814ZM71.0545 1.29001L70.497 2.0825H73.2221V3.73406H69.7486L67.978 5.14502V3.05982C68.7982 2.36303 69.2082 1.77306 69.2082 1.29001C69.7489 1.27957 70.3643 1.27957 71.0544 1.29001H71.0545ZM67.978 5.35945H73.2221V6.43979H71.1181V8.10951H73.2221V9.56344H71.1181V12.8604L73.2221 12.2684V13.5217L70.7641 14.3149H69.1389L69.1543 9.56353H67.978V8.10961H69.1543V6.43988H67.978V5.35935V5.35945ZM74.0059 1.29001L81.1728 1.2822L81.8402 1.78917V7.57334H78.5388C78.7497 8.02963 78.9269 8.36455 79.07 8.57791C79.2131 8.79136 79.4055 9.00754 79.6474 9.22637C79.9845 9.04992 80.2262 8.88393 80.3727 8.72828C80.5192 8.57264 80.6293 8.36455 80.7033 8.10394L82.5136 8.29034C82.1087 8.94681 81.787 9.40789 81.5482 9.67358C81.3096 9.93937 81.028 10.1876 80.7033 10.4184C80.9412 10.7313 81.1543 10.9846 81.3426 11.1785C81.531 11.3723 81.8414 11.6201 82.2738 11.922V14.3149C80.6344 12.8984 79.478 11.7817 78.8045 10.9652C78.1312 10.1486 77.4344 9.01799 76.7142 7.57334H75.8275V12.2722L78.5389 11.7244V13.0769L74.0059 14.315V1.28992V1.29001ZM75.5987 2.54074V3.85933H80.1505V2.54074H75.5987ZM75.5987 4.8849V6.20349H80.1505V4.8849H75.5987ZM88.0989 1.08545H90.3334C89.681 2.34506 89.0699 3.26966 88.4999 3.85933C87.93 4.44911 86.9786 5.14121 85.6459 5.93584V3.85933C86.3395 3.32551 86.8389 2.88601 87.1442 2.54074C87.4496 2.19547 87.7678 1.71037 88.0989 1.08545ZM90.7408 1.64759H99.0129V3.20004H90.7408V1.64759ZM90.3334 5.70853H100V7.38528H97.7815V13.6255L97.1651 14.3149H92.5345V12.7303H95.5577V7.38528H90.3334V5.70853Z" fill="#0062AF"/>
</svg>
