<svg width="100" height="27" viewBox="0 0 100 27" fill="none" xmlns="http://www.w3.org/2000/svg">
<path d="M71.0254 25.0697L70.6641 26.2026H69.8437L71.2305 22.0912H72.1582L73.5449 26.2026H72.7246L72.2656 25.0697H71.0254ZM72.1484 24.4545L71.6894 22.8627L71.2305 24.4545H72.1484ZM96.2695 22.0815H97.0898V24.5033C97.0898 25.3237 97.4512 25.6362 97.9102 25.6362C98.4766 25.6362 98.8379 25.2748 98.8379 24.5033V22.0815H99.6582V24.5033C99.6582 25.7338 98.9941 26.3002 98.0664 26.3002C97.1387 26.3002 96.4746 25.7338 96.4746 24.5033V22.0815H96.2695ZM93.291 25.6362C93.9551 25.6362 94.4238 24.9721 94.4238 24.0444C94.4238 23.224 94.0625 22.5502 93.291 22.5502C92.5195 22.5502 92.1582 23.2143 92.1582 24.142C92.1582 24.9135 92.4707 25.6362 93.291 25.6362ZM91.3379 24.142C91.3379 22.9115 92.1582 21.9838 93.291 21.9838C94.5215 21.9838 95.2441 22.9115 95.2441 24.0444C95.2441 25.3822 94.4238 26.2026 93.291 26.2026C92.1582 26.2026 91.3379 25.2748 91.3379 24.142ZM87.1289 21.974H87.9492V23.683H89.6387V21.9838H90.459V26.0951H89.6387V24.2983H87.9492V26.0951H87.1289V21.974ZM83.0762 25.7338L85.2344 22.6479H83.2812V21.9838H86.2598V22.4428L84.209 25.5287H86.3672V26.1928H83.0859V25.7338H83.0762ZM82.1582 23.7807V25.9389C81.9531 26.0463 81.3379 26.144 80.7715 26.144C80.1074 26.144 79.541 25.9389 79.1797 25.5776C78.8184 25.2162 78.6133 24.6498 78.6133 24.0834C78.6133 22.6967 79.541 21.9252 80.8691 21.9252C81.3281 21.9252 81.7969 22.0326 82.002 22.1303L81.8945 22.7455C81.6895 22.6381 81.4355 22.5404 80.9668 22.5404C80.0391 22.5404 79.4824 23.1068 79.4824 24.0346C79.4824 24.9623 80.0488 25.5287 80.9668 25.5287C81.1719 25.5287 81.4258 25.5287 81.5332 25.4213V24.3959H80.7129V23.7807H82.1582ZM66.5039 23.6733H68.1933V21.974H69.0137V26.0854H68.1933V24.2885H66.5039V26.0854H65.6836V22.0717H66.5039V23.6733ZM60.6543 22.0815H63.0664V22.6479H61.4746V23.7807H62.959V24.3471H61.4746V26.0463H60.6543V26.2026V22.0815ZM57.7344 25.6362C58.3984 25.6362 58.8672 24.9721 58.8672 24.0444C58.8672 23.224 58.5059 22.5502 57.7344 22.5502C56.9629 22.5502 56.6016 23.2143 56.6016 24.142C56.5527 24.9135 57.0117 25.6362 57.7344 25.6362ZM55.7812 24.142C55.7812 22.9115 56.6016 21.9838 57.7344 21.9838C58.9648 21.9838 59.6875 22.9115 59.6875 24.0444C59.6387 25.3822 58.8672 26.2026 57.7344 26.2026C56.6016 26.2026 55.7812 25.2748 55.7812 24.142ZM50.5469 26.2026V22.0912H51.2109V24.0444L52.5977 22.0912H53.5254L52.1387 23.8881L53.623 26.1537H52.6953L51.6699 24.4545L51.2109 25.1186V26.144H50.5469V26.2026ZM42.7441 25.0697L42.3828 26.2026H41.5625L42.9492 22.0912H43.8769L45.2637 26.2026H44.4434L43.9844 25.0697H42.7441ZM43.7207 24.4545L43.2617 22.8627L42.8027 24.4545H43.7207ZM38.75 25.6362H39.209C39.668 25.6362 40.1367 25.4311 40.1367 24.9721C40.1367 24.5131 39.6777 24.308 39.209 24.308H38.75V24.2592V25.6362ZM38.75 22.5502V23.683H39.1113C39.6777 23.683 39.9316 23.4779 39.9316 23.1166C39.9316 22.7553 39.5703 22.5502 39.1113 22.5502H38.75ZM40.4394 25.8412C40.2344 26.0463 39.6191 26.2026 38.8476 26.2026H37.9199V21.9838H39.0527C39.6191 21.9838 39.9805 22.0912 40.1855 22.1889C40.3906 22.2865 40.6445 22.6479 40.6445 23.0092C40.6445 23.3705 40.4394 23.6733 39.9805 23.9369C40.4394 24.0443 40.8008 24.3959 40.8008 24.9623C40.7519 25.3725 40.6445 25.6361 40.4394 25.8412ZM48.5937 22.0815H49.2578V26.1928H48.4375L46.6406 23.1068V26.0951H45.9766V21.9838H46.9043L48.5937 24.8158V22.0815ZM77.5879 22.0815V26.1928H76.7676L75.0781 23.1068V26.0951H74.4043V21.9838H75.332L77.0215 24.8158V22.0912H76.9141H77.5879V22.0815ZM55.9863 15.7045H54.2969L54.9609 10.2553H56.709L55.9863 15.7045Z" fill="#717071"/>
<path d="M58.5547 7.43311V10.2261H60.0391L60.8594 14.0347V7.39404H62.5488V10.187H64.0332L65.0586 13.9956V7.35498H66.8555V19.4741H65.0586V15.519H63.5742L62.5488 11.7104V19.4741H60.8594V15.519H59.375L58.5547 11.7104V14.2983C58.5547 15.8706 58.1934 18.1069 56.9629 19.3667H55.166L55.2637 19.269C56.2891 17.9018 56.8555 16.3296 56.8555 14.6499V7.43311H58.5547ZM42.373 15.4507L41.7578 13.7222V19.4546H39.9609V13.5171L38.7402 17.5796H37.2559L39.5117 10.3823H37.7148V9.26904H39.9707V7.43311H41.7676V9.25927H43.0469V10.3726H42.0215L43.8184 15.4409H42.373V15.4507ZM44.375 12.1499C44.375 11.2417 44.5801 10.7827 45.293 10.7827H49.1309C49.9512 10.7827 50.1563 11.2417 50.1563 11.896V18.1851H50.9766V19.2983H49.3848C48.7207 19.2983 48.3594 19.0933 48.3594 18.1851V11.8472H46.1035V15.8999C46.1035 16.9155 45.8984 18.4878 45.1855 19.396H43.3887L43.4863 19.2983C44.0527 18.3901 44.4043 17.2671 44.4043 16.1538V12.1499H44.375ZM45.957 7.43311H47.9004L48.1055 8.59521H50.9766V9.70849H43.4961V8.59521H46.2109L45.957 7.43311ZM78.3301 11.1343V12.7065H81.6113V11.1343H78.3301ZM78.3301 8.70264V10.0698H81.6113V8.70264H78.3301ZM82.627 7.58936C83.1934 7.58936 83.4473 7.94092 83.4473 8.49756V13.8686H80.7324L81.6504 15.646L82.1094 14.5327H83.7988L82.5781 17.4819L83.4961 19.4058H81.6992L78.7402 13.771H78.2324V18.2827H79.8242V19.396H77.4219C76.6016 19.396 76.5039 19.0444 76.5039 18.3804V8.49756C76.5039 7.8335 76.8652 7.58936 77.4219 7.58936H82.627ZM76.0254 13.6245V14.7378H73.9746V18.5464H75.6641V19.4546H73.2617C72.6953 19.4546 72.2363 19.103 72.2363 18.439V14.7378H70.8496V13.6245H72.2363V12.0522H71.0547V11.5933H70.3906L71.7676 7.33545H73.3594L72.998 8.44873H76.1719V9.56201H72.6367L72.1777 10.7827H76.1719V11.896H74.1211V13.4683H76.0645V13.6245H76.0254ZM88.5156 19.4546V15.1968H86.7188L90 10.7339H92.0508L90.3613 13.0679V19.4546H88.5156ZM92.7148 7.79443H99.5312V9.16162H92.7148V7.79443ZM98.5059 12.4038V18.2339C98.5059 18.7905 98.3008 19.4546 97.3828 19.4546H94.209V18.2339H96.4648V12.4038H92.0605V11.1831H100V12.4038H98.5059ZM88.623 11.5933H86.5723L89.541 7.58936H91.4844L88.623 11.5933Z" fill="#717071"/>
<path fill-rule="evenodd" clip-rule="evenodd" d="M4.18295 26.1783H3.26685V20.4238H4.18295V22.4037H4.20127C4.47868 22.0854 4.8997 21.8995 5.44735 21.8995C6.34939 21.8995 6.92092 22.3827 6.92092 23.316V26.1783H6.00375V23.5587C5.98544 22.907 5.72821 22.6236 5.19091 22.6236C4.57849 22.6236 4.18295 23.1064 4.18295 23.7201V26.1783ZM9.88112 22.7377H7.62789V22.0129H11.1203V22.6571L8.81105 25.4544H11.2408V26.1784H7.57904V25.5341L9.88112 22.7377ZM15.3323 24.0996C15.3323 24.9619 14.9387 25.8729 13.9719 25.8729C12.8946 25.8729 12.5166 24.9619 12.5166 24.0996C12.5166 23.2371 12.8946 22.3266 13.9719 22.3266C14.9387 22.3266 15.3323 23.2371 15.3323 24.0996ZM12.4772 26.1784H12.0092V20.4239H12.5168V22.8095H12.5325C12.7504 22.2125 13.3541 21.8996 13.9721 21.8996C15.237 21.8996 15.8401 22.9217 15.8401 24.0996C15.8401 25.2767 15.237 26.3001 13.9721 26.3001C13.3042 26.3001 12.7252 25.9542 12.4924 25.3887H12.4772V26.1784ZM17.8436 25.8383C18.7345 25.8383 19.2848 25.2337 19.2848 24.5676L19.2639 23.6027H19.2479C19.2078 23.6673 18.8097 23.8061 18.5296 23.8542C18.4761 23.8638 18.4229 23.8731 18.3703 23.8823C17.5759 24.0214 16.9092 24.1382 16.9092 25.0505C16.9092 25.5397 17.3677 25.8383 17.8436 25.8383ZM16.6652 22.6404C16.6652 22.6404 17.3583 22.3556 18.1868 22.3556C18.7835 22.3556 19.2186 22.5369 19.2186 22.9358C19.2186 23.2259 18.9131 23.3405 17.9357 23.4833C17.0275 23.6151 16.3633 23.9962 16.3633 24.9523C16.3633 25.7912 17.031 26.3001 17.7958 26.3001C18.5921 26.3001 19.014 25.9478 19.307 25.4543V26.2214H19.7918L19.791 23.237C19.791 22.1232 18.9946 21.8996 18.2614 21.8996C17.2935 21.8996 16.6755 22.1985 16.6755 22.1985L16.6652 22.6404ZM20.7943 26.1784H21.2992V23.7507C21.3175 22.9384 21.7988 22.3266 22.6029 22.3266C23.4245 22.3266 23.6584 22.8648 23.6584 23.5816V26.1784H24.1638V23.5019C24.1638 22.5117 23.8113 21.8996 22.6432 21.8996C22.056 21.8996 21.5023 22.2378 21.3175 22.7377H21.2992V22.0174H20.7943V26.1784ZM25.6287 26.1784H25.1204V20.4239H25.6287V24.0358L27.9276 22.0174H28.6064L26.8328 23.5588L28.7256 26.1784H28.0901L26.4495 23.9127L25.6287 24.6008V26.1784Z" fill="#636463"/>
<path fill-rule="evenodd" clip-rule="evenodd" d="M5.7621 1.30459C5.7621 1.30459 5.7621 1.26412 5.80214 1.18293C5.8432 1.10073 6.0054 1.02005 6.28926 0.897634C6.28926 0.897634 5.9243 0.897634 5.80214 0.733988C5.80214 0.7141 5.79235 0.704049 5.78245 0.693888C5.77233 0.683505 5.7621 0.673008 5.7621 0.651784L5.80214 0.612336C5.88249 0.57136 6.04545 0.489919 6.37112 0.733988C6.37112 0.733988 6.12706 0.327292 6.49227 0C6.49227 0 6.73709 0.24585 6.53409 0.693777L6.54153 0.685668C6.59496 0.627095 6.79608 0.406592 7.1421 0.367503C7.1421 0.367503 7.06125 0.693777 6.65447 0.814666C6.65447 0.814666 7.0212 0.814666 7.10205 1.10073C7.10205 1.10073 6.85824 1.34632 6.53409 0.979075C6.53409 0.979075 6.73709 1.34632 6.33108 1.55044C6.33108 1.55044 6.08625 1.42776 6.37112 1.02005C6.37112 1.02005 6.04545 1.34632 5.80214 1.34632C5.80214 1.30459 5.7621 1.30459 5.7621 1.30459ZM11.4056 1.71311C11.4056 1.71311 11.7315 1.59146 11.6915 1.42781C11.6502 1.18298 11.0414 0.734037 10.5135 0.693825C11.0414 0.408781 11.2845 0.530179 11.2845 0.530179C11.4761 0.573247 11.6008 0.761404 11.7054 0.919092C11.8004 1.06239 11.8787 1.18053 11.9754 1.14175C12.0973 1.10078 12.2584 0.979124 12.2584 0.979124L12.1784 1.26417C12.2081 1.38564 12.3727 1.37207 12.5554 1.35701C12.6188 1.35178 12.6844 1.34637 12.7473 1.34637C12.7758 1.35582 12.8043 1.36306 12.8322 1.37017C12.924 1.39351 13.0101 1.41541 13.0715 1.50925C13.0715 1.50925 13.3561 1.71311 13.3972 2.36566C13.2342 2.12057 12.9914 1.91697 12.7473 1.79532C12.4625 1.63091 12.1784 1.59146 12.057 1.71311C11.9353 1.79532 12.0162 2.0796 12.0162 2.0796C11.8542 1.91697 11.6094 1.79532 11.4056 1.71311ZM22.452 1.38683C22.1679 1.59145 22.1276 1.79531 22.2905 1.91697C22.452 1.99841 22.6149 1.79531 22.6149 1.46828C22.6958 1.83552 22.8988 1.95794 23.0217 1.8765C23.1844 1.75485 23.0217 1.50925 22.7777 1.38683C22.8988 1.42781 23.0217 1.46828 23.1426 1.46828C23.264 1.46828 23.3456 1.42781 23.3056 1.30463C23.3056 1.22319 23.224 1.18298 23.1426 1.18298C23.0217 1.14175 22.8988 1.18298 22.7369 1.26416C23.0618 1.10077 23.0618 0.856703 22.8988 0.775007C22.7369 0.693821 22.5739 0.979119 22.5739 1.18298C22.4935 0.897678 22.2905 0.693821 22.1679 0.775007C22.046 0.856703 22.1276 1.10077 22.452 1.26416C22.0067 1.0598 21.8427 1.18298 21.8838 1.38683C21.9248 1.46828 22.1679 1.55048 22.452 1.38683ZM16.523 2.48738C16.4829 2.48738 16.4011 2.44818 16.361 2.40696C16.0361 2.24331 15.6701 2.12064 15.4271 2.04022C15.3059 1.99848 15.2233 1.99848 15.2233 1.99848C15.2466 1.97593 15.282 1.96595 15.3229 1.95444C15.3553 1.94529 15.3912 1.93518 15.4271 1.91704C15.8328 1.79538 16.118 1.63097 16.118 1.63097C16.1991 1.63097 16.2792 1.67119 16.361 1.71318C16.3816 1.73461 16.4132 1.7557 16.4444 1.7766C16.4741 1.7964 16.5035 1.81603 16.523 1.83559C16.6527 1.94403 16.7705 2.07484 16.8707 2.18613L16.8707 2.18615L16.8708 2.18619C16.9596 2.28487 17.0347 2.3682 17.0919 2.40696C17.132 2.28428 17.3768 2.12064 17.3768 2.12064L17.4169 2.48738C17.4169 2.52759 17.4579 2.52759 17.4579 2.52759C17.5349 2.55916 17.6642 2.55012 17.8105 2.53987C17.9296 2.53153 18.0601 2.5224 18.183 2.53369C18.2407 2.41206 18.2706 2.32453 18.2706 2.32453C18.3507 2.24334 18.4328 2.24334 18.5129 2.24334C18.6632 2.21369 18.813 2.22777 18.9135 2.23721C18.9493 2.24057 18.9788 2.24334 18.9998 2.24334C18.9998 2.16114 19.0419 1.99851 19.0419 1.99851L19.2031 2.16114C19.2468 2.1467 19.2956 2.09088 19.3532 2.02502C19.4569 1.90628 19.5892 1.75495 19.7718 1.75495C19.7718 1.75495 20.137 1.95805 20.4226 1.99851C19.8937 2.0797 19.4068 2.20313 19.4469 2.44822C19.4469 2.56885 19.6098 2.69127 19.6098 2.69127L19.1227 2.89513C19.1227 2.89513 19.1638 2.61085 19.0419 2.52762C18.9998 2.48742 18.7571 2.56883 18.513 2.65102H18.5538C18.5538 2.65102 18.7979 3.18039 18.9999 3.71154C18.8379 3.58887 18.676 3.46722 18.513 3.38501C18.1077 3.14018 17.701 2.9773 17.4579 3.0595C17.3768 3.0595 17.335 3.09997 17.295 3.14018C17.2141 3.30459 17.2141 3.62908 17.2141 3.62908L16.523 3.30459L16.4011 3.2626C16.4011 3.2626 16.4421 3.22137 16.523 3.18039C16.6451 3.09997 16.8073 2.93632 16.7678 2.77268C16.7273 2.69373 16.6501 2.61575 16.5341 2.49862L16.523 2.48738ZM18.5129 2.65106C18.4242 2.57497 18.3072 2.54494 18.183 2.53374C18.144 2.6167 18.092 2.71492 18.0266 2.81467L18.5129 2.65106ZM29.5185 5.62828C29.6404 5.58807 29.8434 5.75019 29.7225 6.11744C29.8434 5.79091 30.0875 5.58807 30.2094 5.70998C30.4038 5.8262 30.1883 6.05556 29.9205 6.18255C29.9081 6.18757 29.8961 6.19301 29.8845 6.19888C29.8966 6.19365 29.9086 6.1882 29.9205 6.18255C30.0802 6.11786 30.2986 6.1233 30.4124 6.19888C30.4525 6.23985 30.4525 6.28108 30.4525 6.3213C30.4525 6.40274 30.4124 6.44448 30.4124 6.44448C30.2897 6.56613 30.0875 6.52592 29.8434 6.36151C30.0875 6.60634 30.1275 6.89266 29.9245 6.97384C29.7225 7.05528 29.5996 6.85041 29.6404 6.44448C29.5603 6.8102 29.3165 6.97384 29.1936 6.89266C28.9906 6.8102 29.0306 6.56613 29.5185 6.36151C29.1536 6.48392 28.9095 6.40274 28.9095 6.23985C28.9506 6.07621 29.2739 6.03702 29.5603 6.19888C29.3974 6.07621 29.2739 5.70998 29.5185 5.62828ZM28.7465 4.36372C28.7626 4.37994 28.7786 4.38982 28.7921 4.39818C28.8132 4.41119 28.8284 4.42053 28.8284 4.4444C28.8284 4.48639 28.7876 4.52736 28.7465 4.56707C28.5846 4.64825 28.2597 4.68948 28.2597 4.68948L28.3816 4.97554C28.5035 4.85287 28.6254 4.85287 28.7465 4.85287C28.7722 4.85796 28.7978 4.86371 28.8238 4.86954C29.0048 4.91012 29.2047 4.95494 29.5603 4.81164C29.6468 4.77431 29.7145 4.73695 29.7737 4.70426C29.9082 4.62999 29.999 4.57982 30.1683 4.6088C29.9966 4.3935 29.7456 4.39408 29.5711 4.39448C29.4153 4.39484 29.3205 4.39506 29.3974 4.24156C29.5996 3.79185 29.5185 3.67096 28.7465 3.18028H28.7075L28.7465 3.22125L28.7602 3.24173C28.8558 3.38488 29.1105 3.76583 29.0717 4.03694C29.0057 3.97111 28.9395 3.91675 28.8796 3.86762L28.8795 3.86761C28.8294 3.82651 28.7838 3.78908 28.7465 3.75164C28.6775 3.72556 28.6084 3.70693 28.5378 3.68788C28.2762 3.61729 27.9934 3.54097 27.6106 3.05939C27.6875 4.06721 28.3898 4.26375 28.7017 4.35106L28.7465 4.36372ZM22.5738 3.83399C22.2489 4.36387 22.2905 4.72985 22.6149 4.77158C22.8987 4.8118 23.0617 4.40535 22.8584 3.87497C22.9406 4.03709 23.0217 4.16027 23.1426 4.24171C23.3866 4.44455 23.6707 4.48654 23.7934 4.28192C23.9556 3.99688 23.5896 3.75179 23.1426 3.67111C23.6304 3.71158 24.1165 3.50747 23.9148 3.2214C23.7934 3.01831 23.4675 3.05954 23.1426 3.26263C23.0868 3.29165 23.0321 3.33924 22.9897 3.39243C23.0526 3.29623 23.1101 3.20486 23.1426 3.14022C23.2239 2.93636 23.1844 2.81471 23.1426 2.69127C23.1017 2.65106 23.0217 2.61085 22.9406 2.61085C22.5738 2.52763 22.4935 3.14022 22.6149 3.4245C22.3308 2.97733 21.8837 2.81471 21.7218 3.05954C21.5588 3.26263 21.8426 3.5487 22.4519 3.62912C21.5988 3.58891 21.3958 3.9162 21.5988 4.16027C21.7218 4.32366 22.2089 4.32366 22.5738 3.83399ZM25.7826 4.03712C25.6605 3.95543 25.6605 3.79204 26.0657 3.62915C25.7826 3.71161 25.5796 3.62915 25.5796 3.5075C25.6197 3.38508 25.8635 3.34487 26.0657 3.46729C25.9446 3.38508 25.8635 3.10004 26.0265 3.05957C26.1476 3.01834 26.3096 3.14025 26.2287 3.42453C26.3096 3.18046 26.4725 3.01834 26.5944 3.10004C26.7582 3.18046 26.5544 3.38508 26.3096 3.5075C26.5544 3.42453 26.7984 3.42453 26.7984 3.58894C26.7582 3.75182 26.5544 3.79204 26.3096 3.62915C26.5136 3.79204 26.5136 4.03712 26.3917 4.0781C26.2287 4.1603 26.1068 3.99691 26.1476 3.67115C26.1068 3.95543 25.9053 4.0781 25.7826 4.03712ZM1.25453 7.9931C1.10206 8.08068 1.07766 8.31983 1.05691 8.52322C1.03889 8.69985 1.02362 8.8495 0.929613 8.8495L0.604447 8.72734C0.604447 8.72734 0.725592 8.93094 0.76665 9.01391C0.786776 9.11408 0.628899 9.20441 0.454015 9.30447C0.274331 9.40727 0.0766927 9.52035 0.0357213 9.66493C0.0357213 9.66493 -0.0846639 9.82807 0.11657 10.3989C0.239489 9.86981 0.76665 9.33942 1.01148 9.33942C1.17266 9.33942 1.25453 9.70616 1.25453 9.70616C1.33538 9.46107 1.49834 9.25849 1.70135 9.13429C1.70135 9.13429 1.41673 9.17501 1.33538 9.05361C1.17266 8.72734 1.57868 8.03356 2.10736 7.83047C1.49834 7.74903 1.25453 7.9931 1.25453 7.9931ZM6.91096 5.137C6.64127 5.13357 6.18511 5.12777 5.80227 4.77159L5.79055 4.75965C5.67104 4.63801 5.5158 4.48 5.43655 4.28192C5.41577 4.26156 5.40551 4.23064 5.39524 4.19972C5.38523 4.16956 5.37523 4.1394 5.35545 4.11904L5.43655 4.16027C5.55846 4.24171 5.68138 4.32366 5.80227 4.36387C6.11082 4.47344 6.33836 4.477 6.53925 4.48015C6.7877 4.48403 6.99539 4.48728 7.26514 4.68964C7.18328 4.32366 6.69541 3.95539 6.5735 3.87497C7.63035 4.16027 7.75125 4.24171 7.6704 4.8118C7.63315 4.96427 7.73518 4.93856 7.88079 4.90186L7.91421 4.89349C8.11722 4.8118 8.36027 4.72985 8.60332 4.89349C8.41104 4.9208 8.33089 5.00541 8.20967 5.13336C8.15242 5.19379 8.08601 5.26389 7.9943 5.34218C7.9943 5.36771 7.97895 5.37743 7.95776 5.39086C7.94472 5.39912 7.92946 5.40878 7.91421 5.42439C7.68372 5.59753 7.48066 5.62542 7.30483 5.64957C7.10848 5.67654 6.94607 5.69885 6.81731 5.91354L6.61506 5.66846C6.61506 5.66846 7.14222 5.38341 7.14222 5.18032C7.12912 5.13977 7.04208 5.13866 6.91096 5.137ZM31.3054 8.6054C31.7112 8.64511 32.1182 8.52244 31.9552 8.27837C31.8343 8.11711 31.4742 8.15604 31.2305 8.43463C31.5074 8.11217 31.3848 7.87036 31.1835 7.83044C30.8994 7.78947 30.8586 8.19693 30.9812 8.40155C30.8183 8.15672 30.5334 8.03354 30.4123 8.07553C30.3304 8.07553 30.2896 8.07553 30.2896 8.11574C30.2093 8.19693 30.2496 8.27837 30.4123 8.40155C30.4934 8.44176 30.6563 8.52244 30.8586 8.56265C30.7113 8.53336 30.5848 8.54673 30.4957 8.55616C30.4624 8.55968 30.4343 8.56265 30.4123 8.56265C30.261 8.6138 30.2037 8.68048 30.2011 8.75276C30.2021 8.75545 30.2035 8.75744 30.205 8.75942C30.2067 8.76176 30.2084 8.76408 30.2093 8.76752C30.2106 8.77765 30.21 8.78719 30.2095 8.79669L30.209 8.80544C30.2171 8.83344 30.2308 8.86143 30.2496 8.88969C30.2896 8.93091 30.3304 8.97113 30.4123 8.97113C30.5334 9.01388 30.7782 8.93091 30.9812 8.72731C30.7372 9.05359 30.7782 9.33939 31.0213 9.3796C31.2654 9.42083 31.3862 9.09456 31.1835 8.72731C31.4681 9.13426 31.7923 9.21698 31.9152 9.01388C32.0363 8.84947 31.6711 8.64511 31.3054 8.6054ZM3.93453 5.26099C3.81339 5.18031 3.81339 5.01666 4.17758 4.81179C3.89449 4.9337 3.69072 4.85302 3.69072 4.68963C3.69072 4.56721 3.93453 4.52751 4.17758 4.68963C4.05669 4.56721 3.93453 4.28191 4.09673 4.20149C4.2194 4.16026 4.34055 4.32365 4.3005 4.6484C4.34055 4.36386 4.54355 4.20149 4.66622 4.28191V4.32365C4.74474 4.36295 4.70754 4.44091 4.66891 4.52187L4.66622 4.52751C4.64226 4.57446 4.59151 4.60745 4.53748 4.64258C4.49779 4.66839 4.45633 4.69535 4.42241 4.72984L4.42387 4.72911C4.50348 4.68913 4.5841 4.64865 4.66622 4.68963C4.78661 4.68963 4.86847 4.72984 4.86847 4.85302C4.86847 4.9337 4.78661 5.01666 4.66622 4.97569C4.5836 4.97569 4.5025 4.9337 4.38135 4.85302C4.62466 5.05637 4.66622 5.30094 4.5025 5.34217C4.38135 5.42438 4.25944 5.21976 4.25944 4.89348C4.2194 5.21976 4.05669 5.34217 3.93453 5.26099ZM1.61959 5.34205C1.9037 5.21963 2.06666 4.97556 1.82184 4.89336C1.70145 4.81166 1.49844 4.97556 1.49844 5.30082C1.49844 4.93357 1.29468 4.81166 1.17277 4.85289C0.969762 4.97556 1.17277 5.26086 1.33548 5.34205C1.05061 5.26086 0.766754 5.30082 0.766754 5.46472C0.766754 5.5879 1.01158 5.66832 1.33548 5.50646C0.929718 5.75002 0.969762 5.95439 1.17277 6.03684C1.29468 6.07604 1.49844 5.91341 1.49844 5.5879C1.53874 5.95439 1.70145 6.11727 1.86441 6.03684C2.0256 5.95439 1.94476 5.70981 1.61959 5.50646C1.9848 5.66832 2.22861 5.5879 2.22861 5.42425C2.18857 5.21963 1.86441 5.26086 1.61959 5.34205ZM5.80226 8.40154C5.72142 8.40154 5.68137 8.3598 5.68137 8.3598C5.76222 8.56264 5.59926 8.84946 5.43655 9.01387L5.39549 8.97111C5.39549 8.9545 5.40249 8.93772 5.41072 8.91802C5.4224 8.89002 5.43655 8.85614 5.43655 8.80849C5.43655 8.79153 5.44371 8.7747 5.4521 8.75498C5.464 8.72704 5.47836 8.69328 5.47836 8.64509C5.47836 8.68683 5.43655 8.68683 5.43655 8.68683C5.11239 8.68683 4.86833 8.31958 5.1532 8.31958L5.39549 8.3598C5.0721 7.95285 5.27434 7.78945 5.43655 7.87064V7.91162C5.59736 7.99211 5.6386 8.11288 5.67991 8.23387L5.68137 8.23814C5.69656 8.20726 5.70599 8.15877 5.71625 8.10598C5.73304 8.01958 5.75208 7.92167 5.80226 7.87064L5.84332 7.83043C5.98042 7.83043 6.03025 7.94661 6.06703 8.03236C6.07376 8.04807 6.08006 8.06275 6.08637 8.07552C6.08637 8.1567 6.08637 8.23814 6.04557 8.40154C6.08637 8.3598 6.53421 8.3598 6.57349 8.60539C6.53928 8.67411 6.51773 8.67614 6.47237 8.66596C6.36364 8.5494 5.99387 8.43971 5.80226 8.40154ZM4.05664 6.64667C3.2844 6.85027 3.20355 7.17756 3.48766 7.34045C3.69067 7.46363 4.09669 7.34045 4.2594 6.81006C4.13749 7.34045 4.3405 7.66596 4.62461 7.62574H4.66617C4.86842 7.54608 4.91024 7.259 4.66617 6.93349C4.64481 6.91244 4.62358 6.88042 4.60256 6.84871C4.58267 6.81872 4.56297 6.789 4.54351 6.76908C4.56502 6.7911 4.58682 6.81289 4.60885 6.8349L4.60886 6.83492L4.60888 6.83493C4.62783 6.85388 4.64695 6.87298 4.66617 6.89252C4.99058 7.09638 5.31524 7.09638 5.43664 6.97371C5.47846 6.93349 5.47846 6.89252 5.47846 6.85027C5.51164 6.783 5.48983 6.74369 5.45759 6.68556C5.45092 6.67354 5.44381 6.66071 5.43664 6.64667C5.27443 6.52578 4.99058 6.48379 4.66617 6.52578C5.11248 6.4026 5.47846 6.1173 5.19333 5.91344C5.03138 5.79077 4.82838 5.83124 4.66617 5.99412C4.59002 6.06966 4.482 6.2146 4.4334 6.36437C4.57174 5.85859 4.33457 5.58891 4.09669 5.62815C3.73148 5.70984 3.89444 6.23972 4.13749 6.44434C3.69067 6.15751 3.24436 6.1173 3.16351 6.36137C3.12321 6.56599 3.48766 6.76908 4.05664 6.64667ZM4.42236 6.4026C4.42628 6.38971 4.42996 6.37697 4.4334 6.36437C4.42927 6.37709 4.42557 6.38985 4.42236 6.4026ZM10.1473 3.4245C10.2172 3.49551 10.1941 3.56499 10.1108 3.63523C10.2063 3.72991 10.367 3.792 10.4722 3.792C10.3632 3.792 10.2565 3.81262 10.1723 3.84952C10.2271 3.89202 10.2552 3.9442 10.2291 3.99688C10.1891 4.07807 10.1064 4.07807 10.0661 4.07807C10.0195 4.07807 9.96607 4.06229 9.91159 4.03813C9.94808 3.99258 9.99801 3.95008 10.0662 3.91624C10.093 3.88901 10.1308 3.86788 10.1724 3.84956C10.1432 3.82716 10.109 3.80655 10.0662 3.79204C9.98507 3.75183 9.86317 3.71162 9.74202 3.71162C9.80865 3.71162 9.87551 3.69938 9.93568 3.68836C9.98492 3.67935 10.0297 3.67115 10.0662 3.67115C10.0798 3.66208 10.0903 3.65301 10.1007 3.64393C10.104 3.64104 10.1074 3.63816 10.1108 3.63527C10.1063 3.63074 10.1015 3.62633 10.0968 3.62192C10.0855 3.61144 10.0742 3.60095 10.0662 3.58895C9.9795 3.53067 9.93616 3.45101 9.94706 3.36575C9.8287 3.40571 9.72175 3.49758 9.66016 3.58895C9.78131 3.38509 9.78131 3.14026 9.53977 3.14026C9.37706 3.18047 9.33525 3.38509 9.49745 3.62916C9.29596 3.34488 9.05114 3.34488 8.97029 3.42454C8.85406 3.58001 9.17565 3.73411 9.38199 3.71641C9.07807 3.76355 8.89353 3.92057 9.01033 4.03713C9.09219 4.16031 9.33525 4.0781 9.49745 3.83404C9.29596 4.20154 9.45741 4.36391 9.66016 4.3237C9.77623 4.28371 9.85624 4.09491 9.68421 3.86451C9.75358 3.94753 9.83377 4.00352 9.91153 4.03813C9.86136 4.10099 9.83983 4.17071 9.86314 4.24171C9.9042 4.28192 9.98505 4.32366 10.0661 4.32366C10.1891 4.32366 10.3921 4.24171 10.5523 3.99688C10.2692 4.52752 10.3921 4.77159 10.6759 4.72985C10.8381 4.72985 10.959 4.44455 10.7563 3.99688C11.0411 4.44455 11.326 4.56722 11.4472 4.36387C11.6091 4.2015 11.326 3.9162 10.8782 3.834C11.4053 3.87497 11.6091 3.62912 11.488 3.4245C11.365 3.18043 11.0008 3.34484 10.7973 3.62912C11.0008 3.34484 11.0411 2.93636 10.7563 2.93636C10.5523 2.93636 10.4321 3.22141 10.5951 3.62912C10.4321 3.26264 10.1891 3.14022 10.0661 3.22141C10.0251 3.22141 9.98505 3.26264 9.98505 3.26264C9.96224 3.2975 9.95134 3.33186 9.94703 3.36571C9.98606 3.35248 10.0261 3.34484 10.0661 3.34484C10.1064 3.34484 10.1473 3.38505 10.1473 3.4245ZM9.38199 3.71641C9.39386 3.71539 9.40535 3.71381 9.41635 3.71162C9.40474 3.71306 9.39328 3.71466 9.38199 3.71641ZM9.68421 3.86451C9.67668 3.85443 9.66867 3.84427 9.66016 3.83404C9.66801 3.84457 9.67603 3.85473 9.68421 3.86451Z" fill="url(#paint0_linear_193_191)"/>
<mask id="mask0_193_191" style="mask-type:alpha" maskUnits="userSpaceOnUse" x="0" y="0" width="32" height="11">
<path fill-rule="evenodd" clip-rule="evenodd" d="M5.7621 1.30459C5.7621 1.30459 5.7621 1.26412 5.80214 1.18293C5.8432 1.10073 6.0054 1.02005 6.28926 0.897634C6.28926 0.897634 5.9243 0.897634 5.80214 0.733988C5.80214 0.7141 5.79235 0.704049 5.78245 0.693888C5.77233 0.683505 5.7621 0.673008 5.7621 0.651784L5.80214 0.612336C5.88249 0.57136 6.04545 0.489919 6.37112 0.733988C6.37112 0.733988 6.12706 0.327292 6.49227 0C6.49227 0 6.73709 0.24585 6.53409 0.693777L6.54153 0.685668C6.59496 0.627095 6.79608 0.406592 7.1421 0.367503C7.1421 0.367503 7.06125 0.693777 6.65447 0.814666C6.65447 0.814666 7.0212 0.814666 7.10205 1.10073C7.10205 1.10073 6.85824 1.34632 6.53409 0.979075C6.53409 0.979075 6.73709 1.34632 6.33108 1.55044C6.33108 1.55044 6.08625 1.42776 6.37112 1.02005C6.37112 1.02005 6.04545 1.34632 5.80214 1.34632C5.80214 1.30459 5.7621 1.30459 5.7621 1.30459ZM11.4056 1.71311C11.4056 1.71311 11.7315 1.59146 11.6915 1.42781C11.6502 1.18298 11.0414 0.734037 10.5135 0.693825C11.0414 0.408781 11.2845 0.530179 11.2845 0.530179C11.4761 0.573247 11.6008 0.761404 11.7054 0.919092C11.8004 1.06239 11.8787 1.18053 11.9754 1.14175C12.0973 1.10078 12.2584 0.979124 12.2584 0.979124L12.1784 1.26417C12.2081 1.38564 12.3727 1.37207 12.5554 1.35701C12.6188 1.35178 12.6844 1.34637 12.7473 1.34637C12.7758 1.35582 12.8043 1.36306 12.8322 1.37017C12.924 1.39351 13.0101 1.41541 13.0715 1.50925C13.0715 1.50925 13.3561 1.71311 13.3972 2.36566C13.2342 2.12057 12.9914 1.91697 12.7473 1.79532C12.4625 1.63091 12.1784 1.59146 12.057 1.71311C11.9353 1.79532 12.0162 2.0796 12.0162 2.0796C11.8542 1.91697 11.6094 1.79532 11.4056 1.71311ZM22.452 1.38683C22.1679 1.59145 22.1276 1.79531 22.2905 1.91697C22.452 1.99841 22.6149 1.79531 22.6149 1.46828C22.6958 1.83552 22.8988 1.95794 23.0217 1.8765C23.1844 1.75485 23.0217 1.50925 22.7777 1.38683C22.8988 1.42781 23.0217 1.46828 23.1426 1.46828C23.264 1.46828 23.3456 1.42781 23.3056 1.30463C23.3056 1.22319 23.224 1.18298 23.1426 1.18298C23.0217 1.14175 22.8988 1.18298 22.7369 1.26416C23.0618 1.10077 23.0618 0.856703 22.8988 0.775007C22.7369 0.693821 22.5739 0.979119 22.5739 1.18298C22.4935 0.897678 22.2905 0.693821 22.1679 0.775007C22.046 0.856703 22.1276 1.10077 22.452 1.26416C22.0067 1.0598 21.8427 1.18298 21.8838 1.38683C21.9248 1.46828 22.1679 1.55048 22.452 1.38683ZM16.523 2.48738C16.4829 2.48738 16.4011 2.44818 16.361 2.40696C16.0361 2.24331 15.6701 2.12064 15.4271 2.04022C15.3059 1.99848 15.2233 1.99848 15.2233 1.99848C15.2466 1.97593 15.282 1.96595 15.3229 1.95444C15.3553 1.94529 15.3912 1.93518 15.4271 1.91704C15.8328 1.79538 16.118 1.63097 16.118 1.63097C16.1991 1.63097 16.2792 1.67119 16.361 1.71318C16.3816 1.73461 16.4132 1.7557 16.4444 1.7766C16.4741 1.7964 16.5035 1.81603 16.523 1.83559C16.6527 1.94403 16.7705 2.07484 16.8707 2.18613L16.8707 2.18615L16.8708 2.18619C16.9596 2.28487 17.0347 2.3682 17.0919 2.40696C17.132 2.28428 17.3768 2.12064 17.3768 2.12064L17.4169 2.48738C17.4169 2.52759 17.4579 2.52759 17.4579 2.52759C17.5349 2.55916 17.6642 2.55012 17.8105 2.53987C17.9296 2.53153 18.0601 2.5224 18.183 2.53369C18.2407 2.41206 18.2706 2.32453 18.2706 2.32453C18.3507 2.24334 18.4328 2.24334 18.5129 2.24334C18.6632 2.21369 18.813 2.22777 18.9135 2.23721C18.9493 2.24057 18.9788 2.24334 18.9998 2.24334C18.9998 2.16114 19.0419 1.99851 19.0419 1.99851L19.2031 2.16114C19.2468 2.1467 19.2956 2.09088 19.3532 2.02502C19.4569 1.90628 19.5892 1.75495 19.7718 1.75495C19.7718 1.75495 20.137 1.95805 20.4226 1.99851C19.8937 2.0797 19.4068 2.20313 19.4469 2.44822C19.4469 2.56885 19.6098 2.69127 19.6098 2.69127L19.1227 2.89513C19.1227 2.89513 19.1638 2.61085 19.0419 2.52762C18.9998 2.48742 18.7571 2.56883 18.513 2.65102H18.5538C18.5538 2.65102 18.7979 3.18039 18.9999 3.71154C18.8379 3.58887 18.676 3.46722 18.513 3.38501C18.1077 3.14018 17.701 2.9773 17.4579 3.0595C17.3768 3.0595 17.335 3.09997 17.295 3.14018C17.2141 3.30459 17.2141 3.62908 17.2141 3.62908L16.523 3.30459L16.4011 3.2626C16.4011 3.2626 16.4421 3.22137 16.523 3.18039C16.6451 3.09997 16.8073 2.93632 16.7678 2.77268C16.7273 2.69373 16.6501 2.61575 16.5341 2.49862L16.523 2.48738ZM18.5129 2.65106C18.4242 2.57497 18.3072 2.54494 18.183 2.53374C18.144 2.6167 18.092 2.71492 18.0266 2.81467L18.5129 2.65106ZM29.5185 5.62828C29.6404 5.58807 29.8434 5.75019 29.7225 6.11744C29.8434 5.79091 30.0875 5.58807 30.2094 5.70998C30.4038 5.8262 30.1883 6.05556 29.9205 6.18255C29.9081 6.18757 29.8961 6.19301 29.8845 6.19888C29.8966 6.19365 29.9086 6.1882 29.9205 6.18255C30.0802 6.11786 30.2986 6.1233 30.4124 6.19888C30.4525 6.23985 30.4525 6.28108 30.4525 6.3213C30.4525 6.40274 30.4124 6.44448 30.4124 6.44448C30.2897 6.56613 30.0875 6.52592 29.8434 6.36151C30.0875 6.60634 30.1275 6.89266 29.9245 6.97384C29.7225 7.05528 29.5996 6.85041 29.6404 6.44448C29.5603 6.8102 29.3165 6.97384 29.1936 6.89266C28.9906 6.8102 29.0306 6.56613 29.5185 6.36151C29.1536 6.48392 28.9095 6.40274 28.9095 6.23985C28.9506 6.07621 29.2739 6.03702 29.5603 6.19888C29.3974 6.07621 29.2739 5.70998 29.5185 5.62828ZM28.7465 4.36372C28.7626 4.37994 28.7786 4.38982 28.7921 4.39818C28.8132 4.41119 28.8284 4.42053 28.8284 4.4444C28.8284 4.48639 28.7876 4.52736 28.7465 4.56707C28.5846 4.64825 28.2597 4.68948 28.2597 4.68948L28.3816 4.97554C28.5035 4.85287 28.6254 4.85287 28.7465 4.85287C28.7722 4.85796 28.7978 4.86371 28.8238 4.86954C29.0048 4.91012 29.2047 4.95494 29.5603 4.81164C29.6468 4.77431 29.7145 4.73695 29.7737 4.70426C29.9082 4.62999 29.999 4.57982 30.1683 4.6088C29.9966 4.3935 29.7456 4.39408 29.5711 4.39448C29.4153 4.39484 29.3205 4.39506 29.3974 4.24156C29.5996 3.79185 29.5185 3.67096 28.7465 3.18028H28.7075L28.7465 3.22125L28.7602 3.24173C28.8558 3.38488 29.1105 3.76583 29.0717 4.03694C29.0057 3.97111 28.9395 3.91675 28.8796 3.86762L28.8795 3.86761C28.8294 3.82651 28.7838 3.78908 28.7465 3.75164C28.6775 3.72556 28.6084 3.70693 28.5378 3.68788C28.2762 3.61729 27.9934 3.54097 27.6106 3.05939C27.6875 4.06721 28.3898 4.26375 28.7017 4.35106L28.7465 4.36372ZM22.5738 3.83399C22.2489 4.36387 22.2905 4.72985 22.6149 4.77158C22.8987 4.8118 23.0617 4.40535 22.8584 3.87497C22.9406 4.03709 23.0217 4.16027 23.1426 4.24171C23.3866 4.44455 23.6707 4.48654 23.7934 4.28192C23.9556 3.99688 23.5896 3.75179 23.1426 3.67111C23.6304 3.71158 24.1165 3.50747 23.9148 3.2214C23.7934 3.01831 23.4675 3.05954 23.1426 3.26263C23.0868 3.29165 23.0321 3.33924 22.9897 3.39243C23.0526 3.29623 23.1101 3.20486 23.1426 3.14022C23.2239 2.93636 23.1844 2.81471 23.1426 2.69127C23.1017 2.65106 23.0217 2.61085 22.9406 2.61085C22.5738 2.52763 22.4935 3.14022 22.6149 3.4245C22.3308 2.97733 21.8837 2.81471 21.7218 3.05954C21.5588 3.26263 21.8426 3.5487 22.4519 3.62912C21.5988 3.58891 21.3958 3.9162 21.5988 4.16027C21.7218 4.32366 22.2089 4.32366 22.5738 3.83399ZM25.7826 4.03712C25.6605 3.95543 25.6605 3.79204 26.0657 3.62915C25.7826 3.71161 25.5796 3.62915 25.5796 3.5075C25.6197 3.38508 25.8635 3.34487 26.0657 3.46729C25.9446 3.38508 25.8635 3.10004 26.0265 3.05957C26.1476 3.01834 26.3096 3.14025 26.2287 3.42453C26.3096 3.18046 26.4725 3.01834 26.5944 3.10004C26.7582 3.18046 26.5544 3.38508 26.3096 3.5075C26.5544 3.42453 26.7984 3.42453 26.7984 3.58894C26.7582 3.75182 26.5544 3.79204 26.3096 3.62915C26.5136 3.79204 26.5136 4.03712 26.3917 4.0781C26.2287 4.1603 26.1068 3.99691 26.1476 3.67115C26.1068 3.95543 25.9053 4.0781 25.7826 4.03712ZM1.25453 7.9931C1.10206 8.08068 1.07766 8.31983 1.05691 8.52322C1.03889 8.69985 1.02362 8.8495 0.929613 8.8495L0.604447 8.72734C0.604447 8.72734 0.725592 8.93094 0.76665 9.01391C0.786776 9.11408 0.628899 9.20441 0.454015 9.30447C0.274331 9.40727 0.0766927 9.52035 0.0357213 9.66493C0.0357213 9.66493 -0.0846639 9.82807 0.11657 10.3989C0.239489 9.86981 0.76665 9.33942 1.01148 9.33942C1.17266 9.33942 1.25453 9.70616 1.25453 9.70616C1.33538 9.46107 1.49834 9.25849 1.70135 9.13429C1.70135 9.13429 1.41673 9.17501 1.33538 9.05361C1.17266 8.72734 1.57868 8.03356 2.10736 7.83047C1.49834 7.74903 1.25453 7.9931 1.25453 7.9931ZM6.91096 5.137C6.64127 5.13357 6.18511 5.12777 5.80227 4.77159L5.79055 4.75965C5.67104 4.63801 5.5158 4.48 5.43655 4.28192C5.41577 4.26156 5.40551 4.23064 5.39524 4.19972C5.38523 4.16956 5.37523 4.1394 5.35545 4.11904L5.43655 4.16027C5.55846 4.24171 5.68138 4.32366 5.80227 4.36387C6.11082 4.47344 6.33836 4.477 6.53925 4.48015C6.7877 4.48403 6.99539 4.48728 7.26514 4.68964C7.18328 4.32366 6.69541 3.95539 6.5735 3.87497C7.63035 4.16027 7.75125 4.24171 7.6704 4.8118C7.63315 4.96427 7.73518 4.93856 7.88079 4.90186L7.91421 4.89349C8.11722 4.8118 8.36027 4.72985 8.60332 4.89349C8.41104 4.9208 8.33089 5.00541 8.20967 5.13336C8.15242 5.19379 8.08601 5.26389 7.9943 5.34218C7.9943 5.36771 7.97895 5.37743 7.95776 5.39086C7.94472 5.39912 7.92946 5.40878 7.91421 5.42439C7.68372 5.59753 7.48066 5.62542 7.30483 5.64957C7.10848 5.67654 6.94607 5.69885 6.81731 5.91354L6.61506 5.66846C6.61506 5.66846 7.14222 5.38341 7.14222 5.18032C7.12912 5.13977 7.04208 5.13866 6.91096 5.137ZM31.3054 8.6054C31.7112 8.64511 32.1182 8.52244 31.9552 8.27837C31.8343 8.11711 31.4742 8.15604 31.2305 8.43463C31.5074 8.11217 31.3848 7.87036 31.1835 7.83044C30.8994 7.78947 30.8586 8.19693 30.9812 8.40155C30.8183 8.15672 30.5334 8.03354 30.4123 8.07553C30.3304 8.07553 30.2896 8.07553 30.2896 8.11574C30.2093 8.19693 30.2496 8.27837 30.4123 8.40155C30.4934 8.44176 30.6563 8.52244 30.8586 8.56265C30.7113 8.53336 30.5848 8.54673 30.4957 8.55616C30.4624 8.55968 30.4343 8.56265 30.4123 8.56265C30.261 8.6138 30.2037 8.68048 30.2011 8.75276C30.2021 8.75545 30.2035 8.75744 30.205 8.75942C30.2067 8.76176 30.2084 8.76408 30.2093 8.76752C30.2106 8.77765 30.21 8.78719 30.2095 8.79669L30.209 8.80544C30.2171 8.83344 30.2308 8.86143 30.2496 8.88969C30.2896 8.93091 30.3304 8.97113 30.4123 8.97113C30.5334 9.01388 30.7782 8.93091 30.9812 8.72731C30.7372 9.05359 30.7782 9.33939 31.0213 9.3796C31.2654 9.42083 31.3862 9.09456 31.1835 8.72731C31.4681 9.13426 31.7923 9.21698 31.9152 9.01388C32.0363 8.84947 31.6711 8.64511 31.3054 8.6054ZM3.93453 5.26099C3.81339 5.18031 3.81339 5.01666 4.17758 4.81179C3.89449 4.9337 3.69072 4.85302 3.69072 4.68963C3.69072 4.56721 3.93453 4.52751 4.17758 4.68963C4.05669 4.56721 3.93453 4.28191 4.09673 4.20149C4.2194 4.16026 4.34055 4.32365 4.3005 4.6484C4.34055 4.36386 4.54355 4.20149 4.66622 4.28191V4.32365C4.74474 4.36295 4.70754 4.44091 4.66891 4.52187L4.66622 4.52751C4.64226 4.57446 4.59151 4.60745 4.53748 4.64258C4.49779 4.66839 4.45633 4.69535 4.42241 4.72984L4.42387 4.72911C4.50348 4.68913 4.5841 4.64865 4.66622 4.68963C4.78661 4.68963 4.86847 4.72984 4.86847 4.85302C4.86847 4.9337 4.78661 5.01666 4.66622 4.97569C4.5836 4.97569 4.5025 4.9337 4.38135 4.85302C4.62466 5.05637 4.66622 5.30094 4.5025 5.34217C4.38135 5.42438 4.25944 5.21976 4.25944 4.89348C4.2194 5.21976 4.05669 5.34217 3.93453 5.26099ZM1.61959 5.34205C1.9037 5.21963 2.06666 4.97556 1.82184 4.89336C1.70145 4.81166 1.49844 4.97556 1.49844 5.30082C1.49844 4.93357 1.29468 4.81166 1.17277 4.85289C0.969762 4.97556 1.17277 5.26086 1.33548 5.34205C1.05061 5.26086 0.766754 5.30082 0.766754 5.46472C0.766754 5.5879 1.01158 5.66832 1.33548 5.50646C0.929718 5.75002 0.969762 5.95439 1.17277 6.03684C1.29468 6.07604 1.49844 5.91341 1.49844 5.5879C1.53874 5.95439 1.70145 6.11727 1.86441 6.03684C2.0256 5.95439 1.94476 5.70981 1.61959 5.50646C1.9848 5.66832 2.22861 5.5879 2.22861 5.42425C2.18857 5.21963 1.86441 5.26086 1.61959 5.34205ZM5.80226 8.40154C5.72142 8.40154 5.68137 8.3598 5.68137 8.3598C5.76222 8.56264 5.59926 8.84946 5.43655 9.01387L5.39549 8.97111C5.39549 8.9545 5.40249 8.93772 5.41072 8.91802C5.4224 8.89002 5.43655 8.85614 5.43655 8.80849C5.43655 8.79153 5.44371 8.7747 5.4521 8.75498C5.464 8.72704 5.47836 8.69328 5.47836 8.64509C5.47836 8.68683 5.43655 8.68683 5.43655 8.68683C5.11239 8.68683 4.86833 8.31958 5.1532 8.31958L5.39549 8.3598C5.0721 7.95285 5.27434 7.78945 5.43655 7.87064V7.91162C5.59736 7.99211 5.6386 8.11288 5.67991 8.23387L5.68137 8.23814C5.69656 8.20726 5.70599 8.15877 5.71625 8.10598C5.73304 8.01958 5.75208 7.92167 5.80226 7.87064L5.84332 7.83043C5.98042 7.83043 6.03025 7.94661 6.06703 8.03236C6.07376 8.04807 6.08006 8.06275 6.08637 8.07552C6.08637 8.1567 6.08637 8.23814 6.04557 8.40154C6.08637 8.3598 6.53421 8.3598 6.57349 8.60539C6.53928 8.67411 6.51773 8.67614 6.47237 8.66596C6.36364 8.5494 5.99387 8.43971 5.80226 8.40154ZM4.05664 6.64667C3.2844 6.85027 3.20355 7.17756 3.48766 7.34045C3.69067 7.46363 4.09669 7.34045 4.2594 6.81006C4.13749 7.34045 4.3405 7.66596 4.62461 7.62574H4.66617C4.86842 7.54608 4.91024 7.259 4.66617 6.93349C4.64481 6.91244 4.62358 6.88042 4.60256 6.84871C4.58267 6.81872 4.56297 6.789 4.54351 6.76908C4.56502 6.7911 4.58682 6.81289 4.60885 6.8349L4.60886 6.83492L4.60888 6.83493C4.62783 6.85388 4.64695 6.87298 4.66617 6.89252C4.99058 7.09638 5.31524 7.09638 5.43664 6.97371C5.47846 6.93349 5.47846 6.89252 5.47846 6.85027C5.51164 6.783 5.48983 6.74369 5.45759 6.68556C5.45092 6.67354 5.44381 6.66071 5.43664 6.64667C5.27443 6.52578 4.99058 6.48379 4.66617 6.52578C5.11248 6.4026 5.47846 6.1173 5.19333 5.91344C5.03138 5.79077 4.82838 5.83124 4.66617 5.99412C4.59002 6.06966 4.482 6.2146 4.4334 6.36437C4.57174 5.85859 4.33457 5.58891 4.09669 5.62815C3.73148 5.70984 3.89444 6.23972 4.13749 6.44434C3.69067 6.15751 3.24436 6.1173 3.16351 6.36137C3.12321 6.56599 3.48766 6.76908 4.05664 6.64667ZM4.42236 6.4026C4.42628 6.38971 4.42996 6.37697 4.4334 6.36437C4.42927 6.37709 4.42557 6.38985 4.42236 6.4026ZM10.1473 3.4245C10.2172 3.49551 10.1941 3.56499 10.1108 3.63523C10.2063 3.72991 10.367 3.792 10.4722 3.792C10.3632 3.792 10.2565 3.81262 10.1723 3.84952C10.2271 3.89202 10.2552 3.9442 10.2291 3.99688C10.1891 4.07807 10.1064 4.07807 10.0661 4.07807C10.0195 4.07807 9.96607 4.06229 9.91159 4.03813C9.94808 3.99258 9.99801 3.95008 10.0662 3.91624C10.093 3.88901 10.1308 3.86788 10.1724 3.84956C10.1432 3.82716 10.109 3.80655 10.0662 3.79204C9.98507 3.75183 9.86317 3.71162 9.74202 3.71162C9.80865 3.71162 9.87551 3.69938 9.93568 3.68836C9.98492 3.67935 10.0297 3.67115 10.0662 3.67115C10.0798 3.66208 10.0903 3.65301 10.1007 3.64393C10.104 3.64104 10.1074 3.63816 10.1108 3.63527C10.1063 3.63074 10.1015 3.62633 10.0968 3.62192C10.0855 3.61144 10.0742 3.60095 10.0662 3.58895C9.9795 3.53067 9.93616 3.45101 9.94706 3.36575C9.8287 3.40571 9.72175 3.49758 9.66016 3.58895C9.78131 3.38509 9.78131 3.14026 9.53977 3.14026C9.37706 3.18047 9.33525 3.38509 9.49745 3.62916C9.29596 3.34488 9.05114 3.34488 8.97029 3.42454C8.85406 3.58001 9.17565 3.73411 9.38199 3.71641C9.07807 3.76355 8.89353 3.92057 9.01033 4.03713C9.09219 4.16031 9.33525 4.0781 9.49745 3.83404C9.29596 4.20154 9.45741 4.36391 9.66016 4.3237C9.77623 4.28371 9.85624 4.09491 9.68421 3.86451C9.75358 3.94753 9.83377 4.00352 9.91153 4.03813C9.86136 4.10099 9.83983 4.17071 9.86314 4.24171C9.9042 4.28192 9.98505 4.32366 10.0661 4.32366C10.1891 4.32366 10.3921 4.24171 10.5523 3.99688C10.2692 4.52752 10.3921 4.77159 10.6759 4.72985C10.8381 4.72985 10.959 4.44455 10.7563 3.99688C11.0411 4.44455 11.326 4.56722 11.4472 4.36387C11.6091 4.2015 11.326 3.9162 10.8782 3.834C11.4053 3.87497 11.6091 3.62912 11.488 3.4245C11.365 3.18043 11.0008 3.34484 10.7973 3.62912C11.0008 3.34484 11.0411 2.93636 10.7563 2.93636C10.5523 2.93636 10.4321 3.22141 10.5951 3.62912C10.4321 3.26264 10.1891 3.14022 10.0661 3.22141C10.0251 3.22141 9.98505 3.26264 9.98505 3.26264C9.96224 3.2975 9.95134 3.33186 9.94703 3.36571C9.98606 3.35248 10.0261 3.34484 10.0661 3.34484C10.1064 3.34484 10.1473 3.38505 10.1473 3.4245ZM9.38199 3.71641C9.39386 3.71539 9.40535 3.71381 9.41635 3.71162C9.40474 3.71306 9.39328 3.71466 9.38199 3.71641ZM9.68421 3.86451C9.67668 3.85443 9.66867 3.84427 9.66016 3.83404C9.66801 3.84457 9.67603 3.85473 9.68421 3.86451Z" fill="white"/>
</mask>
<g mask="url(#mask0_193_191)">
</g>
<defs>
<linearGradient id="paint0_linear_193_191" x1="0" y1="0" x2="0" y2="10.3989" gradientUnits="userSpaceOnUse">
<stop stop-color="#5CB531"/>
<stop offset="0.284299" stop-color="#5CB531"/>
<stop offset="0.599729" stop-color="#00A4EA"/>
<stop offset="1" stop-color="#004EA2"/>
</linearGradient>
</defs>
</svg>
