<svg width="100" height="14" viewBox="0 0 100 14" fill="none" xmlns="http://www.w3.org/2000/svg">
<path d="M43.5833 12.1335H100V12.5956H43.5833V12.1335Z" fill="#CF0106"/>
<path d="M44.9177 8.19821V3.80613H47.7101V2.06746C48.3732 2.06746 48.7573 2.06746 48.862 2.10359C49.0365 2.10359 49.1063 2.10359 49.1063 2.13992C49.1063 2.17605 49.1063 2.21228 49.0714 2.24861C49.0016 2.42967 48.9667 2.64705 48.9667 2.90056V3.7699H51.9335V8.08972H50.6771V7.54636H48.9666V10.29H47.745V7.54636H46.0696V8.19831H44.9177V8.19821ZM45.9626 6.70193H47.754V4.80222H45.9626V6.70183V6.70193ZM50.7394 4.80232H48.9481V6.70193H50.7394V4.80222V4.80232ZM54.0234 2.21687H61.3378V10.2169H60.1437V9.81511H55.0682V10.2899H54.0233V2.21687H54.0234ZM55.0683 3.26335V8.9444H60.1437V3.26335H55.0682H55.0683ZM57.0019 5.36706V4.74411H55.7366V3.8613H59.4754V4.74411H58.0682V5.36706H59.4827V6.24988H59.241C59.5252 6.76482 59.6675 7.02234 59.7386 7.05906L59.2054 7.42683H59.6959V8.34646H55.5162V7.42683H57.0018V6.24988H55.7293V5.36706H57.0018H57.0019ZM58.9494 6.25339H58.0681V7.44939H58.9494C58.753 7.18777 58.5566 6.92615 58.3603 6.62712L58.9494 6.25339ZM63.2785 8.74509H66.3953V3.76169H63.6737V2.6655H70.3108V3.76179H67.6657V8.74519H70.5929V9.84157H63.2785V8.74519V8.74509ZM77.3019 2.90486H80.4449V3.7738H78.2774C78.2774 3.70144 78.7788 3.70144 78.8149 3.73767C78.8149 3.7738 78.7697 3.83865 78.7427 3.8824C78.6386 4.05115 78.3858 4.49793 78.2412 4.75144H79.8308V9.67566C79.8308 10.2188 79.2526 10.4722 78.1328 10.436C78.0967 10.074 77.9386 9.4112 77.758 9.12155C78.3722 9.15769 78.7109 9.3861 78.6386 9.13259V6.81521C78.5302 6.9239 78.4219 7.06872 78.2774 7.28591C78.2412 7.24978 78.1328 7.17741 77.9522 6.99636V9.20505H76.8685V8.98777H75.8209V9.31364H74.8815V7.06872L74.6649 7.21355C74.5203 6.96013 74.4119 6.77898 74.2674 6.63425V10.2913L73.1476 10.255V4.67898H74.8454C74.8093 4.64285 74.7044 4.50417 74.6032 4.33777C74.502 4.17136 74.3628 3.73874 74.399 3.70261C74.5797 3.63015 74.9408 3.52146 75.5189 3.41287C75.555 3.4492 75.8209 4.17205 76.0376 4.64285H77.013C77.1937 4.3531 77.3382 4.02722 77.4465 3.73757H72.5334V2.90486H75.8569C75.8208 2.68758 75.7486 2.54275 75.7124 2.43416C75.6763 2.32537 75.6763 2.32547 75.7124 2.28933C76.2544 2.253 76.7239 2.21687 77.1575 2.21687C77.2659 2.39793 77.302 2.61511 77.302 2.90486H77.3019ZM75.5189 5.50593H74.3247V6.4029C74.7589 6.23034 75.157 5.91989 75.5189 5.50593ZM75.8123 5.50593L76.4248 6.12214L76.2807 6.26696C76.0646 6.37575 75.8483 6.52058 75.6682 6.70193H77.758C77.3256 6.44822 77.0735 6.30319 76.9653 6.23073C76.8571 6.1946 76.8212 6.15828 76.8571 6.12205C76.8933 6.01326 77.0735 5.79587 77.3256 5.50583H75.8123V5.50593ZM78.6536 5.50593H77.4594C77.7664 5.70984 78.1759 5.94763 78.6536 6.25339V5.50593ZM75.8174 8.19694H76.8623V7.44939H75.8174V8.19694ZM85.8188 2.9991V3.90007H84.0094C83.8285 4.29656 83.7561 4.5489 83.7198 4.62097H85.7464V5.52195H84.697V6.24265H85.8188V7.14372H84.6971V8.1529C84.8418 8.0448 85.6018 7.50417 85.638 7.50417C85.7103 7.75642 85.7827 8.04479 85.8189 8.33307C84.9142 9.01784 84.3352 9.48639 84.0818 9.73864C83.9009 9.91882 83.8285 9.99089 83.7923 9.99089C83.6839 9.84675 83.5028 9.52233 83.2133 8.98181C83.2133 8.94567 83.2495 8.90974 83.3581 8.80163C83.539 8.58532 83.6476 8.44118 83.6476 8.29704V7.10759H82.4172V6.20671H83.6476V5.48591H83.2857V5.19763C83.2374 5.31062 83.1765 5.40662 83.1028 5.48591C82.8794 5.72634 82.9216 5.70212 82.8855 5.73825C82.7406 5.63005 82.4874 5.44988 82.1254 5.19763C82.0893 5.1616 82.0531 5.1616 82.0531 5.12546C82.3175 4.58347 82.7408 4.07019 82.9901 3.49353C83.3212 2.728 83.446 1.95896 83.4667 1.91785C83.6838 1.95398 84.0819 2.02605 84.6247 2.17019C84.6609 2.20632 84.4799 2.85496 84.4075 2.9991H85.8189H85.8188ZM86.0317 2.36638H89.9074V6.41951H89.5451C89.7986 6.63855 89.9798 6.85759 90.1609 7.07673C90.3058 7.25935 90.3058 7.40535 90.1246 7.47839C90.0885 7.51492 90.0522 7.51491 90.016 7.51491C89.7263 7.73395 89.4364 7.91648 89.2553 8.13562C89.6176 8.5738 90.0885 8.86599 90.5955 9.04851C90.3058 9.26755 90.016 9.63278 89.7263 10.071C89.69 10.0343 89.6176 9.99782 89.5814 9.9614C88.8207 9.37712 88.3499 8.86599 88.0963 8.39118C88.0963 8.50075 88.1325 9.08493 88.1688 9.15798C87.2632 9.63278 86.6837 9.96139 86.5025 10.1074C86.3215 10.217 86.249 10.29 86.2129 10.29C86.1042 10.217 85.9593 9.8153 85.6695 9.12155C85.6695 9.08493 85.7058 9.0485 85.7782 8.97546C85.9593 8.79284 86.0317 8.61032 86.0317 8.4278V2.36638ZM87.1622 3.41287V4.01091H88.8043V3.41287H87.1622ZM88.8043 5.50593V4.90788H87.1622V5.50593H88.8043ZM87.5127 6.4029H87.1622V8.49597C87.6295 8.3155 87.9021 8.2072 88.0579 8.06286C87.7073 7.44939 87.5127 6.90808 87.5127 6.4029ZM88.3564 6.4029V6.55896C88.4725 6.87087 88.5886 7.14392 88.7048 7.29988C88.9757 7.02693 89.2078 6.71491 89.4014 6.4029H88.3564ZM91.7897 4.19607C92.6198 3.55525 93.3054 2.80779 93.9189 1.91785C94.0272 1.98914 94.1354 2.06033 94.352 2.16707C94.8573 2.38064 95.0737 2.52302 95.0737 2.55867C95.0377 2.59421 95.0016 2.66541 94.9295 2.70105C94.8211 2.80779 94.7129 2.87898 94.6047 2.98572C93.8469 3.80447 93.161 4.44519 92.5837 4.90788C92.4394 4.72995 92.1867 4.51628 91.7897 4.19597V4.19607ZM99.4027 2.5159V3.41287H95.6709V2.5159H99.4027ZM94.2574 10.1404H93.1487V6.85691C92.97 7.03923 92.7911 7.25827 92.5407 7.51364L91.7897 6.82038C92.6839 6.0907 93.5063 5.14207 94.1859 4.01101C94.8654 4.37595 95.1873 4.5948 95.223 4.66775C95.223 4.70427 95.1873 4.7407 95.1157 4.77712C94.8654 4.95974 94.5793 5.32449 94.2574 5.76228V10.1405V10.1404ZM95.11 4.75837H99.9998V5.73366H98.6597V9.38191C98.6958 9.88767 98.1525 10.1404 96.9573 10.1404C96.8849 9.67087 96.7761 9.30964 96.5589 9.02067C97.2108 9.05681 97.4644 8.98777 97.4644 8.76775V5.69773H95.0737V4.75847H95.1101L95.11 4.75837Z" fill="#040003"/>
<path d="M32.8542 0.429199C36.4814 0.429199 39.4251 3.37294 39.4251 6.99999C39.4251 10.6271 36.4814 13.5709 32.8542 13.5709C29.2272 13.5709 26.2834 10.6271 26.2834 6.99999C26.2834 3.37294 29.2272 0.429199 32.8542 0.429199ZM32.8542 1.73457C29.9456 1.73457 27.5888 4.0913 27.5888 6.99999C27.5888 9.90868 29.9456 12.2654 32.8542 12.2654C35.7629 12.2654 38.1197 9.90868 38.1197 6.99999C38.1197 4.0913 35.7629 1.73457 32.8542 1.73457ZM36.5515 3.52187V6.43056H34.3524V7.4206H36.5514V10.3906H33.3274V9.44433H35.5264V8.36679H33.3274V5.4581H35.5264V4.46806H33.3274V3.52187H36.5514H36.5515ZM32.3812 3.52187V4.46816H30.1821V5.4581H32.3812V8.36679H30.1821V9.44442H32.3812V10.3906H29.1571V7.4206H31.3561V6.43056H29.1571V3.52197H32.3812V3.52187Z" fill="#CF0106"/>
<path d="M1.34228 3.56519V10.5981H0V3.56519H1.34228ZM8.20312 3.56519V5.06157H6.04706C4.94257 5.06157 4.04511 5.948 4.02724 7.04829L4.02695 7.08169C4.02695 8.18618 4.91337 9.08364 6.01367 9.10151L6.04706 9.10171H8.20312V10.5981H6.20117C4.25898 10.5981 2.68467 9.02368 2.68467 7.08169C2.68467 5.1396 4.25898 3.56519 6.20107 3.56519H8.20312ZM22.0739 3.56519V5.06157H19.9179C18.8134 5.06157 17.9159 5.948 17.898 7.04829L17.8977 7.08169C17.8977 8.18618 18.7842 9.08364 19.8845 9.10151L19.9179 9.10171H22.0739V10.5981H20.0719C18.1298 10.5981 16.5555 9.02368 16.5555 7.08169C16.5555 5.1396 18.1298 3.56519 20.0719 3.56519H22.0739ZM13.5666 3.56519C14.5583 3.56519 15.3623 4.36919 15.3623 5.36089C15.3623 6.17368 14.8222 6.8604 14.0812 7.08159C14.8222 7.30288 15.3623 7.98959 15.3623 8.80248C15.3623 9.79418 14.5583 10.5981 13.5666 10.5981H9.59687C9.58324 10.5981 9.57018 10.5927 9.56054 10.583C9.55091 10.5734 9.5455 10.5603 9.5455 10.5467V3.61665C9.5455 3.58833 9.56845 3.56528 9.59677 3.56528H13.5666V3.56519ZM13.3461 7.60542H10.79C10.7774 7.6054 10.7653 7.61001 10.7559 7.61836C10.7465 7.62671 10.7404 7.63823 10.739 7.65073L10.7387 7.65669V9.20005C10.7387 9.22641 10.7585 9.24809 10.784 9.25102L10.79 9.25141H13.3461C13.5644 9.25141 13.7737 9.1647 13.928 9.01036C14.0824 8.85602 14.1691 8.64668 14.1691 8.42841C14.1691 8.21014 14.0824 8.00081 13.928 7.84647C13.7737 7.69213 13.5644 7.60542 13.3461 7.60542ZM13.3461 4.76235H10.79C10.7774 4.76234 10.7653 4.76694 10.7559 4.77529C10.7465 4.78365 10.7404 4.79517 10.739 4.80766L10.7387 4.81362V6.35698C10.7387 6.38335 10.7585 6.40503 10.784 6.40796L10.79 6.40835H13.3461C13.5644 6.40835 13.7737 6.32164 13.928 6.1673C14.0824 6.01295 14.1691 5.80362 14.1691 5.58535C14.1691 5.36708 14.0824 5.15775 13.928 5.0034C13.7737 4.84906 13.5644 4.76235 13.3461 4.76235Z" fill="#040003"/>
</svg>
