<svg width="100" height="26" viewBox="0 0 100 26" fill="none" xmlns="http://www.w3.org/2000/svg">
<path d="M93.9589 19.5343H96.0197V19.7492H95.6095C95.502 19.7492 95.4239 19.7687 95.3751 19.798C95.336 19.8371 95.3067 19.8859 95.3067 19.9543V22.3667C95.3067 22.6207 95.3262 22.816 95.3751 22.943C95.4434 23.1383 95.5704 23.2848 95.756 23.402C95.9416 23.5192 96.176 23.5681 96.469 23.5681C96.8792 23.5681 97.182 23.4704 97.3969 23.2653C97.6117 23.0602 97.7192 22.7965 97.7192 22.4546V20.4914C97.7192 20.3156 97.7094 20.1887 97.6801 20.1008C97.6508 20.0129 97.6215 19.9445 97.5727 19.8859C97.5238 19.8371 97.4652 19.798 97.3969 19.7687C97.3285 19.7492 97.2015 19.7296 97.0355 19.7296V19.5343H98.7252V19.7492H98.608C98.4224 19.7492 98.2759 19.798 98.188 19.8957C98.1001 19.9933 98.0512 20.1301 98.0512 20.3156V22.4156C98.0512 22.8746 97.9145 23.2262 97.641 23.4704C97.3382 23.7439 96.928 23.8806 96.4104 23.8806C95.9709 23.8806 95.6193 23.822 95.3653 23.695C95.1114 23.5778 94.9258 23.402 94.8184 23.1774C94.7304 23.0016 94.6914 22.7867 94.6914 22.5328V19.9543C94.6914 19.8859 94.6718 19.8371 94.623 19.798C94.5742 19.7589 94.5058 19.7394 94.4081 19.7394H93.9589V19.5343ZM91.058 19.6613C90.6674 19.6613 90.3451 19.8175 90.1009 20.1301C89.8567 20.4426 89.7395 20.9505 89.7395 21.6537C89.7395 22.4253 89.8665 22.9527 90.1106 23.2458C90.3646 23.5388 90.6674 23.6853 91.0385 23.6853C91.2925 23.6853 91.5269 23.6169 91.7124 23.4899C91.9078 23.3532 92.064 23.1383 92.1813 22.8551C92.2985 22.5621 92.3571 22.1909 92.3571 21.7123C92.3571 21.1947 92.3082 20.804 92.191 20.511C92.0836 20.218 91.9273 20.0129 91.732 19.8664C91.5269 19.7296 91.3022 19.6613 91.058 19.6613ZM91.0092 19.4464C91.3804 19.4464 91.732 19.544 92.064 19.7296C92.3961 19.9152 92.6501 20.1887 92.8356 20.5208C93.0212 20.8626 93.1189 21.2435 93.1189 21.6733C93.1189 22.103 93.0212 22.4839 92.8356 22.8258C92.6501 23.1676 92.3961 23.4411 92.064 23.6267C91.7417 23.822 91.3901 23.9197 91.0287 23.9197C90.6674 23.9197 90.3353 23.822 90.0227 23.6364C89.7102 23.4509 89.4563 23.1774 89.2707 22.8258C89.0753 22.4742 88.9874 22.0932 88.9874 21.6635C88.9874 21.2435 89.0851 20.8626 89.2609 20.5305C89.4465 20.1984 89.7004 19.925 90.013 19.7394C90.3255 19.5343 90.6674 19.4464 91.0092 19.4464ZM83.4398 19.5343H85.3443V19.7492H84.9927C84.8658 19.7492 84.7876 19.7687 84.7485 19.8078C84.7095 19.8468 84.6899 19.9445 84.6899 20.1105V21.4291H86.7313V20.1105C86.7313 19.9445 86.7117 19.8371 86.6824 19.8078C86.6433 19.7687 86.5652 19.7492 86.4382 19.7492H86.1159V19.5343H88.0107V19.7492H87.6689C87.581 19.7492 87.5224 19.7589 87.4833 19.7785C87.4442 19.798 87.4149 19.8371 87.3954 19.8859C87.3856 19.9152 87.3759 20.0031 87.3759 20.1398V23.2165C87.3759 23.363 87.3856 23.4509 87.4149 23.4899C87.4638 23.5583 87.5615 23.5876 87.6982 23.5876H88.001V23.8025H86.1062V23.5876H86.4285C86.5555 23.5876 86.6433 23.5485 86.6922 23.4899C86.7215 23.4509 86.7313 23.3532 86.7313 23.1969V21.7123H84.6899V23.2165C84.6899 23.3727 84.6997 23.4606 84.729 23.4899C84.7778 23.5583 84.8658 23.5876 84.9927 23.5876H85.3443V23.8025H83.4398V23.5876H83.8011C83.8695 23.5876 83.9183 23.5778 83.9574 23.5485C83.9965 23.5192 84.0258 23.4899 84.0453 23.4411C84.0551 23.4118 84.0649 23.3337 84.0649 23.1969V20.1105C84.0649 19.9445 84.0453 19.8468 84.0062 19.8078C83.9672 19.7687 83.889 19.7492 83.7621 19.7492H83.4398V19.5343ZM79.4841 19.5343H82.5314V19.7492L79.9822 23.5876H80.9492C81.2324 23.5876 81.4571 23.5388 81.6329 23.4606C81.8087 23.3727 81.9552 23.2458 82.0626 23.07C82.1798 22.9039 82.2775 22.6109 82.3654 22.2105H82.5803L82.5021 23.8122H79.279V23.6169L81.8477 19.7589H80.9296C80.6757 19.7589 80.4804 19.7882 80.3436 19.8468C80.158 19.925 80.0018 20.0519 79.8846 20.2473C79.7674 20.4426 79.6795 20.6966 79.6306 21.0286H79.406L79.4841 19.5343ZM73.8192 19.5343H75.8801V19.7492H75.4699C75.3624 19.7492 75.2843 19.7687 75.2355 19.798C75.1964 19.8371 75.1671 19.8859 75.1671 19.9543V22.3667C75.1671 22.6207 75.1866 22.816 75.2355 22.943C75.3038 23.1383 75.4308 23.2848 75.6164 23.402C75.8019 23.5192 76.0364 23.5681 76.3294 23.5681C76.7298 23.5681 77.0424 23.4704 77.2572 23.2653C77.4721 23.0602 77.5795 22.7965 77.5795 22.4546V20.4914C77.5795 20.3156 77.5698 20.1887 77.5405 20.1008C77.5112 20.0129 77.4819 19.9445 77.433 19.8859C77.3842 19.8371 77.3256 19.798 77.2572 19.7687C77.1889 19.7492 77.0619 19.7296 76.8959 19.7296V19.5343H78.5855V19.7492H78.4683C78.2828 19.7492 78.1363 19.798 78.0484 19.8957C77.9507 19.9933 77.9116 20.1301 77.9116 20.3156V22.4156C77.9116 22.8746 77.7749 23.2262 77.5014 23.4704C77.1986 23.7439 76.7787 23.8806 76.2708 23.8806C75.8313 23.8806 75.4796 23.822 75.2257 23.695C74.9718 23.5778 74.7862 23.402 74.669 23.1774C74.5811 23.0016 74.542 22.7867 74.542 22.5328V19.9543C74.542 19.8859 74.5127 19.8371 74.4736 19.798C74.4248 19.7589 74.3564 19.7394 74.2588 19.7394H73.829V19.5343H73.8192ZM71.0259 19.5343H73.077V19.7492H72.7253C72.5691 19.7492 72.4714 19.7687 72.4226 19.8078C72.3835 19.8468 72.364 19.925 72.364 20.0422V23.2751C72.364 23.402 72.3835 23.4899 72.4226 23.5192C72.4714 23.5681 72.5593 23.5876 72.6863 23.5876H73.077V23.8025H71.0259V23.5876H71.4166C71.5533 23.5876 71.6412 23.5681 71.6803 23.529C71.7193 23.4899 71.7389 23.402 71.7389 23.2751V20.0422C71.7389 19.9152 71.7193 19.8371 71.6803 19.8175C71.6217 19.7785 71.524 19.7492 71.3677 19.7492H71.0161V19.5343H71.0259ZM66.5233 19.5343H68.5841V19.7492H68.086C68.0079 19.7492 67.9493 19.7687 67.9102 19.8078C67.8711 19.8468 67.8516 19.9054 67.8516 19.9933V23.363C67.8516 23.4411 67.8711 23.4997 67.92 23.5388C67.9688 23.5778 68.0665 23.5876 68.2032 23.5876H68.8283C69.1604 23.5876 69.4338 23.4802 69.6487 23.2653C69.8636 23.0504 70.0101 22.6793 70.1078 22.1518H70.3226L70.225 23.7927H66.5037V23.5778H66.8651C66.9921 23.5778 67.08 23.5583 67.1288 23.5095C67.1777 23.4704 67.207 23.3923 67.207 23.2946V19.964C67.207 19.8957 67.1874 19.8371 67.1484 19.798C67.1093 19.7589 67.0409 19.7394 66.9628 19.7394H66.5135V19.5343H66.5233ZM59.4422 19.5343H63.0755L63.1341 21.0189H62.9192C62.8216 20.511 62.6946 20.1789 62.5286 20.0226C62.3332 19.8468 62.0695 19.7589 61.7081 19.7589H60.9951C60.9268 19.7589 60.8682 19.7785 60.8389 19.8078C60.8096 19.8371 60.79 19.8859 60.79 19.9543V21.4877H61.1709C61.3858 21.4877 61.5519 21.4193 61.6788 21.2826C61.8058 21.1458 61.8742 20.9407 61.8839 20.6575H62.0988V22.5816H61.8839C61.8742 22.2593 61.8058 22.0346 61.6788 21.8979C61.5616 21.7612 61.3858 21.6928 61.1709 21.6928H60.79V23.3239C60.79 23.4216 60.8193 23.4899 60.8682 23.529C60.917 23.5681 60.9951 23.5876 61.1221 23.5876H61.5812V23.8025H59.4324V23.5876H59.8915C59.9891 23.5876 60.0477 23.5681 60.0868 23.529C60.1259 23.4899 60.1454 23.4411 60.1454 23.3532V19.9543C60.1454 19.8761 60.1259 19.8273 60.0868 19.7882C60.0477 19.7492 59.9696 19.7394 59.8719 19.7394H59.4324V19.5343H59.4422ZM56.3851 19.6613C55.9944 19.6613 55.6721 19.8175 55.4279 20.1301C55.1838 20.4426 55.0665 20.9505 55.0665 21.6537C55.0665 22.4253 55.1935 22.9527 55.4377 23.2458C55.6819 23.5388 55.9944 23.6853 56.3656 23.6853C56.6195 23.6853 56.8539 23.6169 57.0493 23.4899C57.2446 23.3532 57.4009 23.1383 57.5181 22.8551C57.6353 22.5621 57.6939 22.1909 57.6939 21.7123C57.6939 21.1947 57.6353 20.804 57.5278 20.511C57.4204 20.218 57.2641 20.0129 57.059 19.8664C56.8539 19.7296 56.6293 19.6613 56.3851 19.6613ZM56.3363 19.4464C56.7172 19.4464 57.0688 19.544 57.3911 19.7296C57.7232 19.9152 57.9771 20.1887 58.1627 20.5208C58.3483 20.8626 58.4459 21.2435 58.4459 21.6733C58.4459 22.103 58.3483 22.4839 58.1627 22.8258C57.9771 23.1676 57.7232 23.4411 57.3911 23.6267C57.0688 23.822 56.7172 23.9197 56.3558 23.9197C55.9944 23.9197 55.6623 23.822 55.3498 23.6364C55.0372 23.4509 54.7833 23.1774 54.5977 22.8258C54.4122 22.4742 54.3145 22.0932 54.3145 21.6635C54.3145 21.2435 54.4122 20.8626 54.588 20.5305C54.7735 20.1984 55.0275 19.925 55.34 19.7394C55.6526 19.5343 55.9846 19.4464 56.3363 19.4464ZM46.3251 19.5343H48.3664V19.7492H47.9366C47.8389 19.7492 47.7706 19.7687 47.7217 19.8175C47.6729 19.8664 47.6436 19.925 47.6436 19.9933V21.976L49.3235 20.257C49.4212 20.1594 49.47 20.0617 49.47 19.9738C49.47 19.9054 49.4407 19.8566 49.3724 19.8175C49.304 19.7785 49.1966 19.7492 49.0501 19.7492H48.9231V19.5343H50.7593V19.7492H50.6128C50.4858 19.7492 50.3588 19.7882 50.2123 19.8566C50.0658 19.925 49.9291 20.0226 49.8021 20.1398L48.7668 21.1751L50.2514 23.2653C50.3295 23.3825 50.4174 23.4704 50.5053 23.5192C50.5932 23.5681 50.7007 23.5876 50.8179 23.5876H50.9839V23.8025H48.9719V23.5876H49.2063C49.3724 23.5876 49.4798 23.5778 49.5384 23.5485C49.597 23.5192 49.6263 23.4899 49.6263 23.4509C49.6263 23.4118 49.6165 23.3727 49.5872 23.3434L48.3566 21.6049L47.6534 22.3277V23.3825C47.6534 23.4509 47.6729 23.4997 47.712 23.529C47.7803 23.5778 47.8487 23.5974 47.9366 23.5974H48.3664V23.8122H46.3251V23.5974H46.7157C46.8134 23.5974 46.8915 23.5778 46.9404 23.5388C46.9892 23.4997 47.0087 23.4411 47.0087 23.3825V19.9738C47.0087 19.9054 46.9794 19.8566 46.9306 19.8175C46.872 19.7785 46.7841 19.7589 46.6571 19.7589H46.3251V19.5343ZM40.9434 19.5343H42.008L44.7037 22.8941V20.4622C44.7037 20.218 44.6451 20.0324 44.5279 19.9152C44.4205 19.8078 44.2642 19.7492 44.0493 19.7492V19.5343H45.6121V19.7492C45.4558 19.7492 45.3386 19.7687 45.2604 19.8175C45.1823 19.8566 45.1139 19.9347 45.0553 20.0422C44.9967 20.1594 44.9674 20.2766 44.9674 20.4133V23.8122H44.6842L41.9006 20.3156V22.8941C41.9006 23.1286 41.9592 23.3044 42.0862 23.4216C42.2034 23.5388 42.3987 23.5974 42.6527 23.5974V23.8122H40.9532V23.5974C41.1681 23.5876 41.3341 23.5192 41.4611 23.3923C41.588 23.2653 41.6466 23.109 41.6466 22.9332V20.0226L41.5978 19.9738C41.5001 19.8761 41.422 19.8078 41.3829 19.7882C41.3243 19.7589 41.2462 19.7492 41.1583 19.7492H40.9532V19.5343H40.9434ZM37.9547 20.2668L37.1538 22.1714H38.7361L37.9547 20.2668ZM38.0426 19.4464H38.2477L39.8495 23.3532C39.9179 23.5095 40.0449 23.5974 40.2402 23.5974H40.3769V23.8122H38.5993V23.5974H38.7458C38.9314 23.5974 39.0584 23.5778 39.1365 23.5388C39.1854 23.5095 39.2147 23.4704 39.2147 23.4118C39.2147 23.3727 39.2049 23.3434 39.1951 23.3044L38.824 22.396H37.0561L36.851 22.9137C36.7924 23.0504 36.7729 23.1579 36.7729 23.2458C36.7729 23.3337 36.8217 23.4216 36.9096 23.4899C36.9975 23.5583 37.1343 23.5876 37.3101 23.5876H37.4566V23.8025H35.845V23.5876C36.0208 23.5876 36.1576 23.5485 36.2552 23.4802C36.3529 23.4118 36.4506 23.2751 36.5385 23.07L38.0426 19.4464ZM32.7098 21.7123V23.363C32.7098 23.4411 32.7391 23.4997 32.7782 23.5388C32.827 23.5778 32.9052 23.5974 33.0321 23.5974H33.5693C33.9307 23.5974 34.1944 23.5192 34.3604 23.3727C34.5362 23.2262 34.6144 22.982 34.6144 22.6695C34.6144 22.3765 34.5265 22.1421 34.3507 21.976C34.1749 21.81 33.9307 21.7221 33.6182 21.7221H32.7098V21.7123ZM32.7098 21.4975H33.5498C33.8135 21.4975 34.0186 21.4291 34.1749 21.2826C34.3311 21.1361 34.4093 20.9017 34.4093 20.5696C34.4093 20.3645 34.3702 20.1984 34.3018 20.091C34.2335 19.9738 34.126 19.8859 33.9795 19.8371C33.8428 19.7882 33.5986 19.7589 33.2568 19.7589C33.0126 19.7589 32.8661 19.7785 32.8075 19.8078C32.7489 19.8371 32.7196 19.8957 32.7196 19.9836V21.4975H32.7098ZM31.3717 19.5343H33.6963C34.1553 19.5343 34.507 19.632 34.7414 19.8273C34.9855 20.0226 35.1027 20.257 35.1027 20.5501C35.1027 20.7942 35.0148 20.9993 34.8488 21.1654C34.6828 21.3314 34.4288 21.4682 34.087 21.5658C34.5069 21.6537 34.8195 21.7905 35.0344 21.9663C35.2395 22.1518 35.3469 22.3765 35.3469 22.6597C35.3469 22.8746 35.2883 23.0602 35.1711 23.2262C35.0539 23.3923 34.8488 23.529 34.5753 23.6364C34.2921 23.7536 33.9795 23.8122 33.6279 23.8122H31.3717V23.5974H31.7429C31.8503 23.5974 31.9382 23.5778 31.9871 23.5388C32.0359 23.4997 32.0652 23.4704 32.0652 23.4216V20.0031C32.0652 19.925 32.0359 19.8664 31.9871 19.8175C31.9382 19.7785 31.8601 19.7589 31.7624 19.7589H31.3717V19.5343ZM36.4408 1.63131C37.2808 1.10389 36.7436 3.9461 36.7241 4.13167C36.4604 5.94834 36.1771 6.41716 37.2515 5.8995C38.1403 5.47952 38.9998 4.37585 38.697 3.53588C38.5212 3.03776 37.6226 2.48104 38.8826 2.88149C41.0411 3.55542 39.4295 5.94834 38.2282 6.7004C36.7631 7.6185 36.5092 7.40363 36.2162 8.37056C35.9915 9.09332 36.1185 9.84539 36.1185 10.5193C36.1185 11.1835 37.6422 10.2068 37.984 8.89798C38.1989 8.09709 40.3379 5.58696 40.8848 5.69439C42.5745 6.00694 38.9607 9.28866 40.1816 9.51331C43.0922 10.0603 42.8773 8.51707 46.159 8.63427C47.4971 8.68311 47.9366 10.9491 47.4678 11.8379C46.0613 14.4945 43.9907 12.7071 44.8502 14.7387C45.2116 15.5982 44.86 16.5846 44.0103 16.1842C42.9457 15.6861 41.6271 16.0572 41.9104 15.5298C42.3303 14.7387 41.9397 12.375 42.7992 11.9746C43.9224 11.4569 44.2935 12.7071 44.4791 12.7657C45.7879 13.1759 46.0906 11.9453 46.2078 11.1444C46.6571 8.14592 43.3852 10.1384 42.7015 10.1384C42.0764 10.1384 41.1974 13.4299 39.3807 14.5726C37.9547 15.4614 36.392 14.8559 36.1576 14.1819C35.9036 13.4494 36.0697 13.0392 37.0464 12.1211C37.7398 11.4765 39.2733 11.369 38.1696 10.8514C37.7887 10.6756 36.2748 11.6718 35.9232 11.9941C35.513 12.3848 35.972 14.3675 36.1087 14.7582C36.4604 15.7349 34.2823 15.1098 34.253 14.2405C34.2335 13.7522 34.1553 13.9671 34.2042 13.801C34.4581 12.9904 33.5498 13.9866 33.4033 14.0159C32.8368 14.1136 32.1433 15.0219 31.7722 15.3735C30.8248 16.2623 29.2132 14.1917 30.6392 13.2931L30.9225 13.0294C31.2643 12.9904 32.0261 11.0077 32.3289 10.4998C33.374 8.73194 34.4386 10.7928 34.5363 8.84915L34.6046 8.38033C34.5362 8.31196 33.1005 8.49753 32.6219 8.04825C30.229 5.79207 33.4619 7.35479 34.6046 6.92504C34.7121 6.83714 34.9465 2.24663 36.4408 1.63131ZM33.5107 11.037L33.413 11.5155C33.1689 12.795 34.2823 12.502 34.2823 10.5681C34.2921 10.0993 33.5595 10.7928 33.5107 11.037ZM40.7969 11.5644C41.0704 10.2849 38.0914 12.1699 37.7594 12.4825C36.7534 13.4299 37.525 13.7913 37.5738 13.8401C38.4235 14.6508 40.5723 12.6485 40.7969 11.5644ZM53.9922 8.3901C54.041 8.3608 54.1777 8.38033 54.207 8.4194C54.3536 8.63427 54.2461 8.66357 54.1484 8.92728C54.0996 9.06402 53.9726 9.31797 53.9629 9.37657C53.9238 9.49377 53.7382 9.85515 53.621 9.96259C53.5234 10.0505 53.455 10.1872 53.455 10.324C53.4745 10.91 53.0057 11.5742 52.8006 11.6425C52.3025 11.789 51.8825 11.5058 51.8337 11.4862C51.7165 11.4276 51.5993 11.3007 51.5602 11.2616C51.2086 10.9198 51.0718 10.4998 51.0035 10.0212C50.9351 9.80632 50.9351 8.88821 51.0132 8.67334C51.1011 8.4194 51.2867 8.29243 51.3551 8.25336C51.6481 8.10685 52.0681 8.29243 52.1462 8.35103C52.4099 8.52684 52.6736 8.75148 52.8983 8.95659C53.1327 9.17146 53.0741 9.11286 53.1913 9.11286C53.3964 9.10309 53.4745 9.00542 53.6308 8.86868C53.8261 8.68311 53.8164 8.62451 53.9922 8.3901ZM62.802 1.78758C63.5639 1.40667 63.5346 5.99717 63.4955 6.29018C63.4271 6.86644 63.3783 8.27289 63.5053 8.96635C63.6322 9.67934 63.4174 10.2751 63.5443 11.0174C63.6615 11.6718 63.8569 14.055 63.9155 14.3187C64.1499 15.2466 64.0717 15.5298 63.7592 16.3209C63.4076 17.2 63.1439 16.5163 62.5188 16.8288C61.5421 17.3172 61.7277 16.9558 61.4346 16.6042C61.3272 16.5358 61.3272 16.3112 61.2491 16.2428C60.7119 15.7056 61.2002 10.9686 60.8584 10.744C60.7119 10.6463 60.624 10.5584 60.4579 10.5193C59.7352 10.3728 60.1356 10.0505 59.7743 9.93329C59.198 9.73795 59.2371 9.74771 59.2859 10.3923C59.3054 10.6658 59.2859 10.9588 59.2859 11.2323C59.2859 12.5997 59.2371 12.0625 59.198 12.5802C59.1492 13.1662 59.2468 12.8732 58.905 13.2248C58.3971 13.7424 57.2446 12.8146 57.3911 11.5546C57.4888 10.6951 57.2739 11.6914 56.3558 10.7733C55.7795 10.197 55.9163 10.9002 55.9163 11.4276C55.9065 14.1331 55.5549 13.4299 55.0763 14.1624C55.0568 14.2015 55.0763 14.1722 55.0372 14.2112C54.6661 14.5922 54.5196 14.4847 54.3047 14.5629C53.8359 14.7289 54.2559 13.7522 54.295 13.5862C54.3536 13.2834 54.3047 12.4336 54.5684 11.3788C54.7931 10.4802 55.4475 5.6651 54.92 5.13768C54.1777 4.39538 55.9553 4.76653 56.0042 4.84466C56.0237 4.8642 56.0432 4.9228 56.0725 4.96187C56.5218 5.41115 56.0823 6.59296 56.1116 7.19852C56.1312 7.5892 55.8381 8.5952 56.3558 8.69288C57.0395 8.81985 56.7953 8.4487 57.2544 7.98965C57.7036 7.54036 57.899 8.18499 57.6646 8.54637C57.5767 8.68311 57.4888 8.87845 57.4009 9.00542C57.2739 9.191 57.2055 10.1482 57.5864 9.95282C57.6548 9.91375 58.9245 5.15721 58.7585 4.58095C58.6706 4.25864 59.325 4.02423 59.6375 4.17074C59.9501 4.32701 59.0906 7.62827 59.4715 8.19476C59.491 8.22406 59.4812 8.22406 59.5008 8.22406C59.7938 8.3022 59.9696 8.32173 60.2431 8.42916C60.9854 8.72218 61.2784 7.72594 61.21 7.04225C60.9268 4.47352 61.4347 5.39162 61.6984 4.31725C61.8156 3.85819 62.2844 3.07683 62.2941 2.60801C62.2844 2.12943 62.0304 1.99269 62.802 1.78758ZM70.6157 5.0693C71.4166 4.1512 72.0709 3.10613 72.3835 1.95362C72.4128 1.82665 72.4616 1.78758 72.5007 1.68015C72.53 1.57271 72.5691 1.47504 72.696 1.47504C73.116 1.46527 73.3114 1.84619 73.4383 1.92432C73.4969 1.96339 73.5165 2.03176 73.5458 2.10013C73.6337 2.2857 73.6239 2.64708 73.5946 2.85219C73.5848 2.91079 73.5067 3.16473 73.4774 3.21357C73.2918 3.51635 72.3444 4.50282 72.3835 4.71769C72.3835 4.75676 72.3835 4.79583 72.403 4.82513C72.4421 4.8935 72.5886 4.87396 72.6667 4.88373C72.7839 4.8935 72.9597 4.85443 73.077 4.8349C73.1746 4.81536 73.2332 4.78606 73.3211 4.74699C73.5458 4.63956 73.7411 4.47352 73.9755 4.37584C74.083 4.33678 74.3662 4.30748 74.5029 4.34654C74.5615 4.35631 74.7276 4.40515 74.7471 4.41492C74.8448 4.45398 75.0304 4.58096 75.1378 4.65909C75.2843 4.7763 75.2941 4.79583 75.2941 4.96187C75.2941 5.45999 73.4383 5.79207 73.0867 5.86044C72.3054 6.03624 71.7779 6.15345 71.104 6.56366C71.0063 6.62226 70.8501 6.73947 70.7231 6.759C70.6547 6.76877 70.5961 6.759 70.5375 6.759C70.4496 6.759 70.3617 6.7297 70.2933 6.7004C70.1468 6.6418 69.639 6.26088 69.6194 6.15345C69.5999 6.05578 69.6096 5.94834 69.6976 5.87997C69.9417 5.70416 70.4105 5.30371 70.6157 5.0693ZM71.8658 8.10685C71.8268 7.68687 71.7096 7.37432 72.0221 7.07155C72.6863 6.42692 73.2918 7.06178 73.663 7.5013C74.4053 8.3901 75.4503 8.58544 73.702 9.31796C73.4872 9.40587 73.7411 10.783 73.7411 10.91C73.7411 11.4862 73.2332 11.6914 72.9988 12.1699C72.4812 13.2345 72.5105 14.6898 73.4579 12.9806C73.9071 12.1699 75.802 9.37657 74.6104 12.2383C73.1063 15.8814 73.4188 18.0399 71.0161 15.6372C70.4496 15.0707 71.8072 13.0978 71.1528 12.5997C70.518 12.1309 70.2054 11.1835 70.9966 11.5742C71.8463 11.9941 71.9049 10.3533 71.7193 10.3533C71.2114 10.3533 69.4436 11.5058 69.2873 11.7304C68.672 12.5997 67.2265 9.83562 67.2265 9.64028C67.2265 8.5366 68.5939 9.84539 69.9613 9.2496C71.2896 8.68311 71.944 8.97612 71.8658 8.10685ZM79.2106 3.77029C79.2692 3.72146 79.3669 3.71169 79.4744 3.71169C80.6757 3.71169 80.4218 4.59072 80.4218 5.45999C80.4413 5.61626 80.3925 6.31949 80.4218 6.46599C80.4218 6.87621 81.2324 7.46223 81.2324 7.95058C81.2324 9.05426 79.6795 9.2789 79.6795 9.3375C79.4548 9.41564 79.0837 9.58167 78.8981 9.70865C78.4879 9.96259 78.2046 10.1872 78.0484 10.3337C77.7065 10.656 77.6674 12.4727 77.6674 12.9904C77.6577 13.1076 77.5112 14.2796 77.8726 14.2601C77.98 14.2601 78.0679 14.2601 78.2144 14.0647C78.7907 13.4885 79.4646 12.6485 79.7674 11.8867C79.8064 11.7695 79.8943 11.7109 79.9236 11.6425C80.3045 10.1189 81.8184 10.2947 82.1408 10.8123C82.2091 10.9881 82.1408 11.1639 82.1408 11.3788C82.1408 11.6816 83.4593 12.8439 83.3226 13.4494C83.3226 14.641 81.7012 14.1331 81.5157 13.9964C81.2617 13.7913 80.3241 12.9513 80.3241 12.7267C80.2557 12.7267 80.158 12.7169 80.0799 12.7657C79.7088 12.9415 79.572 13.3224 79.3571 13.6838C79.2985 13.801 78.986 14.4847 78.9079 14.641C78.8004 14.7973 78.1753 16.8679 76.9154 16.3893C76.5345 16.2526 76.4173 16.1061 76.2708 15.9107C75.8996 15.4224 76.1926 13.3322 76.1926 12.6485C76.2219 12.3262 76.2903 11.6718 76.2903 11.5449C76.3001 11.369 76.3294 10.8905 76.3294 10.783C76.3684 10.5779 76.6126 8.26312 76.6126 7.98965C76.6126 5.65533 77.6088 8.46823 77.6186 8.46823C77.7065 9.32773 78.4683 8.97612 79.0934 8.5952C79.5134 8.33149 79.7771 8.31196 79.1227 6.52459C79.113 6.52459 79.0251 5.55766 78.9176 5.39162C79.0055 5.33302 78.0972 5.32325 77.9702 5.34278C77.6577 5.37208 77.3842 5.51859 77.0228 5.26465C77.0131 4.48328 78.7028 4.16097 79.2106 3.77029ZM90.6967 10.7635C91.3706 9.82585 91.3413 10.4705 91.2534 10.783C90.7455 12.2871 90.9311 12.2676 90.9506 13.6155C90.8725 14.5726 90.9994 14.4847 91.146 14.807C91.2827 15.1196 91.3706 15.3345 91.312 15.5786C90.9799 16.0279 89.7688 16.1744 89.2414 15.8619C89.0265 15.7349 88.7726 15.52 88.8409 15.1684C88.8995 14.8168 88.8702 13.8108 88.6358 13.2834C88.4014 12.756 88.4307 12.8536 88.0596 12.1797C87.6884 11.496 87.7373 10.8123 88.0107 10.5974C88.2842 10.3923 88.9874 9.40587 89.1242 9.16169C89.3488 8.76124 88.333 9.31796 88.2354 9.46447C88.1279 9.61098 87.9814 9.65004 87.5712 9.56214C87.1512 9.484 86.4382 9.16169 86.5652 8.83938C86.7117 8.43893 87.4345 7.71617 87.6298 7.37433C88.294 6.5832 89.0558 5.96787 89.7786 5.22558C90.5111 4.47352 91.7417 2.70568 92.025 2.24663C92.3864 1.67038 92.9138 2.14896 93.0017 2.42244C93.0017 2.42244 93.4705 3.03776 93.617 3.36984C93.7537 3.70192 93.5096 4.39538 93.197 4.67862C92.4938 5.12791 90.6576 6.74924 90.3841 7.57943C90.2962 7.82361 90.2474 7.75524 90.5795 8.01895C91.0287 8.39986 91.2143 8.478 90.9018 9.22029C90.6088 9.92352 89.7883 10.8709 89.4172 11.2714C89.1828 11.5546 89.8469 12.2481 90.0618 12.2481C90.3451 12.2188 90.2181 11.5351 90.6967 10.7635ZM98.2759 4.38561C98.5005 4.67862 98.4419 5.17674 97.9438 5.45022C97.4359 5.7237 96.3615 6.43669 95.4337 6.60273C94.916 6.7004 93.9784 6.77854 93.1482 6.98364C93.0505 7.01295 92.4743 7.18875 92.2008 7.49153C92.0641 7.49153 92.1129 7.35479 92.2496 6.8176C92.6794 5.9581 92.9626 6.04601 93.6951 5.76276C94.5253 5.44045 96.635 4.42468 97.182 4.20981C97.8071 3.95586 98.0512 4.0926 98.2759 4.38561ZM92.3571 8.86868C92.6794 8.86868 95.1602 8.79055 96.8499 7.96035C97.641 7.56967 98.354 6.97388 98.6275 6.98364C98.901 7.00318 100.229 7.66734 99.9656 8.18499C99.7019 8.70264 98.4419 8.89798 98.3443 9.31796C98.1782 9.73795 98.0415 11.0272 98.0903 12.1699C98.0219 13.3224 98.1391 14.4554 98.2661 14.8363C98.3833 15.2173 98.2954 15.4907 98.188 15.7544C98.0805 15.9986 97.9438 16.2037 97.641 16.1842C97.3675 16.2721 97.1722 16.233 96.6155 16.194C95.9123 15.2661 94.7109 15.5884 93.1482 14.9633C93.1482 14.9633 92.8259 14.641 93.4119 14.6801C94.1347 14.7289 96.2443 14.2992 96.4299 13.1857C96.5959 12.2481 96.7132 10.9491 96.8108 10.4412C96.8499 10.2361 96.5569 9.73795 95.7169 9.93329C95.0528 10.0896 94.1249 10.5877 93.3142 10.2947C92.4938 10.0114 92.0836 8.86868 92.3571 8.86868Z" fill="black"/>
<path d="M18.3328 19.2605H20.2569C21.3605 19.241 21.7903 18.821 22.0735 18.3522C22.347 17.8833 22.3763 17.3169 22.3665 17.1996V6.69033C22.3568 5.63549 22.0247 5.22528 21.7219 5.00064C21.4094 4.77599 21.0382 4.75646 20.9699 4.75646H19.9248C19.1141 4.77599 18.8113 5.05924 18.5769 5.42062C18.3621 5.79176 18.3132 6.28012 18.3132 6.53406V19.2605H18.3328ZM20.9308 3.82859H20.9699C21.1164 3.82859 21.5363 3.84813 21.9954 4.0923C20.4522 2.45144 18.4793 1.2208 16.2621 0.576172C15.2464 0.576172 13.7422 0.761745 12.4823 1.60171C11.2321 2.44167 10.1577 3.90673 9.93311 6.7001V9.32743C10.2261 9.15162 10.568 9.04418 10.9293 9.04418H14.5041C15.5687 9.04418 16.4282 9.90368 16.4282 10.9585V10.9683C16.4379 11.0367 16.4379 11.105 16.4379 11.1734V18.9479C16.4379 18.987 16.3989 20.7158 15.4026 22.4934C14.7873 23.6068 13.7618 24.7203 12.1795 25.4039C12.3651 25.4039 12.5409 25.4137 12.7265 25.4137C14.3771 25.4137 15.9594 25.0914 17.4049 24.5152V6.77823C17.4049 6.73917 17.3951 6.65126 17.3951 6.53406C17.3951 6.19221 17.4342 5.55735 17.7858 4.96157C18.1179 4.34624 18.8504 3.81883 19.9345 3.82859H20.9308ZM23.1284 5.46945C23.2358 5.8113 23.3042 6.22151 23.3042 6.69033V17.1996C23.3042 17.4048 23.2846 18.0982 22.8842 18.8112C22.5033 19.5242 21.6438 20.2079 20.2569 20.1884H18.3328V24.1049C22.5326 22.0343 25.4236 17.7271 25.4236 12.7361C25.4236 10.0307 24.5739 7.53029 23.1284 5.46945Z" fill="#E30016"/>
<path d="M1.53342 8.55592C1.29901 8.0871 1.22088 7.61828 1.20134 7.2862C0.429749 8.9173 0 10.7437 0 12.6581C0 14.5724 0.429749 16.3793 1.18181 18.0104V14.5919V14.4357C1.18181 14.1329 1.21111 13.4687 1.53342 12.8241C1.8362 12.1697 2.55896 11.5446 3.66264 11.5544H4.09239V9.79633H3.66264C2.55896 9.82563 1.84597 9.20054 1.53342 8.55592ZM6.35834 12.7557C6.01649 12.5213 5.60627 12.492 5.52814 12.5018H5.01049V22.7572C5.64534 23.2358 6.32903 23.6557 7.0518 24.0171V14.4845C7.0518 13.4101 6.70018 12.9901 6.35834 12.7557ZM14.1622 22.5325C15.1194 21.2042 15.3733 19.6806 15.4319 19.0848C15.4514 18.9187 15.4514 18.8308 15.4514 18.8308V16.0668C15.1584 16.2426 14.8166 16.35 14.4552 16.35H10.8902C9.84517 16.35 8.99543 15.51 8.9759 14.4747C8.9759 14.4552 8.9759 14.4357 8.96613 14.4259V6.56345C9.18101 3.5552 10.4312 1.73853 11.9158 0.752062C12.4041 0.429751 12.9022 0.195342 13.4004 0.0195353C13.1562 0.00976822 12.912 0 12.6581 0C11.0074 0 9.42518 0.322313 7.97966 0.898568V6.92482C7.98943 8.21407 7.47178 9.01497 6.87599 9.40565C6.2802 9.79633 5.70395 9.81586 5.52814 9.81586H5.01049V11.5739H5.51837C5.69418 11.5739 6.2802 11.5935 6.86622 11.9939C7.46201 12.3846 7.97966 13.205 7.9699 14.4943V24.4371C8.52662 24.6618 9.11264 24.8473 9.70843 24.9841C12.0134 24.7106 13.332 23.6753 14.1622 22.5325ZM2.10968 5.65511V6.95413C2.10968 7.17877 2.14875 7.71595 2.36362 8.13593C2.59803 8.55592 2.88127 8.86846 3.6724 8.87823H4.10215V3.34033C3.34032 4.03378 2.67617 4.80538 2.10968 5.65511ZM5.51837 8.888H5.52814C5.59651 8.888 6.00672 8.86846 6.35834 8.63405C6.69041 8.39964 7.04203 7.97966 7.0518 6.92482V1.30878C6.32903 1.66039 5.64534 2.08038 5.01049 2.56873V8.888H5.51837ZM2.36362 13.2441C2.14875 13.6738 2.10968 14.2208 2.10968 14.4454V19.661C2.67617 20.5108 3.34032 21.2921 4.09239 21.9758V12.492H3.66264C2.89104 12.5116 2.59803 12.8241 2.36362 13.2441Z" fill="#EC6519"/>
</svg>
