<svg width="100" height="18" viewBox="0 0 100 18" fill="none" xmlns="http://www.w3.org/2000/svg">
<path d="M79.0289 13.6451C79.1852 13.6451 79.3513 13.6744 79.4978 13.733C79.6541 13.7917 79.7811 13.8698 79.8886 13.9675C80.0742 14.1433 80.211 14.3582 80.3086 14.5927C80.4063 14.8271 80.4552 15.0811 80.4552 15.3449C80.4552 15.5891 80.4161 15.8236 80.3282 16.0385C80.25 16.2534 80.1328 16.4487 79.9765 16.6246L79.9667 16.6344C79.8397 16.7809 79.6932 16.8883 79.5369 16.9665C79.3708 17.0446 79.195 17.0739 78.9996 17.0739C78.8043 17.0739 78.6382 17.0446 78.4819 16.986C78.3256 16.9274 78.1888 16.8297 78.0618 16.7027C77.8958 16.5464 77.7785 16.3511 77.6906 16.1166C77.6027 15.8822 77.5636 15.6282 77.5636 15.3644C77.5636 15.0909 77.6125 14.8467 77.7004 14.622C77.7883 14.4071 77.9251 14.2019 78.1107 14.0163C78.2279 13.8893 78.3744 13.8014 78.5307 13.733C78.6968 13.6744 78.8629 13.6451 79.0289 13.6451ZM28.935 13.6451C29.0913 13.6451 29.2476 13.6744 29.4039 13.7233C29.57 13.7819 29.7263 13.86 29.9021 13.9675L29.7556 14.5341L29.6677 14.5145C29.609 14.2899 29.5113 14.114 29.3844 13.987L29.3746 13.9773C29.2378 13.8503 29.0718 13.7819 28.8959 13.7819C28.7103 13.7819 28.5638 13.8307 28.4563 13.9284C28.3489 14.0261 28.2903 14.1531 28.2903 14.3192C28.2903 14.4657 28.3391 14.5829 28.427 14.6806C28.5149 14.7783 28.6908 14.876 28.9545 14.9834L29.0034 15.003C29.0327 15.0127 29.062 15.0323 29.1011 15.0421L29.1401 15.0616C29.482 15.2081 29.7165 15.3254 29.8239 15.4328L29.8337 15.4426C29.9119 15.5207 29.9705 15.6086 30.0096 15.7063V15.7161C30.0486 15.8236 30.0682 15.9408 30.0682 16.0678C30.0682 16.3511 29.9705 16.5953 29.7653 16.7809C29.5602 16.9665 29.2964 17.0642 28.9838 17.0642C28.7787 17.0642 28.5736 17.0251 28.3879 16.9567L28.3684 16.947C28.173 16.8786 27.9972 16.7711 27.8409 16.6344L28.0167 15.9994L28.1144 16.0189C28.173 16.312 28.2903 16.5367 28.4466 16.693C28.6029 16.8493 28.7982 16.9274 29.0327 16.9274C29.2378 16.9274 29.4039 16.8688 29.5309 16.7516C29.6579 16.6344 29.7165 16.4781 29.7165 16.2925C29.7165 16.1166 29.6676 15.9701 29.5602 15.8626C29.4625 15.7552 29.2574 15.6379 28.9545 15.511L28.9155 15.4914L28.7787 15.4426C28.4954 15.3253 28.3 15.2179 28.1926 15.1104C28.1144 15.0225 28.0558 14.9346 28.0167 14.8369C27.9777 14.7392 27.9581 14.6318 27.9581 14.5243C27.9581 14.2703 28.046 14.0554 28.2316 13.8893C28.427 13.7233 28.6517 13.6451 28.935 13.6451ZM59.0226 13.6451C59.1789 13.6451 59.3352 13.6744 59.4915 13.7233C59.6576 13.7819 59.8139 13.86 59.98 13.9675L59.8334 14.5341L59.7455 14.5145C59.6869 14.2899 59.5892 14.114 59.4622 13.987L59.4524 13.9773C59.3157 13.8503 59.1496 13.7819 58.9738 13.7819C58.7979 13.7819 58.6416 13.8307 58.5342 13.9284C58.4267 14.0261 58.3681 14.1531 58.3681 14.3192C58.3681 14.4657 58.417 14.5829 58.5049 14.6806C58.5928 14.7783 58.7784 14.8858 59.0422 14.9932L59.1594 15.0421C59.1692 15.0421 59.1789 15.0518 59.1887 15.0518L59.2278 15.0714C59.5794 15.2179 59.8041 15.3449 59.9116 15.4426C59.9897 15.5207 60.0581 15.6184 60.0972 15.7161C60.1363 15.8236 60.1558 15.9408 60.1558 16.0678C60.1558 16.3511 60.0581 16.5953 59.853 16.7809C59.6478 16.9665 59.3938 17.0642 59.0715 17.0642C58.8566 17.0642 58.6514 17.0251 58.456 16.9567C58.2607 16.8883 58.0848 16.7809 57.9285 16.6441L58.1044 16.0092L58.202 16.0287C58.2607 16.3218 58.3779 16.5464 58.5342 16.7027C58.6905 16.859 58.8859 16.9372 59.1203 16.9372C59.3255 16.9372 59.4915 16.8786 59.6185 16.7613C59.7455 16.6441 59.8041 16.4878 59.8041 16.3022C59.8041 16.1264 59.7553 15.9799 59.6576 15.8724C59.5599 15.7649 59.3548 15.6477 59.0519 15.5207L59.0129 15.5012L58.9054 15.4621C58.6026 15.3449 58.4072 15.2277 58.2997 15.1104C58.2216 15.0225 58.163 14.9346 58.1239 14.8369C58.0848 14.7392 58.0653 14.6318 58.0653 14.5243C58.0653 14.2703 58.1532 14.0554 58.3388 13.8893C58.5147 13.7233 58.7491 13.6451 59.0226 13.6451ZM56.0725 13.6451C56.2483 13.6451 56.4241 13.6744 56.6098 13.7428C56.7954 13.8112 56.981 13.8991 57.1763 14.0261L57.0493 14.5732H56.9712C56.8637 14.3289 56.7172 14.1336 56.5414 13.9968C56.3558 13.86 56.1506 13.7917 55.9259 13.7917C55.5938 13.7917 55.33 13.9284 55.1542 14.1922C54.9784 14.4559 54.8905 14.8467 54.8905 15.3547C54.8905 15.8724 54.9784 16.2729 55.164 16.5367C55.3496 16.8102 55.6133 16.947 55.9748 16.947C56.2092 16.947 56.3948 16.8981 56.5316 16.8004C56.6684 16.7027 56.7367 16.5757 56.7367 16.4097V15.4133C56.7367 15.3156 56.7172 15.2374 56.6781 15.1788C56.6391 15.1202 56.5902 15.0909 56.5218 15.0811V15.003H57.3522V15.0811C57.3033 15.0811 57.2545 15.1104 57.2252 15.1593C57.1861 15.2081 57.1763 15.2667 57.1763 15.3449V16.3218C57.1763 16.4097 57.1959 16.4781 57.2252 16.5269C57.2545 16.5757 57.3033 16.6051 57.3619 16.6051V16.6637C57.0884 16.8004 56.8247 16.9079 56.5804 16.9763C56.3362 17.0446 56.1018 17.0837 55.8869 17.0837C55.6524 17.0837 55.4473 17.0349 55.2617 16.947C55.0761 16.859 54.91 16.7223 54.7537 16.5367C54.6365 16.3999 54.5486 16.2338 54.4802 16.0385C54.4118 15.8431 54.3825 15.6379 54.3825 15.423C54.3825 15.1593 54.4313 14.9151 54.5192 14.6904L54.529 14.6708C54.6267 14.4364 54.7635 14.241 54.9491 14.0652C55.0858 13.9284 55.2519 13.8307 55.4473 13.7526C55.6524 13.6744 55.8576 13.6451 56.0725 13.6451ZM47.3588 13.7135V13.8014C47.3099 13.8112 47.2709 13.8307 47.2416 13.86C47.2123 13.8893 47.2025 13.9284 47.2025 13.9773C47.2025 13.9968 47.2025 14.0163 47.2123 14.0359V14.0554C47.2123 14.075 47.222 14.0945 47.2318 14.1238L47.2416 14.1433L48.0231 16.5171L48.6873 14.3289C48.6971 14.2996 48.7069 14.2606 48.7069 14.2312C48.7069 14.2019 48.7166 14.1629 48.7166 14.1336C48.7166 14.0554 48.6971 13.987 48.658 13.9187C48.6189 13.8503 48.5701 13.821 48.5115 13.8112H48.5017V13.7233H49.2539V13.8112C49.1562 13.8503 49.0683 13.9284 48.9999 14.0261C48.9315 14.1238 48.8729 14.2606 48.8143 14.4364V14.4462L48.0133 17.0837H47.7398L46.7922 14.2508C46.7531 14.1238 46.7043 14.0261 46.6554 13.948C46.6164 13.8796 46.5577 13.8405 46.5089 13.8112H46.4991V13.7233H47.3588V13.7135ZM87.5082 13.6451C87.684 13.6451 87.8599 13.6744 88.0357 13.7428C88.2213 13.8112 88.4069 13.9089 88.6023 14.0359L88.4362 14.5829L88.3385 14.5634C88.2604 14.3094 88.1432 14.114 87.9868 13.9773C87.8306 13.8405 87.645 13.7721 87.4203 13.7721C87.137 13.7721 86.9025 13.8991 86.7267 14.1531C86.5508 14.4071 86.4629 14.749 86.4629 15.1691C86.4629 15.6477 86.5704 16.0385 86.7951 16.3413C87.0198 16.6441 87.303 16.8004 87.6449 16.8004C87.8403 16.8004 88.0259 16.7516 88.192 16.6539C88.3581 16.5562 88.5144 16.3999 88.6609 16.1948L88.739 16.2534C88.573 16.5367 88.3874 16.7418 88.1725 16.8688C87.9673 17.0056 87.7231 17.0642 87.4398 17.0642C87.01 17.0642 86.6583 16.9176 86.3946 16.6246C86.1308 16.3315 86.0038 15.9408 86.0038 15.4523C86.0038 15.1495 86.0527 14.876 86.1503 14.6318L86.1601 14.6122C86.2578 14.368 86.4043 14.1531 86.5899 13.9773L86.5997 13.9675C86.7072 13.86 86.8439 13.7819 87.0002 13.733C87.1663 13.6647 87.3323 13.6451 87.5082 13.6451ZM25.8481 13.6451C26.0142 13.6451 26.1704 13.6744 26.317 13.733C26.4733 13.7917 26.6003 13.8698 26.7077 13.9675C26.8933 14.1433 27.0301 14.3582 27.1278 14.5927C27.2255 14.8271 27.2743 15.0811 27.2743 15.3449C27.2743 15.5891 27.2352 15.8236 27.1473 16.0385C27.0692 16.2631 26.9422 16.4585 26.7859 16.6344C26.6589 16.7809 26.5124 16.8883 26.3463 16.9665C26.1802 17.0446 26.0044 17.0739 25.809 17.0739C25.6136 17.0739 25.4476 17.0446 25.2913 16.986C25.135 16.9274 24.9982 16.8297 24.8712 16.7027C24.7149 16.5464 24.5879 16.3511 24.5 16.1166C24.4121 15.8822 24.373 15.6282 24.373 15.3644C24.373 15.0909 24.4219 14.8467 24.5098 14.622C24.5977 14.4071 24.7345 14.2019 24.9201 14.0163C25.0373 13.8893 25.1838 13.8014 25.3401 13.733C25.5062 13.6744 25.6722 13.6451 25.8481 13.6451ZM42.3084 13.6451C42.4647 13.6451 42.621 13.6744 42.7773 13.7233C42.9336 13.7819 43.0996 13.86 43.2657 13.9675L43.1192 14.5341L43.0312 14.5145C42.9726 14.2801 42.8749 14.1043 42.7382 13.9773C42.6014 13.8503 42.4354 13.7819 42.2595 13.7819C42.0739 13.7819 41.9371 13.8307 41.8199 13.9284L41.8102 13.9382C41.7027 14.0359 41.6441 14.1629 41.6441 14.3289C41.6441 14.4755 41.6929 14.5927 41.7809 14.6904C41.8688 14.7881 42.0446 14.8858 42.2888 14.9932L42.3474 15.0225C42.3767 15.0323 42.406 15.0518 42.4451 15.0616L42.4842 15.0811C42.8359 15.2277 43.0606 15.3449 43.168 15.4523L43.1778 15.4621C43.2559 15.5403 43.3145 15.6282 43.3536 15.7259V15.7356C43.3927 15.8431 43.4122 15.9603 43.4122 16.0873C43.4122 16.3706 43.3048 16.6148 43.1094 16.8004C42.9042 16.986 42.6503 17.0837 42.3279 17.0837C42.113 17.0837 41.9078 17.0446 41.7125 16.9763C41.5171 16.9079 41.3413 16.8004 41.185 16.6637L41.3608 16.0287L41.4585 16.0482C41.5171 16.3413 41.6343 16.566 41.7906 16.7223C41.9469 16.8786 42.1423 16.9567 42.3767 16.9567C42.5819 16.9567 42.748 16.8981 42.8749 16.7809C43.0019 16.6637 43.0703 16.5074 43.0703 16.3218C43.0703 16.1459 43.0215 15.9994 42.914 15.8919C42.8163 15.7845 42.6112 15.6673 42.2888 15.5305L42.2595 15.5207C42.2302 15.511 42.2009 15.5012 42.1521 15.4817L42.1228 15.4719C41.8395 15.3547 41.6441 15.2472 41.5366 15.1397C41.4585 15.0518 41.3999 14.9639 41.3608 14.8662C41.3217 14.7685 41.3022 14.6611 41.3022 14.5536C41.3022 14.2996 41.3901 14.0847 41.5757 13.9187C41.8004 13.7233 42.0348 13.6451 42.3084 13.6451ZM69.5435 13.7135L71.341 16.2925V14.6708C71.341 14.368 71.3117 14.1531 71.2628 14.0261C71.214 13.8991 71.1261 13.821 71.0088 13.8014V13.7135H71.7219V13.8014C71.634 13.8503 71.5754 13.9284 71.5363 14.0359C71.507 14.1336 71.4875 14.3387 71.4875 14.6318V17.0349H71.3019L69.27 14.1336V16.2925C69.27 16.4781 69.2993 16.6148 69.3482 16.7223C69.397 16.8297 69.4751 16.8883 69.5826 16.9079V16.9958H68.8109V16.9079C68.9183 16.8688 68.9965 16.8004 69.0453 16.7125C69.0942 16.6148 69.1137 16.4878 69.1137 16.3315V14.241C69.1137 14.0945 69.0942 13.987 69.0453 13.9187C69.0062 13.8503 68.9379 13.8112 68.8402 13.8014V13.7135H69.5435ZM94.6882 13.7135L96.4856 16.2925V14.6708C96.4856 14.368 96.4563 14.1531 96.4075 14.0261C96.3586 13.8991 96.2707 13.821 96.1535 13.8014V13.7135H96.8666V13.8014C96.7787 13.8503 96.7201 13.9284 96.681 14.0359C96.6517 14.1336 96.6322 14.3387 96.6322 14.6318V17.0349H96.4465L94.4147 14.1336V16.2925C94.4147 16.4781 94.444 16.6148 94.4928 16.7223C94.5416 16.8297 94.6198 16.8883 94.7273 16.9079V16.9958H93.9751V16.9079C94.0825 16.8688 94.1607 16.8004 94.2095 16.7125C94.2584 16.6148 94.2779 16.4878 94.2779 16.3315V14.241C94.2779 14.0945 94.2584 13.987 94.2095 13.9187C94.1704 13.8503 94.1021 13.8112 94.0044 13.8014V13.7135H94.6882ZM51.6961 13.7135L53.4935 16.2925V14.6708C53.4935 14.368 53.474 14.1531 53.4252 14.0261V14.0163C53.3763 13.8893 53.2884 13.8112 53.1712 13.7917V13.7037H53.8843V13.7917C53.7964 13.8405 53.7378 13.9187 53.7084 14.0261C53.6791 14.1238 53.6596 14.3289 53.6596 14.622V17.0251H53.474L51.4421 14.1238V16.2827C51.4421 16.4683 51.4714 16.605 51.5203 16.7125C51.5691 16.82 51.6472 16.8786 51.7547 16.8981V16.986H50.983V16.9079C51.0904 16.8688 51.1686 16.8004 51.2174 16.7125C51.2663 16.6148 51.2858 16.4878 51.2858 16.3315V14.241C51.2858 14.0945 51.2663 13.987 51.2174 13.9187C51.1783 13.8503 51.11 13.8112 51.0123 13.8014V13.7135H51.6961ZM34.2882 13.6451H34.5715L35.4703 16.4683C35.5191 16.6148 35.568 16.732 35.6168 16.8004C35.6656 16.8688 35.7145 16.9079 35.7633 16.9176V17.0056H34.8939V16.9079C34.9428 16.8981 34.9818 16.8786 35.0014 16.8493C35.0307 16.82 35.0404 16.7809 35.0404 16.7418C35.0404 16.7125 35.0307 16.6539 35.0014 16.5757C35.0014 16.5562 34.9916 16.5464 34.9916 16.5367L34.9818 16.5171L34.806 15.931H33.7021L33.5654 16.3706C33.5556 16.4194 33.5458 16.4585 33.5361 16.4976C33.5263 16.5367 33.5263 16.5757 33.5263 16.6051C33.5263 16.693 33.5458 16.7613 33.5849 16.8102C33.624 16.859 33.6728 16.8981 33.7412 16.9079H33.751V16.9958H32.9695V16.9079C33.0769 16.8688 33.1746 16.8004 33.243 16.693C33.3211 16.5855 33.3895 16.4194 33.4677 16.1752V16.1655L34.2882 13.6451ZM45.3269 13.6451L46.2158 16.439C46.2647 16.5953 46.3135 16.7125 46.3624 16.7907V16.8004C46.4112 16.8786 46.4601 16.9079 46.5187 16.9176V17.0056H45.6493V16.9079C45.6981 16.8981 45.7372 16.8786 45.7567 16.8493C45.786 16.82 45.7958 16.7809 45.7958 16.7418C45.7958 16.7125 45.786 16.6539 45.7567 16.5757C45.7469 16.5562 45.7469 16.5367 45.7372 16.5171L45.5613 15.931H44.4672L44.3305 16.3706C44.3207 16.4194 44.3109 16.4585 44.3012 16.4976C44.2914 16.5367 44.2914 16.5757 44.2914 16.6051C44.2914 16.6832 44.3109 16.7516 44.3403 16.8004V16.8102C44.3793 16.859 44.4282 16.8981 44.5063 16.9079V16.9958H43.7248V16.9079C43.8323 16.8688 43.93 16.8004 43.9983 16.693C44.0667 16.5953 44.1449 16.4292 44.2133 16.1948L45.0338 13.6354H45.3269V13.6451ZM22.429 13.6647C22.9077 13.6647 23.2789 13.7526 23.5427 13.9187C23.8064 14.0847 23.9432 14.3192 23.9432 14.6122C23.9432 14.9053 23.826 15.1397 23.5817 15.296C23.3375 15.4621 22.9956 15.5403 22.5463 15.5403C22.4681 15.5403 22.39 15.5403 22.302 15.5305L22.0676 15.5012V16.5269C22.0676 16.6637 22.0871 16.7613 22.1164 16.8102C22.1457 16.8688 22.2044 16.8981 22.2727 16.9079V16.9958H21.4033V16.9079C21.4717 16.9079 21.5303 16.8786 21.5596 16.8102C21.5889 16.7516 21.6085 16.6539 21.6085 16.5171V14.2019C21.6085 14.0554 21.5889 13.948 21.5596 13.8893C21.5303 13.8307 21.4717 13.7917 21.4033 13.7917V13.7037L21.9504 13.6744H21.9894C22.0774 13.6647 22.1555 13.6647 22.2337 13.6647H22.429ZM98.4491 13.6451H98.7324L99.6312 16.4683C99.68 16.6148 99.7288 16.732 99.7777 16.8004C99.8265 16.8786 99.8754 16.9079 99.934 16.9176V17.0056H99.0646V16.9079C99.1134 16.8981 99.1525 16.8786 99.172 16.8493C99.2013 16.82 99.2111 16.7809 99.2111 16.7418C99.2111 16.7125 99.2013 16.6539 99.172 16.5757L99.1623 16.5269L98.9864 15.931H97.8826L97.7458 16.3706L97.7165 16.4878V16.4976C97.7067 16.5367 97.7067 16.5757 97.7067 16.6051C97.7067 16.6832 97.7262 16.7516 97.7556 16.8004V16.8102C97.7946 16.859 97.8435 16.8981 97.9216 16.9079V16.9958H97.1401V16.9079C97.2476 16.8688 97.3453 16.8004 97.4234 16.693C97.5016 16.5855 97.57 16.4097 97.6579 16.1557L98.4491 13.6451ZM93.5159 13.7135V13.8014C93.4476 13.8014 93.3889 13.8307 93.3596 13.8991C93.3303 13.9577 93.3108 14.0554 93.3108 14.2019V16.5171C93.3108 16.6637 93.3303 16.7613 93.3596 16.82C93.3889 16.8786 93.4476 16.9079 93.5159 16.9176V17.0056H92.6465V16.9079C92.7247 16.8981 92.7735 16.8688 92.8028 16.8102C92.8321 16.7516 92.8517 16.6441 92.8517 16.5074V14.1824C92.8517 14.0456 92.8321 13.948 92.8028 13.8893C92.7735 13.8307 92.7149 13.7917 92.6465 13.7917V13.7037H93.5159V13.7135ZM73.1286 13.7135V13.8014C73.0603 13.8014 73.0017 13.8307 72.9723 13.8991C72.943 13.9577 72.9235 14.0652 72.9235 14.2117V15.6379L73.5487 14.9346L73.5975 14.8858C73.8613 14.5829 74.0371 14.3778 74.1153 14.2703V14.2606C74.1934 14.1531 74.2325 14.0652 74.2325 13.9968C74.2325 13.9382 74.213 13.8893 74.1934 13.86C74.1641 13.8307 74.125 13.8112 74.0664 13.8014V13.7135H74.9652V13.8014C74.887 13.821 74.7991 13.86 74.7014 13.9382L74.6916 13.948C74.5939 14.0261 74.4279 14.2019 74.1837 14.4657L73.6952 15.0127L74.4572 16.3022L74.4669 16.3218C74.4865 16.3511 74.506 16.3901 74.5256 16.4292L74.5353 16.4487C74.7112 16.7516 74.8479 16.9079 74.9554 16.9176V17.0056H74.0176V16.9079C74.0567 16.9079 74.086 16.8981 74.1153 16.8688C74.1446 16.8395 74.1544 16.8102 74.1544 16.7613C74.1544 16.7223 74.1446 16.6734 74.1153 16.6148L74.1055 16.6051C74.0762 16.5464 74.0274 16.4488 73.9492 16.3218L73.3729 15.3351L72.9137 15.8431V16.5269C72.9137 16.6637 72.9333 16.7613 72.9626 16.8102C72.9919 16.8688 73.0505 16.8981 73.1189 16.9079V16.9958H72.2495V16.9079C72.3178 16.9079 72.3764 16.8786 72.4058 16.8102C72.4351 16.7516 72.4546 16.6441 72.4546 16.5074V14.2019C72.4546 14.0554 72.4351 13.948 72.4058 13.8893C72.3764 13.8307 72.3178 13.7917 72.2495 13.7917V13.7037H73.1286V13.7135ZM64.0242 13.6842C64.4052 13.6842 64.7275 13.7624 64.9718 13.9187C65.216 14.075 65.3332 14.2703 65.3332 14.5048C65.3332 14.6806 65.2648 14.8271 65.1378 14.9444L65.1281 14.9541C64.9913 15.0811 64.7862 15.1691 64.5224 15.2374C64.8155 15.296 65.0401 15.4035 65.2062 15.5598C65.3723 15.7259 65.4602 15.9115 65.4602 16.1361C65.4602 16.4194 65.343 16.6246 65.1183 16.7809C64.8936 16.9274 64.5615 16.9958 64.1317 17.0056H62.9301V16.9079C62.9985 16.9079 63.0571 16.8786 63.0864 16.8102C63.1157 16.7516 63.1353 16.6539 63.1353 16.5171V14.2117C63.1353 14.0652 63.1255 13.9675 63.0864 13.8991C63.0571 13.8405 62.9985 13.8014 62.9301 13.8014V13.7135L63.6335 13.694H63.9851C64.0047 13.6842 64.0144 13.6842 64.0242 13.6842ZM50.5238 13.7135V13.8014C50.4555 13.8014 50.3968 13.8307 50.3675 13.8991C50.3382 13.9577 50.3187 14.0652 50.3187 14.2117V16.5367C50.3187 16.6734 50.3382 16.7613 50.3675 16.82C50.3968 16.8786 50.4555 16.9079 50.5238 16.9176V17.0056H49.6544V16.9079C49.7326 16.8981 49.7814 16.8688 49.8107 16.8102C49.84 16.7516 49.8596 16.6441 49.8596 16.5074V14.1824C49.8596 14.0456 49.84 13.948 49.8107 13.8893C49.7814 13.8307 49.7228 13.7917 49.6544 13.7917V13.7037H50.5238V13.7135ZM37.0919 13.7135V13.8014C37.0235 13.8014 36.9649 13.8307 36.9356 13.8991C36.9063 13.9577 36.8867 14.0554 36.8867 14.2019V16.5269C36.8867 16.6734 36.9063 16.7613 36.9551 16.7907C36.9942 16.82 37.0919 16.8395 37.2482 16.8395H37.2872C37.5119 16.8395 37.6682 16.8297 37.7757 16.8102C37.8831 16.7907 37.9808 16.7516 38.0687 16.7027C38.1274 16.6734 38.186 16.6246 38.2446 16.5562L38.2543 16.5464C38.3227 16.4781 38.3911 16.3901 38.4693 16.2827L38.5669 16.312L38.4009 16.9958H36.2322V16.9079C36.3006 16.8981 36.3592 16.8688 36.3885 16.8102C36.4178 16.7516 36.4374 16.6539 36.4374 16.5171V14.2019C36.4374 14.0554 36.4178 13.9577 36.3885 13.8893C36.3592 13.8307 36.3006 13.7917 36.2322 13.7917V13.7037H37.0919V13.7135ZM83.249 13.7135L83.3076 14.3485L83.2295 14.368C83.1611 14.1824 83.0537 14.0554 82.9267 13.987C82.7997 13.9187 82.575 13.8796 82.2526 13.8796H82.2135C82.0768 13.8796 81.9693 13.8796 81.8912 13.8991C81.8032 13.9089 81.7446 13.9284 81.7251 13.948C81.7153 13.9577 81.7153 13.9675 81.7056 13.987C81.6958 14.0066 81.6958 14.0261 81.6958 14.0554V15.0811H82.1745C82.4187 15.0811 82.5945 15.0518 82.6922 15.003C82.7899 14.9541 82.8583 14.8662 82.8876 14.7392H82.9657V15.5305H82.8876C82.8485 15.423 82.7899 15.3449 82.7117 15.296C82.6336 15.257 82.4773 15.2277 82.2331 15.2277H81.686V16.5171C81.686 16.6637 81.7056 16.7613 81.7349 16.82C81.7642 16.8786 81.8228 16.9079 81.8912 16.9176V17.0056H81.0315V16.9079C81.0999 16.9079 81.1585 16.8786 81.1878 16.8102C81.2171 16.7516 81.2367 16.6539 81.2367 16.5171V14.2019C81.2367 14.0554 81.2171 13.948 81.1878 13.8893C81.1585 13.8307 81.0999 13.7917 81.0315 13.7917V13.7037H83.249V13.7135ZM90.1262 13.7135V13.8014C90.0578 13.8014 89.9992 13.8307 89.9699 13.8893V13.8991C89.9406 13.9577 89.9211 14.0554 89.9211 14.2019V15.1104H91.3864V14.2117C91.3864 14.0652 91.3668 13.9675 91.3375 13.8991C91.3082 13.8405 91.2496 13.8014 91.1714 13.8014V13.7135H92.0409V13.8014C91.9627 13.8014 91.9139 13.8405 91.8748 13.8991C91.8455 13.9577 91.826 14.0554 91.826 14.2019V16.5367C91.826 16.6148 91.8357 16.6734 91.8455 16.7125C91.8553 16.7613 91.8748 16.8004 91.8943 16.8395C91.9139 16.8688 91.9334 16.8786 91.9529 16.8981C91.9725 16.9079 92.0018 16.9176 92.0409 16.9176V17.0056H91.1714V16.9176C91.2398 16.9176 91.2984 16.8786 91.3278 16.82C91.3571 16.7613 91.3766 16.6539 91.3766 16.5171V15.2765H89.9113V16.5171C89.9113 16.6539 89.9308 16.7613 89.9601 16.82C89.9894 16.8786 90.048 16.9079 90.1164 16.9176V17.0056H89.247V16.9079C89.3154 16.9079 89.374 16.8786 89.4033 16.8102C89.4326 16.7516 89.4522 16.6539 89.4522 16.5171V14.2019C89.4522 14.0554 89.4424 13.9577 89.4033 13.8893C89.374 13.8307 89.3154 13.7917 89.247 13.7917V13.7037H90.1262V13.7135ZM33.0574 13.7135L33.2332 14.3778L33.1355 14.4169C33.0281 14.2117 32.9011 14.075 32.7741 13.987C32.6471 13.9089 32.4517 13.8698 32.2075 13.8698C32.1587 13.8698 32.1196 13.8796 32.1001 13.8991C32.0805 13.9187 32.0805 13.948 32.0805 14.0066V16.5074C32.0805 16.6539 32.1001 16.7516 32.1294 16.8102C32.1587 16.8688 32.2173 16.9079 32.2857 16.9079V16.9958H31.4065V16.9079C31.4749 16.9079 31.5335 16.8688 31.5628 16.8102C31.5921 16.7516 31.6116 16.6539 31.6116 16.5171V14.0066C31.6116 13.948 31.6019 13.9187 31.5921 13.8991C31.5725 13.8796 31.5432 13.8698 31.4944 13.8698C31.2404 13.8698 31.0548 13.9089 30.9278 13.987C30.8008 14.0652 30.6738 14.2117 30.5664 14.4071L30.4687 14.368L30.6348 13.7037H33.0574V13.7135ZM67.3456 13.6451L68.2345 16.439L68.2443 16.4585C68.2931 16.6051 68.342 16.7223 68.3908 16.7907C68.4397 16.8688 68.4885 16.8981 68.5471 16.9079V16.9958H67.6777V16.9079C67.7265 16.8981 67.7656 16.8786 67.7949 16.8493C67.8242 16.82 67.834 16.7809 67.834 16.7418C67.834 16.7125 67.8242 16.6539 67.7949 16.5855L67.7852 16.5367V16.5171L67.6093 15.931H66.5055L66.3687 16.3706C66.3589 16.4194 66.3492 16.4585 66.3394 16.4976C66.3296 16.5367 66.3296 16.5757 66.3296 16.6051C66.3296 16.6832 66.3492 16.7516 66.3785 16.8004V16.8102C66.4175 16.859 66.4664 16.8981 66.5445 16.9079V16.9958H65.763V16.9079C65.8705 16.8688 65.9682 16.8004 66.0463 16.693C66.1245 16.5855 66.1929 16.4097 66.2808 16.1557L67.0818 13.6354H67.3456V13.6451ZM25.8285 13.7624C25.5257 13.7624 25.301 13.8991 25.135 14.1824C24.9689 14.4657 24.8907 14.8564 24.8907 15.3742C24.8907 15.9017 24.9689 16.3022 25.1252 16.5562C25.2815 16.82 25.5159 16.947 25.8285 16.947C26.1509 16.947 26.3854 16.8102 26.5319 16.5464C26.6784 16.2827 26.7566 15.8626 26.7566 15.296C26.7566 14.7881 26.6784 14.4071 26.5221 14.1433C26.3756 13.8893 26.1411 13.7624 25.8285 13.7624ZM79.0094 13.7624C78.7163 13.7624 78.4819 13.8991 78.3158 14.1824C78.1498 14.4657 78.0716 14.8564 78.0716 15.3742V15.4035C78.0716 15.9212 78.1498 16.3022 78.3061 16.5562C78.4624 16.82 78.6968 16.947 79.0094 16.947C79.3318 16.947 79.5662 16.8102 79.7128 16.5464C79.8593 16.2827 79.9374 15.8724 79.9374 15.3156V15.296C79.9374 14.7881 79.8593 14.4071 79.703 14.1433C79.5565 13.8893 79.322 13.7624 79.0094 13.7624ZM64.0926 15.3058H63.5846V16.5171C63.5846 16.6734 63.6139 16.7711 63.6628 16.8102C63.7116 16.8493 63.8484 16.8688 64.0535 16.8688C64.3759 16.8688 64.6103 16.8102 64.7666 16.6832C64.9229 16.5562 65.0011 16.3608 65.0011 16.0971C65.0011 15.8333 64.9229 15.6379 64.7764 15.511C64.6201 15.3742 64.3954 15.3058 64.0926 15.3058ZM67.072 14.1433L66.5543 15.7649H67.5507L67.072 14.1433ZM98.4491 14.1433L97.9314 15.7649H98.9278L98.4491 14.1433ZM34.298 14.1433L33.7803 15.7649H34.7767L34.298 14.1433ZM45.0436 14.1433L44.5259 15.7649H45.5223L45.0436 14.1433ZM22.5658 13.7917C22.3802 13.7917 22.2434 13.8112 22.175 13.86C22.1067 13.9089 22.0676 13.9968 22.0676 14.1238V15.3742C22.1164 15.384 22.175 15.3937 22.2434 15.3937C22.302 15.4035 22.3704 15.4035 22.4388 15.4035C22.7905 15.4035 23.0445 15.3351 23.2203 15.2081C23.3961 15.0714 23.4743 14.876 23.4743 14.6025C23.4743 14.3485 23.3961 14.1433 23.2398 13.9968C23.0835 13.86 22.8589 13.7917 22.5658 13.7917ZM64.0633 13.821C63.8679 13.821 63.7311 13.8405 63.6725 13.8893C63.6139 13.9382 63.5748 14.0359 63.5748 14.2019V15.1691H63.8581C64.2293 15.1691 64.4931 15.1202 64.6396 15.0127C64.7959 14.9053 64.8741 14.7392 64.8741 14.5048C64.8741 14.2801 64.8057 14.114 64.6592 13.9968C64.5322 13.8796 64.327 13.821 64.0633 13.821ZM24.5195 1.18025L24.5488 1.19002L24.5782 1.19979C24.9787 1.29748 25.1838 1.4147 25.2131 1.5417C25.2131 1.59054 25.174 1.65892 25.1057 1.73707L25.0959 1.74684C25.0177 1.82499 24.9689 1.90314 24.9396 1.98129V2.02036L24.9298 2.06921C24.8614 2.59672 24.8712 2.88001 24.9396 2.92885C26.6784 2.6651 27.7041 3.007 28.007 3.95457C27.5283 4.26716 27.1669 4.64815 26.9129 5.09751C26.864 5.2245 26.825 5.42964 26.7956 5.6934V5.7227C26.7956 5.83016 26.7859 5.88877 26.7566 5.88877H26.6198C26.2095 5.88877 25.8969 5.89854 25.6918 5.92785C25.389 5.92785 25.1252 5.95715 24.9005 6.006C24.8517 6.0353 24.8028 6.45536 24.7442 7.26616V7.36385C24.6758 8.18442 24.6563 8.85846 24.6758 9.38597C24.7051 9.46412 24.7247 9.62042 24.754 9.85487L24.7735 9.95256L24.7833 10.0209C24.8126 10.1577 24.8224 10.2261 24.8224 10.2456C24.5977 10.5387 24.3535 10.5484 24.0995 10.2847V10.2163C24.0995 10.0112 24.119 9.72788 24.1386 9.38597L24.1483 9.27852V9.1906C24.1679 8.84869 24.1776 8.57517 24.1776 8.37003V8.32118C24.1776 8.02812 24.1386 7.56899 24.0604 6.93402L24.0506 6.85587L24.0409 6.72888C24.0018 6.39674 23.992 6.18183 23.992 6.07438C23.7869 6.02553 23.3766 6.14276 22.7416 6.42605C22.6439 6.4749 22.5267 6.36744 22.3997 6.11345C22.1946 5.74224 21.9992 5.42964 21.7941 5.16589C21.6182 4.93144 21.4912 4.63838 21.4131 4.29647V4.2574C21.3936 3.89595 21.4424 3.70058 21.5694 3.67127H21.628C21.6866 3.67127 21.7941 3.6615 21.9406 3.65174L22.1848 3.6322C22.6049 3.60289 23.1421 3.45636 23.826 3.18284L23.8846 3.15353C23.9627 3.12423 23.9725 2.74325 23.9236 2.01059V1.2584C23.9627 1.13141 24.1679 1.1021 24.5195 1.18025ZM77.0361 7.39315C77.2608 7.39315 77.5929 7.53968 78.0228 7.82298C78.0521 7.85228 78.0814 7.86205 78.14 7.86205C78.2865 7.9402 78.3647 8.03789 78.3647 8.13558L78.3451 8.14534L78.3354 8.15511C78.2279 8.20396 78.1791 8.23326 78.1791 8.26257L78.1693 8.29187L78.1595 8.33095C78.1107 8.46771 78.0423 8.66309 77.9544 8.93661L77.9348 8.99522L77.9251 9.0343C77.7102 9.6888 77.5246 10.1675 77.3585 10.4703C77.3585 10.5191 77.2608 10.4703 77.0557 10.314L77.0361 10.2945L77.0166 10.2847C76.9775 10.2554 76.958 10.2554 76.9775 10.2749C76.8017 10.1675 76.6649 10.0502 76.5575 9.92325C76.4402 9.95256 76.2839 9.96233 76.0983 9.96233H75.9909C75.8053 9.96233 75.649 9.97209 75.5415 10.0014H75.4536L75.4048 10.0112H75.3754C75.0335 10.06 74.7991 10.1284 74.6526 10.1968C74.5549 10.1479 74.2911 9.80602 73.8613 9.17106L73.8515 9.14175C73.705 8.83892 73.6366 8.61424 73.6366 8.45794C73.6659 8.37979 73.6757 8.26257 73.6757 8.08673V7.82298C74.9554 7.55922 76.0788 7.42246 77.0361 7.39315ZM47.5542 2.44042C47.9058 2.44042 48.1598 2.47949 48.3063 2.55764C48.5115 2.63579 48.5408 2.76278 48.4236 2.94839L48.3063 3.18284L48.2868 3.22191C48.0914 3.59312 47.9547 3.91549 47.857 4.16948C47.8081 4.29647 47.8179 4.443 47.8961 4.5993C48.4529 5.48825 48.6287 6.32836 48.4236 7.10986C48.3747 7.45177 47.8472 7.35408 46.841 6.83634C46.7434 6.75819 46.6652 6.72888 46.6164 6.75819C46.5675 6.78749 46.5284 6.87541 46.4991 7.03171C46.421 7.60806 46.3721 8.19419 46.3526 8.79985C46.3526 9.2199 46.3917 9.71811 46.4698 10.2945C46.4991 10.4215 46.3526 10.4508 46.0595 10.3726L46.04 10.3628C45.8251 10.2847 45.7372 10.1968 45.7958 10.0893L45.8056 10.0405L45.8153 9.99163C45.8642 9.54227 45.8935 9.04407 45.9228 8.48725V8.31141C45.9423 7.71552 45.9423 7.26616 45.913 6.96333C45.8935 6.90472 45.8739 6.72888 45.8739 6.42605V4.17925C45.8446 3.83734 45.7763 3.57359 45.6493 3.39775C45.5223 3.24145 45.5613 3.12423 45.7567 3.04608L45.8153 3.02654C46.6261 2.68463 47.2123 2.48926 47.5542 2.44042ZM66.5934 1.26817C66.8962 1.26817 67.1111 1.32678 67.2381 1.43424C67.3163 1.49285 67.2674 1.60031 67.0818 1.76637C67.0037 1.79568 66.945 2.32319 66.8962 3.35867C67.0232 3.35867 67.199 3.30006 67.4237 3.19261C67.58 3.134 67.6777 3.134 67.7265 3.19261C67.7461 3.22191 67.7656 3.35867 67.7656 3.62243V3.65174C67.7656 3.76896 67.8047 3.80804 67.8731 3.77873C68.0294 3.64197 68.1271 3.45636 68.1759 3.23168C68.3517 3.14376 68.5373 3.24145 68.7425 3.52474C68.762 3.58336 68.7425 3.64197 68.6643 3.69081L68.6448 3.71035L68.6253 3.72989L68.6155 3.73966C68.4592 3.85688 68.2834 4.06202 68.088 4.37462L68.0782 4.39416L68.0684 4.4137C67.9121 4.64815 67.8535 4.80444 67.9024 4.88259C68.0294 4.82398 68.1857 4.79468 68.3615 4.79468C68.635 4.68722 68.8402 4.66768 68.9672 4.7556C69.1137 4.86306 69.1918 5.0975 69.1918 5.45895V5.48826C69.1918 5.64455 69.1625 5.7227 69.1137 5.7227C68.9867 5.7227 68.7718 5.65432 68.469 5.51756L68.4592 5.50779L68.4494 5.49802C68.3908 5.44918 68.342 5.42964 68.3224 5.42964C68.0685 5.34172 67.8145 5.36126 67.5702 5.46872C67.3456 5.58594 67.0232 5.85947 66.6227 6.30883L66.7008 6.28929L66.8083 6.25998C67.1111 6.1916 67.4042 6.12322 67.6777 6.05484C68.0587 5.99623 68.2736 6.09391 68.3224 6.3479C68.2248 6.86564 68.1759 7.39315 68.1661 7.91089V9.41528C68.1173 9.77672 68.0391 9.97209 67.9415 10.0014C67.6679 9.91348 67.2576 9.61065 66.7301 9.07337L66.6324 9.14175L66.5641 9.1906C66.4566 9.26875 66.3882 9.30782 66.3492 9.32736C66.271 9.35667 66.1831 9.36643 66.0854 9.36643C66.0073 9.28828 65.9486 9.14175 65.8998 8.92684L65.89 8.9073L65.8509 7.13917L65.8412 7.14894L65.8216 7.17824C65.7435 7.2857 65.6263 7.442 65.47 7.64714L65.4504 7.67645L65.4309 7.70575C65.2062 8.05743 65.0011 8.31141 64.835 8.47748L64.8252 8.48725C64.6201 8.68262 64.2587 8.86823 63.7311 9.0343C63.6823 9.00499 63.6725 8.96592 63.6921 8.9073L63.7018 8.89754L63.7214 8.878C63.8777 8.68262 64.1317 8.41887 64.4931 8.06719L64.6299 7.91089C64.6396 7.90113 64.6396 7.90113 64.6396 7.89136L64.6787 7.85228C65.1964 7.32477 65.7533 6.6605 66.3492 5.86923C66.4273 5.75201 66.4371 5.67386 66.3882 5.61525C65.9096 5.64455 65.5286 5.75201 65.2551 5.95715L65.2453 5.96692C65.0792 6.09391 64.9718 6.12322 64.9132 6.0353C64.835 5.95715 64.7471 5.83993 64.6494 5.70316C64.3466 6.06461 64.161 6.53351 64.0828 7.09032C64.1317 7.14894 64.1805 7.1587 64.2293 7.1294C64.4345 7.07079 64.6494 6.8168 64.8741 6.37721V6.35767C64.9229 6.26975 64.9425 6.29906 64.9425 6.45536C64.9425 6.93402 64.6299 7.48107 63.9949 8.0965C63.7702 7.97928 63.6432 7.7546 63.6139 7.42246C63.6921 7.10986 63.7311 6.84611 63.7311 6.62143V6.58235C63.7018 6.29906 63.6139 6.14276 63.4674 6.11345C63.3697 6.11345 63.2525 6.17207 63.1255 6.27952C63.0766 6.30883 63.0376 6.42605 63.0083 6.65073V6.86564C63.0083 7.11963 62.979 7.49084 62.9301 7.96951V8.0965C62.9301 8.64355 62.9008 9.05383 62.852 9.31759C62.852 9.3469 62.7543 9.35667 62.5491 9.35667H62.5394C62.344 9.35667 62.2658 9.29805 62.2854 9.1906C62.4124 8.85846 62.4612 8.54586 62.4417 8.26257V8.21373C62.4417 7.68621 62.4026 7.07079 62.3244 6.36744C62.3244 6.27952 62.2658 6.24044 62.1388 6.24044C62.0412 6.26975 61.8849 6.37721 61.6797 6.57258L61.6699 6.58235L61.6602 6.59212C61.6016 6.64096 61.5625 6.67027 61.5332 6.69957C61.4355 6.78749 61.3183 6.85588 61.1913 6.91449C61.0936 6.94379 61.0448 6.91448 61.0448 6.82657C61.0936 6.6605 61.2987 6.27952 61.6504 5.6934L61.7579 5.51756C61.8067 5.43941 61.8458 5.37103 61.8751 5.32219C62.1779 4.76537 62.5198 3.86665 62.9008 2.63579L62.9106 2.60648L62.9203 2.57718C63.018 2.30365 63.0864 2.21573 63.1255 2.29388C63.3502 2.3525 63.5455 2.49903 63.7214 2.74325L63.7311 2.75302V2.79209C63.78 2.8507 63.78 2.89955 63.7311 2.95816C63.526 3.12423 63.2915 3.4759 63.0083 4.01318C62.9887 4.04248 62.9692 4.07179 62.9692 4.1011C62.891 4.23786 62.8031 4.46254 62.7054 4.77514L62.6957 4.81421L62.6761 4.87282C62.637 4.96074 62.6175 5.02912 62.598 5.07797C62.5687 5.41987 62.6859 5.5664 62.9399 5.5371C63.3697 5.40034 63.78 5.21473 64.1903 4.99005C64.3661 4.88259 64.4931 4.86306 64.5713 4.95098C64.6494 5.00959 64.7276 5.15612 64.7959 5.4101C65.1769 5.4101 65.6263 5.32219 66.1635 5.15612C66.2417 5.15612 66.271 4.99982 66.271 4.69699C66.2222 4.58953 66.1342 4.54069 66.0073 4.57C65.7337 4.65791 65.5677 4.65791 65.5188 4.57C65.5188 4.51138 65.4993 4.43323 65.4407 4.31601L65.4309 4.27694L65.4211 4.23786C65.3918 4.12063 65.3723 4.05225 65.3723 4.02295C65.343 3.82757 65.3723 3.72989 65.4504 3.72989H65.47C65.5579 3.72989 65.7826 3.70058 66.1342 3.64197C66.2319 3.59313 66.2808 3.54428 66.2808 3.51497V3.41729C66.3296 2.40134 66.3785 1.73707 66.4273 1.4147C66.4175 1.32678 66.4664 1.26817 66.5934 1.26817ZM76.8798 7.7839C76.831 7.81321 76.7333 7.81321 76.577 7.7839C76.3719 7.7839 76.2546 7.82298 76.196 7.90113C76.1667 7.94997 76.1569 8.05743 76.1569 8.21373C76.1276 8.29188 76.1667 8.33095 76.2644 8.33095H76.2839C76.3328 8.33095 76.4891 8.31141 76.7626 8.29187C76.8114 8.32118 76.8212 8.37002 76.8017 8.44817V8.57517C76.8505 8.68262 76.8505 8.77054 76.8017 8.84869L76.5477 8.86823L76.323 8.878C76.2351 8.88777 76.1862 8.88777 76.1667 8.88777C76.0886 8.88777 76.0495 8.92684 76.0495 9.00499C76.0006 9.05383 75.9713 9.15152 75.9713 9.27852C75.9713 9.35667 76.0202 9.39574 76.1179 9.39574H76.1374C76.1765 9.39574 76.2839 9.3762 76.4695 9.35667C76.5184 9.38597 76.5575 9.51297 76.5868 9.74741L76.6258 9.73764L76.6649 9.72788C76.8603 9.67903 76.9482 9.64973 76.9287 9.63019C77.1534 9.16129 77.2706 8.70216 77.2706 8.2528C77.212 7.99881 77.085 7.84251 76.8798 7.7839ZM36.1052 1.95198C36.7597 1.95198 37.3361 2.0692 37.8441 2.30365C37.9906 2.3818 38.0394 2.49903 38.0004 2.65533V2.74325C37.8734 3.06561 37.8148 3.38798 37.8148 3.72989V3.77873C37.8343 4.02295 37.8441 4.43323 37.8441 4.99005C37.8441 6.20137 37.8148 7.43223 37.7659 8.66309C37.7659 8.79985 37.7952 8.99522 37.8441 9.25898V9.27852C37.8636 9.33713 37.8734 9.38597 37.8734 9.40551C37.8734 9.62042 37.7561 9.69857 37.5315 9.63996C36.6718 9.32736 36.0857 8.91707 35.7536 8.41887L35.7438 8.4091H35.7536C35.6949 8.32118 35.6656 8.2528 35.6949 8.23326C35.7438 8.20396 35.8219 8.2235 35.9196 8.27234C36.0466 8.33095 36.1736 8.3798 36.3006 8.42864L36.3201 8.43841L36.3397 8.44817C36.4276 8.48725 36.4862 8.50679 36.5351 8.50679C36.8867 8.63378 37.0333 8.50679 36.9844 8.11604V7.73506C36.9551 5.74224 36.9063 4.22809 36.8379 3.21214C36.789 2.71394 36.496 2.45995 35.9685 2.45995C34.4641 2.43065 33.5068 2.76278 33.0965 3.44659C32.7741 4.34532 32.5787 5.55663 32.5299 7.08055C32.5299 7.39315 32.608 7.56899 32.7546 7.5983H32.7741C32.9109 7.5983 33.1746 7.53968 33.5849 7.442L33.7314 7.41269C33.9561 7.37362 34.1222 7.34431 34.2199 7.32477L34.2492 7.315H34.2687C34.5715 7.26616 34.9916 7.22709 35.5386 7.20755L35.5875 7.19778H35.6266C35.7829 7.17824 35.9099 7.16847 35.988 7.16847C36.2127 7.09032 36.3494 7.11963 36.3983 7.24662L36.4178 7.30524C36.5057 7.63737 36.5546 7.84251 36.5546 7.92066C36.5546 8.07696 36.496 8.13558 36.369 8.07696C35.9392 7.89136 35.1479 7.88159 33.9854 8.03789C33.3114 8.11604 32.8522 8.2528 32.6276 8.42864L32.608 8.43841L32.5885 8.44817C32.4029 8.58494 32.2759 8.64355 32.2075 8.62401C32.1294 8.59471 32.0708 8.49702 32.0219 8.31141C31.9438 7.9109 31.934 6.98287 31.9828 5.50779V5.31242C32.0317 4.08156 32.1098 3.30006 32.1977 2.97769C32.2466 2.76278 32.3833 2.64556 32.6178 2.61625H32.6569C32.862 2.58695 33.2332 2.48926 33.751 2.34273L33.8194 2.32319L33.8877 2.30365C34.9916 2.0399 35.7242 1.92267 36.1052 1.95198ZM56.0139 0.945803L56.0334 0.955572C56.346 1.04349 56.473 1.14118 56.4339 1.2584V1.26817C56.3558 1.4147 56.2874 1.73707 56.2092 2.22551L56.1995 2.28412C56.0725 2.95816 55.9455 3.52474 55.799 3.98387C55.799 4.1011 55.8576 4.15971 55.9846 4.15971L56.0334 4.1304L56.1115 4.08156C56.6098 3.7885 57.0298 3.52474 57.3815 3.28052C57.5573 3.25122 57.7527 3.45636 57.9871 3.89595C58.1141 4.15971 58.0751 4.30624 57.8699 4.33554C57.2936 4.42346 56.9614 4.65791 56.893 5.03889C56.8637 5.68363 56.7465 6.29906 56.5218 6.87541C56.7465 7.37361 57.3424 7.90113 58.29 8.45794L58.3388 8.48725L58.3974 8.52633C58.8175 8.79008 59.1203 8.99522 59.3059 9.16129C59.4818 9.24921 59.5599 9.33713 59.5306 9.42505C59.4524 9.51297 59.2864 9.56181 59.0422 9.56181H58.964C58.417 9.52273 57.7429 9.44458 56.9224 9.29805C57.0689 8.65332 56.8051 8.15511 56.1311 7.80344C56.0822 7.92066 55.9846 8.06719 55.8283 8.24303C55.6524 8.47748 55.5547 8.65332 55.5254 8.77054C55.3789 9.06361 54.8611 9.23944 53.982 9.29805C53.8061 9.26874 53.6401 9.21013 53.4935 9.12221L53.4838 9.11245L53.474 9.10268C53.3372 8.96591 53.3275 8.88777 53.4154 8.85846C54.4704 8.62401 55.2226 8.17465 55.672 7.50061C55.5938 7.23686 55.3105 6.94379 54.8025 6.62143C54.7732 6.53351 54.7732 6.39675 54.8025 6.22091C54.8025 6.10368 54.7635 6.04507 54.6853 6.04507C54.529 6.16229 54.4216 6.1916 54.3434 6.13299C55.0077 5.09751 55.4863 3.42706 55.7892 1.12164C55.838 0.975108 55.9162 0.916497 56.0139 0.945803ZM75.2582 7.97928C75.0531 7.97928 74.7796 8.02812 74.4279 8.13558C74.3302 8.16488 74.2618 8.24303 74.2423 8.37003L74.2618 8.41887C74.3302 8.64355 74.3986 8.88777 74.4767 9.16129L74.4865 9.18083L74.4963 9.20036C74.5842 9.40551 74.6721 9.51297 74.7405 9.52274L75.4243 9.44458C75.4731 9.44458 75.5024 9.3762 75.5024 9.24921C75.522 9.09291 75.5122 8.99522 75.4634 8.97568H75.4536C75.395 8.97568 75.2094 9.01476 74.8968 9.09291C74.8479 9.09291 74.7795 9.05383 74.7112 8.97568V8.95615L74.7014 8.92684C74.6623 8.7217 74.6526 8.5947 74.6721 8.54586H74.7307C75.0824 8.54586 75.3266 8.50679 75.4634 8.42864C75.4438 8.12581 75.3852 7.97928 75.2582 7.97928ZM99.5237 3.93503C99.6507 3.93503 99.7777 4.14994 99.9047 4.56023V4.5993C100.032 4.81421 100.032 4.95097 99.9047 5.03889H99.8656C99.4358 4.9119 99.0353 4.9119 98.6543 5.03889C98.4491 5.11704 98.3514 5.28311 98.3514 5.54687V5.90831C98.3514 6.70934 98.371 7.33454 98.3905 7.79367L98.4003 7.87182L98.4101 7.94997C98.4589 8.49702 98.5175 8.99522 98.5859 9.45435C98.6054 9.5032 98.5859 9.52273 98.5078 9.49342C97.2964 9.36643 96.2903 8.88777 95.4892 8.07696C95.4599 8.01835 95.4501 7.97928 95.4501 7.95974C95.4795 7.93043 95.5185 7.93043 95.5674 7.95974H95.5869C95.6846 7.98904 95.8409 8.05743 96.0558 8.15511L96.0949 8.16488C96.6322 8.37003 97.062 8.46771 97.3844 8.46771C97.609 8.46771 97.7263 8.36026 97.7263 8.15511C97.7263 7.315 97.6872 6.48466 97.609 5.67386C97.5797 5.30265 97.4332 5.12681 97.1597 5.12681H97.1304C97.0424 5.14635 96.9057 5.17566 96.7396 5.19519L96.7005 5.20496C96.0949 5.28311 95.6846 5.41987 95.4501 5.59571C95.4208 5.62502 95.3622 5.52733 95.2645 5.32219V5.31242C95.245 5.2245 95.2059 5.03889 95.1571 4.72629V4.70676C95.1571 4.64815 95.1864 4.63838 95.2352 4.68722C95.2841 4.73606 95.4404 4.73606 95.6846 4.68722L95.7139 4.67745L95.7432 4.66768C96.0753 4.60907 96.5735 4.49185 97.228 4.32578L97.2964 4.30624L97.3648 4.2867C98.4101 4.00341 99.1329 3.87642 99.5237 3.93503ZM87.43 2.83116C87.8306 2.83116 88.1138 2.88001 88.2604 2.98746H88.2701C88.4167 3.04608 88.4264 3.14376 88.2995 3.30006L88.2799 3.34891L88.2604 3.39775C87.9087 4.23786 87.7231 4.84352 87.7036 5.2245C87.7524 5.4101 87.6938 5.51756 87.518 5.5371C87.391 5.5664 87.137 5.66409 86.7658 5.8497L86.7169 5.86923L86.6388 5.90831C86.5215 5.95715 86.4141 6.00599 86.3164 6.04507C86.2187 6.09391 86.1699 6.15253 86.1699 6.20137C86.1699 6.23068 86.2285 6.26975 86.3555 6.3186C86.4825 6.37721 86.6485 6.35767 86.8439 6.27952C87.5766 6.04507 88.1236 5.70317 88.5046 5.25381C88.6316 5.14635 88.7977 5.20496 88.993 5.4101C89.12 5.51756 89.0809 5.60548 88.8758 5.68363C88.7 5.76178 88.5339 5.85946 88.3874 5.95715C88.1334 6.16229 87.7719 6.37721 87.2933 6.58235H87.2737C87.1858 6.61166 87.1467 6.63119 87.1467 6.65073C87.1467 6.68004 87.1858 6.71911 87.264 6.76796L87.3128 6.79726L87.3616 6.82657C87.7524 7.04148 88.0845 7.24662 88.3581 7.442C88.4557 7.52015 88.6902 7.61783 89.0419 7.71552C89.5498 7.82298 89.9308 7.94997 90.2141 8.10627C90.3606 8.15511 90.4388 8.22349 90.4388 8.30164C90.4388 8.35049 90.3802 8.41887 90.2532 8.49702C90.0774 8.60447 89.8624 8.66309 89.6085 8.69239H89.5889C89.3838 8.71193 89.0516 8.71193 88.5925 8.69239C88.3385 8.7217 88.192 8.62401 88.1431 8.41887L88.1334 8.38956L88.1236 8.36026C88.0064 7.99881 87.8696 7.7546 87.7231 7.6276L87.7133 7.61783C87.4984 7.39315 87.3714 7.38339 87.3519 7.58853L87.3324 7.61783L87.3128 7.64714C87.1956 7.85228 87.0979 8.01835 87.01 8.13558C86.8634 8.32118 86.7755 8.45794 86.7462 8.5654C86.7169 8.75101 86.4141 9.00499 85.8377 9.35667C85.6619 9.43482 85.5349 9.39574 85.4567 9.23944C85.2516 8.89754 85.2125 8.0965 85.3395 6.83634L85.3493 6.72888L85.3591 6.62143C85.3981 6.02553 85.4372 5.48825 85.4567 4.99005V4.85329C85.4763 4.34532 85.4763 3.9741 85.447 3.72989V3.72012C85.3981 3.49544 85.4665 3.37821 85.6424 3.37821L85.6814 3.35867L85.701 3.34891C85.7498 3.3196 85.8182 3.28052 85.9061 3.22191C86.2871 2.97769 86.7951 2.83116 87.43 2.83116ZM54.3923 3.22191L54.402 3.24145C54.4997 3.43683 54.5192 3.57359 54.4704 3.6615V3.67127L54.4606 3.68104C54.3727 3.79827 54.1578 4.01318 53.7964 4.32578C53.7475 4.4137 53.7084 4.68722 53.6791 5.15612C53.7084 5.12681 53.8257 5.10728 54.0601 5.10728C54.1871 5.07797 54.3043 5.0682 54.402 5.0682C54.4997 5.33195 54.4509 5.59571 54.2555 5.85946C54.2066 5.91808 54.109 5.99623 53.9527 6.07438L53.8941 6.13299L53.8452 6.17206C53.6889 6.30883 53.5912 6.38698 53.5521 6.41628H53.5424V6.85587C53.5912 7.06102 53.6596 7.14893 53.728 7.11963C53.8061 7.09032 53.8941 7.04148 53.9917 6.98287L54.0406 6.95356L54.0699 6.93402C54.3239 6.79726 54.4411 6.74842 54.4411 6.80703C54.4704 7.04148 54.3629 7.33454 54.1383 7.68622C54.0406 7.80344 53.8257 7.96951 53.4935 8.16488L53.4056 8.2235L53.3372 8.27234C53.1028 8.42864 52.9074 8.57517 52.7413 8.69239L52.7316 8.70216C52.6534 8.76077 52.5167 8.82916 52.3213 8.91707L52.2529 8.94638L52.1845 8.97568C51.9012 9.12221 51.7059 9.22967 51.5984 9.30782C51.3444 9.13199 51.2077 8.91707 51.1881 8.65332L51.2077 8.64355L51.2272 8.63378C51.5496 8.46771 51.7449 8.31141 51.8231 8.17465V8.16488C51.8035 7.98905 51.784 7.60806 51.784 7.03171V6.99264L51.7742 6.74842C51.7547 6.26975 51.7449 5.94738 51.7449 5.76178C51.7449 5.64455 51.8035 5.58594 51.9305 5.58594C52.3799 5.58594 52.6241 5.6934 52.6437 5.88877C52.5948 6.17207 52.5557 6.43582 52.5362 6.68981V6.71911C52.5069 6.98287 52.4971 7.34431 52.4971 7.81321C52.7218 7.7546 52.8586 7.66668 52.9074 7.54945C52.9563 7.22709 52.9953 6.83634 53.0246 6.36744C53.0246 5.92785 53.0149 5.51756 52.9856 5.13658C52.9367 4.93144 52.839 4.81421 52.6827 4.78491C52.3799 5.01936 52.1943 5.01936 52.1161 4.78491L52.0966 4.72629L52.0673 4.62861C51.8622 4.03271 51.7742 3.73966 51.8231 3.73966L51.8524 3.72989L51.8915 3.72012C52.3018 3.62243 52.9856 3.42706 53.9429 3.12423C54.021 3.09492 54.0797 3.06561 54.1285 3.03631C54.236 3.01677 54.3239 3.07538 54.3923 3.22191ZM84.8609 2.32319C85.0172 2.45019 84.9976 2.55764 84.8218 2.63579C84.6753 2.6944 84.4701 2.88978 84.2161 3.23168C84.1673 3.28052 84.1575 3.3196 84.1771 3.34891C84.1771 3.37821 84.2161 3.39775 84.2943 3.42706C84.519 3.4759 84.7436 3.5052 84.9683 3.5052C85.1735 3.58335 85.1344 3.8178 84.8511 4.21832C84.7046 4.32578 84.5483 4.30624 84.4017 4.17925C84.0208 3.91549 83.757 3.84711 83.6105 3.98387L83.6007 3.99364L83.5909 4.00341C83.4932 4.11087 83.3467 4.30624 83.1513 4.57976C83.0536 4.68722 82.9755 4.77514 82.9267 4.85329C82.8778 4.90213 82.868 4.96074 82.8876 5.00959C82.9169 5.05843 82.9462 5.07797 83.0048 5.04866L83.0732 5.02912L83.1318 4.99005C83.6495 4.83375 84.0501 4.73606 84.3236 4.71653C84.5483 4.63838 84.6655 4.72629 84.6655 4.99005C84.7143 5.2245 84.6557 5.34172 84.4799 5.34172C84.0989 5.44918 83.8742 5.64455 83.7961 5.92785C83.7668 6.08415 83.8449 6.14276 84.0208 6.08415H84.0403C84.1282 6.05484 84.2845 5.97669 84.5092 5.85946C84.5873 5.81062 84.685 5.85947 84.812 6.01576C84.939 6.14276 84.939 6.25998 84.812 6.36744L84.7143 6.43582L84.5971 6.52374C84.2259 6.78749 83.9231 6.98287 83.7179 7.11963C83.6202 7.16847 83.5714 7.46154 83.5714 7.98905C83.6007 8.17465 83.7082 8.21373 83.9133 8.10627C84.1673 7.99881 84.4017 7.67645 84.6264 7.11963L84.6362 7.10986L84.646 7.10009C84.6948 6.98287 84.7241 6.93402 84.7534 6.93402C84.7729 6.93402 84.7925 7.01217 84.7925 7.16847C84.7632 8.00858 84.4506 8.67285 83.8449 9.17106L83.8351 9.18083C83.6886 9.32736 83.5616 9.30782 83.4639 9.13199C83.3663 9.02453 83.2979 8.86823 83.2783 8.66309V8.63378C83.2588 8.43841 83.249 8.08673 83.249 7.55922C83.2783 7.40292 83.2197 7.33454 83.1025 7.36385C82.956 7.39315 82.7997 7.45176 82.6531 7.55922C82.5554 7.66668 82.4675 7.60807 82.3894 7.40292C82.1354 6.90472 82.1256 6.6605 82.3503 6.6605C82.6043 6.6605 82.8583 6.62142 83.1025 6.54327C83.2295 6.54327 83.2783 6.46513 83.249 6.30883V6.28929C83.249 6.12322 83.21 6.06461 83.1318 6.12322C82.956 6.17206 82.8583 6.006 82.829 5.61525C82.829 5.48825 82.8094 5.41987 82.7508 5.41987C82.7215 5.39057 82.6727 5.42964 82.6043 5.5371C82.4285 5.77155 82.0768 5.94738 81.5493 6.04507H81.5297C81.4418 6.06461 81.4027 6.06461 81.4027 6.0353C81.3734 6.006 81.393 5.93762 81.4418 5.83993C81.5688 5.60548 81.8716 5.29288 82.3503 4.89236C82.6238 4.65791 82.9071 4.30624 83.1806 3.82757L83.2881 3.67127L83.3956 3.51497C83.7375 3.01677 84.0403 2.58695 84.3138 2.21574C84.3724 2.06921 84.558 2.10828 84.8609 2.32319ZM66.525 7.10986C66.4957 7.16847 66.5641 7.22709 66.7106 7.27593C66.9353 7.18801 67.0623 7.26616 67.0916 7.48107C67.0916 7.5983 66.9939 7.71552 66.7887 7.86205C66.4371 8.14534 66.3394 8.35049 66.4859 8.49702L66.5055 8.48725C66.8181 8.4091 67.0134 8.4091 67.0916 8.49702C67.1209 8.58494 67.0916 8.66309 67.0134 8.751L67.033 8.76077L67.0427 8.77054C67.2772 8.96592 67.4042 9.00499 67.4335 8.878V7.82298C67.4335 7.56899 67.4042 7.315 67.3553 7.07078C67.1502 6.62142 66.8767 6.6312 66.525 7.10986ZM94.5026 4.09133C94.8347 4.19878 95.0008 4.35508 95.0301 4.56023C95.0301 4.58953 94.9519 4.67745 94.8054 4.83375L94.7859 4.85329L94.7663 4.87282C94.6882 4.95097 94.6491 5.00959 94.6491 5.02912V5.05843C94.6296 5.18543 94.6003 5.39057 94.5807 5.65432C94.4342 7.02194 94.4049 8.03789 94.5026 8.7217C94.5026 8.77054 94.4147 8.80962 94.2388 8.83892C94.0923 8.83892 93.9751 8.82915 93.8969 8.79985C93.8676 8.751 93.8578 8.69239 93.8578 8.64355V8.62401C93.8578 8.46771 93.8872 8.18442 93.936 7.77413L93.9458 7.70575V7.65691C93.9848 7.18801 93.9946 6.85587 93.9751 6.63119V6.60189C93.9751 6.09391 93.9262 5.85947 93.8285 5.88877C93.555 6.07438 93.3889 6.38698 93.3401 6.83634C93.3401 7.02194 93.2424 7.16847 93.0373 7.26616C92.8614 7.37362 92.6758 7.45177 92.4707 7.50061H92.4512C92.2362 7.52015 92.0897 7.51038 92.0213 7.46153L92.0311 7.45177C92.1092 7.32477 92.2558 7.1294 92.4805 6.87541L92.5586 6.79726C92.6465 6.70934 92.7051 6.64096 92.754 6.60189C93.2033 5.99623 93.6234 5.4101 94.0044 4.83375L94.1216 4.65791C94.317 4.32578 94.4537 4.1304 94.5026 4.09133ZM85.7694 7.15871C85.4958 7.99881 85.5154 8.43841 85.8475 8.49702C86.2285 8.44817 86.6388 8.14535 87.0979 7.58853C87.1956 7.46154 87.2347 7.36385 87.2151 7.315C87.2151 7.2857 87.1565 7.26616 87.0295 7.23685C86.6485 7.18801 86.3652 7.10986 86.1601 7.00241L86.1503 6.99264C85.9647 6.89495 85.8377 6.95356 85.7694 7.15871ZM75.8639 3.14376C75.9909 3.14376 76.1081 3.25122 76.2058 3.45636C76.3328 3.58335 76.3914 3.72989 76.3914 3.87642V3.88619C76.3914 3.96434 76.4305 4.00341 76.5086 4.00341C77.1143 3.9448 77.632 3.9448 78.0521 4.00341H78.0912C78.267 4.00341 78.5307 3.9741 78.8922 3.92526L78.9899 3.91549L79.0778 3.90572C79.2829 3.88618 79.4197 3.87642 79.4978 3.87642C79.5271 3.87642 79.5467 3.96433 79.576 4.14994V4.22809C79.6053 4.47231 79.6346 4.63838 79.6834 4.70676C79.6834 4.89236 79.6248 4.98028 79.4978 4.98028C79.1462 4.76537 78.7457 4.63838 78.2865 4.58953C77.9055 4.54069 77.5343 4.54069 77.1533 4.58953C77.1827 4.61884 77.212 4.66768 77.2706 4.74583C77.3683 4.87283 77.4269 4.98028 77.4269 5.05843C77.4562 5.10728 77.4366 5.14635 77.3878 5.17565L77.085 5.25381C76.7431 5.45895 76.3132 5.83993 75.7955 6.39674L75.7662 6.43582C75.7174 6.48466 75.7174 6.52374 75.7662 6.55304C75.942 6.58235 76.1667 6.46513 76.45 6.20137L76.4695 6.18183C76.7138 5.98646 76.9091 5.88877 77.0557 5.88877C77.505 5.83993 77.7981 6.22091 77.9251 7.03171C77.9544 7.1587 77.9153 7.26616 77.8079 7.34431C77.5539 7.39315 77.251 7.23685 76.8994 6.87541C76.9482 6.8461 77.0361 6.80703 77.1631 6.75819L77.2217 6.72888L77.2803 6.69957C77.3194 6.68004 77.3585 6.6605 77.3878 6.64096C77.5148 6.56281 77.5539 6.48466 77.505 6.40651C77.378 6.22091 77.2413 6.13299 77.085 6.13299C76.8798 6.1623 76.7333 6.28929 76.6356 6.52374C76.6356 6.55305 76.6258 6.59212 76.5965 6.64096L76.5868 6.68981L76.577 6.74842C76.5379 6.96333 76.5086 7.07078 76.4793 7.07078H76.4598C76.3816 7.07078 76.2644 7.08056 76.1081 7.10986C75.7076 7.10986 75.3852 7.14894 75.1605 7.22709H75.1215C74.8479 7.36385 74.5842 7.442 74.3302 7.46153C74.1837 7.49084 74.1055 7.43223 74.1055 7.30524L74.086 7.26616L74.0762 7.23685C73.9687 6.91449 73.9394 6.75819 73.9883 6.75819C74.2618 6.80703 74.5256 6.74842 74.7796 6.56281C75.0042 6.40651 75.2191 6.22091 75.4243 6.01576H75.4438C75.5317 5.96692 75.522 5.94738 75.4243 5.94738C75.1215 5.94738 74.8284 5.99623 74.5549 6.10368C74.5256 6.10368 74.4963 6.13299 74.4377 6.18183L74.4181 6.1916L74.3986 6.20137C74.1934 6.31859 74.0664 6.3479 74.0176 6.29906C73.9687 6.25021 73.8808 5.98646 73.7538 5.50779H73.7734C73.8711 5.48825 74.0274 5.45895 74.2423 5.43941H74.2716C74.4865 5.41011 74.6428 5.39057 74.7405 5.36126L74.9652 4.85329C75.014 4.80445 74.9847 4.77514 74.887 4.77514L74.8577 4.78491L74.8284 4.79468C74.7796 4.81421 74.76 4.81421 74.7796 4.81421L74.7307 4.82398L74.6819 4.83375C74.379 4.89236 73.8613 4.97051 73.1189 5.08774H73.0993C72.9528 5.11704 72.7574 5.16589 72.5132 5.24404L72.4937 5.25381L72.4741 5.26357C72.4253 5.28311 72.3862 5.29288 72.3667 5.29288H72.3276C72.2495 5.34172 72.2006 5.30265 72.1811 5.17565L72.1615 5.15612L72.1518 5.14635C72.1029 5.03889 72.0736 4.95097 72.0736 4.87282C72.0443 4.82398 72.0443 4.77514 72.0736 4.7556H72.2299C72.5816 4.70676 72.9137 4.66768 73.2166 4.63838C73.4705 4.60907 73.8222 4.53092 74.2716 4.40393L74.3302 4.38439L74.3888 4.36485C74.6135 4.30624 74.7796 4.2574 74.9163 4.23786L74.9945 4.21832L75.0824 4.19878C75.5122 4.09133 75.7857 4.04248 75.903 4.04248C75.7271 3.82757 75.6392 3.6322 75.6392 3.45636C75.6294 3.29029 75.7076 3.19261 75.8639 3.14376ZM43.8616 1.89337C44.0081 1.92267 44.0472 2.03013 43.969 2.20597C43.8714 2.54787 43.8225 2.94839 43.8225 3.41729V3.42706C43.803 3.60289 43.8518 3.68104 43.9788 3.65174H44.0179C44.5552 3.65174 44.9752 3.71035 45.2976 3.80803C45.4734 3.80803 45.5125 3.96434 45.4148 4.27694L45.3953 4.36485L45.3757 4.46254C45.2585 4.98028 45.112 5.67386 44.9459 6.54327L44.9264 6.63119V6.60189C44.9459 6.48466 44.9166 6.59212 44.8482 6.90472C44.7701 7.09032 44.6431 7.1294 44.477 7.02194L44.4477 7.00241L44.4184 6.98287C43.9983 6.67027 43.7151 6.52374 43.5685 6.55304L43.5392 6.56281L43.5099 6.57258C43.0215 6.71911 42.7382 6.84611 42.6698 6.94379C42.4647 7.1294 42.3181 7.09032 42.2204 6.82657V6.80703C42.1423 6.6605 41.9762 6.23068 41.7418 5.52733L41.7125 5.43941L41.6929 5.37103C41.6148 5.07797 41.5366 4.84352 41.478 4.66768C41.351 4.43323 41.3901 4.27693 41.5952 4.19878H41.605C41.8102 4.12063 42.1911 4.00341 42.7577 3.84711C42.9043 3.8178 42.9824 3.75919 42.9824 3.65174C43.0117 3.4759 43.0215 3.24145 43.0215 2.95816V1.92267C42.914 1.69799 43.2071 1.67845 43.8616 1.89337ZM36.1834 3.13399V3.57359C36.2127 3.68104 36.1345 3.74942 35.9587 3.76896C35.9294 3.79827 35.7926 3.83734 35.5386 3.88619L35.4898 3.89595L35.4507 3.90572C35.353 3.92526 35.2944 3.92526 35.2749 3.92526C35.1772 3.95457 35.1088 4.03272 35.0893 4.15971C35.0893 4.2867 35.1479 4.35508 35.2749 4.35508H36.115C36.1931 4.35508 36.2225 4.40393 36.2322 4.51138V4.76537C36.2322 4.94121 36.1834 5.01936 36.0857 4.99005H36.0662C35.988 4.99005 35.9392 5.00959 35.9392 5.02912C35.9392 5.05843 35.9587 5.09751 36.0173 5.14635C36.0368 5.19519 36.0955 5.26357 36.1638 5.34172L36.2029 5.40034L36.2322 5.43941C36.2713 5.48826 36.3006 5.52733 36.3201 5.54687C36.369 5.65432 36.3592 5.74224 36.2811 5.82039C36.3006 5.82039 36.3104 5.83016 36.2811 5.85946H36.5839C36.7304 5.85946 36.8086 5.89854 36.8086 5.97669V6.37721C36.8379 6.45536 36.8183 6.5042 36.7695 6.53351C36.75 6.56281 36.6914 6.56281 36.623 6.53351C35.353 6.40651 34.2394 6.53351 33.2918 6.91449L33.2625 6.92425C33.1355 6.9731 33.0379 6.96333 32.9597 6.88518C32.8327 6.67027 32.7936 6.49443 32.8425 6.32836C33.0965 6.32836 33.4677 6.25021 33.9756 6.09391C34.1515 6.01576 34.2394 5.78132 34.2394 5.3808C34.1613 5.4101 34.0343 5.41987 33.8584 5.41987H33.8389L33.79 5.42964C33.624 5.44918 33.5068 5.47849 33.4384 5.49802C33.2625 5.52733 33.1746 5.48825 33.1746 5.3808C33.1942 5.30265 33.2137 5.21473 33.2137 5.11704V5.10728C33.2137 5.02913 33.2235 4.95097 33.2528 4.87282C33.2723 4.79467 33.3211 4.7556 33.3993 4.7556H33.4188C33.4774 4.7556 33.5654 4.74583 33.7119 4.71653L33.8975 4.67745C34.0343 4.64814 34.1515 4.61884 34.2394 4.5993C34.3176 4.62861 34.3371 4.57976 34.3176 4.48208C34.3176 4.18901 34.1808 4.11087 33.9073 4.24763C33.878 4.24763 33.8487 4.27694 33.79 4.32578C33.7607 4.35508 33.7412 4.36485 33.7119 4.36485C33.6826 4.39416 33.663 4.40393 33.6337 4.40393C33.6044 4.40393 33.5849 4.36485 33.5556 4.2867C33.5263 4.2574 33.497 4.07179 33.4384 3.72989C33.3895 3.65174 33.3993 3.60289 33.4774 3.57359C34.005 3.35867 34.7962 3.19261 35.8512 3.05585H35.8708C36.0759 3.007 36.1834 3.02654 36.1834 3.13399ZM55.5254 5.10728L55.5157 5.12681C55.4863 5.18542 55.457 5.30265 55.4082 5.45895C55.3887 5.51756 55.3691 5.55664 55.3691 5.58594C55.3691 5.70317 55.5547 5.96692 55.9357 6.37721C55.9846 6.40651 56.0236 6.43582 56.0529 6.46513C56.1995 5.96692 56.1897 5.48825 56.0139 5.01935C55.8185 4.99005 55.6524 5.01936 55.5254 5.10728ZM43.0312 5.54687C42.8066 5.59571 42.6307 5.66409 42.5037 5.74224C42.4744 5.94738 42.5135 6.12322 42.621 6.25021C42.6698 6.22091 42.7382 6.20137 42.8066 6.17206C42.9043 6.12322 42.9922 6.08415 43.0703 6.05484C43.0899 6.02553 43.1094 5.92785 43.1094 5.74224V5.71293C43.0801 5.59571 43.0508 5.54687 43.0312 5.54687ZM43.7834 4.36485V4.40393C43.7834 4.61884 43.8225 4.70676 43.8909 4.68722C44.0179 4.63838 44.096 4.7263 44.1156 4.96074C44.1644 5.16589 44.1058 5.27334 43.93 5.27334H43.8811C43.7834 5.27334 43.7346 5.3808 43.7346 5.58594V5.62502C43.7346 5.81062 43.7737 5.90831 43.8518 5.90831C43.9007 5.879 43.9495 5.94738 43.9983 6.10368C44.0179 6.18183 44.0472 6.22091 44.0765 6.22091C44.096 6.1916 44.1253 6.14276 44.1546 6.06461C44.3012 5.48825 44.3793 4.98028 44.3793 4.53092C44.4086 4.32578 44.3207 4.21832 44.1156 4.21832H44.096C43.8909 4.18902 43.7834 4.23786 43.7834 4.36485ZM47.1048 3.06561L47.0853 3.07538L47.0657 3.08515C46.7922 3.23168 46.6359 3.36844 46.6164 3.49544L46.6066 3.61266L46.5968 3.71035C46.5577 4.15971 46.5382 4.51138 46.5382 4.7556C46.5089 5.09751 46.4991 5.48826 46.4991 5.92785C47.1732 6.24045 47.5542 6.25998 47.6323 5.96692C47.6323 5.67386 47.603 5.45895 47.5542 5.30265C47.5248 5.14635 47.4369 4.92167 47.2904 4.63838C47.1927 4.53092 47.2318 4.14994 47.4076 3.49544C47.4565 3.134 47.3588 2.98746 47.1048 3.06561ZM35.4312 5.15612H35.4117C35.1967 5.18543 35.0795 5.24404 35.0502 5.35149V5.79109C35.0502 5.86924 35.0893 5.90831 35.1577 5.90831H35.1772C35.226 5.90831 35.3823 5.88877 35.6559 5.86923C35.6559 5.81062 35.6168 5.75201 35.5386 5.67386C35.5191 5.62502 35.4898 5.58594 35.4605 5.55663C35.3921 5.41987 35.3823 5.28311 35.4312 5.15612ZM22.9272 4.1011C22.7026 4.20855 22.5853 4.45277 22.5853 4.85329C22.6146 5.30265 22.7221 5.5371 22.9272 5.5664H22.9859C23.4841 5.48825 23.8162 5.39057 23.9823 5.26357C24.0116 5.23427 23.992 4.97051 23.9432 4.47231L23.9334 4.4137L23.9236 4.34531C23.9041 4.12063 23.8943 3.95457 23.8943 3.83734C23.865 3.76896 23.5329 3.86665 22.9272 4.1011ZM86.5606 3.41729C86.2285 3.54428 86.082 3.72012 86.1113 3.92526C86.1113 4.03272 86.121 4.09133 86.1503 4.12064C86.1796 4.14994 86.2382 4.1304 86.3359 4.08156C86.5606 3.95457 86.6876 4.01318 86.7169 4.27694C86.8146 4.54069 86.7267 4.70676 86.4532 4.78491C86.1992 4.86306 86.0527 5.01936 86.0038 5.25381V5.29288C85.9843 5.41011 85.9843 5.46872 86.0136 5.49802C86.0429 5.52733 86.1113 5.50779 86.2382 5.45895L86.2676 5.44918C86.7951 5.24404 87.0686 5.03889 87.0686 4.83375L87.0784 4.7556L87.0881 4.67745C87.1077 4.46254 87.1272 4.22809 87.1467 3.9741V3.91549C87.1663 3.77873 87.176 3.67127 87.176 3.58336C87.1174 3.33914 86.9123 3.29029 86.5606 3.41729ZM76.8408 4.5993L76.7235 4.60907L76.6356 4.61884C76.3132 4.63838 76.0886 4.66768 75.9616 4.68722L75.9518 4.69699C75.9225 4.72629 75.8639 4.80444 75.7662 4.92167L75.6978 5.00959L75.649 5.0682C75.5904 5.14635 75.5415 5.19519 75.5024 5.23427C75.4829 5.28311 75.4927 5.31242 75.5415 5.31242C75.561 5.31242 75.688 5.30265 75.9225 5.27334H75.9811C76.1765 5.27334 76.2839 5.25381 76.3035 5.23427L76.3718 5.15612C76.6551 4.83375 76.8114 4.67745 76.831 4.67745L76.8408 4.66768L76.8603 4.64814L76.8701 4.63838C76.9384 4.60907 76.9189 4.5993 76.8408 4.5993ZM25.5453 3.46613C25.2424 3.46613 25.0373 3.50521 24.9396 3.58336C24.8907 3.66151 24.8517 3.93503 24.8224 4.4137V4.52115C24.8224 4.92167 24.8517 5.12681 24.9005 5.12681C25.0275 5.07797 25.2815 5.01935 25.6527 4.97051H25.7016C25.9751 4.94121 26.1314 4.90213 26.1802 4.85329C26.2877 4.77514 26.3463 4.5993 26.3756 4.34531C26.4244 4.00341 26.4244 3.74942 26.3756 3.59313C26.2486 3.50521 25.9653 3.46613 25.5453 3.46613ZM42.9531 4.36485L42.9238 4.37462L42.8945 4.38439C42.6014 4.46254 42.3767 4.55046 42.24 4.64814C42.2107 4.88259 42.2693 5.03889 42.3865 5.11704C42.533 5.03889 42.7284 4.96074 42.9531 4.88259C43.0801 4.66768 43.0801 4.49185 42.9531 4.36485ZM67.7265 4.00341C67.58 4.03272 67.4237 4.1011 67.2674 4.20855C67.0134 4.37462 66.906 4.58953 66.9255 4.84352C67.0232 4.87283 67.1502 4.79468 67.3065 4.63838L67.3163 4.61884C67.3358 4.5993 67.3358 4.58953 67.3358 4.58953C67.5019 4.42346 67.6289 4.22809 67.7265 4.00341ZM64.4736 3.1633C64.5224 3.38798 64.6787 3.65174 64.9229 3.96433C65.0988 4.29647 65.0108 4.49185 64.6592 4.55046C64.1512 4.55046 63.8874 4.35508 63.8679 3.96433C63.8679 3.68104 63.9265 3.44659 64.0535 3.25122C64.2098 3.04608 64.3563 3.02654 64.4736 3.1633ZM95.0301 2.44042C95.2743 2.70417 95.3329 2.87024 95.1864 2.94839C95.0887 2.99723 94.9715 3.11446 94.8445 3.30006L94.8152 3.32937L94.7956 3.34891C94.7468 3.40752 94.698 3.45636 94.6589 3.49544L94.6491 3.5052L94.6296 3.52474C94.4928 3.6615 94.2388 3.88619 93.8676 4.20855L93.8383 4.23786L93.8188 4.2574C93.6918 4.38439 93.5941 4.47231 93.5257 4.52115C93.4476 4.55046 93.3792 4.51138 93.301 4.40393L93.3108 4.38439L93.3206 4.37462C93.3792 4.22809 93.5257 3.90572 93.7602 3.41729L93.7895 3.36844L93.8285 3.29029C93.8676 3.21214 93.9067 3.12423 93.9555 3.02654L93.9653 3.007L93.9848 2.97769C94.0825 2.81163 94.2291 2.55764 94.4049 2.1962C94.483 2.02036 94.698 2.09851 95.0301 2.44042ZM98.3124 2.23527C98.3905 2.23527 98.4589 2.34273 98.5371 2.54787L98.5468 2.57718L98.5566 2.59672C98.6445 2.81163 98.6641 2.92885 98.6152 2.94839C98.1854 3.21214 97.736 3.43682 97.2574 3.61266H97.2476C97.1011 3.6615 96.8568 3.71035 96.5149 3.75919L96.4661 3.76896H96.3098C96.2414 3.7885 96.2023 3.7885 96.2023 3.76896C96.1828 3.76896 96.1633 3.72988 96.1633 3.65174C96.134 3.43682 96.0851 3.24145 96.0167 3.06561C95.9679 2.95816 96.007 2.89954 96.1242 2.87024H96.173C96.5052 2.82139 96.8373 2.72371 97.189 2.59672C97.443 2.48926 97.6872 2.3818 97.9412 2.28412H97.9705C98.1072 2.25481 98.2245 2.23527 98.3124 2.23527ZM77.5636 1.14118C77.6027 1.14118 77.6613 1.16071 77.7492 1.18025C78.0032 1.2584 78.1791 1.35609 78.2767 1.45377C78.3061 1.48308 78.2768 1.55146 78.1986 1.64915L78.1595 1.69799C78.1302 1.7273 78.1107 1.75661 78.0912 1.77614C78.0423 1.82499 77.9642 1.93244 77.8665 2.08874L77.7492 2.24504C77.7297 2.27435 77.7102 2.29388 77.7102 2.29388C77.6613 2.37203 77.7004 2.41111 77.8176 2.41111H77.8567C77.9446 2.41111 78.1986 2.39157 78.6187 2.37204C78.8238 2.42088 78.8726 2.59671 78.7652 2.88001C78.7359 2.95816 78.6284 3.007 78.4233 3.03631C78.3744 3.06561 78.3354 3.07538 78.3061 3.07538H78.2865C78.2084 3.07538 78.0618 3.09492 77.8567 3.11446H77.7395C77.4855 3.11446 77.339 3.134 77.2901 3.15353C77.2608 3.15353 77.212 3.22191 77.1436 3.34891L77.124 3.38798L77.1045 3.42706C77.0264 3.54428 76.9677 3.62243 76.9287 3.67127C76.831 3.74942 76.7138 3.75919 76.5868 3.71035C76.4891 3.58335 76.5086 3.39775 76.6649 3.1633C76.6942 3.11446 76.6942 3.07538 76.6649 3.04608H76.5477C76.069 3.01677 75.6685 3.05584 75.3364 3.1633C75.3071 3.1633 75.2973 3.23168 75.2973 3.34891V3.35867C75.2973 3.65174 75.2484 3.7885 75.1508 3.7885C75.1019 3.81781 74.9847 3.68104 74.8089 3.39775C74.76 3.29029 74.7112 3.26099 74.6623 3.3196L74.633 3.32937L74.6037 3.33914C74.506 3.36844 74.3888 3.39775 74.252 3.43683C74.2325 3.43683 74.1934 3.4759 74.1446 3.54428V3.55405C74.0957 3.6322 74.0371 3.67127 73.959 3.67127C73.8808 3.64197 73.8124 3.59312 73.7343 3.51497L73.705 3.4759L73.6855 3.44659C73.5389 3.20238 73.451 3.02654 73.4315 2.92885C73.451 2.8507 73.5096 2.81163 73.578 2.81163C73.9297 2.76278 74.2618 2.71394 74.5646 2.6944C74.6623 2.72371 74.7014 2.6651 74.6819 2.5381C74.6819 2.45995 74.6428 2.31342 74.5646 2.10828L74.5549 2.07897L74.5451 2.03013C74.506 1.86406 74.4865 1.74684 74.4865 1.68823C74.5158 1.65892 74.6135 1.64915 74.7893 1.64915C74.9359 1.67845 75.0921 1.71753 75.2387 1.76637C75.3168 1.76637 75.3559 1.81522 75.3559 1.92267C75.3852 2.00082 75.3657 2.09851 75.3266 2.22551V2.23527C75.2778 2.37203 75.2484 2.46972 75.2484 2.54787C75.2484 2.62602 75.2973 2.6651 75.395 2.6651H75.4048C75.5904 2.64556 76.069 2.62602 76.831 2.62602C76.958 2.62602 77.0459 2.57718 77.0947 2.46972L77.1045 2.45018C77.1533 2.33296 77.2803 2.02036 77.4757 1.51239L77.4855 1.49285L77.4953 1.48308C77.5343 1.40493 77.5539 1.34632 77.5539 1.32678C77.5246 1.21933 77.5343 1.16071 77.5636 1.14118Z" fill="black"/>
<path d="M10.1106 8.08666L9.33889 12.3263H4.96251L4.78667 13.3618H10.1106L11.1168 8.07689H16.597L16.2844 9.67896H11.6541L10.6479 15.042H4.47407L4.308 15.9212H11.4294L12.3574 10.7242H16.1379L15.8253 12.4826H12.9728L12.1034 17.6014H3.08691L4.06378 12.3165H0L0.771728 8.07689H4.84528L5.79285 2.95808H10.1888L10.6577 0.398682H18.0721L17.7595 2.0789H11.2731L10.814 4.56015H6.41804L6.24221 5.51749H11.5857L12.0448 2.95808H17.6032L17.2906 4.6383H12.5821L12.123 7.1977H5.92961L5.75377 8.07689H10.1106V8.08666ZM8.72346 10.7242L8.87976 9.67896H5.47048L5.2751 10.7242H8.72346ZM4.55222 9.67896H1.30901L1.07456 10.7242H4.34708L4.55222 9.67896Z" fill="#118A3F"/>
</svg>
