<svg width="100" height="15" viewBox="0 0 100 15" fill="none" xmlns="http://www.w3.org/2000/svg">
<path d="M33.6984 4.24024L38 0H43.9332L48.3831 4.16582V9.74493C48.3831 9.74493 46.8997 10.4889 45.5647 10.117C44.1556 9.74493 43.5624 9.14991 43.5624 9.14991V4.16582H38.5192V10.117C38.5192 10.117 40.9666 8.92666 42.4499 9.52178C44.0074 10.1169 45.6389 11.456 47.4189 11.0096C49.273 10.5633 49.273 9.81934 49.273 9.81934V13.9852C49.273 13.9852 47.493 15.0266 45.7131 14.8778C43.9332 14.7291 43.3399 13.9107 42.0049 13.6132C40.67 13.3156 40.2991 13.39 39.4833 13.6132C38.6675 13.8364 37.7034 14.3571 37.7034 14.3571L33.6243 10.3401L33.6985 4.24014L33.6984 4.24024Z" fill="#D80313"/>
<path d="M55.6865 13.0379V7.73541C55.6865 7.70328 55.7126 7.6772 55.7447 7.6772H63.0623C63.0944 7.6772 63.1204 7.70328 63.1204 7.73541V12.7471C63.1204 12.9399 62.9642 13.0962 62.7714 13.0962H60.6283C60.6129 13.0962 60.5981 13.09 60.5872 13.0791C60.5762 13.0682 60.5701 13.0534 60.5701 13.0379V11.9386C60.5701 11.9065 60.5962 11.8805 60.6283 11.8805H61.5742C61.6359 11.8805 61.6951 11.856 61.7387 11.8123C61.7823 11.7687 61.8068 11.7095 61.8068 11.6478V11.132C61.8068 11.1166 61.8007 11.1018 61.7898 11.0909C61.7789 11.08 61.7642 11.0738 61.7487 11.0738L56.9392 11.0736C56.9315 11.0736 56.9239 11.0751 56.9169 11.078C56.9098 11.0809 56.9034 11.0852 56.8979 11.0906C56.8925 11.096 56.8882 11.1024 56.8853 11.1095C56.8824 11.1166 56.8809 11.1241 56.8809 11.1318V13.038C56.8808 13.0534 56.8747 13.0682 56.8638 13.0791C56.8529 13.09 56.8382 13.0961 56.8228 13.0962H55.7446C55.7292 13.0961 55.7144 13.09 55.7035 13.0791C55.6926 13.0682 55.6865 13.0534 55.6865 13.0379ZM73.6311 11.9217H74.2507C74.3124 11.9217 74.3716 11.8972 74.4152 11.8536C74.4588 11.81 74.4834 11.7508 74.4834 11.6891V8.63775C74.4834 8.63011 74.4819 8.62254 74.479 8.61547C74.476 8.60841 74.4718 8.602 74.4664 8.59659C74.461 8.59119 74.4545 8.5869 74.4475 8.58397C74.4404 8.58105 74.4328 8.57955 74.4252 8.57955H67.7718C67.7101 8.57955 67.6509 8.55502 67.6072 8.51138C67.5636 8.46774 67.5391 8.40855 67.5391 8.34683V2.76929C67.5391 2.73706 67.5651 2.71108 67.5973 2.71108H69.6441C69.6518 2.71108 69.6594 2.70958 69.6664 2.70665C69.6735 2.70373 69.6799 2.69944 69.6853 2.69404C69.6907 2.68863 69.695 2.68221 69.6979 2.67515C69.7008 2.66809 69.7023 2.66052 69.7023 2.65288V1.97788C69.7023 1.94565 69.7283 1.91968 69.7604 1.91968H71.0813C71.1054 1.91968 71.127 1.93442 71.1356 1.95678L71.4128 2.67388C71.4216 2.69634 71.4431 2.71099 71.4671 2.71099H74.2578C74.2899 2.71099 74.316 2.73716 74.316 2.76929V6.68306C74.316 6.87583 74.1598 7.03208 73.9669 7.03208H72.071C72.0556 7.03208 72.0408 7.02595 72.0298 7.01504C72.0189 7.00412 72.0128 6.98931 72.0128 6.97388V5.927C72.0128 5.89478 72.0389 5.8687 72.071 5.8687H72.7348C72.7965 5.86868 72.8556 5.84416 72.8992 5.80054C72.9428 5.75692 72.9674 5.69777 72.9674 5.63609V3.88364C72.9674 3.86822 72.9613 3.85343 72.9504 3.84252C72.9395 3.83161 72.9247 3.82547 72.9093 3.82544H69.0991C69.0915 3.82544 69.0839 3.82695 69.0769 3.82987C69.0698 3.8328 69.0634 3.83708 69.058 3.84249C69.0526 3.84789 69.0483 3.85431 69.0453 3.86137C69.0424 3.86843 69.0409 3.876 69.0409 3.88364V7.20064C69.0409 7.2649 69.0931 7.31695 69.1573 7.31695H75.7327C75.7648 7.31695 75.7909 7.34302 75.7909 7.37515V12.761C75.7909 12.9538 75.6347 13.1101 75.4419 13.1101H73.6311C73.6157 13.1101 73.601 13.1039 73.5901 13.093C73.5792 13.0821 73.573 13.0673 73.573 13.0519V11.9798C73.573 11.9477 73.599 11.9217 73.6311 11.9217ZM84.1518 7.89175H84.0242C84.0088 7.89175 83.994 7.89788 83.9831 7.9088C83.9721 7.91971 83.966 7.93452 83.966 7.94995V11.0265C83.966 11.0355 83.9681 11.0443 83.9721 11.0524C83.9761 11.0604 83.9819 11.0674 83.989 11.0729C83.9962 11.0783 84.0045 11.082 84.0133 11.0837C84.0221 11.0854 84.0312 11.085 84.0398 11.0826L84.9695 10.8233C84.9782 10.8209 84.9873 10.8205 84.9961 10.8222C85.0049 10.8239 85.0132 10.8276 85.0203 10.833C85.0275 10.8384 85.0333 10.8454 85.0373 10.8534C85.0413 10.8614 85.0433 10.8703 85.0434 10.8793V12.0133C85.0434 12.0365 85.0297 12.0574 85.0085 12.0667L82.7883 13.0373C82.7649 13.0475 82.7395 13.0525 82.7139 13.0518C82.6884 13.0512 82.6633 13.0449 82.6404 13.0335C82.6175 13.0221 82.5974 13.0058 82.5816 12.9857C82.5657 12.9657 82.5544 12.9424 82.5485 12.9175L82.2769 11.7696C82.2737 11.7563 82.2753 11.7423 82.2815 11.7301C82.2876 11.7179 82.2978 11.7082 82.3103 11.7028L82.7423 11.5158C82.7527 11.5113 82.7615 11.5038 82.7678 11.4944C82.774 11.4849 82.7773 11.4738 82.7773 11.4625V2.72075C82.7773 2.68862 82.8033 2.66255 82.8354 2.66255H87.5483C87.5806 2.66255 87.6065 2.68862 87.6065 2.72075V7.83365C87.6065 7.84905 87.6004 7.86381 87.5895 7.8747C87.5786 7.88559 87.5638 7.89172 87.5484 7.89175H85.7344C85.7253 7.89175 85.7164 7.89386 85.7084 7.8979C85.7003 7.90194 85.6932 7.90781 85.6878 7.91504C85.6824 7.92227 85.6787 7.93067 85.6771 7.93956C85.6755 7.94845 85.676 7.95759 85.6785 7.96626C85.7073 8.06519 85.7426 8.21265 85.7842 8.40855C85.835 8.6482 85.9383 9.02476 86.0938 9.53804C86.0966 9.54745 86.1018 9.55597 86.1088 9.56283C86.1159 9.56968 86.1245 9.57464 86.134 9.57724C86.1435 9.57985 86.1535 9.58001 86.163 9.57772C86.1726 9.57542 86.1814 9.57074 86.1887 9.56411L87.4069 8.45073C87.4128 8.44533 87.4198 8.44121 87.4273 8.43862C87.4349 8.43602 87.4429 8.43501 87.4509 8.43565C87.4589 8.4363 87.4666 8.43857 87.4737 8.44234C87.4807 8.44611 87.4869 8.4513 87.4919 8.45757L88.1221 9.25523C88.1311 9.26671 88.1356 9.28118 88.1344 9.29577C88.1333 9.31035 88.1267 9.32398 88.116 9.33394L86.7485 10.6035C86.7387 10.6126 86.7324 10.6248 86.7305 10.638C86.7286 10.6512 86.7314 10.6647 86.7383 10.6761C86.8619 10.8819 87.0586 11.1566 87.3284 11.5006C87.6165 11.8678 88.0172 12.1981 88.5306 12.4916L87.3911 13.1192C87.3462 13.1439 87.2944 13.1531 87.2437 13.1454C87.193 13.1376 87.1463 13.1133 87.1108 13.0763C86.3028 12.2324 85.7319 11.5043 85.3981 10.8921C85.0631 10.2777 84.7253 9.33716 84.3851 8.07066C84.3713 8.01932 84.341 7.97396 84.2988 7.94161C84.2566 7.90927 84.2049 7.89174 84.1518 7.89175ZM91.5079 13.0771V8.40865C91.5079 8.39774 91.5048 8.38705 91.499 8.37781C91.4932 8.36856 91.4849 8.36113 91.4751 8.35637C91.4653 8.3516 91.4544 8.34969 91.4435 8.35085C91.4327 8.35202 91.4224 8.3562 91.4138 8.36294L90.2249 9.298C90.2174 9.30389 90.2086 9.30785 90.1992 9.30952C90.1898 9.31119 90.1801 9.31053 90.171 9.30759C90.1619 9.30464 90.1537 9.29951 90.1471 9.29265C90.1405 9.28578 90.1356 9.27739 90.133 9.26822L89.7652 7.9772C89.762 7.9659 89.7623 7.9539 89.766 7.94276C89.7698 7.93163 89.7768 7.92188 89.7861 7.9148L93.2081 5.32651C93.2157 5.32077 93.2246 5.31698 93.234 5.31547C93.2434 5.31397 93.2531 5.3148 93.2621 5.3179C93.2711 5.32099 93.2792 5.32626 93.2857 5.33323C93.2922 5.34019 93.2969 5.34866 93.2994 5.35786L93.6228 6.56363C93.6258 6.57487 93.6253 6.58676 93.6215 6.59777C93.6177 6.60877 93.6107 6.61838 93.6014 6.62534L92.6977 7.29966C92.6904 7.30507 92.6845 7.3121 92.6804 7.32018C92.6764 7.32827 92.6742 7.33719 92.6742 7.34624V13.0771C92.6742 13.0925 92.6681 13.1073 92.6571 13.1182C92.6462 13.1291 92.6314 13.1352 92.616 13.1352H91.5661C91.5507 13.1352 91.5359 13.1291 91.525 13.1182C91.5141 13.1073 91.5079 13.0925 91.5079 13.0771ZM82.0222 11.688C82.0222 11.6984 82.0194 11.7085 82.0142 11.7175C82.0089 11.7264 82.0014 11.7338 81.9924 11.7388L79.6999 13.0187C79.6776 13.0312 79.6527 13.0386 79.6272 13.0404C79.6016 13.0422 79.576 13.0384 79.5521 13.0292C79.5282 13.02 79.5066 13.0057 79.4889 12.9872C79.4712 12.9687 79.4577 12.9466 79.4495 12.9223L79.0591 11.7688C79.0547 11.7558 79.055 11.7416 79.0601 11.7288C79.0652 11.716 79.0746 11.7054 79.0867 11.6989L79.7972 11.3189C79.8064 11.3139 79.8142 11.3065 79.8196 11.2975C79.825 11.2885 79.8278 11.2782 79.8278 11.2676V8.98589C79.8278 8.97049 79.8217 8.95572 79.8108 8.94483C79.7999 8.93394 79.7851 8.92781 79.7697 8.92779H78.6365C78.6211 8.92779 78.6063 8.92165 78.5954 8.91074C78.5845 8.89982 78.5783 8.88502 78.5783 8.86958V7.87192C78.5783 7.8397 78.6044 7.81373 78.6365 7.81373H79.7697C79.7851 7.81365 79.7999 7.80746 79.8108 7.79651C79.8216 7.78556 79.8277 7.77075 79.8276 7.75533L79.8238 6.83902C79.8238 6.82363 79.8176 6.80889 79.8067 6.79802C79.7959 6.78715 79.7811 6.78103 79.7657 6.78101H79.2561C79.2407 6.78101 79.2259 6.77489 79.215 6.764C79.2041 6.7531 79.198 6.73832 79.198 6.7229V6.33618C79.1979 6.32489 79.1946 6.31385 79.1884 6.30442C79.1822 6.29498 79.1734 6.28756 79.163 6.28304C79.1527 6.27853 79.1412 6.27713 79.1301 6.279C79.1189 6.28088 79.1086 6.28595 79.1003 6.29361L78.6146 6.74341C78.6037 6.75356 78.5893 6.75911 78.5744 6.75893C78.5594 6.75875 78.5452 6.75284 78.5345 6.74243L77.7142 5.94077C77.7043 5.93107 77.6982 5.91815 77.697 5.90435C77.6957 5.89055 77.6995 5.87677 77.7075 5.86548C78.2153 5.15327 78.5755 4.5856 78.7877 4.16235C78.9992 3.74077 79.2362 3.11919 79.4988 2.29761L79.499 2.29692C79.5014 2.28967 79.5053 2.28297 79.5103 2.27719C79.5153 2.27141 79.5214 2.26668 79.5282 2.26326C79.535 2.25984 79.5425 2.25781 79.5501 2.25726C79.5577 2.25672 79.5654 2.25769 79.5727 2.26011L80.6212 2.60972C80.6639 2.62394 80.6994 2.6541 80.7204 2.69389C80.7414 2.73368 80.7462 2.78004 80.7338 2.82329L80.5744 3.38091C80.5719 3.38956 80.5715 3.39867 80.5731 3.40753C80.5748 3.41638 80.5785 3.42473 80.5839 3.43192C80.5893 3.43912 80.5963 3.44496 80.6043 3.44898C80.6124 3.45301 80.6213 3.45511 80.6303 3.45513H82.2036C82.2116 3.45512 82.2194 3.45675 82.2267 3.45991C82.234 3.46307 82.2406 3.4677 82.2461 3.4735C82.2515 3.4793 82.2557 3.48616 82.2584 3.49365C82.2611 3.50114 82.2622 3.5091 82.2617 3.51704L82.2019 4.44527C82.199 4.48951 82.1794 4.531 82.1471 4.56133C82.1147 4.59166 82.0721 4.60854 82.0277 4.60855H80.0737C80.0627 4.60854 80.0518 4.61169 80.0425 4.61762C80.0331 4.62355 80.0257 4.63202 80.021 4.64204L79.5557 5.63345C79.5515 5.64231 79.5497 5.65209 79.5503 5.66186C79.5509 5.67163 79.554 5.68109 79.5592 5.68935C79.5645 5.69762 79.5717 5.70443 79.5803 5.70915C79.5889 5.71387 79.5985 5.71635 79.6083 5.71636H81.7617C81.7939 5.71636 81.8199 5.74243 81.8199 5.77456V6.54839C81.8199 6.61009 81.7954 6.66926 81.7517 6.71288C81.7081 6.7565 81.6489 6.78101 81.5872 6.78101H80.9958H80.9956C80.988 6.78103 80.9804 6.78257 80.9733 6.78552C80.9663 6.78848 80.9599 6.7928 80.9545 6.79823C80.9491 6.80366 80.9448 6.8101 80.9419 6.81719C80.939 6.82427 80.9376 6.83185 80.9376 6.83951L80.9414 7.75581C80.9415 7.7712 80.9476 7.78593 80.9586 7.79678C80.9695 7.80763 80.9842 7.81373 80.9996 7.81373H81.964C81.9962 7.81373 82.0222 7.8398 82.0222 7.87192V8.69507C82.0222 8.72563 82.0161 8.75589 82.0045 8.78413C81.9928 8.81236 81.9756 8.83802 81.954 8.85963C81.9324 8.88124 81.9067 8.89838 81.8785 8.91007C81.8503 8.92177 81.82 8.92779 81.7895 8.92779H80.9998C80.9844 8.92779 80.9696 8.93391 80.9587 8.9448C80.9478 8.9557 80.9416 8.97047 80.9416 8.98589V10.7069C80.9416 10.7169 80.9442 10.7267 80.9491 10.7354C80.954 10.7441 80.961 10.7514 80.9696 10.7566C80.9781 10.7618 80.9878 10.7647 80.9978 10.765C81.0078 10.7654 81.0177 10.7631 81.0266 10.7585L81.9372 10.2855C81.9461 10.2809 81.956 10.2787 81.9659 10.279C81.9759 10.2794 81.9856 10.2823 81.9942 10.2874C82.0027 10.2926 82.0098 10.2999 82.0147 10.3086C82.0196 10.3173 82.0221 10.3271 82.0222 10.3371V11.688ZM95.4722 11.7832H96.6848C96.7465 11.7832 96.8056 11.7587 96.8493 11.715C96.8929 11.6714 96.9175 11.6122 96.9175 11.5505V7.44957C96.9175 7.43413 96.9113 7.41932 96.9004 7.40841C96.8895 7.39749 96.8747 7.39136 96.8593 7.39136H94.1369C94.1215 7.39134 94.1067 7.38519 94.0958 7.37428C94.0849 7.36337 94.0788 7.34858 94.0788 7.33316V6.19478C94.0788 6.16274 94.1048 6.13667 94.1368 6.13658L99.9417 6.12544C99.9739 6.12544 99.9999 6.15142 100 6.18355V7.33316C100 7.34859 99.9939 7.3634 99.983 7.37431C99.972 7.38523 99.9572 7.39136 99.9418 7.39136H98.1741C98.1587 7.39136 98.1439 7.39749 98.133 7.40841C98.1221 7.41932 98.1159 7.43413 98.1159 7.44957V12.7862C98.1159 12.979 97.9597 13.1352 97.7669 13.1352H95.4722C95.4567 13.1352 95.442 13.1291 95.431 13.1182C95.4201 13.1073 95.414 13.0925 95.414 13.0771V11.8414C95.414 11.8092 95.44 11.7832 95.4722 11.7832ZM68.0304 13.052C68.0304 13.0674 68.0242 13.0822 68.0133 13.0932C68.0024 13.1041 67.9876 13.1102 67.9722 13.1102H66.6856C66.6702 13.1102 66.6554 13.1041 66.6445 13.0932C66.6336 13.0822 66.6274 13.0674 66.6274 13.052V9.31324C66.6274 9.28101 66.6535 9.25503 66.6856 9.25503H67.9722C68.0043 9.25503 68.0304 9.28111 68.0304 9.31324V11.1374C68.0304 11.1695 68.0564 11.1955 68.0885 11.1955H69.1832C69.1986 11.1955 69.2134 11.1893 69.2243 11.1785C69.2352 11.1676 69.2414 11.1528 69.2414 11.1374V9.31314C69.2414 9.28111 69.2675 9.25503 69.2996 9.25503H70.4889C70.521 9.25503 70.547 9.28111 70.547 9.31324V11.1374C70.547 11.1695 70.5731 11.1955 70.6052 11.1955H71.9546C71.97 11.1955 71.9848 11.1893 71.9957 11.1785C72.0066 11.1676 72.0128 11.1528 72.0128 11.1374V9.31314C72.0128 9.28111 72.0389 9.25503 72.071 9.25503H73.1434C73.1755 9.25503 73.2016 9.28111 73.2016 9.31324V12.2549C73.2016 12.2704 73.1954 12.2852 73.1845 12.2961C73.1736 12.307 73.1588 12.3131 73.1434 12.3131H68.0885C68.0731 12.3132 68.0583 12.3193 68.0474 12.3302C68.0365 12.3411 68.0304 12.3558 68.0304 12.3713V13.052ZM56.939 10.2389L61.7485 10.2484C61.764 10.2484 61.7788 10.2423 61.7897 10.2314C61.8006 10.2206 61.8068 10.2058 61.8068 10.1904V9.80474C61.8068 9.78936 61.8007 9.77461 61.7898 9.76372C61.779 9.75283 61.7642 9.74669 61.7488 9.74663L56.9393 9.73706C56.9316 9.73704 56.924 9.73852 56.9169 9.74143C56.9099 9.74434 56.9034 9.74861 56.898 9.75401C56.8926 9.7594 56.8883 9.76582 56.8853 9.77288C56.8824 9.77995 56.8809 9.78752 56.8809 9.79517V10.1806C56.8809 10.2128 56.9068 10.2387 56.939 10.2388V10.2389ZM61.8068 8.88443V8.49732C61.8068 8.48192 61.8007 8.46714 61.7899 8.45623C61.779 8.44532 61.7642 8.43917 61.7488 8.43912L56.9393 8.4313C56.9316 8.43128 56.924 8.43276 56.917 8.43566C56.9099 8.43856 56.9035 8.44283 56.898 8.44821C56.8926 8.4536 56.8883 8.46 56.8854 8.46705C56.8824 8.4741 56.8809 8.48167 56.8809 8.48931V8.87652C56.8809 8.90865 56.9068 8.93463 56.939 8.93472L61.7485 8.94253C61.7562 8.94254 61.7637 8.94105 61.7708 8.93814C61.7779 8.93523 61.7843 8.93095 61.7897 8.92556C61.7951 8.92016 61.7994 8.91375 61.8024 8.90669C61.8053 8.89963 61.8068 8.89207 61.8068 8.88443ZM54.3921 6.08296H58.6546C58.67 6.08294 58.6848 6.07679 58.6957 6.06588C58.7066 6.05497 58.7127 6.04018 58.7127 6.02476V5.45034C58.7127 5.43494 58.7065 5.42018 58.6956 5.40929C58.6848 5.39839 58.67 5.39226 58.6546 5.39224H55.4612C55.4458 5.39224 55.431 5.38611 55.4201 5.37519C55.4092 5.36428 55.403 5.34947 55.403 5.33403V4.69029C55.403 4.65816 55.4291 4.63218 55.4612 4.63218H58.6546C58.67 4.63215 58.6848 4.62601 58.6957 4.6151C58.7066 4.60418 58.7127 4.5894 58.7127 4.57398V4.03316C58.7127 4.01774 58.7066 4.00295 58.6957 3.99203C58.6848 3.98112 58.67 3.97498 58.6546 3.97495H54.8333C54.8256 3.97496 54.8181 3.97347 54.811 3.97055C54.8039 3.96763 54.7975 3.96334 54.7921 3.95794C54.7867 3.95253 54.7824 3.94611 54.7794 3.93904C54.7765 3.93198 54.775 3.9244 54.775 3.91675V3.14194C54.775 3.10972 54.8011 3.08374 54.8332 3.08374H58.6545C58.6621 3.08374 58.6697 3.08224 58.6768 3.07931C58.6838 3.07639 58.6902 3.0721 58.6956 3.06669C58.7011 3.06129 58.7053 3.05487 58.7083 3.04781C58.7112 3.04075 58.7127 3.03318 58.7127 3.02554V2.45044C58.7127 2.41831 58.7388 2.39233 58.7709 2.39233H59.9919C60.024 2.39233 60.0501 2.41831 60.0501 2.45044V3.02563C60.0501 3.05767 60.0761 3.08374 60.1082 3.08374H64.0039C64.036 3.08374 64.0621 3.10981 64.0621 3.14194V3.74224C64.0621 3.80396 64.0376 3.86315 63.9939 3.90679C63.9503 3.95043 63.8911 3.97495 63.8294 3.97495H60.1082C60.0928 3.97498 60.078 3.98112 60.0671 3.99203C60.0562 4.00295 60.0501 4.01774 60.0501 4.03316V4.57398C60.0501 4.6061 60.0761 4.63218 60.1082 4.63218H63.352C63.3842 4.63218 63.4102 4.65816 63.4102 4.69029V5.33403C63.4102 5.34945 63.404 5.36424 63.3931 5.37516C63.3823 5.38607 63.3675 5.39221 63.352 5.39224H60.034C60.0186 5.39224 60.0038 5.39836 59.9929 5.40925C59.9819 5.42014 59.9758 5.43492 59.9758 5.45034V6.02476C59.9758 6.05698 60.0019 6.08296 60.034 6.08296H64.4562C64.4883 6.08296 64.5143 6.10904 64.5143 6.14117V6.73726C64.5143 6.79896 64.4898 6.85814 64.4461 6.90178C64.4025 6.94542 64.3433 6.96995 64.2816 6.96997H54.3921C54.3767 6.96997 54.3619 6.96384 54.3509 6.95293C54.34 6.94201 54.3339 6.92721 54.3339 6.91177V6.14117C54.3339 6.10894 54.36 6.08296 54.3921 6.08296ZM84.0242 6.95249H86.3703C86.3857 6.95249 86.4005 6.94637 86.4114 6.93548C86.4223 6.92459 86.4285 6.90981 86.4285 6.89439V5.96411C86.4285 5.94869 86.4223 5.93391 86.4114 5.92302C86.4005 5.91213 86.3857 5.90601 86.3703 5.90601H84.0242C84.0088 5.90601 83.994 5.91213 83.9831 5.92302C83.9722 5.93391 83.966 5.94869 83.966 5.96411V6.89439C83.966 6.92652 83.9921 6.95249 84.0242 6.95249ZM71.6313 5.82329C71.6403 5.83549 71.6442 5.85071 71.6421 5.86572C71.6401 5.88072 71.6322 5.89434 71.6203 5.90366L70.7479 6.58355C70.7358 6.59302 70.7203 6.59727 70.705 6.59536C70.6897 6.59346 70.6758 6.58556 70.6663 6.57339L69.4648 5.03325L69.4647 5.03306C69.4553 5.02088 69.4511 5.00545 69.453 4.99017C69.4549 4.97488 69.4628 4.96098 69.475 4.95151L70.3911 4.24087C70.3972 4.2361 70.4043 4.2326 70.4118 4.23059C70.4193 4.22858 70.4271 4.22809 70.4348 4.22916C70.4425 4.23022 70.4499 4.23282 70.4566 4.23679C70.4632 4.24077 70.469 4.24604 70.4736 4.2523L71.6313 5.82339L71.6313 5.82329ZM93.3752 3.8479C93.3796 3.85938 93.3803 3.87197 93.3772 3.88387C93.374 3.89576 93.3672 3.90635 93.3576 3.91411L90.4176 6.30054C90.4102 6.30652 90.4015 6.31061 90.3922 6.31245C90.3829 6.3143 90.3733 6.31383 90.3642 6.31111C90.3551 6.30838 90.3468 6.30348 90.34 6.29682C90.3333 6.29016 90.3283 6.28195 90.3254 6.2729L89.9028 4.93501C89.8993 4.92387 89.8993 4.91193 89.9026 4.90075C89.906 4.88957 89.9127 4.87966 89.9218 4.87232L92.7896 2.55073C92.7967 2.54498 92.8051 2.54099 92.814 2.53908C92.823 2.53718 92.8323 2.53742 92.8411 2.53978C92.85 2.54214 92.8581 2.54655 92.865 2.55266C92.8718 2.55878 92.8771 2.56641 92.8804 2.57495L93.3752 3.8479ZM84.0242 4.78208H86.3703C86.3857 4.78208 86.4006 4.77595 86.4115 4.76503C86.4224 4.75412 86.4285 4.73932 86.4285 4.72388V3.83482C86.4285 3.81938 86.4224 3.80457 86.4115 3.79366C86.4006 3.78274 86.3857 3.77661 86.3703 3.77661H84.0242C84.0088 3.77661 83.994 3.78274 83.9831 3.79366C83.9721 3.80457 83.966 3.81938 83.966 3.83482V4.72388C83.966 4.75601 83.9921 4.78208 84.0242 4.78208ZM94.3222 4.23589V3.02671C94.3222 2.99448 94.3482 2.96851 94.3804 2.96851H99.4875C99.5196 2.96851 99.5456 2.99458 99.5456 3.02671V4.06138C99.5456 4.12306 99.5211 4.18222 99.4774 4.22583C99.4338 4.26945 99.3747 4.29397 99.313 4.29399H94.3804C94.365 4.29399 94.3502 4.28787 94.3392 4.27698C94.3283 4.26609 94.3222 4.25131 94.3222 4.23589ZM5.55322 7.59927C6.77471 7.90737 7.67891 9.01333 7.67891 10.3306C7.67891 11.8862 6.41787 13.1472 4.86221 13.1472H0V2.73423H4.43574C5.8499 2.73423 6.99629 3.88061 6.99629 5.29478C6.99629 6.30835 6.40742 7.18433 5.55322 7.59927ZM1.02393 3.92915V7.17251H4.18018C5.07568 7.17251 5.80186 6.44644 5.80186 5.55083C5.80186 4.65523 5.07578 3.92915 4.18008 3.92915H1.02383H1.02393ZM1.02393 8.36744V11.9523H4.52139C5.51123 11.9523 6.31377 11.1498 6.31377 10.1599C6.31377 9.16997 5.51123 8.36744 4.52139 8.36744H1.02383H1.02393ZM17.2131 11.5933C17.2629 11.7313 17.3541 11.8505 17.4741 11.9348C17.5942 12.019 17.7373 12.0642 17.884 12.0642H18.7318V13.1472H17.2828C16.7601 13.1472 16.3022 12.8691 16.0492 12.4529C15.4107 12.7881 14.6923 12.9765 13.9325 12.9765C11.2819 12.9765 9.1332 10.6837 9.1332 7.85543C9.1332 5.02701 11.2819 2.73423 13.9325 2.73423C16.5831 2.73423 18.7318 5.027 18.7318 7.85532C18.7318 9.32994 18.1479 10.6589 17.2131 11.5933ZM13.9325 11.9523C16.0151 11.9523 17.7034 10.118 17.7034 7.85532C17.7034 5.59263 16.0151 3.75845 13.9325 3.75845C11.8499 3.75845 10.1616 5.59273 10.1616 7.85532C10.1616 10.118 11.8499 11.9523 13.9325 11.9523ZM20.9424 2.73423H25.0145C27.3277 2.73423 29.203 4.60942 29.203 6.92271V8.95884C29.203 11.272 27.3277 13.1473 25.0145 13.1473H20.9424C20.9271 13.1473 20.912 13.1443 20.8979 13.1385C20.8837 13.1326 20.8709 13.124 20.8601 13.1132C20.8493 13.1024 20.8407 13.0896 20.8349 13.0755C20.8291 13.0613 20.8261 13.0462 20.8261 13.0309V2.85054C20.8261 2.78628 20.8781 2.73423 20.9424 2.73423ZM22.1392 3.92915C22.0749 3.92915 22.0228 3.9812 22.0228 4.04546V11.836C22.0228 11.9003 22.0749 11.9522 22.1392 11.9522H24.8436C26.4015 11.9522 27.6644 10.6894 27.6644 9.1315V6.74995C27.6644 5.19204 26.4015 3.92915 24.8436 3.92915H22.1392Z" fill="#231815"/>
</svg>
